<svg xmlns="http://www.w3.org/2000/svg" version="1.2" baseProfile="tiny" stroke-linecap="round" stroke-linejoin="round" viewBox="0 0 800 839">
  <g id="AB" fill="none" stroke="#aaa">
    <path d="M538 507.389l-2.213 6.785 9.902 9.053 12.105 3.447-13.51 13.87-17.392 27.68-10.677-.965.47 12.18-9.87.793-17.404-9.857-.538-7.57 6.593-22.843 20.148-21.498 4.562-11.023 6.252 7.884L538 507.39z" id="4482"/>
    <path d="M479.264 520.588l-15.291 15.367 9.58 8.479 4.62 12.947 10.7 5.423.538 7.57 17.404 9.858-16.88 1.944-9.842-3.066-25.037 6.5-8.27 14.935-9.801 6.087-8.969 19.878 15.075 30.88-.779 11.073-12.718.589-3.13-16.248-7.25-4.156-2.926-21.899 5.855-4.88 6.223-26.309-6.372-29.992 10.92-10.88 7.24-16.56-9.219-3.503-10.917 7.24-4.912-19.122 9.67-12.703 34.202.906 5.344 6.257 14.942 3.385z" id="7099"/>
    <path d="M520.176 507.441l-4.562 11.023-20.148 21.498-6.593 22.842-10.7-5.423-4.62-12.947-9.58-8.479 15.29-15.367 18.596-27.8 7.922 1.578 14.67-7.039-.275 20.114z" id="4106"/>
    <path d="M387.39 460.272l-2.392 19.029 5.258 22.7-5.678 14.637 10.126 16.095-2.216 26.126 8.238 17.848-18.837-13.378-4.28-14.792-13.444-15.366-11.967-21.242 1.908-15.788L366.07 485.7l-1.82-10.183 13.654-15.031 9.486-.214z" id="7044"/>
    <path d="M422.022 458.164l8.379 19.62-11.589 5.406-2.936 22.77 8.9 4.08-9.67 12.703 4.912 19.121 10.918-7.239 9.218 3.503-7.24 16.56-10.92 10.88 6.372 29.992-6.223 26.31-5.855 4.88 2.925 21.898 7.251 4.156 3.13 16.248-2.339 10.66-10.356-1.513-.814-12.845-21.365-27.388 7.19-13.406 12.259 1.108 5.957-27.074-19.4-21.887-8.238-17.848 2.216-26.126-10.126-16.095L390.256 502l-5.258-22.7 2.393-19.028 11.822-3.068 22.808.96z" id="6217"/>
    <path d="M516.657 456.612l8.529 19.302-4.735 11.413-14.67 7.039-7.922-1.578-10.297-13.427-5.187-18.797 12.67-8.284 21.612 4.332z" id="9019"/>
    <path d="M313.963 451.85l3.835 11.63 29.793 6.285 6.532-3.33 10.128 9.082 1.82 10.183-11.965 10.441-23.274 5.632-5.45-9.328-12.781 1.981-14.69-8.344-9.021-24.413 18.728-.384 6.345-9.436z" id="7810"/>
    <path d="M557.368 494.867l-4.924-7.91 10.412-21.207 18.334-25.585 15.396-7.046 5.712 5.2 6.263 38.789-12.03-6.68-16.01 25.141-12.526-3.601-10.627 2.9z" id="4268"/>
    <path d="M468.702 440.078l8.177 4.413 5.496 16.073 5.187 18.797 10.297 13.427-18.595 27.8-14.942-3.385-5.344-6.257-34.202-.906-8.9-4.08 2.936-22.77 11.589-5.406-8.38-19.62 5.12-12.4-1.242-16.29 14.66-11.512 12.84 19.253 15.303 2.863z" id="1874"/>
    <path d="M527.235 434.844l-4.85 16.772-5.728 4.996-21.613-4.332-12.669 8.284-5.496-16.073-8.177-4.413 11.878-7.857 3.227-9.958 13.667-9.802 14.91-3.105 4.602 14.554 10.249 10.934z" id="4240"/>
    <path d="M318.581 413.418l7.205 13.947-11.823 24.484-6.345 9.436-18.728.384-8.622-18.497 3.893-16.498-2.51-16.135 3.647-5.878 19.908-7.138 10.645 5.365 2.73 10.53z" id="3841"/>
    <path d="M582.703 403.928l1.146 5.888-11.072 24.474 8.413 5.875-18.334 25.585-10.412 21.208 4.924 7.91-11.451 1.246-7.918 11.275-11.571 7.936-6.252-7.884.275-20.114 4.735-11.413-8.529-19.302 5.728-4.996 4.85-16.772 9.05-12.504 10.28-1.448 9.976-15.178 14.667-12.33 11.495 10.544z" id="7945"/>
    <path d="M349.091 396.439l-.215 12.176 11.346 5.814 7.305 13.487.28 14.4 9.431 3.967.667 14.203-13.654 15.031-10.128-9.082-6.532 3.33-29.793-6.285-3.835-11.63 11.823-24.485-7.205-13.947 16.99-19.639 13.52 2.66z" id="3397"/>
    <path d="M440.558 417.962L425.9 429.475l1.243 16.29-5.12 12.399-22.809-.96-11.822 3.068-9.486.214-.666-14.203-9.432-3.967-.28-14.4-7.305-13.487-11.346-5.814.215-12.176 19.243-3.179 4.962 3.33 18.301-9.795 7.217 11.466 21.944 5.944 19.8 13.757z" id="8826"/>
    <path d="M618.18 369.007l1.198 16.566 8.26-.33 2.474 13.062 8.991 5.037-7.411 5.618-11.43-2.451-23.676 26.61-15.396 7.046-8.413-5.875 11.072-24.474-1.146-5.888 8.024-9.283-2.564-7.327 9.256-15.784 20.761-2.527z" id="6930"/>
    <path d="M698.995 368.78l.687 12.033-9.022 12.802 2.601 16.405-13.123 17.735-8.54-1.394-11.709-11.727-18.452-4.267-1.155-6.804 23.787-20.47 9.184-2.036 9.145-13.755 13.449-2.637 3.148 4.115z" id="3761"/>
    <path d="M515.013 372.032l-7.416 10.308 1.214 22.551-11.337 7.57-13.667 9.802-17.664-9.92-5.772-12.387 11.064-4.579.414-18.347 11.262-9.865-2.306-7.238 34.208 12.105z" id="1071"/>
    <path d="M682.398 367.302l-9.145 13.755-9.184 2.036-23.787 20.47-1.179-.221-8.991-5.037-2.474-13.062-8.26.33-1.198-16.566 16.765-18.54 11.68-4.037 23.32 15.873 12.453 5z" id="3805"/>
    <path d="M559.852 349.999l12.841 10.081-13.244 15.935-7.232 16.968 4.324 12.731-9.976 15.178-10.28 1.448-9.05 12.504-10.249-10.934-4.601-14.554-14.911 3.105 11.337-7.57-1.214-22.551 7.416-10.308 8.96-3.38 3.038-18.699 21.173-6.48 11.668 6.526z" id="2988"/>
    <path d="M594.035 349.764l3.384 21.77-9.256 15.784 2.563 7.327-8.023 9.283-11.495-10.545-14.667 12.331-4.324-12.731 7.232-16.968 13.244-15.935-12.84-10.081 19.548-9.645 14.634 9.41z" id="6164"/>
    <path d="M776.775 327.79l-21.834 13.208-13.802-1.392-16.896 14.19-17.125 23.732-8.123-8.748-3.148-4.115-10.12-15.53-21.252-12-4.198-7.454 12.326-3.1 6.383-8.453 5.8-.455 21.304 7.82 27.393-12.778 9.278 2.062 32.7 7.31 1.314 5.703z" id="8354"/>
    <path d="M513.048 306.598l10.131 11.889.918 9.276-7.614 7.652 10.528 14.538-3.037 18.7-8.961 3.38-34.208-12.106-7.533-20.815 12.768-9.731 7.758 3.733 9.048-7.63 9.35-19.036.852.15z" id="7384"/>
    <path d="M610.94 305.51l-13.99 17.323-4.935 12.752 2.02 14.18-14.634-9.411-9.554-31.22 7.799-10.488 14.86 7.137 18.434-.272z" id="4188"/>
    <path d="M336.038 294.03l4.43 12.822 16.4 5.704 22.496 18.897 18.54 2.577 14.183 13.697 11.97 18.606-2.556 7.31-14.277 11.185-15.627 1.967-18.301 9.794-4.962-3.329-19.243 3.179-13.52-2.66-6.638-4.628-4.652-17.553.1-14.077 7.121-23.89-9.376-16.124 4.267-9.127-6.45-19.846 16.095 5.497z" id="5577"/>
    <path d="M570.19 285.269l7.456 13.377-7.8 10.489 9.555 31.219-19.548 9.645-11.67-6.527-21.172 6.481-10.528-14.538 7.614-7.652-.918-9.276-10.13-11.89 57.14-21.328z" id="5700"/>
    <path d="M660.277 329.68l4.198 7.455 21.252 12 10.12 15.53-13.45 2.637-12.452-4.999-23.32-15.873-11.68 4.036-16.765 18.541-20.76 2.527-3.385-21.77-2.02-14.179 4.936-12.752 13.989-17.322 11.628-8.103-.132-22.746 17.752 20.73 18.066 26.347 2.023 7.942z" id="1348"/>
    <path d="M389.635 264.53l5.658 3.113 23.327-2.971 10.26 2.688 21.484 12.82 21.932 22.397 4.117 22.579-7.712 1.894-7.822-.3-8.58-16.884-15.02.698-17.114-16.534-.37-7.333-27.13-7.377-11.877-7.913 8.847-6.877z" id="4142"/>
    <path d="M307.432 270.358l12.51 18.176 6.45 19.846-4.266 9.127 9.376 16.124-7.121 23.89-.1 14.077 4.652 17.553 6.637 4.628-16.989 19.64-2.73-10.531-10.645-5.365-19.908 7.138-3.571-1.237-3.887-11.813 2.498-10.945-15.901-15.652-14.737-1.239-4.927-13.712-9.765-6.531-6.34-12.095-15.196-2.82 2.968-8.124-6.86-11.994 2.87-12.067-13.134-12.457.156-6.568 11.594-9.904 11.95.985 8.708 8.79 19.605-8.75 14.957 1.005 18.873-8.204 22.273 9.03z" id="1936"/>
    <path d="M572.246 281.133l-2.056 4.136-57.142 21.329-.851-.15-6.109-13.9-8.516-4.976 11.02-12.485 8.29-18.378 8.913 1.538 11.785.597 3.676 7.235 18.156-.17 12.834 15.224z" id="8096"/>
    <path d="M416.78 233.682l26.546 2.92 22.784 16.892 14.508 29.05 16.954 5.028 8.516 4.975 6.108 13.901-9.35 19.037-9.048 7.63-7.758-3.734-12.768 9.732-3.452-2.52-1.12-9.543 7.713-1.894-4.117-22.58-21.932-22.396-21.483-12.82-10.26-2.688-23.328 2.97-5.658-3.112 7.535-15.242-6.037-9.104 25.648-6.502z" id="4366"/>
    <path d="M776.775 327.79l-1.313-5.703-32.702-7.31 17.517-33.423-3.86-17.126-13.455 5.767.47-13.413 14.24-5.176 2.01-19.952 8.9 8.534 8.944-8.114 14.884 13.83 6.59 12.76-2.662 11.347-10.647-1.159-10.116 38.73 9.58 4.025 4.133 10.057-12.513 6.326z" id="3958"/>
    <path d="M569.546 239.275l.295 22.432 11.658 8.426-9.253 11-12.834-15.225-18.156.171-3.676-7.235-11.785-.597 5.903-7.455 3.705-21.277 34.143 9.76z" id="6547"/>
    <path d="M161.257 219.822l7.153 9.417 10.487-.106 13.47 11.966 9.94 16.534 6.875 4.163 1.884 5.707-11.594 9.904-15.413-.774-29.242-7.615-3.24-12.35-9.895-10.77-3.673-14.114 9.205-11.15 14.043-.812z" id="4008"/>
    <path d="M752.092 217.86l7.59 13.594-2.01 19.952-14.24 5.175-.47 13.414 13.455-5.767 3.86 17.126-17.517 33.423-9.277-2.062-27.393 12.778-21.305-7.82 1.78-9.76 9.277-11.432 6.16-24.233 13.869-8.235 9-17.452-8.281-23.022 18.612-.62 16.89-5.059z" id="5103"/>
    <path d="M389.128 212.779l5.059 12.755 10.425 3.426 15.279-1.762-3.11 6.484-25.648 6.502 6.037 9.103-7.535 15.243-8.847 6.877-20.992 13.889-11.356.36-12.402 8.375-16.096-5.497-12.51-18.176 11.22-3.562.493-11.29 20.02.089 22.828-28.27 10.75.58 16.385-15.126z" id="4981"/>
    <path d="M516.882 256.71l-8.29 18.377-11.02 12.485-16.954-5.028-14.508-29.05-22.784-16.892-26.545-2.92 3.11-6.484 9.358-14.13 20.833 6.531 12.649-8.147 24.577 23.168 14.59 17.945 14.984 4.144z" id="7767"/>
    <path d="M222.77 233.35l-13.588 28.446-6.875-4.163-9.94-16.534-13.47-11.966-10.487.106-7.153-9.417 15.241-5.732 4.704-6.863 14.322-1.617 21.787 6.514-1.182 13.075 6.64 8.15z" id="1151"/>
    <path d="M716.59 223.54l8.28 23.021-9 17.452-13.868 8.236-6.16 24.232-9.276 11.431-1.78 9.76-5.8.456-.286-14.803-12.42-7.364-.212-38.79-8.18-8.548-16.575-3.673 6.24-8.341-.804-10.652 12.466-10.441-.754-12.059 5.18 4.726 16.654-4.417 7.62 15.124 28.675 4.65z" id="7865"/>
    <path d="M287.51 221.488l-4.153 27.624 1.802 12.217-18.873 8.204-14.957-1.006-19.606 8.751-8.707-8.79-11.95-.985-1.884-5.707 13.588-28.447 8.236-4.982 16.64-26.162 10.372 10.842 20.626.261 8.866 8.18z" id="3459"/>
    <path d="M595.018 191.456l-1.938 6.9 7.803 16.376 9.363-3.64 16.22 1.658 4.032 9.491 16.251 3.716.805 10.652-6.241 8.341-5.504 8.24-18.823 11.922-9.16-2.14-14.789 6.754-11.538.407-11.658-8.426-.295-22.432-5.065-20.495 11.059-27.226 19.478-.098z" id="5210"/>
    <path d="M336.249 191.516l5.076 18.317 12.71 5.803 19.32-6.4 19.43-2.216-3.657 5.759-16.385 15.127-10.75-.582-22.827 28.27-20.021-.088-.493 11.29-11.22 3.562-22.273-9.029-1.802-12.217 4.153-27.624 5.041-16.472 10.787-16.089 13.364-.044 7.591 6.466 11.956-3.833z" id="5826"/>
    <path d="M227.622 186.525l7.737 2.197-.858 7.534 13.145 5.949-16.64 26.162-8.236 4.982-6.64-8.15 1.181-13.075-21.787-6.513-14.322 1.616-1.865-16.76 5.83-7.733 12.784-4.984 29.67 8.775z" id="6761"/>
    <path d="M651.198 170.68l8.154 24.43-.891 8.347.754 12.059-12.466 10.441-16.25-3.716-4.032-9.49-16.221-1.66-9.363 3.641-7.803-16.376 1.938-6.9 8.379 1.856 11.424-26.29 25.513-.603 10.864 4.261z" id="4703"/>
    <path d="M547.218 169.957l13.474 6.873 14.848 14.724-11.059 27.226 5.065 20.495-34.143-9.76-3.705 21.277-5.903 7.455-8.913-1.538-14.984-4.144-14.59-17.945-24.577-23.168 4.56-6.083-9.55-11.567 11.374-6.907 15.656 2.05 16.498-9.045 1.844-13.922 3.302 8.928 10.665 5.872 12.514-1.9 10.311-12.21 7.313 3.29z" id="1213"/>
    <path d="M402.869 164.311l-6.219 13.633 1.608 15.304-5.473 13.772-19.43 2.217-19.32 6.399-12.71-5.803-5.076-18.317 9.63-23.683-4.099-8.314 17.973 9.178 6.166 12.711 36.95-17.097z" id="6397"/>
    <path d="M185.168 182.734l-5.831 7.733 1.865 16.76-4.704 6.863-15.24 5.732-14.044.813-10.802-12.079-3.51-19.659-4.963-4.502 9.439 1.151 13.33-8.623 2.433-7.769 15.085-5.537.065-6.039 9.488-2.038 6.292 10.764 1.097 16.43z" id="7446"/>
    <path d="M674.37 157.619l3.115 6.88 29.761 20.84 14.45 7.372 26.457-.691 7.266 7.189-3.327 18.651-16.89 5.059-18.612.62-28.675-4.649-7.62-15.124-16.654 4.417-5.18-4.726.891-8.347-8.154-24.43 16.643-14.543 6.529 1.482z" id="4302"/>
    <path d="M469.115 186.895l-11.374 6.907 9.55 11.567-4.56 6.083-12.649 8.147-20.833-6.53-9.358 14.13-15.28 1.76-10.424-3.425-5.06-12.755 3.658-5.759 5.473-13.772-1.608-15.303 6.219-13.634 6.702-8.143 12.526-2.173 13.482 16.813 12.394-4.011 21.142 20.098z" id="6627"/>
    <path d="M127.233 131.888l2.417 3.99 33.181 9.521 5.46 12.179-.065 6.04-15.085 5.536-2.432 7.769-13.331 8.623-9.439-1.151-28.13-6.15 3.136-8.706-4.671-12.407-13.56-10.963 27.524-5.343 14.995-8.938z" id="8425"/>
    <path d="M516.567 134.946l11.205.364 27.238 8.654 5.583-5.089 8.875 20.34-22.25 10.742-7.313-3.29-10.31 12.21-12.515 1.901-10.665-5.872-3.302-8.928-8.359 1.977-25.267-18.006 1.554-8.181 5.624-12.653 29.486 14.366 10.416-8.535z" id="5755"/>
    <path d="M422.11 120.177l5.797 10.853 11.748-1.316 11.35 8.012 20.036 4.042-1.553 8.181 25.266 18.006 8.36-1.977-1.845 13.922-16.498 9.045-15.656-2.05-21.142-20.098-12.394 4.011-13.482-16.813-12.526 2.173-.578-19.715 2.67-12.356 10.447-3.92z" id="5167"/>
    <path d="M330.81 111.292l10.657 9.335-2.023 12.46 2.336 26.432 4.098 8.314-9.63 23.683-11.955 3.833-7.59-6.466-13.365.044-9.514-18.887-2.694-21.692 2.285-33.07 37.395-3.986z" id="2915"/>
    <path d="M84.394 110.636l36.352 8.457 6.487 12.795-14.995 8.938-27.524 5.343-19.924-25.746 19.603-9.787z" id="6271"/>
    <path d="M64.79 120.424l19.924 25.745 13.56 10.963 4.671 12.407-3.136 8.705-9.821 5.89-24.171-.806-15.366-15.707-12.866-.93-10.502-9.545-14.576-1.844-.008-9.774L1 133.15l1.98-11.963 21.482-14.003 15.136 12.029 18.56-3.494 6.632 4.706z" id="2577"/>
    <path d="M408.993 136.453l.578 19.715-6.702 8.143-36.95 17.097-6.166-12.711-17.973-9.178-2.336-26.432 2.023-12.46-10.657-9.335 21.125-.004 12.569-5.054 9.647 5.192 13.053 16.274 13.225 1.73 8.564 7.023z" id="6976"/>
    <path d="M168.218 104.006l-6.668 15.908 6.607 9.857-5.326 15.628-33.181-9.522-2.417-3.989-6.487-12.795 8.032-10.096 12.176 4.184 17.393-10.74 9.871 1.565z" id="8229"/>
    <path d="M612.967 107.643l12.66 34.206 14.707 24.57-25.513.603-11.424 26.29-8.379-1.856-19.478.099-14.848-14.725-13.474-6.873 22.25-10.742 32.06-13.292 7.04-29.962-4.875-13.935 9.274 5.617z" id="1794"/>
    <path d="M674.37 157.619l-6.529-1.482-16.643 14.543-10.864-4.261-14.708-24.57 8.886-2.07 12.494-11.25 12.34 2.87 10.158-10.864 9.798 2.541 12.78-16.063 6.427 12.857-5.98 21.444-18.16 16.305z" id="6048"/>
    <path d="M293.415 115.278l-2.285 33.07 2.694 21.692 9.514 18.887-10.787 16.089-5.04 16.472-8.867-8.18-20.626-.261-10.372-10.842-13.145-5.949.858-7.534 2.78-11.27-2.092-16.245 11.827-15.268 1.393-30.992 23.127-16.38 21.02 16.71z" id="5336"/>
    <path d="M669.504 120.535L659.345 131.4l-12.34-2.871-12.493 11.25-8.886 2.07-12.66-34.206 10.083-8.702 11.313-2.826 6.724 10.458 11.848.42 16.57 13.542z" id="5309"/>
    <path d="M603.693 102.026l4.874 13.935-7.04 29.962-32.06 13.292-8.874-20.34-5.583 5.09-27.238-8.655-11.206-.364-6.053-22.737 16.78-13.318 14.978 4.6 7.816-5.086 35.243-5.303 14.871 2.474 3.492 6.45z" id="8158"/>
    <path d="M476.665 129.115l-5.624 12.653-20.036-4.042-11.35-8.012-11.748 1.316-5.797-10.853 4.36-16.275 5.105 2.66 14.196-12.478 3.113-14.586 6.406-4.703 7.795-6.47 10.798 7.658 3.472 13.183-7.474 14.48 6.784 25.469z" id="6592"/>
    <path d="M206.904 84.764l3.495 4.025-9.653 22.884 3.479 36.412 23.397 38.44-29.67-8.775-12.784 4.984-1.097-16.43-6.292-10.764-9.488 2.038-5.46-12.179 5.326-15.628-6.607-9.857 6.668-15.908 5.435-8.988 7.366-34.967 16.484 6.113-4.724 17.847 14.125.753z" id="1455"/>
    <path d="M290.255 69.48l-17.861 29.086-23.127 16.38-1.393 30.993-11.827 15.268 2.091 16.244-2.779 11.271-7.737-2.197-23.397-38.44-3.479-36.412 9.653-22.884-3.495-4.025 11.725-2.192 5.688-15.374 12.388.31 6.162-8.327 21.225-4.144 3.262 11.416 22.9 3.026z" id="3039"/>
    <path d="M426.47 103.902l-4.36 16.275-10.447 3.92-2.67 12.356-8.564-7.023-13.225-1.73-13.053-16.275-9.647-5.19-12.57 5.053-21.124.004-37.395 3.986-21.021-16.712 17.86-29.087 16.858-4.705 10.407-8.035 14.533-3.908 17.512 13.234 16.234 3.837 9.81 18.524 24.094 9.939 18.975-1.085 7.793 6.622z" id="6468"/>
    <path d="M174.228 55.75l6.791 4.3-7.366 34.968-5.435 8.988-9.871-1.564-17.393 10.739-12.176-4.184-3.485-11.651 5.44-6.691-6.26-15.278-9.212-.343-6.88-22.295 16.16 5.568 13.6 15.53 20.372-7.22 5.268-9.916 10.447-.952z" id="2130"/>
    <path d="M455.29 74.796l-6.406 4.702-3.113 14.586-14.196 12.477-5.105-2.659-7.793-6.622-18.975 1.085-24.094-9.939-9.81-18.524-16.234-3.837-17.512-13.234-14.533 3.907 19.024-7.477 8.743-9.76 24.939-4.425 4.35 6.784 19.762 5.848 7.055-2.9 4.374 17.007 26.657 8.946 4.24 5.38 13.317-12.896 5.31 11.55z" id="6119"/>
    <path d="M109.97 31.686l-1.59 21.053 6.88 22.295 9.214.343 6.258 15.278-5.439 6.69 3.485 11.652-8.032 10.096-36.352-8.457L97.23 94.483l-7.14-7.391 1.05-15.426-4.999-10.469 3.977-9.233-5.916-17.495 4.534-11.15 21.233 8.367z" id="7197"/>
    <path d="M174.228 55.75l-10.447.95-5.268 9.917-20.372 7.22-13.6-15.53-16.16-5.568 1.588-21.053 20.578-12.257 11.421-1.312 11.932 5.399 16.097.465 4.231 31.768z" id="4767"/>
    <path d="M88.737 23.319l-4.534 11.15 5.916 17.495-3.977 9.233 5 10.47-1.051 15.425 7.14 7.39-12.837 16.154-19.605 9.788-6.631-4.706-18.56 3.494-15.136-12.029 14.956-8.456 11.91-1.893 8.021-10.701-5.523-24.634 9.864-19.11.563-34.735 24.484 15.665z" id="4525"/>
    <path d="M64.253 7.654l-.563 34.734-9.864 19.11 5.523 24.635-8.021 10.701-11.91 1.893-14.956 8.456-16.006-8.382 2.471-8.596L3.52 78.658 2.954 50.47l27.138-29.124 12.929-1.289.865-14.729L49.453 1l14.8 6.654z" id="2381"/>
    <path d="M213.472 328.618l15.196 2.82 6.34 12.094 9.765 6.531 4.927 13.712 14.737 1.24 15.9 15.651-2.497 10.945 3.887 11.813-15.513 2.72-10.742 6.315-33.498-11.991-7.987-14.604-8.38-4.623-2.394-10.28 4.655-13.788-12.54-7.591-2.483-24.356 13.834-1.385 6.793 4.777z" id="2309"/>
    <path d="M622.436 274.662l.132 22.746-11.628 8.103-18.434.272-14.86-7.137-7.456-13.377 2.056-4.136 9.253-11 11.538-.407 14.79-6.754 9.16 2.14 18.822-11.921 2.118 7.85-15.491 13.621z" id="9026"/>
    <path d="M678.986 318.128l-6.383 8.452-12.326 3.1-2.023-7.94-18.066-26.348-17.752-20.73 15.491-13.62-2.118-7.851 5.504-8.24 16.576 3.672 8.18 8.547.211 38.79 12.42 7.365.286 14.803z" id="7348"/>
    <path d="M423.878 769.371l-6.988-10.668 7.449-14.559 19.055-17.666-1.561-22.99L428.119 689l-.864-9.29 2.34-10.66 12.717-.588.779-11.074-15.075-30.879 8.969-19.879 9.802-6.086 8.27-14.935 25.036-6.5-1.858 18.498 19.083 16.717-5.015 8.756-11.51-2.81-4.499 12.877-16.384 25.036 11.081 8.02-10.186 9.987 17.59 13.602 9.147 13.587-5.443 9.022 7.49 22.662-16.024 12.43-4.046 12.74 18.925 27.614 8.336 24.165 20.315-1.395-13.253 23.425-25.693 4.156-12.784-7.088-16.476-39.333-18.08-21.983-6.93-.423z" id="8014"/>
    <path d="M380.788 271.407l11.877 7.913 27.13 7.377.37 7.333 17.113 16.534 15.02-.698 8.581 16.885 7.822.299 1.12 9.544-7.69 2.558-8.785 13.093-18.453.63-10.836 13.458-11.97-18.606-14.183-13.697-18.54-2.577-22.495-18.897-16.402-5.704-4.43-12.821 12.403-8.374 11.356-.361 20.992-13.889z" id="4927"/>
    <path d="M473.272 339.113l7.533 20.814 2.306 7.238-11.262 9.865-.414 18.347-11.064 4.58 5.772 12.386 17.664 9.92-3.227 9.958-11.878 7.857-15.304-2.863-12.84-19.253-19.8-13.757-21.944-5.944-7.217-11.466 15.627-1.967 14.277-11.185 2.556-7.31 10.836-13.458 18.453-.63 8.784-13.093 7.69-2.558 3.452 2.519z" id="1017"/>
    <path d="M400.726 576.707l19.4 21.887-5.957 27.074-12.259-1.108-7.19 13.406 21.365 27.388.814 12.845 10.356 1.513.864 9.289 13.714 14.487 1.56 22.99-19.054 17.666-7.449 14.56 6.988 10.668-17.454-20.442-36.008-11.44 4.243-23.044-8.988-8.142-16.895 8.462-3.912-15.426 28.11-19.763-1.767-10.367-18.613-8.346-11.054-17.347 11.43-30.379-2.695-9.161-14.095-12.453-5.024-23.93-6.66-13.497 5.166-24.308-7.518-13.724-1.26-11.327 9.948-2.965 23.274-5.632-1.908 15.788 11.967 21.242 13.444 15.365 4.28 14.793 18.837 13.378z" id="1696"/>
  </g>
</svg>
