<svg xmlns="http://www.w3.org/2000/svg" version="1.2" baseProfile="tiny" stroke-linecap="round" stroke-linejoin="round" viewBox="0 0 800 836">
  <g id="AB" fill="none" stroke="#aaa">
    <path d="M540.395 505.689l-2.204 6.762 9.868 9.023 12.065 3.435-13.465 13.823-10.87 15.878 3.73 6.952-10.194 4.758-10.641-.962.468 12.14-4.229 4.409-5.608-3.62-6.282-6.628-11.063-3.196-.536-7.545 6.57-22.766 20.081-21.426 4.546-10.985 6.231 7.858 11.533-7.91z" data-name="Gîrbova" class="comuna" id="4482"/>
    <path d="M481.857 518.844l-15.24 15.315 9.547 8.45 4.605 12.904 10.665 5.405.536 7.545 11.063 3.197 6.282 6.627-16.822 1.938-9.81-3.056-24.952 6.479-8.242 14.884-9.77 6.066-.859 7.18-8.079 12.632 10.082 24.105 4.942 6.67-.775 11.037-12.676.587-3.12-16.193-7.226-4.142-2.916-21.825 5.836-4.864 6.202-26.22-6.35-29.892 5.629-13.007 5.255 2.163 7.215-16.505-20.069 3.724-4.896-19.057 8.923-2.878.715-9.782 13.022 1.751 21.066-.848 5.326 6.236 14.891 3.374z" data-name="Săsciori" class="comuna" id="7099"/>
    <path d="M522.631 505.741l-4.546 10.986-20.08 21.425-6.571 22.766-10.665-5.405-4.605-12.904-9.547-8.45 15.24-15.315 18.533-27.707 7.894 1.572 14.621-7.015 3.173 8.215-3.447 11.832z" data-name="Câlnic" class="comuna" id="4106"/>
    <path d="M390.292 458.73l-2.384 18.965 5.24 22.623-5.659 14.589 2.624 9.487 7.467 6.554-2.208 26.038 6.366 5.186 1.844 12.602-18.773-13.333-4.266-14.743-13.398-15.314-11.927-21.17 1.901-15.735 11.925-10.407-1.814-10.148 13.608-14.98 9.454-.214z" data-name="Săliștea" class="comuna" id="7044"/>
    <path d="M424.807 456.629l8.351 19.555-11.55 5.387-2.926 22.694 8.87 4.066-.715 9.782-8.923 2.878 4.896 19.057 20.069-3.724-7.216 16.505-5.254-2.163-5.63 13.007 6.351 29.891-6.202 26.221-5.836 4.864 2.916 21.825 7.226 4.142 3.12 16.193-2.331 10.624-10.322-1.508-.81-12.801-21.294-27.297 7.166-13.36 12.218 1.103 5.936-26.982-9.883-8.587-9.452-13.227-1.844-12.602-6.366-5.186 2.208-26.038-7.467-6.554-2.624-9.487 5.659-14.589-5.24-22.623 2.384-18.965 11.783-3.058 22.732.957z" data-name="Pianu" class="comuna" id="6217"/>
    <path d="M519.125 455.083l8.5 19.237-4.72 11.374-14.62 7.015-7.895-1.572-10.263-13.382-5.17-18.734 12.627-8.256 10.13 4.272 11.41.046z" data-name="Cut" class="comuna" id="9019"/>
    <path d="M317.111 450.336l3.822 11.591 29.694 6.264 6.51-3.319 10.093 9.052 1.814 10.148-11.925 10.407-23.195 5.613-5.432-9.297-12.739 1.975-14.64-8.316-8.991-24.332 18.666-.382 6.323-9.404z" data-name="Șibot" class="comuna" id="7810"/>
    <path d="M559.699 493.21l-4.908-7.883 5.21-10.437-3.334-4.77 17.348-16.33 3.368-11.548 6.058-3.551 15.344-7.023 5.693 5.182-2.462 11.371 4.33 3.81 1.173 12.86 4.75 1.159-1.549 9.46-11.99-6.659-10.104 12.634-5.852 12.424-6.032-.422-6.451-3.167-10.592 2.89z" data-name="Doștat" class="comuna" id="4268"/>
    <path d="M471.33 438.604l8.15 4.398 5.478 16.02 5.17 18.733 10.262 13.382-18.533 27.707-14.892-3.374-5.325-6.236-21.066.848-13.022-1.75-8.87-4.067 2.926-22.694 11.55-5.387-8.351-19.555 5.103-12.358-4.475-4.007 3.237-12.228 14.61-11.474 12.796 19.188 10.001-2.187 5.251 5.04z" data-name="Sebeș" class="municipiu" id="1874"/>
    <path d="M529.667 433.388l-4.834 16.716-5.708 4.979-11.41-.046-10.13-4.272-12.627 8.256-5.478-16.019-8.15-4.398 11.839-7.83 3.216-9.925 13.62-9.77 14.862-3.094 4.586 14.505 10.214 10.898z" data-name="Daia Română" class="comuna" id="4240"/>
    <path d="M321.714 412.034l7.18 13.9-8.255 13.263-3.528 11.139-6.323 9.404-18.666.382.78-5.592-9.372-12.843 3.879-16.442-2.502-16.08 3.635-5.859 19.842-7.114 10.609 5.346 2.72 10.496z" data-name="Ceru-Băcăinți" class="comuna" id="3841"/>
    <path d="M584.95 402.575l1.14 5.868-11.034 24.392 8.385 5.856-6.058 3.551-3.368 11.548-17.348 16.33 3.334 4.77-5.21 10.437 4.908 7.882-11.413 1.243-7.89 11.237-11.534 7.91-6.23-7.858 3.446-11.832-3.173-8.215 4.72-11.374-8.5-19.237 5.708-4.98 4.834-16.715 9.02-12.462 10.245-1.443 9.942-15.127 14.619-12.29 11.456 10.509z" data-name="Șpring" class="comuna" id="7945"/>
    <path d="M352.121 395.111l-.214 12.136 11.307 5.794 7.281 13.442.28 14.351 9.4 3.954.663 14.155-13.608 14.981-10.094-9.052-6.51 3.32-29.693-6.265-3.822-11.591 3.528-11.14 8.255-13.263-7.18-13.9 16.932-19.573 7.209-3.14 6.266 5.791z" data-name="Blandiana" class="comuna" id="3397"/>
    <path d="M443.281 416.562l-14.61 11.474-3.236 12.228 4.475 4.007-5.103 12.358-22.732-.957-11.783 3.058-9.454.213-.664-14.155-9.4-3.954-.279-14.351-7.28-13.442-11.308-5.794.214-12.136 19.179-3.168 4.945 3.318 18.24-9.76 7.192 11.426 21.87 5.924 6.696 7.54 13.038 6.171z" data-name="Vințu de Jos" class="comuna" id="8826"/>
    <path d="M620.307 367.772l1.194 16.51 8.232-.329 2.466 13.019 8.96 5.019-7.386 5.6-11.392-2.443-23.596 26.52-15.344 7.023-8.385-5.856 11.035-24.392-1.142-5.868 7.996-9.251-2.554-7.303 9.225-15.73 20.691-2.52z" data-name="Roșia de Secaș" class="comuna" id="6930"/>
    <path d="M700.85 367.546l.685 11.992-8.991 12.76 2.592 16.349-2.907 8.952-10.173 8.724-3.998 13.422-4.512-14.812-11.67-11.688-18.39-4.252-1.152-6.781 5.79-2.457 17.918-17.945 9.153-2.029 9.114-13.709 13.404-2.628 3.137 4.102z" data-name="Cenade" class="comuna" id="3761"/>
    <path d="M517.486 370.787l.018 9.052-7.41 1.22-1.655 12.323 2.866 10.153-11.3 7.545-13.62 9.769-17.605-9.887-5.752-12.345 11.026-4.564.413-18.286 11.225-9.831-2.3-7.214 34.094 12.065z" data-name="Ciugud" class="comuna" id="1071"/>
    <path d="M684.309 366.072l-9.114 13.71-9.153 2.028-17.919 17.945-5.789 2.457-1.174-.221-8.961-5.02-2.466-13.018-8.232.329-1.194-16.51 16.708-18.48 11.642-4.022 23.241 15.82 5.092 7.201 7.319-2.219z" data-name="Cergău" class="comuna" id="3805"/>
    <path d="M562.175 348.827l12.797 10.048-13.2 15.881-7.207 16.91 4.31 12.69-9.943 15.127-10.245 1.443-9.02 12.462-10.214-10.898-4.586-14.505-14.861 3.095 11.3-7.545-2.867-10.153 1.655-12.323 7.41-1.22-.018-9.052 8.93-3.369 3.028-18.636 21.101-6.46 11.63 6.505z" data-name="Berghin" class="comuna" id="2988"/>
    <path d="M596.243 348.593l.084 17.42 3.289 4.277-9.225 15.731 2.554 7.303-7.996 9.25-11.456-10.508-14.619 12.29-4.31-12.69 7.209-16.91 13.2-15.881-12.798-10.048 19.483-9.613 4.82 7.342 9.765 2.037z" data-name="Ohaba" class="comuna" id="6164"/>
    <path d="M778.37 326.693l-21.761 13.163-13.756-1.387-16.84 14.142-17.067 23.653-8.096-8.718-3.137-4.102-10.087-15.477-21.18-11.96-4.184-7.43 12.285-3.09 6.361-8.424 5.78-.453 21.233 7.794 27.302-12.736 9.246 2.055 10.672 3.955 21.92 3.331 1.309 5.684z" data-name="Valea Lungă" class="comuna" id="8354"/>
    <path d="M515.528 305.572l10.097 11.849.914 9.245-7.588 7.626 9.688 7.785.805 6.705-3.027 18.636-8.931 3.369-34.093-12.065-7.508-20.745 12.726-9.698 7.73 3.72 9.019-7.603 9.319-18.973.85.149z" data-name="Sîntimbru" class="comuna" id="7384"/>
    <path d="M613.09 304.488l-13.942 17.264-4.919 12.71 2.014 14.131-9.765-2.037-4.82-7.342-6.12-13.392-3.403-17.722 7.774-10.453 14.81 7.113 13.986-4.59 4.386 4.318z" data-name="Crăciunelu de Jos" class="comuna" id="4188"/>
    <path d="M339.112 293.047l4.414 12.778 7.816 5.96 8.53-.275 14.135 9.079 8.286 9.755 18.477 2.568 14.136 13.651 11.93 18.543-2.548 7.286-14.23 11.147-11.182-3.188-4.391 5.15-18.24 9.76-4.945-3.318-19.179 3.168-6.266-5.791-7.209 3.14-6.615-4.612-4.637-17.494.1-14.03 4.874-5.76-1.594-9.001 3.818-9.05-9.345-16.069 4.252-9.096-6.429-19.779 16.042 5.478z" data-name="Meteș" class="comuna" id="5577"/>
    <path d="M572.477 284.315l7.432 13.332-7.774 10.453 3.403 17.722 6.12 13.392-19.483 9.613-11.63-6.505-21.101 6.46-.805-6.705-9.688-7.785 7.588-7.626-.914-9.245-10.097-11.85 11.73-4.835 5.692-7.728 8.537 3.084 11.5-6.268 19.49-5.51z" data-name="Mihalț" class="comuna" id="5700"/>
    <path d="M662.262 328.577l4.184 7.43 21.18 11.96 10.087 15.477-13.404 2.628-7.318 2.22-5.093-7.202-23.241-15.82-11.642 4.023-16.708 18.479-20.691 2.518-3.289-4.276-.084-17.42-2.014-14.132 4.92-12.71 13.942-17.264 11.589-8.075 2.673-10.447-2.805-12.223 17.692 20.661 18.006 26.258 2.016 7.915z" data-name="Blaj" class="municipiu" id="1348"/>
    <path d="M392.529 263.645l5.639 3.103 23.249-2.961 10.226 2.678 21.411 12.778 21.859 22.321 4.103 22.503-7.687 1.888-7.795-.298-8.552-16.828-14.97.696-5.362-8.532-11.693-7.947-.368-7.308-8.975-4.034-18.065-3.318-11.837-7.886 8.817-6.855z" data-name="Cricău" class="comuna" id="4142"/>
    <path d="M310.601 269.454l12.469 18.115 6.43 19.779-4.253 9.096 9.345 16.07-3.818 9.049 1.594 9-4.874 5.761-.1 14.03 4.637 17.494 6.615 4.612-16.932 19.574-2.721-10.496-10.61-5.346-19.841 7.114-3.559-1.233-3.874-11.773 2.49-10.908-15.848-15.6-14.687-1.235-6.233-4.45 1.322-9.216-9.732-6.51-6.319-12.053-15.144-2.81 2.958-8.097-6.837-11.954 2.86-12.027-13.09-12.416.156-6.545 11.555-9.87 11.91.98 8.678 8.762 19.54-8.722 14.906 1.002 18.81-8.176 22.197 8.999z" data-name="Zlatna" class="oras" id="1936"/>
    <path d="M574.527 280.192l-2.05 4.123-19.49 5.509-11.5 6.268-8.537-3.084-5.692 7.728-11.73 4.836-.849-.15-6.088-13.853-8.487-4.959 10.982-12.443-.64-6.555 8.903-11.761 8.883 1.533 11.745.595 3.664 7.21 18.095-.17 12.791 15.173z" data-name="Teiuș" class="oras" id="8096"/>
    <path d="M419.584 232.9l17.922-.155 8.533 3.066 22.708 16.835 14.46 28.953 9.306 6.966 7.591-1.955 8.487 4.959 6.088 13.854-9.319 18.973-9.018 7.603-7.731-3.72-12.726 9.698-3.44-2.51-1.116-9.512 7.687-1.888-4.103-22.503-21.859-22.32-21.411-12.779-10.226-2.678-23.25 2.96-5.638-3.102 7.51-15.191-6.017-9.073 25.562-6.48z" data-name="Galda de Jos" class="comuna" id="4366"/>
    <path d="M778.37 326.693l-1.31-5.684-21.92-3.331-10.671-3.955 17.458-33.31.895-13.176-4.742-3.893-13.41 5.748.47-13.368 14.19-5.159 2.004-19.885 8.869 8.505 8.914-8.086L799 248.12l-1.134 20.787-10.61-1.154-8.97 7.346 3.675 7.118-5.129 15.956.341 8.179 9.547 4.012 2.262 15.515-10.612.813z" data-name="Cetatea de Baltă" class="comuna" id="3958"/>
    <path d="M571.836 238.475l.294 22.356 11.618 8.398-9.22 10.963-12.792-15.173-18.095.17-3.664-7.21-11.745-.595 5.883-7.43 3.693-21.206 12.356 5.23 8.735-.274 12.937 4.77z" data-name="Rădești" class="comuna" id="6547"/>
    <path d="M164.918 219.087l7.129 9.386 10.451-.106 6.865 9.741 6.56 2.185 9.907 16.478 6.852 4.15 1.878 5.688-11.555 9.87-9.585-4.845-5.776 4.073-13.834-5.29-15.311-2.3-3.23-12.306-7.585-7.748-5.936-17.054 9.174-11.112 13.996-.81z" data-name="Ciuruleasa" class="comuna" id="4008"/>
    <path d="M753.77 217.132l8.54 7.123-.976 6.425-2.004 19.885-14.19 5.159-.47 13.368 13.41-5.748 4.742 3.893-.895 13.175-17.458 33.311-9.246-2.055-27.302 12.736-21.233-7.794 1.775-9.728 9.245-11.393 6.139-24.151 13.822-8.208 8.97-17.393-8.253-22.945 18.55-.618 9.771-6.666 7.063 1.624z" data-name="Jidvei" class="comuna" id="5103"/>
    <path d="M392.024 212.068l5.041 12.712 10.39 3.414 15.228-1.755-3.1 6.462-25.561 6.48 6.016 9.073-7.51 15.191-8.816 6.855-13.759 6.614-7.162 7.227-11.32.36-12.36 8.346-16.041-5.478-12.469-18.115 11.183-3.55.492-11.253 19.953.09 18.697-20.457 4.054-7.72 10.714.58 7.99-11.358 8.34-3.718z" data-name="Întregalde" class="comuna" id="4981"/>
    <path d="M519.349 255.85l-8.903 11.762.64 6.555-10.982 12.443-7.59 1.955-9.308-6.966-14.459-28.953-22.708-16.835-8.533-3.066-17.922.156 3.1-6.462 5.568-2.601 3.758-11.481 20.763 6.508 12.606-8.12 12.317 13.686 12.178 9.404 11.588 1.841-3.325 8.565 6.278 7.48 14.934 4.13z" data-name="Stremț" class="comuna" id="7767"/>
    <path d="M226.224 232.57l-13.542 28.35-6.852-4.149-9.906-16.478-6.56-2.185-6.866-9.741-10.451.106-7.129-9.386 4.54-5.236 10.65-.477 4.688-6.84 14.274-1.61 21.714 6.49-1.178 13.032 6.618 8.123z" data-name="Abrud" class="oras" id="1151"/>
    <path d="M718.386 222.792l8.253 22.945-8.97 17.393-13.822 8.208-6.139 24.15-9.245 11.394-1.775 9.728-5.78.453-.285-14.753-12.378-7.34-1.446-21.663 1.235-16.997-8.152-8.519-16.52-3.66 6.22-8.313-.802-10.616 5.314-8.377 7.11-2.03-.752-12.018 5.163 4.71 16.599-4.402 7.594 15.074 28.578 4.633z" data-name="Șona" class="comuna" id="7865"/>
    <path d="M290.747 220.748l.369 12.415-4.508 15.116 6.89 3.226-5.094 8.95-18.81 8.176-14.907-1.002-19.54 8.722-8.677-8.761-11.91-.981-1.878-5.689 13.542-28.35 8.208-4.966 16.585-26.075 10.337 10.806 20.557.26 8.836 8.153z" data-name="Bucium" class="comuna" id="3459"/>
    <path d="M597.223 190.816l-1.932 6.877 7.776 16.322 9.332-3.629 16.167 1.653 4.017 9.46 13.746-.427 2.451 4.13.802 10.616-6.22 8.313-5.486 8.213-9.209 2.45-9.55 9.43-9.129-2.131-14.74 6.731-11.5.405-11.618-8.398-.294-22.356-5.048-20.426 2.247-9.787 8.775-17.347 10.626 2.82 8.787-2.919z" data-name="Lopadea Nouă" class="comuna" id="5210"/>
    <path d="M339.322 190.877l.436 10.81 4.623 7.445 13.705-.34-1.037 6.123 19.255-6.377 19.364-2.21-3.644 5.74-8.34 3.718-7.99 11.358-10.714-.58-4.054 7.72-18.697 20.456-19.953-.089-.492 11.253-11.183 3.55-22.197-8.999 5.095-8.95-6.891-3.226 4.508-15.116-.37-12.415 5.717-3.514-.692-12.903 10.75-16.035 13.32-.044 7.566 6.444 11.915-3.82z" data-name="Mogoș" class="comuna" id="5826"/>
    <path d="M231.06 185.902l7.711 2.19-.855 7.509 13.101 5.928-16.585 26.075-8.208 4.965-6.618-8.123 1.178-13.031-21.714-6.491-14.274 1.61-1.859-16.703 5.811-7.707 12.74-4.968 18.573 7.357 10.999 1.389z" data-name="Roșia Montană" class="comuna" id="6761"/>
    <path d="M653.214 170.11l8.126 24.348-.888 8.32.752 12.018-7.11 2.03-5.314 8.376-2.451-4.13-13.745.427-4.018-9.46-16.167-1.653-9.332 3.629-7.776-16.322 1.932-6.877 8.35 1.85 7.209-11.069-.261-11.016 4.438-4.116 25.427-.602 10.828 4.247z" data-name="Hopîrta" class="comuna" id="4703"/>
    <path d="M549.583 169.39l4.532 8.699 8.897-1.85 14.798 14.676-8.774 17.347-2.248 9.787 5.048 20.426-12.937-4.771-8.735.273-12.356-5.23-3.693 21.206-5.883 7.43-8.883-1.532-14.934-4.13-6.278-7.48 3.325-8.565-11.588-1.84-12.178-9.405-12.317-13.686 4.544-6.062-9.517-11.529.88-7.284 10.456.4 15.603 2.044 16.443-9.014 1.838-13.876 3.29 8.898 10.63 5.853 12.472-1.895 10.277-12.169 7.288 3.279z" data-name="Aiud" class="municipiu" id="1213"/>
    <path d="M405.718 163.763l-.068 10.7-6.13 2.888 1.603 15.252-5.455 13.726-19.364 2.209-19.255 6.377 1.037-6.123-13.705.34-4.623-7.446-.436-10.81 6.38-9.568 3.217-14.035-4.084-8.286 11.676 9.356 6.237-.21 6.145 12.67 8 1.32 3.751-8.441 25.074-9.919z" data-name="Ponor" class="comuna" id="6397"/>
    <path d="M188.748 182.124l-5.811 7.707 1.859 16.704-4.688 6.84-10.65.476-4.54 5.236-13.996.81-10.766-12.037-3.498-19.593-4.946-4.488 9.407 1.148 13.286-8.595 2.424-7.742 15.034-5.519.066-6.019 9.455-2.03 6.271 10.727 1.093 16.375z" data-name="Sohodol" class="comuna" id="7446"/>
    <path d="M676.308 157.093l3.105 6.856 17.861 4.15-5.663 4.42 17.463 12.201 14.401 7.347 24.052-1.043 9.558 7.52-3.315 18.588-7.063-1.624-9.771 6.666-18.55.618-28.578-4.633-7.594-15.074-16.6 4.403-5.162-4.71.889-8.32-8.127-24.348 16.587-14.494 6.507 1.477z" data-name="Fărău" class="comuna" id="4302"/>
    <path d="M471.742 186.27l-10.456-.4-.88 7.284 9.517 11.53-4.544 6.061-12.606 8.12-20.763-6.508-3.758 11.48-5.569 2.602-15.227 1.755-10.39-3.414-5.042-12.712 3.644-5.74 5.455-13.725-1.602-15.252 6.129-2.888.068-10.7 6.68-8.116 12.484-2.166 9.768 7.12 3.669 9.637 12.352-3.998-.097 13.593 10.332-3.593 10.836 10.03z" data-name="Rîmeț" class="comuna" id="6627"/>
    <path d="M131.008 131.449l2.409 3.976 33.07 9.49 5.442 12.137-.066 6.02-15.034 5.518-2.424 7.742-13.286 8.595-9.407-1.148-13.858-1.46-14.178-4.67 3.126-8.676-4.656-12.365-13.574-5.969.06-4.957 27.431-5.326 14.945-8.907z" data-name="Vidra" class="comuna" id="8425"/>
    <path d="M519.034 134.496l11.168.363 27.147 8.625 5.564-5.071 7.626 11.305 1.219 8.966-22.175 10.706-7.288-3.279-10.277 12.17-12.472 1.894-10.63-5.853-3.29-8.898-8.33 1.97-25.183-17.945 1.549-8.154 5.605-12.61 13.458 8.477 15.929 5.84 10.38-8.506z" data-name="Mirăslău" class="comuna" id="5755"/>
    <path d="M424.895 119.777l5.777 10.817 11.709-1.312 11.312 7.985 19.969 4.028-1.549 8.154 25.182 17.945 8.331-1.97-1.837 13.876-16.444 9.014-15.603-2.043-10.836-10.031-10.332 3.593.097-13.593-12.352 3.998-3.67-9.637-9.767-7.12-12.484 2.166-.576-19.649 2.66-12.315 10.413-3.906z" data-name="Livezile" class="comuna" id="5167"/>
    <path d="M333.902 110.921l10.62 9.304-2.015 12.418 2.328 26.344 4.084 8.286-3.217 14.035-6.38 9.569-11.915 3.82-7.566-6.445-13.32.044-9.482-18.823-2.685-21.62 2.278-32.96 19.74-.564 17.53-3.408z" data-name="Baia de Arieș" class="oras" id="2915"/>
    <path d="M88.312 110.268l16.897 5.419 19.334 3.01 6.465 12.752-14.945 8.907-27.431 5.326-8.13-12.735-11.728-12.925 9.251-7.72 10.287-2.034z" data-name="Poiana Vadului" class="comuna" id="6271"/>
    <path d="M68.774 120.022l11.728 12.925 8.13 12.735-.06 4.957 13.574 5.969 4.656 12.365-3.126 8.676-9.788 5.87-24.09-.803-2.5-6.754-12.815-8.9-12.865-.97-10.424-9.47-14.526-1.839-.008-9.74-9.036-6.888-1.706-13.45 22.664-17.878 3.82 7.09 11.265 4.898 18.498-3.482 6.61 4.69z" data-name="Avram Iancu" class="comuna" id="2577"/>
    <path d="M411.822 135.998l.576 19.65-6.68 8.115-25.074 9.919-3.75 8.44-8.001-1.32-6.145-12.668-6.237.21-11.676-9.357-2.328-26.344 2.016-12.418-10.621-9.304 21.053-.003 12.527-5.037 9.615 5.174 13.009 16.22 13.18 1.724 8.536 7z" data-name="Sălciua" class="comuna" id="6976"/>
    <path d="M171.855 103.66l-6.645 15.855 6.585 9.824-5.308 15.576-33.07-9.49-2.409-3.976-6.465-12.753 8.005-10.061 12.135 4.17 17.335-10.704 9.837 1.56z" data-name="Vadu Moților" class="comuna" id="8229"/>
    <path d="M615.11 107.285l5.284 17.478 8.196 12.02-.862 4.594 14.658 24.486-25.427.602-4.438 4.116.26 11.016-7.208 11.07-8.35-1.85-8.787 2.918-10.626-2.82-14.798-14.676-8.897 1.85-4.532-8.699 22.175-10.706 5.389-7.209 7.728 3.153 18.835-9.191 7.016-29.862-4.857-13.888 9.242 5.598z" data-name="Ocna Mureș" class="oras" id="1794"/>
    <path d="M676.308 157.093l-6.507-1.476-16.587 14.493-10.828-4.247-14.658-24.486 8.856-2.065 12.452-11.212 12.298 2.862 1.286-7.57 8.838-3.258 3.143.098 6.623 2.434 12.737-16.01 2.778-7.603-.257 14.588 3.884 5.83-2.503 13.817-11.14 17.032-10.415 6.773z" data-name="Noșlac" class="comuna" id="6048"/>
    <path d="M296.632 114.894l-2.278 32.959 2.685 21.62 9.483 18.823-10.751 16.035.692 12.903-5.716 3.514-8.836-8.152-20.558-.261-10.336-10.806-13.101-5.928.855-7.509 2.77-11.233-2.085-16.19 11.788-15.217-.789-15.895 2.177-14.993 7.647-2.346 5.46-7.985 9.942-5.994 20.95 16.655z" data-name="Lupșa" class="comuna" id="5336"/>
    <path d="M671.458 120.134l-8.838 3.258-1.286 7.57-12.298-2.861-12.452 11.211-8.856 2.065.862-4.594-8.196-12.02-5.283-17.478 10.049-8.673 11.163-2.958 6.813 10.564 11.808.42 16.514 13.496z" data-name="Lunca Mureșului" class="comuna" id="5309"/>
    <path d="M605.869 101.687l4.857 13.888-7.016 29.862-18.835 9.191-7.728-3.153-5.39 7.209-1.218-8.966-7.626-11.305-5.564 5.071-27.147-8.625-11.168-.363-4.97-7.462-1.062-15.198 4.547-7.628 12.176-5.646 14.928 4.584 7.79-5.068 42.799-5.714 10.627 9.323z" data-name="Unirea" class="comuna" id="8158"/>
    <path d="M479.267 128.685l-5.605 12.61-19.97-4.028-11.311-7.985-11.709 1.312-5.777-10.817 4.345-16.22 5.088 2.65 14.149-12.435 3.102-14.538 6.385-4.686 7.768-6.45 18.473 10.439-11.7 24.763 6.762 25.385z" data-name="Rîmetea" class="comuna" id="6592"/>
    <path d="M210.412 84.483l3.482 4.011-9.62 22.807 4.041 6.065-3.165 10.736 2.591 19.49 23.319 38.31-11-1.388-18.571-7.358-12.74 4.968-1.094-16.375-6.271-10.728-9.455 2.031-5.442-12.137 5.308-15.576-6.585-9.824 6.645-15.855 5.417-8.957 2.185-17.937 5.15-4.444.007-12.47 4.9-1.258 11.528 7.351-4.708 17.788 14.078.75z" data-name="Cîmpeni" class="oras" id="1455"/>
    <path d="M293.482 69.25l-17.8 28.989-9.942 5.994-5.461 7.985-7.647 2.346-2.177 14.993.79 15.895-11.789 15.217 2.085 16.19-2.77 11.233-7.711-2.19-23.319-38.31-2.59-19.49 3.164-10.736-4.04-6.065 9.62-22.807-3.483-4.011 11.685-2.185 5.67-15.322 12.345.31 10.311-10.314 16.985-2.117 3.251 11.379 22.823 3.015z" data-name="Bistra" class="comuna" id="3039"/>
    <path d="M429.24 103.557l-4.345 16.22-10.412 3.906-2.66 12.315-8.536-6.999-13.181-1.724-13.009-16.22-9.615-5.174-12.527 5.037-21.053.003-17.53 3.407-19.74.566-20.95-16.655 17.8-28.99 6.037-4.94 10.764.25 10.372-8.008 14.485-3.894 17.452 13.19 16.18 3.823 9.778 18.463 24.012 9.905 18.911-1.08 7.767 6.599z" data-name="Poșaga" class="comuna" id="6468"/>
    <path d="M177.845 55.565l6.769 4.287-.007 12.47-5.15 4.444-2.185 17.936-5.417 8.958-9.837-1.559-17.335 10.703-12.135-4.17-3.473-11.612 5.42-6.668-6.237-15.227-9.182-.341-3.545-9.925-8.753-3.335 5.441-8.96 3.069 5.323 13.038.226 13.554 15.478 20.303-7.196 5.25-9.883 10.412-.949z" data-name="Albac" class="comuna" id="2130"/>
    <path d="M457.964 74.548l-6.385 4.686-3.102 14.538-14.149 12.435-5.088-2.65-7.767-6.6-18.911 1.08-24.012-9.904-9.778-18.463-16.18-3.824-17.452-13.189-14.485 3.894 11.919-7.788 7.041.336 10.512-9.976 23.057-4.162 4.335 6.762 19.697 5.828 7.03-2.89 4.36 16.95 26.567 8.916 4.226 5.362 13.272-12.853 5.293 11.512z" data-name="Ocoliș" class="comuna" id="6119"/>
    <path d="M113.802 31.583l2.25 9.238-3.833 11.744-5.441 8.961 8.753 3.334 3.545 9.926 9.182.341 6.238 15.227-5.421 6.668 3.473 11.613-8.005 10.061-19.334-3.009-16.897-5.419 5.667-2.676 7.128-13.423-7.117-7.366 1.048-15.374-4.983-10.434 3.963-9.202-5.896-17.437 4.52-11.112 21.16 8.339z" data-name="Scărișoara" class="comuna" id="7197"/>
    <path d="M177.845 55.565l-10.412.949-5.25 9.883-20.303 7.196-13.554-15.478-13.038-.226-3.069-5.324 3.832-11.744-2.249-9.238 20.509-12.216 11.382-1.307 14.594 5.469 8.531-4.263 4.81 4.638 4.218 31.661z" data-name="Horea" class="comuna" id="4767"/>
    <path d="M92.641 23.244l-4.519 11.112 5.896 17.437-3.963 9.202 4.983 10.434-1.048 15.374 7.117 7.366-7.128 13.423-5.667 2.676-10.287 2.033-9.25 7.721-6.61-4.689-18.498 3.482-11.266-4.898-3.819-7.09 14.905-8.428 11.87-1.887 7.995-10.665 9.733-4.677-10.357-7.553-4.88-12.322 5.534-16.584 4.297-2.461-1.116-26.101L68.24 7.63l10.138-1.333-.036 8.73 14.3 8.216z" data-name="Gîrda de Sus" class="comuna" id="4525"/>
    <path d="M68.24 7.631l-1.677 8.518 1.116 26.1-4.297 2.462-5.534 16.584 4.88 12.322 10.357 7.553-9.733 4.677-7.994 10.665-11.87 1.887-14.906 8.428-15.952-8.355 2.462-8.566L1 69.916l8.364-9.118-.712-22.811 6.39 3.759 19.152-20.469 12.885-1.284.863-14.68L53.49 1l14.75 6.631z" data-name="Arieșeni" class="comuna" id="2381"/>
    <path d="M216.958 327.518l15.144 2.81 6.32 12.054 9.73 6.51-1.32 9.215 6.232 4.45 14.687 1.235 15.847 15.6-2.489 10.908 3.874 11.773-5.853 5.183-9.608-2.472-10.705 6.294-10.91-3.875-22.476-8.076-7.675-7.27-.286-7.285-8.351-4.607-2.387-10.247 4.64-13.74-12.497-7.567 1.815-9.037-6.112-13.654 15.61-2.963 6.77 4.76z" data-name="Almașu Mare" class="comuna" id="2309"/>
    <path d="M624.548 273.743l2.805 12.223-2.673 10.447-11.59 8.075-4.385-4.317-13.986 4.59-14.81-7.114-7.432-13.332 2.05-4.123 9.221-10.963 11.5-.405 14.74-6.731 9.129 2.132 9.55-9.432 9.21-2.45 2.11 7.825-15.439 13.575z" data-name="Bucerdea Grânoasă" class="comuna" id="9026"/>
    <path d="M680.908 317.063l-6.361 8.424-12.285 3.09-2.015-7.915-18.006-26.258-17.693-20.66 15.44-13.576-2.112-7.824 5.486-8.213 16.52 3.66 8.152 8.52-1.235 16.996 1.447 21.663 12.377 7.34.285 14.753z" data-name="Sîncel" class="comuna" id="7348"/>
    <path d="M426.658 766.792l-6.966-10.633 7.599-7.896-.175-6.614 18.991-17.607 1.955-7.76-3.51-15.153-13.668-14.438-.861-9.258 2.33-10.624 12.677-.587.775-11.036-4.942-6.67-10.082-24.106 8.08-12.632.859-7.18 9.769-6.066 8.242-14.885 24.952-6.478-1.852 18.436 8.426 3.893 10.594 12.768-4.999 8.726-11.47-2.8-4.485 12.834-9.158 8.791 1.29 5.018-8.46 11.143 11.043 7.993-10.152 9.953 17.532 13.557 9.88 14.093-6.19 8.44 1.47 11.962 5.996 10.624-15.97 12.389-4.033 12.697 18.861 27.52 1.63 11.658 6.679 12.426 17.147-2.846 3.109 1.42-13.218 23.382-25.608 4.142-16.691-11.253-12.47-35.012-9.215-7.721-8.804-14.188-6.907-.422z" data-name="Șugag" class="comuna" id="8014"/>
    <path d="M383.712 270.5l11.837 7.886 18.065 3.318 8.975 4.034.368 7.308 11.693 7.947 5.363 8.532 14.969-.696 8.552 16.828 7.795.298 1.116 9.512-7.664 2.55-8.755 13.049-18.39.628-10.8 13.412-11.93-18.543-14.136-13.651-18.477-2.568-8.286-9.755-14.134-9.08-8.53.277-7.817-5.96-4.414-12.78 12.36-8.345 11.319-.36 7.162-7.227 13.759-6.614z" data-name="Ighiu" class="comuna" id="4927"/>
    <path d="M475.885 337.977l7.508 20.745 2.299 7.214-11.225 9.831-.412 18.286-11.027 4.564 5.752 12.345 17.605 9.887-3.216 9.924-11.839 7.83-5.25-5.04-10.002 2.187-12.797-19.188-13.038-6.17-6.695-7.54-21.87-5.925-7.193-11.427 4.39-5.149 11.183 3.188 14.23-11.147 2.548-7.286 10.8-13.412 18.39-.628 8.755-13.05 7.664-2.549 3.44 2.51z" data-name="Alba Iulia" class="municipiu resedinta" id="1017"/>
    <path d="M403.582 574.774l9.452 13.227 9.883 8.587-5.936 26.982-12.218-1.103-7.166 13.36 21.294 27.297.81 12.801 10.322 1.508.86 9.258 13.668 14.438 3.511 15.153-1.955 7.76-18.99 17.607.174 6.614-7.599 7.896 6.966 10.633-10.166-9.872-1.315-11.648-18.199-2.35-12.613-4.753-6.525 2.308-4.466-5.459.874-16.175 3.356-6.793-8.959-8.114-16.838 8.433-5.536-11.579 3.29-4.954 7.858-9.257 7.832-1.222 10.672-8.058-1.76-10.332-11.91-7.778-6.64-.54-11.017-17.29 4.034-7.038 7.357-23.238-2.686-9.13-9.531-3.731-4.517-8.68-5.007-23.85-6.638-13.451 5.149-24.227-7.492-13.678-7.293-3.46 6.036-7.83 9.916-2.954 23.195-5.613-1.901 15.735 11.927 21.17 13.398 15.314 4.266 14.743 18.773 13.333z" data-name="Cugir" class="oras" id="1696"/>
  </g>
</svg>
