<svg xmlns="http://www.w3.org/2000/svg" version="1.2" baseProfile="tiny" stroke-linecap="round" stroke-linejoin="round" viewBox="0 0 800 1538">
  <g id="AG" fill="none" stroke="#aaa">
    <path d="M517.858 1507.34l-24.922 24.766-13.755 4.406-68.818-4.359-9.672-14.218-4.117-38.321 6.32-.838 83.188-10.552 2.954 13.688 14.733 18.912 14.089 6.516z" id="17398"/>
    <path d="M559.974 1442.377l12.248.63 10.139 21.568 14.726 9.267-5.896 15.395-19.001 24.67-16.858.02-31.917-16.852-5.557 10.265-14.09-6.516-14.732-18.912-2.954-13.688 12.585-23.657 28.375-9.22 14.622-3.863 18.31 10.893z" id="20048"/>
    <path d="M521.467 1404.941l11.87 20.898-6.295 9.509-28.375 9.219-12.585 23.657-83.187 10.552-1.187-11.997-18.23-23.845 1.7-11.606 36.55-8.328 17.945-18.322 81.794.263z" id="15064"/>
    <path d="M382.991 1390.584l2.186 40.744-1.7 11.606 18.231 23.845 1.187 11.997-6.32.838 4.116 38.321-105.997 3.091-2.162-41.563 3.748-50.252-19.648-.268.77-33.096 29.865 1.797 7.347-8.89 45.652 4.942 22.725-3.112z" id="14450"/>
    <path d="M743.934 1370.935l6.954 5.772 12.968 40.173-9.079 15.165 8.9 22.714-19.134 4.035-20.895 21.269-28.516-40.045 18.36-36.755.02-7.493 30.422-24.835z" id="19114"/>
    <path d="M380.334 1325.281l17.331 25.78-.552 17.68-11.186 3.387-2.936 18.456-22.725 3.112-45.652-4.942-7.347 8.89-29.866-1.797-6.545-.78 3.818-37.22 7.603-28.557 30.022-.485 10.552 13.533 38.666.542 2.864-18.273 15.953.674z" id="16613"/>
    <path d="M493.528 1326.362l7.712 13.63 15.35 3.768 8.457 16.971-17.235 7.67 2.537 19.548 11.118 16.992-81.794-.263L421.728 1423l-36.55 8.328-2.187-40.744 2.936-18.456 11.186-3.387 16.884-13.558 28.063-4.273-7.977-26.703 40.706-18.467 18.74 20.622z" id="19560"/>
    <path d="M743.934 1370.935l-30.423 24.835-.019 7.493-18.36 36.755-12.915 7.388-19.53-38.243-25.785-8.18 11.143-14.915 14.664-12.656 40.348-20.572 11.103-23.92 24.67-21.226 5.95-7.475 29.937 21.175-11.2 29.203-19.583 20.338z" id="18741"/>
    <path d="M710.092 1258.727l28.738 48.967-24.67 21.227-11.103 23.919-40.348 20.572-14.664 12.656-25.096 3.35-19.418-34.738 16.078-12.223-9.125-11.92 16.096-18.092 19.458-33.542 19.787-14.458 7.61 6.906 22.849-12.91 13.808.286z" id="17575"/>
    <path d="M315.194 1239.09l40.218 6.938 7.362-3.558-4.037 38.793 6.216 13.76 18.406.804-3.025 29.454-15.953-.674-2.863 18.273-38.667-.542-10.552-13.533-30.022.485-9.154-10.113-.816-23.404-15.996-12.932-1.541-42.627 7.118-11.826 33.843 13.816 19.463-3.113z" id="18938"/>
    <path d="M663.755 1184.22l25.676 32.99-28.787 20.844-27.065 8.354.66-17.019-15.454-12.667-11.931 10.801-31.229-28.007-8.935 1.622 11.173-17.506 19.55-18.908 15.61-5.977 5.396 17.197 25.561-10.9 19.775 19.175z" id="19212"/>
    <path d="M338.61 1107.656l2.208 24.002 15.95 42.354-14.098 5.831.023 28.588-9.79.386-17.709 30.274-19.464 3.113-33.842-13.816-5.61-2.688-6.417-40.253-10.373-43.65-4.846-5.732 32.114-17.932 22.77 19.86 15.732-10.32 7.794-24.65 15.484-27.53 11.008 3.348-.935 28.815z" id="16944"/>
    <path d="M457.05 1075.547l45.38 20.354 8.672-5.633 18.119 25.222-11.117 19.142-19.918 14.442-7.415 26.052-35.992 27.601-3.492-10.041-16.193-37.232 3.558-4.636-11.57-42.32 12.82-4.83 10.949-20.384-9.435-12.034 15.633 4.297z" id="19007"/>
    <path d="M403.987 1056.289l2.504 18.69 15.805 2.26 19.12-5.989 9.435 12.034-10.949 20.384-12.82 4.83 11.57 42.32-3.558 4.636 16.193 37.232-52.806 1.85-35.707 47.934-7.362 3.557-40.218-6.937 17.708-30.273 9.791-.386-.023-28.588 14.098-5.83-15.95-42.355-2.209-24.002 25.87-12.78 1.058-25.637 7.89-14.085 11.826 9.307 18.734-8.172z" id="13668"/>
    <path d="M297.517 1031.116l32.196 35.469-1.177 8.908-15.484 27.53-7.794 24.65-15.732 10.32-22.77-19.86-16.236-22.298 8.581-22.449-13.182-19.56 51.598-22.71z" id="18581"/>
    <path d="M511.102 1090.268l-8.672 5.633-45.38-20.354 7.316-16.912-17.644-12.874 15.985-14.918 5.855-21.51 11.235-7.792 24.441 13.779 2.986 13.541 19.122 17.768 2.039 21.889-17.283 21.75z" id="17824"/>
    <path d="M463.15 983.077l16.464-5.234.183 23.698-11.235 7.793-5.855 21.51-15.985 14.917 17.644 12.874-7.317 16.912-15.633-4.297-19.12 5.989-15.805-2.26-2.504-18.69.953-31.506 12.602-28.406-11.448-21.995 13.733-8.728 19.34 19.643 23.983-2.22z" id="13276"/>
    <path d="M684.71 962.558l-3.01 14.17 16.453 53.282 3.295 25.215-9.72 20.878-12.477 5.055-19.29-11.322-21.864 1.736-20.98-7.48-21.926-24.958 7.758-15.78 19.054-20.704-10.32-14.261 32.392-2.825 6.36-8.569 27.735-.692 6.54-13.745z" id="16757"/>
    <path d="M288.966 950.454l6.825 23.094-5.082 7.922 5.966 25.036 9.792 5.478-8.95 19.132-51.598 22.71-29.546-22.862-6.486-12.829 12.708-8.694-6.046-39.242 13.55-10.476 21.378-18.283 37.49 9.014z" id="18028"/>
    <path d="M611.682 988.389l10.321 14.261-19.054 20.704-7.758 15.78-60.014-23.228 25.781-1.788 14.214-24.084-9.19-12.544 2.231-29.293 2.84-7.659 24.957-2.296 15.533-10.355 2.895 20.444-2.756 40.058z" id="13757"/>
    <path d="M616.96 885.991l-5.417 41.896-15.533 10.355-24.957 2.296-2.84 7.66-7.493-6.434-1.35-49.759 19.373-6.676 38.217.662z" id="18242"/>
    <path d="M96.453 882.994l4.559 13.663-8.51-3.48-9.528 21.015-3.884 39.925-26.094 29.44-29.403 9.404L1 976.561l21.242-32.163 15.956-11.533 4.374-23.097 10.933-22.64 37.736 5.746 5.212-9.88z" id="15554"/>
    <path d="M275.402 891.354l2.515 20.796 11.981 11.219 29.45 15.921 2.903 5.438-33.284 5.726-37.49-9.014-21.378 18.283 3.773-12.73-9.211-18.377 13.195-30.732-20.88-30.488 9.885-7.526 6.06-19.284 18.75 16.924 15.106 34.21 8.625-.366z" id="14085"/>
    <path d="M226.861 859.87l-9.886 7.526 20.881 30.488-13.195 30.732 9.21 18.377-3.772 12.73-13.55 10.476 6.046 39.242-12.708 8.694-6.951-48.117-21.866-3.012 1.465-47.15-11.192-18.09-7.167-61.172 34.702 6.04 4.082-15.355 23.901 28.59z" id="15652"/>
    <path d="M164.176 840.594l7.167 61.171 11.192 18.091-1.465 47.15-19.96 27.34-24.434 6.173-17.18-31.965-9.542-55.262-8.942-16.635-4.56-13.663 9.24-52.554 36.712-7.125 4.776 18.606 16.996-1.327z" id="19392"/>
    <path d="M517.826 808.51L503.48 840.42l9.297 16.477-32.701-9.648-17.087 28.5-41.756 12.965 2.573-52.516-1.94-11.996 14.268-9.545 21.75-31.878 28.768 10.228 8.318-12.974 22.855 28.476z" id="13301"/>
    <path d="M556.259 777.858l-9.682 45.722 13.647 43.007-.854 25.418 1.35 49.76 7.493 6.432-2.232 29.293 9.191 12.544-14.214 24.084-25.781 1.788-15.553-3.878-30.847-32.078 4.706-11.92-11.004-12.626 9.794-37.768-9.176-20.47 28.384-27.483 1.297-12.785-9.297-16.477 14.345-31.911 10.86-17.4 27.573-13.252z" id="15108"/>
    <path d="M105.692 830.44l-9.24 52.554-5.21 9.88-37.737-5.746-11.381-3.428 2.964-28.157 26.214-26.004-18.017-22.822 1.746-15.247 24.809-27.28 6.697-10.387 20.118 3.582 4.452 10.412-5.415 62.643z" id="16132"/>
    <path d="M605.052 753.29l1.824 19.472-12.112 43.922 5.142 15.134-8.792 13.822 8.823 15.215 17.941-2.997-.918 28.133-38.217-.662-19.373 6.677.854-25.419-13.647-43.007 9.682-45.722 11.945 2.664 20.886-31.161 15.962 3.928z" id="14352"/>
    <path d="M380.896 747.277l3.588 14.19 32.23 1.268 5.051 11.276 2.998 33.039-2.896 17.153 1.94 11.996-10.434 5.142-35.033-2.195-7.676-19.176-11.752-.377-11.936-20.359-13.648-35.158 24.514.682 12.646-15.7 10.408-1.781z" id="17209"/>
    <path d="M281.36 743.532l10.845 32.824 2.844 15.688 31.604 53.257 14.128 6.404-9.865 13.736-16.967 9.765-26.933-4.022-13.332-17.414-2.976-19.951-16.43-12.496-1.287-25.39-23.414-18.253-22.208-30.66-3.612-17.293 26.45 2.266 23.188-3.967 5.399 24.468 22.567-8.962z" id="17101"/>
    <path d="M438.148 705.564l7.299 27.719-2.579 16.492 17.232 22.887-2.216 10.118-21.749 31.878-14.268 9.545 2.896-17.153-2.998-33.04-5.051-11.275-32.23-1.269-3.588-14.19 3.01-22.278 23.898-3.38 30.344-16.054z" id="16365"/>
    <path d="M540.127 713.037l-1.661 16.411-20.39 25.82-13.813 6.27-9.291 18.496-8.32 12.974-28.768-10.228 2.216-10.118 15.246-38 30.024 1.306 21.567-30.91 13.19 7.98z" id="19338"/>
    <path d="M609.177 745.632l-4.125 7.657-15.962-3.928-20.886 31.161-11.945-2.664-27.573 13.253-10.86 17.399-22.855-28.476 9.292-18.495 13.813-6.271 20.39-25.82 1.66-16.41 3.582-6.246 17.365-1.66 41.552 27.88 6.552 12.62z" id="16285"/>
    <path d="M129.44 701.635l1.99 20.19 14.532 34.111-7.023 59.207 3.465 8.172-36.712 7.125 5.415-62.643-4.452-10.412-20.118-3.582-6.697 10.388-20.86-23.32 29.436-30.293 1.984-9.963 22.775 10.028 16.266-9.008z" id="17423"/>
    <path d="M645.18 700.079l-1.059 15.236 21.866-3.033 13.348 8.998 8.669 18.29-1.04 35.23-17.265 2.352-44.897 3.203-17.926-7.593-1.824-19.473 4.125-7.657 12.421-10.337 15.459-34.6 8.122-.616z" id="14726"/>
    <path d="M145.55 676.75l-2.599 8.97-13.51 15.915-16.266 9.008L90.4 700.614l-7.422-7.571-25.965-7.404 8.307-19.588 13.58-10.463 10.985 1.276 21.948 17.63 33.717 2.256z" id="17913"/>
    <path d="M543.708 706.792l-3.581 6.245-13.19-7.98-21.567 30.911-30.024-1.307-.23-23.79 10.975-6.226 2.987-45.795 21.18-2.859 26.531 8.155 19.243-20.517 6.375 22.211-18.7 40.952z" id="18778"/>
    <path d="M564.117 635.697l31.41 13.588 41.426-.905 2.598 9.509-13.617 14.089 1.284 13.698 17.961 14.403-8.122.615-15.459 34.601-12.42 10.337-6.553-12.62-41.552-27.88-17.365 1.66 18.699-40.952-6.375-22.212 8.085-7.93z" id="20055"/>
    <path d="M281.36 743.532l-22.566 8.962-5.4-24.468-23.186 3.967-26.451-2.266-22.37-17.147-21.242-9.8-17.194-17.06 2.6-8.97 20.106-24.362 4.007-18.606 16.34-2.786 14.303 16.853 12.563-.148 4.308-15.352 30.456.635 11.714-9.598 2.64 21.988-8.009 8.306 12.147 63.117 15.235 26.735z" id="14165"/>
    <path d="M419.828 606.297l-2.69 5.293 13.627 28.902-3.157 8.72 10.54 56.352-30.344 16.053-23.898 3.38-3.01 22.28-10.409 1.781-2.648-23.609-7.218-13.107-5.375-50.004 2.364-25.037 21.65.97 7.75-40.15 32.818 8.176z" id="15901"/>
    <path d="M170.695 621.544l-1.03 12.238-4.008 18.606-20.107 24.362-33.717-2.256-21.948-17.63-10.985-1.276-12.575-31.922 17.445 3.011 6.537-32.904 29.826 18.266 24.848.265 25.714 9.24z" id="15493"/>
    <path d="M601.775 556.006l15.867 22.95 29.626 9.2-3.91 13.723 26.106 27.002 2.924 21.16-8.987 12.419-23.85-4.571-2.598-9.509-41.426.905-31.41-13.588 8.226-22.836 20.345-28.941-.197-21.526 9.284-6.388z" id="16659"/>
    <path d="M592.491 562.394l.197 21.526-20.345 28.942-8.226 22.835-8.085 7.932-19.243 20.517-26.532-8.155-21.179 2.859 5.439-29.575-15.356-6.68 3.491-12.98 3.664-16.7 19.765-.306 6.519-17.62 13.408-.644 7.807-19.841 17.938-9.924 13.094 15.495 27.644 2.319z" id="17254"/>
    <path d="M285.443 548.78l-6.931 8.59-2.748 24.39-8.58 23.64-7.836 17.986-11.714 9.598-30.456-.635-4.308 15.352-12.564.148-14.302-16.853-16.34 2.786 1.031-12.238-9.224-16.83 6.323-30.94 22.382 2.301 6.734-17.48 17.857-2.47 2.663-16.583 23.075-.26 27.952 18.702 16.986-9.203z" id="13622"/>
    <path d="M484.93 569.138l1.386 23.778-3.664 16.7-13.827-2.987-39.695 4.384-8.461-6.91-14.292-53.08 23.051-10.594 43.971-9.497 9.82 7.225 1.71 30.981z" id="19999"/>
    <path d="M167.794 573.773l-6.323 30.941 9.224 16.83-25.714-9.24-24.848-.264-29.826-18.267-19.048-36.248 21.44-19.912 9.56-8.062 25.853-3.361 15.473-7.13 17.603 21.068-2.105 15.242 8.71 18.403z" id="19249"/>
    <path d="M408.394 513.156l-7.385 20.357 5.368 17.51 14.292 53.08-.84 2.194-32.818-8.177-7.751 40.15-21.65-.969-2.804-19.229-10.901-55.913 4.548-16.815-3.05-30.33 18 12.46 18.368-3.328 2.706-13.1 23.917 2.11z" id="17851"/>
    <path d="M636.548 499.19l10.96 38.342-.24 50.623-29.626-9.2-15.867-22.949 6.328-18.587-6.642-10.865 9.982-19.017 14.573-1.702 10.532-6.645z" id="14673"/>
    <path d="M551.754 544.58l-17.939 9.924-7.807 19.841-13.409.643-6.518 17.621-19.765.307-1.387-23.778 24.27-21.021-4.612-21.5 5.182-32.576 15.94 3.354 13.324-6.21-4.117 18.593 13.7 12.85 3.138 21.952z" id="18670"/>
    <path d="M732.196 499.795l3.605 37.34-19.508 16.672-19.701 5.288-11.428-12.454-31.765-52.79 10.956-4.171 6.143 10.552 19.483-13.212 42.215 12.775z" id="15402"/>
    <path d="M275.805 485.566l-1.115 23.356 9.494 3.038 8.981 25.773-7.722 11.048-16.986 9.203-27.952-18.702-23.075.26-2.253-12.154 25.194-32.988 17.847 9.567 17.587-18.4z" id="19695"/>
    <path d="M175.04 484.086l16.228 10.151-1.826 17.933 10.459 14.288 15.276.93 2.253 12.154-2.663 16.583-17.857 2.47-6.734 17.48-22.382-2.302-8.711-18.403 2.105-15.242-17.603-21.067 10.728-26.199-4.705-7.981 9.69-11.657 15.742 10.862z" id="19631"/>
    <path d="M408.394 513.156l-23.917-2.11-2.706 13.1-18.367 3.328-18-12.46-8.66-14.549 5.607-13.9 19.925 5.332 11.14-10.766 14.382.206L394.653 469l14.236 19.204-.495 24.952z" id="16454"/>
    <path d="M551.816 468.806l14.975 6.077 23.416 23.568 29.656-3.788 6.153 11.172-14.573 1.702-9.982 19.017 6.642 10.865-6.328 18.587-9.284 6.388-27.644-2.319-13.093-15.495-3.138-21.952-13.7-12.85 4.117-18.594-3.603-20.916 16.386-1.462z" id="17968"/>
    <path d="M149.608 484.88l4.705 7.982-10.728 26.199-15.473 7.129-25.853 3.36-9.56 8.063-7.567-11.427-22.698-8.976 8.108-14.835-20.982-5.058-4.1-24.818 5.707-7.636 30.514.699 19.123 6.153 16.853 18.815 31.951-5.65z" id="15313"/>
    <path d="M637.95 451.356l26.405 38.324-10.956 4.172-16.85 5.338-10.533 6.645-6.153-11.171-29.656 3.787-23.416-23.568-14.975-6.077 14.4-5.533 22.085-19.734 10.16-2.16 18.318-.395 21.172 10.372z" id="17334"/>
    <path d="M514.417 450.99l8.762 22.69-13.41 20.361-5.182 32.575 4.612 21.501-24.27 21.021-1.71-30.98-9.82-7.226 1.708-18.565-12.188-8.767 13.733-2.884 7.327-17.35 3.562-27.113-7.58-9.84 7.82-13.898 5.794 10.769 20.842 7.707z" id="16551"/>
    <path d="M132.465 422.208l12.766 36.413 14.068 14.603-9.69 11.657-31.952 5.65-16.853-18.816-19.123-6.153-30.514-.699 8.493-25.625-3.548-12.184 10.886-11.805 18.595 15.8 8.44 15.737 26.633-13.613 11.799-10.965z" id="19141"/>
    <path d="M260.646 401.508l-4.788 18.063 12 26.417-3.582 10.433 11.529 29.145-17.587 18.401-17.847-9.567-25.194 32.988-15.276-.93-10.459-14.288 1.826-17.933-16.228-10.151 22.91-20.648 7.69 7.184 19.393-5.761 13.847-16.073 1.794-27.727 19.972-19.553z" id="13819"/>
    <path d="M521.625 396.289l5.556 13.622 12.621.442-12.074 19.073 4.071 11.642-17.382 9.923-20.842-7.707-5.795-10.769-10.521-9.877 2.186-15.563 22.203-17.69 19.977 6.904z" id="14922"/>
    <path d="M155.008 383.753l25.089 25.925 11.737 25.23 6.116 28.53-22.91 20.648-15.741-10.862-14.068-14.603-12.766-36.413 5.577-9.051-10.526-16.661.722-13.79 26.77 1.047z" id="15448"/>
    <path d="M462.92 503.6l12.187 8.767-1.708 18.565-43.97 9.497-23.052 10.593-5.368-17.51 7.385-20.356.495-24.952L394.653 469l-3.635-9.296 10.626-15.694-14.6-22.93-14.97-36.166 4.455-20.422 12.172.13 20.443 2.203.565 31.263 17.353 19.023-4.297 20.297 13.526 21.14-2.596 17.961 6.948 17.824 22.276 9.267z" id="13999"/>
    <path d="M376.53 364.492l-4.455 20.422 14.969 36.166 14.6 22.93-10.626 15.694 3.635 9.296-6.855 12.337-14.383-.206-11.139 10.766-19.925-5.332-12.614-31.384 1.563-38.728-6.96-12.226-3.965-34.647 7.374-13.46 15.68 9.482 33.1-1.11z" id="15830"/>
    <path d="M786.276 347.969l5.62 13.46-9.289 36.504-21.37 26.518 3.755 37.957 7.628 10.823-20.838 23.053-19.586 3.51-42.215-12.774-19.483 13.212-6.143-10.552-26.404-38.324-7.287-33.646 6.683-20.624 48.11-6.63 13.534 6.706 10.962-10.22 21.31-38.637 32.574-10.605 22.44 10.269z" id="18858"/>
    <path d="M263.236 400.46l-2.59 1.048-19.972 19.553-1.794 27.727-13.847 16.073-19.392 5.761-7.691-7.184-6.116-28.53-11.737-25.23-25.089-25.925 16.437-9.228 32.323-.777 5.815-29.757 20.851-9.46 27.857 16.106-5.79 10.983 19.21 11.602-13.484 18.307 5.01 8.93z" id="15741"/>
    <path d="M280.485 338.955l15.426 23.32 24.464 7.305 3.965 34.647 6.96 12.226-1.563 38.728-23.486.603-19.49-12.372 3.457-8.734-26.982-34.219-5.01-8.93 13.485-18.307-19.21-11.602 5.79-10.983-27.857-16.106 9.951 5.581 40.1-1.157z" id="14753"/>
    <path d="M786.276 347.969l-22.44-10.27-32.572 10.606-21.311 38.636-10.962 10.221-13.534-6.707-48.11 6.63 7.064-25.044-9.286-44.94-13.558-20.963 22.18 10.1 22.314-6.226 13.489-13.65 20.187-10.771 17.866-.631 18.873-11.43.424-14.225 15.474-5.118 26.307-18.12 9.374 28.68-3.608 12.254 12.028 10.6-4.404 11.008L799 332.484l-12.724 15.485z" id="16472"/>
    <path d="M479.445 407.075l-2.186 15.563 10.521 9.877-7.818 13.898 7.579 9.84-3.562 27.112-7.327 17.35-13.733 2.885-22.276-9.267-6.948-17.824 2.596-17.961-13.526-21.14 4.297-20.297-17.353-19.023-.565-31.263-20.443-2.203-12.513-39.657 27.183-9.11-12.904-55.692 4.846-16.688 16.944-13.682-.871 12.11 9.772 18.398-3.61 12.67 14.916 10.27 7.363 36.73 28.535 19.09-16.313 9.61-1.944 36.165 18.977 9.11 10.363 13.129z" id="14405"/>
    <path d="M456.814 202.06l26.222 34.267 33.103 21.602 19.27-2.403-5.06 21.357-8.474 3.257-1.52 27.404 2.93 31.242 18.386 34.388-20.046 23.115-19.977-6.904-22.203 17.69-10.363-13.129-18.977-9.11 1.944-36.165 16.313-9.61-28.535-19.09-7.363-36.73-14.916-10.27 3.61-12.67-9.772-18.398.871-12.11 18.833-15.248 6.504-14.221 19.22 1.735z" id="13891"/>
    <path d="M621.567 306.138l13.558 20.964 9.286 44.939-7.064 25.045-6.683 20.624 7.287 33.646-21.172-10.372-18.317.394 1.446-11.808-14.435-12.632-.943-18.908 13.531-22.907-1.39-44.285 7.702-8.738-1.744-23.3-11.02-28.436.43-36.5-16.518-61.155-2.146-26.621 8.998 9.669 12.446 44.72 3.896 28.13 8.46 10.782.503 27.232 13.889 39.517z" id="13524"/>
    <path d="M573.375 146.088l2.146 26.621 16.518 61.156-.43 36.5 11.02 28.436 1.744 23.299-7.703 8.738 1.391 44.285-13.531 22.907-24.472-5.802 11.202-20.114-6.494-42.65-18.163-26.93-6.294-23.41-9.96-2.241 5.06-21.357-19.27 2.403-33.103-21.602-26.222-34.268 14.118-11.398.83-21.912 7.788-10.965 35.282-17.447 14.619 1.704 13.162-9.286 24.04.542 6.722 12.79z" id="16908"/>
    <path d="M752.374 254.188l-15.474 5.117-13.158 4.144-37.159-.687-16.526-11.157 19.42-29.745-8.228-4.123-4.26-55.575 15.21-47.085 19.874 1.992 13.667 22.78-2.774 30.186 33.017 41.591-19.604 16.565 15.995 25.996z" id="16329"/>
    <path d="M134.114 40.188l2.406 25.333-10.401 43.966-19.062 16.912 9.982 40.877-26.407 42.722 26.173 28.288-1.323 28.773 19.09 37.209-6.504 4.652-8.224 29.478-10.71 17.16 19.104 27.147-.722 13.79 10.526 16.662-5.577 9.051-11.799 10.964-26.633 13.614-8.44-15.737-18.595-15.8-9.199-30.957 7.592-5.758 1.721-21.351-15.925-6.957-.374-34.551 24.354-6.646-5.326-17.519 7.388-14.846-9.654-11.895-10.62-48.885 5.948-30.877 22.37-.954 12.15-14.319 2.127-28.474-11.604-16.037 2.268-14.674 21.358-16.255-13.11-51.371 24.874-13.515 10.778 10.78z" id="18554"/>
    <path d="M692.2 115.077l-15.21 47.085 4.259 55.575 8.228 4.123-19.42 29.745 16.526 11.157 37.159.687 13.158-4.144-.424 14.225-18.873 11.43-17.866.63-20.187 10.772-13.489 13.65-22.315 6.226-22.18-10.1-13.888-39.517-.504-27.232-8.46-10.783-3.895-28.13-12.446-44.72-8.998-9.668-6.721-12.791-24.04-.542-13.163 9.286-14.619-1.704-35.282 17.447-7.788 10.965-5.954-18.68-10.595-5.994-1.024-16.84 21.636-16.11 2.092-33.112-7.282-21.638-12.56-19.7L477.361 24.3l20.179 6.818 28.205 1.538 19.838-8.269 39.828 13.587 18.908-4.362 37.092 33.069 5.386 15.985 20.512 12.072 12.216 16.526 12.673 3.812z" id="18527"/>
    <path d="M282.976 10.961l6.55 18.938-10.81 14.045-1.85 36.09 8.701 39.613-2.913 25.645-26.332 20.489 4.248 28.816-2.4 60.11 5.144 27.9 7.891 11.596 9.28 44.752-40.1 1.157-9.95-5.582-20.852 9.462-5.815 29.756-32.323.777-16.437 9.228-26.77-1.048-19.103-27.146 10.709-17.161 8.224-29.478 6.503-4.652-19.089-37.209 1.323-28.773-26.173-28.288 26.407-42.722-9.982-40.878 19.062-16.911L136.52 65.52l-2.406-25.333 26.95-21.105 40.13-9.627 25.03 11.93 9.926-8.853 40.459-8.131 6.367 6.56z" id="14049"/>
    <path d="M458.074 36.674l12.561 19.701 7.282 21.638-2.092 33.111-21.636 16.112 1.024 16.839 10.594 5.993 5.955 18.68-.83 21.913-14.118 11.398-19.22-1.735-6.504 14.221-18.833 15.248-16.944 13.682-4.846 16.688 12.904 55.693-27.183 9.109 12.513 39.657-12.172-.13-33.1 1.11-15.68-9.482-7.374 13.46-24.464-7.304-15.426-23.321-9.28-44.752-7.89-11.595-5.144-27.901 2.399-60.11-4.248-28.816 26.332-20.49 2.913-25.644-8.7-39.614 1.85-36.089 10.81-14.045-6.551-18.938L314.818 1l20.553 10.038 12.666-9.27 17.098 5.157 5.344 17.76 70.558-2.723 17.037 14.712z" id="17771"/>
    <path d="M661.703 826.33l.504 33.302 26.754 23.59L683 910.09l11.597 30.142-9.887 22.326-6.541 13.745-27.734.692-6.361 8.569-32.393 2.825 2.756-40.058-2.895-20.444 5.417-41.896.918-28.133 16.04-6.898 13.593 4.412 4.403-18.438 9.789-10.604z" id="14584"/>
    <path d="M669.699 777.152l-6.164 19.936-1.832 29.242-9.79 10.604-4.402 18.438-13.594-4.412-16.039 6.898-17.941 2.997-8.823-15.215 8.792-13.822-5.142-15.134 12.112-43.922 17.926 7.593 44.897-3.203z" id="16427"/>
    <path d="M209.887 1018.135l6.486 12.829 29.546 22.862 13.182 19.56-8.581 22.449-17.716-6.523-46.25 5.715-21.56-26.188-10.942 3.463-5.824-30.501.737-28.295-12.29-12.987 24.435-6.173 19.96-27.34 21.866 3.012 6.95 48.117z" id="19793"/>
    <path d="M354.806 618.072l2.804 19.23-2.364 25.036 5.375 50.004 7.218 13.107 2.649 23.61-12.646 15.7-24.514-.683-25.74-2.4-15.383 14.68-10.844-32.824-15.235-26.735-12.147-63.117 8.01-8.306-2.641-21.988 7.837-17.985 11.288 29.558 12.08-7.93 28.915-7.02 19.24 6.518 16.098-8.455z" id="17049"/>
    <path d="M329.737 455.181l12.614 31.385-5.606 13.899 8.659 14.55 3.05 30.33-4.549 16.814 10.901 55.913-16.098 8.455-19.24-6.518-28.915 7.02-12.08 7.93-11.288-29.558 8.579-23.641 2.748-24.39 6.931-8.59 7.722-11.047-8.98-25.772-9.495-3.039 1.115-23.356-11.529-29.145 3.582-10.433-12-26.417 4.788-18.063 2.59-1.049 26.982 34.22-3.457 8.733 19.49 12.372 23.486-.603z" id="17619"/>
    <path d="M406.094 974.382l11.448 21.995-12.602 28.406-.953 31.506-18.734 8.172-11.827-9.307-7.889 14.085-1.058 25.637-25.87 12.78.935-28.815-11.007-3.348 1.176-8.908-32.196-35.47 8.95-19.131 24.419-7.678 8.763 9.843 45.532-11.66 10.903-21.068 10.01-7.04z" id="13935"/>
    <path d="M322.25 944.728l44.738.083 18.461 34.817 10.635 1.793-10.903 21.068-45.532 11.66-8.763-9.843-24.419 7.678-9.792-5.478-5.966-25.036 5.082-7.923-6.825-23.093 33.285-5.726z" id="17496"/>
    <path d="M203.757 729.727l3.612 17.293 22.208 30.66-5.075 13.962-31.222 3.5 9.143 15.218.537 20.92-4.082 15.353-34.702-6.039-16.996 1.327-4.776-18.606-3.465-8.172 7.023-59.207-14.533-34.111-1.988-20.19 13.51-15.915 17.194 17.06 21.241 9.8 22.37 17.147z" id="15983"/>
    <path d="M229.577 777.68l23.414 18.253 1.288 25.39 16.43 12.496 2.975 19.951 13.332 17.414-11.614 20.17-8.625.366-15.107-34.21-18.748-16.924-6.06 19.284-23.902-28.59-.537-20.92-9.143-15.219 31.222-3.499 5.075-13.962z" id="16506"/>
    <path d="M512.778 856.898l-1.297 12.785-28.384 27.482 9.176 20.47-9.794 37.769 11.004 12.625-4.706 11.921-9.163-2.107-16.464 5.234-12.405-15.82-30.136-19.504-6.716-21.166 5.453-8.652 1.888-29.22 41.757-12.965 17.086-28.5 32.701 9.648z" id="13392"/>
    <path d="M421.234 888.715l-1.888 29.22-22.313-.123-11.577-18.601 5.505-21.817-6.168-7.59-6.453-30.658 35.033 2.195 10.434-5.142-2.573 52.516z" id="13365"/>
    <path d="M385.456 899.211l11.577 18.6 22.313.124-5.453 8.653 6.716 21.165 30.136 19.504 12.405 15.82-23.984 2.22-19.34-19.643-13.732 8.728-10.01 7.039-10.635-1.793-18.461-34.817-44.737-.083-2.903-5.438 13.695-13.902 15.675-4.493 32.98-28.292 3.758 6.608z" id="13169"/>
    <path d="M451.287 1192.686l3.492 10.041 12.355 12.075 24.664 9.797 7.093 15.23 19.114 17.33 10.84-8.19 6.345 9.029-19.254 31.484-16.28 18.921-6.128 17.959-18.739-20.622-40.706 18.467 7.977 26.703-28.063 4.273-16.884 13.558.552-17.68-17.33-25.78 3.024-29.454-18.406-.805-6.216-13.76 4.037-38.792 35.707-47.934 52.806-1.85z" id="14940"/>
    <path d="M601.392 1343.97l-46.815 33.424-26.523 2.83-17.705 7.725-2.537-19.549 17.235-7.669-8.457-16.971-15.35-3.767-7.712-13.631 6.127-17.959 16.281-18.92 19.254-31.485-6.346-9.03 46.62 31.76 7.277 20.457 19.542 10.09-8.948 19.11 8.057 13.585z" id="18411"/>
    <path d="M689.431 1217.21l-3.21 18.918 15.773 5.147 8.098 17.452-13.808-.286-22.848 12.91-7.611-6.906-19.787 14.458-19.458 33.542-16.096 18.093-9.092 13.432-8.057-13.585 8.948-19.11-19.542-10.09-7.276-20.458-46.62-31.758 17.19-6.329 16.824-23.997 3.83-17.505 8.937-1.622 31.228 28.007 11.93-10.801 15.455 12.667-.66 17.02 27.065-8.355 28.787-20.844z" id="17726"/>
    <path d="M482.652 609.616l-3.49 12.98 15.355 6.68-5.439 29.574-2.987 45.795-10.975 6.226.23 23.79-15.246 38.001-17.232-22.887 2.579-16.492-7.299-27.72-10.54-56.352 3.157-8.719-13.627-28.902 2.69-5.293.84-2.194 8.462 6.91 39.695-4.384 13.827 2.987z" id="14272"/>
    <path d="M381.697 892.603l-32.979 28.292-15.675 4.493-13.695 13.902-29.45-15.921-11.98-11.22-2.516-20.795 11.614-20.17 26.933 4.022 16.967-9.765 9.865-13.736 20.392 11.927 20.524 28.97z" id="13187"/>
    <path d="M333.328 764.076l13.648 35.158 11.936 20.359 11.752.377 7.676 19.176 6.453 30.659 6.168 7.589-5.505 21.817-3.759-6.608-20.524-28.97-20.392-11.928-14.128-6.404-31.604-53.257-2.844-15.688 15.383-14.68 25.74 2.4z" id="14851"/>
    <path d="M530.35 276.883l9.96 2.242 6.293 23.408 18.163 26.93 6.494 42.651-11.202 20.114-20.256 18.125-12.62-.442-5.557-13.622 20.046-23.115-18.386-34.388-2.93-31.242 1.52-27.404 8.475-3.257z" id="20063"/>
    <path d="M584.53 398.03l.943 18.908 14.435 12.632-1.446 11.808-10.161 2.161-22.085 19.734-14.4 5.533-16.386 1.462 3.603 20.916-13.324 6.211-15.94-3.354 13.41-20.361-8.762-22.69 17.382-9.922-4.071-11.642 12.074-19.073 20.256-18.125 24.472 5.802z" id="13490"/>
    <path d="M636.902 1400.983l25.786 8.18 19.53 38.243-27.38 20.16-41.521 23.165-22.126-1.494 5.896-15.395-14.726-9.267-10.14-21.567-12.247-.631 2.345-7.46 24.652-4.653 22.4-15.587 17.603-18.74 9.928 5.046z" id="18162"/>
    <path d="M648.045 1386.068l-11.143 14.915-9.928-5.046-17.603 18.74-22.4 15.587-24.652 4.652-2.345 7.46-18.31-10.892-14.622 3.864 6.295-9.509-11.87-20.898-11.118-16.992 17.705-7.726 26.523-2.829 46.815-33.424 9.092-13.432 9.125 11.92-16.079 12.221 19.42 34.74 25.095-3.351z" id="16739"/>
    <path d="M679.251 1081.158l-1.01 21.097 6.784 21.364 35.468 12.23 4.41 7.127-36.053 35.758-7.682-5.356-17.413 10.841-19.775-19.175-25.56 10.9-5.397-17.197-15.61 5.977-1.748-18.913-12.017-9.211 14.544-58.626 12.786.525 6.14-14.407 20.98 7.48 21.864-1.736 19.29 11.322z" id="18331"/>
    <path d="M488.777 979.95l30.847 32.078 15.553 3.878 60.014 23.228 21.927 24.958-6.14 14.407-12.786-.525-14.544 58.626-16.368 18.188-16.258 6.507-26.128-30.24 4.327-15.565-18.119-25.222 17.283-21.75-2.04-21.889-19.12-17.768-2.987-13.541-24.441-13.78-.183-23.697 9.163 2.107z" id="15233"/>
    <path d="M583.648 1136.6l12.017 9.21 1.749 18.915-19.55 18.907-11.174 17.506-3.831 17.505-16.825 23.997-17.19 6.329-10.839 8.19-19.114-17.33-7.093-15.23-24.664-9.797-12.355-12.075 35.992-27.601 7.415-26.052 19.918-14.442 11.117-19.142-4.327 15.565 26.128 30.24 16.258-6.507 16.368-18.188z" id="18475"/>
  </g>
</svg>
