<svg xmlns="http://www.w3.org/2000/svg" version="1.2" baseProfile="tiny" stroke-linecap="round" stroke-linejoin="round" viewBox="0 0 800 1540">
  <g id="AG" fill="none" stroke="#aaa">
    <path d="M517.858 1507.037l-24.922 24.766-13.46 7.288-.295-2.882-68.818-4.36-9.672-14.218-4.117-38.32 6.32-.838 83.188-10.553 2.954 13.688 14.733 18.913 14.089 6.516z" data-name="Miroși" class="comuna" id="17398"/>
    <path d="M559.974 1442.073l12.248.631 10.139 21.568 14.726 9.266-5.896 15.395-18.072 24.08-17.787.61-31.917-16.851-5.557 10.265-14.09-6.516-14.732-18.913-2.954-13.688 12.585-23.657 28.375-9.219 14.622-3.864 18.31 10.893z" data-name="Râca" class="comuna" id="20048"/>
    <path d="M521.467 1404.638l11.87 20.898-6.295 9.508-28.375 9.219-12.585 23.657-83.187 10.553-1.187-11.997-18.23-23.846 1.7-11.606 36.55-8.328 17.945-18.321 81.794.263z" data-name="Căldăraru" class="comuna" id="15064"/>
    <path d="M382.991 1390.28l2.186 40.744-1.7 11.606 18.231 23.846 1.187 11.997-6.32.837 4.116 38.321-105.673 3.003-9.607-39.292 7.121-2.183 3.748-50.251-19.648-.268.77-33.096 29.865 1.796 7.347-8.89 45.652 4.942 22.725-3.111z" data-name="Bîrla" class="comuna" id="14450"/>
    <path d="M743.934 1370.631l6.954 5.773 12.968 40.173-9.079 15.164 8.9 22.715-19.134 4.035-20.895 21.268-28.516-40.045 18.36-36.755.02-7.492 30.422-24.836z" data-name="Ștefan cel Mare" class="comuna" id="19114"/>
    <path d="M380.334 1324.977l17.331 25.78-.552 17.68-11.186 3.387-2.936 18.457-22.725 3.111-45.652-4.942-7.347 8.89-29.866-1.796-6.545-.781 3.919-33.963 9.8-22.642-2.298-9.171 30.022-.486 10.552 13.534 38.666.542 2.864-18.274 15.953.674z" data-name="Hârsești" class="comuna" id="16613"/>
    <path d="M493.528 1326.058l7.712 13.63 15.35 3.768 8.457 16.972-17.235 7.669 2.537 19.548 11.118 16.993-81.794-.263-17.945 18.321-36.55 8.328-2.187-40.743 2.936-18.457 11.186-3.387 16.884-13.557 28.063-4.273-7.977-26.703 40.706-18.468 18.74 20.622z" data-name="Ungheni" class="comuna" id="19560"/>
    <path d="M743.934 1370.631l-30.423 24.836-.019 7.492-18.36 36.755-12.915 7.388-19.53-38.243-25.785-8.18 11.143-14.915 14.664-12.655 40.348-20.573 11.103-23.919 24.67-21.227 5.95-7.474 29.937 21.175-11.2 29.202-19.583 20.338z" data-name="Slobozia" class="comuna" id="18741"/>
    <path d="M710.092 1258.424l28.738 48.966-24.67 21.227-11.103 23.92-40.348 20.572-14.664 12.655-25.096 3.35-19.418-34.738 16.078-12.222-9.125-11.92 16.096-18.093 19.458-33.541 19.787-14.459 7.61 6.906 22.849-12.91 13.808.287z" data-name="Mozăceni" class="comuna" id="17575"/>
    <path d="M315.194 1238.787l40.218 6.937 7.362-3.557-4.037 38.792 6.216 13.76 18.406.804-3.025 29.454-15.953-.674-2.863 18.274-38.667-.542L312.3 1328.5l-30.022.486-9.154-10.114-.816-23.403-16.093-12.817-1.444-42.742 7.118-11.827 33.843 13.817 19.463-3.114z" data-name="Stolnici" class="comuna" id="18938"/>
    <path d="M663.755 1183.916l25.676 32.99-28.787 20.844-27.065 8.355.66-17.02-15.454-12.667-11.931 10.802-31.229-28.007-8.935 1.621 11.173-17.505 19.55-18.908 15.61-5.977 5.396 17.197 25.561-10.9 19.775 19.175z" data-name="Teiu" class="comuna" id="19212"/>
    <path d="M338.61 1107.353l2.208 24.001 15.95 42.355-14.098 5.83.023 28.589-9.79.386-17.709 30.273-19.464 3.114-33.842-13.817-10.678-28.248-11.722-58.343-4.846-5.731 32.114-17.932 22.77 19.86 15.732-10.32 7.794-24.651 15.484-27.53 11.008 3.348-.935 28.816z" data-name="Lunca Corbului" class="comuna" id="16944"/>
    <path d="M457.05 1075.244l45.38 20.353 8.672-5.632 18.119 25.222-11.117 19.141-19.918 14.442-7.415 26.052-35.992 27.601-3.492-10.04-16.193-37.232 3.558-4.637-11.57-42.32 12.82-4.83 10.949-20.383-9.435-12.035 15.633 4.298z" data-name="Suseni" class="comuna" id="19007"/>
    <path d="M403.987 1055.985l2.504 18.69 15.805 2.26 19.12-5.989 9.435 12.035-10.949 20.383-12.82 4.83 11.57 42.32-3.558 4.637 16.193 37.231-52.806 1.85-35.707 47.935-7.362 3.557-40.218-6.937 17.708-30.273 9.791-.386-.023-28.589 14.098-5.83-15.95-42.355-2.209-24.001 25.87-12.78 1.058-25.637 7.89-14.085 11.826 9.307 18.734-8.173z" data-name="Costești" class="oras" id="13668"/>
    <path d="M297.517 1030.812l32.196 35.47-1.177 8.908-15.484 27.529-7.794 24.65-15.732 10.32-22.77-19.86-16.236-22.298 8.581-22.448-13.182-19.56 51.598-22.711z" data-name="Săpata" class="comuna" id="18581"/>
    <path d="M511.102 1089.965l-8.672 5.632-45.38-20.353 7.316-16.913-17.644-12.873 15.985-14.918 5.855-21.51 11.235-7.793 24.441 13.78 2.986 13.54 19.122 17.769 2.039 21.888-17.283 21.75z" data-name="Oarja" class="comuna" id="17824"/>
    <path d="M463.15 982.774l16.464-5.235.183 23.698-11.235 7.793-5.855 21.51-15.985 14.918 17.644 12.873-7.317 16.913-15.633-4.298-19.12 5.989-15.805-2.26-2.504-18.69 4.765-5.028-3.812-26.477 12.602-28.406-13.594-12.742 2.146-9.254 13.733-8.728 19.34 19.643 16.827 5.041 7.156-7.26z" data-name="Bradu" class="comuna" id="13276"/>
    <path d="M684.71 962.254l-2.76 12.012 16.203 55.44 3.295 25.215-9.358 30.445-12.839-4.512-19.29-11.322-21.864 1.737-20.98-7.481-21.926-24.957 7.758-15.78 19.054-20.704-10.32-14.262 32.392-2.825 6.36-8.569L678.17 976l6.54-13.745z" data-name="Leordeni" class="comuna" id="16757"/>
    <path d="M288.966 950.15l6.825 23.094-5.082 7.922 5.966 25.037 9.792 5.477-8.95 19.132-51.598 22.71-29.546-22.862-6.486-12.828 12.708-8.694-6.486-21.732.44-17.51 13.55-10.476 21.378-18.283 37.49 9.013z" data-name="Poiana Lacului" class="comuna" id="18028"/>
    <path d="M611.682 988.085l10.321 14.262-19.054 20.703-7.758 15.78-12.893-9.176-14.166.268-32.955-14.32 25.781-1.788 14.214-24.084-9.19-12.543 2.231-29.293 2.84-7.66 24.957-2.296 15.533-10.354 2.895 20.444-2.756 40.057z" data-name="Topoloveni" class="oras" id="13757"/>
    <path d="M616.96 885.687l-5.417 41.897-15.533 10.355-24.957 2.296-2.84 7.659-7.493-6.433-1.35-49.76 19.373-6.675 38.217.661z" data-name="Priboieni" class="comuna" id="18242"/>
    <path d="M96.453 882.69l4.559 13.663-8.51-3.48-9.528 21.016-3.884 39.925-13.216 17.473-26.303 15.964-17.582 9.477L1 976.258l14.898-22.707 22.3-20.99 4.374-23.096 10.933-22.64 37.736 5.745 5.212-9.88z" data-name="Ciomăgești" class="comuna" id="15554"/>
    <path d="M275.402 891.05l2.515 20.796 11.981 11.219 29.45 15.921 2.903 5.438-33.284 5.726-37.49-9.013-21.378 18.283 3.773-12.73-9.211-18.377 10.663-15.229 2.532-15.503-20.88-30.488 9.885-7.527 6.06-19.283 18.75 16.923 15.106 34.21 8.625-.366z" data-name="Băbana" class="comuna" id="14085"/>
    <path d="M226.861 859.566l-9.886 7.527 20.881 30.488-2.532 15.503-10.663 15.229 9.21 18.376-3.772 12.73-13.55 10.476-.44 17.51 6.486 21.733-12.708 8.694-6.951-48.117-21.866-3.012 1.465-47.15-11.192-18.091-7.167-61.171 34.702 6.039 4.082-15.354 23.901 28.59z" data-name="Cocu" class="comuna" id="15652"/>
    <path d="M164.176 840.29l7.167 61.172 11.192 18.09-1.465 47.15-19.96 27.34-24.434 6.174-11.113-17.697-16.992-48.325 1.383-21.205-8.942-16.636-4.56-13.663 3.338-4.849 5.901-47.704 36.713-7.125 4.776 18.606 16.996-1.327z" data-name="Uda" class="comuna" id="19392"/>
    <path d="M517.826 808.206l-14.345 31.912 9.297 16.476-32.701-9.648-17.087 28.5-19.77 9.149-21.986 3.816 2.573-52.516-1.94-11.996 14.268-9.544 21.75-31.879 28.768 10.228 8.318-12.974 22.855 28.476z" data-name="Mioveni" class="oras" id="13301"/>
    <path d="M556.259 777.554l-9.682 45.722 13.647 43.008-.854 25.418 1.35 49.759 7.493 6.433-2.232 29.293 9.191 12.543-14.214 24.084-25.781 1.788-15.553-3.878-30.847-32.077 4.706-11.921-11.004-12.626 9.794-37.768-9.176-20.47 28.384-27.482 1.297-12.786-9.297-16.476 14.345-31.912 10.86-17.4 27.573-13.252z" data-name="Călinești" class="comuna" id="15108"/>
    <path d="M105.692 830.137L99.79 877.84l-3.337 4.849-5.212 9.88-37.736-5.746-11.381-3.427 2.964-28.157 26.214-26.004-11.98-9.758-7.22-22.7 11.991-19.472 15.747-13.419 6.697-10.388 20.118 3.582 4.452 10.413-5.415 62.643z" data-name="Cuca" class="comuna" id="16132"/>
    <path d="M605.052 752.986l1.824 19.473-12.112 43.921 5.142 15.134-8.792 13.822 8.823 15.216 17.941-2.998 4.743 8.634-5.661 19.5-38.217-.662-19.373 6.676.854-25.418-13.647-43.008 9.682-45.722 11.945 2.665 20.886-31.162 15.962 3.929z" data-name="Beleți-Negrești" class="comuna" id="14352"/>
    <path d="M380.896 746.973l3.588 14.19 32.23 1.268 5.051 11.276 2.998 33.04-2.896 17.152 1.94 11.996-10.434 5.143-35.033-2.195-7.676-19.177-11.752-.377-11.936-20.358-13.648-35.158 24.514.682 12.646-15.7 10.408-1.782z" data-name="Micești" class="comuna" id="17209"/>
    <path d="M281.36 743.228l10.845 32.824 2.844 15.688 31.604 53.258 14.128 6.403-9.865 13.737-16.967 9.765-26.933-4.023-13.332-17.413-2.976-19.952-16.43-12.495-1.287-25.39-23.414-18.254-22.208-30.66-3.612-17.293 26.45 2.267 23.188-3.968 5.399 24.469 22.567-8.963z" data-name="Merișani" class="comuna" id="17101"/>
    <path d="M438.148 705.26l7.299 27.72-2.579 16.491 17.232 22.888-2.216 10.117-21.749 31.879-14.268 9.544 2.896-17.153-2.998-33.039-5.051-11.276-32.23-1.268-3.588-14.19 3.01-22.279 23.898-3.38 30.344-16.054z" data-name="Dîrmănești" class="comuna" id="16365"/>
    <path d="M540.127 712.734l-1.661 16.41-20.39 25.82-13.813 6.271-9.291 18.495-8.32 12.974-28.768-10.228 2.216-10.117 4.535-19.443 10.712-18.558 30.023 1.307 21.567-30.911 13.19 7.98z" data-name="Țițești" class="comuna" id="19338"/>
    <path d="M609.177 745.328l-4.125 7.658-15.962-3.929-20.886 31.162-11.945-2.665-27.573 13.253-10.86 17.4-22.855-28.477 9.292-18.495 13.813-6.27 20.39-25.82 1.66-16.411 3.582-6.246 17.365-1.66 41.552 27.88 6.552 12.62z" data-name="Davidești" class="comuna" id="16285"/>
    <path d="M129.44 701.332l1.99 20.19 14.532 34.11-7.023 59.208 3.465 8.172-36.712 7.125 5.415-62.643-4.452-10.413-20.118-3.582-6.697 10.388-18.082-17.27-2.777-6.049 29.435-30.293 1.984-9.964 22.775 10.028 16.266-9.007z" data-name="Morărești" class="comuna" id="17423"/>
    <path d="M645.18 699.775l-1.059 15.237 21.866-3.033 19.82 21.282 3.933 27.595-2.775 13.577-17.266 2.415-44.897 3.203-17.926-7.592-1.824-19.473 4.125-7.658 12.421-10.337 15.459-34.6 8.122-.616z" data-name="Boțești" class="comuna" id="14726"/>
    <path d="M145.55 676.446l-2.599 8.97-13.51 15.916-16.266 9.007L90.4 700.311l-7.422-7.572-27.027-7.549 9.37-19.443 13.58-10.463 10.984 1.276 21.948 17.63 33.717 2.256z" data-name="Poienarii de Argeș" class="comuna" id="17913"/>
    <path d="M543.708 706.488l-3.581 6.245-13.19-7.98-21.567 30.911-30.024-1.306-.23-23.79 10.975-6.227 2.987-45.795 21.18-2.858 26.531 8.155 19.243-20.518 6.375 22.212-18.7 40.951z" data-name="Stîlpeni" class="comuna" id="18778"/>
    <path d="M564.117 635.394l31.41 13.587 41.426-.904 2.598 9.508-13.617 14.089 1.284 13.698 17.961 14.403-8.122.616-15.459 34.6-12.42 10.337-6.553-12.62-41.552-27.88-17.365 1.66 18.699-40.952-6.375-22.211 8.085-7.932z" data-name="Vulturești" class="comuna" id="20055"/>
    <path d="M281.36 743.228l-22.566 8.963-5.4-24.469-23.186 3.968-26.451-2.267-22.37-17.147-21.242-9.8-17.194-17.06 2.6-8.97 20.106-24.361 4.007-18.606 16.34-2.787 14.303 16.853 12.563-.148 4.308-15.352 30.456.635 11.714-9.598 2.64 21.988-8.009 8.306 12.147 63.117 15.235 26.735z" data-name="Băiculești" class="comuna" id="14165"/>
    <path d="M419.828 605.993l-2.69 5.293 13.627 28.903-3.157 8.719 10.54 56.352-30.344 16.053-23.898 3.381-3.01 22.279-10.409 1.782-2.648-23.61-7.218-13.107-5.375-50.004 2.364-25.036 21.65.97 7.75-40.151 32.818 8.176z" data-name="Coșești" class="comuna" id="15901"/>
    <path d="M170.695 621.24l-1.03 12.239-4.008 18.606-20.107 24.361-33.717-2.256-21.948-17.63-10.985-1.276-12.575-31.921 17.445 3.01 6.537-32.903 29.826 18.266 24.848.265 25.714 9.24z" data-name="Ciofringeni" class="comuna" id="15493"/>
    <path d="M601.775 555.702l15.867 22.95 29.626 9.2-3.91 13.723 17.76 23.054 8.346 3.949 2.924 21.159-8.987 12.42-23.85-4.572-2.598-9.508-41.426.904-31.41-13.587 8.226-22.836 20.345-28.942-.197-21.526 9.284-6.388z" data-name="Hârtiești" class="comuna" id="16659"/>
    <path d="M592.491 562.09l.197 21.526-20.345 28.942-8.226 22.836-8.085 7.93-19.243 20.519-26.532-8.155-21.179 2.858 5.439-29.574-15.356-6.68 3.491-12.98 3.664-16.7 19.765-.306 6.519-17.621 13.408-.643 7.807-19.842 17.938-9.924 13.094 15.495 27.644 2.32z" data-name="Mihăești" class="comuna" id="17254"/>
    <path d="M285.443 548.477l-6.931 8.59 5.527 21.214-8.275 3.175-8.58 23.641-7.836 17.985-11.714 9.598-30.456-.635-4.308 15.352-12.564.148-14.302-16.853-16.34 2.787 1.031-12.238-9.224-16.83 6.323-30.941 22.382 2.302 6.734-17.48 17.857-2.47 2.663-16.584 23.075-.26 27.952 18.702 16.986-9.203z" data-name="Curtea de Argeș" class="municipiu" id="13622"/>
    <path d="M484.93 568.834l1.386 23.778-3.664 16.7-13.827-2.987-39.695 4.384-8.461-6.91-14.292-53.08 23.051-10.594 43.971-9.497 9.82 7.226 1.71 30.98z" data-name="Vlădești" class="comuna" id="19999"/>
    <path d="M167.794 573.47l-6.323 30.94 9.224 16.83-25.714-9.24-24.848-.264-29.826-18.266-18.903-38.62L92.7 537.31l9.56-8.063 25.852-3.361 15.473-7.129 17.603 21.067-2.105 15.243 8.71 18.403z" data-name="Tigveni" class="comuna" id="19249"/>
    <path d="M408.394 512.852l-7.385 20.357 5.368 17.51 14.292 53.08-.84 2.194-32.818-8.176-7.751 40.15-21.65-.97-2.804-19.228-10.901-55.914 4.548-16.814-3.05-30.33 18 12.46 18.368-3.329 2.706-13.099 23.917 2.109z" data-name="Pietroșani" class="comuna" id="17851"/>
    <path d="M636.548 498.887l10.96 38.342-.24 50.622-29.626-9.199-15.867-22.95 6.328-18.587-6.642-10.864 9.982-19.018 14.573-1.701 10.532-6.645z" data-name="Boteni" class="comuna" id="14673"/>
    <path d="M551.754 544.276l-17.939 9.924-7.807 19.842-13.409.643-6.518 17.62-19.765.307-1.387-23.778 24.27-21.02-4.612-21.501 5.182-32.575 15.94 3.353 13.324-6.21-4.117 18.593 13.7 12.85 3.138 21.952z" data-name="Schitu Golești" class="comuna" id="18670"/>
    <path d="M732.196 499.491l3.612 37.396-19.514 16.616-28.466 2.893-2.664-10.058-31.765-52.79 10.956-4.172 6.143 10.552 19.483-13.212 42.215 12.775z" data-name="Cetățeni" class="comuna" id="15402"/>
    <path d="M275.805 485.263l-1.115 23.356 9.494 3.038 8.981 25.772-7.722 11.048-16.986 9.203-27.952-18.701-23.075.26-2.253-12.154 25.194-32.989 17.847 9.567 17.587-18.4z" data-name="Valea Iașului" class="comuna" id="19695"/>
    <path d="M175.04 483.782l16.228 10.151-1.826 17.933 10.459 14.288 15.276.93 2.253 12.154-2.663 16.584-17.857 2.47-6.734 17.48-22.382-2.302-8.711-18.403 2.105-15.243-17.603-21.067 10.728-26.198-4.705-7.982 9.69-11.657 15.742 10.862z" data-name="Valea Danului" class="comuna" id="19631"/>
    <path d="M408.394 512.852l-23.917-2.109-2.706 13.1-18.367 3.327-18-12.459-8.66-14.55 5.607-13.9 19.925 5.332 11.14-10.766 14.382.206 6.855-12.336 14.236 19.203-.495 24.952z" data-name="Domnești" class="comuna" id="16454"/>
    <path d="M551.816 468.502l14.975 6.077 23.416 23.568 29.656-3.787 6.153 11.172-14.573 1.701-9.982 19.018 6.642 10.864-6.328 18.587-9.284 6.388-27.644-2.319-13.093-15.495-3.138-21.952-13.7-12.85 4.117-18.593-3.603-20.916 16.386-1.463z" data-name="Poienarii de Muscel" class="comuna" id="17968"/>
    <path d="M149.608 484.577l4.705 7.981-10.728 26.2-15.473 7.128-25.853 3.361-9.56 8.063-7.567-11.428-22.698-8.976 8.108-14.835-20.982-5.058-5.082-24.736 6.69-7.718 30.513.699 19.123 6.153 16.853 18.816 31.951-5.65z" data-name="Cepari" class="comuna" id="15313"/>
    <path d="M637.95 451.052l26.405 38.324-10.956 4.172-16.85 5.339-10.533 6.645-6.153-11.172-29.656 3.787-23.416-23.568-14.975-6.077 14.4-5.533 22.085-19.733 10.16-2.161 18.318-.394 21.172 10.371z" data-name="Mioarele" class="comuna" id="17334"/>
    <path d="M514.417 450.687l8.762 22.69-13.41 20.36-5.182 32.576 4.612 21.5-24.27 21.021-1.71-30.98-9.82-7.226 1.708-18.565-12.188-8.767 13.733-2.884 7.327-17.35 3.562-27.112-7.58-9.84 7.82-13.898 5.794 10.768 20.842 7.707z" data-name="Godeni" class="comuna" id="16551"/>
    <path d="M132.465 421.904l12.766 36.413L159.3 472.92l-9.69 11.657-31.952 5.65-16.853-18.816-19.123-6.153-30.514-.699 8.493-25.625-3.548-12.183 10.886-11.805 18.595 15.799 8.44 15.738 26.633-13.614 11.799-10.965z" data-name="Șuici" class="comuna" id="19141"/>
    <path d="M260.646 401.204l-4.788 18.064 12 26.416-3.582 10.433 11.529 29.146-17.587 18.4-17.847-9.567-25.194 32.989-15.276-.931-10.459-14.288 1.826-17.933-16.228-10.15 22.91-20.649 7.69 7.185 19.393-5.762 13.847-16.073 1.794-27.727 19.972-19.553z" data-name="Albeștii de Argeș" class="comuna" id="13819"/>
    <path d="M521.625 395.985l5.556 13.622 12.621.442-12.074 19.073 4.071 11.642-17.382 9.923-20.842-7.707-5.795-10.768-10.521-9.878 2.186-15.563 22.203-17.69 19.977 6.904z" data-name="Bughea de Jos" class="comuna" id="14922"/>
    <path d="M155.008 383.45l25.089 25.925 11.737 25.229 6.116 28.53-22.91 20.648-15.741-10.862-14.068-14.603-12.766-36.413 5.577-9.05-10.526-16.662.722-13.79 26.77 1.048z" data-name="Cicănești" class="comuna" id="15448"/>
    <path d="M462.92 503.296l12.187 8.767-1.708 18.565-43.97 9.497-23.052 10.593-5.368-17.509 7.385-20.357.495-24.952-14.236-19.203-3.635-9.297 10.626-15.693-14.6-22.93-5.357-21.52-9.613-14.646 4.455-20.423 12.172.13 20.443 2.204.565 31.262 17.353 19.023-4.297 20.298 13.526 21.14-2.596 17.96 6.948 17.825 22.276 9.266z" data-name="Aninoasa" class="comuna" id="13999"/>
    <path d="M376.53 364.188l-4.455 20.423 9.612 14.646 5.356 21.52 14.601 22.93-10.626 15.693 3.635 9.297-6.855 12.336-14.383-.206-11.139 10.766-19.925-5.331-12.614-31.384-2.377-23.427 3.94-15.302-6.96-12.225-3.965-34.648 7.374-13.46 15.68 9.482 33.1-1.11z" data-name="Corbi" class="comuna" id="15830"/>
    <path d="M786.276 347.665l5.62 13.46-10.755 30.183 1.466 6.321-21.37 26.519 3.755 37.956 7.628 10.824-20.838 23.052-19.586 3.511-42.215-12.775-19.483 13.212-6.143-10.552-26.404-38.324-7.287-33.646 6.683-20.624 48.11-6.63 13.534 6.706 10.962-10.22L731.263 348l32.574-10.605 22.44 10.27z" data-name="Stoenești" class="comuna" id="18858"/>
    <path d="M263.236 400.156l-2.59 1.048-19.972 19.553-1.794 27.727-13.847 16.073-19.392 5.762-7.691-7.185-6.116-28.53-11.737-25.23-25.089-25.924 16.437-9.228 32.323-.778 5.815-29.756 20.851-9.461 27.857 16.106-5.79 10.983 19.21 11.603-13.484 18.306 5.01 8.93z" data-name="Corbeni" class="comuna" id="15741"/>
    <path d="M280.485 338.651l15.426 23.321 24.464 7.304 3.965 34.648 6.96 12.225-3.94 15.302 2.377 23.427-23.486.602-19.49-12.372 3.457-8.733-26.982-34.22-5.01-8.93 13.485-18.306-19.21-11.603 5.79-10.983-27.857-16.106 9.951 5.582 30.215 2.345 9.885-3.503z" data-name="Brăduleț" class="comuna" id="14753"/>
    <path d="M786.276 347.665l-22.44-10.269-32.572 10.605-21.311 38.637-10.962 10.22-13.534-6.706-48.11 6.63 7.064-25.045-6.173-16.766-3.113-28.173-13.558-20.963 22.18 10.099 22.314-6.225 13.489-13.65 20.187-10.772 17.866-.63 18.873-11.43L736.9 259l15.474-5.117 19.107-16.772 11.42 8.471 5.154 18.861-3.608 12.254 11.967 10.45-4.343 11.158L799 332.18l-12.724 15.484z" data-name="Dragoslavele" class="comuna" id="16472"/>
    <path d="M479.445 406.771l-2.186 15.563 10.521 9.878-7.818 13.898 7.579 9.84-3.562 27.112-7.327 17.35-13.733 2.884-22.276-9.266-6.948-17.824 2.596-17.962-13.526-21.14 4.297-20.297-17.353-19.023-.565-31.262-20.443-2.204-5.055-18.835-10.964-8.478 3.506-12.344 27.183-9.109-12.904-55.693 4.846-16.688 16.944-13.681-.871 12.11 9.772 18.397-3.61 12.671 14.916 10.269 7.363 36.73 28.535 19.09-16.313 9.61-1.944 36.166 18.977 9.11 10.363 13.128z" data-name="Berevoești" class="comuna" id="14405"/>
    <path d="M456.814 201.756l26.222 34.267 33.103 21.602 19.27-2.402-5.06 21.356-8.474 3.258-1.52 27.404 2.93 31.241 18.386 34.388-20.046 23.115-19.977-6.903-22.203 17.69-10.363-13.13-18.977-9.11 1.944-36.164 16.313-9.61-28.535-19.091-7.363-36.73-14.916-10.269 3.61-12.671-9.772-18.397.871-12.11 18.833-15.249 6.504-14.22 19.22 1.735z" data-name="Albeștii de Muscel" class="comuna" id="13891"/>
    <path d="M621.567 305.835l13.558 20.963 3.113 28.173 6.173 16.766-7.064 25.045-6.683 20.624 7.287 33.646-21.172-10.371-18.317.394 1.446-11.808-14.435-12.633-.943-18.908 13.531-22.907-1.39-44.285 7.702-8.738-1.744-23.299-11.02-28.436.43-36.5-16.518-61.155-2.146-26.622 8.998 9.67 12.446 44.719 3.896 28.13 8.46 10.782.503 27.232 13.889 39.518z" data-name="Valea Mare Pravăț" class="comuna" id="13524"/>
    <path d="M573.375 145.784l2.146 26.622 16.518 61.155-.43 36.5 11.02 28.436 1.744 23.3-7.703 8.737 1.391 44.285-13.531 22.907-24.472-5.802 11.202-20.113-6.494-42.651-18.163-26.93-6.294-23.41-9.96-2.24 5.06-21.357-19.27 2.402-33.103-21.602-26.222-34.267 14.118-11.399.83-21.912 7.788-10.964 35.282-17.448 14.619 1.705 13.162-9.287 24.04.542 6.722 12.791z" data-name="Lerești" class="comuna" id="16908"/>
    <path d="M752.374 253.884L736.9 259l-13.158 4.144-37.159-.687-16.526-11.157 19.42-29.745-8.228-4.123-4.26-55.575 15.21-47.085 7.177-8.965 18.973 18.773 7.39 14.963-2.773 30.188 33.017 41.59-19.604 16.565 15.995 25.997z" data-name="Dîmbovicioara" class="comuna" id="16329"/>
    <path d="M134.114 39.884l2.406 25.334-10.401 43.965-19.062 16.912 9.982 40.878-26.407 42.721 26.173 28.289-1.323 28.773 19.09 37.208-6.504 4.652-8.224 29.478-10.71 17.161 19.104 27.147-.722 13.79 10.526 16.661-5.577 9.051-11.799 10.965-26.633 13.614-8.44-15.738-18.595-15.8-9.199-30.957 7.592-5.757 1.407-20.628-15.61-7.68-.375-34.552 24.354-6.646-5.326-17.518 7.388-14.846-9.654-11.896-10.62-48.885 5.948-30.877 22.37-.953 12.15-14.32 2.127-28.474-11.604-16.036 2.268-14.674 21.358-16.256-14.865-56.095 26.63-8.79 10.777 10.779z" data-name="Sălătrucu" class="comuna" id="18554"/>
    <path d="M692.2 114.773l-15.21 47.085 4.259 55.575 8.228 4.123-19.42 29.745 16.526 11.157 37.159.687 13.158-4.144-.424 14.225-18.873 11.43-17.866.631-20.187 10.771-13.489 13.65-22.315 6.226-22.18-10.1-13.888-39.517-.504-27.232-8.46-10.782-3.895-28.13-12.446-44.72-8.998-9.669-6.721-12.79-24.04-.543-13.163 9.287-14.619-1.705-35.282 17.448-7.788 10.964-5.954-18.68-10.595-5.994-1.024-16.839 21.636-16.111 2.092-33.112-7.282-21.637-12.56-19.701 19.287-12.373 19.17 3.771 29.214 4.584 19.838-8.269 39.828 13.588 18.908-4.362 37.092 33.068 5.386 15.985 20.512 12.072 12.216 16.526 12.673 3.813z" data-name="Rucăr" class="comuna" id="18527"/>
    <path d="M282.976 10.658l6.55 18.937-10.81 14.046-1.85 36.089 8.701 39.614-2.913 25.644-26.332 20.49 4.248 28.816-2.4 60.11 5.144 27.9 7.891 11.595 9.28 44.752-9.885 3.503-30.215-2.346-9.95-5.581-20.852 9.46-5.815 29.757-32.323.777-16.437 9.229-26.77-1.048-19.103-27.147 10.709-17.16 8.224-29.48 6.503-4.65-19.089-37.21 1.323-28.772-26.173-28.289 26.407-42.721-9.982-40.878 19.062-16.912 10.401-43.965-2.406-25.334 3.79-3.398 23.16-17.706 41.778-9.33 23.382 11.633 12.18-11.831 12.199 2.235 26.006-7.389 6.367 6.56z" data-name="Arefu" class="comuna" id="14049"/>
    <path d="M458.074 36.37l12.561 19.702 7.282 21.637-2.092 33.112-21.636 16.111 1.024 16.84 10.594 5.993 5.955 18.68-.83 21.912-14.118 11.399-19.22-1.736-6.504 14.221-18.833 15.248-16.944 13.682-4.846 16.688 12.904 55.693-27.183 9.109-3.506 12.344 10.964 8.478 5.055 18.835-12.172-.13-33.1 1.11-15.68-9.481-7.374 13.46-24.464-7.305-15.426-23.32-9.28-44.753-7.89-11.595-5.144-27.9 2.399-60.11-4.248-28.817 26.332-20.489 2.913-25.644-8.7-39.614 1.85-36.09 10.81-14.045-6.551-18.938L312.74 1l21.748 9.935 13.549-9.47 17.098 5.157 5.344 17.76 42.805-1.989 27.985-.738 16.805 14.716z" data-name="Nucșoara" class="comuna" id="17771"/>
    <path d="M661.703 826.027l.504 33.302 26.754 23.59-5.96 26.867 7.274 21.623 4.183 13.719-9.747 17.126-6.541 13.745-27.734.692-6.361 8.57-32.393 2.824 2.756-40.058-2.895-20.443 5.417-41.897 5.66-19.499-4.742-8.634 16.04-6.898 13.593 4.413 4.403-18.439 9.789-10.603z" data-name="Bogați" class="comuna" id="14584"/>
    <path d="M669.699 776.848l-6.164 19.937-1.832 29.242-9.79 10.603-4.402 18.439-13.594-4.413-16.039 6.898-17.941 2.998-8.823-15.216 8.792-13.822-5.142-15.134 12.112-43.921 17.926 7.592 44.897-3.203z" data-name="Dobrești" class="comuna" id="16427"/>
    <path d="M209.887 1017.832l6.486 12.828 29.546 22.863 13.182 19.56-8.581 22.448-17.716-6.523-46.25 5.715-21.56-26.188-6.16.923-9.769-20.3-5.515-7.14 5.415-28.816-12.29-12.986 24.435-6.173 19.96-27.34 21.866 3.012 6.95 48.117z" data-name="Vedea" class="comuna" id="19793"/>
    <path d="M354.806 617.769l2.804 19.229-2.364 25.036 5.375 50.004 7.218 13.108 2.649 23.609-12.646 15.7-24.514-.682-25.74-2.401-15.383 14.68-10.844-32.824-15.235-26.735-12.147-63.117 8.01-8.306-2.641-21.988 7.837-17.985 11.288 29.559 12.08-7.931 28.915-7.02 19.24 6.518 16.098-8.454z" data-name="Mălureni" class="comuna" id="17049"/>
    <path d="M329.737 454.878l12.614 31.384-5.606 13.9 8.659 14.549 3.05 30.33-4.549 16.814 10.901 55.914-16.098 8.454-19.24-6.518-28.915 7.02-12.08 7.93-11.288-29.558 8.579-23.64 8.275-3.176-5.527-21.215 6.931-8.589 7.722-11.048-8.98-25.772-9.495-3.038 1.115-23.356-11.529-29.145 3.582-10.434-12-26.416 4.788-18.064 2.59-1.048 26.982 34.219-3.457 8.733 19.49 12.372 23.486-.602z" data-name="Mușătești" class="comuna" id="17619"/>
    <path d="M406.094 974.078l-2.146 9.254 13.594 12.742-12.602 28.406 3.812 26.477-4.765 5.028-18.734 8.173-11.827-9.307-7.889 14.085-1.058 25.637-25.87 12.78.935-28.816-11.007-3.347 1.176-8.909-32.196-35.47 8.95-19.13 24.419-7.679 8.763 9.844 45.532-11.66 10.903-21.069 10.01-7.039z" data-name="Albota" class="comuna" id="13935"/>
    <path d="M322.25 944.424l44.738.084 18.461 34.816 10.635 1.793-10.903 21.069-45.532 11.66-8.763-9.844-24.419 7.678-9.792-5.477-5.966-25.037 5.082-7.922-6.825-23.094 33.285-5.726z" data-name="Moșoaia" class="comuna" id="17496"/>
    <path d="M203.757 729.423l3.612 17.294 22.208 30.66-5.075 13.962-31.222 3.498 9.143 15.22.537 20.919-4.082 15.354-34.702-6.04-16.996 1.328-4.776-18.606-3.465-8.172 7.023-59.207-14.533-34.112-1.988-20.19 13.51-15.914 17.194 17.06 21.241 9.8 22.37 17.146z" data-name="Cotmeana" class="comuna" id="15983"/>
    <path d="M229.577 777.376l23.414 18.253 1.288 25.39 16.43 12.496 2.975 19.952 13.332 17.413-11.614 20.17-8.625.367-15.107-34.211-18.748-16.923-6.06 19.283-23.902-28.59-.537-20.92-9.143-15.219 31.222-3.498 5.075-13.963z" data-name="Drăganu" class="comuna" id="16506"/>
    <path d="M512.778 856.594l-1.297 12.785-28.384 27.483 9.176 20.47-9.794 37.768 11.004 12.626-4.706 11.92-9.163-2.107-16.464 5.235-12.405-15.82-30.136-19.505-6.716-21.165 5.453-8.653 1.888-29.22 21.987-3.816 19.77-9.148 17.086-28.5 32.701 9.647z" data-name="Ștefănești" class="oras" id="13392"/>
    <path d="M421.234 888.411l-1.888 29.22-22.313-.123-11.577-18.6 5.505-21.818-6.168-7.59-6.453-30.657 35.033 2.195 10.434-5.143-2.573 52.516z" data-name="Mărăcineni" class="comuna" id="13365"/>
    <path d="M385.456 898.907l11.577 18.601 22.313.123-5.453 8.653 6.716 21.165 30.136 19.505 12.405 15.82-7.156 7.26-16.828-5.04-19.34-19.644-13.732 8.728-10.01 7.04-10.635-1.794-18.461-34.816-44.737-.084-2.903-5.438 13.695-13.902 15.675-4.493 32.98-28.292 3.758 6.608z" data-name="Pitești" class="municipiu resedinta" id="13169"/>
    <path d="M451.287 1192.382l3.492 10.041 12.355 12.075 24.664 9.797 7.093 15.23 19.114 17.331 10.84-8.19 6.345 9.028-19.254 31.485-16.28 18.92-6.128 17.96-18.739-20.623-40.706 18.468 7.977 26.703-28.063 4.273-16.884 13.557.552-17.68-17.33-25.78 3.024-29.454-18.406-.804-6.216-13.76 4.037-38.792 35.707-47.935 52.806-1.85z" data-name="Buzoești" class="comuna" id="14940"/>
    <path d="M601.392 1343.666l-46.815 33.425-26.523 2.829-17.705 7.725-2.537-19.548 17.235-7.67-8.457-16.971-15.35-3.767-7.712-13.63 6.127-17.96 16.281-18.92 19.254-31.485-6.346-9.029 46.62 31.759 7.277 20.457 19.542 10.09-8.948 19.11 8.057 13.585z" data-name="Recea" class="comuna" id="18411"/>
    <path d="M689.431 1216.907l-3.21 18.917 15.773 5.148 12.75 13.286-4.652 4.166-13.808-.287-22.848 12.91-7.611-6.906-19.787 14.459-19.458 33.54-16.096 18.094-9.092 13.432-8.057-13.585 8.948-19.11-19.542-10.09-7.276-20.457-46.62-31.759 17.19-6.328 16.824-23.998 3.83-17.505 8.937-1.621 31.228 28.006 11.93-10.801 15.455 12.668-.66 17.019 27.065-8.355 28.787-20.843z" data-name="Negrași" class="comuna" id="17726"/>
    <path d="M482.652 609.312l-3.49 12.98 15.355 6.68-5.439 29.574-2.987 45.795-10.975 6.227.23 23.79-10.71 18.558-4.536 19.442-17.232-22.887 2.579-16.492-7.299-27.719-10.54-56.352 3.157-8.72-13.627-28.901 2.69-5.294.84-2.193 8.462 6.91 39.695-4.385 13.827 2.987z" data-name="Bălilești" class="comuna" id="14272"/>
    <path d="M381.697 892.299l-32.979 28.292-15.675 4.493-13.695 13.902-29.45-15.921-11.98-11.219-2.516-20.796 11.614-20.17 26.933 4.023 16.967-9.765 9.865-13.737 20.392 11.928 1.107 8.173 19.417 20.797z" data-name="Bascov" class="comuna" id="13187"/>
    <path d="M333.328 763.773l13.648 35.158 11.936 20.358 11.752.377 7.676 19.177 6.453 30.658 6.168 7.59-5.505 21.816-3.759-6.608-19.417-20.797-1.107-8.173-20.392-11.928-14.128-6.403-31.604-53.258-2.844-15.688 15.383-14.68 25.74 2.4z" data-name="Budeasa" class="comuna" id="14851"/>
    <path d="M530.35 276.58l9.96 2.24 6.293 23.41 18.163 26.93 6.494 42.65-11.202 20.114-20.256 18.125-12.62-.442-5.557-13.622 20.046-23.115-18.386-34.388-2.93-31.241 1.52-27.404 8.475-3.258z" data-name="Bughea de Sus" class="comuna" id="20063"/>
    <path d="M584.53 397.726l.943 18.908 14.435 12.633-1.446 11.808-10.161 2.16-22.085 19.734-14.4 5.533-16.386 1.463 3.603 20.916-13.324 6.21-15.94-3.353 13.41-20.362-8.762-22.69 17.382-9.922-4.071-11.642 12.074-19.073 20.256-18.125 24.472 5.802z" data-name="Câmpulung" class="municipiu" id="13490"/>
    <path d="M636.902 1400.68l25.786 8.18 19.53 38.242-7.037 3.734-20.343 16.426-41.521 23.165-22.126-1.494 5.896-15.395-14.726-9.266-10.14-21.568-12.247-.63 2.345-7.461 24.652-4.653 22.4-15.587 17.603-18.74 9.928 5.046z" data-name="Popești" class="comuna" id="18162"/>
    <path d="M648.045 1385.764l-11.143 14.916-9.928-5.047-17.603 18.74-22.4 15.587-24.652 4.653-2.345 7.46-18.31-10.893-14.622 3.864 6.295-9.509-11.87-20.897-11.118-16.993 17.705-7.726 26.523-2.828 46.815-33.425 9.092-13.432 9.125 11.92-16.079 12.222 19.42 34.739 25.095-3.35z" data-name="Izvoru" class="comuna" id="16739"/>
    <path d="M679.251 1080.854l-10.159 17.164 8.968 18.54 44.706 24.929 2.137 1.185-36.053 35.759-7.682-5.357-17.413 10.841-19.775-19.174-25.56 10.9-5.397-17.197-15.61 5.977-1.748-18.914-12.017-9.21 14.544-58.627 12.786.525 6.14-14.407 20.98 7.48 21.864-1.736 19.29 11.322z" data-name="Rătești" class="comuna" id="18331"/>
    <path d="M488.777 979.647l30.847 32.077 15.553 3.878 32.955 14.32 14.166-.268 12.893 9.177 21.927 24.957-6.14 14.408-12.786-.526-14.544 58.626-16.368 18.189-16.258 6.506-26.128-30.24 4.327-15.564-18.119-25.222 17.283-21.751-2.04-21.888-19.12-17.769-2.987-13.54-24.441-13.78-.183-23.698 9.163 2.108z" data-name="Căteasca" class="comuna" id="15233"/>
    <path d="M583.648 1136.296l12.017 9.211 1.749 18.914-19.55 18.908-11.174 17.505-3.831 17.505-16.825 23.998-17.19 6.328-10.839 8.191-19.114-17.33-7.093-15.23-24.664-9.798-12.355-12.075 35.992-27.6 7.415-26.053 19.918-14.442 11.117-19.141-4.327 15.565 26.128 30.239 16.258-6.506 16.368-18.189z" data-name="Rociu" class="comuna" id="18475"/>
  </g>
</svg>
