<svg xmlns="http://www.w3.org/2000/svg" version="1.2" baseProfile="tiny" stroke-linecap="round" stroke-linejoin="round" viewBox="0 0 800 446">
  <g id="AR" fill="none" stroke="#aaa">
    <path d="M569.716 388.783l15.211-1.894 5.55 17.656 20.816 12.367 8.349 10.245-16.42.543-17.711 17.315-18.236-14.942-15.326 2.612-18.777-15.485 14.42-21.482-1.65-12.127 23.774 5.192z" id="10006"/>
    <path d="M523.868 369.08l22.073 14.511 1.65 12.127-14.419 21.482-29.856-13.433-16.33-13.822 6.188-19.14 21.587-10.706 9.107 8.98z" id="9887"/>
    <path d="M426.28 363.1l-1.723 16.353 6.763 8.792-2.617 14.366-8.948 23.69-11.896 4.26-1.906-22.437-7.396-12.634-16.067 18.325-14.603 10.033-12.756-28.531 23.767-12.046 10.676-27.384 36.706 7.213z" id="12402"/>
    <path d="M420.806 335.064l21.68 5.684 3.428 8.723 15.644-1.944 1.989 15.07 16.666.421 12.961 7.787-6.188 19.14-18.602 7.651-7.95 13.483-19.74 3.665-11.99-12.133 2.616-14.366-6.763-8.792 1.723-16.353-9.529-4.373-7.097-14.85 11.152-8.813z" id="10765"/>
    <path d="M193.102 321.745l.635 16.548 10.758-.504-8.777 5.88 24.482 20.684-20.23 26.192-25.256-16.591-24.91 11.045-22.112-36.417 20.127-7.656-.085-12.22 13.65 3.005 24.464-10.161 7.254.195z" id="12643"/>
    <path d="M249.537 328.576l.636 25.692 23.182-4.945 5.43 3.72 5.835 8.755-11.557 9.494-24.271 8.004-28.592-14.943-24.482-20.685 8.778-5.879 13.326-21.723 31.715 12.51z" id="12144"/>
    <path d="M355.635 326.856l10.408 26.377-1.266 18.876-20.126 16.72-31.166-15.06 5.302-12.596-7.119-19.807-15.355 1.795 10.6-12.463.3-12.01 25.589-2.834 22.833 11.002z" id="12778"/>
    <path d="M589.176 318.833l7.64 9.077-2.786 23.959-21.29 20.256-3.024 16.658-23.775-5.192-22.073-14.511 7.743-8.735-2.69-12.876 25.506-5.541 11.374-23.939 16.877-5.484 6.498 6.328z" id="12572"/>
    <path d="M305.807 318.44l1.406.248-.3 12.01-10.6 12.463-17.528 9.882-5.43-3.72-4.256-25.314 5.385-16.435 31.323 10.865z" id="12920"/>
    <path d="M643.177 302.325l-14.506 38.573 14.05 23.711-8.021 8.402 1.779 19.9-16.837 34.246-8.35-10.245-20.815-12.367-5.55-17.656-15.21 1.894 3.024-16.658 21.29-20.256 2.784-23.959-7.64-9.077 11.947-11.429 12.86-8.95 17.183-2.69 12.012 6.561z" id="11842"/>
    <path d="M274.484 307.574l-5.385 16.435 4.256 25.314-23.182 4.945-.636-25.692 4.478-34.876 20.469 13.874z" id="9280"/>
    <path d="M147 284.99l.734 43.717.085 12.219-20.127 7.656-42.84-.994-8.795-21.53-.422-8.6 30.113-30.055 9.176-3.6L147 284.99z" id="11940"/>
    <path d="M577.954 278.938l9.432 2.973 1.676.086 2.307 13.253 9.753 12.154-11.946 11.43-6.498-6.329-16.877 5.484-11.374 23.939-25.506 5.541 2.69 12.876-7.743 8.735-9.107-8.981-21.587 10.706-12.96-7.787 7.639-2.806 4.18-25.432-15.526.7-4.435-17.756 7.284-13.465 11.48-12.64 31.966-10.745 21.921 9.058 15.962-.676 17.27-10.318z" id="10104"/>
    <path d="M319.945 265.72l36.67 12.658 2.916 22.454-5.909 10.612-26.527-11.437 2.66-11.381-15.602-8.762 5.792-14.145z" id="10872"/>
    <path d="M674.104 293.841l-9.907 10.426-21.02-1.942-12.012-6.56-17.183 2.689-12.86 8.95-9.753-12.154-2.307-13.253 3.803-9.26 20.203-12.614 25.097-9.187 17.745 19.7 14.733 8.26 3.461 14.945z" id="10239"/>
    <path d="M369.589 261.99l-.065 9.4-12.909 6.988-36.67-12.659 1.427-15.97 5.564-1.312 24.048 1.72 7.108 11.377 11.497.456z" id="10514"/>
    <path d="M84.374 244.134l8.7 33.232 12.674 10.037-30.113 30.054.422 8.601-14.158-6.082-1.193-23.23 8.022-53.093 15.646.481z" id="12037"/>
    <path d="M281.014 243.29l-10.148 21.863-19.005-4.566 7.423-14.466 2.642-7.648 19.088 4.816z" id="9333"/>
    <path d="M67.496 236.559l1.232 7.094-8.022 53.094 1.193 23.229-17.777-4.515-10.885-9.832-9.656-18.441 4.986-9.677 14.356 3.641 11.04-23.748.21-17.281 13.323-3.564z" id="12206"/>
    <path d="M312.999 235.68l8.373 14.07-1.427 15.97-5.792 14.144-8.346 38.575-31.323-10.865-20.468-13.874 16.85-28.547 10.148-21.864 15.537-7.344L313 235.68z" id="9397"/>
    <path d="M244.91 239.721l14.374 6.4-7.423 14.466 19.005 4.566-16.85 28.547-4.479 34.876-31.715-12.51-13.327 21.723-10.758.504-.635-16.548 15.564-3.138-4.389-26.034-21.518 1.24-5.828-37.267 10.846-20.5 7.428-9.7 15.397 4.294 34.308 9.081z" id="9262"/>
    <path d="M618.79 219.076l6.442 13.476-12.63 20.549-15.664 3.867-9.552 24.943-9.432-2.973-9.114-44.512 6.133-15.836 20.88-2.724 22.937 3.21z" id="9743"/>
    <path d="M110.698 223.314l-11.99 13.665-14.334 7.155-15.646-.48-1.232-7.095 4.493-21.929 12.114 6.067 26.596 2.617z" id="11637"/>
    <path d="M568.84 234.426l9.114 44.512-17.27 10.318-15.96.676-21.922-9.058-8.552-17.85 11.197-27.747-1.622-8.365 21.27-16.18 8.753 18.038 14.992 5.656z" id="10417"/>
    <path d="M707.982 237.502l-8.684 19.07-14 10.885-27.243-22-6.842-23.348 15.802-12.909 15.738-1.402 12.776 19.655 12.453 10.049z" id="11762"/>
    <path d="M243.955 209.162l.954 30.56-34.307-9.082-3.943-19.67 12.014-4.477 25.282 2.67z" id="9360"/>
    <path d="M71.989 214.63l-4.493 21.929-13.322 3.564-.211 17.28-11.04 23.75-14.356-3.642-4.986 9.677L1 280.318l5.211-32.972 13.418 2.399-3.702-26.322 16.479-11.828 33.348-6.358 6.235 9.393z" id="9627"/>
    <path d="M502.793 214.763l21.032 12.149 1.622 8.365-11.197 27.748 8.552 17.849-31.965 10.746-11.481 12.639-13.536-12.824-33.404-8.168-2.464-12.569 19.351-4.556 12.584-10.53-1.99-51.721 34.853 16.64 8.043-5.768z" id="12457"/>
    <path d="M174.816 204.984l-.8 24.469 13.76 6.592-10.845 20.501 5.827 37.267-2.615 2.642-28.386-3.71L147 284.99l-32.077-1.188-9.176 3.601-12.674-10.037-8.7-33.232 14.334-7.155 11.99-13.665 13.74-3.248 15.397 14.192 15.092-10.472 5.92-21.79 13.97 2.988z" id="11584"/>
    <path d="M281.408 210.115l22.224 3.911 2.248 9.09-9.329 12.83-15.537 7.343-19.088-4.816-2.642 7.648-14.374-6.4-.955-30.559 6.025-12.614 19.668 14.012 11.76-.445z" id="12876"/>
    <path d="M386.559 230.687l-3.98 22.513-12.99 8.79-11.497-.456-7.108-11.376-24.048-1.72-3.545-9.951-8.227-22.087 7.866-13.533 26.959-6.132 3.78-13.134 18.277 15.208 16 4.979-6.769 19.38 5.282 7.519z" id="12368"/>
    <path d="M550.15 184.805l27.572 5.356-5.114 12.263 2.365 16.166-6.133 15.836-14.992-5.656-8.753-18.038-21.27 16.18-21.032-12.149-2.84-10.653 6.276-22.14 3.19 7.941 30 2.214 10.73-7.32z" id="10293"/>
    <path d="M199.858 192.565l6.8 18.405 3.944 19.67-15.397-4.294-7.428 9.7-13.761-6.593.8-24.469 11.52-3.152-.86-17.828 7.692-4.32 6.69 12.881z" id="11352"/>
    <path d="M429.16 179.365l26.97 8.58 3.767 15.946 1.99 51.721-12.584 10.53-19.35 4.556-18.783 8.629-11.413-2.906L382.58 253.2l3.979-22.513 15.556-9.967 13.659-31.519 13.385-9.836z" id="12509"/>
    <path d="M768.113 185.13l-16.06 15.236-8.698 40.606.012 16.242 8.514 8.373-17.958-2.346-30.908 2.28-3.717-8.948 8.684-19.071 11.518-11.917 14.882-3.186-.144-29.97 6.158-14.358 27.717 7.059z" id="11058"/>
    <path d="M751.88 265.587l-8.513-8.373-.012-16.242 8.698-40.606 16.06-15.236 6.31-7.798 6.913 12.712L799 201l-27.304 15.394 2.203 5.01-11.516 29.072-10.502 15.112z" id="11174"/>
    <path d="M415.774 189.201l-13.66 31.519-15.555 9.967-5.282-7.52 6.769-19.38-16-4.978-18.277-15.208 1.282-1.002 12.71-6.898 31.263.08 16.75 13.42z" id="9654"/>
    <path d="M502.685 172.842l3.544 9.129-6.275 22.14 2.84 10.652-8.044 5.768-34.853-16.64-3.766-15.946 8.675-15.247 16.64 3.234 21.239-3.09z" id="12288"/>
    <path d="M774.423 177.332l-6.31 7.798-27.717-7.06-6.158 14.36.144 29.969-14.882 3.186-11.518 11.917-12.453-10.05-12.776-19.654-15.738 1.402 9.82-37.315 8.394 4.21 25.83-.286 21.806-5.414 41.558 6.937z" id="12689"/>
    <path d="M199.858 192.565l-6.69-12.882 3.372-23.58 30.414 30.302-27.096 6.16z" id="12912"/>
    <path d="M533.579 153.294l3.93 3.22 12.64 28.291-10.73 7.32-30-2.214-3.19-7.94-3.544-9.129 7.858-16.394 23.036-3.154z" id="10051"/>
    <path d="M651.142 152.945l1.562 9.214-16.859 11.435 1.026 28.726-18.08 16.756-22.939-3.21-20.88 2.724-2.364-16.166 5.114-12.263 16.127-3.102 12.291 1.048 24.542-15.844 20.46-19.318z" id="10701"/>
    <path d="M676.835 171.885l-9.82 37.315-15.802 12.909 6.842 23.349 27.242 21.999-9.403 8.391 4.847 16.915-6.637 1.078-3.461-14.944-14.733-8.261-17.745-19.7-25.097 9.187-20.203 12.614-3.803 9.26-1.676-.086 9.552-24.943 15.663-3.868 12.63-20.548-6.44-13.476 18.08-16.756-1.026-28.726 16.859-11.435-1.562-9.214 2.364-1.966 23.329 20.906z" id="10943"/>
    <path d="M341.125 173.355l13.926 9.244-1.282 1.002-3.78 13.134-26.96 6.132-7.865 13.533-9.284 6.716-2.248-9.09-22.224-3.91-3.869-19.21 8.592-24.695 9.149 1.636 11.915-17.807 14.433 27.62 19.497-4.305z" id="12091"/>
    <path d="M423.113 154.215l6.046 25.15-13.385 9.836-16.75-13.42-31.263-.08 2.365-8.879 20.584-20.8 10.728 8.564 21.675-.37z" id="11995"/>
    <path d="M217.374 143.603l10.695 26.905 28.821 8.387-6.91 17.653-6.025 12.614-25.282-2.67-12.014 4.478-6.801-18.405 27.096-6.16-30.414-30.302 10.254-15.168 10.58 2.668z" id="9495"/>
    <path d="M361.47 138.282l-4.961 16.84-15.384 18.233-19.497 4.305-14.433-27.62 2.856-.259 2.364-2.935 19.432 1.993 24.45-17.345 5.172 6.788z" id="11502"/>
    <path d="M390.71 146.022l-20.584 20.8-2.365 8.88-12.71 6.897-13.926-9.244 15.384-18.233 4.96-16.84 13.954-.343 10.385-10.065 4.902 18.148zm-47.63-28.148l13.216 13.62-24.449 17.345-19.432-1.993 1.77-13.741 28.894-15.23z" id="12812"/>
    <path d="M504.666 129.966l12.33 2.628 16.583 20.7-23.036 3.154-7.858 16.394-21.24 3.09-16.639-3.234 14.346-37.013-1.271-13.349 26.785 7.63z" id="10195"/>
    <path d="M267.569 136.649l-3.32 10.673 4.517 21.625-11.876 9.948-28.82-8.387-10.696-26.905 11.741 4.241 14.593-26.168 6.08-1.673 17.78 16.646z" id="11398"/>
    <path d="M291.754 120.396l12.988 7.196 5.31 22.19-2.857.258-11.915 17.807-9.149-1.636-8.592 24.696 3.87 19.208-11.761.445-19.668-14.012 6.91-17.653 11.876-9.948-4.517-21.625 3.32-10.673 14.538-18.013 9.647 1.76z" id="12340"/>
    <path d="M644.645 138.26l8.861 12.72-2.364 1.965-20.46 19.318-24.542 15.844-12.291-1.048-16.205-24.225 21.87-39.05 3.317-16.24.524 36.665 2.825 10.67 30.27-4.17 8.195-12.448z" id="10649"/>
    <path d="M603.598 105.443l-.767 2.1-3.318 16.241-21.87 39.05-13.004-6.677 6.712-24.943-5.555-10.307 14.391-5.745 9.934-11.541 13.477 1.822z" id="11307"/>
    <path d="M644.645 138.26l-8.195 12.45-30.27 4.17-2.825-10.67-.524-36.666.767-2.101 1.438-.376 12.122 3.36 16.82-7.498 10.667 37.332z" id="11478"/>
    <path d="M473.423 116.725l4.458 5.611 1.27 13.349-14.345 37.013-8.675 15.247-26.972-8.58-6.046-25.15 4.482-12.53 14.231-17.661 6.376-16.869 19.095-7.232 6.126 16.802z" id="9538"/>
    <path d="M605.036 105.067l-1.438.376-13.477-1.822-9.934 11.541-14.39 5.745-7.078 7.145-20.045 1.65-26.705-12.686 11.15-10.541 16.217 5.59 13.516-8.334 10.888-15.679 16.725-10.623 2.76 15.591 21.811 12.047z" id="9832"/>
    <path d="M408.51 91.587l36.457 7.485 3.235 8.083-6.376 16.869-14.231 17.66-4.482 12.531-21.675.37-10.728-8.563-4.902-18.148-.994-12.033-10.2-12.722 7.674-24.081 5.029-2.657 21.192 15.206z" id="12242"/>
    <path d="M268.026 67.592l-1.093 16.46 7.063 10.98-4.936 21.47-19.271 3.501-6.08 1.673-20.889-29.981 8.93-23.9 9.941-8.711.463 10.454 23.916 5.677 1.956-7.623z" id="10916"/>
    <path d="M343.75 49.842l-5.512 16.337 1.883 22.41 10.668 1.415 3.315 22.51-11.025 5.36-28.894 15.23-1.77 13.742-2.364 2.935-5.31-22.19-12.987-7.195 8.304-15.376 10.02-3.411-6.791-28.996 15.047-16.953 23.587-5.943 1.83.125z" id="9459"/>
    <path d="M483.96 80.42l-17.645 7.146 11.828 9.999-4.72 19.16-6.126-16.802-19.095 7.232-3.235-8.083-36.458-7.485 23.675-30.867-.22-4.855 2.387-7.98 25.932-1.27 15.047 1.442-1.046 11.518 9.676 20.846z" id="10373"/>
    <path d="M422.046 50.95l9.918 4.914.22 4.857-23.675 30.866-21.192-15.206-5.029 2.657 2.656-20.956 26.783-15.998 10.32 8.865z" id="12224"/>
    <path d="M318.334 55.66l-15.047 16.953 6.791 28.996-10.02 3.41-8.304 15.377-9.647-1.76-14.538 18.013-17.78-16.646 19.27-3.5 4.937-21.47-7.063-10.982 1.093-16.459 4.492-19.047 21.994-12.355 8.548-.658 15.274 20.128z" id="12126"/>
    <path d="M557.536 47.777l-8.843 5.929-34.137 7.203-11.94 27.316-18.656-7.804-9.676-20.846 1.046-11.518-15.047-1.443 9.607-21.146 25.014 12.792 18.304-3.27 11.887-11.224 23.244 9.479 9.197 14.532z" id="10532"/>
    <path d="M286.04 19.6l8.472 16.59-21.994 12.355-4.492 19.047-1.956 7.623-23.916-5.677-.463-10.454-.644-16.764 12.238-22.5 32.756-.22z" id="11735"/>
    <path d="M403.231 11.196l3.11 15.278 15.705 24.475-10.32-8.865-26.782 15.998-15.624 1.055-25.57-9.295-1.829-.125 3.05-8.168 2.774-28.024 14.652 3.621 16.858-9.357 23.976 3.407z" id="11423"/>
    <path d="M344.971 41.55l-3.05 8.167-23.587 5.943-15.274-20.128-8.548.658-8.471-16.59 3.305-6.547 34.574-2.636L344.97 41.55z" id="12849"/>
    <path d="M469.89 25.468l-9.607 21.146-25.932 1.272-2.387 7.978-9.918-4.915-15.704-24.475-3.11-15.278 16.14-2.059 20.958 5.005L464.09 1l13.73 7.48-7.93 16.988z" id="9798"/>
    <path d="M558.72 128.052l-5.591 13.104-15.62 15.357-3.93-3.219-16.583-20.7-12.33-2.628 7.303-12.95 26.705 12.685 20.045-1.649z" id="10346"/>
    <path d="M577.644 162.834l16.205 24.225-16.127 3.102-27.572-5.356-12.641-28.292 15.62-15.357 5.59-13.104 7.077-7.145 5.555 10.307-6.712 24.943 13.005 6.677z" id="9690"/>
    <path d="M420.806 335.064l-11.152 8.813 7.097 14.85 9.53 4.373-36.707-7.213-10.676 27.384-23.767 12.046-10.48-6.489 20.126-16.72 1.266-18.875-10.408-26.377 14.741-7.56 5.73-12.52 14.53-6.42 7.897 17.003 20.38 7.41 1.893 10.295zm-93.87-86.627l-5.564 1.313L313 235.68l10.392 2.807 3.545 9.95z" id="9574"/>
    <path d="M636.479 392.911l-1.78-19.9 8.022-8.402-14.05-23.71 14.506-38.574 21.02 1.942 9.907-10.426 6.637-1.078 5.934 18.595-9.066 16.543-16.188 11.23 8.863 9.438 1.52 35.233-20.209 11.008-15.116-1.899z" id="11664"/>
    <path d="M548.693 53.706l-26.018 30.257.444 22.512-11.15 10.54-7.303 12.951-26.785-7.63-4.457-5.61 4.72-19.161-11.829-9.999 17.645-7.145 18.656 7.804 11.94-27.316 34.137-7.203z" id="9930"/>
    <path d="M580.465 77.429L563.74 88.052l-10.887 15.679-13.516 8.333-16.217-5.59-.444-22.511 26.018-30.257 8.843-5.93 23.469 5.675-.54 23.978z" id="11236"/>
    <path d="M384.944 58.082l-2.656 20.956-7.675 24.08 10.201 12.723.994 12.033-10.385 10.065-13.954.343-5.173-6.788-13.217-13.62 11.025-5.36-3.315-22.51-10.668-1.416-1.883-22.409 5.513-16.337 25.569 9.295 15.624-1.055z" id="12055"/>
    <path d="M193.102 321.745l-7.254-.195-5.705-25.095 2.615-2.642 21.52-1.24 4.388 26.034-15.564 3.138z" id="12938"/>
    <path d="M180.143 296.455l5.705 25.095-24.464 10.161-13.65-3.004L147 284.99l4.756 7.755 28.386 3.71z" id="10827"/>
    <path d="M479.356 304.259l-7.284 13.465 4.435 17.757 15.527-.7-4.181 25.43-7.64 2.807-16.666-.42-1.99-15.07-15.644 1.942-3.426-8.722-21.681-5.684-1.892-10.295-20.381-7.41-7.896-17.004 9.12-23.934 11.413 2.906 18.782-8.629 2.464 12.569 33.404 8.168 13.536 12.824z" id="10453"/>
    <path d="M399.757 276.421l-9.12 23.934-14.532 6.421-5.729 12.52-14.741 7.56-22.833-11.002-25.59 2.834-1.405-.249 8.346-38.575 15.603 8.762-2.661 11.381 26.527 11.437 5.91-10.612-2.916-22.454 12.908-6.989.065-9.399 12.99-8.79 17.178 23.221zm-76.366-37.934l-10.392-2.808-16.448.266 9.329-12.83 9.284-6.715 8.227 22.087z" id="11539"/>
  </g>
</svg>
