<svg xmlns="http://www.w3.org/2000/svg" version="1.2" baseProfile="tiny" stroke-linecap="round" stroke-linejoin="round" viewBox="0 0 800 892">
  <g id="B" fill="none" stroke="#aaa">
    <path d="M459.364 227.162l205.525 30.957-75.628 106.004 58.34 36.435 71.849 17.695-37.188 32.47-57.049-.403-46.184 14.183-63.64 2.322-87.408-15.488-9.988-95.165 14.298-84.133-2.027-45.327 29.1.45z" id="179150"/>
    <path d="M322.933 442.755l-31.655 16.623 2.009 62.216-22.547 32.148-49.922 12.018-57.852-6.045L94.72 582.69l-61.876 1.93-24.51-72.552L1 435.826l141.993-11.397 11.006-26.95-23.705-37.906-82.675-38.658-7.885-14.676 41.807-38.502 79.384 20.984 101.844 64.398 38.33 35.285 21.834 54.351z" id="179196"/>
    <path d="M459.364 227.162l-29.1-.45 2.027 45.327-14.298 84.133 9.988 95.165-17.763 4.576-60.123 2.449-27.162-15.607-21.834-54.35-38.33-35.286-101.844-64.398-79.384-20.984-41.807 38.502 24.422-94.44 58.686-35.291 4.563-64.132 122.523-65.553 91.05-34.151L424.05 1l-2.97 134.586 38.284 91.576z" id="179141"/>
    <path d="M410.218 455.913l-4.152 23.326-27.142 44.09 17.64 22.822 10.533 61.936-16.376 50.832-7.449 82.653-100.48-43.433-31.95 20.223-40.076-35.09-70.286-97.248-45.76-3.334 68.246-22.975 57.852 6.045 49.922-12.018 22.547-32.148-2.009-62.216 31.655-16.623 27.162 15.607 60.123-2.449z" id="179187"/>
    <path d="M611.4 612.081l-116.035-39.88-50.331-71.594-38.968-21.368 4.152-23.326 17.763-4.576 87.408 15.488 63.64-2.322 46.184-14.183 57.05.403 37.187-32.47L799 487.488l-32.884 87.34 1.862 49.031-93.207 6.972-63.372-18.75z" id="179169"/>
    <path d="M611.4 612.081l-56.077 112.51 1.063 18.236 64.918 114.818-37.027 33.214-77.306-60.181-49.551-55.174-50.205 1.155-23.943-35.087 7.449-82.653 16.376-50.832-10.533-61.936-17.64-22.821 27.142-44.091 38.968 21.368 50.33 71.593L611.4 612.081z" id="179178"/>
  </g>
</svg>
