<svg xmlns="http://www.w3.org/2000/svg" version="1.2" baseProfile="tiny" stroke-linecap="round" stroke-linejoin="round" viewBox="0 0 800 611">
  <g id="BC" fill="none" stroke="#aaa">
    <path d="M426.436 504.959l1.18 6.225 2.997 14.474-10.952-.102-3.071 8.045 5.763 16.712-7.582 5.156-15.49-6.03-7.259 4.781-7.656-3.32-17.236 12.884-9.557-1.363-6.598 6.463-2.684 9.92-24.296 13.104-7.018 17.82-19.328-7.867-10.332.94-12.679-13.407-18.365 7.825-8.379-2.626-1.32-10.918-6.799-9.857 2.723-8.292 6.725.433 11.025-10.84 16.375 1.216 1.816-22.906 17.547-5.082 6.372 3.998 10.914-4.66 8.128 3.65-.26-20.93 4.753-12.32 10.763 2.007-5.618 12.206 13.55-4.669 2.575-4.64 38.024-12.255 5.5 4.04 13.076-6.511 9.102 12.815-2.041 7.859 13.413.055 2.2-4.034z" id="23449"/>
    <path d="M548.469 487.26l17.514 7.138 10.755 8.64 10.692-1.672 15.238 11.514 6.74 2.517-8.287 22.676-9.234-.448.556 12.158-9.904-3.215-6.501 4.5-44.02-17.83-5.168.561 1.168-12.017 10.229 3.433 9.297-14.7 8.044-5.273-12.56-9.618 5.44-8.365z" id="26029"/>
    <path d="M360.454 454.952l3.96 14.543-14.127 26.092-13.63 4.505-10.764-2.008-4.753 12.32.26 20.932-8.128-3.651-10.914 4.66-6.372-3.998-17.547 5.082-1.816 22.906-16.375-1.216-11.025 10.84-6.725-.433-19.695-16.792-11.154-5.447-2.405-7.1 9.308-8.058-.426-12.133 14.44-8.06 16.893-12.738 2.93-11.371 7.365-13.177 8.007 3.79 6.28-10.417 20.696-6.951 7.01-5.03 9.999 1.26 10.44-7.511 11.176-1.794 20.898 15.642 6.194-4.687z" id="23797"/>
    <path d="M418.204 442.199l-7.587 8.437 4.456 6.962-1.068 20.67 5.24 20.417 7.191 6.274-2.199 4.033-13.413-.055 2.04-7.859-9.101-12.815-13.075 6.512-5.501-4.04-38.024 12.255-2.575 4.639-2.009-5.658 22.662-12.428 5.207-14.334 17.9-.988 9.083-5.917 1.475-13.042 19.298-13.063z" id="21720"/>
    <path d="M391.431 438.089l7.475 17.173-1.475 13.042-9.084 5.917-17.899.988-5.207 14.334-22.662 12.428 2.01 5.658-13.551 4.669 5.618-12.206 13.631-4.505 14.127-26.092-3.96-14.543 11.145-9.203-.478-7.61 20.31-.05z" id="21560"/>
    <path d="M779.977 433.96l2.982 11.878 14.298.517 1.743 19.44-3.585 21.263-10.81-1.219-10.404 7.457-6.382-19.784-14.846-6.717-16.522.497-5.795 12.2 2.867 9.338-3.216 5.835-12.53 3.855-.166-12.066-8.535.56-6.515-11.402-2.486-13.91-4.483-1.85 4.973-10.797-.573-8.797 13.766-10.157 5.36 12.495 7.864-2.013 17.349 6.72 10.022-.46 2.883-7.96 22.741-4.922z" id="24524"/>
    <path d="M497.862 439.44l.224 1.143-20.122 20.373 8.097 3.414.428 10.087-13.136 15.002-30.389 25.474-7.616 13.036-4.735-2.31-2.997-14.475 1.54-8.942 7.409-14.165-2.48-21.757 8.326-7.754 6.48-12.127 7.449 4.063 12.842-4.74-3.247-5.177 4.677-6.422 12.05-3.536 10.989-6.639 4.21 15.453z" id="20670"/>
    <path d="M371.12 438.14l.479 7.61-11.145 9.202-6.194 4.687-20.898-15.642-1.896-6.703 17.486-15.904 13.988 4.132 8.18 12.617z" id="24276"/>
    <path d="M322.186 445.79l-10.44 7.511-10-1.258-7.009 5.029-20.695 6.95-6.281 10.418-8.007-3.79-7.366 13.177-2.93 11.37-16.893 12.74-14.44 8.059-21.836 5.825 2.004-17.827-9.024-15.934 5.415-13.388 16.775-8.54 2.279-5.218 12.784-3.562 11.162 1.045 9.545-17.71 12.134.003 14.35-10.882 8.813.348 10.705-4.378 15.839-4.576 6.467 4.913 6.649 19.676z" id="20910"/>
    <path d="M394.913 413.77l-3.482 24.319-20.31.05-8.181-12.617-13.988-4.132 4.423-12.97 1.567-16.26 10.158-2.482 8.95 9.66 20.863 14.431z" id="25825"/>
    <path d="M568.846 394.918l12.73 6.074 7.442 7.138-12.61 4.643-6.274 6.507-12.49 5.688-23.668 2.528-11.284 6.599-29.041-10.107-6.249-14.426 18.052-8.897 6.995 2.46 25.13-.567 9.06-7.354-3.087-6.305 17.235-4.078 8.06 10.097z" id="23948"/>
    <path d="M334.756 377.646l.977 5.95 11.942 2.01 7.267 6.555-1.567 16.258-4.423 12.97-17.486 15.905 1.896 6.703-11.176 1.794-6.649-19.676-6.467-4.913-15.839 4.576 10.895-23.694 11.586-9.58 9.083-14.843 9.96-.015z" id="20965"/>
    <path d="M778.991 424.108l.986 9.853-22.74 4.923-2.884 7.958-10.022.462-17.35-6.721-7.864 2.013-5.359-12.495-13.766 10.157-5.206-16.799 2.991-6.051-1.895-10.898 9.083-6.349-1.1-16.973-3.93-8.759 4.287-4.708 13.692 24.452 12.426-5.667 10.165 3.946 1.55 18.236 8.922 1.313 8.696 11.204 8.514-3.285 10.804 4.188z" id="22834"/>
    <path d="M560.787 384.82l-17.235 4.079 3.087 6.305-9.06 7.354-25.13.567-6.995-2.46-18.052 8.897-2.363-14.982-10.09-22.236 13.463.487 15.065-2.496 10.188 4.093 9.805-3.039 6.496 10.14 21.632-7.732 6.28-5.175 2.909 16.199z" id="24034"/>
    <path d="M618.708 359.428l7.045 21.775 9.21 17.96-4.567-1.584-9.226 11.558-3.81 15.88 2.975 12.723-6.473 9.72-12.616-16.39-8.235-7-3.993-15.94-7.441-7.138-12.73-6.074 7.116-6.28 1.357-10.121 7.866-2.365 12.677-12.203 12.78-5.743 5.503-9.297 2.562 10.52z" id="21971"/>
    <path d="M695.33 347.387l5.517 11.176 3.375 11.158-4.287 4.708 3.93 8.76 1.1 16.972-9.083 6.349 1.895 10.898-2.991 6.051 5.207 16.799.572 8.797-4.973 10.797-23.894 4.397 8.103-5.785-8.62-20.338 6.742-2.53-.78-12.522-13.449-18.064-3.387-14.167 17.253-9.65-3.579-16.697-9.76-15.347 18.778-4.69 12.331 2.928z" id="22237"/>
    <path d="M534.775 325.3l2.652 17.537 17.443 13.045 3.008 12.74-6.28 5.175-21.632 7.731-6.496-10.139-9.805 3.04-10.188-4.094-15.065 2.496-13.463-.487-20.036-14.763-10.863-.85-3.339-6.614 2.205-15.695 4.396-3.53 23.632 9.713 6.02 5.154 14.431-.845 18.07-12.923 10.227-14.058 7.676 9.32 7.407-1.954z" id="24766"/>
    <path d="M513.241 303.97l6.45 13.963-10.227 14.058-18.069 12.923-14.432.846-6.019-5.155-23.632-9.713-4.396 3.53-3.6-8.307.665-11.203-4.353-5.64 1.956-11.184 15.164 5.567 7.318 7.885 12.993 1.99 10.418-9.557 8.154 4.602 7.578-3.733 6.725 3.4 7.307-4.272z" id="21855"/>
    <path d="M358.836 294.527l12.378 9.488 1.845 10.437 8.957 6.581-21.375 14.21-15.18 3.931-10.237 5.35-5.298 8.023-5.5-4.751-4.535-16.024-10.827-8.514-5.75-6.871 27.392-21.62 6.95 1.718 21.18-1.958z" id="21418"/>
    <path d="M664.22 349.149l9.761 15.347 3.58 16.697-17.254 9.65-3.808.363-25.758-27.565-12.033-4.213-2.562-10.52-3.336-8.85-2.673-23.233 3.387-6.176-1.402-11 10.1 1.49 9.635-5.2 7.91 18.222 8.446 5.256 16.008 29.732z" id="22665"/>
    <path d="M609.115 294.614l3.007 5.035 1.402 11-3.387 6.176 2.673 23.232 3.336 8.852-5.504 9.297-12.78 5.743-12.675 12.203-7.867 2.365-1.357 10.121-7.117 6.28-8.06-10.097-2.908-16.199-3.008-12.74 7.731-2.3 2.828-7.164 13.402-3.361-7.357-26.137 12.736-1.372 5.514-16.885 19.39-4.049z" id="24187"/>
    <path d="M285.614 305.107l-23.566 18.415L241 332.005l-1.35 3.013-20.737 7.66-11.87-6.978-10.25 12.214-13.725-4.193 5.122 1.194 7.626-9.835 1.556-16.773 3.414-6.782-4.37-8.763 7.145-4.258 17.834-.479 19.358 5.48-5.176-14.264 8.329 2.546 6.321 7.57 15.423 2.687 6.275-15.715 8.019 7.727 5.669 11.05z" id="20821"/>
    <path d="M436.54 283.108l.46.804.584 14.176-1.956 11.183-19.456 13.027-17.685 20.775-10.556 8.92-14 1.693-6.291-5.12-6.998-13.323 21.374-14.21-8.957-6.58-1.845-10.438 6.641-3.028 5.44 7.52 6.884-1.886 9.454-9.247 16.072-5.522 8.731-8.748 12.105.004z" id="23289"/>
    <path d="M511.344 291.453l1.897 12.517-7.307 4.271-6.725-3.399-7.578 3.733-8.154-4.602-10.418 9.557-12.993-1.99-7.317-7.885-15.165-5.567-.584-14.176 17.198 1.409 13.109-3.58 28.976.009 13.046 2.474 2.015 7.23z" id="22460"/>
    <path d="M745.494 281.989l9.207 21.58 9.066 10.265 5.659 28.121 9.547 22.49-9.598 7.48 3.92 17.861 9.951 10.698-8.181 2.109 3.926 21.515-10.804-4.188-8.514 3.285L750.977 412l-8.922-1.313-1.55-18.236-10.165-3.946-12.426 5.667-13.692-24.452-3.375-11.158 17.68-7.771 9.134 1.76 23.6-5.224-2.193-28.438-4.985-25.635 1.411-11.266z" id="23494"/>
    <path d="M589.724 298.663l-5.514 16.885-12.736 1.372 7.356 26.137-13.401 3.361-2.828 7.163-7.73 2.3-17.444-13.044-2.652-17.538 8.02-3.563 4.426-42.564 8.052-.691 30.448 6.137 4.003 14.045z" id="22941"/>
    <path d="M669.149 290.439l7.04 13.864 10.39 12.582 1.17 11.885 7.581 18.617L683 344.46l-18.78 4.689-16.007-29.732-8.445-5.256-7.911-18.223-9.636 5.2-10.1-1.489-3.006-5.035.774-22.736 6.808-.293 18.458-8.197 2.443 7.198 10.307 6.251 6.641 11.925 14.603 1.677z" id="26118"/>
    <path d="M424.514 252.576l-1.036 7.345-2.911 11.418 10.411 2.326 5.563 9.443-12.105-.004-8.73 8.748-16.073 5.522-9.454 9.247-6.885 1.887-5.439-7.52-6.64 3.027-12.38-9.488 24.902-19.675 5.433 1.43 12.879-11.017 3.582-8.776 4.885-6.542 13.998 2.629z" id="25148"/>
    <path d="M336.852 251.475l10.16 10.23-4.944 13.184-5.95.32-.837 12.519-4.575 7.038-27.392 21.621-1.606-4.327-16.094-6.953-5.67-11.051-8.018-7.727-1.817-9.369 7.267-15.638 11.553-6.242 6.588 1.34 9.447-5.037 7.383 2.635 5.544-9.125 18.961 6.582z" id="24631"/>
    <path d="M405.631 256.489l-3.582 8.776-12.879 11.017-5.433-1.43-24.901 19.675-21.18 1.958-6.95-1.719 4.575-7.038.837-12.52 5.95-.32 4.945-13.183-10.16-10.23.113-14.893 17.785-7.097 14.366-4.285 2.804-5.195-.649 21.666 23.113 3.047 11.246 11.77z" id="21338"/>
    <path d="M354.75 229.485l-17.784 7.097-.114 14.893-18.961-6.582-8.419-4.081-6.36-8.521 11.406-12.292-1.385-10.845 21.4 5.701 5.168-7.018 15.05 21.648z" id="21098"/>
    <path d="M303.113 232.29l6.36 8.522 8.418 4.081-5.544 9.125-7.383-2.635-9.447 5.037-6.589-1.34-19.117 2.223-10.665-16.854 10.127-10.31-8.643-15.685 3.568-6.638 10.77 10.608 28.145 13.867z" id="23387"/>
    <path d="M686.017 207.252l3.889 4.525 6.71 19.18 3.487 63.644 10.064 13.931 7.474 18.823-.516 6.307 10.536 18.89-9.134-1.76-17.68 7.77-5.517-11.175-7.58-18.618-1.172-11.884-10.389-12.582-7.04-13.864 2.218-10.737 12.32-2.223-5.534-26.685-2.804-30.212-2.342-6.038-2.973-21.55 10.437 2.894 5.546 11.364z" id="25521"/>
    <path d="M377.701 191.988l20.697 6.204 26.318-.062-.621 6.732-10.138 10.679 8.681 11.07 4.442 13.88-2.566 12.085-13.998-2.63-4.885 6.543-11.246-11.771-23.113-3.047.649-21.666 5.78-28.017z" id="25629"/>
    <path d="M467.69 198.679l-.958 7.452-20.958 7.83-11.385-1.138-4.122 9.661-7.629 4.128-8.68-11.071 10.137-10.68.621-6.731 3.326-6.849 20.695 1.505 7.172-2.575 11.782 8.468z" id="20411"/>
    <path d="M698.067 179.041l3.438 12.31 8.616 10.237 11.623 23.915 14.602 36.502 5.57 5.042 3.578 14.942-1.41 11.266 4.984 25.635 2.192 28.438-23.6 5.224-10.535-18.89.516-6.307-7.474-18.823-10.064-13.931-3.488-63.644-6.71-19.18-3.888-4.525 12.388-5.561-.43-8.31-6.579-12.694 6.671-1.646z" id="24837"/>
    <path d="M600.83 172.093l-2.574 13.89 5.822 7.043-2.573 14.288 1.14 16.137 6.459 16.215-34.577 4.27-19.49-3.238-8.04-9.147-2.684-7.456 10.335-23.776.185-12.891 9.955-15.147.481-6.724 4.268 1.156 16.946-9.488 14.346 14.868z" id="25932"/>
    <path d="M565.269 165.557l-.481 6.724-9.955 15.147-.185 12.891-10.335 23.776 2.683 7.456-15.029 1.145-8.525-7.415 8.391-17.518-2.226-9.165-11.6-11.536-4.541-11.689-.08-9.36 2.039-3.84 15.029-3.488 7.76 3.24 20.884-10.776 6.171 14.408z" id="21668"/>
    <path d="M371.774 150.113l5.47 9.036.457 32.839-5.78 28.017-2.804 5.195-14.366 4.285-15.05-21.648.137-6.935 9.165-6.244 3.517-18.891-6.834-5.151 2.218-14.205 7.105 3.322 2.755-10.575 14.01.955z" id="25291"/>
    <path d="M118.728 139.777l7.215 8.464 7.546 21.699 9.96 4.616 2.844 30.68 7.47 10.073-3.187 11.331-15.054 8.369-13.895 17.257-21.287 4.018-5.405 8.837-3.069-10.652 2.473-10.115-12.025-7.35 5.06-6.446 6.827-20.085 7.279-11.579-1.934-22.406-4.066-28.91 9.709-6.52 13.539-1.281z" id="21597"/>
    <path d="M446.65 128.964l15.649 11.325 14.289 20.89-1.356 5.521-5.872-5.285-11.176 8.982-17.263 3.027-6.033-14.134-5.453-5.326 3.93-19.059 13.285-5.94z" id="20313"/>
    <path d="M428.31 114.278l13.441 7.51 4.899 7.176-13.285 5.941-3.93 19.06-23.605-3.027-6.644-10.476-9.098-5.485 5.376-18.99 9.398-6.381 16.146.75 7.302 3.922z" id="22781"/>
    <path d="M549.584 113.09l2.992 16.763 12.591.32 1.765 21.047-1.663 14.337-6.171-14.408-20.883 10.776-7.761-3.24-9.749-1.634 7.914-10.415-3.309-13.708 2.653-17.746-1.784-8.871 14.379 6.542 9.026.237z" id="25861"/>
    <path d="M293.962 116.893l14.136 13.374 10.688 14.651-4.315 19.503-11.056 9.855-5.815-6.499-7.49 5.128-19.73 3.428-4.713-4.04-13.421 10.954-9.732-7.295-9.173-19.474-13.212-7.889-5.949-9.864 9.326-10.332.58-10.398 13.977-5.113 17.151 5.515 12.767-4.75 5.088-8.295 12.133 1.233 8.76 10.308z" id="21196"/>
    <path d="M526.179 106.31l1.784 8.872-2.653 17.746 3.31 13.708-7.915 10.415 3.804-8.885-8.215-4.565-17.667-29.565 27.552-7.725z" id="26361"/>
    <path d="M168.095 137.595l3.87 18.904 13.255 6.436 10.025-1.089 8.654 5.032 5.82 14.022-.189 9.706 5.803 9.306 8.403 42.198 6.915 11.429 5.993 14.103-5.745 6.6 4.679 15 5.175 14.263-19.357-5.48-17.834.479-7.145 4.258 4.37 8.763-3.414 6.782-1.556 16.773-7.626 9.835-5.122-1.194-15.025 5.253-18.38-8.217-7.091 1.628-6.006 7.752-15.001 5.009-10.877 14.118-9.255-2.105 1.01-16.536-3.852-12.274.349-13.966 10.762 1.744 5.968-6.967 11.268.699 9.855-5.532 9.094 2.786 25.634-5.494 9.578-6.844 2.865-33.923-10.97-7.522-3.157-9.476 3.284-17.775-19.359-20.77-7.47-10.072-2.843-30.681-9.96-4.616-7.547-21.7-7.215-8.463 5.913-3.316.838-17.989 10.8-11.32 13.234-6.262 9.871 16.888 8.711 19.817z" id="21123"/>
    <path d="M473.733 109.027l6.141 8.962 1.942 31.549-2.371 6.512-2.857 5.128-14.29-20.89-15.648-11.324-4.899-7.176-13.441-7.51-1.092-9.962 14.873 1.154 9.937 10.596 21.704-7.04z" id="26379"/>
    <path d="M95.48 147.579l4.066 28.91-12.38 8.43-1.472 11.558-8.376 16.683-15.59 1.881-3.576 8.727-13.862 8.587-11.548-11.534-1.019-19.156-6.252-13.471-12.169-9.755-4.167-10.602 8.54-14.397-.737-18.22-13.237-15.084L1 107.946l21.797-3.777 17.376-11.824 7.45 3.224 4.542 13.436-1.577 10.073 4.742 5.504-1.035 11.081 11.173 8.448 13.456-9.217 10.556 1.32 6 11.365z" id="22718"/>
    <path d="M609.736 83.474l3.663 15.596 12.689 20-3.58 8.027-10.972 17.84-18.026-3.638-14.004-14.766 1.07-15.906-2.598-12.652-7.937-5.021 10.275 4.038 7.852-5.766 12.038-2.116 6.128-6.202 3.402.566z" id="26353"/>
    <path d="M345.286 83l32.23 23.588 5.123-2.637-.027 12.926 12.852-.89-5.376 18.99-4.035 10.606-14.28 4.53-14.009-.955-2.755 10.575-7.105-3.322-9.654-7.88-19.464-3.613-10.688-14.651-14.136-13.374 11.944-.529 9.164-7.96 10.025-17.182 7.756-6.38L345.286 83z" id="21506"/>
    <path d="M498.627 114.036l17.667 29.565 8.215 4.565-3.804 8.885 9.749 1.635-15.03 3.487-2.038 3.84-16.212 6.358-17.73-16.321 2.372-6.512-1.942-31.55-6.142-8.961-3.373-18.014 10.834-6.15.838-4.167 10.344-1.965-2.216 8.32 10.72 2.541-5.686 9.63 3.434 14.814z" id="25228"/>
    <path d="M494.437 79.447l-2.062-.716-10.344 1.965-.839 4.167-10.833 6.15 3.374 18.014-21.705 7.039-9.937-10.596-14.873-1.154 3.442-7.544-4.566-16.114 18.24-7.708 25.25 1.03 24.534 3.725.32 1.742z" id="21249"/>
    <path d="M551.335 72.017l.613 20.778 3.875 4.976-6.239 15.319-9.026-.237-14.379-6.542-27.552 7.725-3.434-14.814 5.687-9.63-10.721-2.541 2.216-8.32 2.062.716 7.855-5.356 13.821.85 5.258 10.557 12.76.47 6.878-8.492 10.326-5.459z" id="23644"/>
    <path d="M423.2 81.566l2.894-.908 4.566 16.114-3.442 7.544 1.092 9.962-7.302-3.922-16.146-.75-9.398 6.382-12.852.889.026-12.926 6.275-22.734-2.343-8.956 11.767-3.793 17.975 17.054 6.887-3.956z" id="24711"/>
    <path d="M398.337 68.468L386.57 72.26l2.343 8.956-6.274 22.734-5.123 2.638-32.23-23.59 8.427-10.614 5.19-23.492 16.16-3.446 24.155 11.143-.88 11.878z" id="20778"/>
    <path d="M676.933 108.653l-8.584-3.064-9.262-11.413-17.69-.1-16.246-8.386-15.415-2.216-3.402-.566-3.446-12.725 4.921-2.444 1.063-11.334 11.673-.82.089-6.567 9.862-8.399 2.774 6.709 13.407 9.515 1.505 9.03 21.08 11.01 24.443 15.56-16.772 16.21z" id="23207"/>
    <path d="M494.062 56.972l5.5 5.985 2.73 11.134-7.855 5.356-.32-1.742-24.533-3.724-25.25-1.03-18.24 7.707-2.895.908 8.756-8.029 2.592-8.026 9.64-6.301-10.778-16.05 14.185-5.358-.428-18.462 8.533-1.677 8.12-7.049L463.258 1l14.16.785-1.018 15.103 1.741 16.195 19.055 8.688-3.134 15.201z" id="22576"/>
    <path d="M614.265 158.016l8.95 14.38 8.55-2.472 1.04 17.306 9.006 21.49 2.824 12.556 10.212 23.692 3.294 14.44-7.45 3.404-20.844-8.959-5.299-.618-7.873-15.297-7.571 1.728-6.458-16.215-1.14-16.137 2.572-14.288-5.822-7.042 2.573-13.89 7.158-16.283 6.278 2.205z" id="22488"/>
    <path d="M673.007 214.544l2.342 6.038 2.804 30.212 5.534 26.685-12.32 2.223-2.218 10.737-14.603-1.677-6.642-11.925-10.306-6.251-2.443-7.199-5.308-9.534 20.844 8.959 7.45-3.404-3.294-14.44-10.212-23.691 10.199-6.12 18.173-.613z" id="23868"/>
    <path d="M660.307 390.843l3.387 14.167 13.449 18.065.78 12.52-6.743 2.531 8.621 20.338-8.103 5.785 3.913 12.741-16.546 1.41-3.954-23.055.952-13.176-8.01-9.663-2.549-18.099-6.722-16.892-3.818 1.648-9.211-17.96-7.045-21.774 12.033 4.212 25.758 27.565 3.808-.363z" id="23047"/>
    <path d="M542.434 480.74l6.035 6.52-5.441 8.364 12.56 9.618-8.044 5.272-9.297 14.7-10.229-3.432-1.168 12.017-9.682 2.979-6.194 7.185 2.273 8.913-14.912 16.583-19.481-10.924-1.304-16.045 19.2-17.613 2.711-13.122 16.754-23.57 4.89 4.115 8.068-10.908 6.287 4.346 6.974-4.998z" id="22059"/>
    <path d="M542.434 480.74l-6.974 4.998-6.287-4.346-8.068 10.908-4.89-4.116-16.754 23.571-2.71 13.122-19.2 17.613 1.303 16.045-8.492-3.046-33.003 14.837-9.287-9.561-5.72-10.452-5.762-16.712 3.07-8.045 10.953.102 4.735 2.311 7.616-13.036 30.39-25.474 13.135-15.002-.428-10.087-8.097-3.414 20.122-20.373 7.904 7.749 12.126 3.228 10.946 9.7-.352 5.183 13.724 14.297z" id="21757"/>
    <path d="M387.931 351.992l2.237 7.86 10.773 11.175-5.489 10.321 1.843 15.481 4.266 8.857-6.648 8.083-20.863-14.43-8.95-9.661-10.158 2.483-7.267-6.555-11.942-2.01-.977-5.95-4.83-25.1 5.298-8.021 10.236-5.35 15.182-3.933 6.998 13.324 6.29 5.12 14.001-1.694z" id="21454"/>
    <path d="M474.95 372.344l10.09 22.236 2.362 14.982 6.249 14.426-10.989 6.639-12.05 3.536-4.677 6.422-3.951-5.527-20.336-12.725-10.658-9.68-6.886-15.3 6.367-3.528 5.313-11.436 9.937-11.26-.117-7.42 9.31-6.128 20.035 14.763z" id="20607"/>
    <path d="M442.916 334.422l-2.205 15.695 3.339 6.614 10.863.85-9.31 6.129.118 7.419-9.937 11.26-5.313 11.436-6.367 3.527-22.543 8.334-4.266-8.857-1.843-15.481 5.489-10.321-10.773-11.174-2.237-7.86 10.557-8.92 17.684-20.775 19.456-13.026 4.353 5.64-.664 11.203 3.6 8.307z" id="22898"/>
    <path d="M98.592 338.35l-17.204-8.535-13.81-2.628-19.59.773-.154-7.924-7.745-3.812-13.98 5.711-11.704-7.985 2.426-5.426-7.74-8.706 9.55-4.396 4.651-14.817 15.15 9.135 27.216-.104 16.177 11.707 4.171-7.118.359-18.072 8.57-11.032 5.405-8.837 21.287-4.018 13.895-17.257 15.054-8.369 3.187-11.33 19.36 20.769-3.285 17.775 3.157 9.476 10.97 7.522-2.865 33.924-9.578 6.843-25.634 5.494-9.095-2.786-9.854 5.532-11.268-.7-5.968 6.968-10.762-1.744-.349 13.966z" id="21007"/>
    <path d="M94.935 265.121l-8.57 11.032-.359 18.072-4.171 7.118-16.177-11.707-27.215.104-15.15-9.135 1.188-20.319 20.765-1.985 8.442 7.069 4.153-20.889-4.99-9.82-8.56-2.306 13.861-8.587 3.576-8.727 15.59-1.88 8.376-16.684 1.472-11.558 12.38-8.43 1.934 22.405-7.28 11.58-6.827 20.084-5.059 6.446 12.025 7.35-2.473 10.115 3.069 10.652z" id="23975"/>
    <path d="M547.221 279.172l-4.427 42.564-8.019 3.563-7.407 1.955-7.676-9.32-6.45-13.964-1.898-12.517 3.086-7.416 32.791-4.865z" id="26346"/>
    <path d="M448.89 446.439l-6.479 12.127-8.327 7.754 2.48 21.757-7.409 14.165-1.54 8.942-1.179-6.226-7.19-6.273-5.241-20.417 1.068-20.67-4.456-6.962 7.587-8.437 9.31-2.24 5.844 11.358 15.533-4.878z" id="26338"/>
    <path d="M602.888 70.183l3.446 12.725-6.128 6.202-12.038 2.116-7.852 5.766-10.275-4.038-14.218 4.817-3.875-4.976-.613-20.778 7.002-12.66-5.102-8.39 10.528-6.236 13.418-1.881 7.16 14.805 13.984 4.932 4.563 7.596z" id="24999"/>
    <path d="M670.034 192.994l2.973 21.55-18.173.613-10.199 6.12-2.824-12.557-9.005-21.49-1.04-17.306-8.551 2.473-8.95-14.38-2.729-13.08 10.972-17.84 17.707 17.335 8.025 15.487 7.243 6.379 10.087 14.675 4.463 12.021z" id="23127"/>
    <path d="M626.088 119.07l8.836 6.504 3.476 7.784 26.755 10.291 4.367 3.733 11.467 13.75 10.878 7.804 6.2 10.105-6.67 1.646 6.578 12.694.43 8.31-12.388 5.56-5.546-11.363-10.438-2.894-4.463-12.021-10.087-14.675-7.243-6.379-8.025-15.487-17.707-17.335 3.58-8.027z" id="21891"/>
    <path d="M611.536 144.937l2.73 13.08-6.279-2.206-7.158 16.282-14.346-14.868-16.946 9.488-4.268-1.156 1.663-14.337-1.765-21.046-12.59-.321-2.993-16.763 6.239-15.319 14.218-4.817 7.937 5.02 2.599 12.653-1.071 15.906 14.004 14.766 18.026 3.638z" id="25362"/>
    <path d="M676.933 108.653l12.4 18.122-19.81 20.607-4.368-3.733-26.755-10.291-3.476-7.784-8.836-6.504-12.69-20-3.662-15.596 15.415 2.216 16.246 8.385 17.69.101 9.262 11.413 8.584 3.064z" id="24427"/>
    <path d="M629.847 253.853l5.308 9.534-18.458 8.197-6.808.294-.774 22.736-19.391 4.049-4.003-14.045-30.448-6.137 4.162-22.636-4.398-15.147 19.49 3.238 34.577-4.27 7.571-1.728 7.873 15.297 5.299.618z" id="24089"/>
    <path d="M329.926 352.547l4.83 25.099-9.96.015-9.084 14.843-11.586 9.58-10.894 23.694-10.706 4.377-8.812-.347-14.351 10.882-12.134-.004-9.545 17.711-11.162-1.045-12.784 3.562-2.279 5.217-16.775 8.541-1.953-10.662-6.972-11.71-.772-18.988 22.684-1.73 31.371-26.345 11.083-25.503 14.422-4.743 13.62-9.838 11.624-20.052 13.52-6.464 5.753-15.38 10.827 8.515 4.534 16.024 5.501 4.75z" id="22380"/>
    <path d="M546.996 231.551l8.04 9.147 4.399 15.147-4.162 22.636-8.052.69-32.791 4.866-6.13-4.768-.595-20.658 4.423-4.152 6.937-5.254 4.377-23.924 8.525 7.415 15.03-1.145z" id="25692"/>
    <path d="M503.524 240.972l8.604 13.487-4.423 4.152.596 20.658 6.129 4.768-3.086 7.416-2.015-7.23-13.046-2.473-28.976-.009-13.109 3.58L437 283.911l-.46-.804-5.562-9.443-10.411-2.326 2.91-11.418 13.291-3.387 11.246-2.935L475.2 256.1l3.996-5.367 11.32-2.329 1.163-8.428 11.846.996z" id="23715"/>
    <path d="M303.314 316.387l5.75 6.87-5.752 15.38-13.52 6.464-11.625 20.052-13.62 9.838-14.422 4.743-11.083 25.503-31.371 26.344-22.684 1.731.772 18.989-20.91-10.474-11.081-.32-5.589-22.866 10.74-7.79 4.48-25.491 4.504-9.621-11.457-7.761-18.175 7.752-5.495 13.693-12.081 4.453-12.192.36-10.733-3.107-3.958-10.37 7.622-13.6 9.255 2.105 10.877-14.118 15-5.009 6.007-7.752 7.091-1.628 18.38 8.217 15.025-5.253 13.724 4.193 10.25-12.214 11.871 6.979 20.737-7.661 1.35-3.013 21.047-8.483 23.566-18.415 16.094 6.953 1.606 4.327z" id="22166"/>
    <path d="M465.935 440.585l3.247 5.178-12.842 4.739-7.45-4.063-15.532 4.877-5.844-11.357-9.31 2.24-19.298 13.063-7.475-17.173 3.482-24.32 6.648-8.083 22.543-8.334 6.886 15.3 10.658 9.681 20.336 12.725 3.95 5.527z" id="20563"/>
    <path d="M481.77 238.695l-10.029-6.486-12.341-2.839-10.171 3.61-8.417 8.551-4.044 15.003-13.29 3.387 1.036-7.345 2.566-12.086-4.442-13.878 7.63-4.128 4.122-9.66 11.384 1.136 20.958-7.829 12.438 19.859 2.6 12.705z" id="23350"/>
    <path d="M481.77 238.695l9.908 1.281-1.164 8.428-11.319 2.329-3.996 5.367-27.185-2.501-11.246 2.935 4.044-15.003 8.417-8.55 10.17-3.611 12.342 2.839 10.028 6.486z" id="26320"/>
    <path d="M429.435 153.964l5.453 5.326 6.033 14.134 17.263-3.028 11.176-8.981 5.872 5.285 3.424 10.187-4.585 11.57-9.27-.148 2.89 10.37-11.782-8.468-7.172 2.575-20.695-1.505-3.325 6.849-26.32.062-20.696-6.204-.457-32.839-5.47-9.036 14.279-4.53 4.035-10.606 9.098 5.485 6.644 10.476 23.605 3.026z" id="20466"/>
    <path d="M214.18 138.725l5.95 9.864 13.211 7.889 9.173 19.474 9.732 7.295 11.952 24.569-3.568 6.638 8.643 15.686-10.127 10.31-5.864 4.93-11.168-1.073-11.463 9.232-6.915-11.429-8.403-42.198-5.803-9.306.19-9.706-5.821-14.022-8.654-5.032-10.025 1.089-13.255-6.436-3.87-18.904 11.149-1.84 11.613 3.118 23.323-.148z" id="26289"/>
    <path d="M288.928 255.08l-11.552 6.242-7.267 15.638 1.817 9.37-6.275 15.714-15.423-2.686-6.321-7.571-8.33-2.546-4.678-15 5.745-6.6-5.993-14.102 11.463-9.232 11.168 1.073 5.864-4.93 10.665 16.853 19.118-2.223z" id="20876"/>
    <path d="M601.246 431.07l-9.535 1.144-12.72 13.608-16.082.872-7.78 3.21-4.837-5.033-12.945 1.652-30.384-1.669-9.101-5.413-4.211-15.453 29.041 10.107 11.284-6.599 23.669-2.528 12.49-5.688 6.273-6.507 12.61-4.643 3.993 15.94 8.235 7z" id="26083"/>
    <path d="M613.862 447.46l10.088 23.21 1.665 9.165-1.353 8.745-19.97 15.338-1.624 8.962-15.238-11.514-10.692 1.673-10.755-8.64-17.514-7.14-6.035-6.519-13.724-14.298.351-5.182-10.945-9.7-12.126-3.228-7.904-7.749-.224-1.142 9.1 5.413 30.385 1.669 12.945-1.652 4.837 5.033 7.78-3.21 16.082-.872 12.72-13.608 9.535-1.144 12.616 16.39z" id="25068"/>
    <path d="M659.065 478.4l-8.58-6.775-19.09 14.762-5.78-6.552-1.665-9.164-10.088-23.211 6.473-9.72-2.974-12.723 3.809-15.88 9.226-11.558 4.568 1.584 3.818-1.648 6.722 16.892 2.548 18.099 8.011 9.663-.952 13.176 3.954 23.055z" id="25745"/>
    <path d="M553.235 50.966l5.102 8.391-7.002 12.66-10.326 5.459-6.877 8.491-12.76-.47-5.259-10.555-13.82-.851-2.731-11.134-5.5-5.985 13.174-1.413 6.965-6.535 15.326-5.12 18.534-2.94 5.174 10.002z" id="22111"/>
    <path d="M290.11 172.905l12.406 6.537 10.617 29.712 1.385 10.845-11.405 12.292-28.146-13.867-10.77-10.608-11.951-24.569 13.421-10.954 4.714 4.04 19.73-3.428z" id="25488"/>
    <path d="M347.904 156.41l-2.218 14.206 6.834 5.15-3.517 18.892-9.165 6.244-.137 6.935-5.169 7.018-21.4-5.701-10.616-29.712-12.406-6.537 7.49-5.128 5.815 6.499 11.056-9.855 4.315-19.503 19.464 3.613 9.654 7.88z" id="24338"/>
    <path d="M497.174 172.371l6.702 15.023-11.027 9.694-1.243 6.347 7.132 12.446 4.786 25.09-11.846-.995-9.909-1.281-2.599-12.705-12.438-19.859.959-7.452-2.89-10.37 9.27.148 4.585-11.57-3.424-10.187 1.356-5.522 2.856-5.128 17.73 16.321z" id="20297"/>
    <path d="M513.386 166.013l.08 9.36 4.54 11.689 11.601 11.536 2.226 9.165-8.391 17.518-4.377 23.924-6.937 5.254-8.604-13.487-4.786-25.09-7.132-12.447 1.243-6.347 11.026-9.694-6.701-15.023 16.212-6.358z" id="20359"/>
  </g>
</svg>
