<svg xmlns="http://www.w3.org/2000/svg" version="1.2" baseProfile="tiny" stroke-linecap="round" stroke-linejoin="round" viewBox="0 0 800 611">
  <g id="BC" fill="none" stroke="#aaa">
    <path d="M427.272 505.39l1.18 6.231 3 14.487-10.961-.103-3.074 8.052 5.768 16.727-7.588 5.16-15.503-6.035-7.265 4.785-7.663-3.324-17.251 12.896-12.827 2.295-6.028 12.738-24.317 13.115-3.3 14.224-3.724 3.612-19.344-7.875-10.341.941-12.69-13.418-18.381 7.832-8.401-2.612-1.307-10.944-6.804-9.865 2.725-8.3 6.731.434 11.035-10.85 16.388 1.218 1.818-22.926 17.562-5.086 6.377 4.001 10.924-4.664 8.134 3.654-.26-20.95 4.758-12.33 10.772 2.01 7.939 7.543 2.577-4.643 38.056-12.266 5.506 4.044 13.086-6.518 9.11 12.827-2.043 7.865 15.626-3.982z" data-name="Mănăstirea Cașin" class="comuna" id="23449"/>
    <path d="M549.41 487.676l17.528 7.145 10.764 8.648 10.702-1.674 15.25 11.523 6.746 2.52-1.453 11.317-6.84 11.378-9.242-.448.556 12.168-9.913-3.217-6.506 4.503-44.058-17.846-5.172.563 1.169-12.028 10.237 3.436 9.306-14.713 8.05-5.277-12.57-9.626 5.445-8.372z" data-name="Urechești" class="comuna" id="26029"/>
    <path d="M361.234 455.34l3.963 14.556-14.14 26.114-13.642 4.51-10.772-2.01-4.758 12.33.26 20.95-8.134-3.654-10.924 4.664-6.377-4-17.562 5.086-1.818 22.925-16.388-1.217-11.035 10.849-6.73-.433-19.713-16.807-8.878-4.132-4.692-8.425 9.316-8.066-.427-12.143 14.452-8.066 16.908-12.75 2.932-11.38 7.372-13.188 8.014 3.793 6.286-10.427 20.713-6.957 7.016-5.033 10.007 1.26 10.45-7.517 11.185-1.795 20.916 15.655 6.2-4.691z" data-name="Oituz" class="comuna" id="23797"/>
    <path d="M419.033 442.577l-7.594 8.444 4.46 6.968-1.07 20.688 5.246 20.435 7.197 6.278-15.626 3.982 2.043-7.865-9.11-12.827-13.086 6.518-5.506-4.044-38.056 12.266-2.577 4.643-2.011-5.663 22.681-12.438 5.212-14.346 17.914-.99 9.091-5.922 1.478-13.053 19.314-13.074z" data-name="Cașin" class="comuna" id="21720"/>
    <path d="M392.237 438.463l7.481 17.188-1.477 13.053-9.09 5.922-17.915.99-5.212 14.346-22.681 12.438 2.01 5.663-7.938-7.543 13.643-4.51 14.139-26.114-3.963-14.555 11.154-9.21-.479-7.617 20.328-.05z" data-name="Bogdănești" class="comuna" id="21560"/>
    <path d="M781.116 434.332l2.984 11.887 14.31.518.59 10.613-.015 16.738-6.235 17.749-17.416 1.88-6.387-19.8-14.858-6.723-16.537.498-5.8 12.21 2.87 9.346-8.967 6.783-6.958-9.162-8.543.561-6.52-11.412-2.488-13.921-4.488-1.852 4.978-10.806-.573-8.805 13.777-10.165 5.364 12.505 7.871-2.015 17.364 6.727 10.03-.462 2.886-7.965 22.76-4.927z" data-name="Podu Turcului" class="comuna" id="24524"/>
    <path d="M498.759 439.816l.224 1.144-20.14 20.39 8.105 3.417.428 10.096-13.147 15.014-30.415 25.497-7.623 13.046-4.738-2.312-3-14.487 1.54-8.95 7.416-14.177-2.483-21.775 8.335-7.76 6.485-12.139 7.455 4.067 9.603-9.926 4.682-6.427 23.058-10.183 4.215 15.465z" data-name="Ștefan cel Mare" class="comuna" id="20670"/>
    <path d="M371.91 438.514l.478 7.616-11.154 9.21-6.2 4.692-20.916-15.655-1.897-6.709 17.5-15.918 14 4.136 8.188 12.628z" data-name="Pîrgărești" class="comuna" id="24276"/>
    <path d="M322.932 446.172l-10.449 7.517-10.007-1.26-7.016 5.034-20.713 6.956-6.286 10.427-8.014-3.793-7.372 13.187-2.932 11.381-16.908 12.75-14.452 8.066-21.856 5.83 2.006-17.842-8.836-18.051 5.225-11.296 16.789-8.548 2.28-5.222 12.796-3.565 11.171 1.046 9.553-17.726 12.144.003 14.364-10.89 19.534-4.034 15.852-4.58 6.473 4.917 6.654 19.693z" data-name="Slănic-Moldova" class="oras" id="20910"/>
    <path d="M395.721 414.123l-3.484 24.34-20.328.05-8.188-12.627-14-4.136 4.428-12.981 1.568-16.273 10.166-2.485 8.958 9.669 20.88 14.443z" data-name="Tîrgu Trotuș" class="comuna" id="25825"/>
    <path d="M569.804 395.255l12.741 6.08 7.448 7.144-12.62 4.647-6.28 6.512-12.5 5.693-23.689 2.53-11.293 6.605-29.067-10.115-6.254-14.438 18.067-8.905 7.001 2.461 25.152-.567 9.068-7.36-3.09-6.31 17.25-4.083 8.066 10.106z" data-name="Orbeni" class="comuna" id="23948"/>
    <path d="M335.513 377.968l.978 5.956 11.952 2.012 7.274 6.56-1.568 16.273-4.427 12.981-17.501 15.918 1.897 6.709-11.186 1.795-6.654-19.693-6.473-4.917-15.852 4.58 10.904-23.714 11.596-9.588 9.09-14.856 9.97-.016z" data-name="Tîrgu Ocna" class="oras" id="20965"/>
    <path d="M780.13 424.47l.986 9.862-22.76 4.927-2.886 7.965-10.031.462-17.364-6.727-7.871 2.015-5.364-12.505-13.777 10.165-5.212-16.813 1.097-16.964 9.091-6.354-.744-30.466L719 394.51l12.438-5.672 10.173 3.95 1.551 18.25 8.93 1.315 8.703 11.214 8.521-3.288 10.814 4.191z" data-name="Glăvănești" class="comuna" id="22834"/>
    <path d="M561.737 385.15l-17.249 4.081 3.09 6.311-9.068 7.36-25.152.567-7.001-2.461-18.067 8.905-2.365-14.996-10.099-22.255 28.553-2.01 10.196 4.096 9.813-3.042 6.503 10.148 21.65-7.737 6.285-5.18 2.911 16.212z" data-name="Parava" class="comuna" id="24034"/>
    <path d="M619.708 359.736l7.051 21.793 9.22 17.975-4.573-1.586-9.234 11.568-3.812 15.895 2.977 12.733-6.478 9.728-12.628-16.404-8.241-7.006-3.997-15.953-7.448-7.144-12.741-6.08 7.123-6.285 1.358-10.13 7.873-2.366 12.687-12.214 12.79-5.748 5.51-9.305 2.563 10.529z" data-name="Corbasca" class="comuna" id="21971"/>
    <path d="M696.396 347.684l5.522 11.185 3.377 11.167.744 30.467-9.09 6.354-1.097 16.964 5.21 16.813.574 8.805-4.978 10.806-23.914 4.401 8.11-5.79-8.628-20.355 6.748-2.533-.78-12.532-13.46-18.08-3.39-14.179 17.267-9.659-3.582-16.71-9.769-15.36 18.795-4.694 12.341 2.93z" data-name="Dealu Morii" class="comuna" id="22237"/>
    <path d="M535.704 325.577l2.654 17.553 17.458 13.055 3.01 12.752-6.285 5.18-21.65 7.737-6.503-10.148-9.813 3.042-10.196-4.097-28.553 2.01-20.053-14.774-10.873-.85-3.34-6.621 2.206-15.708 4.4-3.534 23.652 9.722 6.024 5.159 14.445-.846 18.084-12.934 10.237-14.07 7.682 9.328 7.414-1.956z" data-name="Răcăciuni" class="comuna" id="24766"/>
    <path d="M514.151 304.23l6.457 13.975-10.237 14.07-18.084 12.934-14.445.846-6.024-5.159-23.653-9.722-4.399 3.534-3.602-8.315.665-11.212-4.358-5.645 1.958-11.194 15.178 5.572 7.323 7.892 13.005 1.992 10.426-9.565 8.162 4.606 14.315-.335 7.313-4.274z" data-name="Cleja" class="comuna" id="21855"/>
    <path d="M359.613 294.779l12.39 9.495 1.846 10.447 8.964 6.586-21.392 14.222-25.439 9.29-5.303 8.029-5.505-4.755-4.539-16.038-10.836-8.521-5.755-6.877 27.416-21.639 6.956 1.72 21.197-1.96z" data-name="Berzunți" class="comuna" id="21418"/>
    <path d="M665.26 349.447l9.769 15.36 3.582 16.711-17.268 9.66-3.811.362-25.78-27.588-12.044-4.216-2.564-10.53-3.339-8.858-2.675-23.252 1.987-17.19 10.108 1.49 9.644-5.205 7.917 18.238 8.453 5.26 16.021 29.758z" data-name="Găiceana" class="comuna" id="22665"/>
    <path d="M610.107 294.866l3.01 5.04-1.987 17.19 2.675 23.252 3.34 8.859-5.51 9.305-12.79 5.748-12.687 12.214-7.873 2.366-1.358 10.13-7.123 6.285-8.067-10.106-2.911-16.212-3.01-12.752 10.568-9.471 13.413-3.364-7.363-26.159 12.746-1.374 5.52-16.9 19.407-4.051z" data-name="Pîncești" class="comuna" id="24187"/>
    <path d="M286.329 305.367l-23.586 18.431-21.065 8.491-1.35 3.015-20.756 7.668-11.88-6.985-10.26 12.225-13.736-4.198 5.126 1.195 7.633-9.843 1.558-16.787 3.417-6.788-4.375-8.77 7.152-4.262 17.85-.48 19.373 5.486-5.18-14.277 8.336 2.548 6.327 7.577 15.436 2.689 6.28-15.728 8.026 7.733 5.674 11.06z" data-name="Comănești" class="oras" id="20821"/>
    <path d="M437.385 283.35l.46.804.584 14.188-1.958 11.194L417 322.573l-17.7 20.793-10.565 8.927-14.013 1.695-6.296-5.124-7.004-13.335 21.392-14.222-8.964-6.586-1.846-10.447 6.647-3.03 5.443 7.527 6.891-1.888 9.462-9.255 16.086-5.527 8.739-8.755 12.114.004z" data-name="Livezi" class="comuna" id="23289"/>
    <path d="M512.252 291.702l1.9 12.528-7.314 4.274-14.315.335-8.162-4.606-10.426 9.565-13.005-1.992-7.323-7.892-15.178-5.572-.584-14.188 17.213 1.41 13.12-3.582 29 .008 13.058 2.476 2.016 7.236z" data-name="Faraoani" class="comuna" id="22460"/>
    <path d="M746.603 282.23l9.216 21.598 9.073 10.274 1.678 14.615 6.555 5.845-2.57 7.685 9.556 22.51-9.606 7.485 9.624 52.228-10.814-4.191-8.52 3.288-8.704-11.214-8.93-1.314-1.551-18.251-10.173-3.95-12.438 5.672-13.704-24.474-3.377-11.167 17.695-7.778 9.141 1.762 23.62-5.228-2.194-28.463-4.989-25.657 1.412-11.275z" data-name="Motoșeni" class="comuna" id="23494"/>
    <path d="M590.7 298.918l-5.52 16.9-12.746 1.373 7.363 26.159-13.413 3.364-10.568 9.471-17.458-13.055-2.654-17.553 8.026-3.566 4.43-42.6 8.059-.692 30.474 6.142 4.007 14.057z" data-name="Horgești" class="comuna" id="22941"/>
    <path d="M670.192 290.687l7.047 13.876 10.398 12.593 1.172 11.894 7.587 18.634-12.341-2.93-18.795 4.693-16.021-29.757-8.453-5.26-7.917-18.24-9.644 5.205-10.108-1.49-3.01-5.04.775-22.755 6.814-.294 18.474-8.204 2.445 7.204 10.315 6.257 6.647 11.936 14.615 1.678z" data-name="Vultureni" class="comuna" id="26118"/>
    <path d="M425.348 252.791l-1.037 7.351-2.914 11.429 10.421 2.327 5.567 9.452-12.114-.004-8.74 8.755-16.086 5.527-9.46 9.255-6.892 1.888-5.444-7.527-6.646 3.03-12.39-9.495 24.923-19.693 5.438 1.432 12.89-11.027 3.585-8.783 4.889-6.548 14.01 2.631z" data-name="Sănduleni" class="comuna" id="25148"/>
    <path d="M337.611 251.69l10.17 10.238-4.95 13.195-5.954.32-.838 12.53-4.579 7.045-27.416 21.64-1.607-4.332-16.108-6.959-5.674-11.06-8.026-7.733-1.818-9.377 7.273-15.652 11.563-6.247 16.049-3.7 7.39 2.636 5.548-9.132 18.977 6.588z" data-name="Poduri" class="comuna" id="24631"/>
    <path d="M406.449 256.708l-3.585 8.783-12.89 11.027-5.438-1.432-24.923 19.692-21.197 1.96-6.956-1.72 4.579-7.044.838-12.53 5.954-.32 4.95-13.196-10.17-10.238.114-14.906 17.8-7.104 14.378-4.288 2.807-5.2-3.599 7.722 2.95 13.963 23.132 3.05 11.256 11.78z" data-name="Berești-Tazlău" class="comuna" id="21338"/>
    <path d="M355.525 229.68l-17.8 7.104-.114 14.906-18.977-6.588-8.426-4.085-6.365-8.528 11.415-12.303-1.387-10.854 21.418 5.706 5.174-7.024 15.062 21.666z" data-name="Ardeoani" class="comuna" id="21098"/>
    <path d="M303.843 232.489l6.365 8.528 8.426 4.085-5.549 9.132-7.39-2.637-16.048 3.7-19.134 2.226-10.674-16.869 10.135-10.318-8.65-15.7 3.57-6.643 10.78 10.617 28.169 13.879z" data-name="Măgirești" class="comuna" id="23387"/>
    <path d="M687.075 207.428l3.892 4.53 6.716 19.196 3.49 63.698 10.073 13.944 7.48 18.838-.516 6.313 10.544 18.906-9.14-1.762-17.696 7.778-5.522-11.185-7.587-18.634-1.172-11.894-10.398-12.593-7.047-13.876 2.22-10.746 12.331-2.225-5.539-26.708-2.806-30.238-2.344-6.043-2.976-21.568 10.446 2.896 5.55 11.373z" data-name="Stănișești" class="comuna" id="25521"/>
    <path d="M378.495 192.152l20.714 6.209 26.342-.062-.622 6.737-10.147 10.689 8.689 11.08 4.445 13.89-2.568 12.096-14.01-2.631-4.889 6.548-11.256-11.782-23.132-3.049-2.95-13.963 3.599-7.721 5.785-28.041z" data-name="Strugari" class="comuna" id="25629"/>
    <path d="M468.562 198.848l-.96 7.46-20.976 7.835-11.394-1.138-4.126 9.669-7.635 4.13-8.689-11.08 10.147-10.688.622-6.737 3.328-6.855 20.713 1.507 7.178-2.578 11.792 8.475z" data-name="Măgura" class="comuna" id="20411"/>
    <path d="M699.135 179.194l3.442 12.321 8.623 10.245 4.895 11.544 11.995 12.608-.608 12.009 9.965 24.308 5.574 5.046 3.582 14.955-1.412 11.275 4.99 25.657 2.193 28.463-23.62 5.228-10.544-18.906.516-6.313-7.48-18.839-10.073-13.943-3.49-63.698-6.716-19.197-3.892-4.529 12.399-5.565-.43-8.318-6.585-12.704 6.676-1.647z" data-name="Răchitoasa" class="comuna" id="24837"/>
    <path d="M601.814 172.24l-2.575 13.902 5.827 7.049-2.575 14.3 1.142 16.15 6.463 16.23-34.606 4.273-19.507-3.24-8.048-9.155-2.685-7.463 10.344-23.796.185-12.902 9.963-15.16.482-6.73 4.271 1.157 16.96-9.496 14.36 14.88z" data-name="Ungureni" class="comuna" id="25932"/>
    <path d="M566.224 165.698l-.482 6.73-9.963 15.16-.185 12.902-10.344 23.796 2.685 7.463-15.041 1.146-8.533-7.421 8.398-17.533-2.228-9.174-11.61-11.546-4.625-21.067 2.04-3.842 15.043-3.491 7.767 3.242 20.901-10.786 6.177 14.42z" data-name="Buhoci" class="comuna" id="21668"/>
    <path d="M372.563 150.24l5.475 9.045.457 32.867-5.785 28.04-2.807 5.2-14.378 4.288-15.062-21.666.137-6.94 9.172-6.25 3.52-18.908-6.84-5.155 2.22-14.217 7.111 3.325 2.758-10.584 14.022.956z" data-name="Scorțeni" class="comuna" id="25291"/>
    <path d="M119.3 139.896l7.221 8.47 7.553 21.719 9.969 4.62 2.845 30.707 7.477 10.081-3.19 11.34-15.067 8.376-13.906 17.273-21.306 4.021-5.41 8.845-3.07-10.662 2.475-10.123-12.036-7.357 5.064-6.451 6.833-20.102 7.285-11.59-1.935-22.424-4.07-28.935 9.718-6.526 13.55-1.282z" data-name="Brusturoasa" class="comuna" id="21597"/>
    <path d="M447.503 129.074l15.662 11.334 14.302 20.908-1.357 5.526-5.877-5.29-11.186 8.99-17.278 3.03-6.038-14.147-5.458-5.33 3.933-19.075 13.297-5.946z" data-name="Hemeiuș" class="comuna" id="20313"/>
    <path d="M429.147 114.375l13.453 7.516 4.903 7.183-13.296 5.946-3.934 19.075-23.624-3.028-6.65-10.486-9.106-5.49 5.38-19.005 9.406-6.387 16.16.75 7.308 3.926z" data-name="Gîrleni" class="comuna" id="22781"/>
    <path d="M550.525 113.186l2.995 16.777 12.602.321 1.766 21.065-1.664 14.349-6.177-14.42-20.9 10.785-7.768-3.242-9.757-1.636 7.92-10.424-3.311-13.72 2.655-17.761-1.786-8.879 14.391 6.548 9.034.237z" data-name="Traian" class="comuna" id="25861"/>
    <path d="M294.685 116.992l14.147 13.385 10.697 14.664-4.318 19.52-11.065 9.863-5.82-6.504-7.497 5.132-19.746 3.431-4.718-4.043-13.433 10.963-9.74-7.301-9.18-19.49-13.224-7.896-5.954-9.873 9.334-10.34.58-10.408 13.99-5.117 17.166 5.52 12.777-4.754 5.092-8.303 12.143 1.234 8.769 10.317z" data-name="Balcani" class="comuna" id="21196"/>
    <path d="M527.1 106.401l1.786 8.879-2.655 17.761 3.312 13.72-7.921 10.424 3.807-8.893-8.222-4.568-17.682-29.59L527.1 106.4z" data-name="Prăjești" class="comuna" id="26361"/>
    <path d="M168.71 137.712l3.873 18.92 13.266 6.442 10.034-1.09 8.66 5.036 5.826 14.034-.189 9.714 5.808 9.314 8.41 42.235 6.92 11.438 6 14.115-5.75 6.605 4.682 15.013 5.18 14.277-19.374-5.485-17.849.479-7.152 4.261 4.375 8.771-3.417 6.788-1.558 16.787-7.633 9.843-5.126-1.195-15.038 5.258-18.395-8.224-13.109 9.388-15.013 5.013-10.887 14.13-9.263-2.106 1.012-16.55-3.856-12.285.349-13.978 10.772 1.745 5.972-6.973 11.279.7 9.862-5.537 9.103 2.789 25.655-5.5 9.587-6.848 2.867-33.953-10.98-7.529-3.16-9.484 3.288-17.79-19.376-20.787-7.477-10.081-2.845-30.708-9.969-4.62-7.553-21.717-7.22-8.471 5.917-3.319.839-18.004 10.809-11.33 13.295-6.276 9.83 16.911 8.719 19.834z" data-name="Asău" class="comuna" id="21123"/>
    <path d="M474.609 109.12l6.147 8.97 1.943 31.575-2.373 6.517-2.86 5.134-14.3-20.908-15.663-11.334-4.903-7.183-13.453-7.516-1.092-9.97 14.885 1.155 9.946 10.605 21.723-7.046z" data-name="Itești" class="comuna" id="26379"/>
    <path d="M96.033 147.704l4.07 28.934-12.392 8.44-1.473 11.567-8.383 16.697-15.604 1.882-3.578 8.735-13.874 8.595L33.24 221.01l-1.019-19.173-6.258-13.483-12.179-9.763-4.17-10.611 8.547-14.41-.738-18.235-13.248-15.097L1 107.474l12.383-2.004 9.904-1.213 17.391-11.834 7.457 3.227 4.545 13.447-1.578 10.082 4.746 5.509-1.036 11.09 11.183 8.455 13.467-9.224 10.565 1.32 6.006 11.375z" data-name="Ghimeș-Făget" class="comuna" id="22718"/>
    <path d="M610.729 83.544l3.665 15.61 12.7 20.017-3.583 8.034-10.98 17.856-18.043-3.641-14.016-14.78 1.072-15.919-2.6-12.663L571 93.033l10.283 4.042 7.859-5.772 12.048-2.117 6.133-6.208 3.406.566z" data-name="Odobești" class="comuna" id="26353"/>
    <path d="M346.052 83.07l32.258 23.609 5.127-2.64-.027 12.937 12.863-.89-5.38 19.006-4.039 10.615-14.291 4.534-14.022-.956-2.757 10.584-7.111-3.325-9.663-7.887-19.48-3.616-10.698-14.664-14.147-13.385 11.954-.529 9.172-7.967L325.844 91.3l7.763-6.385 12.445-1.844z" data-name="Blăgești" class="comuna" id="21506"/>
    <path d="M499.525 114.133l17.682 29.59 8.222 4.57-3.807 8.892 9.757 1.636-15.042 3.49-2.041 3.843-16.226 6.364-17.744-16.336 2.373-6.517-1.943-31.576-6.147-8.97-3.376-18.028 10.842-6.156.839-4.171 10.353-1.967-2.218 8.328 10.73 2.543-5.691 9.639 3.437 14.826z" data-name="Săucești" class="comuna" id="25228"/>
    <path d="M495.331 79.514l-2.064-.717-10.353 1.967-.839 4.17-10.842 6.157 3.376 18.028-21.723 7.046-9.946-10.605-14.885-1.156 3.444-7.55-4.57-16.128 18.257-7.714 25.27 1.031 24.556 3.728.32 1.743z" data-name="Berești-Bistrița" class="comuna" id="21249"/>
    <path d="M552.278 72.078l.613 20.795 3.878 4.981-6.244 15.332-9.034-.237-14.39-6.548-27.576 7.732-3.437-14.826 5.691-9.639-10.73-2.544 2.218-8.327 2.064.717 7.862-5.36 13.833.85 5.263 10.566 12.771.47 6.883-8.499 10.335-5.463z" data-name="Negri" class="comuna" id="23644"/>
    <path d="M424.032 81.635l2.898-.909 4.57 16.128-3.445 7.55 1.092 9.971-7.308-3.926-16.16-.75-9.406 6.387-12.863.89.027-12.936 6.28-22.754-2.346-8.964 11.778-3.797 17.99 17.07 6.893-3.96z" data-name="Racova" class="comuna" id="24711"/>
    <path d="M399.149 68.525l-11.778 3.797 2.346 8.964-6.28 22.754-5.127 2.639-32.258-23.609 8.434-10.624 5.194-23.511 29.558 2.833 4.576-4.025 6.216 8.895-.881 11.887z" data-name="Buhuși" class="oras" id="20778"/>
    <path d="M677.983 108.746l-8.59-3.067-9.271-11.423-17.705-.101-16.26-8.393-15.428-2.218-3.406-.566-3.448-12.736 5.99-13.79 11.682-.82.089-6.573 9.87-8.406 2.777 6.714L647.7 56.89l1.507 9.04 24.29 13.089L694.77 92.52l-16.787 16.225z" data-name="Lipova" class="comuna" id="23207"/>
    <path d="M494.956 57.02l8.237 17.133-7.862 5.36-.32-1.742-24.554-3.728-25.271-1.031-18.256 7.714-2.898.91 8.764-8.037 2.594-8.033 9.648-6.306-10.787-16.065 14.197-5.362-.428-18.477 8.54-1.679 8.127-7.055L464.125 1l14.173.785 2.424 4.803-4.638 3.764 2.938 22.758 19.07 8.696-3.136 15.214z" data-name="Filipești" class="comuna" id="22576"/>
    <path d="M615.262 158.15l8.957 14.394 8.558-2.475 1.041 17.32 9.013 21.509 2.827 12.567 10.22 23.712 3.298 14.452-7.457 3.407-20.862-8.966-5.303-.62-7.88-15.31-7.578 1.73-6.463-16.229-1.142-16.15 2.575-14.3-5.827-7.049 2.575-13.902 7.165-16.296 6.283 2.207z" data-name="Filipeni" class="comuna" id="22488"/>
    <path d="M674.054 214.727l2.344 6.043 2.806 30.238 5.54 26.708-12.331 2.225-2.22 10.746-14.616-1.678-6.647-11.936-10.315-6.256-2.445-7.205-5.313-9.542 20.862 8.966 7.457-3.407-3.297-14.452-10.221-23.712 10.207-6.125 18.19-.613z" data-name="Oncești" class="comuna" id="23868"/>
    <path d="M661.343 391.177l3.39 14.18 13.46 18.08.78 12.53-6.747 2.534 8.628 20.355-8.11 5.79 3.916 12.752-16.56 1.411-3.957-23.075.952-13.187-8.017-9.672-2.55-18.114-6.728-16.906-3.822 1.649-9.219-17.975-7.05-21.793 12.043 4.216 25.78 27.588 3.811-.363z" data-name="Huruiești" class="comuna" id="23047"/>
    <path d="M543.369 481.151l6.04 6.525-5.446 8.372 12.571 9.626-8.05 5.277-9.306 14.713-10.237-3.436-1.17 12.028-9.69 2.981-6.199 7.191-.016 13.725-5.418 10.54-7.215 1.253-19.499-10.934-1.304-16.059 19.216-17.627 2.714-13.133 16.767-23.591 4.895 4.12 8.075-10.918 6.292 4.349 6.98-5.002z" data-name="Coțofănești" class="comuna" id="22059"/>
    <path d="M543.369 481.151l-6.98 5.002-6.292-4.35-8.075 10.918-4.895-4.12-16.767 23.592-2.714 13.133-19.216 17.627 1.304 16.06-8.498-3.049-11.21 5.01-1.793 5.604-10.195-.46-9.834 4.696-15.019-20.03-5.768-16.727 3.074-8.052 10.962.103 4.738 2.313 7.623-13.047 30.415-25.497 13.147-15.014-.428-10.096-8.104-3.417 20.14-20.39 7.788 7.675 12.259 3.311 10.954 9.708-.351 5.187 13.735 14.31z" data-name="Căiuți" class="comuna" id="21757"/>
    <path d="M388.734 352.293l2.239 7.867 10.782 11.184-5.494 10.33 1.845 15.494 4.27 8.865-6.655 8.09-20.88-14.443-8.958-9.67-10.166 2.486-7.274-6.56-11.952-2.012-.978-5.956-4.834-25.12 5.303-8.03 25.439-9.29 7.004 13.336 6.296 5.125 14.013-1.696z" data-name="Bîrsănești" class="comuna" id="21454"/>
    <path d="M475.826 372.662l10.1 22.255 2.364 14.996 6.254 14.438-23.058 10.183-4.682 6.427-3.954-5.532-20.353-12.735-10.667-9.689-6.892-15.313 6.372-3.53 5.318-11.446 9.945-11.27-.117-7.425 9.317-6.134 20.053 14.775z" data-name="Gura Văii" class="comuna" id="20607"/>
    <path d="M443.766 334.708l-2.207 15.708 3.341 6.62 10.874.85-9.318 6.135.117 7.425-9.945 11.27-5.318 11.446-6.372 3.53-22.563 8.34-4.269-8.864-1.845-15.494 5.494-10.33-10.782-11.184-2.24-7.867 10.566-8.927 17.7-20.793 19.472-13.037 4.358 5.645-.665 11.213 3.602 8.314z" data-name="Helegiu" class="comuna" id="22898"/>
    <path d="M99.147 338.638l-17.22-8.54-13.821-2.632-19.605.774-.156-7.93-7.751-3.816-19.06 3.322-7.501 4.35 4.161-12.21-4.643-7.187 5.576-9.095.953-10.28 3.703-4.55 15.163 9.143 27.24-.104 16.19 11.718 4.174-7.125.359-18.087 8.578-11.041 5.409-8.845 21.306-4.021 13.906-17.273 15.067-8.375 3.19-11.341 19.376 20.787-3.287 17.79 3.16 9.485 10.979 7.528-2.867 33.953-9.587 6.849-25.655 5.499-9.103-2.79-9.862 5.538-11.279-.7-5.972 6.973-10.772-1.745-.349 13.978z" data-name="Agăș" class="comuna" id="21007"/>
    <path d="M95.487 265.348l-8.578 11.04-.359 18.089-4.175 7.124-16.19-11.718-27.239.104-15.163-9.143 1.19-20.336 20.782-1.987 8.45 7.075 3.392-17.215-4.23-13.52-8.568-2.307 13.874-8.595 3.578-8.735 15.604-1.882 8.383-16.697 1.473-11.568 12.391-8.439 1.935 22.426-7.285 11.589-6.833 20.102-5.064 6.451 12.036 7.357-2.476 10.123 3.072 10.662z" data-name="Palanca" class="comuna" id="23975"/>
    <path d="M548.16 279.41l-4.43 42.601-8.026 3.566-7.414 1.956-7.682-9.328-6.457-13.975-1.899-12.528 3.089-7.422 32.82-4.87z" data-name="Gioseni" class="comuna" id="26346"/>
    <path d="M449.746 446.82l-6.485 12.138-8.335 7.76 2.483 21.776-7.416 14.177-1.54 8.95-1.181-6.23-7.197-6.28-5.245-20.434 1.07-20.688-4.461-6.968 7.594-8.444 9.317-2.242 5.85 11.367 15.546-4.882z" data-name="Buciumi" class="comuna" id="26338"/>
    <path d="M603.875 70.242l3.448 12.736-6.133 6.208-12.048 2.117-7.859 5.772L571 93.033l-14.23 4.821-3.879-4.98-.613-20.796 7.008-12.67-5.106-8.399 10.536-6.24 13.43-1.883 7.167 14.818 9.886-.175 8.676 12.713z" data-name="Roșiori" class="comuna" id="24999"/>
    <path d="M671.078 193.159l2.976 21.568-18.189.613-10.207 6.125-2.827-12.567-9.013-21.509-1.04-17.32-8.559 2.475-8.957-14.393-2.731-13.09 10.98-17.856 17.723 17.35 8.032 15.5 17.345 21.072 4.467 12.032z" data-name="Izvoru Berheciului" class="comuna" id="23127"/>
    <path d="M627.095 119.17l8.843 6.51 3.48 7.791 26.777 10.3 4.371 3.737 11.477 13.76 10.887 7.812 5.74 8.79.465 1.324-6.676 1.647 6.585 12.704.43 8.318-12.4 5.565-5.55-11.373-10.446-2.896-4.467-12.032-17.345-21.072-8.032-15.5-17.723-17.35 3.584-8.034z" data-name="Colonești" class="comuna" id="21891"/>
    <path d="M612.53 145.06l2.732 13.09-6.283-2.206-7.165 16.296-14.358-14.882-16.96 9.497-4.272-1.157 1.664-14.349-1.766-21.065-12.602-.321-2.995-16.777 6.244-15.332L571 93.033l7.944 5.025 2.601 12.663-1.072 15.92 14.016 14.779 18.043 3.64z" data-name="Secuieni" class="comuna" id="25362"/>
    <path d="M677.983 108.746l5.004 6.362 8.116 5.15-.709 6.625-19.828 20.625-4.37-3.737-26.778-10.3-3.48-7.79-8.843-6.51-12.7-20.018-3.666-15.609 15.428 2.218 16.26 8.393 17.705.101 9.27 11.423 8.591 3.067z" data-name="Plopana" class="comuna" id="24427"/>
    <path d="M630.857 254.07l5.313 9.542-18.474 8.204-6.814.294-.775 22.756-19.407 4.052-4.007-14.057-30.474-6.142 4.165-22.655-4.401-15.16 19.507 3.24 34.606-4.273 7.578-1.73 7.88 15.31 5.303.619z" data-name="Parincea" class="comuna" id="24089"/>
    <path d="M330.68 352.848l4.833 25.12-9.97.016-9.09 14.856-11.596 9.588-10.904 23.714-19.534 4.033-14.363 10.891-12.145-.003-9.553 17.726-11.171-1.046-12.796 3.565-2.28 5.222-16.79 8.548-1.954-10.671-6.979-11.72-.772-19.004 22.703-1.733 31.398-26.366 11.093-25.526 14.434-4.747 13.631-9.846 11.635-20.07 13.532-6.469 5.757-15.392 10.836 8.521 4.539 16.038 5.505 4.755z" data-name="Dofteana" class="comuna" id="22380"/>
    <path d="M547.935 231.749l8.048 9.155 4.401 15.16-4.165 22.655-8.058.691-32.82 4.87-6.134-4.772-.596-20.676 4.426-4.155 6.943-5.26 4.38-23.943 8.534 7.42 15.041-1.145z" data-name="Tamași" class="comuna" id="25692"/>
    <path d="M504.426 241.177l8.611 13.5-4.427 4.155.597 20.675 6.134 4.773-3.089 7.422-2.016-7.236-13.058-2.476-29-.008-13.12 3.582-17.213-1.41-.46-.804-5.567-9.452-10.42-2.327 2.913-11.429 13.302-3.389 11.255-2.938 27.209 2.504 3.999-5.372 11.329-2.33 1.165-8.436 11.856.996z" data-name="Nicolae Bălcescu" class="comuna" id="23715"/>
    <path d="M304.044 316.657l5.755 6.877-5.757 15.392-13.532 6.47-11.635 20.07-13.631 9.845-14.434 4.747-11.093 25.526-31.398 26.366-22.703 1.733.772 19.004-20.927-10.482-11.091-.32-5.593-22.886 10.748-7.798 4.485-25.512 4.507-9.63-11.466-7.767-18.191 7.759-5.5 13.705-12.091 4.457-23.222-2.832-3.684-10.297 7.628-13.611 9.263 2.107 10.886-14.13 15.014-5.014 13.11-9.388 18.394 8.224 15.038-5.258 13.736 4.198 10.26-12.225 11.88 6.984 20.755-7.667 1.35-3.015 21.066-8.49 23.586-18.432 16.108 6.96 1.607 4.33z" data-name="Dărmănești" class="oras" id="22166"/>
    <path d="M466.804 440.961l-9.603 9.926-7.455-4.067-15.546 4.882-5.85-11.367-9.317 2.242-19.315 13.074-7.48-17.188 3.483-24.34 6.654-8.09 22.563-8.341 6.892 15.313 10.667 9.69 20.353 12.734 3.954 5.532z" data-name="Onești" class="municipiu" id="20563"/>
    <path d="M482.652 238.898l-10.036-6.491-12.352-2.841-10.18 3.613-8.424 8.558-4.047 15.016-13.302 3.39 1.037-7.352 2.568-12.096-4.445-13.89 7.635-4.131 4.126-9.67 11.394 1.139 20.976-7.836 12.449 19.876 2.601 12.715z" data-name="Luizi-Călugăra" class="comuna" id="23350"/>
    <path d="M482.652 238.898l9.918 1.283-1.165 8.435-11.329 2.33-4 5.373-27.208-2.504-11.255 2.938 4.047-15.016 8.424-8.558 10.18-3.613 12.352 2.84 10.036 6.492z" data-name="Sărata" class="comuna" id="26320"/>
    <path d="M430.273 154.095l5.458 5.33 6.038 14.146 17.278-3.03 11.186-8.989 5.877 5.29 3.427 10.196-4.59 11.58-9.277-.148 2.892 10.378-11.792-8.475-7.178 2.578-20.713-1.507-3.328 6.855-26.341.062-20.715-6.21-.457-32.866-5.475-9.044 14.291-4.534 4.039-10.615 9.105 5.49 6.65 10.485 23.625 3.028z" data-name="Mărgineni" class="comuna" id="20466"/>
    <path d="M214.834 138.843l5.954 9.873 13.224 7.895 9.18 19.49 9.74 7.302 11.963 24.59-3.571 6.644 8.65 15.7-10.135 10.318-5.87 4.934-11.177-1.074-11.473 9.24-6.92-11.438-8.411-42.235-5.808-9.314.19-9.714-5.826-14.034-8.661-5.036-10.034 1.09-13.266-6.441-3.873-18.92 11.158-1.842 11.623 3.12 23.343-.148z" data-name="Zemeș" class="comuna" id="26289"/>
    <path d="M289.647 255.298l-11.563 6.247-7.273 15.652 1.818 9.377-6.28 15.728-15.436-2.689-6.327-7.577-8.336-2.548-4.683-15.013 5.75-6.605-5.998-14.115 11.473-9.24 11.178 1.074 5.869-4.934 10.674 16.868 19.134-2.225z" data-name="Moinești" class="municipiu" id="20876"/>
    <path d="M602.231 431.438l-9.542 1.146-12.731 13.62-28.724-.953-12.956 1.653-30.41-1.67-9.11-5.418-4.214-15.465 29.067 10.115 11.293-6.604 23.689-2.531 12.5-5.693 6.28-6.512 12.62-4.647 3.997 15.953 8.241 7.006z" data-name="Valea Seacă" class="comuna" id="26083"/>
    <path d="M614.859 447.842l10.096 23.231 1.666 9.172-1.354 8.753-19.988 15.35-1.624 8.97-15.251-11.523-10.702 1.674-10.764-8.648-17.529-7.145-6.04-6.525-13.735-14.31.351-5.187-10.954-9.708-12.259-3.311-7.789-7.675-.224-1.144 9.108 5.419 30.411 1.67 12.956-1.654 28.724.952 12.73-13.62 9.543-1.145 12.628 16.404z" data-name="Sascut" class="comuna" id="25068"/>
    <path d="M660.1 478.81l-8.587-6.782-17.243 12.014-7.649-3.797-1.666-9.172-10.096-23.23 6.478-9.729-2.977-12.733 3.812-15.895 9.234-11.568 4.572 1.586 3.822-1.649 6.728 16.906 2.55 18.114 8.018 9.672-.953 13.187 3.957 23.076z" data-name="Tătărăști" class="comuna" id="25745"/>
    <path d="M554.18 51.009l5.106 8.398-7.008 12.671-10.335 5.463-6.883 8.5-12.771-.471-5.263-10.565-13.833-.852-8.237-17.133 13.185-1.414 6.971-6.54 25.444-7.642 8.444-.426 5.18 10.011z" data-name="Dămienești" class="comuna" id="22111"/>
    <path d="M290.83 173.052l12.416 6.543 10.625 29.737 1.387 10.854-11.415 12.303-28.17-13.879-10.779-10.617-11.962-24.59 13.433-10.963 4.718 4.043 19.746-3.431z" data-name="Solonț" class="comuna" id="25488"/>
    <path d="M348.673 156.544l-2.22 14.217 6.84 5.155-3.52 18.908-9.173 6.25-.137 6.94-5.174 7.024-21.418-5.706-10.625-29.737-12.416-6.543 7.496-5.132 5.82 6.504 11.065-9.863 4.318-19.52 19.481 3.617 9.663 7.886z" data-name="Pârjol" class="comuna" id="24338"/>
    <path d="M498.07 172.518l6.708 15.036-11.036 9.702-1.244 6.353 7.138 12.456 4.79 25.112-11.856-.996-9.918-1.283-2.601-12.715-12.449-19.876.96-7.46-2.892-10.377 9.278.148 4.589-11.58-3.427-10.196 1.357-5.526 2.859-5.134 17.744 16.336z" data-name="Bacău" class="municipiu resedinta" id="20297"/>
    <path d="M514.296 166.154l4.624 21.067 11.611 11.546 2.228 9.174-8.398 17.533-4.381 23.943-6.943 5.26-8.611-13.5-4.79-25.112-7.138-12.456 1.244-6.353 11.036-9.702-6.708-15.036 16.226-6.364z" data-name="Letea Veche" class="comuna" id="20359"/>
  </g>
</svg>
