<svg xmlns="http://www.w3.org/2000/svg" version="1.2" baseProfile="tiny" stroke-linecap="round" stroke-linejoin="round" viewBox="0 0 800 1024">
  <g id="BH" fill="none" stroke="#aaa">
    <path d="M650.118 972.113l-8.017 3.75-12.73-1.205-7.57 9.969-11.504 4.619-3.822 15.021 6.707 3.21-2.5 15.27-29.737.044-12.442-6.24-34.574-30.985 5.877-5.213 3.588-4.947 17.052-1.318 6.264-3.916 27.779-5.981 8.075-8.734 10.835-3.78 11.755 11.145 13.508.14 11.456 9.151z" data-name="Cărpinet" class="comuna" id="28193"/>
    <path d="M610.682 1022.747l2.5-15.27-6.707-3.21 3.822-15.022 11.504-4.618 7.57-9.97 12.73 1.206 8.017-3.75 11.923-14.48 10.697-3.684 18.185 2.02 14.706-8.665 15.967 22.65-2.79 9.706 18.075 9.465-25.68 20.257-16.136 11.537-8.573 1.237-34.948-7.814-32.32 8.024-8.542.381z" data-name="Criștioru de Jos" class="comuna" id="28889"/>
    <path d="M619.642 929.545l6.177 2.122 12.381 14.072 23.84 11.894-11.922 14.48-11.456-9.151-13.508-.14-11.755-11.145-10.835 3.78-8.075 8.734-27.779 5.98-6.264 3.917-17.052 1.318-3.588 4.947-10.827-4.37-8.183-9.267.839-2.987 27.876-23.791 15.242-8.864 16.63 4.926 20.26-.842 17.999-5.613z" data-name="Vașcău" class="oras" id="27007"/>
    <path d="M714.298 911.126l.808 25.847-9.477 10.33-14.706 8.666-18.185-2.02-10.697 3.684-23.84-11.894 5.813-9.642 14.774-5.118 10.353-8.864 11.278-1.911 10.023-10.76 23.856 1.682z" data-name="Nucet" class="oras" id="26920"/>
    <path d="M690.442 909.444l-10.023 10.76-11.278 1.911-10.353 8.864-14.774 5.118-5.814 9.642-12.38-14.072-6.178-2.122-8.673-9.496-2.4-15.996 7.528-18.667 5.138-1.892 11.608-.87 11.343 7.607 3.877 12.765 9-3.384 17.049 9.567 16.33.265z" data-name="Cîmpani" class="comuna" id="28709"/>
    <path d="M616.097 885.386l-7.527 18.667 2.4 15.996 8.672 9.496-18 5.613-20.259.842-16.63-4.926-15.242 8.864-27.876 23.791-3.664-17.12-8.986-8.61 3.115-5.71-1.174-20.22 12.251 1.404 4.397-5.976 17.767-4.341 6.584 3.093 26.571-13.403 12.923 14.153 5.317-18.746 8.345-9.241 11.016 6.374z" data-name="Lunca" class="comuna" id="29948"/>
    <path d="M605.081 879.012l-8.346 9.241L591.42 907l-12.923-14.153 26.585-13.834z" data-name="Ștei" class="oras" id="26840"/>
    <path d="M582.619 841.242l7.909 5.702 7.69 14.069 18.69.285 5.225 6.317-7.682 5.653 6.784 10.226-5.138 1.892-11.016-6.374-26.585 13.834-26.571 13.403-6.584-3.093-17.767 4.341-4.397 5.976-12.25-1.404-5.94-.681-24.929 11.112-8.855-5.558 30.24-18.01-.315-7.06 35.446-10.104 6.601-10.245 7.392 2.626 19.773-6.444 1.903-17.344-7.451-12.781 17.827 3.662z" data-name="Rieni" class="comuna" id="30773"/>
    <path d="M564.792 837.58l7.451 12.78-1.903 17.345-19.773 6.444-7.392-2.626-6.601 10.245-35.446 10.104.316 7.06-30.241 18.01-3.491 2.56.517-10.442 13.265-16.325-3.583-13.072 11.162-12.469 15.114-.18 7.627-11.632 12.131-4.265 13.819-9.656 13.797-15.265 13.23 11.384z" data-name="Lazuri de Beiuș" class="comuna" id="29760"/>
    <path d="M521.48 792.317l13.926 9.834 7.458 17.87 8.697 6.175-13.797 15.265-13.819 9.656-12.13 4.265-7.628 11.632-15.114.18-11.162 12.469 3.583 13.072-13.265 16.325-.517 10.442-5.619-1.98-12.838-13.148-8.785 7.4-10.702-12.107-2.079-11.391 15.098-6.56-.31-6.634 12.624-5.211 16.872-25.741 10.074 4.928 32.105-18.246-1.517-6.5 6.325-13.99-1.94-10.56 4.46-7.445z" data-name="Tărcaia" class="comuna" id="31609"/>
    <path d="M758.817 874.105l-.978 16.633-14.599 1.455-21.702 23.192-7.24-4.259-23.856-1.682-16.33-.265-17.05-9.567-9 3.384-3.876-12.765-11.343-7.606-11.608.87-6.784-10.227 7.682-5.654 9.092 7.752 8.402-7.83 20.449 12.273 20.067-1.55-14.821-11.135-13.724-.475-19.077-10.484-5.469-6.56 8.61-14.046 18.473-9.57 15.404-24.792 18.047-9.577 11.183 1.29 9.956 21.105 12.921 2.12 3.836 5.427.228 26.822 12.72 15.447 12.016-6.149 8.37 16.423z" data-name="Pietroasa" class="comuna" id="30336"/>
    <path d="M669.539 801.197l-15.404 24.791-18.472 9.571-8.61 14.046 5.468 6.56 19.077 10.484 13.724.475 14.82 11.136-20.066 1.549-20.449-12.272-8.402 7.829-9.092-7.751-5.225-6.317-18.69-.285-7.69-14.069-7.91-5.702 3.434-14.208 9.397-12.48 18.835-14.633 23.353-9.841 17.71 13.947 14.192-2.83z" data-name="Buntești" class="comuna" id="27971"/>
    <path d="M590.016 779.723l-19.124.903 4.447 27.391 6.32 1.754 32.625-9.85-18.835 14.633-9.396 12.48-3.434 14.208-17.827-3.662-13.231-11.384-8.697-6.175-7.458-17.87 16.287-19.43 4.046 1.69 21.459-8.988 12.818 4.3z" data-name="Drăgănești" class="comuna" id="29243"/>
    <path d="M505.333 780.46l16.146 11.857-4.458 7.445 1.94 10.56-6.326 13.99 1.517 6.5-32.105 18.246-10.074-4.928-16.872 25.74-12.624 5.212.31 6.633-15.098 6.56-2.012-11.715-5.864-15.127 7.007-20.764 12.13-11.986-2.199-5.58 9.69-10.135 13.546-5.54-1.533-14.462 8.905-19.486 6.08-1.503 20.693-3.196 11.201 11.678z" data-name="Finiș" class="comuna" id="29403"/>
    <path d="M551.693 782.72l-16.287 19.43-13.927-9.833-16.146-11.858 11.917-15.075-6.49-12.298 8.056-2.634 8.406 6.317 19.418-2.553 5.277-5.96-8.497 17.375 8.273 17.09z" data-name="Beiuș" class="municipiu" id="26804"/>
    <path d="M425.395 741.31l12.573 18.394-2.31 7.234 10.819 9.775 1.12 12.643-5.862 14.463 4.705 9.149-9.689 10.135 2.198 5.58-12.129 11.986-10.659-7.692-24.466-.364-2.88-9.459-11.526-3.272-.509-13.396-10.314-12.043-1.716-14.857 6.983-7.792 1.52-17.304 9.892-1.8 19.6-2.95 22.65-8.43z" data-name="Șoimi" class="comuna" id="31422"/>
    <path d="M364.75 779.586l1.716 14.857 10.314 12.043-4.755 2.014-28.41-11.471-11.055 5.932-6.563 10.7-27.127 4.849-14.614-5.242-22.457-13.717 12.535-15.807-.784-9.37-17.558-10.284 12.08-6.695 12.712-5.523 13.008-.818 26.182-6.636 2.766-9.703 4.517 3.282 3.497 16.271 8.255 14.346.17 14.933 14.569 3.893 11.002-7.854z" data-name="Olcea" class="comuna" id="30229"/>
    <path d="M510.76 753.086l6.49 12.298-11.917 15.075-11.201-11.678-20.693 3.196-3.948-6.04 7.156-13.07-2.644-12.836 20.721-7.079 13.412 8.565 2.624 11.569z" data-name="Pocola" class="comuna" id="30416"/>
    <path d="M474.003 740.031l2.644 12.836-7.156 13.07 3.948 6.04-6.08 1.503-8.905 19.486 1.533 14.463-13.547 5.539-4.705-9.149 5.862-14.463-1.12-12.643-10.82-9.775 2.311-7.234-12.573-18.394-1.91-7.612 20.299-8.816-.926-5.218 18.607 7.56 12.538 12.807z" data-name="Uileacu de Beiuș" class="comuna" id="31921"/>
    <path d="M114.753 781.666l-6.108 4.735-27.874-4.55-7.621 25.351 3.51 16.182-12.021-1.294-3.316-23.537-15.712-6.864-.15-14.445-39.646.249 7.971-7.504L1 755.39l2.416-15.043 9.358 6.382 10.894-5.301 11.553 8.605 10.391-9.841 2.689-11.406 10.654-7.023.168-9.644 15.87 3.771-7.765 14.665 20.505 11.496-8.835 20.5 11.084-.434 8.591 6.754 6.833 12.154 9.347.642z" data-name="Avram Iancu" class="comuna" id="27285"/>
    <path d="M617.588 704.478l-1.95 6.86-12.775 10.659-2.826 8.51-36.402 11.259-11.718 6.49-5.277 5.96-19.418 2.553-8.406-6.317-8.056 2.634-2.624-11.57-13.412-8.564 8.205-11.855-4.456-8.941 10.995-6.086 15.08 11.119 16.155 3.304 19.216-4.343 30.256-19.71 3.601-5.166 12.271 4.252 11.541 8.952z" data-name="Remetea" class="comuna" id="30719"/>
    <path d="M146.033 708.157l20.668 23.938 2.73 32.181-11.112 13.213-9.64-5.258-21.208 1.119-12.718 8.316-9.347-.642-6.833-12.154-8.591-6.754-11.084.435 8.835-20.5-20.505-11.497 7.766-14.664-15.87-3.772-2.072-6.503 5.908-7.302 13.88 6.872 8.763-2.435 9.197-11.844 10.31 6.396 17.746-4.052-3.234 20.115 12.38.913 4.308-6.931 9.723.81z" data-name="Ciumeghiu" class="comuna" id="28665"/>
    <path d="M647.506 690.41l8.992 2.738 12.794 21.207-9.048 4.846-7.155 10.787-.624 12.632-21.634-.175-16.209 18.282-15.806-4.523-8.8 23.519-12.818-4.3-21.459 8.989-4.046-1.692-8.273-17.089 8.497-17.375 11.718-6.49 36.402-11.26 2.826-8.51 12.776-10.658 1.949-6.86 10.188-2.264 6.72-9.546 13.01-2.258z" data-name="Curățele" class="comuna" id="28941"/>
    <path d="M352.096 688.655l5.516 2.814 3.575 16.274L369 715.9l.585 10.706 12.835 12.372.725 13.71-9.891 1.8-1.521 17.305-6.983 7.792-11.002 7.854-14.57-3.893-.169-14.933-8.255-14.346-3.497-16.271-4.517-3.282 1.793-9.355-13.181-11.477-1.89-12.894 10.393-1.835.439-8.98 21.137 3.044 10.665-4.563z" data-name="Cociuba Mare" class="comuna" id="28763"/>
    <path d="M437.915 710.888l4.943 8.776.926 5.218-20.298 8.816 1.909 7.611-22.65 8.43-19.6 2.95-.725-13.71-12.835-12.372L369 715.9l-7.813-8.158-3.575-16.274 23.463-4.423 14.186 15.457 25.407 8.68 17.247-.295z" data-name="Căpîlna" class="comuna" id="28139"/>
    <path d="M239.349 707.096l3.915 4.859 19.853-5.592 1.676 10.75-9.809 13.452 8.29 24.077 4.798 2.753-12.08 6.695-12.935 8.744-7.678.233-17.391 9.698-14.966.909-16.096-8.326-23.92 3.05-4.687-.909 11.113-13.213-2.731-32.181-20.668-23.938 3.485-12.836 15.445-8.292 8.216 11.636 14.243 9.679 29.88.77 9.554-4.055 12.493 2.037z" data-name="Batăr" class="comuna" id="27383"/>
    <path d="M463.655 684.742l17.962 13.174 1.75 6.411 15.106 7.829 4.456 8.941-8.205 11.855-20.72 7.079-12.539-12.806-18.607-7.56-4.943-8.777 2.3-11.132 7.402-10.966 16.038-4.048z" data-name="Răbăgani" class="comuna" id="30648"/>
    <path d="M698.288 679.462l42.333 31.484-.115 3.396.832 21.732 9.931 8.099 5.47 12.287 1.493 12.342 13.736 24.195 1.347 12.83 16.201 17.492 9.484-6.317-10.561 17.265 3.234 7.348-1.144 15.156 6.077 5.332-3.304 13.118-11.487 1.51-16.713-7.513-6.285 4.887-8.371-16.423-12.017 6.149-12.72-15.447-.227-26.822-3.836-5.427-12.921-2.12-9.956-21.105-11.183-1.29-18.047 9.577-14.192 2.83-17.71-13.947-23.353 9.841-32.625 9.85-6.32-1.754-4.447-27.39 19.124-.904 8.8-23.52 15.806 4.524 16.21-18.282 21.633.175.624-12.632 7.155-10.787 9.048-4.846-12.794-21.207 5.717-15.37 11.912 9.269 17.974 8.416 6.187-16.001z" data-name="Budureasa" class="comuna" id="27846"/>
    <path d="M639.735 658.71l4.81 11.553-5.005 9.05 7.966 11.097-13.01 2.258-6.72 9.546-10.188 2.264-11.54-8.952-12.272-4.252-3.6 5.167-30.257 19.71-19.216 4.342-16.155-3.304-15.08-11.119-.391-6.544 13.662-4.35 10.905-8.243 8.276-13.84 22.432 17.53 38.51-28.51 36.873-3.403z" data-name="Căbești" class="comuna" id="28077"/>
    <path d="M224.885 652.113l1.702 10.393 9.825 16.72-2.739 22.184 5.676 5.686-12.493-2.037-9.555 4.054-29.88-.769-14.242-9.679-8.216-11.636 6.037-6.023 3.36-21.027 9.444-7.983 11.236 2.811 11.575-3.657 18.27.963z" data-name="Tulca" class="comuna" id="31841"/>
    <path d="M536.192 641.523l-2.626 10.646 8.354 20.923-8.276 13.841-10.905 8.243-13.662 4.35.39 6.544-10.994 6.086-15.106-7.829-1.75-6.41-17.962-13.175.577-4.87 14.946-6.202 38.169-32.397 18.845.25z" data-name="Pomezeu" class="comuna" id="30470"/>
    <path d="M479.178 673.67l-14.947 6.202-.576 4.87-16.038 4.048-7.403 10.966-14.84-19.74 1.586-20.803 23.734-16.397 7.323 7.862-2.073 12.333 15.612-1.056 7.622 11.715z" data-name="Sîmbăta" class="comuna" id="31057"/>
    <path d="M341.934 660.281l11.348 8.072-1.186 20.302-10.665 4.563-21.137-3.043-.44 8.98-10.392 1.834 1.89 12.894 13.18 11.477-1.792 9.355-2.766 9.703-26.182 6.636-13.008.818-12.712 5.523-4.798-2.753-8.29-24.077 9.81-13.452-1.677-10.75-19.853 5.591-3.915-4.858-5.676-5.686 2.739-22.183-9.825-16.72-1.702-10.394 11.788-5.777 10.337-10.278 12.282 10.477 10.613 17.442 31.135-2.758 25.737 5.365 15.157-6.303z" data-name="Tinca" class="comuna" id="31789"/>
    <path d="M394.405 636.508l9.927 9.226 15.147 1.506 7.481 11.973-1.586 20.804 14.84 19.739-2.3 11.132-17.246.294-25.407-8.679-14.186-15.457-23.463 4.423-5.516-2.814 1.186-20.302 13.755-5.762 5.997-6.653 4.598-15.28 16.773-4.15z" data-name="Holod" class="comuna" id="29573"/>
    <path d="M608.434 629.222l14.6 9.307 16.7 20.18-36.873 3.405-38.509 28.51-22.432-17.532-8.354-20.923 2.626-10.646 12.733-11.754 8.488.796 7.66-6.68 17.84-7.878 8.405 1.074 17.116 12.141z" data-name="Roșia" class="comuna" id="30844"/>
    <path d="M183.804 651.996l-9.443 7.983L171 681.006l-6.037 6.023-15.445 8.292-3.485 12.836-9.723-.81-4.307 6.93-12.38-.912 3.233-20.115-17.746 4.052-10.31-6.396-9.197 11.844-8.763 2.435-13.88-6.872-5.908 7.302-7.32-4.664-15.158-17.231 15.207-14.83 7.997-20.206-.482-23.488 11.243-9.141 33.343-9.525 4.93-6.672 20.48 1.045-.664 14.852 6.538 4.288 4.218 23.679 15.977 7.905 7.403-14.535 10.885 3.02 12.155 11.884z" data-name="Salonta" class="municipiu" id="26975"/>
    <path d="M204.528 604.324l15.061-6.313 4.989 6.264 18.584 12.173 3.848 19.61-10.337 10.278-11.788 5.777-18.27-.963-11.575 3.657-11.236-2.811-12.155-11.884-10.885-3.02-7.403 14.535-15.977-7.905-4.218-23.679-6.538-4.288.664-14.852-20.48-1.045.692-13.446 6.205-1.162 24.177-4.304 10.279 9.085 8.646 19.262 13.016 7.27 15.527-19.916 19.174 7.677z" data-name="Mădăras" class="comuna" id="30014"/>
    <path d="M391.916 568.928l-8.53 15.28-.982 14.754 15.483 1.335 2.264 17.688-5.746 18.523-16.773 4.15-4.599 15.28-5.996 6.653-13.755 5.762-11.348-8.072-11.562-7.585-5.276-24.225 1.755-11.821 13.459-12.354 4.448-10.56 16.74-11.93-3.798-10.808 15.13 1.986 4.924-5.038 14.161.982z" data-name="Lăzăreni" class="comuna" id="29813"/>
    <path d="M292.157 574.049l7.094 16.233-6.13 10.943 9.624 8.114 24.106 7.311-1.755 11.82 5.276 24.226 11.562 7.585-15.157 6.303-25.737-5.365-31.135 2.758-10.613-17.442-12.282-10.477-3.848-19.61-18.584-12.173-4.989-6.264 15.823-25.92 17.882 2.168 13.979-11.51 5.633 11.456 8.691 5.042 10.56-5.198z" data-name="Husasău de Tinca" class="comuna" id="29662"/>
    <path d="M545.116 567.715l3.773 7.543 2.42 11.925 15.995 17.387 15.245.19.364 11.247-17.84 7.877-7.66 6.68-8.488-.794-12.733 11.753-18.845-.25-38.169 32.397-7.622-11.715-15.612 1.056 2.073-12.333-7.323-7.862 11.331-18.348-.434-16.019 14.755-5.828 11.31-16.636 4.034-22.584 11.046 7.036 11.933-10.448 8.347 12.559 22.1-4.833z" data-name="Dobrești" class="comuna" id="29154"/>
    <path d="M491.69 563.401l-4.034 22.584-11.31 16.636-14.755 5.828.434 16.02-11.331 18.347-23.734 16.397-7.48-11.972-15.148-1.507-9.927-9.226 5.746-18.523 11.449-9.08-2.869-5.93 25.348-13.556 1.287-13.367 23.364-2.574-.285-10.984 19.614-1.122 13.631 2.03z" data-name="Ceica" class="comuna" id="28335"/>
    <path d="M698.288 679.462l-6.187 16.001-17.974-8.416-11.912-9.27-5.717 15.371-8.992-2.738-7.966-11.096 5.004-9.051 1.981-16.212 13.263-11.323 23.057-4.123 2.458-6.525 13.987-1.211 5.79 6.55 8.612-5.258-1.14-7.847 18.081-10.673 2.035-13.798-12.054-11.79-11.983-1.036.254-11.417 13.847-20.797 6.548 8.818 18.176 5.13 4.41 8.98 13.054 9.414 15.162 1.96-.081 14.318-12.396 13.463-7.384 26.764-9.874 22.948-13.5 8.879-26.545-.447-12.014 4.432z" data-name="Bulz" class="comuna" id="27935"/>
    <path d="M201.481 544.616l-5.678 13.616 5.72 15.409-1.954 14.007 4.959 16.676-19.174-7.677-15.527 19.916-13.016-7.27-8.646-19.262-10.279-9.085-24.177 4.304-7.872-19.335.495-15.035 4.432-4.29 18.446.431 6.98-8.65 6.262 9.988 15.68 5.697 9.059-8.891 23.634 5.744 10.656-6.293z" data-name="Cefa" class="comuna" id="28246"/>
    <path d="M669.51 540.426l6.263 18.079-5.645 17.647-9.94 11.638-8.624 15.813-9.767 9.254-9.269-1.004-24.094 17.369-17.116-12.141-8.405-1.074-.364-11.246 7.67-16.078 9.438-10.392-.381-9.494 16.768-13.954 19.166-6.134 9.12.71 17.747-9.446-1.83-5.376 9.264 5.83z" data-name="Șuncuiuș" class="comuna" id="31510"/>
    <path d="M225.094 528.146l6.419 9.07 3.767 15.067 14.482 9.677 3.532 12.299-17.882-2.168-15.823 25.92-15.061 6.313-4.959-16.676 1.954-14.007-5.72-15.41 5.678-13.615-1.757-7.72 15.48-9.308 9.89.558z" data-name="Gepiu" class="comuna" id="32195"/>
    <path d="M736.477 528.658l-12.266 8.224-1.48 17.921-13.846 20.797-.254 11.417 11.983 1.036 12.054 11.79-2.035 13.798-18.08 10.673 1.14 7.847-8.612 5.258-5.791-6.55-13.987 1.211-2.458 6.524-23.057 4.124-13.263 11.323-1.98 16.212-4.81-11.553-16.7-20.18-14.6-9.308 24.093-17.37 9.269 1.005 9.767-9.254 8.624-15.813 9.94-11.638 5.645-17.647-6.263-18.079 9.536-10.407 17.848 5.742 18.56.421.537-5.674 19.787-9.048.7 7.198z" data-name="Bratca" class="comuna" id="27686"/>
    <path d="M435.366 576.052l-1.287 13.367-25.348 13.556 2.869 5.93-11.45 9.08-2.263-17.688-15.483-1.335.983-14.755 8.529-15.279-7.758-15.05 5.953-16.077 7.154-9.344 16.762 8.866 14.77 12.338 6.57 26.39z" data-name="Drăgești" class="comuna" id="29341"/>
    <path d="M393.699 521.998l3.566 6.46-7.154 9.343-5.953 16.076 7.757 15.051-14.161-.982-4.924 5.038-15.13-1.986 3.797 10.808-16.739 11.93-4.448 10.56-13.46 12.354-24.105-7.311-9.623-8.114 6.129-10.943-7.094-16.233 7.549-7.885 14.382-7.615 2.666 3.113 22.383-5.053-6.545-8.249-2.947-12.464 13.725-6.868 7.331 6.96 14.767-5.586-3.147-7.807 11.151-7.755 20.227 7.158z" data-name="Hidișelu de Sus" class="comuna" id="29519"/>
    <path d="M477.91 503.839l3.574-1.1 17.955 15.493 16.814.416 3.814-8.21 10.532-6.994 12.307 9.319 6.659 10.938 3.24 16.201-7.352 12.781-.337 15.032-22.1 4.833-8.347-12.559-11.933 10.448-11.046-7.036-13.63-2.03-19.615 1.123 7.737-13.6-4.033-7.27-.26-19.706 8.796-17.334 7.224-.745z" data-name="Vârciorog" class="comuna" id="32090"/>
    <path d="M653.33 491.928l-3.804 8.173 5.08 23.627 5.64 10.869 1.831 5.376-17.747 9.447-9.12-.711-19.166 6.134-16.768 13.954.382 9.494-9.439 10.392-7.67 16.078-15.245-.19-15.995-17.388-2.42-11.925 14.907-6.18 9.55-10.797 5.037-15.26 29.65-2.341 6.733-9.872 5.358-30.028 4.257 2.428 19.66-3.272 9.289-8.008z" data-name="Vadu Crișului" class="comuna" id="31976"/>
    <path d="M192.48 484.91l7 .408 13.427 9.902 20.583 8.963-15.156 18.312 6.76 5.651-9.89-.558-15.48 9.307 1.757 7.721-10.656 6.293-23.634-5.744-9.06 8.891-15.68-5.697-6.261-9.989 6.327-10.014 7.456 2.07 5.36-10.777-7.87-3.087 7.523-22.956 4.753-1.134 32.952-3.865-.212-3.697z" data-name="Sănnicolau Romăn" class="comuna" id="32179"/>
    <path d="M362.321 522.595l3.147 7.807-14.767 5.586-7.33-6.96-13.726 6.868 2.947 12.464 6.545 8.25-22.383 5.052-2.666-3.113-12.029-8.54 4.983-8.644-5.343-19.972-6.964-6.288-1.536-24.993 23.915-1.262 19.146-11.162 19.656 23.404-.142 15.556 6.547 5.947z" data-name="Sînmartin" class="comuna" id="26582"/>
    <path d="M451.504 502.203l19.18 2.381-8.795 17.334.26 19.707 4.033 7.268-7.737 13.601.285 10.984-23.364 2.574-6.57-26.391-14.769-12.338-16.762-8.866-3.566-6.46-1.619-22.13 6.073-3.913-5.497-10.95 11.971-8.349 12.33 7.605 11.279 2.256 4.664 10.662 18.604 5.025z" data-name="Copăcel" class="comuna" id="28816"/>
    <path d="M600.73 471.714l8.775 3.288 10.62 25.778-5.359 30.028-6.733 9.872-29.65 2.34-5.036 15.261-5.173-13.463 1.169-16.032 7.163-6.978.317-28.86 2.73-20.354 21.176-.88z" data-name="Măgești" class="comuna" id="30069"/>
    <path d="M551.567 466.258l3.223 4.248 24.763 2.088-2.73 20.353-.317 28.861-7.163 6.978-1.17 16.032 5.174 13.463-9.55 10.797-14.908 6.18-3.773-7.543.337-15.032 7.352-12.78-3.24-16.202-6.659-10.938-12.307-9.319 9.093-21.776.639-16.916 11.236 1.506z" data-name="Aștileu" class="comuna" id="26742"/>
    <path d="M255.355 474.386l-2.003 6.943 20.87 3.456 4.201 6.148 14.776-.82 1.536 24.992 6.964 6.288 5.343 19.972-4.982 8.645 12.028 8.539-14.382 7.615-7.549 7.885-10.56 5.198-8.691-5.042-5.633-11.455-13.979 11.509-3.532-12.3-14.482-9.676-3.767-15.067-6.42-9.07-6.759-5.65 15.156-18.313-20.583-8.963-13.427-9.902-7-.408-2.076-.202 29.038-10.81-1.036-8.05 11.198-2.084 13.62-.386.803 8.824 11.328 2.184z" data-name="Nojorid" class="comuna" id="30149"/>
    <path d="M487.256 452.831l45.316 13.627 7.759-1.706-.64 16.916-9.092 21.776-10.532 6.993-3.814 8.21-16.814-.415-17.955-15.493-3.575 1.1-.505-9.05 10.58-3.203 1.699-17.344-4.979-7.762 2.552-13.649z" data-name="Țețchea" class="comuna" id="31878"/>
    <path d="M736.477 528.658l-.699-7.198-19.787 9.048-.538 5.674-18.559-.421-17.848-5.742-9.536 10.407-9.263-5.83-5.64-10.868-5.08-23.627 3.803-8.173 8.194-13.385-5.228-20.93 13.166-10.305 10.286 10.17 21.665 7.74 10.722-.58 9.58 5.671 11.174-.787 2.372 15.426 9.26 18.566 10.987 3.38-19.03 21.764z" data-name="Borod" class="comuna" id="27560"/>
    <path d="M387.635 446.094l11.624 16.369 5.368 14.192-11.97 8.35 5.496 10.949-6.073 3.913 1.619 22.13-20.226-7.157-11.152 7.755-6.547-5.947.142-15.556-19.656-23.404 7.471-4.034-2.718-14.133 16.27-12.156 1.25-8.357 5.404-3.882 7.234 5.257 12.903-.667 3.56 6.378z" data-name="Oșorhei" class="comuna" id="30274"/>
    <path d="M438.949 427.465l1.183 18.427 5.188 9.209-1.44 13.016 10.78 7.533-3.156 26.553-18.604-5.025-4.664-10.662-11.28-2.256-12.329-7.605-5.368-14.192-11.625-16.369 24.678.464 1.02-6.138 25.617-12.955z" data-name="Săcădat" class="comuna" id="30871"/>
    <path d="M255.396 427.747l13.69 4.755 1.387 13.408-15.118 28.476-11.328-2.185-.803-8.823-13.62.386.886-24.97 4.212-11.907 20.694.86z" data-name="Sîntandrei" class="comuna" id="26653"/>
    <path d="M190.404 484.708l2.075.202.212 3.697-32.952 3.865-4.853-15.972-9.08-1.981-6.874-17.09 19.685-3.675 26.63-43.093 5.18 37.406 9.844 8.37-.363 11.866-9.504 16.405z" data-name="Toboliu" class="comuna" id="32201"/>
    <path d="M223.592 405.106l11.11 21.781-4.212 11.906-.886 24.97-11.198 2.085 1.036 8.05-29.038 10.81 9.504-16.405.363-11.866-9.843-8.37-5.181-37.406 26.77-7.707 11.575 2.152z" data-name="Girișu de Criș" class="comuna" id="29467"/>
    <path d="M551.567 466.258l-11.236-1.506-7.759 1.706-45.316-13.627-11.914-11.826 4.448-12.931 14.084-5.292 12.692 6.666 10.534-1.664 19.611-17.17 10.954-17.837 10.228-2.17-3.14 15.468 3.759 10.88-1.432 22.115-4.922 13.85-.591 13.338z" data-name="Lugașu de Jos" class="comuna" id="29902"/>
    <path d="M440.162 397.67l-13.53 12.2 2.4 9.685 9.917 7.91-25.616 12.955-1.021 6.138-24.678-.464-3.56-6.378-12.903.667-7.234-5.257-5.144-2.657 21.91-28.184 21.105-12.363 20.235 4.284 8.927-5.858 9.192 7.323z" data-name="Ineu" class="comuna" id="29724"/>
    <path d="M460.649 399.478l-.275 9.62 13.893 8.62 5.523 10.356-4.448 12.931 11.914 11.826-2.552 13.65 4.979 7.761-1.699 17.344-10.58 3.204.505 9.049-7.224.745-19.181-2.38 3.156-26.554-10.78-7.533 1.44-13.016-5.188-9.209-1.183-18.427-9.918-7.91-2.4-9.685 13.531-12.2 20.487 1.808z" data-name="Tileagd" class="comuna" id="31716"/>
    <path d="M380.702 404.285l-21.909 28.184 5.144 2.657-5.404 3.882-9.488 2.35-14.98-3.465-9.136 2.481-10.807-19.998-12.86-9.105-1.17-11.039 2.614-4.672 22.273-8.887.61 4.734 23.73 1.048 15.443 3.494 15.94 8.336z" data-name="Paleu" class="comuna" id="32161"/>
    <path d="M300.091 400.232l1.171 11.04 12.86 9.104 10.807 19.998 9.135-2.481 14.98 3.465 9.489-2.35-1.25 8.358-16.27 12.155 2.718 14.133-7.471 4.034-19.146 11.162-23.915 1.262-14.776.82-4.2-6.147-20.871-3.456 2.003-6.943 15.118-28.476-1.387-13.408-13.69-4.755-3.508-16.508 7.077-32.408 12.614.029 28.512 21.372z" data-name="Oradea" class="municipiu resedinta" id="26564"/>
    <path d="M595.86 379.65l-6.035 14.807 9.488 10.855 1.863 11.366 11.093 12.075-7.367 7.209-3.431 11.206-.742 24.546-21.176.88-24.763-2.088-3.223-4.248.591-13.338 4.922-13.85 1.432-22.115-3.76-10.88 3.141-15.468 1.376-10.774 9.499 7.506 11.604-3.707.856-13.437 14.632 9.455z" data-name="Aleșd" class="oras" id="26699"/>
    <path d="M489.817 348.902l24.248.952 10.794 17.584 21.223 6.038 2.704-7.331 10.483 13.688-1.376 10.774-10.228 2.17-10.954 17.836-19.611 17.171-10.534 1.664-12.692-6.666-14.084 5.292-5.523-10.356-13.893-8.62.275-9.62-.206-16.16-8.771-11.112 2.56-11.781-7.743-7.904 5.7 3.61 14.406-8.917 21.698 6.899 1.524-5.21z" data-name="Brusturi" class="comuna" id="27757"/>
    <path d="M263.554 339.647l11.532 6.324-1.33 13.79-7.939-2.398-6.693 8.802-.16 12.666-7.076 32.408 3.508 16.508-20.694-.86-11.11-21.78-.186-14.275 16.464-40.171 12.342-3.255 11.342-7.76z" data-name="Borș" class="comuna" id="27631"/>
    <path d="M386.734 336.003l17.425 40.745 11.451-3.765 6.551 11.958-.118 11.265-20.235-4.284-21.106 12.363-15.94-8.337-15.443-3.493-23.73-1.048-.61-4.734.5-13.48 4.686-12.423 14.003-5.404 1.568-8.164 24.643-3.934 16.355-7.265z" data-name="Cetariu" class="comuna" id="28415"/>
    <path d="M322.87 339.264l10.228 7.275 12.638.663-1.568 8.164-14.003 5.404-4.687 12.424-.499 13.48-22.273 8.886-2.615 4.672-28.512-21.372-12.614-.03.16-12.665 6.692-8.802 7.939 2.398 1.33-13.79-11.532-6.324 1.472-16.455 17.42 3.438 5.126 10.043 20.191-1.064 15.108 3.655z" data-name="Biharia" class="comuna" id="27436"/>
    <path d="M432.129 312.739l2.829 12.015-3.633 8.245 2.813 10.924 12.351 8.598 7.744 7.904-2.561 11.781 8.77 11.112.207 16.16-20.487-1.807-9.192-7.323-8.927 5.858.118-11.265-6.55-11.958-11.452 3.765-17.425-40.745 5.713-15.117 39.682-8.147z" data-name="Sîrbi" class="comuna" id="31128"/>
    <path d="M464.553 319.955l9.695 9.233 13.884 1.702 1.685 18.012-1.524 5.211-21.698-6.9-14.405 8.917-5.7-3.61-12.352-8.597L431.325 333l3.633-8.246-2.83-12.015 11.148.072 6.699-2.126 14.578 9.27z" data-name="Spinuș" class="comuna" id="31208"/>
    <path d="M516.681 306.703l14.2 18.229 7.187 25.84 10.718 15.373-2.704 7.33-21.223-6.037-10.794-17.584-24.248-.952-1.685-18.012-13.884-1.702-9.695-9.233 5.577 1.104 8.641-18.391 29.026.236 8.884 3.799z" data-name="Derna" class="comuna" id="29038"/>
    <path d="M607.122 289.433l13.522 5.097-15.82 16.848 2.802 18.235 6.162 10.165 10.042 3.28 4.147 8.678 1.884 8.476 3.498 5.743-11.168-2.963-24.586 12.972-1.745 3.686-14.632-9.455-.856 13.438-11.604 3.706-9.5-7.506-10.482-13.688-10.718-15.373-7.187-25.84-14.2-18.229 1.335-.201 7.898.111 19.236 15.11 12.12-5.397 16.25-12.94 7.807-23.853 8.596-3.53 17.199 13.43z" data-name="Popești" class="comuna" id="30568"/>
    <path d="M658.544 284.748l5.1 15.331-9.997 14.205-13.182.555-5.991 18.981 2.13 11.186-8.627 6.73-4.147-8.679-10.042-3.28-6.162-10.164-2.802-18.235 15.82-16.848-13.522-5.097-2.251-4.37 14.743-12.759 20.377 15.543 18.553-3.099z" data-name="Suplacu de Barcău" class="comuna" id="31262"/>
    <path d="M380.386 261.012l13.856 11.734 5.877 19.562-22.697 9.666 15.025 18.912-5.713 15.117-16.355 7.265-24.643 3.934-12.638-.663-10.227-7.275 4.507-23.696-3.105-13.655 32.144-9.098 2.615-18.903 12.626-4.274 8.728-8.626z" data-name="Sălard" class="comuna" id="31011"/>
    <path d="M359.032 273.912l-2.615 18.903-32.144 9.098-35.179-8.524-14.553-6.464 1.199-11.44 7.616-6.334-4.811-10.207 6.24-9.886 16.868 8.389 11.144-2.144 13.45 13.961 32.785 4.648z" data-name="Roșiori" class="comuna" id="32187"/>
    <path d="M451.892 268.382l-9.7 17.252 7.01 5.027-5.926 22.15-11.147-.072-39.682 8.147-15.025-18.912 22.697-9.666-5.877-19.562-13.856-11.734 5.582-2.103 11.334-8.37 27.776 16.384 16.43-4.759 10.384 6.218z" data-name="Sâniob" class="comuna" id="28610"/>
    <path d="M530.497 232.983l2.622 22.984-14.411 7.356-7.112 9.216 3.772 10.986 2.648 22.977-1.335.201-8.884-3.799-29.026-.236-8.64 18.39-5.577-1.103-14.58-9.27-6.698 2.126 5.926-22.15-7.01-5.027 9.7-17.252 7.284-1.407 13.074-17.122 21.644-2.383 9.666-13.532 13.527 4.608 13.41-5.563z" data-name="Chișlaz" class="comuna" id="28530"/>
    <path d="M554.97 231.594l-.089 31.288 12.423 10.555 10.444-.727 3.58 6.823-7.809 23.853-16.249 12.94-12.12 5.397-19.236-15.11-7.898-.111-2.648-22.977-3.772-10.986 7.112-9.216 14.411-7.356-2.622-22.984 1.472-3.522 15.253 4.028 7.748-1.895z" data-name="Tăuteu" class="comuna" id="31654"/>
    <path d="M674.025 211.672l6.45-1.422 17.221 20.885-10.447 7.323-11.074 15.589 2.39 4.615-11.036-5.31-6.793 8.967 1.854 9.972-4.046 12.457-18.553 3.1-20.377-15.544-14.743 12.759 7.663-15.031-7.188-7.876-2.83-18.457 19.355-14.315 4.682-9.047 7.843-.474 29.796-10.297 9.833 2.106z" data-name="Balc" class="comuna" id="27329"/>
    <path d="M626.553 220.337l-4.682 9.047-19.355 14.315 2.83 18.457 7.188 7.876-7.663 15.03 2.251 4.371-17.2-13.43-8.595 3.53-3.579-6.823-10.444.727-12.423-10.555.089-31.288 16.543-9.275 11.108-9.635 2.947-8.67 10.256-4.605 9.961.963 21.043 11.755-.275 8.21z" data-name="Abram" class="comuna" id="27070"/>
    <path d="M531.969 229.46l-1.472 3.523-13.41 5.563-13.526-4.608-9.667 13.532-21.644 2.383-8.65-27.316 7.633-7.364-1.26-17.954 11.894-3.892 16.043 12.004 16.836-15.126 8.073 14.877 12.317.38-3.167 23.999z" data-name="Abrămuț" class="comuna" id="27169"/>
    <path d="M350.228 183.803l3.844 30.084 5.922 8.914 8.378 24.854 8.601 9.172 8.995 2.082-5.582 2.103-8.728 8.626-12.626 4.274-32.785-4.648-13.45-13.961-11.144 2.144-16.869-8.39L289 233.595l16.933-23.965 9.552-23.722 13.347-6.42 21.396 4.316z" data-name="Diosig" class="comuna" id="29092"/>
    <path d="M449.738 188.28l6.462-.668 13.772 9.607 1.261 17.954-7.632 7.364 8.65 27.316-13.075 17.122-7.284 1.407-10.384-6.218-16.43 4.76-27.776-16.384-11.334 8.369-8.995-2.082-8.601-9.172-8.378-24.854-5.923-8.914-3.843-30.084 7.1 1.329 9.731-19.92 10.31 3.207 14.445-6.805 17.792 23.322 10.995 7.198 25.112 1.43 4.025-5.284z" data-name="Săcueni" class="oras" id="30915"/>
    <path d="M674.025 211.672l-9.833-2.106-29.796 10.297-3.415-13.24 2.957-19.674-8.086-6.022-1.335-9.727-13.075 1.223-3.572-12.02 7.923-9.35 36.726 8.453 1.968 16.44 9.839-1.354 8.298 7.95-3.026 10.517 7.945 10.656-3.518 7.957z" data-name="Boianu Mare" class="comuna" id="27506"/>
    <path d="M615.793 151.053l-7.923 9.35 3.572 12.02 13.075-1.223 1.335 9.728 8.086 6.021-2.957 19.675 3.415 13.239-7.843.474.275-8.21-21.043-11.755-9.96-.963-11.02-5.068-4.014-12.39-10.001-11.823 7.377-8.3-4.627-14.022 17.77-1.606 4.475 8.119 20.008-3.266z" data-name="Viișoara" class="comuna" id="32045"/>
    <path d="M519.065 153.25l3.245 12.466-8.296 10.456.732 14.033-16.836 15.126-16.043-12.004-11.895 3.892-13.772-9.607-6.462.668 10.132-19.642 12.96-5.53 22.119-7.445 8.085-11.138 16.03 8.725z" data-name="Buduslău" class="comuna" id="27908"/>
    <path d="M552.45 143.71l5.612 5.227 15.478-1.131 4.627 14.023-7.377 8.3 10 11.821 4.015 12.39 11.02 5.069-10.257 4.605-2.947 8.67-11.108 9.635-16.543 9.275-7.748 1.895-15.253-4.028 3.167-23.999-12.317-.38-8.073-14.877-.732-14.033 8.296-10.456-3.245-12.466 15.227-13.708 18.158 4.168z" data-name="Marghita" class="municipiu" id="26877"/>
    <path d="M427.653 128.431l6.087-1.407 5.155 22.523 20.975 19.091-10.132 19.642-4.025 5.284-25.112-1.43-10.995-7.198-17.792-23.322-.003-14.767 4.226-13.562 19.125-8.851 12.491 3.997z" data-name="Cherechiu" class="comuna" id="28497"/>
    <path d="M552.45 143.71l-18.158-4.168-15.227 13.708-16.031-8.725-8.085 11.138-22.12 7.445-1.132-20.414 7.493-16.7 9.321-1.575 11.085-16.795-1.154-5.986 16.296-12.494 3.808-7.495 20.977 6.54 8.08 7.722-1 29.13 5.847 18.669z" data-name="Sălacea" class="comuna" id="30988"/>
    <path d="M498.442 101.638l1.154 5.986-11.085 16.795-9.32 1.575-7.494 16.7 1.132 20.414-12.96 5.53-20.974-19.091-5.154-22.523-6.088 1.407.992-19.622 18.11-4.148 14.314-9.986-4.003-5.767 8.76-13.503 6.834-2.05 12.894 8.597 12.889 19.686z" data-name="Tarcea" class="comuna" id="31565"/>
    <path d="M407.676 34.834l-3.167 5.678 6.26 11.243-1.854 23.136 12.634 16.55-4.03 16.226 11.126 1.142-.992 19.622-12.492-3.997-19.124 8.85-4.226 13.563.003 14.767-14.445 6.805-10.31-3.207 5.211-22.782-14.34-41.121 3.752-21.212 7.075-15.242 12.734-16.19 8.773 9.36 5.872-7.358-9.173-7.833 14.363-12.354 6.35 4.354z" data-name="Șimian" class="comuna" id="31333"/>
    <path d="M454.204 7.825l-1.154 22.232 2.393 32.57 10.384 12.778-8.76 13.503 4.002 5.767-14.314 9.986-18.11 4.148-11.125-1.142 4.03-16.226-12.635-16.55 1.854-23.136-6.26-11.243 3.167-5.678 16.678-17.49 6.36-14.995 23.49 5.476z" data-name="Valea lui Mihai" class="oras" id="32027"/>
    <path d="M518.546 81.65l-3.808 7.494-16.296 12.494-12.888-19.686-12.894-8.596-6.833 2.049-10.384-12.778-2.393-32.57 1.154-22.232L460.017 1 474.9 4.605l3.215 8.971 9.24 3.537 17.08 23.32-3.806 12.51 16.68 4.674 2.322-4.74-1.085 28.772z" data-name="Curtuișeni" class="comuna" id="29001"/>
    <path d="M633.36 365.955l14.639 4.76 8.434 14.207 2.26 18.677 7.336 4.952-5.775 4.468-24.47 5.153-15.367-6.189-8.148 16.77-11.093-12.075-1.863-11.366-9.488-10.855 6.035-14.807 1.745-3.686 24.586-12.972 11.168 2.963z" data-name="Șinteu" class="comuna" id="31379"/>
    <path d="M635.784 418.172l12.846 8.32 4.264 9.969 13.206 5.011 3.362 5.837-13.166 10.303 5.228 20.931-8.194 13.385-9.29 8.008-19.659 3.272-4.257-2.428-10.62-25.777-8.775-3.29.742-24.545 3.43-11.206 7.368-7.209 8.148-16.77 15.367 6.189z" data-name="Aușeu" class="comuna" id="27212"/>
    <path d="M324.273 301.913l3.105 13.655-4.507 23.696-15.108-3.655-20.19 1.064-5.127-10.043-17.42-3.438-.364-11.225-6.288-3.305 3.258-12.749 14.108-20.427-1.2 11.439 14.554 6.464 35.179 8.524z" data-name="Tămășeu" class="comuna" id="32153"/>
  </g>
</svg>
