<svg xmlns="http://www.w3.org/2000/svg" version="1.2" baseProfile="tiny" stroke-linecap="round" stroke-linejoin="round" viewBox="0 0 800 858">
  <g id="BN" fill="none" stroke="#aaa">
    <path d="M257.118 787.327l3.532 16.66 12.98 31.23-7.897 9.367-9.961 4.982-41.54-21.73-2.496-8.848 11.754-22.497 26.792-9.468 6.836.303z" id="34422"/>
    <path d="M341.263 827.264l-11.257 3.99-8.248 20.114-24.271 5.333-15.347-11.415-16.407-.702 7.897-9.367-12.98-31.23-3.531-16.66 16.156-5.412 20.687.258 17.006-15.391.798 16.002 9.158 10.572 19.364 12.329.975 21.58z" id="35312"/>
    <path d="M363.84 783.664l3.556 8.448-9.773 21.545 15.624 7.007-11.583 15.524-20.401-8.923-.975-21.58-19.364-12.329-9.158-10.572-.798-16.002-9.198-17.094 18.21-13.075 30.744-3.715 17.63 10.132-9.688 14.257 5.175 26.377z" id="33881"/>
    <path d="M301.77 749.688l9.198 17.094-17.006 15.391-20.687-.258-16.156 5.412-6.837-.304-8.263-.501-20.025-17.016 14.641-16.332-1.905-19.74 7.25-8.399 21.435-.022 20.05 23.438 18.305 1.237z" id="33845"/>
    <path d="M318.464 675.94l5.59 2.604 10.248 25.236-20.446 6.698 6.124 26.135-18.21 13.075-18.305-1.237-20.05-23.438-21.435.022-19.016-7.49-4.62-7.754 1.523-13.37 35.557-20.598 30.205-.657 15.408 21.296 17.428-20.523z" id="34477"/>
    <path d="M566.15 609.722l-6.768 9.51-1.39 32.383-13.331 20.983 22.192 22.673-30.935 7.543-12.151-6.467-19.886-1.713-11.848-27.07 8.01-18.163 21.244-9.173.027-17.888 28.527-5.988 16.31-6.63z" id="33952"/>
    <path d="M588.073 566.517l-5.449 25.343-10.171 17.71-6.303.152-16.31 6.63-28.526 5.988-.027 17.888-21.244 9.173-8.01 18.162-4.042-7.996-30.576.18-10.52 18.884 1.717-20.646 26.347-10.198 6.143-19.591-4.58-8.607 14.992-26.541 25.209-13.471 22.495-5.91 33.186-14.96 15.669 7.81z" id="34850"/>
    <path d="M190.001 549.794l9.06 15.612-1.918 38.399 12.962 20.972 5.277 34.27-13.168 14.019 11.138 5.913 6.515 17.442-1.524 13.37-11.766 4.696-8.98-19.694-16.386-12.302-3.008-8.98-16.935-6.898 7.007-22.348-8.21-6.753-17.463-1.324-16.556-19.431-1.085-18.957 6.596-8.549 13.139-2.862 14.08 4.166 4.557-14.352-2.21-21.79L190 549.793z" id="33015"/>
    <path d="M572.404 558.708l-33.187 14.959-22.494 5.91-25.209 13.47-14.992 26.542 4.58 8.607-6.143 19.59-26.347 10.199-9.529-7.943-5.685-27.75 14.521-7.22 2.948-14.078-11.863-38.455-1.03-11.362 26.296 1.184 12.844 5.644 15.097-1.133 1.416 12.2 29.291-15.827 13.145-4.05 22.585 8.633 13.756.88z" id="34645"/>
    <path d="M219.078 536.192l19.04 5.248-.065 36.198 4.809 7.577 2.534 25.15-2.019 18.552 13.025 6.918 5.854 20.872-6.832 19.116-35.557 20.598-6.515-17.442-11.138-5.913 13.168-14.019-5.277-34.27-12.962-20.973 1.919-38.398-9.06-15.612-1.966-17.39 13.101-4.739 3.574 10.785 14.367-2.258z" id="33658"/>
    <path d="M333.194 566.537l-15.243 22.625-23.094 5.588-9.664 7.645 4.495 16.343 10.534 2.521 16.033 14.27 3.84 22.11-1.63 18.3-17.428 20.523-15.408-21.296-30.205.657 6.832-19.116-5.854-20.872-13.025-6.918 2.019-18.552-2.534-25.15-4.809-7.577.065-36.198-19.04-5.248 13.719-12.558-2.002-12.992 14.628 6.758 17.469-13.642 14.71 3.315 14.654 19.229-4.497 14.45 8.719 7.197 27.288 7.003 9.428 11.585z" id="33435"/>
    <path d="M646.394 500.852l-21.266 24.37-30.33 29.267-6.725 12.028-15.669-7.81-13.756-.88-22.585-8.632-13.145 4.05-29.29 15.828-1.417-12.201-15.097 1.133-12.844-5.644-26.297-1.184-1.012-3.87 4.482-6.932 16.666-3.44 11.11-17.368 18.319 5.898 27.144-4.832 18.363-12.062 19.252-6.402 36.77-2.788 2.521-15.1 22.029 1.243 13.742 5.642 14.594-1.497 4.44 11.183z" id="179686"/>
    <path d="M462.138 480.03l-16.901 14.34-3.794 46.005-4.482 6.932-14.54 10.157-20.414 4.22-16.606-9.451-19.388-.933-3.438-19.543 7.21-17.69 16.286 3.347 11.714-6.73-4.732-12.286 13.784-6.36 18.455-17.832 27.954.701 8.892 5.122z" id="32704"/>
    <path d="M572.468 474.585l19.12 9.696-2.522 15.1-36.77 2.788-19.251 6.402-18.363 12.062-27.144 4.832-18.32-5.898-11.11 17.367-16.665 3.441 3.794-46.005 16.9-14.34 27.858-9.787 18.728 5.134.063 10.8 20.894-5.766 25.4 6.834 17.388-12.66z" id="32884"/>
    <path d="M200.576 481.484l6.81 9.05 22.077 9.262 1.332 10.846 2.002 12.992-13.72 12.558-14.366 2.258-3.574-10.785-13.101 4.74L190 549.794l-28.879 4.618 2.21 21.791-4.557 14.352-14.08-4.166-13.138 2.862-6.633-12.226 7.599-16.171 1.35-16.263 11.007-16.198-.135-12.87-19.977-37.977 6.813-6.432 4.936-11.206 15.62-1.409 9.246 15.072 18.91-6.737 20.283 14.65z" id="34075"/>
    <path d="M278.665 469.29l-18.551 30.077 2.778 4.39-17.469 13.643-14.628-6.758-1.332-10.846-22.077-9.263-6.81-9.05 8.918-11.635-8-28.794 16.145-9.774 12.135 7.23 10.795-6.476 18.535 5.576-3.025 18.749 5.527 14.222 17.06-1.29z" id="34770"/>
    <path d="M132.65 419.709l4.039 24.36-6.54 13.131 1.432 13.914-6.813 6.432-13.14 9.12-9.89-2.802-3.582-12.974-33.684-16.993 9.372-16.365-4.928-8.803 17.664-9.246 24.171-2.545 4.602 7.219 17.297-4.448z" id="32660"/>
    <path d="M179.373 403.214l14.744 8.531 8.17-3.119 15.352 22.654-16.146 9.774 8 28.795-8.917 11.635-20.283-14.65-18.91 6.737-9.246-15.072-15.62 1.41-4.936 11.205-1.432-13.914 6.54-13.13-4.039-24.361 8.913-14.524 15.222-6.088 13.347-2.49 9.241 6.607z" id="32483"/>
    <path d="M484.61 368.342l-8.493 35.703-.447 12.526 7.978 7.944 17.75-.162 21.607 6.823 6.326 10.244 23.352-7.708 7.577 6.378 1.782 23.883 10.426 10.612-17.388 12.66-25.4-6.834-20.894 5.766-.063-10.8-18.728-5.134-10.888-28.13-11.11.658-21.781 12.239-14.135-12.053.463-20.41-7.842-15.175 9.586-20.968-4.719-8.797 13.672-5.844 11.883 4.962 29.485-8.383z" id="33541"/>
    <path d="M73.23 378.89l13.35 40.593-17.664 9.246-12.827-2.84-8.238 7.343 2.006-13.963-10.453-13.154-4.265-53.444 10.734 1.237 4.191 14.516L73.23 378.89z" id="34173"/>
    <path d="M535.398 345.644l-5.7 13.66-1.693 22.752 8.96 36.835 14.127 11.918 1.59 2.903-23.351 7.708-6.326-10.244-21.607-6.823-17.75.162-7.978-7.944.447-12.526 8.492-35.703 16.363-13.047 34.426-9.651z" id="33382"/>
    <path d="M368.546 347.013l29.108 10.23 8.103 3.65 2.93 17.52-16.119 13.236-3.723 22.377-45.342 25.212-6.868-12.288-22.96.507-6.905-14.64-10.226-15.49 2.744-11.998 20.203-36.112 31.52 13.038 17.535-15.242z" id="33202"/>
    <path d="M156.785 399.097l-15.222 6.088-8.913 14.524-17.297 4.447-4.602-7.218-24.171 2.545-13.35-40.593 16.25-22.834 25.314-16.317 4.481 16.445 8.344 8.502-1.538 12.835 19.443 3.198 11.26 18.378z" id="35269"/>
    <path d="M590.375 337.383l-11.191 13.035-.697 14.217-9.943 23.03-6.453 12.928 2.51 14.294-13.509 15.922-14.128-11.918-8.96-36.835 1.694-22.751 5.7-13.661 20.001-17.106 16.95 11.193 18.026-2.348z" id="34235"/>
    <path d="M35.14 352.671l4.264 53.444 10.453 13.154-2.006 13.963-12.045 1.207-14.826-11.807-9.466-20.776L1 348.67l1.482-20.763 8.097-5.83.866 7.401 23.694 23.193z" id="179953"/>
    <path d="M219.544 392.233l-16.93 6.551-8.497 12.961-14.744-8.53 10.11-35.863 6.224.79-.391-28.216 15.577-22.886 15.458-6.013 16.372 29.48-.08 18.518-10.634 23.338-12.465 9.87z" id="33122"/>
    <path d="M303.371 310.294l9.054 7.161-7.403 12.846 14.469 18.916-20.203 36.112-2.744 11.999 10.226 15.489-33.336 6.524-2.595-6.226-47.178-16.751-4.117-4.131 12.465-9.87 10.634-23.338.08-18.519-16.372-29.479 35.155-17.997 2.346-7.69 12.187 7.651 5.602 21.553 11.543-9.195 10.187 4.945z" id="33989"/>
    <path d="M61.172 297.459l6.217 19.608 8.382 7.497 5.45 19.708 8.258 11.784L73.23 378.89l-23.166-10.466-4.191-14.516-10.733-1.237-23.695-23.193-.866-7.402-3.64-17.105 17.958-19.109 12.25 4.216 7.254-9.493 16.77 16.874z" id="32955"/>
    <path d="M534.48 267.16l14.608 12.42.101 18.666-5.428 17.078 11.638 13.214-20 17.106-34.427 9.651-3.442-4.591.51-29.57-8.436-12.417-4.9-22.891.06-25.114 13.761 18.021 26.434-3.7 9.52-7.874z" id="33364"/>
    <path d="M189.483 367.352l-10.11 35.863-9.24-6.607-13.348 2.489-11.26-18.378-19.445-3.198 1.539-12.835-8.344-8.502-4.48-16.445-12.973-27.207-2.71-18.877 9.345-24.337 14.977-10.926-2.394 16.394 5.615 41.758 29.564 21.682 33.264 29.126z" id="32811"/>
    <path d="M635.868 272.774l11.466 8.142 14.337-1.048 26.04 18.793 18.384 2.029-4.664 13.786L653 323.322l-7.08-8.592-17.326-.004-20.383 5.296-11.164 18.953-6.672-1.592-18.026 2.348-16.95-11.193-11.638-13.214 5.428-17.078-.101-18.665 27.508-3.64 16.51-18.613 33.105 17.312 9.657-1.866z" id="33514"/>
    <path d="M368.546 347.013l-17.534 15.242-31.521-13.038-14.47-18.916 7.404-12.846-9.054-7.161 12.483-25.75 15.392-10.228 1.07-7.766 16.556-14.855 4.95 27.191-7.68 29.737 22.404 38.39z" id="32544"/>
    <path d="M192.028 271.714l7.787 36.089 11.078 9.237-15.577 22.886.39 28.216-6.223-.79-33.264-29.126-29.564-21.682-5.615-41.758 2.394-16.394 2.09-22.042 15.308-4.724 15.87 10.388-.85 18.806 6.897 12.87 29.28-1.976z" id="34547"/>
    <path d="M448.355 230.497l13.293 18.656 13.387-.463 9.729 12.022-.06 25.114 4.9 22.891 8.436 12.418-.51 29.569 3.442 4.591-16.363 13.047-29.485 8.383-11.883-4.962-13.672 5.844-20.882.806-2.93-17.52-8.103-3.65 8.653-27.891-12.903-4.464-.393-14.897 12.134-8.099 11.24-17.55 20.087-.873 4.72-26.262-2.9-22.138 10.063-4.572z" id="33248"/>
    <path d="M574.118 233.351l18.989 23.977-16.51 18.613-27.51 3.64-14.607-12.422 13.999-20.488-1.952-16.832 21.49-2.17 6.101 5.682z" id="179720"/>
    <path d="M438.291 235.07l2.902 22.137-4.721 26.262-20.087.873-11.24 17.55-12.134 8.099-12.515-11.503-2.376-26.882 3.488-47.505 5.316-10.971 7.155 13.55 20.176 2.007 5.853 16.468 18.183-10.086z" id="34262"/>
    <path d="M105.142 212.575l5.752 17.38 14.63 6.395-2.09 22.042-14.977 10.926-9.344 24.337 2.71 18.877 12.971 27.207-25.315 16.317-8.258-11.784-5.45-19.708-8.382-7.497-6.217-19.608 14.053-17.045-6.323-22.707 3.549-17.332 10.374-11.951 14.721-3.398 7.596-12.451z" id="179659"/>
    <path d="M286.41 205.112l14.635 15.559 6.37 14.796-7.672 7.335-10.788 32.017-12.036 11.367-6.942-7.925-5.256-6.459-9.342-41.686 11.479-15.828 19.552-9.176z" id="179944"/>
    <path d="M692.614 205.355l-13.064 25.51 21.682 35.099 7.937-.404 5.727 30.631 8.34 10.995-17.14-6.496-18.385-2.029-26.04-18.793-14.337 1.048-11.466-8.142 2.555-18.752-21.74-33.773 21.938-15.461 14.119 1.837 9.975-5.536 11.67 6.508 18.229-2.242z" id="33337"/>
    <path d="M359.447 206.77l-2.545 21.337-8.03 23.588-16.556 14.855-6.22-8.983-18.8-1.286-7.553-13.479 7.671-7.335-6.368-14.796 15.701-16.347 34.085 9.317 8.615-6.871z" id="33177"/>
    <path d="M723.157 182.568L759 215.002l10.063 13.975 8.152-1.7-.293 30.35 7.498 7.227 3.718 26.48-21.042 11.217-13.271 17.03-23.082-3.896-7.506-8.499-8.34-10.995-5.727-30.631-7.937.404-21.682-35.098 13.064-25.511 8.862-15.654 14.73 4.002 6.951-11.135z" id="33603"/>
    <path d="M486.487 119.19l4.963 32.336 9.2 16.807-32.297 21.479 1.268 12.564-21.266 28.121-10.064 4.572-18.183 10.086-5.853-16.468-20.176-2.007-7.155-13.55 9.188-13.755-.526-12.621 57.133-32.666 5.47 11.741 17.307-12.403-6.62-29.87 17.61-4.367z" id="34155"/>
    <path d="M219.104 105.353l-2.272 11.21-17.5 33.894 13.576 5.186 1.163 28.951 6.38 14.788-15.336 16.895 6.3 15.756-9.657 30-9.73 9.681-29.279 1.976-6.897-12.87.85-18.806-15.87-10.388-15.309 4.724-14.63-6.395-5.75-17.38 10.637-27.104 11.503-3.785 11.414-16.043 6.804-27.865-6.783-13.943 3.535-13.502 11.994 5.714 8.42-15.184 19.247-4.114 37.19 8.604z" id="35152"/>
    <path d="M546.527 229.84l1.952 16.831-14 20.488-9.52 7.875-26.434 3.7-13.761-18.022-9.73-12.022-13.386.463-13.293-18.656 21.266-28.121-1.268-12.564 32.298-21.479-9.2-16.807-4.964-32.337.868-15.728 15.034-35.566 16.372 5.267 6.969 18.008-15.391 7.935 9.881 21.935 13.116-19.425 15.207 14.037.379 35.884-11.128 24.493-.285 27.952 9.018 25.858z" id="32599"/>
    <path d="M286.41 205.112l-19.552 9.176-11.479 15.828 9.342 41.686 5.256 6.458-6.125 7.08-2.346 7.69-35.154 17.997-15.46 6.013-11.077-9.238-7.787-36.088 9.73-9.681 9.657-30-6.3-15.756 15.335-16.895-6.38-14.788-1.162-28.95-13.576-5.187 17.5-33.894 2.272-11.21 11.676-20.649 9.233 2.305 9.15-27.712 21.808 20.026-.164 33.234-16.58 8.561-7.992 17.766 2.938 23.871 8.044 23.087 21.924 8.864 7.27 10.406z" id="35429"/>
    <path d="M504.896 52.443l-2.507 15.453-15.034 35.565-.868 15.728-17.61 4.368 6.619 29.869-17.307 12.403-5.47-11.742-57.133 32.667.526 12.621-9.188 13.755-5.316 10.971-3.488 47.505 2.376 26.882 12.515 11.503.393 14.897 12.903 4.464-8.653 27.89-29.108-10.229-22.403-38.39 7.679-29.737-4.95-27.191 8.03-23.588 2.545-21.338-1.012-5.055 23.37-30.597 2.419-8.115 24.201-10.753-1.033-13.191 17.292 2.262 15.336-5.073 15.753-14.292 4.352-10.628-17.784-11.584 16.456-41.054 15.063-7.324-4.08-14.326 16.513-6.457 13.633 8.34 4.97 13.52z" id="34280"/>
    <path d="M291.004 39.728l6.482 17.425L321.7 74.591l-.332 19.585 22.776-.294 14.407-6.003 15.783 3.94 16.363-14.016-9.478-8.883 23.627-16.629 19.069 6.51 21.668-14.938 6.67-8.1 17.528 1.276 4.08 14.326-15.064 7.324-16.456 41.054 17.784 11.584-4.352 10.628-15.753 14.292-15.336 5.073-17.292-2.262 1.033 13.191-24.201 10.753-2.42 8.115-23.369 30.597 1.012 5.055-8.615 6.872-34.085-9.317-15.702 16.347-14.635-15.56-7.269-10.405-21.924-8.864-8.044-23.087-2.938-23.87 7.992-17.767 16.58-8.56.164-33.235-21.808-20.026 14.26-12.675 3.313-20.63 13.005 12.171 11.263 1.565z" id="35054"/>
    <path d="M723.157 182.568l-6.95 11.135-14.73-4.002-8.863 15.654-18.23 2.242-11.67-6.508-9.975 5.536-1.379-39.395-12.174-7.865 9.212-16.974 12.82-38.294.064-14.628-12.132-11.343-1.746-25.443 12.723-20.941-5.458-22.94 10.675-4.667 18.196 5.128 24.953.818 19.664 11.249 11.867 16.795 29.831 8.351 6.125 23.441L799 90.94l-.83 11.85-28.164 23.148 2.701 14.006 14.82 28.218-17.303 7.43-25.537-2.398-10.276 13.186-11.254-3.811z" id="34618"/>
    <path d="M445.583 43.863L423.915 58.8l-19.07-6.51L381.22 68.92l9.478 8.883-16.363 14.016-15.783-3.94-14.407 6.003-22.776.294.332-19.585-24.214-17.438-6.482-17.425 13.95-11.96 4.086-12.08L324.165 1l31.5 14.02 15.04-1.394 29.73 11.013 35.313 10.113 9.835 9.11z" id="34360"/>
    <path d="M779.284 436.164l-5.23 19.396 3.862 13.733-19.948 10.265-10.347 13.875-13.69 1.544-23.504-8.038-10.101 1.293-11.56 21.309-23.004-12.34-19.368 3.65-4.441-11.182-14.594 1.497-13.742-5.642-22.029-1.243-19.12-9.696-10.426-10.612-1.782-23.883-7.577-6.378-1.59-2.903 13.508-15.922-2.51-14.294 6.453-12.928 23.173-4.4 17.68 13.171 15.352 5.351 26.943 25.968 12.587-9.409 25.245 8.915 21.867 1.482 2.064 7.735 20.209-7.968 27.24-4.276 18.38 11.93z" id="32633"/>
    <path d="M723.236 307.186l7.506 8.5 23.082 3.895 15.806 16.384 19.191 11.549-3.202 12.431-20.761 30.027 10.081 16.913 4.345 29.279-18.38-11.93-27.24 4.276-20.209 7.968-2.064-7.735-21.866-1.482-25.246-8.915-12.587 9.41-26.943-25.969-15.353-5.35-17.679-13.173-23.173 4.401 9.943-23.03.697-14.217 11.19-13.035 6.673 1.592 11.164-18.953 20.383-5.296 17.325.004 7.081 8.592 48.43-8.846 4.665-13.786 17.141 6.496z" id="35090"/>
    <path d="M299.743 242.802l7.553 13.479 18.8 1.286 6.22 8.983-1.07 7.765-15.392 10.23-12.483 25.749-10.187-4.945-11.543 9.195-5.602-21.553-12.187-7.652 6.125-7.079 6.942 7.926 12.036-11.367 10.788-32.017z" id="34397"/>
    <path d="M241.98 725.035l-7.25 8.398 1.905 19.74-14.641 16.333 20.025 17.016 8.263.5-26.792 9.47-11.754 22.496 2.496 8.847-28.866-25.593-13.739-7.352 13.384-12.437-5.783-9.665 14.595-7.802-6.172-15.474 18.926-35.025 11.766-4.696 4.621 7.754 19.016 7.49z" id="32768"/>
    <path d="M433.398 622.293l5.685 27.749 9.53 7.942-1.717 20.647-12.875 20.38-18.567-1.498 4.972 15.183-11.06 38.84-9.926 2.143-35.6 29.985-5.174-26.377 9.688-14.257-17.63-10.132-30.744 3.715-6.124-26.135 20.446-6.698-10.248-25.236 15.51-15.967 12.62-5.231 33.303-24.885 8.857 14.19 29.738-11.231 9.316-13.127z" id="34985"/>
    <path d="M219.544 392.233l4.117 4.13 47.178 16.752 2.595 6.226 33.336-6.524 6.904 14.64 22.961-.507 6.868 12.288-6.047 1.146-4.41 21.276-15.812 14.926-24.156 4.55-14.413-11.846-17.06 1.29-5.526-14.221 3.024-18.749-18.534-5.576-10.795 6.476-12.135-7.23-15.352-22.654-8.17 3.119 8.497-12.961 16.93-6.551z" id="34903"/>
    <path d="M317.234 476.586l22.478 27.957-6.561 7.67 13.208 13.716-.701 19.56 12.063 8.087-8.014 8.596-16.513 4.365-9.428-11.585-27.288-7.003-8.72-7.196 4.498-14.451-14.655-19.229-14.71-3.315-2.777-4.39 18.551-30.078 14.413 11.846 24.156-4.55z" id="34690"/>
    <path d="M349.707 562.173l.993 34.477 18.662 8.067 20.327.16-4.202 27.584-33.303 24.885-12.62 5.23-15.51 15.968-5.59-2.605 1.63-18.3-3.839-22.11-16.033-14.27-10.534-2.521-4.495-16.343 9.664-7.645 23.094-5.588 15.243-22.625 16.513-4.365z" id="33275"/>
    <path d="M436.961 547.307l1.012 3.87 1.03 11.362 11.864 38.455-2.948 14.077-14.521 7.222-9.316 13.126-29.738 11.232-8.857-14.19 4.202-27.585-20.327-.159-18.662-8.067-.993-34.477 8.014-8.597 8.292-2.276 19.388.933 16.606 9.451 20.415-4.22 14.539-10.157z" id="33765"/>
    <path d="M429.57 377.607l4.718 8.797-9.586 20.968 7.842 15.175-.463 20.41 14.135 12.053 21.781-12.24 11.11-.657 10.888 28.13-27.857 9.786-8.892-5.122-27.954-.7-18.455 17.832-13.784 6.36 4.733 12.286-11.715 6.729-16.286-3.347-7.21 17.69 3.438 19.543-8.292 2.276-12.063-8.086.7-19.562-13.207-13.714 6.56-7.671-22.477-27.957 15.812-14.926 4.41-21.276 6.047-1.146 45.342-25.212 3.723-22.377 16.119-13.236 20.882-.806z" id="32394"/>
    <path d="M601.44 214.257l15.244 5.992 21.739 33.773-2.555 18.752-9.657 1.866-33.104-17.312-18.989-23.977-1.33-8.45 28.651-10.644z" id="33729"/>
    <path d="M604.64 40.132l7.174 13.254-12.43 13.44-5.625 21.68 4.163 7.427-7.679 29.622 7.947 13.683-4.418 17.651-11.789 26.46 10.837 25.226 8.62 5.682-28.652 10.644 1.33 8.45-6.102-5.681-21.49 2.17-9.017-25.86.285-27.951 11.128-24.493-.379-35.884-15.207-14.037-13.116 19.425-9.881-21.935 15.391-7.935-6.969-18.008-16.372-5.267 2.507-15.452 21.388-4.46 16.296-13.897 37.704.615 11.298-4.287 13.058 9.718z" id="33621"/>
    <path d="M652.74 206.625l-14.119-1.837-21.937 15.461-15.245-5.992-8.619-5.682-10.837-25.225 11.79-26.46 4.417-17.652-7.947-13.683 7.679-29.622-4.163-7.426 5.625-21.681 12.43-13.44-7.174-13.255 10.524-27.745 22.348 2.105 17.157-5.688 5.458 22.939-12.723 20.941 1.746 25.443 12.132 11.343-.063 14.628-12.82 38.294-9.213 16.974 12.174 7.865 1.38 39.395z" id="34333"/>
  </g>
</svg>
