<svg xmlns="http://www.w3.org/2000/svg" version="1.2" baseProfile="tiny" stroke-linecap="round" stroke-linejoin="round" viewBox="0 0 800 862">
  <g id="BN" fill="none" stroke="#aaa">
    <path d="M257.118 791.247l3.532 16.66 12.98 31.23-7.897 9.367-16.285.058-35.216-16.806-2.496-8.848 11.754-22.496 26.792-9.469 6.836.304z" data-name="Silivașu de Cîmpie" class="comuna" id="34422"/>
    <path d="M341.263 831.185l-11.257 3.989-5.815 21.47-26.704 3.977-15.347-11.415-16.407-.702 7.897-9.367-12.98-31.23-3.531-16.66 16.156-5.411 20.687.257 17.006-15.39.798 16 9.158 10.574 19.364 12.328.975 21.58z" data-name="Urmeniș" class="comuna" id="35312"/>
    <path d="M363.84 787.584l3.556 8.449-9.773 21.544 15.608 7.182-13.932 17.051-18.036-10.625-.975-21.58-19.364-12.328-9.158-10.573-.798-16.002-9.198-17.093 18.21-13.075 6.797-3.516 23.947-.2 17.63 10.132-9.688 14.257 5.175 26.377z" data-name="Milaș" class="comuna" id="33881"/>
    <path d="M301.77 753.609l9.198 17.093-17.006 15.391-20.687-.257-16.156 5.41-6.837-.303-8.263-.5-20.025-17.016 14.641-16.333-1.905-19.74 7.25-8.398 21.435-.023 20.05 23.438 18.305 1.238z" data-name="Miceștii de Cîmpie" class="comuna" id="33845"/>
    <path d="M318.464 679.86l5.59 2.605 10.248 25.235-20.446 6.698 6.124 26.136-18.21 13.075-18.305-1.238-20.05-23.438-21.435.023-19.016-7.491-4.62-7.753 1.523-13.371 35.557-20.597 30.205-.658 15.408 21.296 17.428-20.522z" data-name="Sînmihaiu de Cîmpie" class="comuna" id="34477"/>
    <path d="M566.15 613.642l-6.768 9.511-1.39 32.382-13.331 20.983 14.217 11.6 7.975 11.073-20.083 5.956-15.011-.967-27.878-5.625-11.848-27.071 8.01-18.162 21.244-9.174.027-17.888 28.527-5.988 16.31-6.63z" data-name="Monor" class="comuna" id="33952"/>
    <path d="M588.073 570.437l-5.449 25.344-10.171 17.71-6.303.151-16.31 6.63-28.526 5.988-.027 17.888-21.244 9.174-8.01 18.162-4.042-7.997-30.576.18-10.52 18.885 1.717-20.647 19.162-10.683 7.185.485 6.143-19.591-4.58-8.607 14.992-26.54 25.209-13.472 22.495-5.91 33.186-14.96 15.669 7.81z" data-name="Șieuț" class="comuna" id="34850"/>
    <path d="M190.001 553.714l9.06 15.612-1.918 38.399 12.962 20.972 5.277 34.27-13.168 14.02 11.138 5.912 6.515 17.442-1.524 13.37-11.766 4.697-8.98-19.695-29.076-23.12-7.253-5.06 7.007-22.348-8.21-6.753-17.463-1.324-12.834 5.262 3.53-11.415-7.252-13.278-1.085-18.957 6.596-8.548 13.139-2.863 14.08 4.167 4.557-14.353-2.21-21.79L190 553.713z" data-name="Chiochiș" class="comuna" id="33015"/>
    <path d="M572.404 562.628l-33.187 14.96-22.494 5.909-25.209 13.471-14.992 26.541 4.58 8.607-6.143 19.59-7.185-.484-19.162 10.683-9.529-7.943-15.752.91 14.988-18.385-4.921-10.274 14.521-7.222 2.948-14.077-11.863-38.455-1.03-11.362 26.296 1.185 12.844 5.644 15.097-1.134 1.416 12.201 29.291-15.828 13.145-4.05 22.585 8.633 13.756.88z" data-name="Șieu" class="comuna" id="34645"/>
    <path d="M219.078 540.112l19.04 5.248-.065 36.199 4.809 7.577 2.534 25.149-2.019 18.553 13.025 6.917-1.711 9.543 7.565 11.329-6.832 19.117-35.557 20.597-6.515-17.442-11.138-5.913 13.168-14.018-5.277-34.27-12.962-20.973 1.919-38.399-9.06-15.612-1.966-17.39 13.101-4.738 3.574 10.784 14.367-2.258z" data-name="Matei" class="comuna" id="33658"/>
    <path d="M333.194 570.457l-15.243 22.626-11.07 6.605-12.024-1.017-9.664 7.644 4.495 16.343 10.534 2.521 16.033 14.27 3.84 22.11-1.63 18.3-17.428 20.523-15.408-21.296-30.205.658 6.832-19.117-7.565-11.328 1.711-9.544-13.025-6.917 2.019-18.553-2.534-25.15-4.809-7.576.065-36.199-19.04-5.248 13.719-12.558-2.002-12.992 14.628 6.758 17.469-13.642 14.71 3.316 14.654 19.228-4.497 14.45 8.719 7.197 27.288 7.003 9.428 11.586z" data-name="Lechința" class="comuna" id="33435"/>
    <path d="M646.394 504.772l-21.266 24.37-30.33 29.268-6.725 12.027-15.669-7.81-13.756-.88-22.585-8.632-13.145 4.05-29.29 15.828-1.417-12.2-15.097 1.133-12.844-5.644-26.297-1.185-1.012-3.87 4.482-6.931 16.666-3.441 11.11-17.368 18.319 5.898 19.178-6.87 7.966 2.039 18.363-12.063 19.252-6.402 20.846.782 15.923-3.57 2.522-15.1 22.029 1.243 13.742 5.643 14.594-1.498 4.44 11.183z" data-name="Dumitrița" class="comuna" id="179686"/>
    <path d="M462.138 483.95l-16.901 14.34-3.794 46.006-4.482 6.93-14.54 10.158-20.414 4.22-16.606-9.45-19.388-.933-3.438-19.543 7.21-17.69 16.286 3.346 11.714-6.73-4.732-12.286 13.784-6.359 18.455-17.833 27.954.701 8.892 5.123z" data-name="Budacu de Jos" class="comuna" id="32704"/>
    <path d="M572.468 478.505l19.12 9.696-2.522 15.1-15.923 3.57-20.846-.782-19.252 6.402-18.363 12.063-7.966-2.038-19.178 6.87-18.32-5.9-11.11 17.369-16.665 3.44 3.794-46.005 16.9-14.34 27.858-9.787 18.728 5.134.063 10.8 20.894-5.765 25.4 6.834 17.388-12.66z" data-name="Cetate" class="comuna" id="32884"/>
    <path d="M200.576 485.404l6.81 9.05 22.077 9.262 1.332 10.846 2.002 12.992-13.72 12.558-14.366 2.258-3.574-10.784-13.101 4.739 1.965 17.39-28.879 4.617 2.21 21.791-4.557 14.353-14.08-4.167-13.138 2.863-6.633-12.226 12.465-40.078 7.491-8.555-.135-12.87-9.636-10.97.075-9.111-10.416-17.896 6.813-6.431 4.936-11.206 15.62-1.41 9.246 15.072 18.91-6.736 20.283 14.649z" data-name="Nușeni" class="comuna" id="34075"/>
    <path d="M278.665 473.21l-1.92 7.788-16.631 22.29 2.778 4.39-17.469 13.642-14.628-6.758-1.332-10.846-22.077-9.262-6.81-9.05 8.918-11.635-8-28.795 16.145-9.774 12.135 7.23 10.795-6.476 18.535 5.577-3.025 18.748 5.527 14.222 17.06-1.29z" data-name="Șieu-Odorhei" class="comuna" id="34770"/>
    <path d="M132.65 423.629l4.039 24.36-6.54 13.131 1.432 13.915-6.813 6.431-13.14 9.12-9.89-2.802-3.582-12.974-16.429-1.558-9.514-10.901 1.631-20.899-4.928-8.803 17.664-9.246 24.171-2.545 4.602 7.219 17.297-4.448z" data-name="Braniștea" class="comuna" id="32660"/>
    <path d="M179.373 407.135l14.744 8.53 8.17-3.119 15.352 22.654-16.146 9.774 8 28.795-8.917 11.635-20.283-14.65-18.91 6.737-9.246-15.072-15.62 1.41-4.936 11.206-1.432-13.915 6.54-13.13-4.039-24.361 8.913-14.524 15.222-6.088 13.347-2.489 9.241 6.607z" data-name="Beclean" class="oras" id="32483"/>
    <path d="M484.61 372.262l-8.493 35.703-.447 12.526 7.978 7.945 17.75-.163 21.607 6.823 6.326 10.245 23.352-7.709 7.577 6.378 1.782 23.883 10.426 10.612-17.388 12.66-25.4-6.833-20.894 5.765-.063-10.8-18.728-5.134 7.655-9.529-12.164-5.917-6.38-12.683-11.109.657-21.781 12.24-14.135-12.054.463-20.41-7.842-15.175 9.586-20.968-4.719-8.797 13.672-5.844 11.883 4.962 12.9-6.465 16.585-1.918z" data-name="Livezile" class="comuna" id="33541"/>
    <path d="M73.23 382.81l13.35 40.593-17.664 9.246-12.827-2.84-8.238 7.343 2.006-13.963-10.453-13.154-4.265-53.444 10.734 1.237 4.191 14.516L73.23 382.81z" data-name="Petru Rareș" class="comuna" id="34173"/>
    <path d="M535.398 349.564l-5.7 13.661-1.693 22.75 5.837 11.292-2.084 11.396 5.206 14.148 14.128 11.918 1.59 2.904-23.351 7.708-6.326-10.245-21.607-6.823-17.75.163-7.978-7.945.447-12.526 8.492-35.703 16.363-13.047 34.426-9.651z" data-name="Josenii Bîrgăului" class="comuna" id="33382"/>
    <path d="M368.546 350.933l29.108 10.23 8.103 3.65 2.93 17.52-16.119 13.236-3.723 22.377-45.342 25.212-6.868-12.287-22.96.506-6.905-14.64-10.226-15.49 2.744-11.998 20.203-36.112 17.005-.536-.744 9.24 15.26 4.334 17.534-15.242z" data-name="Dumitra" class="comuna" id="33202"/>
    <path d="M156.785 403.017l-15.222 6.088-8.913 14.524-17.297 4.448-4.602-7.219-24.171 2.545-13.35-40.593 16.25-22.834 25.314-16.317 4.481 16.445 8.344 8.502-1.538 12.835 19.443 3.198 11.26 18.378z" data-name="Uriu" class="comuna" id="35269"/>
    <path d="M590.375 341.303l-11.191 13.035-.697 14.218-9.748 13.384-.195 9.645-6.453 12.928 2.51 14.294-13.509 15.922-14.128-11.918-5.206-14.148 2.084-11.396-5.837-11.291 1.693-22.751 5.7-13.661 20.001-17.106 16.95 11.193 18.026-2.348z" data-name="Prundu Bîrgăului" class="comuna" id="34235"/>
    <path d="M35.14 356.591l4.264 53.444 10.453 13.154-2.006 13.963-21.674 5.836-14.663-37.212.591-12.078-4.635-9.2L1 352.59l1.482-20.764 8.097-5.83.866 7.401 23.694 23.193z" data-name="Ciceu - Mihăiești" class="comuna" id="179953"/>
    <path d="M219.544 396.153l-16.93 6.551-8.497 12.961-14.744-8.53 6.407-14.311-2.178-16.872 5.881-4.68 6.224.79-.391-28.216 15.577-22.886 15.458-6.012 16.372 29.478-.08 18.52-10.634 23.337-12.465 9.87z" data-name="Chiuza" class="comuna" id="33122"/>
    <path d="M303.371 314.214l9.054 7.162-7.403 12.845 14.469 18.916-20.203 36.112-2.744 11.999 10.226 15.489-33.336 6.524-2.595-6.226-47.178-16.751-4.117-4.131 12.465-9.87 10.634-23.338.08-18.519-16.372-29.478 35.155-17.997 2.346-7.691 12.187 7.651 5.602 21.553 11.543-9.194 10.187 4.944z" data-name="Nimigea" class="comuna" id="33989"/>
    <path d="M61.172 301.38l6.217 19.607 8.382 7.497 5.45 19.709 8.258 11.783L73.23 382.81l-23.166-10.466-4.191-14.516-10.733-1.237-23.695-23.193-.866-7.402-3.64-17.105 17.958-19.108 12.25 4.215 7.254-9.493 16.77 16.874z" data-name="Ciceu-Giurgești" class="comuna" id="32955"/>
    <path d="M534.48 271.08l14.608 12.421.101 18.665-5.428 17.078 11.638 13.214-20 17.106-34.427 9.651-3.442-4.591.51-29.57-8.436-12.417-4.9-22.89 3.501-8.042-3.441-17.072 13.761 18.02 26.434-3.7 9.52-7.873z" data-name="Ilva Mica" class="comuna" id="33364"/>
    <path d="M189.483 371.272l-5.881 4.68 2.178 16.872-6.407 14.31-9.24-6.606-13.348 2.49-11.26-18.38-19.445-3.197 1.539-12.835-8.344-8.502-4.48-16.445-12.973-27.207-2.71-18.877 9.345-24.337 14.977-10.926-2.394 16.394 5.615 41.758 29.564 21.682 11.747 12.936 21.517 16.19z" data-name="Căianu Mic" class="comuna" id="32811"/>
    <path d="M635.868 276.694l11.466 8.142 14.337-1.047 11.693 11.714 14.347 7.079 18.384 2.028-4.664 13.786L653 327.242l-7.08-8.592-17.326-.004-20.383 5.296-11.164 18.954-6.672-1.593-18.026 2.348-16.95-11.193-11.638-13.214 5.428-17.078-.101-18.665 18.89-5.721 8.618 2.081 16.51-18.613 10.264 7.963 22.841 9.35 9.657-1.867z" data-name="Leșu" class="comuna" id="33514"/>
    <path d="M368.546 350.933l-17.534 15.242-15.26-4.333.744-9.24-17.005.535-14.47-18.916 7.404-12.845-9.054-7.162 12.483-25.749 15.392-10.23 1.07-7.765 16.556-14.855 4.95 27.191-7.68 29.738 3.453 13.293 8.196 3.873 10.755 21.223z" data-name="Năsăud" class="oras" id="32544"/>
    <path d="M192.028 275.635l7.787 36.088 11.078 9.237-15.577 22.886.39 28.216-6.223-.79-21.517-16.19-11.747-12.936-29.564-21.682-5.615-41.758 2.394-16.394 2.09-22.042 15.308-4.724 15.87 10.388-.85 18.806 6.897 12.87 18.464-4.204 10.815 2.229z" data-name="Spermezeu" class="comuna" id="34547"/>
    <path d="M448.355 234.417l13.293 18.656 13.387-.463 9.729 12.023 3.441 17.072-3.502 8.041 4.9 22.891 8.437 12.418-.51 29.569 3.442 4.591-16.363 13.047-16.585 1.918-12.9 6.465-11.883-4.962-13.672 5.844-20.882.806-2.93-17.52-8.103-3.65 7.517-14.703 1.136-13.188-12.903-4.464-.393-14.897 12.134-8.099 11.24-17.55 20.087-.873 4.72-26.262-2.9-22.138 10.063-4.572z" data-name="Feldru" class="comuna" id="33248"/>
    <path d="M574.118 237.271l18.989 23.977-16.51 18.613-8.62-2.081-18.89 5.721-14.607-12.421 4.202-12.813 9.797-7.676-1.952-16.832 21.49-2.169 6.101 5.681z" data-name="Poiana Ilvei" class="comuna" id="179720"/>
    <path d="M438.291 238.99l2.902 22.137-4.721 26.262-20.087.873-11.24 17.55-12.134 8.099-12.515-11.503-2.376-26.882 3.488-47.504 5.316-10.972 7.155 13.55 20.176 2.007 5.853 16.468 18.183-10.085z" data-name="Rebra" class="comuna" id="34262"/>
    <path d="M105.142 216.495l5.752 17.38 14.63 6.395-2.09 22.042-14.977 10.926-9.344 24.337 2.71 18.877 12.971 27.207-25.315 16.317-8.258-11.784-5.45-19.708-8.382-7.497-6.217-19.608-.524-6.308 14.577-10.737-6.323-22.707 3.549-17.332 10.374-11.95 14.721-3.399 7.596-12.451z" data-name="Negrilești" class="comuna" id="179659"/>
    <path d="M286.41 209.032l14.635 15.56 6.37 14.795-7.672 7.335-10.788 32.018-12.036 11.366-6.942-7.925-5.256-6.459-9.342-41.686 11.479-15.828 19.552-9.176z" data-name="Runcu Salvei" class="comuna" id="179944"/>
    <path d="M692.614 209.275l-13.064 25.511 14.033 18.636 7.65 16.462 7.936-.404 5.727 30.631 8.34 10.996-17.14-6.497-18.385-2.028-14.347-7.079-11.693-11.714-14.337 1.047-11.466-8.142 2.555-18.752-14.915-19.349-6.824-14.424 21.937-15.46 14.119 1.837 9.975-5.537 11.67 6.508 18.229-2.242z" data-name="Ilva Mare" class="comuna" id="33337"/>
    <path d="M359.447 210.69l-2.545 21.337-8.03 23.588-16.556 14.855-6.22-8.983-18.8-1.286-7.553-13.479 7.671-7.335-6.368-14.796 15.701-16.347 34.085 9.317 8.615-6.871z" data-name="Coșbuc" class="comuna" id="33177"/>
    <path d="M723.157 186.488L759 218.923l10.063 13.974 8.152-1.7-.293 30.351 9.678 7.514-.016 30.252-19.488 7.157-13.271 17.03-23.082-3.896-7.506-8.498-8.34-10.996-5.727-30.631-7.937.404-7.65-16.462-14.032-18.636 13.064-25.51 8.862-15.655 14.73 4.003 6.951-11.136z" data-name="Lunca Ilvei" class="comuna" id="33603"/>
    <path d="M486.487 123.11l4.963 32.336 9.2 16.808-32.297 21.478 1.268 12.564-21.266 28.121-10.064 4.572-18.183 10.086-5.853-16.468-20.176-2.007-7.155-13.55 9.188-13.755-.526-12.62 13.014-1.885 24.712-19.538 16.803-8.324 8.074 8.822 17.307-12.404-.828-16.708-5.792-13.161 17.61-4.368z" data-name="Parva" class="comuna" id="34155"/>
    <path d="M219.104 109.273l-2.272 11.21-17.5 33.894 13.576 5.187 1.163 28.95 6.38 14.788-15.336 16.895 6.3 15.756-9.657 30-9.73 9.682-10.815-2.23-18.464 4.205-6.897-12.87.85-18.806-15.87-10.388-15.309 4.724-14.63-6.394-5.75-17.381 10.637-27.104 11.503-3.785 11.414-16.042-.705-9.598 7.509-18.267-6.857-14.05 3.61-13.396 11.993 5.714 8.42-15.183 19.247-4.115 37.19 8.604z" data-name="Tîrlișua" class="comuna" id="35152"/>
    <path d="M546.527 233.76l1.952 16.831-9.797 7.675-4.202 12.813-9.521 7.875-26.434 3.7-13.761-18.021-9.73-12.023-13.386.463-13.293-18.656 21.266-28.12-1.268-12.565 32.298-21.478-9.2-16.808-4.964-32.337.868-15.728 15.034-35.565 16.372 5.266 6.969 18.009-15.391 7.934 9.881 21.935 13.116-19.424 15.207 14.036.379 35.885-11.128 24.492-.285 27.952 9.018 25.858z" data-name="Sîngeorz-Băi" class="oras" id="32599"/>
    <path d="M286.41 209.032l-19.552 9.176-11.479 15.828 9.342 41.686 5.256 6.459-6.125 7.079-2.346 7.69-35.154 17.998-15.46 6.012-11.077-9.237-7.787-36.088 9.73-9.682 9.657-30-6.3-15.756 15.335-16.895-6.38-14.788-1.162-28.95-13.576-5.187 17.5-33.894 2.272-11.21 14.653-21.276 13.605-11.355 1.801-13.425 21.808 20.026-.164 33.234-16.58 8.561-7.992 17.766 2.938 23.871 8.044 23.087 21.924 8.864 7.27 10.406z" data-name="Zagra" class="comuna" id="35429"/>
    <path d="M504.896 56.363l-2.507 15.453-15.034 35.565-.868 15.728-17.61 4.368 5.791 13.16.828 16.709-17.307 12.404-8.074-8.822-16.803 8.324L408.6 188.79l-13.014 1.884.526 12.621-9.188 13.755-5.316 10.972-3.488 47.504 2.376 26.882 12.515 11.503.393 14.897 12.903 4.464-1.136 13.188-7.517 14.703-29.108-10.23-10.755-21.223-8.196-3.873-3.452-13.293 7.679-29.738-4.95-27.191 8.03-23.588 2.545-21.337-1.012-5.056 23.37-30.597 2.419-8.115 24.201-10.753-1.033-13.191 17.292 2.262 15.336-5.073 15.753-14.292 4.352-10.628-17.784-11.584 16.456-41.053 15.063-7.325-4.08-14.325 16.513-6.458 13.633 8.34 4.97 13.52z" data-name="Rebrișoara" class="comuna" id="34280"/>
    <path d="M291.004 43.648l6.482 17.426L321.7 78.512l-.332 19.584 22.776-.294L358.55 91.8l15.783 3.94 16.363-14.016-9.478-8.883 23.627-16.629 19.069 6.51 21.668-14.938 6.67-8.1 17.528 1.276 4.08 14.326-15.064 7.325-16.456 41.053 17.784 11.584-4.352 10.628-15.753 14.292-15.336 5.073-17.292-2.262 1.033 13.191-24.201 10.753-2.42 8.115-23.369 30.597 1.012 5.056-8.615 6.871-34.085-9.317-15.702 16.347-14.635-15.559-7.269-10.406-21.924-8.864-8.044-23.087-2.938-23.87 7.992-17.767 16.58-8.56.164-33.235-21.808-20.026 14.26-12.675 3.826-20.1 12.492 11.642 11.263 1.564z" data-name="Telciu" class="comuna" id="35054"/>
    <path d="M723.157 186.488l-6.95 11.136-14.73-4.003-8.863 15.654-18.23 2.242-11.67-6.508-9.975 5.537 1.888-6.093-3.267-33.303-12.174-7.865 9.212-16.974 12.82-38.294.064-14.628-12.132-11.342-1.746-25.444 12.723-20.941-5.458-22.939 10.675-4.668 18.196 5.128 24.813.898 19.804 11.169 11.867 16.795 29.831 8.352 6.125 23.44L799 94.86l-1.002 5.513.172 6.338-28.164 23.148 2.701 14.005 14.82 28.218-17.303 7.43-25.537-2.398L734.41 190.3l-11.254-3.811z" data-name="Șanț" class="comuna" id="34618"/>
    <path d="M445.583 47.783l-21.668 14.938-19.07-6.51L381.22 72.84l9.478 8.883-16.363 14.016-15.783-3.94-14.407 6.003-22.776.294.332-19.584-24.214-17.438-6.482-17.426 13.95-11.96L320.923 1l34.74 17.94 15.042-1.393 29.729 11.012 32.437 7.948 3.585 5.63 9.126 5.646z" data-name="Romuli" class="comuna" id="34360"/>
    <path d="M779.284 440.084l-5.23 19.396 3.862 13.733-19.948 10.265-10.347 13.875-13.69 1.544-23.504-8.038-10.101 1.293-5.594 15.412-5.965 5.897-23.005-12.34-19.368 3.651-4.441-11.183-14.594 1.498-13.742-5.643-22.029-1.243-19.12-9.696-10.426-10.612-1.782-23.883-7.577-6.377-1.59-2.904 13.508-15.922-2.51-14.294 6.453-12.928 12.423 1.206 10.75-5.606 17.68 13.171 15.352 5.351 26.943 25.969 12.587-9.41 25.245 8.915 21.867 1.482 2.064 7.735 20.209-7.968 27.24-4.276 10.908 12.742 7.472-.812z" data-name="Bistrița Bîrgăului" class="comuna" id="32633"/>
    <path d="M723.236 311.107l7.506 8.498 23.082 3.896 15.806 16.385 19.191 11.548-3.202 12.431-20.761 30.027 10.081 16.914 4.345 29.278-7.472.812-10.908-12.742-27.24 4.276-20.209 7.968-2.064-7.735-21.866-1.482-25.246-8.915-12.587 9.41-26.943-25.969-15.353-5.35-17.679-13.172-10.75 5.606-12.423-1.206.195-9.645 9.748-13.384.697-14.218 11.19-13.035 6.673 1.593 11.164-18.954 20.383-5.296 17.325.004 7.081 8.592 48.43-8.846 4.665-13.786 17.141 6.497z" data-name="Tiha Bîrgăului" class="comuna" id="35090"/>
    <path d="M299.743 246.722l7.553 13.479 18.8 1.286 6.22 8.983-1.07 7.766-15.392 10.23-12.483 25.748-10.187-4.944-11.543 9.194-5.602-21.553-12.187-7.651 6.125-7.08 6.942 7.926 12.036-11.366 10.788-32.018z" data-name="Salva" class="comuna" id="34397"/>
    <path d="M241.98 728.956l-7.25 8.398 1.905 19.74-14.641 16.332 20.025 17.016 8.263.501-26.792 9.469-11.754 22.496 2.496 8.848-14.86-6.667-14.006-18.926-12.385-4.89-1.178-1.823 13.208-13.077-5.783-9.665 14.595-7.802-6.172-15.474 13.094-20.938-4.694-11.259 10.526-2.827 11.766-4.696 4.621 7.753 19.016 7.49z" data-name="Budești" class="comuna" id="32768"/>
    <path d="M433.398 626.213l4.921 10.274-14.988 18.385 15.752-.91 9.53 7.943-1.717 20.647 3.958 10.708-16.833 9.672-18.567-1.5 4.972 15.184-11.06 38.84-9.926 2.143-4.333 10.745-23.555 11.454-7.711 7.786-5.175-26.377 9.688-14.257-17.63-10.132-23.947.2-6.797 3.516-6.124-26.136 20.446-6.698-10.248-25.235 15.51-15.968 12.62-5.231 33.303-24.885 14.899 12.845 23.696-9.886 9.316-13.127z" data-name="Teaca" class="comuna" id="34985"/>
    <path d="M219.544 396.153l4.117 4.131 47.178 16.75 2.595 6.227 33.336-6.524 6.904 14.64 22.961-.506 6.868 12.288-6.047 1.145-4.41 21.276-15.812 14.926-24.156 4.55-1.97-9.707-12.443-2.138-17.06 1.29-5.526-14.222 3.024-18.748-18.534-5.577-10.795 6.477-12.135-7.23-15.352-22.655-8.17 3.12 8.497-12.962 16.93-6.551z" data-name="Șintereag" class="comuna" id="34903"/>
    <path d="M317.234 480.506l22.478 27.957-6.561 7.67 13.208 13.716-.701 19.56 12.063 8.088-8.014 8.596-16.513 4.365-9.428-11.586-27.288-7.002-8.72-7.197 4.498-14.45-14.655-19.23-14.71-3.315-2.777-4.39 16.631-22.29 1.92-7.787 12.443 2.138 1.97 9.708 24.156-4.55z" data-name="Șieu-Măgheruș" class="comuna" id="34690"/>
    <path d="M349.707 566.093l.993 34.477 18.662 8.068 20.327.159-4.202 27.584-33.303 24.885-12.62 5.231-15.51 15.968-5.59-2.605 1.63-18.3-3.839-22.11-16.033-14.27-10.534-2.522-4.495-16.343 9.664-7.644 12.023 1.017 11.07-6.605 15.244-22.625 16.513-4.365z" data-name="Galații Bistriței" class="comuna" id="33275"/>
    <path d="M436.961 551.227l1.012 3.87 1.03 11.362 11.864 38.455-2.948 14.077-14.521 7.222-9.316 13.127-23.696 9.886-14.899-12.845 4.202-27.584-20.327-.16-18.662-8.067-.993-34.477 8.014-8.596 8.292-2.276 19.388.932 16.606 9.452 20.415-4.22 14.539-10.158z" data-name="Mărișelu" class="comuna" id="33765"/>
    <path d="M429.57 381.527l4.718 8.797-9.586 20.968 7.842 15.175-.463 20.41 14.135 12.053 21.781-12.239 11.11-.657 6.38 12.683 12.163 5.917-7.654 9.53-27.858 9.786-8.892-5.123-27.954-.7-18.455 17.832-13.784 6.36 4.733 12.286-11.715 6.729-16.286-3.347-7.21 17.69 3.438 19.544-8.292 2.276-12.063-8.087.7-19.561-13.207-13.715 6.56-7.671-22.477-27.957 15.812-14.925 4.41-21.277 6.047-1.145 45.342-25.213 3.723-22.377 16.119-13.236 20.882-.806z" data-name="Bistrița" class="municipiu resedinta" id="32394"/>
    <path d="M601.44 218.178l15.244 5.991 6.824 14.424 14.915 19.35-2.555 18.75-9.657 1.868-22.841-9.35-10.263-7.963-18.989-23.977-1.33-8.45 28.651-10.643z" data-name="Măgura Ilvei" class="comuna" id="33729"/>
    <path d="M604.64 44.052l7.174 13.255-12.43 13.439-5.625 21.68 4.163 7.427-7.679 29.622 7.947 13.684-4.418 17.65-9.99 15.404-1.799 11.057 10.837 25.225 8.62 5.683-28.652 10.644 1.33 8.45-6.102-5.682-21.49 2.17-9.017-25.86.285-27.95 11.128-24.493-.379-35.885-15.207-14.037-13.116 19.425-9.881-21.934 15.391-7.935-6.969-18.01-16.372-5.265 2.507-15.453 21.388-4.46 15.383-12.874 38.617-.408 11.298-4.287 13.058 9.718z" data-name="Maieru" class="comuna" id="33621"/>
    <path d="M652.74 210.546l-14.119-1.838-21.937 15.461-15.245-5.992-8.619-5.682-10.837-25.225 1.798-11.057 9.991-15.403 4.418-17.651-7.947-13.684 7.679-29.622-4.163-7.426 5.625-21.681 12.43-13.44-7.174-13.254 10.524-27.746 22.348 2.105 17.157-5.688 5.458 22.939-12.723 20.941 1.746 25.444 12.132 11.342-.063 14.628-12.82 38.294-9.213 16.974 12.174 7.865 3.267 33.303-1.887 6.093z" data-name="Rodna" class="comuna" id="34333"/>
  </g>
</svg>
