<svg xmlns="http://www.w3.org/2000/svg" version="1.2" baseProfile="tiny" stroke-linecap="round" stroke-linejoin="round" viewBox="0 0 800 764">
  <g id="BR" fill="none" stroke="#aaa">
    <path d="M435.126 644.028l2.78 32.985 52.948 22.527-4.46 35.693-94.142-13.787-2.424-63.795 45.298-13.623z" id="44435"/>
    <path d="M389.828 657.65l2.425 63.796-82.22 11.006-30.664-23.3 5.093-6.534 43.612-62.982 61.754 18.015z" id="42824"/>
    <path d="M131.07 640.864l46.095 8.77-7.995 33.873 37.15 28.528-34.124 13.674-21.472 37.474-40.376-37.032 20.723-85.287z" id="42968"/>
    <path d="M216.45 649.904l9.592.694 37.3 20.402 21.12 31.618-5.093 6.534-20.284 27.082-52.766-24.199-37.15-28.528 7.996-33.873 39.285.27z" id="43812"/>
    <path d="M632.088 672.28l-21.531 10.853 3.946 41.938-47.985-5.05-5.05-41.592-70.614 21.11-52.947-22.526-2.78-32.985 33.718-11.099 7.671-28.313 51.075-1.375 2.184 53.548 20.111 11.812 54.839-22.986 27.363 26.666z" id="42842"/>
    <path d="M216.45 649.904l-39.285-.27-46.094-8.77 28.836-130.942 29.177-3.861 27.841 15.922-10.322 75.517 9.847 52.404z" id="44328"/>
    <path d="M471.596 543.512l-4.853 9.996 9.773 51.108-7.671 28.313-33.719 11.1-45.298 13.622-61.754-18.015 38.324-78.378-6.496-40.577 34.467-74.17 25.238-3.115 2.37 79.439 49.62 20.677z" id="43411"/>
    <path d="M548.48 499.47l-7.884 43.875-21.688 25.615-52.166-15.452 4.854-9.996 24.545-11.688-8.075-35.867 40.407-44.905 21.138-23.649 19.445 12.015-20.576 60.053z" id="44300"/>
    <path d="M174.993 394.442l-4.882 29.643 14.528 75.784 4.445 6.192-29.177 3.86-24.286-29.401-36.229.13 3.81-66.015-13.481-16.389 25.756-5.379 59.516 1.575z" id="42771"/>
    <path d="M184.517 379.016l-1.778 7.384-7.746 8.043-59.516-1.576 23.105-11.718 45.935-2.133z" id="42753"/>
    <path d="M650.226 354.754l50.165.377 1.704 193.24-71.383 1.322 1.305-37.768-83.537-12.454 20.576-60.053-19.445-12.015 8.434-31.993-23.165-29.795 4.033-15.131 96.335 38.047 14.977-33.777z" id="43313"/>
    <path d="M644.074 339.125l6.152 15.63-14.978 33.776-96.335-38.047 7.46-28.16 17.605-10.274 80.096 27.075z" id="44177"/>
    <path d="M114.72 336.456l23.862 44.693-23.105 11.718-25.757 5.38-28.991-62.685 53.992.894z" id="43466"/>
    <path d="M434.577 243.285l8.43 43.311-8.152 30.554-65.941 16.97-31.719-28.788 11.164-40.051 33.97-18.391 52.248-3.605z" id="43652"/>
    <path d="M348.36 265.28l-11.165 40.052-59.757-25.706-21.867 11.4-27.937 4.045-.708-25.408 41.036-24.666 5.088-19.985 63.094 23.903 12.215 16.366z" id="44140"/>
    <path d="M551.317 225.123l8.712 23.094 11.956 16.602-46.623 33.003-8.454-15.473-73.9 4.247-8.431-43.31 14.647-4.25 58.06 2.165 44.033-16.078z" id="44257"/>
    <path d="M687.564 735.33l-4.105-92.625 12.879-5.674 5.757-88.66-1.704-193.24 9.824-73.752-20.612-14.55-2.488-40.434-3.806-11.227 81.842 34.871-24.338 45.85L799 334.655l-.542 49.148-24.353 2.247 15.066 61.183-16.285 25.727 17.846 43.28-14.164 29.966 7.346 60.78-19.676 13.058-29.986 91.487-46.688 23.799z" id="43117"/>
    <path d="M603.806 202.166l11.725 26.945-55.502 19.106-8.712-23.094 12.36-24.102 40.13 1.145z" id="44560"/>
    <path d="M438.344 196.396l10.88 42.64-14.647 4.25-52.249 3.604-15.513-50.045 51.61-23.522 19.919 23.073z" id="43242"/>
    <path d="M366.815 196.845l15.513 50.045-33.969 18.39-12.215-16.365-63.094-23.903 23.422-48.404 31.255-22.548 9.039-4.008 30.049 46.793z" id="43732"/>
    <path d="M327.727 154.06l-31.255 22.548-23.422 48.404-5.088 19.985-25.445-87.217 22.544-36.76 33.318 46.033 29.348-12.993z" id="43698"/>
    <path d="M668.187 176.28l-40.219-3.938-24.162 29.824-40.129-1.145-15.293-48.223 4.32-66.08L574.12 67.74l110.547 20.822-16.48 87.718z" id="44391"/>
    <path d="M337.195 305.332l31.719 28.789-1.897 58.015-35.776 37.57-4.403 53.942-11.841 1.173-28.373-26.04-5.926-46.01-28.974-58.753 3.847-62.992 21.867-11.4 59.757 25.706z" id="43331"/>
    <path d="M242.517 157.78l25.445 87.217-41.036 24.666.708 25.408-25.115-17.95-22.009-37.015 47.957-30.322 14.05-52.004z" id="43279"/>
    <path d="M383.854 25.214l-33.293 22.15-21.609 47.902 7.814 54.786-9.04 4.008-29.347 12.993-33.318-46.033-9.76-30.175L347.855 1l35.999 24.214z" id="43867"/>
    <path d="M482.377 74.188l.722 53.993-38.922 5.916-26.829-35.68-29.294 20.074-59.102-23.225 21.61-47.901 33.292-22.15 98.523 48.973z" id="43563"/>
    <path d="M552.704 86.718l-4.32 66.08 15.293 48.223-12.36 24.102-44.034 16.078-4.17-66.442-20.014-46.578-.722-53.993 70.327 12.53z" id="43992"/>
    <path d="M534.88 365.615l23.165 29.795-8.434 31.993-21.138 23.649-47.461-38.241-20.273-22.489 8.173-41.523 65.968 16.816z" id="44355"/>
    <path d="M528.473 451.052l-40.407 44.905 8.075 35.867-24.545 11.688-49.62-20.677-2.369-79.439 29.916-4.766 31.489-25.82 47.461 38.242z" id="44505"/>
    <path d="M525.362 297.822l21.012 24.502-7.46 28.16-4.034 15.13-65.968-16.815-8.173 41.523 20.273 22.489-31.489 25.819-5.134-26.016-77.372-20.478 1.897-58.015 65.941-16.97 8.152-30.555 73.901-4.247 8.454 15.473z" id="44202"/>
    <path d="M359.902 520.681l6.496 40.577-31.769 5.423-2.176 32.284-77.993-17.036-8.663-53.947 75.947-7.352-6.747-35.809 11.84-1.173 33.065 37.033z" id="44532"/>
    <path d="M366.398 561.258l-38.324 78.378-43.612 62.982L263.342 671l-37.3-20.402 28.417-68.67 77.994 17.037 2.176-32.284 31.77-5.423z" id="43073"/>
    <path d="M449.523 438.63l-29.916 4.767-25.238 3.113-34.467 74.171-33.064-37.033 4.403-53.942 35.776-37.57 77.372 20.478 5.134 26.016z" id="42913"/>
    <path d="M507.283 241.201l-58.059-2.165-10.88-42.64-10.07-32.192 15.903-30.107 38.922-5.916 20.015 46.578 4.17 66.442z" id="43787"/>
    <path d="M444.177 134.097l-15.903 30.107 10.07 32.192-19.918-23.073-51.611 23.522-30.05-46.793-7.813-54.786 59.102 23.225 29.294-20.074 26.829 35.68z" id="43929"/>
    <path d="M314.997 484.821l6.747 35.808-75.948 7.353 8.663 53.947-28.417 68.67-9.592-.695-9.847-52.404 10.322-75.517-27.84-15.922-4.446-6.192 45.763-18.186 56.222-22.901 28.373 26.04z" id="43019"/>
    <path d="M230.402 481.683l-45.763 18.186-14.529-75.784 4.883-29.642 7.746-8.043 27.474 18.597L240.55 467.6l-10.148 14.083z" id="44113"/>
    <path d="M255.571 291.026l-3.847 62.992 28.974 58.752 5.926 46.012-56.222 22.901L240.55 467.6l-30.337-62.603L182.74 386.4l1.778-7.384 28.59-33.431 14.527-50.514 27.937-4.045z" id="43625"/>
    <path d="M630.712 549.693l-5.529 56.177 6.905 66.41-27.363-26.665-54.839 22.986-20.11-11.812-2.185-53.548-51.075 1.375-9.774-51.108 52.166 15.452 21.688-25.615 7.884-43.874 83.537 12.454-1.305 37.768z" id="44060"/>
    <path d="M227.634 295.07l-14.527 50.515-28.59 33.431-45.935 2.133-23.861-44.693 30.884-40.322 56.914-19.012 25.115 17.949z" id="44462"/>
    <path d="M145.605 296.134l-30.884 40.322-53.992-.894L1 350.127l75.961-94.706 47.618 39.017 21.026 1.695z" id="43180"/>
    <path d="M615.531 229.11l30.693 17.465 23.268 52.866-25.418 39.684-80.096-27.075-17.604 10.274-21.012-24.502 46.623-33.003-11.956-16.603 55.502-19.105z" id="42708"/>
    <path d="M668.187 176.28l15.122 38.888 3.806 11.227-40.891 20.18-30.693-17.464-11.725-26.945 24.162-29.823 40.219 3.937z" id="42682"/>
    <path d="M687.564 735.33l-38.33-19.688-34.73 9.429-3.947-41.938 21.53-10.852-6.904-66.411 5.529-56.177 71.383-1.321-5.757 88.659-12.879 5.674 4.105 92.625zm12.827-380.199l-50.165-.377-6.152-15.63 25.418-39.683-23.268-52.866 40.891-20.18 2.488 40.433 20.612 14.551-9.824 73.752z" id="43493"/>
  </g>
</svg>
