<svg xmlns="http://www.w3.org/2000/svg" version="1.2" baseProfile="tiny" stroke-linecap="round" stroke-linejoin="round" viewBox="0 0 800 749">
  <g id="BR" fill="none" stroke="#aaa">
    <path d="M425.614 631.48l-5.11 9.245 7.83 23.028 23.372.89 12.22 7.583-.359 14.19 16.572-.621-1.759 7.923 13.85 14.111-15.155 1.828-1.3 11.06-50.862-1.703-.651-5.439-40.846-.857.25-5.49-3.526-6.208 1.153-56.21 2.404-7.704 22.5 7.113 1.911-14.56 17.506 1.822z" data-name="Victoria" class="comuna" id="44435"/>
    <path d="M381.293 644.81l-1.153 56.21 3.525 6.209-36.33 1.098-9.39 9.777-16.858.118-17.867-.226-30.003-22.797 4.983-6.393 24.19-32.218 12.482 10.91 16.842-22.521-14.353-8.855 3.51-8.939 32.14 16.984 28.282.642z" data-name="Bărăganul" class="comuna" id="42824"/>
    <path d="M128.118 628.384l45.1 8.582-7.823 33.142 36.348 27.913-18.166 24.045-15.22-10.667-13.068 22.872-7.942 13.794-39.505-36.234 17.893-72.59-13.303-4.133-1.51-9.978 17.196 3.254z" data-name="Ciocile" class="comuna" id="42968"/>
    <path d="M211.655 637.23l9.385.679-1.301 12.027 21.087-4.215 16.71 12.15-3.103 9.807 23.767 21.128-4.983 6.393-19.846 26.498-11.794-9.985-6.586 8.868-11.975-14.527-21.273-8.032-36.348-27.913 7.823-33.142 38.437.264z" data-name="Roșiori" class="comuna" id="43812"/>
    <path d="M618.327 659.124l.961 8.696-22.028 1.921-1.065 19.197 11.058 2.995-6.132 18.842-11.13 9.78-8.707-11.976-27.113-2.746-8.243-20.412 3.303-20.281-26.886 2.182-8.728 14.093-17.86-2.101-15.618 6.48-16.572.621.36-14.19-12.221-7.583-23.371-.889-7.83-23.028 5.109-9.244 18.21-1.708 14.781-9.152.503-23.043 7.003-4.66 20.512 4.644 29.461-5.988 2.138 52.392-3.226 9.914 15.863 11.278 7.04-9.635 30.36-13.425 4.044-17.957 15.232-8.923 4.02 17.815 26.772 26.09z" data-name="Berteștii de Jos" class="comuna" id="42842"/>
    <path d="M211.655 637.23l-38.437-.264-45.1-8.582 19.818-78.048 8.397-50.069 28.547-3.777 11.909-1.748-5.45 23.648 20.782-6.322-10.1 73.888 8.831-1.463-8.252 40.448 9.055 12.288z" data-name="Ulmu" class="comuna" id="44328"/>
    <path d="M461.297 533.133l-4.749 9.78-9.674 12.316.606 14.972 13.009 2.59-.576 14.527 6.198 5.6-7.003 4.66-.503 23.043-14.78 9.152-18.211 1.708-17.506-1.822-1.912 14.56-22.5-7.113-2.403 7.703-28.281-.642-32.14-16.984 11.47-13.12 26.027-63.567-23.316-8.298 3.262-16.372 10.837-.296 2.86-14.735 8.013-20.932 25.711-51.639 24.694-3.047 2.318 77.725 48.55 20.231z" data-name="Însurăței" class="oras" id="43411"/>
    <path d="M536.523 490.042l-7.715 42.927-16.966 6.727-4.254 18.336-51.04-15.119 4.75-9.78 7.824-15.732 16.19 4.296 13.804-29.541-21.704-5.552 39.535-43.936 20.682-23.139 19.025 11.756-8.693 18.641-11.438 40.116z" data-name="Tufești" class="comuna" id="44300"/>
    <path d="M171.093 387.28l3.703 20.785-8.48 8.218 5.8 60.07 12.252.372-3.837 13.707 4.35 6.058-28.548 3.777-21.767 3.332-2.772-25.49.776-6.61-35.447.129 3.727-64.591-11.835.83-1.355-16.866 25.201-5.263 4.988 17.688 13.263 3.452-1.31 14.58 14.797-3.863 11.112 5.446-4.416-23.497-14.303 1.822-5.087-21.899 12.55-8.847 5.618 10.778 21.02 5.881z" data-name="Surdila-Greci" class="comuna" id="42771"/>
    <path d="M180.411 372.186l-1.739 7.224-7.58 7.87-21.02-5.882-5.617-10.778-12.55 8.847 5.087 21.899 14.303-1.822 4.416 23.497-11.112-5.446-14.797 3.863 1.31-14.58-13.263-3.452-4.988-17.688 22.606-11.465 14.838-8.012 30.106 5.925z" data-name="Făurei" class="oras" id="42753"/>
    <path d="M636.073 348.447l49.083.37.208 40.282 2.184 15.4.35 95.07-1.074 38.319-69.844 1.292-5.145-19.804 6.423-17.149-27.945-4.53-33.159-2.19-20.631-5.465 11.438-40.115 8.693-18.642-19.025-11.756 8.252-31.303-26.933-11.755 4.267-17.398 3.947-14.804 63.069 30.354 4.705-7.954 26.482 14.827 14.655-33.049z" data-name="Gropeni" class="comuna" id="43313"/>
    <path d="M630.054 333.155l6.019 15.292-14.654 33.049-26.483-14.827-4.705 7.954-63.069-30.354 7.3-27.553 17.224-10.051 21.432 4.05 33.928 13.642 12.305-8.588 10.703 17.386z" data-name="Tichilești" class="comuna" id="44177"/>
    <path d="M112.12 330.544l13.72 13.073 12.61 18.941-2.983 11.715-22.606 11.465-25.201 5.263-14.41-.408-12.07-46.642-1.886-14.282 18.575-6.853 1.07-26.683 15.14-2.934-7.135 17.81.437 14.805 24.74 4.73z" data-name="Jirlău" class="comuna" id="43466"/>
    <path d="M425.077 239.383l8.248 42.377-10.75 11.175 2.774 18.72-50.547 16.657-13.972-.053-31.034-28.168-.864-15.238 11.787-23.95 21.771-6.077 15.805-.005-4.34-11.911 49.911-12.426 1.21 8.9z" data-name="Movila Miresii" class="comuna" id="43652"/>
    <path d="M340.719 260.904l-11.787 23.95.864 15.238-15.932 11.393-13.75-6.5 5.679-12.173-34.466-17.873-3.573 7.208-17.821 3.947-27.334 3.957-.694-24.86 24.162-16.847 3.05 9.853 14.694-2.089-1.755-15.05 4.978-19.554 3.222-.402 58.512 23.79 11.951 16.012z" data-name="Șuțești" class="comuna" id="44140"/>
    <path d="M539.298 221.612l8.524 22.596 11.699 16.244-23.946 26.55-21.672 5.741-8.271-15.139-40.22 8.234-7.15-6.954-24.937 2.876-8.248-42.377 14.331-4.158 25.756-7.51 31.05 9.629 7.055 3.155 22.18-6.44-3.442-18.15 17.291 5.703z" data-name="Tudor Vladimirescu" class="comuna" id="44257"/>
    <path d="M672.606 720.813l-.175-58.274-3.841-32.353 12.6-5.552.206-36.709-2.318-20.593 6.534-9.587 1.212-19.857 1.074-38.32-.35-95.07-2.184-15.4-.208-40.282 9.654-5.447-.042-66.714-20.167-14.237 1.933-11.765-6.636-12.212 2.269-15.584-3.724-10.984 35.829 15.894 23.275.17 10.291-7.22 10.682 25.274-13.545 22.955-10.269 21.906 34.122 18.486 13.87 11.637 10.044 8.592L799 336.159l-15.191 14.336 4.044 17.703-6.745 8.672-23.828 2.198.155 16.277 5.93 23.755 8.656 19.831-14.136 14.576-1.798 10.596 11.159 33.956 6.302 8.39-13.859 29.32-2.597 19.789 2.432 17.813 10.82 10.664-2.489 9.288-20.229 14.69-6.989 23.302-13.985 27.409-1.005 16.048-7.36 22.755-16.1 17.427-16.43 7.314-13.15-1.455z" data-name="Frecăței" class="comuna" id="43117"/>
    <path d="M590.655 199.15l8.984 3.84 2.488 22.524-54.305 18.694-8.524-22.596 7.529.251 4.565-23.832 2.576-11.51 36.687 12.63z" data-name="Cazasu" class="comuna" id="44560"/>
    <path d="M428.762 193.506l10.646 41.72-14.331 4.157-1.211-8.9-49.91 12.427-15.18-48.966 33.89-11.976 16.608-11.038 7.239 17.285 12.25 5.29z" data-name="Gemenele" class="comuna" id="43242"/>
    <path d="M358.776 193.944l15.18 48.966 4.34 11.91-15.806.006-21.771 6.078-11.952-16.012-58.511-23.79-3.222.402-1.438-14.473 11.517-6.097 12.838-26.79 8.717-.54 24.708-11.017-2.844-10.504 8.844-3.922 1.415 17.95 18.036 21.59 9.95 6.243z" data-name="Rîmnicelu" class="comuna" id="43732"/>
    <path d="M320.532 152.083l2.844 10.504-24.708 11.017-8.717.54-12.838 26.79-11.517 6.097 1.438 14.473-4.978 19.554-4.735-.14-6.537-38.061-13.624-47.135-7.063-17.636 29.12-18.33 11.823 23.205 6.903-2.933 13.874 24.767 28.715-12.712z" data-name="Racoviță" class="comuna" id="43698"/>
    <path d="M653.647 173.823l-17.178-4.086-22.173.234-7.895 18.09-11.478 1.257-4.268 9.833-36.687-12.63-2.576 11.51-8.814-6.284 4.372-18.69 17.255-16.009-27.776-6.2 9.896-37.977-5.67-26.677 15.804 2.495 4.525-19.758 11.123-3.861 19.945 12.297 27.703 3.203 19.418 11.436 6.463-9.862 9.38 3.767 17.05-8.826-2.47 44.889-8.907 36.051-7.042 15.798z" data-name="Vădeni" class="comuna" id="44391"/>
    <path d="M329.796 300.091l31.034 28.168 7.92 2.347 5.002 15.475-.936 18.096-18.994 9.975 5.152 10.87-16.039 7.142-1.655 31.353-17.31-1.735-.072 28.864-4.236 23.914-11.585 1.148-9.18-31.353-18.582 5.875-4.369-13.192-9.5 3.351-7.257-18.087-8.419-8.718 23.747-8.372-10.228-27.83-18.12-29.655-1.83-24.363 5.594-37.27 17.821-3.947 3.573-7.208 34.466 17.873-5.68 12.173 13.751 6.5 15.932-11.394z" data-name="Ianca" class="oras" id="43331"/>
    <path d="M237.16 155.722l13.624 47.135 6.537 38.06 4.735.14 1.755 15.051-14.695 2.09-3.049-9.854-24.162 16.848.694 24.86-10.94 3.396-1.23-15.834-12.404-5.124 1.783-7.086-16.683-6.607 8.032-14.2-14.666-8.324 10.484-22.967 18.243 9.616 9.234-2.312 8.961-14.005.724-22.344-7.112-17.33 20.135-11.209z" data-name="Gradiștea" class="comuna" id="43279"/>
    <path d="M375.448 26.017L359.273 40.72 344.9 34.476l-2.026 13.213-12.02 21.977-9.122 24.891.62 23.6 7.025 30.004-8.844 3.922-28.715 12.712-13.874-24.767-6.903 2.933-11.822-23.205-5.484-18.772-4.066-10.752 7.424-9.41 31.687-26.123 48.964-49.868 29.762 3.221 9.288 8.873-1.345 9.092z" data-name="Salcia Tudor" class="comuna" id="43867"/>
    <path d="M471.846 73.934l-4.767 11.577 3.317 14.06-5.393 12.027 7.55 15.164-38.084 5.788-6.71-17.103-19.54-17.807-28.661 19.641-6.442 9.17-13.8-17.76-1.941-9.32-27.28-.804-8.364-4.01 9.122-24.89 12.02-21.978 2.026-13.213 14.374 6.244 16.175-14.703 12.716 10.864 11.968-7.877-1.88-15.804L411.811 1l-1.95 6.838 8.991 7.694 11.802-7.538-.753 21.62L419.64 44.29l30.982 11.652 4.901-7.585 13.714 4.193 2.609 21.384z" data-name="Măxineni" class="comuna" id="43563"/>
    <path d="M540.655 86.194l5.67 26.677-9.896 37.977 27.776 6.2-17.255 16.01-4.372 18.689 8.814 6.284-4.565 23.832-7.529-.25-17.292-5.703 3.443 18.149-22.18 6.44-7.055-3.155-4.08-65.008-9.657 1.305-2.83-35.013-7.095-11.866-7.549-15.164 5.393-12.026-3.317-14.06 4.767-11.578 16.149-5.33 9.531-3.129 2.884 15.298 26.517 9.44 13.728-4.02z" data-name="Siliștea" class="comuna" id="43992"/>
    <path d="M523.215 359.073l-4.267 17.398 26.933 11.755-8.252 31.303-20.682 23.139-46.437-37.416-19.836-22.004 3.842-5.719 4.155-34.908 64.544 16.452z" data-name="Unirea" class="comuna" id="44355"/>
    <path d="M516.947 442.668l-39.535 43.936 21.704 5.552-13.803 29.54-16.191-4.295-7.825 15.732-48.549-20.231-2.318-77.725 29.27-4.664 30.81-25.261 46.437 37.416z" data-name="Viziru" class="comuna" id="44505"/>
    <path d="M513.903 292.743l-2.81 22.437 10.847-4.683 12.521 6.22-7.299 27.552-3.947 14.804-64.544-16.452-4.155 34.908-3.842 5.719 19.836 22.004-30.81 25.261-5.023-25.454-28.861 2.575-.582-13.21-39.804 4.194-6.456-13.596-5.152-10.87 18.994-9.975.936-18.096-5.002-15.475-7.92-2.347 13.972.053 50.547-16.658-2.774-18.719 10.75-11.175 24.938-2.876 7.15 6.954 40.219-8.234 8.271 15.14z" data-name="Traian" class="comuna" id="44202"/>
    <path d="M352.013 510.795l-2.86 14.735-10.838.296-3.262 16.372 23.316 8.298-12.961 7.553-18.123-2.246-2.13 31.586-17.667-7-2.788 6.117-25.756-6.503-21.715 4.265-8.384-13.547-4.218-16.755-4.258-36.028 16.713 1.272 9.856-6.374 47.74-2.092-6.601-35.036 11.585-1.148 15.254 10.589-8.72 27.542 10.578 6.218 15.239-8.114z" data-name="Zăvoaia" class="comuna" id="44532"/>
    <path d="M358.369 550.496l-26.028 63.567-11.47 13.12-3.51 8.939 14.353 8.855-16.842 22.52-12.482-10.91-24.19 32.22-23.767-21.13 3.102-9.806-16.71-12.15-21.086 4.215 1.301-12.027 14.082-66.477 13.723-.711 8.384 13.547 21.715-4.265 25.756 6.503 2.788-6.116 17.668 7 2.13-31.587 18.122 2.245 12.961-7.552z" data-name="Dudești" class="comuna" id="43073"/>
    <path d="M439.7 430.513l-29.27 4.664-24.694 3.047-25.71 51.64-8.013 20.93-15.24 8.115-10.577-6.218 8.72-27.542-15.254-10.589 4.236-23.914.072-28.864 17.31 1.735 1.655-31.353 16.04-7.142 6.454 13.596 39.805-4.194.582 13.21 28.861-2.575 5.024 25.454z" data-name="Bordei Verde" class="comuna" id="42913"/>
    <path d="M496.214 237.344l-31.05-9.628-25.756 7.51-10.646-41.72-9.853-31.498 19.73-3.43 3.909-11.683-8.079-14.345 38.083-5.788 7.094 11.866 2.831 35.013 9.658-1.305 4.08 65.008z" data-name="Romanu" class="comuna" id="43787"/>
    <path d="M434.47 132.55l8.077 14.345-3.909 11.683-19.728 3.43 9.852 31.498-12.25-5.291-7.238-17.285-16.608 11.038-33.89 11.976-9.949-6.243-18.036-21.59-1.415-17.95-7.024-30.003-.621-23.6 8.365 4.01 27.279.804 1.942 9.318 13.799 17.761 6.442-9.17 28.661-19.64 19.54 17.806 6.71 17.103z" data-name="Scorțaru Nou" class="comuna" id="43929"/>
    <path d="M308.077 475.708l6.601 35.036-47.74 2.092-9.856 6.374-16.713-1.272 4.258 36.028 4.218 16.755-13.723.71-14.082 66.478-9.385-.68-9.055-12.288 8.252-40.448-8.83 1.463 10.099-73.888-20.782 6.322 5.45-23.648-11.909 1.748-4.349-6.058 13.587-7.137 31.188-10.657 9.765 9.008 21.078-12.74 7.682 2.893 13.62-6.64 2.864-14.929 18.582-5.875 9.18 31.353z" data-name="Cireșu" class="comuna" id="43019"/>
    <path d="M225.306 472.638l-31.188 10.657-13.587 7.137 3.837-13.707-12.252-.373-5.8-60.07 8.48-8.217-3.703-20.786 7.58-7.869 26.833-3.001 12.981 16.674-12.934 4.524 11.869 27.802 6.273-1.257 11.54 34.707-11.645 1.777 1.716 12.002z" data-name="Surdila-Găiseanca" class="comuna" id="44113"/>
    <path d="M249.933 286.094l-5.594 37.27 1.83 24.363 18.12 29.656 10.228 27.829-23.747 8.372 8.42 8.719 7.256 18.086 9.5-3.35 4.37 13.191-2.865 14.93-13.62 6.639-7.683-2.893-21.077 12.74-9.765-9.008-1.716-12.002 11.645-1.777-11.54-34.707-6.273 1.257-11.869-27.802 12.934-4.524-12.981-16.674-26.834 3.001 1.74-7.224 5.66-23.684 9.93.27 12.383-9.296 16.12-27.43-1.906-21.995 27.334-3.957z" data-name="Mircea Vodă" class="comuna" id="43625"/>
    <path d="M616.98 539.18l1.004 16.753-6.413 38.213 5.443 10.79 3.165 21.845 12.456 4.23 6.018 16.549-20.326 11.564-26.773-26.091-4.02-17.815-15.231 8.923-4.044 17.957-30.36 13.425-7.04 9.635-15.864-11.278 3.226-9.914-2.137-52.392-29.461 5.988-20.512-4.644-6.198-5.6.576-14.528-13.009-2.59-.606-14.97 9.674-12.317 51.04 15.12 4.253-18.337 16.967-6.727 7.715-42.927 20.631 5.464 33.16 2.19 27.944 4.531-6.423 17.15 5.145 19.803z" data-name="Stăncuța" class="comuna" id="44060"/>
    <path d="M222.599 290.051l1.905 21.994-16.12 27.43-12.382 9.297-9.93-.27-5.66 23.684-30.107-5.925-14.838 8.012 2.983-11.715-12.61-18.94-13.72-13.074 21.174-6.124 9.045-33.329 10.759 7.157 5.757-13.527 30.38 1.76 8.79-13.991 12.404 5.124 1.23 15.834 10.94-3.397z" data-name="Vișani" class="comuna" id="44462"/>
    <path d="M142.339 291.091l-9.045 33.329-21.173 6.124-24.74-4.73-.437-14.805 7.135-17.81-15.14 2.934-1.07 26.683-18.575 6.853-26.165 15.492 2.292 18.873-11.705 7.262-9.828-12.146L1 343.65l12.056-21.39 23.173-27.89-.176-7.67 4.977-.184 34.146-35.258 25.95 24.54 20.64 13.635 14.093-2.645 6.48 4.303z" data-name="Galbenu" class="comuna" id="43180"/>
    <path d="M602.127 225.514l6.166 17.762 15.104 8.744 8.76-9.419 1.625 13.901 21.142 37.825.79 24.68-25.66 14.148-10.703-17.386-12.305 8.588-33.928-13.643-21.432-4.05-17.225 10.052-12.521-6.219-10.847 4.683 2.81-22.437 21.672-5.741 23.946-26.55-11.699-16.244 54.305-18.694z" data-name="Chișcani" class="comuna" id="42708"/>
    <path d="M653.647 173.823l-2.28 21.485 17.076 16.565 3.724 10.984-14.79-8.393-15.767 8.605-9.452 19.532-8.76 9.419-15.106-8.744-6.165-17.762-2.488-22.523-8.984-3.84 4.268-9.833 11.478-1.257 7.895-18.09 22.173-.234 17.178 4.087z" data-name="Brăila" class="municipiu resedinta" id="42682"/>
    <path d="M672.606 720.813l-16.634-11.492-20.869-7.771-33.982 9.225 6.132-18.841-11.058-2.995 1.065-19.198 22.028-1.921-.961-8.697 20.326-11.563-6.018-16.55-12.456-4.229-3.165-21.845-5.443-10.79 6.413-38.213-1.004-16.753 69.844-1.292-1.212 19.857-6.534 9.587 2.318 20.593-.206 36.71-12.6 5.551 3.841 32.353.175 58.274zm12.55-371.997l-49.083-.369-6.019-15.292 25.66-14.148-.79-24.68-21.142-37.825-1.624-13.9 9.452-19.533 15.767-8.605 14.79 8.393-2.27 15.584 6.637 12.212-1.933 11.765 20.167 14.237.042 66.714-9.654 5.447z" data-name="Mărașu" class="comuna" id="43493"/>
  </g>
</svg>
