<svg xmlns="http://www.w3.org/2000/svg" version="1.2" baseProfile="tiny" stroke-linecap="round" stroke-linejoin="round" viewBox="0 0 800 630">
  <g id="BV">
    <path d="M364.233 602.998l-2.628-6.114-15.594 11.605-10.744-16.509 12.206-10.313-20.557-25.896 1.727-18.795-4.602-9.317 15.715 8.762.682 5.966 14.204 16.059-4.488 13.834 11.936-1.37 8.368 6.22 1.69 10.28-7.916 15.588z" fill="none" stroke="#aaa" id="40991"/>
    <path d="M548.148 508.709l13.165 7.277 16.912 15.895.55 11.026-10.396-8-20.096 6.42-20.116 12.977-2.098 9.834-14.017-3.174-25.129 6.709-10.746-8.53-2.202-22.828 9.496.127 7.824-8.556-3.158-7.922 11.953-8.423 16.778 2.638 6.2 12.717 14.195 8.896 7.367-4.02 6.219-19.175-2.7-3.888z" fill="none" stroke="#aaa" id="40303"/>
    <path d="M378.741 519.196l8.08 10.988-4.24 31.37 5.488 17.883 16.854 16.53 15.887.335.345 17.053-3.976 10.419-22.628-3.047-21.884 8.082-7.472-6.438-.962-19.373 7.914-15.588-1.69-10.28-8.367-6.22-11.936 1.37 4.488-13.834-14.204-16.06-.682-5.965-15.715-8.762-11.813-11.688 8.864-14.437 15.841-6.42 21.903 7.319-3.721 8.502 23.626 8.26z" fill="none" stroke="#aaa" id="41471"/>
    <path d="M445.246 577.277l-13.59 7.199-10.846 11.826-15.887-.335-16.854-16.53-5.488-17.883 4.24-31.37-8.08-10.988 11.763-12.224 7.975 6.069 16.26-10.48 8.653-11.398 5.436 12.611 2.333 26.48-9.568 11.487-.622 12.434 14.453 6.316-2.58 15.437 12.402 1.35z" fill="none" stroke="#aaa" id="40633"/>
    <path d="M325.163 423.303l4.106 8.334 10.707 7.834 1.075 12.357 6.84 14.529 15.837 13.233 9.365-3.71-1.662-8.373 11.58-14.423 27.572 14.29-.943 7.482 6.089 15.372-.99 12.333-16.26 10.48-7.975-6.069-11.763 12.224-23.626-8.261 3.721-8.502-21.903-7.318-15.84 6.42-8.865 14.435-12.359 3.21-7.606-10.29-12.771-7.517-3.353-9.952-23.095-20.59 6.812-8.464-5.94-21.888 8.213-13.056 14.711 2.175 2.733-10.12 20.937-2.814 11.575-.27 13.078 6.909z" fill="none" stroke="#aaa" id="40492"/>
    <path d="M714.453 415.62l6.834 3.94 20.4.032 10.404 7.223-3.759 13.103 21.333 1.53 7.625 9.114-6.719 7.266 10.197 14.827 9.813 2.763 8.419 18.64-6.562 21.827-13.5 15.261-.625 13.358-13.232 5.54-15.08-8.905-4.369-13.407-13.941-2.992 6.511-9.292-5.457-15.299-20.88-9.734 4.605-8.676-11.43-12.687-20.096-14.137 12.417-11.319 4.612-18.393-1.367-8.682 13.847-.9z" fill="none" stroke="#aaa" id="42183"/>
    <path d="M365.908 403.955l13.256 10.55 18.667 5.035 3.74 17.224-18.56 16.32-11.58 14.423 1.662 8.374-9.365 3.71-15.837-13.234-6.84-14.53-1.075-12.356-10.707-7.834-4.106-8.334 5.257-5.789 16.368 2.632 19.12-16.191z" fill="none" stroke="#aaa" id="41621"/>
    <path d="M558.928 402.947l8.895 5.665 10.159 9.533 12.298-1.018 2.186 16.032 10.034 4.987 2.293 24.185 15.565 13.12 12.013 6.298 17.19 3.715 14.43 8.997 19.004 3.436 12.03-9.51 16.84 2.028 20.88 9.734 5.457 15.3-6.511 9.291-23.3-.493-10.131-5.325-6.193 14.457-9.014 10.27 3.537 7.521-5.286 8.87.821 16.29-10.641 8.083-.643 9.674-20.873-4.711-12.147-30.536-9.672-7.407-13.177 10.255-21.416.337-14.637-14.077-.145-5.041-.549-11.026-16.912-15.894-13.165-7.278-3.624-12.62-19.413 15.077-7.006-3.847 1.962-14.558 7.87-7.904 15.217-22.866 12.03-12.513-1.294-30.405-4.583-7.082 9.621-9.044z" fill="none" stroke="#aaa" id="40438"/>
    <path d="M445.676 414.042l-8.567 14.225 7.314 4.2-11.742 22.817-6.38 6.127-15.718 5.963-27.571-14.29 18.56-16.32-3.741-17.224 15.538-3.162-4.108-11.76 13.392 5.178 23.023 4.246z" fill="none" stroke="#aaa" id="42398"/>
    <path d="M623.372 392.593l-3.518 13.4 21.375 12.054 5.556 17.448 7.126 8.268 9.998-.7 11.978 14.649 9.057-2.797 20.096 14.137 11.43 12.687-4.604 8.676-16.842-2.028-12.03 9.51-19.002-3.436-14.432-8.997-17.19-3.715-12.012-6.299-15.565-13.119-2.293-24.185-10.034-4.987-2.186-16.032-12.298 1.018-10.159-9.533 1.792-3.18 26.965-8.606 26.792-4.233z" fill="none" stroke="#aaa" id="42003"/>
    <path d="M639.523 387.297l12.241 11.465 11.889 4.036 23.193 2.002 13.76 11.72 1.367 8.683-4.612 18.393-12.417 11.319-9.057 2.797-11.978-14.65-9.998.701-7.126-8.268-5.556-17.448-21.375-12.055 3.518-13.399 16.15-5.296z" fill="none" stroke="#aaa" id="40688"/>
    <path d="M409.26 404.618l4.11 11.76-15.54 3.162-18.666-5.035-13.256-10.55 15.131-9.685 1.899-8.89 11.294-7.446 13.543-2.328 9.304 2.314-7.818 26.698z" fill="none" stroke="#aaa" id="42472"/>
    <path d="M492.437 359.866l-5.558 30.145 1.222 20.162-5.56 12.102-7.943-.494-15.13-10.493-8.406-3.868 9.448-7.661 22.808-39.426 9.119-.467z" fill="none" stroke="#aaa" id="40214"/>
    <path d="M341.37 358.9l6.704 6.514 11.375 9.366 14.916-12.337 13.434-2.835 19.976 15.998-13.543 2.328-11.294 7.446-1.899 8.89-15.131 9.685-19.12 16.191-16.368-2.632-5.257 5.788-13.078-6.909-11.575.27 4.626-18.596-2.132-19.966 12.073-8.887 3.762-11.381 19.183 8.68 3.348-7.613z" fill="none" stroke="#aaa" id="42449"/>
    <path d="M562.75 344.216l1.214 6.02-8.642 23.544 4.245 16.524-7.157 6.303-2.732-6.313-12.58 6.301-15.514-21.037 5.24-23.59 14.098 4.395 4.576-6.964 12.21-6.23 5.042 1.047z" fill="none" stroke="#aaa" id="41925"/>
    <path d="M138.426 339.345l-2.143 30.958 5.256 4.49-1.592 18.632 9.605 25.159-3.54 9.853-.12 20.615 5.633 14.523-17.424.46-10.75-11.206 3.76-7.093-6.427-9.552-8.845-3.696-13.506 4.081-1.363-19.374 5.19-31.107-1.376-9.923 6.942-28.67 7.528-3.61 18.096-10.8 5.076 6.26z" fill="none" stroke="#aaa" id="41346"/>
    <path d="M649.251 361.233l-7.024 8-2.704 18.064-16.151 5.296-26.792 4.233-6.588-16.546 4.709-2.604-3.951-15.124 7.599-24.983 8.02-4.917 19.293-3.088-.924 8.553 24.695 4.42-3.714 11.92 3.532 6.776z" fill="none" stroke="#aaa" id="41667"/>
    <path d="M470.386 338.36l-1.975 4.232 14.907 17.74-22.808 39.427-9.448 7.66-5.386 6.623-23.023-4.246-13.392-5.178 7.818-26.698-9.304-2.314-19.976-15.998-13.434 2.835-14.916 12.337-11.375-9.366 12.35-16.937 19.216-21.325 16.716 5.115 32.096 5.429 8.966-2.682 22.896 7.046 10.072-3.7z" fill="none" stroke="#aaa" id="40241"/>
    <path d="M239.707 346.914l-2.247 14.507 2.308 23.32 8.385 10.832-1.271 11.643 6.601 22.35 8.646-2.143-8.213 13.056 5.94 21.888-6.812 8.464-11.772 2.716-24.798-8.46-12.352 5.15-18.19-2.855 3.303-21.22 6.677-7.616 10.795-23.396-9.645-14.37-9.248-50.265L193 326.673l2.962 2.296 22.562-4.524 8.762 6.618.761 11.9 11.66 3.95z" fill="none" stroke="#aaa" id="41113"/>
    <path d="M115.254 343.885l-7.528 3.61-6.942 28.67 1.375 9.923-5.189 31.107 1.363 19.374 13.506-4.08 8.845 3.695 6.426 9.552-3.76 7.093 10.75 11.206-26.65 1.237-3.328-11.057-10.646-3.211-8.436 5.897-.902-30.029-3.34-8.711 3.127-14.406 1.174-38.268-1.506-20.37 2.532-30.94 17.07-4 12.059 33.708z" fill="none" stroke="#aaa" id="42464"/>
    <path d="M185.738 318.352l7.262 8.321-5.186 23.842 9.248 50.264 9.645 14.371-10.795 23.396-6.677 7.615-3.302 21.22-11.936-2.347-9.202 8.208-13.27-9.667-5.633-14.523.12-20.615 3.54-9.853-9.605-25.16 1.592-18.63-5.256-4.49 2.143-30.96 6.849-13.4.517-10.541 10.295-9.716 10.213 9.901 19.438 2.764z" fill="none" stroke="#aaa" id="41738"/>
    <path d="M80.933 305.383l5.192 8.794-2.532 30.94 1.505 20.37-1.173 38.268-3.127 14.406 3.34 8.711.902 30.029-13.54-6.186 3.961-13.881-3.813-19.785 4.623-9.346-7.094-21.655-4.102-24.495 1.034-31.926 14.824-24.244z" fill="none" stroke="#aaa" id="42480"/>
    <path d="M557.709 343.17l-12.21 6.229-4.577 6.964-14.098-4.396-2.31-11.02-11.665 1.128 5.316-5.426 7.836-13.856 10.571-11.556-.742-14.497 6.78-1.252 12.615 14.848 8.722 17.281-6.238 15.552z" fill="none" stroke="#aaa" id="40606"/>
    <path d="M348.364 316.27l.702 26.372-7.696 16.258-3.348 7.613-19.183-8.68-3.762 11.381-12.073 8.887 2.132 19.966-4.626 18.597-20.937 2.815-2.733 10.119-14.71-2.175-8.647 2.143-6.601-22.35 1.27-11.643-8.384-10.832-2.308-23.32 2.247-14.507-1.567-11.598 6.43-4.744 17.343 1.416 6.372-12.515 21.9-3.673 6.16-5.55-6.492-11.424 10.688-5.777 39.865 23.213 7.958.008z" fill="none" stroke="#aaa" id="41854"/>
    <path d="M39.146 291.07l.909 10.89-7.665 4.785 12.578 24.169-2.313 33.848 6.967 23.101 1.185 16.485-1.803 48.296-16.192 4.6-7.595-1.392-5.439-9.349-2.825-18.916 4.816-4.704 2.548-18.57-3.16-16.85 2.223-14.817-18.685-41.447L1 307.55l11.887-17.375 20.316-9.449 5.943 10.344z" fill="none" stroke="#aaa" id="42101"/>
    <path d="M84.534 277.16l-3.985 11.85.384 16.373-14.824 24.244-1.034 31.926 4.102 24.495 7.094 21.655-4.623 9.346 3.813 19.785-3.961 13.88-18.732 5.916-3.764-3.986 1.803-48.296-1.185-16.485-6.967-23.1 2.313-33.85-12.578-24.168 7.665-4.784-.909-10.89 7.255-3.092 2.269-12.92 26.061-5.638 9.803 7.738z" fill="none" stroke="#aaa" id="42236"/>
    <path d="M405.72 268.293l6.048 12.281 3.015 16.059 8.627-2.443 17.561 14.137 12.854 19.724 16.75 3.202-.19 7.107-10.07 3.7-22.897-7.046-8.966 2.682-32.096-5.429-16.716-5.115-19.216 21.325-12.35 16.937-6.704-6.514 7.696-16.258-.702-26.372 5.972-4.36 4.431-22.783 16.494-.498 7.452-12.17 23.008-8.166z" fill="none" stroke="#aaa" id="40928"/>
    <path d="M145.792 315.403l-.518 10.542-6.848 13.4-5.076-6.26-18.096 10.8-12.058-33.709-17.071 4.001-5.192-8.794-.384-16.374 3.985-11.85 10.11-20.14 11.631-1.352 13.388-7.976 9.84 14.721 10.313 2.493-.439 15.263 4.5 7.01 1.915 28.225z" fill="none" stroke="#aaa" id="42307"/>
    <path d="M224.92 240.51l14.176 15.725 6.945 2.298-7.943 15.62 5.43 11.767 12.88 9.165-17.19 9.608 5.351 25.879-6.43 4.744 1.568 11.598-11.66-3.951-.761-11.9-8.762-6.618-22.562 4.524-2.962-2.296-7.262-8.321.274-7.005 3.591-9.005-3.364-17.573 8.662-.508 7.479-8.14 3.934-22.444-1.073-10.206 7.562 1.775 12.117-4.737z" fill="none" stroke="#aaa" id="41417"/>
    <path d="M205.241 243.47l1.073 10.207-3.934 22.444-7.478 8.14-8.663.508 3.364 17.573-3.591 9.005-13.477-11.397-6.895-28.077 11.935-14.281-4.02-9.405 8.192-4.91 9.533 1.385 6.346-13.049 7.615 11.858z" fill="none" stroke="#aaa" id="40278"/>
    <path d="M269.225 230.533l12.22.656 17.112 8.817 1.174 5.552-16.178 8.092 6.02 20.603.28 24.573 6.492 11.425-6.16 5.549-21.9 3.673-6.372 12.515-17.344-1.416-5.35-25.88 17.189-9.607-12.88-9.165-5.43-11.768 7.943-15.62-6.945-2.297-14.176-15.726 11.922-3.243 5.878-9.421 17.021 6.663 9.484-3.975z" fill="none" stroke="#aaa" id="41818"/>
    <path d="M408.377 261.789l-2.656 6.504-23.008 8.166-7.452 12.17-16.494.498-4.431 22.783-5.972 4.36-7.958-.008-39.865-23.213-10.688 5.777-.28-24.573-6.02-20.603 16.178-8.092-1.174-5.552 12.336-11.555 17.1 5.445-.223 6.933 26.363 1.192 12.178 7.443 10.3 11.838 31.766.487z" fill="none" stroke="#aaa" id="41578"/>
    <path d="M498.688 246.397l-11.998 4.582-14.512-4.926-7.281-6.709-10.965-1.138-6.094 12.004-12.147 6.502-20.802-3.461.12-7.906 18.395-12.455-8.136-17.394 8.163-10.436 13.545 9.985 28.936.244 16.103-13.124 6.425 6.628-4.33 22.604 11.936-3.726 18.806 4.465-9.63 14.915-16.534-.654z" fill="none" stroke="#aaa" id="41382"/>
    <path d="M323.838 201.28l7.938 7.614 18.227 2.559 11.822 11.612 25.225 10.691 9.16 10.719 11.961-4.575 6.837 5.445-.12 7.906-6.51 8.538-31.767-.487-10.3-11.838-12.178-7.443-26.363-1.192.223-6.933-17.1-5.445-12.336 11.555-17.112-8.817-12.22-.656 8.77-17.682-5.44-8.827-1.354-26.091 7.69 4.353 17.462-.203 12.479 5.673 15.006 13.525z" fill="none" stroke="#aaa" id="40857"/>
    <path d="M245.335 173.075l9.218 4.619 16.648.239 1.355 26.09 5.44 8.828-8.771 17.682-9.484 3.975-17.021-6.663-21.27-15.19-8.858-19.19-13.626-6.032.199-9.048 19.787-17.206 26.383 11.896z" fill="none" stroke="#aaa" id="42076"/>
    <path d="M489.578 161.21l-.961 20.996 4.016 5.914-.618 14.045-16.103 13.124-28.936-.244-13.545-9.985 1.283-16.543 13.265-6.63-3.992-12.314 13.177-12.529 9.856-1.569 22.558 5.734z" fill="none" stroke="#aaa" id="40526"/>
    <path d="M391.235 134.733l34.412 15.172 4.095 10.526 14.245 9.142 3.992 12.313-13.265 6.63-1.283 16.544-8.163 10.435 8.136 17.395-18.396 12.455-6.837-5.445-11.961 4.575-9.16-10.719-25.225-10.691-11.822-11.612-18.227-2.56-7.938-7.612-4.918-14.517 7.442-4.627 6.464-15.465 14.332-3.226 20.356-12.583-1.182-17.405 9.205-6.252 15.698 7.527z" fill="none" stroke="#aaa" id="41177"/>
    <path d="M343.828 130.988l3.76 4.254 18.744-1.784 1.182 17.405-20.356 12.583-14.332 3.226-6.464 15.465-7.442 4.627 4.918 14.517-15.006-13.525-12.479-5.673-17.462.203-7.69-4.353-16.649-.239-9.217-4.62 18.617-6.253 8.528-7.363 31.71-10.905 11.51-1.12 21.52-25.32 6.608 8.875z" fill="none" stroke="#aaa" id="42156"/>
    <path d="M489.578 161.21l-22.558-5.734-9.856 1.568-6.897-10.234-1.633-21.118 8.493-2.347 6.467 10.617 17.173-5.675 20.24.6.965-9.106 9.048 7.79-6.73 18.272-5.123 1.205-9.589 14.161z" fill="none" stroke="#aaa" id="41541"/>
    <path d="M273.065 101.122l8.438 4.175 11.291 12.112-3.006 8.021 14.402 23.123-31.71 10.905-8.528 7.363-18.617 6.254-26.383-11.896-19.787 17.206-.2 9.048-14.198 1.894-4.454 7.305-18.473-11.93-1.47-16.16 11.469-22.386-2.435-17.39-10.768-14.37 8.398-8.633 10.936-4.683 14.828-1.357 6.942 8.615 19.226-2.158 19.107 14.505 17.589.085 17.403-19.648z" fill="none" stroke="#aaa" id="41284"/>
    <path d="M325.35 87.809l-5.034 13.384 16.904 20.92-21.52 25.32-11.51 1.12-14.402-23.123 3.006-8.02-11.291-12.113-8.438-4.175-4.074-7.569-10.93-5.386 18.405-19.002 19.227-4.76 17.915 4.178 12.33 12.337-.589 6.889z" fill="none" stroke="#aaa" id="40394"/>
    <path d="M441.393 82.908l-21.44 2.55-4.844 19.319-15.929 6.541-15.116 12.866 7.171 10.549-15.698-7.527-9.205 6.252-18.744 1.784-3.76-4.254-6.608-8.875-16.904-20.92 5.034-13.384 31.69 9.098 6.53-20.965 8.138-7.469 14.74-23.612 12.987-.875 16.986 2.18 9.789 7.107 15.793 1.934-.61 27.7z" fill="none" stroke="#aaa" id="41248"/>
    <path d="M399.435 43.986l-12.987.875-14.74 23.612-8.139 7.47-6.529 20.964-31.69-9.098.589-6.889-12.332-12.337-17.914-4.177-.09-10.77-36.406-14.677 5.484-.476 13.83-12.034 20.053-10.217L331.4 39.08l5.966-7.732 2.92-13.402-7.956-6.71L336.183 1l7.823 2.445.805 12.806 10.25-4.94 19.455-1 24.919 33.675z" fill="none" stroke="#aaa" id="40768"/>
    <path d="M481.427 301.903l2.804 11.779 17.471-5.558 18.69 6.814-6.027 19.59 3.8 2.121-5.316 5.426-7.903 10.405-12.51 7.386-9.118.467-14.907-17.741 1.975-4.232.188-7.107-16.75-3.202-12.853-19.724 9.494-.079 8.51-7.89 22.452 1.545z" fill="none" stroke="#aaa" id="41033"/>
    <path d="M435.69 256.712l18.146 9.101 2.902 7.036 11.696 7.714 13.743 1.641-.75 19.7-22.452-1.545-8.51 7.89-9.493.077-17.561-14.136-8.628 2.443-3.015-16.059-6.047-12.281 2.656-6.504 6.512-8.538 20.802 3.461z" fill="none" stroke="#aaa" id="42456"/>
    <path d="M498.688 246.397l2.602 18.613 8.377 14.2 18.964 1.408 7.2 16.122.741 14.497-10.571 11.556-7.836 13.856-3.8-2.122 6.027-19.59-18.69-6.813-17.47 5.558-2.805-11.779.75-19.699-13.743-1.64-11.696-7.715-2.902-7.036-18.145-9.1 12.147-6.503 6.094-12.004 10.965 1.138 7.281 6.709 14.512 4.926 11.998-4.582z" fill="none" stroke="#aaa" id="40955"/>
    <path d="M181.747 243.277l-8.192 4.91 4.02 9.405-11.935 14.28 6.895 28.077 13.477 11.397-.274 7.006-19.438-2.764-10.213-9.901-10.295 9.716-1.915-28.225-4.5-7.01.44-15.264-10.314-2.492-9.84-14.721 4.395-3.268 8.614-9.149 5.794-17.374 25.668-.654 12.885 10.924 4.728 15.107z" fill="none" stroke="#aaa" id="40544"/>
    <path d="M459.468 411.288l-13.509 21.887-1.604 7.057 11.395 5.749 4.276 13.383 11.512 3.197 8.656 27.317 11.756 4.933 9.675-9.579 5.61 14.653-7.145 11.656-11.953 8.423 3.158 7.922-7.824 8.556-9.496-.127 2.202 22.827-27.235 12.856-3.696 5.28-12.403-1.35 2.58-15.437-14.452-6.316.622-12.433 9.568-11.488-2.333-26.48-5.436-12.61-8.652 11.397.989-12.333-6.089-15.372.943-7.482 15.718-5.963 6.38-6.127 11.742-22.816-7.314-4.201 8.567-14.225 5.386-6.622 8.406 3.868z" fill="none" stroke="#aaa" id="40367"/>
    <path d="M606.368 332.652l-8.019 4.918-7.6 24.982 3.952 15.124-4.71 2.605 6.589 16.546-26.965 8.605-1.792 3.18-8.895-5.665-6.518-6.34 7.157-6.303-4.245-16.524 8.642-23.543-1.214-6.02 12.637-11.5 2.088-8.461 23.086 1.31 5.807 7.086z" fill="none" stroke="#aaa" id="41088"/>
    <path d="M99.105 168.212l16.268 8.537 3.334 14.514-5.238 15.684.956 22.324 6.73 3.599 2.903 11.553-4.395 3.268-13.388 7.976-11.632 1.351-10.109 20.141-9.803-7.738-2.186-18.391-30.039-21.372-6.532-34.48 9.8-4.418 15.081 8.45 12.155-20.744-1.21-10.674 27.305.42z" fill="none" stroke="#aaa" id="40820"/>
    <path d="M158.636 114.396l10.768 14.37 2.435 17.39-11.469 22.386 1.47 16.16 18.473 11.93 4.454-7.305 14.199-1.894 13.626 6.033 8.858 19.19 21.27 15.189-5.878 9.42-11.922 3.244-12.117 4.737-7.562-1.775-7.615-11.858-6.346 13.05-9.533-1.386-4.729-15.107-12.884-10.924-25.668.654-5.794 17.374-8.614 9.149-2.904-11.553-6.73-3.599-.955-22.324 5.239-15.684-3.335-14.514-16.268-8.537 10.431-8.947-10.331-14.654 24.858-3.141 5.203-15.1 12.089-9.59 17.28-2.384z" fill="none" stroke="#aaa" id="41943"/>
    <path d="M441.393 82.908l-1.12 8.485 16.952 10.39 12.952 11.139-13.05 10.422-8.493 2.348 1.633 21.118 6.897 10.234-13.177 12.529-14.245-9.142-4.095-10.526-34.412-15.172-7.171-10.549 15.116-12.866 15.928-6.541 4.846-19.32 21.439-2.55z" fill="none" stroke="#aaa" id="41701"/>
    <path d="M501.972 119.78l-.966 9.106-20.239-.6-17.173 5.676-6.467-10.617 13.05-10.423 19.994-5.089 9.916 2.868 1.885 9.08z" fill="none" stroke="#aaa" id="42498"/>
    <path d="M259.197 38.959l36.406 14.678.09 10.769-19.227 4.759-18.404 19.002 10.929 5.386 4.075 7.569-17.404 19.648-17.59-.085-19.106-14.505-19.226 2.158-6.942-8.615-14.828 1.357-10.158-13.146.017-11.512 6.325-14.458 10.7-10.302 22.5-12.807 14.688 6.795 17.448-12.607 12.034-.52 7.673 6.436z" fill="none" stroke="#aaa" id="40704"/>
    <path d="M714.453 415.62l-13.847.9-13.76-11.72-23.193-2.002-11.889-4.036-12.241-11.465 2.704-18.065 7.024-8 11.88.805 2.244 9.748 29.966.012 13.31 12.425 19.622 6.259-2.486 17.853-9.334 7.287z" fill="none" stroke="#aaa" id="42058"/>
    <path d="M482.542 422.275l-7.292 8.661 6.736 11.586-10.447 20.04-11.513-3.198-4.276-13.383-11.395-5.749 1.604-7.057 13.51-21.887 15.13 10.493 7.943.494z" fill="none" stroke="#aaa" id="40900"/>
    <path d="M526.824 351.967l-5.24 23.591 15.515 21.037 12.58-6.3 2.731 6.312 6.518 6.34-9.62 9.044 4.582 7.082 1.294 30.405-12.03 12.513-15.218 22.867-7.87 7.903-1.96 14.558 7.005 3.847 19.413-15.076 3.624 12.619 2.7 3.888-6.218 19.176-7.367 4.02-14.195-8.897-6.2-12.717-16.778-2.638 7.144-11.656-5.609-14.653-9.675 9.579-11.755-4.933-8.656-27.317 10.447-20.039-6.736-11.586 7.292-8.661 5.559-12.102-1.222-20.162 5.558-30.145 12.51-7.386 7.902-10.405 11.666-1.128 2.31 11.02z" fill="none" stroke="#aaa" id="40198"/>
  </g>
</svg>
