<svg xmlns="http://www.w3.org/2000/svg" version="1.2" baseProfile="tiny" stroke-linecap="round" stroke-linejoin="round" viewBox="0 0 800 873">
  <g id="BZ" fill="none" stroke="#aaa">
    <path d="M417.968 754.959l22.413 31.822 27.105-18.741 8.802 13.21 7.502-5.159 6.302 8.358-7.686 11.801-.44 9.502-7.117 11.872-11.54-7.057-9.097 14.473-11.844 2.196-20.117-15.881-33.89 5.633-2.98-8.473-25.14 7.44 8.533-36.012 26.17-19.83 2.655 4.396 16.968-11.288 3.401 1.738z" id="46910"/>
    <path d="M571.315 783.747l-13.296 16.686-19.615 30.388-33.484-13.56-5.048.536-17.905-12.045.439-9.502 7.686-11.8-6.302-8.359 7.921-6.751 9.82-17.211 11.87 12.847 21.359 16.652 3.626-10.845 32.93 12.964z" id="49439"/>
    <path d="M377.327 737.524l8.947 24.031 8.67-1.442-26.17 19.83-8.533 36.013-15.551-9.446-7.998 7.912-7.835-22.391-10.717-22.018 4.315-3.675 15.14-11.496 4.555-20.62 13.751 8.263 21.426-4.96z" id="46867"/>
    <path d="M610.542 719.89l18.266 4.99-7.031 22.205 11.816 4.064 3.62-8.8 39.639 12.114-.573 2.081 1.249 8.258 11.008 3.42-15.048 60.933-27.923-1.501L641.638 845l10.981 8.61 12.494 4.482-4.504 13.392-26.551.457-21.48-7.129 6.827-30.86-32.447-11.496-28.939-22.023 13.296-16.686 7.45-9.954 20.111-44.23 11.666-9.673z" id="48138"/>
    <path d="M397.824 718.662l1.444 12.196-21.94 6.667-21.427 4.96-13.75-8.263-8.32-29.2 9.97-3.923 14.3 3.031 2.55 5.85 12.917-.28-2.51 10.058 26.766-1.096z" id="47578"/>
    <path d="M422.748 702.015l.631 9.587 11.955.41-5.2 17.71 13.396 1.535 3.448-4.537-1.695 8.074-27.315 20.165-3.401-1.738-16.968 11.288-2.656-4.396-8.669 1.442-8.947-24.03 21.94-6.667-1.443-12.196-4.516-13.97 29.44-2.677z" id="50564"/>
    <path d="M500.479 702.298L486.161 739.7l15.37 12.429-9.82 17.21-7.92 6.752-7.503 5.16-8.802-13.212-27.105 18.742-22.413-31.822 27.315-20.165 1.695-8.074 12.537-16.63 5.798-11.95 9.374 4.45 7.825-8.723 17.967 8.43z" id="45496"/>
    <path d="M537.606 687.99l53.248 18.905-6.923 17.19 14.945 5.477-20.11 44.23-7.45 9.955-32.93-12.964-3.626 10.845-21.359-16.652-11.87-12.847-15.37-12.429 14.318-37.403 17.063 1.341 10.25 4.345 9.814-19.992z" id="48744"/>
    <path d="M343.8 701.1l-9.97 3.922 8.32 29.2-4.556 20.62-15.14 11.496-9.205-11.331-4.686 3.206-18.855-26.802-10.28-.767-3.111-18.738 39.81-14.559-4.323-6.667-3.484-7.534 35.93-10.45 8.505 11.627-2.608 12.991-6.347 3.785z" id="44863"/>
    <path d="M663.581 665.175l-7.47 21.844-19.324 39.83-7.98-1.968-18.265-4.991 10.439-30.936 2.008-19.185-11.466-5.141 1.346-8.606 10.16-3.852 8.788-.052 10.307 7.911 21.457 5.146z" id="47159"/>
    <path d="M607.57 637.537l15.458 14.633-10.16 3.852-1.345 8.606 11.466 5.14-2.008 19.186-10.44 30.936-11.665 9.672-14.944-5.477 6.922-17.19-53.248-18.904 9.19-27.753 6.392-20.562 12.377 9.578 30.787-3.849 11.218-7.868z" id="47300"/>
    <path d="M353.506 635.457l9.64 8.27 18.709 19.959 8.075-6.263 12.03 6.27 13.226 6.953-5.8 8.777 13.361 22.592-29.44 2.677 4.517 13.97-26.766 1.096 2.51-10.058-12.917.28-2.55-5.85-14.3-3.03 6.346-3.786 2.608-12.991-8.505-11.627-3.685-13.317 16.055-7.586-7.583-11.347 4.469-4.99z" id="47774"/>
    <path d="M676.279 756.544l.573-2.081-39.639-12.114-3.62 8.8-11.816-4.064 7.03-22.204 7.98 1.967 19.324-39.83 7.47-21.843 18.124-13.802 9.335 4.759 2.511-21.255 2.293 21.095 18.5-.67-7.435 39.347-16.642 65.414-13.988-3.519z" id="49046"/>
    <path d="M508.164 651.08l25.072 7.52 13.56 1.638-9.19 27.753-9.814 19.992-10.25-4.345-17.063-1.34-17.967-8.43-7.825 8.721-9.374-4.45-5.798 11.95-12.537 16.63-3.448 4.538-13.397-1.534 5.2-17.712-.438-23.442 23.169-41.607 5.597-15.03 4.374 4.765 21.852 7.544 11.467 11.188 6.81-4.349z" id="49545"/>
    <path d="M463.66 631.931l-5.596 15.031-23.169 41.607.439 23.442-11.955-.409-.632-9.587-13.36-22.592 5.799-8.777-13.226-6.953 2.537-11.603 30.555-41.833 15.432 12.803 6.402 14.41 6.775-5.539z" id="46803"/>
    <path d="M329.075 643.69l11.49 15.688 3.685 13.318-35.93 10.45 3.484 7.534-9.236-6.026-13.521-22.76-11.97-2.74-3.13-9.737-11.41 1.874-10.442 6.393-9.08-27.86 12.746-5.233 7.314-8.37 9.516 6.732 23.602-14.14 16.704 26.103 5.31 11.774 10.868-3z" id="49153"/>
    <path d="M607.57 637.537l-11.218 7.868-30.787 3.85-12.377-9.58 3.565-21.734-6.514-2.46-2.206-17.693 4.042-6.288 8.185 2.135 8.132-6.977 20.142-.472 23.654 38.025-4.618 13.326z" id="46251"/>
    <path d="M433.344 571.926l3.62 20.649 6.151 6.612-8.063 11.07-30.555 41.833-2.537 11.603-12.03-6.27-8.075 6.263-18.708-19.958 37-38.82.645-15.448 5.16-8.837 12.258-.515 15.134-8.182z" id="46484"/>
    <path d="M496.843 577.658l-11.913 18.276 17.308 6.93-2.387 22.752 8.313 25.464-6.81 4.349-11.466-11.188-21.853-7.544-4.374-4.766-6.775 5.538-6.402-14.409-15.432-12.803 8.063-11.07-6.151-6.612-3.62-20.649 15.327-4.748 12.154 14.929 4.024-7.973 11.622-8.204 11.061 3.097 9.31 8.63z" id="49849"/>
    <path d="M693.551 634.877l-2.51 21.255-9.336-4.76-18.124 13.803-21.457-5.146-10.307-7.91-8.789.05-15.458-14.632 4.618-13.326-23.654-38.025 5.33-10.073 22.493-2.546 3.508-8.055 11.783 10.1 13.455-13.158 13.046 14.295 9.794-.687-3.084 53.452 29.334-.106-.642 5.469z" id="45815"/>
    <path d="M552.075 591.5l-4.042 6.288 2.206 17.693 6.514 2.46-3.565 21.735-6.392 20.562-13.56-1.638-25.072-7.52-8.313-25.464 2.387-22.753-17.308-6.929 11.913-18.276.374-10.73 11.792-7.7 17.543 11.238 11.254 11.939 14.269 9.095z" id="46769"/>
    <path d="M418.21 580.108l-12.259.515-5.16 8.837-.644 15.449-37 38.819-9.641-8.271 1.656-2.396 8.764-12.354-8.262-15.81 14.916-18.341 2.264-10.067 33.336-18.756 12.03 22.375z" id="49625"/>
    <path d="M257.498 534.262l-.853 19.802 4.628 6.678-2.154 24.847 3.956 30.632-7.314 8.37-12.745 5.232-8.875-25.205-10.047-2.496 5.373-15.435-4.074-28.232 11.541-12.727 12.025-.861 8.54-10.605z" id="47854"/>
    <path d="M287.11 521.38l3.242 20.916-4.096 19.765-1.635 22.832 11.572 23.92-23.602 14.14-9.516-6.732-3.956-30.632 2.154-24.847-4.628-6.678.853-19.802.503-5.44 20.386-8.366 8.722.923z" id="45619"/>
    <path d="M645.103 562.454l-13.455 13.159-11.783-10.101-17.514-17.223-6.372-11.856 8.132 10.052 9.686-6.01-1.897-15.618 21.878-12.31 1.337 11.308 9.988 38.599z" id="49019"/>
    <path d="M300.953 536.243l-2.688 10.82 15.654 15.103 4.591 14.886 8.672-1.046 1.872 12.673 26.108 44.382-1.656 2.396-4.469 4.99-3.739-12.241-18.913-28.388-11.975 10.563-2.182 7.885 9.547 10.341 7.3 15.083-10.868 3-5.31-11.774-16.704-26.103-11.572-23.92 1.635-22.832 4.096-19.765-3.243-20.917 10.973-10.48 5.406 17.825-2.535 7.519z" id="48487"/>
    <path d="M388.321 533.642l9.43 3.504 8.366-4.814 9.16 18.1-9.097 7.301-33.336 18.756-2.264 10.067-14.916 18.342-16.265-25.706-12.217-3.186-8.672 1.046-4.59-14.886-15.655-15.103 2.688-10.82 31.3-23.566 4.973-2.751 21.279 6.65 1.069 7.096 9 6.269 19.747 3.701z" id="47453"/>
    <path d="M411.982 508.443l12.384 6.102 9.142-1.43 13.623 6.221 21.646 10.288 10.938 17.955 9.783 4.358-.313 7.056 8.032 7.936-.374 10.729-9.311-8.631-11.061-3.097-11.622 8.204-4.024 7.973-12.154-14.929-15.327 4.748-15.134 8.182-12.03-22.375 9.097-7.301-9.16-18.1-8.366 4.814-9.43-3.504-8.55-7.2 7.339-7.906 14.281-8.103 10.591-1.99z" id="44818"/>
    <path d="M585.313 523.606l10.666 12.827 6.372 11.856 17.514 17.223-3.508 8.055-22.494 2.546-5.329 10.073-20.142.472-8.132 6.977-8.185-2.135-14.269-9.095-11.254-11.939-17.543-11.238 19.585-28.832 13.543-25.293 9.201.874 33.975 17.629z" id="49073"/>
    <path d="M502.11 485.64l23.007 13.44 17.02 6.023-13.543 25.293-19.585 28.832-11.792 7.7-8.032-7.935.313-7.056-9.784-4.358-10.937-17.955-21.646-10.288 1.651-19.396 6.929-15.108 12.539-3.517 27.336 13.102 6.525-8.777z" id="49956"/>
    <path d="M439.993 465.107l15.718 19.725-6.929 15.108-1.651 19.397-13.623-6.223-9.142 1.431-12.384-6.102-9.873-13.796 24.652-17.02 6.02-14.528 7.212 2.008z" id="47373"/>
    <path d="M591.17 464.12l13.867 11.921 9.284.436.145 6.347-19.176 23.081-9.977 17.7-33.975-17.628-9.201-.874-17.02-6.023-23.006-13.44 24.907-31.81 27.44 7.75 22.285 3.778 9.498 4.315 4.929-5.553z" id="46377"/>
    <path d="M325.068 453.838l4.86 15.638.672 12.76 5.606 1.826 1.679 15.292-5.632 13.323-31.3 23.566 2.535-7.519-5.406-17.826-10.973 10.481-8.722-.923L258 528.821l-.503 5.441-8.539 10.605-12.025.86-5.74-21.36-.518-25.462 22.1-7.86 3.486-7.5 17.213-21.466 13.72-3.823 10.665 9.887 13.31-7.577 13.898-6.728z" id="49643"/>
    <path d="M176.645 447.411l8.646 11.891 24.679 5.751 5.421 12.007-6.5 10.209 12.31 18.857-12.569 11.868-14.558-2.29-12.276 16.934-13.502-4.796-4.417-25.684 6.107-14.714-14.877-3.075 6.653-13.272-9.443-19.238 10.855-5.073 13.471.625z" id="46313"/>
    <path d="M436.114 451.065l3.88 14.042-7.214-2.008-6.02 14.528-24.651 17.02-13.726-23.865-2.124-11.778 8.174-4.354-.313-9.434 14.742 4.895.403 6.547 26.85-5.593z" id="49206"/>
    <path d="M386.26 459.004l2.123 11.777 13.726 23.866 9.873 13.796-10.591 1.99-14.281 8.103-7.338 7.906 8.55 7.2-19.748-3.702-9-6.268-1.07-7.095-21.278-6.651-4.973 2.751 5.632-13.323-1.679-15.292-5.606-1.827-.671-12.759-4.861-15.638 18.283-13.948 22.666-5.726 8.636 2.387 11.606 22.453z" id="50102"/>
    <path d="M152.319 451.859l9.443 19.238-6.653 13.273-16.362 12.69-9.926-4.139-17.6-.573-17.856-29.359 1.826-13.757 16.86-4.228.608-10.228 20.807-14.915 8.374 14.022 9.08 9.182 1.399 8.794z" id="45753"/>
    <path d="M311.17 460.566l-13.31 7.577-10.665-9.887-13.72 3.823-16.328-9.446 6.447-10.982 31-10.347 3.141-8.773 12.933 2.026 3.543-7.17 2.162 4.261-6.765 30.546 1.562 8.372z" id="47337"/>
    <path d="M646.697 447.148l-28.258 29.177-4.118.152-9.284-.436-13.867-11.921 24.02-27.371 14.692-19.52 22.282 24.105-5.467 5.814z" id="44989"/>
    <path d="M343.351 439.89l-18.283 13.948-13.898 6.728-1.562-8.372 6.765-30.546-2.162-4.26 15.299-1.575 5.665 9.502 8.722 4.51-.546 10.065z" id="50549"/>
    <path d="M220.733 419.096l30.644 35.23 5.77-1.693 16.328 9.446-17.213 21.465-3.486 7.5-22.1 7.861-9.474 7.221-12.311-18.857 6.5-10.209-5.421-12.007-24.679-5.75 12.227-10.464 9.608-12.526-4.873-8.022 12.496-15.17 5.984 5.975z" id="50326"/>
    <path d="M536.64 434.042l-9.622 19.787-24.907 31.81-6.525 8.778-27.336-13.102-12.54 3.517-15.717-19.725-3.879-14.042-1.327-8.665 18.335-2.911-8.274-17.789 5.22-11.644 3.502 5.922 15.206 5.037-2.217 9.498 17.526 3.26 52.556.269z" id="48771"/>
    <path d="M613.784 390.647l-2.488 4.33 20.158 12.774-1.572 9.478-14.692 19.52-24.02 27.37-4.929 5.554-9.498-4.315-22.284-3.777-27.441-7.752 9.623-19.787 4.252-10.527-1.888-9.45 7.299-3.192 7.687-.743 21.232 3.42 17.375-29.745 21.186 6.842z" id="50479"/>
    <path d="M450.068 410.056l-5.22 11.644 8.274 17.789-18.335 2.911-9.897-8.846-1.388-32.848 1.475-13.88 6.137-6.616 6.956 3.284 11.998 26.562z" id="45334"/>
    <path d="M639.225 380.57l18.403 1.046-3.923 7.62 18.27 9.88-5.296 12.445 21.41 18.5-19.917 37.395-21.475-20.308 5.467-5.814-22.282-24.105 1.572-9.478-20.158-12.775 2.488-4.33 6.143-11.197 19.298 1.12z" id="46830"/>
    <path d="M424.977 386.827l-1.475 13.879 1.388 32.848 9.897 8.846 1.327 8.665-26.849 5.593-.403-6.547-14.742-4.895-6.294-22.53-2.173-18.748 2.89-25.437-1.058-1.357 11.521 2.086 3.293-5.485 11.837 9.863 10.841 3.219z" id="46019"/>
    <path d="M314.21 417.388l-3.542 7.17-12.933-2.027-3.142 8.773-30.999 10.347-6.447 10.982-5.77 1.692-30.644-35.23 14.387.025 27.725-21.991 17.213-5.795 12.576-8.686-1.115-10.32 1.394-1.363 9.525 23.69 4.592 3.036 7.18 19.697z" id="48557"/>
    <path d="M388.542 378.501l-2.89 25.437 2.174 18.748 6.294 22.53.313 9.434-8.174 4.354-11.606-22.454-8.636-2.387-22.666 5.727.546-10.065-8.722-4.51-5.665-9.502-15.3 1.575-7.18-19.697-4.592-3.035-9.525-23.69 9.636-1.68 7.78 1.38 9.725 12.152 7.482 3.38 26.64.908 34.366-8.605z" id="45101"/>
    <path d="M291.52 372.329l1.114 10.32-12.576 8.685-17.213 5.795-27.725 21.991-14.387-.024-5.984-5.975 12.427-7.548-14.385-21.756 1.828-7.942-6.564-11.026 28.278-2.745 20.139-8.638 8.777 15.178 9.075-1.284 17.195 4.969z" id="46554"/>
    <path d="M732.34 354.713l-11.982 41.405 21.243 4.382 22.482-23.138 5.886 14.343-.6 18.49-7.415 11.59-7.642 1.914-15.097-7.958-8.675 19.006 12.136 6.888-6.647 11.751 13.806 5.468-8.749 17.442-25.141-1.456-4.764 11.194-14.266-9.483 11.261-30.187-13.957-8.154 5.371-33.686 7.35-21.96 5.866-25.702 12.093 2.483 7.442-4.632z" id="44934"/>
    <path d="M712.806 356.862l-5.866 25.702-7.35 21.96-5.37 33.686 13.956 8.154-11.261 30.187-11.663 2.188-17.08-11.283 19.918-37.395-21.411-18.5 5.295-12.445-18.269-9.88 3.923-7.62 15.738-30.054 39.44 5.3z" id="45361"/>
    <path d="M209.897 361.348l-2.106 2.764-6.62 9.8-16.513 12.47-10.906 3.846 3.393 16.996-5.804 32.087 5.304 8.1-13.471-.625-10.855 5.073-1.399-8.794-9.08-9.182-8.374-14.022-.188-6.58-12.508-15.772-1.633-24.633-.344-2.11 17.483-4.999 21.046 3.405 6.397-2.709 13.02-16.122 5.48 3.877 27.678 7.13z" id="48325"/>
    <path d="M459.726 347.353l12.155 1.193-.594 18.2 6.323 25.89 10.757 4.973 8.534-10.827 19.002 14.142 15.19 2.728 15.211 7.22-7.299 3.192 1.888 9.451-4.252 10.527-52.556-.27-17.526-3.26 2.216-9.497-15.205-5.037-3.502-5.922-11.998-26.562-6.956-3.284 4.09-16.18 21.777-2.04 2.745-14.637z" id="50415"/>
    <path d="M493.708 348.695l17.404 14.216 12.037 20.24-9.942 9.522 17.887 10.98-15.191-2.729-19.002-14.142-8.534 10.827-10.757-4.974-6.323-25.889.594-18.2 21.827.15z" id="48922"/>
    <path d="M597.85 353.993l-5.252 29.812-17.375 29.745-21.232-3.42-20.054-24.31-6.488-12.638 27.387-28.268 1.848-1.838 7.49-.65 7.862 13.73 16.886 3.117 8.929-5.28z" id="50022"/>
    <path d="M321.366 308.023l19.398 24.873-6.84.972-1.322 11.27-9.533 13.623-13.036-.136-15.337-7.017 2.387-15.437-10.079-11.714 1.107-10.07 17.92-.745 7.597-8.086 7.738 2.467z" id="45888"/>
    <path d="M288.11 314.386l-1.106 10.07 10.08 11.715-2.388 15.437 7.853 17.678-9.636 1.68-1.394 1.363-17.195-4.97-9.075 1.285-8.777-15.178 6.303-16.996-4.99-4.91 6.522-3.76-.916-16.957 16.583-3.707 8.137 7.25z" id="48021"/>
    <path d="M203.985 307.386l9.874 19.093-3.935 11.274 8.836 15.217-8.863 8.378-27.677-7.13-5.48-3.877-5.152-15.374-5.52-5.742 7.522-11.34 1.707-11.72 28.688 1.221z" id="46439"/>
    <path d="M639.225 380.57l-19.298-1.12-6.143 11.197-21.186-6.842 5.253-29.812 9.854-10.292 1.025-27.637 15.949-1.357 13.208-11.623 2.097 1.645-4.616 38.048 5.814 2.901-2.306 13.653.35 21.239z" id="48968"/>
    <path d="M440.51 323.687l8.836 4.466 4.526 13.678 5.854 5.522-2.745 14.637-21.776 2.04-4.09 16.18-6.138 6.617-10.84-3.219-11.838-9.863-3.293 5.485-11.52-2.086-2.309-3.526 1.449-21.848-6.125-28.396 19.764-8.56 7.484 1.653 26.64-11.695 4.14 3.092 1.98 15.823z" id="45003"/>
    <path d="M495.119 301.99l5.572 19.805-13.013 3.72-1.301 13.522 7.331 9.658-21.827-.149-12.155-1.193-5.854-5.522-4.526-13.678-8.836-4.466 16.852-5.093 11.08-10.923 23.576-6.622 3.1.94z" id="47818"/>
    <path d="M554.836 344.914l-27.387 28.268 6.488 12.638 20.054 24.31-7.687.743-15.21-7.22-17.887-10.98 9.942-9.522-12.037-20.24-17.404-14.216-7.331-9.658 1.301-13.522 13.013-3.72-5.572-19.805 10.27-3.449 29.15 40.072 11.607-.954 8.69 7.255z" id="47006"/>
    <path d="M224.095 288.375l.935 14.629 9.712 5.59-4.941 19.844 27.985 3.122 4.989 4.91-6.303 16.996-20.139 8.638-28.278 2.745-.264-.737 2.106-2.764 8.863-8.378-8.836-15.218 3.935-11.273-9.874-19.093 9.916-4.743 4.021-12.946 6.173-1.322z" id="45389"/>
    <path d="M340.43 285.12l5.832 1.978 7.887 15.359 24.329 7.117 2.023 13.8 6.125 28.396-1.449 21.848 2.308 3.526 1.057 1.357-34.366 8.605-26.64-.908-7.482-3.38-9.725-12.152-7.78-1.38-7.853-17.678 15.337 7.017 13.036.136 9.533-13.623 1.321-11.27 6.841-.972-19.398-24.873 12.754-24.64 6.31 1.737z" id="49313"/>
    <path d="M442.09 277.613l2.805 7.303 23.548 22.755-11.081 10.923-16.852 5.093-1.981-15.823-4.14-3.092-2.441-6.47-13.078 1.457-1.942-16.004 12.833-9.586 12.328 3.444z" id="47417"/>
    <path d="M324.894 276.205l9.226 7.179-12.754 24.639-7.738-2.467-7.598 8.087-17.92.743-8.136-7.25 1.449-4.453-13.64-17.995 5.64-17.678 23.45 11.207 16.496-4.958 11.524 2.946z" id="46108"/>
    <path d="M460.1 260.81l13.04 13.395 7.105.954.745 7.945 11.028 17.945-23.575 6.622-23.548-22.755-2.806-7.303 7.949-14.24 10.062-2.563z" id="48165"/>
    <path d="M267.784 284.688l13.639 17.995-1.45 4.453-16.582 3.707.916 16.957-6.521 3.76-27.985-3.122 4.941-19.844-9.712-5.59-.935-14.63 6.714-5.105-3.328-8.738 9.052-12.462 6.945-3.71 11.087 7.777 13.219 18.552z" id="45539"/>
    <path d="M175.297 306.164l-1.707 11.722-7.521 11.34 5.519 5.74 5.151 15.375-13.02 16.122-6.397 2.71-21.046-3.406-17.484 4.999-6.232-13.815-5.016-22.965-15.076-3.04.332-29.724 3.862-11.049 9.14 8.099 15.022-6.512 13.243-11.303 14.654-22.954 19.282 14.367 1.886 6.99-4.645 11.779 10.053 15.525z" id="47916"/>
    <path d="M509.933 247.02l14.518 2.438 15.7 25.139-6.635 7.467 4.465 9.166 12.883 11.929 5.204 25.82 7.201 10.97-6.585 3.127-1.848 1.838-8.69-7.255-11.608.954-29.149-40.072-10.27 3.449-3.1-.941-11.029-17.945-.745-7.945 14.766-12.224 2.641-18.88 12.281 2.965z" id="49769"/>
    <path d="M382.371 233.905l8.049 20.706 12.12 11.763-7.892 10.165 8.767 11.829 13.513-4.613 1.942 16.004 13.078-1.458 2.44 6.47-26.64 11.696-7.483-1.654-19.764 8.561-2.023-13.8-24.33-7.117-7.886-15.36-5.833-1.977 16.562-12.39-3.911-6.315 5.341-8.798 3.273-19.085 20.677-4.627z" id="50228"/>
    <path d="M412.13 230.232l8.156 7.613 9.39 18.382.085 17.942-12.833 9.586-13.513 4.613-8.767-11.829 7.892-10.165-12.12-11.763-8.049-20.706 10.687-5.634 19.071 1.961z" id="49233"/>
    <path d="M508.967 225.559l3.06 13.983-2.094 7.478-12.28-2.965-2.642 18.88-14.766 12.224-7.106-.954-13.04-13.395-17.433-30.352 10.959-6.465 18.784 6.97 11.842-13.868 12.822-1.892 11.894 10.356z" id="45673"/>
    <path d="M442.666 230.458L460.1 260.81l-10.062 2.562-7.949 14.241-12.328-3.444-.085-17.942-9.39-18.381-8.157-7.614 2.37-6.107-14.58-12.44 2.672-7.725 24.225 2.96 6.275 14.625 9.575 8.913z" id="50068"/>
    <path d="M402.591 203.96l-2.673 7.725 14.582 12.44-2.37 6.107-19.072-1.961-10.687 5.634-20.677 4.627-6.868-11.077-8.843-5.849-13.032-1.858-9.092-10.872-2.396-10.295 10.181-5.385.184-13.559 5.101-6.322-10.75-20.914 6.9 5.112 18.066-.827 24.839 31.417 9.386-.208 5.958 6.79.962 11.255 10.301-1.98z" id="45245"/>
    <path d="M326.18 152.4l10.75 20.915-5.102 6.322-.184 13.559-10.181 5.385 2.396 10.295 9.092 10.872 13.032 1.859 8.843 5.848 6.868 11.077-3.273 19.085-5.341 8.798 3.91 6.314-16.56 12.39-6.31-1.735-9.226-7.179-7.13-10.614-.366-9.79-9.597-13.622-9.655-6.08-9.243-17.731-1.836-18.175 7.71-6.35-.901-11.561 13.269-28.055-5.702-5.437 12.486-6.582 12.25 10.193z" id="47630"/>
    <path d="M301.443 148.79l5.702 5.437-13.27 28.055.901 11.562-7.71 6.35 1.837 18.174 9.243 17.73 9.655 6.081 9.597 13.623.366 9.789 7.13 10.614-11.525-2.946-16.497 4.958-23.45-11.207-5.639 17.678-13.219-18.552-11.086-7.777-1.896-9.077 11.414-19.054 6.587-4.786-.792-22.688 6.862-22.444-1.863-11.862 12.756-19.22 1.687-8.167L290 137.444l11.444 11.346z" id="47186"/>
    <path d="M278.233 141.06l-1.687 8.168-12.756 19.22 1.863 11.862-6.862 22.444.792 22.688-6.587 4.786-11.414 19.054 1.896 9.077-6.945 3.71-9.052 12.462 3.328 8.738-6.714 5.106-6.173 1.322-4.02 12.946-9.917 4.743-28.688-1.222-10.053-15.525 4.645-11.78-1.886-6.989-19.282-14.367 4.494-13.51 5.363-2.298-7.806-41.005-20.265-9.661-9.264-10.428 9.28-14.826 7.038-2.606 8.956-15.123 2.08-10.81-3.573-9.34 5.594-22.86-1.47-6.173 10.251-16.201 10.05-23.279 9.267-3.987-2.387-11.128 4.752-14.137-3.725-13.088L181.9 1l10.243 9.079 11.475 2.71 6.818 8.47 2.216 16.626-4.38 14.143 4.186 6.81 14.105 9.766.372 11.968 9.309 4.419 6.004 18.261 8.97 7.91 13.16 21.45 6.587-.899 7.27 9.348z" id="47079"/>
    <path d="M349.037 640.446l7.583 11.347-16.055 7.586-11.49-15.69-7.3-15.082-9.547-10.34 2.182-7.886 11.975-10.563 18.913 28.388 3.74 12.24zm6.627-35.548l8.262 15.809-8.764 12.354-26.108-44.382-1.872-12.673 12.217 3.186 16.265 25.706z" id="49894"/>
    <path d="M608.73 316.064l-1.025 27.637-9.854 10.292-8.93 5.28-16.885-3.117-7.863-13.73-7.489.65 6.585-3.127-7.201-10.97 12.939-5.448 1.557-11.605 7.998 2.303 11.59-14.494 2.653-13.535 10.61-24.231 15.35 7.296 13.325-.06-8.6 11.694-13.01 3.352-8.62 18.075 8.941 4.104-2.07 9.634z" id="44845"/>
    <path d="M764.083 377.362L741.601 400.5l-21.243-4.382 11.983-41.405 5.609-10.927 37.588-5.81 18.924-15.187L799 338.323l-24.098 15.17 5.277 14.628-16.096 9.241z" id="50399"/>
    <path d="M737.95 343.786l-5.61 10.927-7.441 4.632-12.093-2.483-39.44-5.3-15.738 30.054-18.403-1.046-.349-21.24 2.306-13.652-5.814-2.9 4.616-38.049-2.097-1.645 9.05-11.18 6.405-13.5 5.755.283 11.705 20.54 8.345-4.675 10.499-13.89 13.237-4.321 1.258 17.099-9.08 12.569 3.7 23.31 40.676 4.462-1.487 10.005z" id="48842"/>
    <path d="M592.805 286.2l-2.652 13.535-11.591 14.493-7.998-2.302-1.557 11.605-12.94 5.448-5.203-25.82-12.883-11.93-4.465-9.165 6.635-7.467-15.7-25.14-14.518-2.437 2.095-7.478-3.061-13.983 13.463-11.295 7.982 12.747 11.03 28.68 9.011 4.972 15.347 19.505 27.005 6.032z" id="48682"/>
    <path d="M92.8 301.222l-.332 29.724 15.076 3.04 5.016 22.965 6.233 13.815.344 2.11-8.456 11.263-16.989 15.507-9.88-4.483-15.247-25.085-11.267-4.914-7.906-11.058 6.408-20.183-11.875-5.662 2.995-28.657-1.43-11.757-18.314-15.853-15.602-7.081L1 248.43l11.85-8.846 12.308-4.68L47 248.652l.583 11.228 11.473 4.64 13.595-3.186 9.234 23.06-4.571 10.328 15.486 6.5z" id="46180"/>
    <path d="M207.791 364.112l.264.737 6.564 11.026-1.828 7.942 14.385 21.756-12.427 7.548-12.495 15.17 4.872 8.022-9.608 12.526-12.227 10.463-8.646-11.89-5.304-8.1 5.804-32.088-3.393-16.996 10.906-3.846 16.512-12.47 6.621-9.8z" id="48227"/>
    <path d="M133.466 419.86l-20.807 14.916-.608 10.228-16.86 4.228-7.363-13.697-8.292 3.335-9.144-4.617 26.446-29.336-3.146-5.27 16.99-15.508 8.455-11.263 1.633 24.633 12.508 15.772.188 6.58z" id="45959"/>
    <path d="M121.243 180.6l9.264 10.429 20.265 9.66 7.806 41.006-5.363 2.298-4.494 13.51-14.654 22.954-13.243 11.303-15.022 6.512-9.14-8.099-3.862 11.05-15.486-6.5 4.572-10.327-9.235-23.06-13.595 3.185-11.473-4.64L47 248.653l-21.842-13.749-12.308 4.68 2.777-10.272 13.385-17.04 14.58-29.78 11.77 13.548 9.363-22.604.455-10.57 15.703-11.409 19.993.053 3.575 17.012 16.792 12.079z" id="49484"/>
  </g>
</svg>
