<svg xmlns="http://www.w3.org/2000/svg" version="1.2" baseProfile="tiny" stroke-linecap="round" stroke-linejoin="round" viewBox="0 0 800 873">
  <g id="BZ" fill="none" stroke="#aaa">
    <path d="M417.968 755.274l22.413 31.822 27.105-18.742 8.802 13.21 7.502-5.158 6.302 8.358-7.686 11.8-.44 9.502-7.117 11.873-11.54-7.058-9.097 14.474-11.844 2.196-20.117-15.881-33.89 5.633-2.98-8.474-20.548 9.301-4.592-1.86 8.533-36.012 26.17-19.83 2.655 4.395 16.968-11.287 3.401 1.738z" data-name="Glodeanu-Siliștea" class="comuna" id="46910"/>
    <path d="M571.315 784.061l-13.296 16.687-19.653 30.371-33.446-13.544-5.048.536-7.844-4.547-10.061-7.498.439-9.501 7.686-11.801-6.302-8.358 7.921-6.752 9.82-17.21 11.87 12.846 21.359 16.653 3.626-10.846 32.93 12.964z" data-name="Scutelnici" class="comuna" id="49439"/>
    <path d="M377.327 737.84l8.947 24.03 8.67-1.442-26.17 19.83-8.533 36.012-15.551-9.446-7.998 7.913-7.365-16.112-8.264-19.42 1.392-12.552 15.14-11.496 4.555-20.62 13.751 8.262 21.426-4.96z" data-name="Glodeanu Sărat" class="comuna" id="46867"/>
    <path d="M610.542 720.204l18.266 4.991-7.031 22.204 11.816 4.065 3.62-8.8 39.639 12.113-.573 2.082 1.249 8.257 11.008 3.42-14.807 60.072-28.164-.64-3.927 17.347 10.981 8.61 12.494 4.481-4.484 13.347-24.789-4.616-1.782 5.118-21.48-7.128 6.827-30.861-32.447-11.495-6.813-5.65-22.126-16.373 13.296-16.687 7.45-9.954 20.111-44.23 11.666-9.673z" data-name="Padina" class="comuna" id="48138"/>
    <path d="M397.824 718.977l1.444 12.196-21.94 6.666-21.427 4.96-13.75-8.262-8.32-29.2 9.97-3.923 14.3 3.031 2.55 5.85 12.917-.28-2.51 10.057 26.766-1.095z" data-name="Mihăilești" class="comuna" id="47578"/>
    <path d="M422.748 702.33l.631 9.587 11.955.409-5.2 17.712 13.396 1.534 3.448-4.538-1.695 8.075-27.315 20.165-3.401-1.738-16.968 11.287-2.656-4.395-8.669 1.442-8.947-24.03 21.94-6.667-1.443-12.196-4.516-13.97 29.44-2.678z" data-name="Florica" class="comuna" id="50564"/>
    <path d="M500.479 702.612l-14.318 37.403 15.37 12.428-9.82 17.211-7.92 6.752-7.503 5.159-8.802-13.21-27.105 18.741-22.413-31.822 27.315-20.165 1.695-8.075 12.537-16.63 5.798-11.95 9.374 4.45 7.825-8.722 17.967 8.43z" data-name="Brădeanu" class="comuna" id="45496"/>
    <path d="M537.606 688.305l53.248 18.904-6.923 17.19 14.945 5.478-20.11 44.23-7.45 9.954-32.93-12.964-3.626 10.846-21.359-16.653-11.87-12.847-15.37-12.428 14.318-37.403 17.063 1.341 10.25 4.345 9.814-19.993z" data-name="Pogoanele" class="oras" id="48744"/>
    <path d="M343.8 701.414l-9.97 3.923 8.32 29.2-4.556 20.62-15.14 11.496-13.891-8.125-14.644-21.698-7.446-5.437-6.945 4.766-3.79-22.587 40.388-15.91-4.322-6.668-3.484-7.534 35.93-10.45 8.505 11.628-2.608 12.99-6.347 3.786z" data-name="Amaru" class="comuna" id="44863"/>
    <path d="M663.581 665.49l-7.47 21.843-19.324 39.83-7.98-1.968-18.265-4.99 10.439-30.936 2.008-19.186-11.466-5.14 1.346-8.606 10.16-3.853 8.788-.051 10.307 7.911 21.457 5.146z" data-name="Largu" class="comuna" id="47159"/>
    <path d="M607.57 637.852l15.458 14.632-10.16 3.853-1.345 8.605 11.466 5.141-2.008 19.186-10.44 30.935-11.665 9.673-14.944-5.477 6.922-17.19-53.248-18.905 9.19-27.752 6.392-20.563 12.377 9.579 30.787-3.849 11.218-7.868z" data-name="Luciu" class="comuna" id="47300"/>
    <path d="M353.506 635.771l9.64 8.272L381.856 664l8.075-6.262 12.03 6.27 13.226 6.952-5.8 8.778 13.361 22.591-29.44 2.677 4.517 13.97-26.766 1.096 2.51-10.057-12.917.28-2.55-5.85-14.3-3.031 6.346-3.785 2.608-12.991-8.505-11.628-3.685-13.317 16.055-7.586-7.583-11.346 4.469-4.99z" data-name="Movila Banului" class="comuna" id="47774"/>
    <path d="M676.279 756.859l.573-2.082-39.639-12.113-3.62 8.8-11.816-4.065 7.03-22.204 7.98 1.968 19.324-39.83 7.47-21.843 18.124-13.803 9.335 4.76 2.511-21.256 2.293 21.096 18.013-2.758-6.948 41.434-16.4 64.589-14.23-2.693z" data-name="Rușețu" class="comuna" id="49046"/>
    <path d="M508.164 651.395l25.072 7.52 13.56 1.638-9.19 27.752-9.814 19.993-10.25-4.345-17.063-1.34-17.967-8.43-7.825 8.72-9.374-4.449-5.798 11.95-12.537 16.63-3.448 4.538-13.397-1.534 5.2-17.712-.438-23.442 23.169-41.607 5.597-15.031 4.374 4.765 21.852 7.544 11.467 11.188 6.81-4.348z" data-name="Smeeni" class="comuna" id="49545"/>
    <path d="M463.66 632.246l-5.596 15.03-23.169 41.608.439 23.442-11.955-.409-.632-9.588-13.36-22.591 5.799-8.778-13.226-6.952 2.537-11.603 30.555-41.833 15.432 12.803 6.402 14.409 6.775-5.538z" data-name="Gherăseni" class="comuna" id="46803"/>
    <path d="M329.075 644.005l11.49 15.688 3.685 13.317-35.93 10.45 3.484 7.534-9.236-6.025-13.521-22.761-11.97-2.74-3.13-9.736-11.41 1.873-4.535 11.12-5.907-4.726-6.354-18.241-2.725-9.62 12.745-5.232 7.314-8.37 9.516 6.731 23.602-14.14 16.704 26.103 5.31 11.775 10.868-3z" data-name="Săhăteni" class="comuna" id="49153"/>
    <path d="M607.57 637.852l-11.218 7.868-30.787 3.849-12.377-9.579 3.565-21.735-6.514-2.459-2.206-17.694 4.042-6.287 8.185 2.134 8.132-6.976 20.142-.472 23.654 38.025-4.618 13.326z" data-name="Cilibia" class="comuna" id="46251"/>
    <path d="M433.344 572.241l3.62 20.648 6.151 6.612-8.063 11.07-30.555 41.834-2.537 11.603-12.03-6.27-8.075 6.262-18.708-19.957 37-38.82.645-15.448 5.16-8.837 12.258-.515 15.134-8.182z" data-name="Costești" class="comuna" id="46484"/>
    <path d="M496.843 577.972L484.93 596.25l17.308 6.929-2.387 22.753 8.313 25.464-6.81 4.348-11.466-11.188-21.853-7.544-4.374-4.765-6.775 5.538-6.402-14.409-15.432-12.803 8.063-11.07-6.151-6.613-3.62-20.648 15.327-4.748 12.154 14.929 4.024-7.973 11.622-8.204 11.061 3.097 9.31 8.63z" data-name="Țintești" class="comuna" id="49849"/>
    <path d="M693.551 635.191l-2.51 21.255-9.336-4.759-18.124 13.803-21.457-5.146-10.307-7.911-8.789.051-15.458-14.632 4.618-13.326-23.654-38.025 5.33-10.073 22.493-2.546 3.508-8.056 11.783 10.101 13.455-13.159 11.925.338 1.12 13.958 9.795-.688-3.084 53.453 29.334-.106-.642 5.468z" data-name="C.A. Rosetti" class="comuna" id="45815"/>
    <path d="M552.075 591.815l-4.042 6.287 2.206 17.694 6.514 2.46-3.565 21.734-6.392 20.563-13.56-1.638-25.072-7.52-8.313-25.464 2.387-22.753-17.308-6.93 11.913-18.276.374-10.729 11.792-7.7 17.543 11.238 11.254 11.939 14.269 9.095z" data-name="Gălbinași" class="comuna" id="46769"/>
    <path d="M418.21 580.423l-12.259.515-5.16 8.837-.644 15.448-37 38.82-9.641-8.272 1.656-2.395 8.764-12.355-8.262-15.809 14.916-18.342 2.264-10.067 33.336-18.755 12.03 22.375z" data-name="Stîlpu" class="comuna" id="49625"/>
    <path d="M257.498 534.577l-.853 19.802 4.628 6.677-2.154 24.848 3.956 30.631-7.314 8.37-12.745 5.233-8.875-25.205-11.638-4.437 6.964-13.495-4.074-28.231 11.541-12.728 12.025-.86 8.54-10.605z" data-name="Năeni" class="comuna" id="47854"/>
    <path d="M287.11 521.694l3.242 20.917-4.096 19.764-1.635 22.833 11.572 23.92-23.602 14.14-9.516-6.733-3.956-30.631 2.154-24.848-4.628-6.677.853-19.802.503-5.441 20.386-8.365 8.722.923z" data-name="Breaza" class="comuna" id="45619"/>
    <path d="M645.103 562.769l-13.455 13.158-11.783-10.1-17.514-17.224-6.372-11.855 8.132 10.051 9.686-6.009-1.897-15.619 21.654-12.82 1.561 11.819 9.988 38.599z" data-name="Robeasca" class="comuna" id="49019"/>
    <path d="M300.953 536.557l-2.688 10.82 15.654 15.104 4.591 14.885 8.672-1.045 1.872 12.673 26.108 44.382-1.656 2.395-4.469 4.99-3.739-12.24-18.913-28.388-11.975 10.563-2.182 7.885 9.547 10.34 7.3 15.083-10.868 3-5.31-11.774-16.704-26.103-11.572-23.919 1.635-22.833 4.096-19.764-3.243-20.917 10.973-10.481 5.406 17.826-2.535 7.518z" data-name="Pietroasele" class="comuna" id="48487"/>
    <path d="M388.321 533.957l9.43 3.504 8.366-4.814 9.16 18.1-9.097 7.3-33.336 18.756-2.264 10.067-14.916 18.342-16.265-25.706-12.217-3.185-8.672 1.045-4.59-14.885-15.655-15.104 2.688-10.82 31.3-23.565 4.973-2.751 21.279 6.65 10.069 13.364 19.747 3.702z" data-name="Merei" class="comuna" id="47453"/>
    <path d="M411.982 508.758l12.384 6.102 9.142-1.431 13.623 6.222 21.646 10.288 10.938 17.955 9.783 4.358 7.72 14.991-.375 10.73-9.311-8.631-11.061-3.097-11.622 8.204-4.024 7.973-12.154-14.93-15.327 4.749-15.134 8.182-12.03-22.375 9.097-7.302-9.16-18.1-8.366 4.815-9.43-3.504-8.55-7.2 21.62-16.01 10.591-1.989z" data-name="Buzău" class="municipiu resedinta" id="44818"/>
    <path d="M585.313 523.92l10.666 12.828 6.372 11.855 17.514 17.223-3.508 8.056-22.494 2.546-5.329 10.073-20.142.471-8.132 6.977-8.185-2.134-14.269-9.096-11.254-11.938-17.543-11.239 19.585-28.831 13.543-25.294 9.201.875 33.975 17.628z" data-name="Săgeata" class="comuna" id="49073"/>
    <path d="M502.11 485.954l23.007 13.44 17.02 6.023-13.543 25.294-19.585 28.831-11.792 7.701-7.719-14.991-9.784-4.358-10.937-17.956-21.646-10.287 1.651-19.396 6.929-15.108 12.539-3.518 27.336 13.103 6.525-8.778z" data-name="Vadu Pașii" class="comuna" id="49956"/>
    <path d="M439.993 465.422l15.718 19.725-6.929 15.108-1.651 19.396-13.623-6.222-9.142 1.43-12.384-6.101-9.873-13.796 24.652-17.02 6.02-14.528 7.212 2.008z" data-name="Mărăcineni" class="comuna" id="47373"/>
    <path d="M591.17 464.434l13.867 11.922 9.284.435.145 6.348-19.176 23.08-9.977 17.701-33.975-17.628-9.201-.875-17.02-6.022-23.006-13.44 24.907-31.811 27.44 7.751 22.285 3.778 14.427-1.239z" data-name="Cochirleanca" class="comuna" id="46377"/>
    <path d="M325.068 454.153l5.532 28.397 5.606 1.827 1.679 15.292-5.632 13.323-31.3 23.565 2.535-7.518-5.406-17.826-10.973 10.48-8.722-.922L258 529.136l-.503 5.441-8.539 10.605-12.025.86-5.74-21.36-.518-25.462 22.1-7.86 3.486-7.501 17.213-21.465 13.72-3.823 10.665 9.887 13.31-7.577 13.898-6.728z" data-name="Tisău" class="comuna" id="49643"/>
    <path d="M176.645 447.726l8.646 11.89 24.679 5.752 5.421 12.007-6.5 10.208 12.31 18.858-13.384 12.16-13.743-2.582-12.276 16.933-13.49-4.796-4.429-25.683 6.107-14.714-14.877-3.075 6.653-13.273-9.443-19.237 10.855-5.073 13.471.625z" data-name="Cislău" class="comuna" id="46313"/>
    <path d="M436.114 451.38l3.88 14.042-7.214-2.008-6.02 14.527-24.651 17.021-13.726-23.866-2.124-11.778 8.174-4.353-.313-9.435 14.742 4.896.403 6.547 26.85-5.593z" data-name="Săpoca" class="comuna" id="49206"/>
    <path d="M386.26 459.318l2.123 11.778 13.726 23.866 9.873 13.796-10.591 1.99-21.62 16.008 8.55 7.2-19.747-3.7-10.07-13.365-21.278-6.65-4.973 2.75 5.632-13.322-1.679-15.292-5.606-1.827-5.532-28.397 18.283-13.949 22.666-5.726 8.636 2.387 11.606 22.453z" data-name="Vernești" class="comuna" id="50102"/>
    <path d="M152.319 452.174l9.443 19.237-6.653 13.273-16.429 12.838-9.86-4.286-17.6-.573-3.408 7.572-3.085-18.59-11.276-20.516 1.74-11.582 16.86-4.228.608-10.228 20.807-14.916 17.454 23.204 1.399 8.795z" data-name="Calvini" class="comuna" id="45753"/>
    <path d="M311.17 460.88l-13.31 7.578-10.665-9.887-13.72 3.823-16.328-9.447 6.447-10.981 31-10.347 3.141-8.773 12.933 2.026 3.543-7.17 2.162 4.26-6.765 30.546 1.562 8.373z" data-name="Măgura" class="comuna" id="47337"/>
    <path d="M646.697 447.462l-28.258 29.178-4.118.151-9.284-.435-13.867-11.922 24.02-27.37 14.692-19.52 22.282 24.105-5.467 5.813z" data-name="Bălăceanu" class="comuna" id="44989"/>
    <path d="M343.351 440.204l-18.283 13.949-13.898 6.728-1.562-8.373 6.765-30.545-2.162-4.26 15.299-1.576 5.665 9.502 8.722 4.51-.546 10.065z" data-name="Unguriu" class="comuna" id="50549"/>
    <path d="M220.733 419.41l30.644 35.23 5.77-1.693 16.328 9.447-17.213 21.465-3.486 7.5-22.1 7.86-9.474 7.222-12.311-18.858 6.5-10.208-5.421-12.007-24.679-5.751 21.835-22.989-4.873-8.022 12.496-15.17 5.984 5.974z" data-name="Viperești" class="comuna" id="50326"/>
    <path d="M536.64 434.356l-9.622 19.788-24.907 31.81-6.525 8.778-27.336-13.103-12.54 3.518-15.717-19.725-3.879-14.042-1.327-8.665 18.335-2.912-8.274-17.788 5.22-11.645 3.502 5.922 15.206 5.037-2.217 9.498 17.526 3.26 52.556.27z" data-name="Poșta Cîlnău" class="comuna" id="48771"/>
    <path d="M613.784 390.962l-2.488 4.329 20.158 12.774-1.572 9.479-14.692 19.52-24.02 27.37-14.427 1.239-22.284-3.778-27.441-7.751 9.623-19.788 9.663-23.169 7.687-.742 21.232 3.42 17.375-29.745 21.186 6.841z" data-name="Ziduri" class="comuna" id="50479"/>
    <path d="M450.068 410.37l-5.22 11.645 8.274 17.788-18.335 2.912-9.897-8.846-1.388-32.849 1.475-13.879 6.137-6.616 6.956 3.284 11.998 26.561z" data-name="Blăjani" class="comuna" id="45334"/>
    <path d="M639.225 380.885l18.403 1.046-3.923 7.62 18.27 9.88-5.296 12.444 21.41 18.5-19.917 37.396-21.475-20.309 5.467-5.813-22.282-24.105 1.572-9.479-20.158-12.774 2.488-4.33 6.143-11.197 19.298 1.12z" data-name="Ghergheasa" class="comuna" id="46830"/>
    <path d="M424.977 387.141l-1.475 13.88 1.388 32.848 9.897 8.846 1.327 8.665-26.849 5.593-.403-6.547-14.742-4.896-6.294-22.529-2.173-18.748 2.89-25.437-1.058-1.357 37.492 9.682z" data-name="Cernătești" class="comuna" id="46019"/>
    <path d="M314.21 417.702l-3.542 7.17-12.933-2.026-3.142 8.773-30.999 10.347-6.447 10.981-5.77 1.693-30.644-35.23 14.387.025 27.725-21.991 17.213-5.795 12.576-8.686-1.115-10.32 1.394-1.363 9.525 23.69 4.592 3.035 7.18 19.697z" data-name="Pîrscov" class="comuna" id="48557"/>
    <path d="M388.542 378.816l-2.89 25.437L387.827 423l6.294 22.53.313 9.434-8.174 4.353-11.606-22.453-8.636-2.387-22.666 5.726.546-10.065-8.722-4.51-5.665-9.502-15.3 1.575-7.18-19.697-4.592-3.035-9.525-23.69 9.636-1.68 7.78 1.38 9.725 12.152 7.482 3.38 26.64.909 34.366-8.605z" data-name="Berca" class="comuna" id="45101"/>
    <path d="M291.52 372.643l1.114 10.32-12.576 8.686-17.213 5.795-27.725 21.991-14.387-.025-5.984-5.975 12.427-7.547-14.385-21.756 1.828-7.943-6.564-11.026 28.278-2.745 20.139-8.637 8.777 15.177 9.075-1.284 17.195 4.97z" data-name="Cozieni" class="comuna" id="46554"/>
    <path d="M732.34 355.027l-11.982 41.406 21.243 4.382 22.482-23.138 5.886 14.342-.6 18.49-7.415 11.59-7.642 1.914-15.097-7.958-8.675 19.006 12.136 6.888-6.647 11.752 13.806 5.468-1.475 5.863-7.274 11.58-25.141-1.458-4.764 11.194-8.904-5.922-5.362-3.56 11.261-30.187-13.957-8.154 5.371-33.687 7.35-21.96 5.866-25.702 12.093 2.483 7.442-4.632z" data-name="Balta Albă" class="comuna" id="44934"/>
    <path d="M712.806 357.176l-5.866 25.703-7.35 21.96-5.37 33.685 13.956 8.155-11.261 30.186-11.663 2.189-17.08-11.283 19.918-37.395-21.411-18.5 5.295-12.446-18.269-9.88 3.923-7.619 15.738-30.054 39.44 5.3z" data-name="Boldu" class="comuna" id="45361"/>
    <path d="M209.897 361.663l-2.106 2.763-6.62 9.8-16.513 12.47-10.906 3.847 3.393 16.995-5.804 32.088 5.304 8.1-13.471-.625-10.855 5.073-1.399-8.795-17.454-23.204-.188-6.58-12.508-15.772-1.633-24.632-.344-2.11 17.483-5 21.046 3.406 6.397-2.709 13.02-16.122 5.48 3.877 27.678 7.13z" data-name="Pătârlagele" class="oras" id="48325"/>
    <path d="M459.726 347.668l12.155 1.193-.594 18.2 6.323 25.889 10.757 4.974 8.534-10.828 19.002 14.143 15.19 2.728 15.211 7.22-9.663 23.17-52.556-.27-17.526-3.26 2.216-9.498-15.205-5.037-3.502-5.922-11.998-26.561-6.956-3.284 4.09-16.18 21.777-2.04 2.745-14.637z" data-name="Zărnești" class="comuna" id="50415"/>
    <path d="M493.708 349.01l17.404 14.216 12.037 20.24-9.942 9.521 17.887 10.98-15.191-2.728-19.002-14.143-8.534 10.828-10.757-4.974-6.323-25.89.594-18.199 21.827.149z" data-name="Racovițeni" class="comuna" id="48922"/>
    <path d="M597.85 354.308l-5.252 29.812-17.375 29.744-21.232-3.419-20.054-24.31-6.488-12.638 27.387-28.269 1.848-1.837 7.49-.65 7.862 13.73 16.886 3.116 8.929-5.28z" data-name="Valea Rîmnicului" class="comuna" id="50022"/>
    <path d="M321.366 308.337l19.398 24.874-17.695 25.864-13.036-.135-15.337-7.017 2.387-15.438-10.079-11.714 1.107-10.07 17.92-.744 7.597-8.087 7.738 2.467z" data-name="Cănești" class="comuna" id="45888"/>
    <path d="M288.11 314.7l-1.106 10.072 10.08 11.713-2.388 15.438 7.853 17.678-9.636 1.679-1.394 1.363-17.195-4.969-9.075 1.284-8.777-15.177 6.303-16.997-4.99-4.91 6.522-3.76-.916-16.956 16.583-3.707 8.137 7.25z" data-name="Odăile" class="comuna" id="48021"/>
    <path d="M203.985 307.7l9.874 19.093-3.935 11.274 8.836 15.218-8.863 8.378-27.677-7.13-5.48-3.877-5.152-15.375-5.52-5.741 7.522-11.34 1.707-11.721 28.688 1.222z" data-name="Colți" class="comuna" id="46439"/>
    <path d="M639.225 380.885l-19.298-1.121-6.143 11.197-21.186-6.841 5.253-29.812 9.854-10.293 1.025-27.636 15.949-1.357 13.208-11.624 2.097 1.646-4.616 38.048 5.814 2.9-2.306 13.653.35 21.24z" data-name="Rîmnicelu" class="comuna" id="48968"/>
    <path d="M440.51 324.001l8.836 4.466 10.38 19.2-2.745 14.637-21.776 2.04-4.09 16.18-6.138 6.617-37.492-9.682-.86-25.375-6.124-28.395 19.764-8.561 7.484 1.654 26.64-11.695 6.12 18.914z" data-name="Beceni" class="comuna" id="45003"/>
    <path d="M495.119 302.304l5.572 19.806-13.013 3.72-1.301 13.522 7.331 9.658-21.827-.149-12.155-1.193-10.38-19.2L440.51 324l16.852-5.092 11.08-10.923 23.576-6.623 3.1.941z" data-name="Murgești" class="comuna" id="47818"/>
    <path d="M554.836 345.228l-27.387 28.269 6.488 12.638 20.054 24.31-7.687.742-15.21-7.22-17.887-10.98 9.942-9.521-12.037-20.24-17.404-14.216-7.331-9.658 1.301-13.523 13.013-3.72-5.572-19.805 10.27-3.448 29.15 40.072 11.607-.954 8.69 7.254z" data-name="Grebănu" class="comuna" id="47006"/>
    <path d="M224.095 288.69l.935 14.628 9.712 5.59-4.941 19.845 27.985 3.122 4.989 4.91-6.303 16.996-20.139 8.637-28.278 2.745-.264-.737 2.106-2.763 8.863-8.378-8.836-15.218 3.935-11.274-9.874-19.092 9.916-4.744 4.021-12.946 6.173-1.322z" data-name="Bozioru" class="comuna" id="45389"/>
    <path d="M340.43 285.435l5.832 1.977 7.887 15.36 24.329 7.116 2.023 13.8 6.125 28.397.86 25.374 1.056 1.357-34.366 8.605-26.64-.909-7.482-3.38-9.725-12.151-7.78-1.38-7.853-17.678 15.337 7.017 13.036.135 17.695-25.864-19.398-24.874 12.754-24.639 6.31 1.737z" data-name="Scorțoasa" class="comuna" id="49313"/>
    <path d="M442.09 277.928l2.805 7.303 23.548 22.755-11.081 10.923L440.51 324l-6.121-18.914-2.441-6.471-13.078 1.457-1.942-16.003 12.833-9.586 12.328 3.444z" data-name="Mărgăritești" class="comuna" id="47417"/>
    <path d="M324.894 276.52l9.226 7.178-12.754 24.64-7.738-2.468-7.598 8.087-17.92.744-8.136-7.25 1.449-4.454-13.64-17.995 5.64-17.677 23.45 11.207 16.496-4.958 11.524 2.946z" data-name="Chiliile" class="comuna" id="46108"/>
    <path d="M460.1 261.124l13.04 13.395 7.105.954.745 7.946 11.028 17.945-23.575 6.622-23.548-22.755-2.806-7.303 7.949-14.241 10.062-2.563z" data-name="Pardoși" class="comuna" id="48165"/>
    <path d="M267.784 285.002l13.639 17.995-1.45 4.454-16.582 3.707.916 16.957-6.521 3.76-27.985-3.122 4.941-19.845-9.712-5.59-.935-14.629 6.714-5.105-3.328-8.739 15.997-16.172 11.087 7.777 13.219 18.552z" data-name="Brăești" class="comuna" id="45539"/>
    <path d="M175.297 306.479L173.59 318.2l-7.521 11.34 5.519 5.741 5.151 15.375-13.02 16.122-6.397 2.709-21.046-3.405-17.484 4.998-6.232-13.815-5.016-22.964-15.076-3.04.332-29.724 3.862-11.05 9.14 8.1 15.022-6.513 13.243-11.302 14.654-22.954 19.282 14.367-2.76 18.768 10.054 15.526z" data-name="Nehoiu" class="oras" id="47916"/>
    <path d="M509.933 247.334l14.518 2.438 15.7 25.14-6.635 7.467 4.465 9.166 12.883 11.928 5.204 25.821.616 14.097-1.848 1.837-8.69-7.255-11.608.955-29.149-40.072-10.27 3.448-3.1-.94-11.029-17.945-.745-7.946 14.766-12.224 2.641-18.88 12.281 2.965z" data-name="Topliceni" class="comuna" id="49769"/>
    <path d="M382.371 234.22l8.049 20.705 12.12 11.764-7.892 10.165 8.767 11.829 13.513-4.613 1.942 16.003 13.078-1.457 2.44 6.47-26.64 11.696-7.483-1.654-19.764 8.56-2.023-13.8-24.33-7.117-7.886-15.359-5.833-1.977 16.562-12.391-3.911-6.315 5.341-8.797 3.273-19.085 20.677-4.627z" data-name="Vintilă Vodă" class="comuna" id="50228"/>
    <path d="M412.13 230.547l8.156 7.613 9.39 18.381.085 17.943-12.833 9.586-13.513 4.613-8.767-11.83 7.892-10.164-12.12-11.764-8.049-20.705 10.687-5.634 19.071 1.96z" data-name="Sărulești" class="comuna" id="49233"/>
    <path d="M508.967 225.874l.966 21.46-12.28-2.964-2.642 18.88-14.766 12.223-7.106-.954-13.04-13.395-17.433-30.352 10.959-6.465 18.784 6.97 8.618-6.043 1.533-12.59 22.523 6.172 3.884 7.058z" data-name="Buda" class="comuna" id="45673"/>
    <path d="M442.666 230.772l17.434 30.352-10.062 2.563-7.949 14.24-12.328-3.443-.085-17.943-9.39-18.38-8.157-7.614 2.37-6.107L399.92 212l2.672-7.726 22.525 2.088 7.975 15.498 9.575 8.912z" data-name="Valea Salciei" class="comuna" id="50068"/>
    <path d="M402.591 204.274L399.918 212 414.5 224.44l-2.37 6.107-19.072-1.961-10.687 5.634-20.677 4.627-6.868-11.077-8.843-5.849-13.032-1.859-9.092-10.872-2.396-10.294 10.181-5.386.184-13.558 5.101-6.323-10.75-20.914 6.9 5.113 18.066-.827 13.956 18.154 10.882 13.262 9.387-.207 5.958 6.789.962 11.256 10.301-1.98z" data-name="Bisoca" class="comuna" id="45245"/>
    <path d="M326.18 152.715l10.75 20.914-5.102 6.323-.184 13.558-10.181 5.386 2.396 10.294 9.092 10.872 13.032 1.86 8.843 5.848 6.868 11.077-3.273 19.085-5.341 8.797 3.91 6.315-16.56 12.39-6.31-1.736-9.226-7.178-7.13-10.614-.366-9.79-9.597-13.622-9.655-6.08-9.243-17.732-1.836-18.174 7.71-6.35-.901-11.561 13.269-28.056-5.702-5.436 12.486-6.583 12.25 10.193z" data-name="Mînzălești" class="comuna" id="47630"/>
    <path d="M301.443 149.105l5.702 5.436-13.27 28.055.901 11.563-7.71 6.349 1.837 18.174 9.243 17.731 9.655 6.08 9.597 13.623.366 9.79 7.13 10.614-11.525-2.946-16.497 4.958-23.45-11.207-5.639 17.677-13.219-18.552-11.086-7.776-1.896-9.077 11.414-19.055 6.587-4.785-.792-22.688 6.862-22.444-1.863-11.862 12.756-19.22 1.687-8.168L290 137.76l11.444 11.346z" data-name="Lopătari" class="comuna" id="47186"/>
    <path d="M278.233 141.375l-1.687 8.168-12.756 19.22 1.863 11.862-6.862 22.444.792 22.688-6.587 4.785-11.414 19.055 1.896 9.076-15.998 16.172 3.329 8.739-6.714 5.105-6.173 1.322-4.02 12.946-9.917 4.744-28.688-1.222-10.053-15.526 2.76-18.768-19.283-14.367 4.494-13.51 5.363-2.299-7.806-41.005-20.265-9.66-9.264-10.429 9.28-14.825 7.038-2.607 8.956-15.122 2.08-10.81-3.573-9.34 5.594-22.86-1.47-6.173 7.67-15.15 12.539-22.305 9.36-6.013-2.388-11.127 4.752-14.138-3.725-13.087L182.147 1l9.995 9.393 11.475 2.711 6.818 8.469 2.216 16.626-2.7 15.845 16.611 14.875.372 11.968 9.309 4.418 6.004 18.262 8.97 7.909 13.16 21.45 6.587-.898 7.27 9.347z" data-name="Gura Teghii" class="comuna" id="47079"/>
    <path d="M349.037 640.76l7.583 11.347-16.055 7.586-11.49-15.688-7.3-15.083-9.547-10.341 2.182-7.885 11.975-10.563 18.913 28.387 3.74 12.24zm6.627-35.548l8.262 15.81-8.764 12.354-26.108-44.382-1.872-12.673 12.217 3.185 16.265 25.706z" data-name="Ulmeni" class="comuna" id="49894"/>
    <path d="M608.73 316.379l-1.025 27.636-9.854 10.293-8.93 5.28-16.885-3.117-7.863-13.73-7.489.65-.616-14.097 12.939-5.448 21.146-23.796 2.652-13.535 7.447-20.59 3.163-3.641 15.35 7.296 13.325-.06-8.6 11.694-13.01 3.352-8.62 18.074 8.941 4.105-2.07 9.634z" data-name="Râmnicu Sărat" class="municipiu" id="44845"/>
    <path d="M764.083 377.677l-22.482 23.138-21.243-4.382 11.983-41.406 5.609-10.926 37.588-5.81 18.924-15.187L799 338.638l-24.098 15.169 5.844 14.595-16.663 9.275z" data-name="Vîlcelele" class="comuna" id="50399"/>
    <path d="M737.95 344.1l-5.61 10.927-7.441 4.632-12.093-2.483-39.44-5.3-15.738 30.055-18.403-1.046-.349-21.24 2.306-13.652-5.814-2.901 4.616-38.048-2.097-1.646 15.456-24.679 5.754.283 11.705 20.54 8.345-4.675 10.499-13.89 11.303-4.066 3.192 16.843-9.08 12.57 3.7 23.31 40.676 4.462-1.487 10.005z" data-name="Puiești" class="comuna" id="48842"/>
    <path d="M592.805 286.515l-2.652 13.535-21.146 23.796-12.94 5.448-5.203-25.82-12.883-11.93-4.465-9.165 6.635-7.468-15.7-25.139-14.518-2.438-.966-21.46 3.888-5.855 17.583-7.78-6.134 4.942 5.93 12.584 11.208 26.24 9.011 4.972 15.347 19.505 15.643 4.332 11.362 1.701z" data-name="Podgoria" class="comuna" id="48682"/>
    <path d="M92.8 301.537l-.332 29.724 15.076 3.04 5.016 22.964 6.233 13.815.344 2.11-8.456 11.263-16.989 15.508-9.88-4.483-15.247-25.086-11.267-4.913-7.906-11.058 6.408-20.183-11.875-5.662 2.995-28.657-1.43-11.757-18.314-15.854-15.12-6.962L1 248.746l11.85-8.847 12.308-4.68L47 248.968l.583 11.228 11.473 4.64 13.595-3.186 9.234 23.06-4.571 10.328 15.486 6.499z" data-name="Chiojdu" class="comuna" id="46180"/>
    <path d="M207.791 364.426l.264.737 6.564 11.026-1.828 7.942 14.385 21.757-12.427 7.548-12.495 15.17 4.872 8.022-21.835 22.989-8.646-11.891-5.304-8.1 5.804-32.088-3.393-16.995 10.906-3.847 16.512-12.47 6.621-9.8z" data-name="Pănătău" class="comuna" id="48227"/>
    <path d="M133.466 420.175l-20.807 14.916-.608 10.228-16.86 4.228-7.363-13.697-8.292 3.334-5.874-8.66 23.176-25.293-3.146-5.27 16.99-15.508 8.455-11.262 1.633 24.632 12.508 15.773.188 6.58z" data-name="Cătina" class="comuna" id="45959"/>
    <path d="M121.243 180.915l9.264 10.428 20.265 9.661 7.806 41.005-5.363 2.299-4.494 13.51-14.654 22.954-13.243 11.302-15.022 6.512-9.14-8.098-3.862 11.049-15.486-6.5 4.572-10.327-9.235-23.06-13.595 3.185-11.473-4.64L47 248.969l-21.842-13.749-12.308 4.68 2.777-10.272 13.385-17.04 14.58-29.78 11.77 13.548 9.363-22.604.455-10.57 19.433-11.658 16.263.301 3.575 17.013 16.792 12.078z" data-name="Siriu" class="comuna" id="49484"/>
  </g>
</svg>
