<svg xmlns="http://www.w3.org/2000/svg" version="1.2" baseProfile="tiny" stroke-linecap="round" stroke-linejoin="round" viewBox="0 0 800 713">
  <g id="CJ" fill="none" stroke="#aaa">
    <path d="M661.067 627.746l5.552 9.293-3.113 3.118 4.632 12.097-5.406 4.005 2.322 2.825 2.194 10.324 3.566 3.801 5.252.56 7.42 7.71-6.6 6.564-7.293 2.444-3.22-5.296-3.52.177-8.792-9.212-11.677-.415-6.737-10.447-4.18-10.448-.093-5.908-9.704-4.116-6.563-15.627 8.498-.418 3.63-6.287 4.03 1.662 9.676-8.11 4.893-2.134 6.162 9.14 2.78-1.891 6.29 6.59z" id="58311"/>
    <path d="M621.646 589.233l2.382-1.852 4.329 5.846.213 8.293 5.058 7.427 1.883 5.977 5.43 1.119-9.677 8.109-4.03-1.662-3.63 6.287-8.497.418-11.911-4.973.607-10.195-3.424-.594 2.85-9.313 5.713-5.89 2.24-10.22 10.464 1.223z" id="55357"/>
    <path d="M456.486 564.776l.439 3.764-3.7 4.518.359 6.277 4.813 3.713 6.756 8.003 3.297-.6 4.491 8.233 18.534-4.073 3.272 12.075 4.688 7.017-5.868 3.72 4.73 5.375 2.245 8.422-2.298 2.77-7.892.655 1.7 6.009-6.828 7.714-7.625-2.775-5.95-5.561-4.691-1.986-2.729 3.563-7.13-.442-3.056-8.127-6.354 3.517-6.77 9.193-4.18-5.303-8.406-1.556-5.338-3.514-12.527-3.747-3.707-9.498 2.91-5.79-3.513-1.472-6.953 2.858-2.364-3.664-6.093.567-11.02-2.667-4.286-6.686-4.813-.826-7.37 1.98-6.762 4.55-3.856-1.589.023-4.472 9.506-6.832 1.501-2.762 17.145-9.384 7.238.858 3.81 4.375 14.376-4.646 15.62.206 3.851-9.168-1.932-7.27 3.778-4.786 4.413-4.823 11.252-1.512 5.443 4.966 7.821.633z" id="58008"/>
    <path d="M348.119 508.012l2.182 3.522-3.741 3.985-.623 4.763-3.768 3.141-7.977 2.136-7.588 6.506-6.081 2.323-6.333 8.509-15.732-.972-7.602.445-7.494 8.665-4.165.792-4.566 20.613-5.978 9.108-.016 6.533-2.793 4.129-2.78 8.763-.104 11.422-3.356.475-5.825 9.878.27 4.296-4.123 1.991-6.073 8.207-6.736 3.18-5.472-3.486-4.474 8.348-1.132 6.803-5.798 3.101-8.573-3.357-11.105 1.675-.28-6.539 4.935-11.05-11.399-7.27-4.846 1.245-5.684-2.584-.686-7.737-4.356-14.992-5.784-2.7 5.647-7.535-4.756-4.587-8.436 4.216-4.13-17.571 5.983-1.72 2.265-7.552 7.361-4.996 6.342-1.362 6.807-7.596 5.508-2.09 3.474-6.119 4.598 6.335 7.047-2.915.278-9.144 5.803-5.039 4.31-7.36 11.31-5.194 14.168 3.711 4.445-3.85 13.254-3.764 6.095.161 8.74 4.695 12.89-7.74 3.765-5.743 7.997 2.55 6.895 5.36 3.286.633 5.967-6.385 4.264 1.88 4.76-7.25 3.688-.71 4.74 4.27 6.602 1.09 4.689-2.546z" id="58357"/>
    <path d="M654.343 497.943l9.246.148 4.867 6.788 12.852-.346 4.678-1.56 15.682 6.012 4.282 6.666 9.275 9.711-2.658 3.954-12.775 4.185-1.065 8.285-5.804 4.22-6.085-2.993-9.421 4.289-5.428 3.875-3.403-2.51-6.515 1.225-3.419 4.388-3.837 13.642 1.09 4.91-12.723-6.025 3.11-7.15.294-8.477-7.716-3.361-11.115 5.256-2.084 4.963-8.462-.718-2.354-11.274 7.803-4.37-2.695-4.742.075-7.186 4.483-8.804.062-6.732-8.341-8.293 1.64-4.64 7.575 6.25 6.936 1.508 8.5-7.679 5.554-3.299 7.896-.116z" id="56844"/>
    <path d="M210.86 508.704l-2.585 3.766-4.486 1.013-3.825 5.68 1.96 3.528-1.92 6.891.955 9.677-2.431 5.708-3.474 6.12-5.508 2.09-6.807 7.595-6.342 1.361-7.361 4.997-2.265 7.551-5.982 1.72 4.129 17.572-2.672-.087-11.76-5.321-11.255 1.292-7.13 6.268-6.712 3.991-6.334 1.857-11.772-3.271-1.609-7.79-4.107 3.292-6.003-.565-5.717-5.473-5.96-2.599.05-8.74 2.868-11.34-5.304-4.655 1-13.227-2.824-6.412 9.217-15.069 9.811-1.982 10.195-4.048 10.093-.115 5.067 4.562 9.678-5.598 1.223-9.08-5.321-10.832 2.063-1.54 15.34 2.262 6.686-3.952 4.043-.276 8.629 3.094 3.316-2.4 6.893 1.863 10.274-.936 2.392-4.015 14.852 2.843 6.933-.709 1.697 5.415-11.689-1.789-2.948 3.86 3.385 4.28 9.355 1.673z" id="56014"/>
    <path d="M465.907 493.475l7.764 17.762 5.176 4.108-2.533 3.736 5.643 5.024.584 9.033-3.955.711-.733 5.528-4.137-.423-3.994 3.164 4.725 13.398-3.712 5.619-6.483-.329-7.766 3.97-7.82-.633-5.444-4.966-11.252 1.512-4.413 4.823-8.914-.091-3.547-8.925 1.379-8.817 5.423 1.58 5.001-7.937 2.332-9.458 7.135-.698 2.63-4.517-1.283-5.281 5.004-4.292-4.552-7.656-4.006-11.063 1.654-1.769 4.45-7.646 6.766-6.075 3.247 2.501 6.055.31 3.964 10.676 5.612-2.88z" id="57225"/>
    <path d="M311.547 478.484l-.401 4.761-8.315 10.759-6.388 4.847-1.212 10.27-3.766 5.743-12.888 7.739-8.741-4.695-6.095-.161-13.254 3.765-4.445 3.849-14.167-3.711-11.31 5.193-4.311 7.361-5.803 5.039-.278 9.144-7.047 2.915-4.599-6.335 2.432-5.708-.954-9.677 1.92-6.891-1.96-3.529 3.824-5.68 4.486-1.012 2.585-3.766 6.121-5.35 5.885-12.793-3.232-7.192 5.813 1.138 5.868-6.248 7.1-.584 8.532 7.602 9.03-1.26 7.565 3.921 4.68-3.929 9.344 3.337 2.228-3.472 10.42-1.865 12.442-3.506 8.89-.019z" id="58534"/>
    <path d="M435.813 496.589l-1.654 1.768 4.006 11.063 4.552 7.656-5.004 4.292 1.283 5.28-2.63 4.518-7.135.697-2.332 9.459-5.001 7.937-5.423-1.58-1.38 8.817-4.888-.09-9.118-4.508-10.981.148-.041-5.994-7.987-.363-5.399-3.272-1.172-6.152-8.871-7.086-6.832-3.801 4.445-8.655-8.824-7.407-5.126 2.219-2.182-3.523 1.49-3.02 11.636-5.883 8.53.625.654-7.344-6.329-5.717 6.266-2.498 3.613-5.7 6.136-1.802 4.073-1.91 11.55 3.237 4.43 5.942 7.904-4.545 16.35 3.383 4.625 7.968 5.893 2.491.873 3.35z" id="59327"/>
    <path d="M717.114 469.188l2.036 1.79 9.59 14.94 11.802 1.716 5.35 6.238-5.13 4.505-.49 7.47-5.737 16.004-4.337.03-12.053 4.377-2.92-.896-9.275-9.711-4.282-6.666-15.683-6.011-4.677 1.559-12.852.346-4.867-6.788-9.246-.148 3.08-4.68-1.652-8.307 6.26-2.925 5.478 1.473 15.877-2.66 4.654-4.159-3.616-6.933-4.574-4.768 10.844-5.864 4.233 2.73 3.03-2.771 4.834.486 7.985 4.92.353 5.009 5.985-.306z" id="57742"/>
    <path d="M260.316 440.105l9.85 12.207-.799 6.472 7.448 3.879 4.097 12.033 8.057-4.228 7.334-.55 3.74 1.63 9.146-.005 6.53 2.816-4.172 4.125-8.891.019-12.442 3.506-10.42 1.865-2.228 3.472-9.343-3.337-4.681 3.93-7.565-3.921-9.03 1.26-8.532-7.603-7.1.584-5.868 6.248-5.813-1.138 3.232 7.192-5.885 12.792-6.12 5.35-9.355-1.672-3.385-4.28 2.948-3.86 11.69 1.79-1.698-5.416-6.933.709-14.852-2.843 8.814-2.665 14.768-9.904 2.744-10.381 1.165-9.91 2.204-6.3 3.503 2.577 6.496-5.431 4.739-.464-2.148-7.032 6.518-.509 2.753 6.088 8.33-1.073 5.074-5.98 6.08-2.042z" id="59238"/>
    <path d="M437.152 438.692l10.13 2.703-5.083 3.666-3.209 8.242 11.323-4.014-3.076 23.803 4.19 2.697-.348 4.18-4.05 2.898-6.766 6.075-4.45 7.647-.873-3.35-5.893-2.491-4.624-7.968-16.35-3.383-7.905 4.545-4.43-5.942-11.55-3.236-4.073 1.909-2.294-3.358 3.57-9.349 8.216-6.038 2.757-4.263 5.225-2.282 2.176-6.906.39-7.911 1.4-1.738 13.915 5.287 12.884-2.319 3.714 2.302 5.084-1.406z" id="57706"/>
    <path d="M679.85 464.984l4.574 4.768 3.616 6.933-4.654 4.159-15.877 2.66-5.478-1.473-6.26 2.925-9.854-6.603 1.916-6.742-4.59-9.359-3.157-1.464 5.82-7.547.895-6.69-1.841-2.563 3.07-4.606 2.758-10.614 4.576-10.362 7.127 4.458 5.98 1.236 8.094-.65 1.522 3.566 8.557 2.41 6.147 11.238-5.92 2.666 4.071 5.957-3.861 4.869-9.363 5.828 2.132 5z" id="59657"/>
    <path d="M395.269 430.161l4.886 6.405-.39 7.911-2.176 6.906-5.224 2.282-2.758 4.263-8.217 6.038-3.57 9.349 2.295 3.358-6.136 1.802-3.613 5.7-6.266 2.498 6.33 5.716-.654 7.345-8.53-.625-11.637 5.884-1.49 3.019-4.689 2.546-6.602-1.09-4.74-4.27-3.688.71-4.76 7.25-4.264-1.88-5.967 6.385-3.286-.634-6.895-5.358-7.997-2.55 1.212-10.27 6.388-4.847 8.315-10.759.4-4.76 4.173-4.126 3.661.975 5.915-8.624 2.445-7.575-.216-5.603 3.058-2.645 9.655-2.45 2.666 4.24 5.547-4.832-2.94-7.835 2.593-4.989-3.314-6.329 3.156-3.807-.556-10.445 4.258-.799 16.867 7.116 5.763 5.921 14.925 1.423 6.067 2.06z" id="57902"/>
    <path d="M164.974 412.16l1.546 1.184 12.141.23 3.633 11.34-2.264 7.362.049 8.981-3.81 3.355 1.414 6.651 4.56 4.017-1.603 7.101 3.884 3.868-3.067 6.89-7.605 6.684-17.441 5.452 1.36 10.25-4.042.276-6.687 3.952-15.34-2.262-2.062 1.54 5.32 10.833-1.222 9.079-9.678 5.598-5.067-4.562-10.093.115-10.195 4.048-9.81 1.982-8.277 5.514-4.797-2.406.28-4.17-4.416-5.452-5.207-3.238-1.175-11.197-2.868-6.844-9.12-14.272.806-4.372-2.108-6.399 8.852 3.58 10.137-3.401 1.25-4.673 6.692-5.287 3.468 1.352 1.063-15.54 5.289-2.96 3.321-6.26 4.911 1.025 8.979-3.2 11.28 1.225 2.928-2.663 1.568-9.558 6.204-5.458-.784-5.3 6.131-2.186 10.58 5.537 3.454-4.406 5.708.036 10.071-5.962 1.859 2.971z" id="58464"/>
    <path d="M201.529 414.547l10.365 12.53-1.048 8.2 3.067 3.496 5.66 12.315-.602 2.883-2.204 6.3-1.165 9.91-2.744 10.382-14.768 9.903-8.814 2.665-2.392 4.015-10.274.935-6.893-1.863-3.316 2.4-8.63-3.093-1.36-10.25 17.441-5.452 7.605-6.684 3.067-6.89-3.884-3.868 1.603-7.1-4.56-4.018-1.413-6.65 3.809-3.356-.049-8.981 2.264-7.362-3.633-11.34-12.141-.23-1.546-1.184 6.64-5.338-.3-3.014 9.41-6.312 1.927 1.455 9.837-2.198-.275 5.596 3.143 7.078 6.173 5.12z" id="56461"/>
    <path d="M773.563 416.446l5.02 9.862-10.375 8.57-9.338.773-7.144 3.514-8.246.46-1.516 4.196 5.187 16.205-5.512 2.75-5.867-4.654-7.754-3.507-2.08 3.012-6.915 1.828-7.133-14.183 2.872-2.615 7.421.21-.24-6.179 5.333-4.246-2.106-3.963 1.82-4.686-2.944-5.525 6.768-5.623 2.556-4.386-2.51-4.159 2.202-5.292 7.014-2.951 9.713 6.909 8.077-.046 5.798 10.363 9.899 3.363z" id="56522"/>
    <path d="M255.112 391.514l4.769 12.036 7.424 12.263-.222 5.583-4.506 4.94-2.261 13.77-6.08 2.04-5.074 5.98-8.33 1.074-2.753-6.088-6.518.509 2.148 7.032-4.739.464-6.496 5.43-3.503-2.576.602-2.883-5.66-12.315-3.067-3.497 1.048-8.2-10.365-12.53 2.555-7.436 7.803-3.585 2.884-6.436 9.696.74 8.57 4.546 4.574.144 13.176-13.642 4.325 2.637z" id="58393"/>
    <path d="M733.062 398.808l-2.202 5.293 2.51 4.158-2.556 4.386-6.768 5.623 2.944 5.525-1.82 4.686 2.106 3.963-5.333 4.246.24 6.179-7.42-.21-2.873 2.615 7.133 14.183 6.914-1.828-4.728 2.894-4.095 8.667-5.985.306-.353-5.01-7.985-4.92-4.834-.485-3.03 2.771-4.233-2.73-10.844 5.864-2.132-5 9.363-5.828 3.861-4.87-4.072-5.956 5.92-2.666-6.146-11.238-8.557-2.41-1.522-3.565-8.093.65-5.981-1.237-7.127-4.458.515-2.928 7.952-7.22 3.7-5.211 3.894 5.7 7.146.537-1.235-5.671 5.707-2.753 15.384-2.307 2.56-4.594-4.463-8.573 8.695.302 13.228 14.396 3.163-1.264-.62-6.409 7.724 2.85 4.348 3.547z" id="58623"/>
    <path d="M347.389 414.44l.556 10.445-3.156 3.807 3.314 6.33-2.592 4.988 2.939 7.835-5.547 4.832-2.666-4.24-9.655 2.45-3.058 2.645.216 5.603-2.445 7.575-5.915 8.624-3.661-.975-6.53-2.816-9.145.006-3.74-1.63-7.335.549-8.057 4.228-4.097-12.033-7.448-3.88.798-6.471-9.85-12.207 2.262-13.769 4.506-4.94.222-5.583-7.424-12.263-4.769-12.036 8.245-1.288 6.453 3.955 6.769-1.801 5.54-4.597 4.648-10.42 20.08 14.643 9.742 9.176 6.64 2.468 6.848-1.11 13.12 7.85 4.192 4.05z" id="56568"/>
    <path d="M657.253 381.168l3.883 5.74 4.481 2.926 5.517 10.783 6.202 2.995 1.235 5.672-7.146-.538-3.893-5.699-3.7 5.211-7.953 7.22-.515 2.928-4.576 10.362-2.759 10.614-3.07 4.606-6.22 1.375-9.89-2.205-5.839-2.874.486-5.357 5.487-3.448-9.267-8.36-5.852-3.203-.173-9.316-.557-.893 10.142-3.717 3.526-4.31-2.635-4.453-.087-9.58 6.055-.971 5.426-11.824 10.392.95 1.815 4.052 9.485 1.314z" id="56354"/>
    <path d="M139.04 385.637l-2.169 4.052-4.584 2.003-.476 7.832 3.832 2.255 8.6-1.273-2.06 8.409-8.746-1.153-6.1 1.822 5.965 4.4-6.131 2.186.784 5.3-6.204 5.458-1.568 9.558-2.928 2.663-11.28-1.226-8.979 3.2-4.91-1.024-3.322 6.26-5.29 2.96-1.062 15.54-3.468-1.352-6.693 5.287-1.249 4.673-10.137 3.401-8.852-3.58-4.775-10.724-8.667-7.068-1.745-5.696 1.89-8.66-.871-4.61 13.582 1.71 6.692-3.404 6.074 1.147 6.608-2.352-1.833-6.112-5.707-10.971-4.38-4.508.043-9.34 7.37 2.755 5.133-.372-1.1-5.771 3.063-3.787.344-5.621 3.544-1.317 1.898-12.883 4.32.635 2-5.04 6.102 4.58 7.868-.65 2.306 6.896 8.81-6.698.39 5.117 6.766-1.665 5.464.895 9.025 5.802 6.813.061z" id="59283"/>
    <path d="M168.924 357.012l-3.746 3.354 7.388 4.443 1.13 5.977 9.269 4.972 7.105 5.365 7.346 1.712 8.513-1.005 1.488 2.919.671 9.78 6.683 2.56-2.884 6.436-7.803 3.585-2.555 7.437-6.173-5.12-3.143-7.078.275-5.596-9.837 2.198-1.927-1.455-9.41 6.312.3 3.014-6.64 5.338-1.859-2.971-10.071 5.962-5.708-.036-3.454 4.406-10.58-5.537-5.965-4.4 6.1-1.822 8.746 1.153 2.06-8.409-8.6 1.273-3.832-2.255.476-7.832 4.584-2.003 2.169-4.052 12.313-4.52 4.691-11.516-1.694-5.314 1.288-6.885 13.286-.39z" id="59434"/>
    <path d="M635.561 374.852l-5.426 11.824-6.055.97.087 9.581 2.635 4.453-3.526 4.31-10.142 3.717-6.305-.37-6.938 1.822-8.464-1.4-3.92-6.711-10.306-1.833-4.197 1.16-10.243-4.604-2.268 2.07-6.124-3.363 2.972-5.713-4.875-2.742-1.547-4.078-8.447-3.17-.341-8.448-3.513-3.024-3.197-11.459 5.812-3.1 18.07 6.376 5.863-5.635 5.115 2.043 12.042 2.073 2.626-1.856 10.801.797 1.624 4.618 9.665 2.266 5.068-.708 7.07 4.39 7.64-1.607 8.744 7.351z" id="58259"/>
    <path d="M281.833 362.31l1.849 5.094-5.013 1.871-8.514 6.545-5.567 8.316-1.231 6.09-8.245 1.288-4.325-2.637-13.176 13.642-4.574-.144-8.57-4.546-9.696-.74-6.683-2.56-.671-9.78 3.746.163 2.457-4.986 5.144-3.918-.587-7.367 11.032-2.569 6.927 1.7-.455 4.888 14.901-3.27 14.095-12.433 6.745.62 1.17-2.768 9.241 7.5z" id="58204"/>
    <path d="M791.32 359.169l3.437 8.245-1.763 4.26-7.826 11.073 2.822 2.576 1.698 8.756L779 399.792l4.235 7.078-9.672 9.576-9.9-3.363-5.797-10.363-8.077.046-9.713-6.91 3.933-2.833 4.862-13.889-5.201-4.686 9.794-4.901-4.598-16.94 8.434-3.175 7.637 5.307 5.175-.765 21.208 5.195z" id="56773"/>
    <path d="M679.117 343.477l17.3 8.288 2.383 8.852-1.623 3.685 6.089 7.299-9.036 8.192 2.294 5.593 4.463 8.573-2.56 4.594-15.384 2.307-5.707 2.752-6.202-2.995-5.517-10.783-4.48-2.926-3.884-5.74 3.681-11.679-5.27-.32-1.722-4.943-5.835-2.546 3.948-5.429-.233-4.378 7.26-6.85 4.858-3.228 15.177 1.682z" id="58794"/>
    <path d="M734.595 343.715l5.613 4.756 8.659 4.136 4.597 16.94-9.794 4.901 5.2 4.686-4.861 13.889-3.933 2.834-7.014 2.95-4.348-3.547-7.724-2.849.62 6.41-3.163 1.263-13.228-14.396-8.695-.302-2.294-5.594 9.036-8.191-6.09-7.299 1.624-3.685-2.384-8.852-17.299-8.288 2.104-6.34 6.83-3.224 2.983 1.394 12.046.263 6.229 1.42 9.704-4.073 7.473 3.008 8.109 7.79z" id="57831"/>
    <path d="M354.405 335.36l3.176 7.527-2.019 4.548 3.32 2.137 3.784 10.511-.928 3.423 4.697 9.078 8.777 6.048 2 4.024 8.151 1.342.648-5.391 4.283-3.285 13.81-1.873.64 3.2-4.253 5.456-1.619 9.539 1.569 10.385 2.386 3.316-1.92 9.824-5.058 5.683-.58 9.31-6.067-2.06-14.925-1.424-5.763-5.921-16.867-7.116-4.697-9.65 3.764-4.416-5.269-9.004 6.54-6.372-6.583-4.438 1.643-13.58-1.704-10.765-8.668-2.526 2.885-3.622.013-6.61-2.358-3.721 2.465-5.767 7.511-2.132 7.216 4.322z" id="57948"/>
    <path d="M229.209 366.072l-11.032 2.57.587 7.365-5.144 3.92-2.457 4.985-3.746-.163-1.488-2.919-8.513 1.005-7.346-1.712-7.105-5.365-9.27-4.972-1.13-5.977-7.387-4.443 3.746-3.354-9.415-2.663-5.663-7.99-2.866-10.15.544-6.621 2.497-4.44 3.27-2.046 5.46 3.944 4.076-.3 5.918 3.302.643 3.59 13.527.909 4.672 5.219 4.763 1.47 8.97 10.439 2.552-6.442 6.75-4.416.637-3.37 9.251 2.49 6.216 5.947-4.534 8.564-.287 8.013 3.304 3.611z" id="55446"/>
    <path d="M648.107 361.68l5.835 2.546 1.722 4.942 5.27.321-3.681 11.68-9.485-1.315-1.815-4.051-10.392-.95-8.744-7.352-7.64 1.607-7.07-4.39-5.068.708-9.665-2.266-1.624-4.618-10.801-.797-2.626 1.856-12.042-2.073-5.115-2.043-5.862 5.635-18.071-6.375.079-4.09 10.697-19.937 5.151-2.398 11.102.545 6.818-2.066 1.17-5.047 4.325-6.225 10.937-3.611 15.835-3.495-2.633 8.996 6.648 3.838 1.936 3.272.009 7.49 1.952 5.036-5.58 7.373-1.447 6.454 8.491-.708 2.462-5.183 14.124-.303 3.663 7.594 7.458 8.861 3.677.539z" id="56210"/>
    <path d="M516.2 303.67l5.885 4.255 1.573 4.338 9.422 3.641 3.552 5.458 9.275 7.24 6.102 2.116-10.697 19.936-.08 4.09-5.81 3.1-9.246-3.408-6.497-5.104-7.862-3.412-7.412-.252-9.953 2.112-2.03-4.848 5.2-3.89-3.023-5.097-5.62-4.148-2.085 1.772-8.093-.86-5.63 3.487-7.869.173-4.417 4.238-.542-3.19 3.94-11.751 4.095-3.46 4.378-8.08 6.968.222 2.87-3.542-.314-5.356 9.157 4.065 6.228-4.127 6.269 6.5 9.623 1.21 2.643-7.428z" id="56265"/>
    <path d="M133.972 303.5l2.956 5.036 7.23 3.636 9.863 12.976-2.497 4.44-.544 6.62 2.866 10.15 5.663 7.991 9.415 2.663-13.286.39-1.288 6.885 1.694 5.314-4.69 11.516-12.314 4.52-6.813-.061-9.025-5.802-5.464-.895-6.766 1.665-.39-5.117-8.81 6.698-2.306-6.895-7.868.65-6.103-4.582-2 5.041-4.319-.635-1.898 12.883-3.544 1.317-.344 5.62-3.064 3.788 1.1 5.77-5.133.373-7.369-2.755-.043 9.34 4.38 4.508 5.707 10.97 1.833 6.113-6.608 2.352-6.074-1.147-6.692 3.404-13.582-1.71.1-2.964-29.758-22.74-3.98-.268L1 406.088l10.485-3.867 13 1.23 10.166-.84 3.507-5.193 8.275-2.556 3.224-12.331 5.394-7.696 2.298-12.21 4.146-11.148 10.818-11.75 8.97-3.42 5.08-15.805 5.994-4.768 7.988.09-.177-5.191 5.663-9.643 6.28.624 2.032 3.856 6.43.182 13.399-2.152z" id="59041"/>
    <path d="M431.268 305.635l.81 5.697-1.34 9.65-1.783 3.787-5.264 3.517-.683 4.93-4.275-.398-7.582 8.818 1.097 4.816 8.015 6.89-2.531 7.372 1.009 7.81-13.658 3.151-.979 1.774-13.81 1.873-4.283 3.285-.648 5.39-8.152-1.341-2-4.024-8.776-6.048-4.697-9.078.928-3.423-3.784-10.511-3.32-2.137 2.02-4.548-3.177-7.526 7.436-7.092-4.324-4.67 7.859-4.653 2.748-3.677 6.744-3.881 5.138-6.166 9.393-.822 2.693 2.476 8.561 1.602 5.976 3.728 8.561-2.87 5.37-3.383 10.708-.318z" id="59586"/>
    <path d="M629.71 297.254l6.32 10.306 16.949-1.728 3.028 2.633 10.35-1.105 1.786 5.132-6.571 5.945-3.854 8.717 1.684 7.808-3.551.026 3.23 10.035-7.259 6.85.233 4.378-3.948 5.429-3.677-.539-7.458-8.86-3.663-7.595-14.124.303-2.462 5.183-8.491.708 1.446-6.454 5.581-7.373-1.952-5.036-.01-7.49-1.935-3.272-6.648-3.838 2.633-8.996-.369-4.737 6.017-5.209 10.221-2.504 6.494 1.283z" id="59416"/>
    <path d="M337.214 338.937l2.357 3.72-.014 6.611-2.884 3.622 8.668 2.526 1.704 10.764-1.643 13.581 6.582 4.438-6.539 6.372 5.27 9.004-3.765 4.416 4.697 9.65-4.258.799-4.193-4.05-13.12-7.85-6.847 1.11-6.64-2.468-9.742-9.176-20.08-14.643-4.649 10.42-5.54 4.596-6.768 1.802-6.453-3.955 1.23-6.09 5.568-8.316 8.514-6.545 5.013-1.87-1.849-5.095 2.79-9.046 4.246-1.796 6.285-6.576-4.729-6.25-.909-9.419-2.07-6.577 3.182-2.865 7.915-2.897-4.965-5.429 3.1-9.446 3.454.11 3.64-4.587 3.27 1.964-2.391 6.533 8.684 5.97-.027 15.8 4.014 5.383 6.776.005-1.025 6.54 7.431 2.717 6.71-3.507z" id="55473"/>
    <path d="M496.749 274.053l2.85.07 7.452 5.649 1.014 11.33 8.135 12.568-2.643 7.428-9.623-1.21-6.27-6.5-6.227 4.127-9.157-4.065.313 5.356-2.87 3.542-6.967-.222-4.378 8.08-4.095 3.46-3.94 11.752.542 3.19-6.09 2.82-4.858-7.05-4.596-2.93-2.016-4.367 3.247-8.73-7.581-.223-8.253 2.854 1.34-9.65-.81-5.697 2.18-8.506 6.03-5.859 4.605-2.03 12.316 3.454 3.825-5.137.669-8.775-4.236-4.55-3.511 2.37-3.24-6.214 3.76-2.593 1.889-6.715 4.438.897 3.847 6.295 14.847 8.51 4.44-1.887 6.171 1.13 7.45-1.972z" id="60099"/>
    <path d="M83.695 278.61l-6.212 14.93 1.68 6.55-.648 6.73 1.21 7.878-7.341 12.534-4.162-1.901-9.07.19-11.393-8.216-3.848-7.836-9.519-4.208-6.344-.27-2.16-2.409-1.715-9.712-.549-11.215 10.648-7.113 3.573-7.028 5.855-2.9 7.177-9.111 4.413.013 8.062 3.823 13.183 10.363 1.925 4.459 5.235 4.448z" id="60169"/>
    <path d="M559.782 307.253l6.24-.368 1.358 2.61 7.983.663 5.212 5.37-4.324 6.224-1.171 5.047-6.818 2.066-11.102-.545-5.151 2.398-6.102-2.115-9.275-7.241-3.552-5.458-9.422-3.64-1.573-4.34-5.885-4.254-8.135-12.568-1.014-11.33-7.452-5.649-2.85-.07-3.099-.186 2.126-12.664 3.184-.448-1.21-9.759 10.993-.158 5.413 9.064 2.786 1.66 7.883 19.012 7.973 8.67 1.821 5.301 13.192 10.781 5.448 2.331 6.523-.404z" id="57546"/>
    <path d="M426.115 249.05l1.5 6.56 5.386-5.278 4.203 2.514 7.58 8.01 10.77.224-1.888 6.715-3.76 2.593 3.24 6.214 3.51-2.37 4.237 4.55-.669 8.776-3.825 5.136-12.316-3.454-4.604 2.03-6.031 5.86-2.18 8.505-10.708.318-5.37 3.383-8.56 2.87-5.977-3.728-8.561-1.602-2.693-2.476-9.393.822-6.242-5.463.354-6.045 5.314-.032-.887-7.977 9.295.127 2.127-2.851-1.094-6.5 12.33 1.274 1.604-3.8 5.222 1.548 1.158-4.284 8.919-2.243-.676-5.716 6.115-3.096-2.914-5.38 5.484-5.734z" id="55776"/>
    <path d="M653.83 252.22l.151 5.18-4.891.148-11.234 7.414 2.57 4.6-5.773 7.344-6.478 1.292-.923 4.596 4.04 2.034.71 5.627-2.292 6.799-6.494-1.283-10.221 2.504-5.915-8.513 1.281-3.352-2.666-5.487 5.416-4.568 6.855-.66 2.467-7.519-9.925-8.95-3.855-11.096 4.9-8.398 9.468 2.017 12.27 7.575 2.375-2.944 1.609-10.578 4.377-.764 7.364 10.345 3.31.06 1.505 6.576z" id="55384"/>
    <path d="M694.597 236.917l1.64 1.707 4.569 12.277-1.277 11.924-3.792 4.4-.416 4.542-5.512 10.365-2.339 1.303-10.578-6.023-10.387-2.106 3.754 10.324-.057 5.57-4.797 1.59-1.442 4.183 2.394 10.387-10.35 1.105-3.028-2.633-16.949 1.728-6.32-10.306 2.292-6.799-.71-5.627-4.04-2.034.923-4.596 6.478-1.292 5.772-7.344-2.569-4.6 11.234-7.414 4.891-.148-.15-5.18 8.172 1.145 4.157-5.566 6.487-2.1 3.987-5.756 5.038 1.462 1.948-6.35 4.63 3.225 6.347-1.363z" id="57644"/>
    <path d="M748.361 227.084l-4.762 14.72 1.198 2.787-5.564 11.842 4.74 2.26.194 7.923-4.907 5.03-3.492 13.376 4.286.507 5.311 9.723-2.585 8.36-5.789.989-6.732-1.232-2.941-3.772-22.742 4.094-6.856-6.768-1.059-9.094-5.594-1.281-1.258-4.416 5.512-10.365.416-4.543 3.792-4.399 1.277-11.924-4.569-12.277 4.398-1.206 8.432 2.388 2.087-4.045 7.553-.75 7.028 1.67 2.409-3.844.373-8.082 9.566 3.596 5.66.729 4.618-1.996z" id="59498"/>
    <path d="M564.886 211.608l3.84 2.011.52 4.523 5.636 3.999 4.081-.155 4.733 11.273 2.478 12.763-1.606 8.984.925 4.317-4.538 12.95-7.762-4.442-3.491-.08-8.664-6.768-2.347-6.152-9.863-1.491-4.883-5.022-4.035-1.314-4.08-8.39 1.19-2.932-6.341-14.844-7.024-1.977 1.033-5.337 5.301-3.043 2.207-5.667 7.441-1.883 6.106 7.683 7.49-7.447 5.822 2.4 5.83 6.04z" id="55623"/>
    <path d="M430.021 203.833l4.355 7.263 5.335 12.91 4.986.726 3.295 5.604 10.995 3.203 6.764-3.587.322-7.732 11.67 3.783 7.723-8.256-.735-7.967 6.49-2.207 4.173.922 7.7 11.045 1.545 9.59 5.84 12.346-1.736 9.362-10.992.158 1.21 9.759-3.185.448-2.126 12.664 3.099.186-7.451 1.972-6.17-1.13-4.44 1.887-14.848-8.51-3.847-6.295-4.438-.897-10.772-.225-7.579-8.01-4.203-2.513-5.386 5.278-1.5-6.56 4.535-4.226-7.668-7.04 2.237-2.645-4.186-8.118-7.991-1.617-2.19-11.633-7.395-6.372.134-5.058 7.054 3.376 3.657-3.37 6.481 1.666 9.238-.18z" id="58856"/>
    <path d="M697.152 218.178l-1.553 8.327.939 8.768-1.94 1.644-6.347 1.363-4.63-3.225-1.95 6.35-5.037-1.462-3.987 5.757-6.487 2.099-4.157 5.566-8.172-1.146-1.505-6.576-3.31-.06-7.364-10.345-4.377.764-1.61 10.578-2.374 2.944-12.27-7.575-9.468-2.017-2.752-2.814-1.272-6.477-8.71-4.905-4.006-8.92 8.187-3.78 4.03.137 4.204-5.304 6.727-.375 3.86-2.584 8.423.833 7.833-5.635 1.875 4.536 7.124-4.1 1.208-6.412 15.701 3.82 1.118 6.439-1.183 7.02 10.034 6.574 3.707-6.718 13.557 3.24 5.934 3.671z" id="58552"/>
    <path d="M556.92 166.225l1.97 2.072-4.025 16.848-.003 6.062-2.832 4.57-10.71-.448-12.75 4.064-4.53 7.642-2.102-.66-6.676-7.628-.926-3.536-5.348-2.313-13.095 4.51-.827 4.797-3.845 5.368-6.49 2.207-7.125-2.368-11.246-7.893-3.817-7.781 9.863-4.112.795-5.073 3.728-.633 3.716-4.988-2.543-4.337-5.76.094 3.04-9.176 5.323-3.933 4.856-.29 1.44-8.406 9.41-3.71.94-2.315 6.75 7.68 5.958-1.383 9.188 6.107 2.256-5.851 3.802-2.124 1.61-5.143 6.322-3.427 1.97 2.064 6.104-2.46 9.593 5.913 6.633 9.73 1.43 6.74-2.047 3.52z" id="56096"/>
    <path d="M487 150.884l-1.44 8.406-4.855.29-5.322 3.933-3.041 9.176 5.76-.094 2.543 4.337-3.716 4.988-3.728.633-.795 5.073-9.863 4.112 3.817 7.78 11.246 7.894 7.125 2.368.735 7.967-7.723 8.256-11.67-3.783-.322 7.732-6.763 3.587-10.996-3.203-3.295-5.604-4.986-.726-5.335-12.91-4.355-7.263 2.103-4-2.742-5.909.647-5.59 2.9-3.863 4.515 3.118 2.494-2.983-2.866-13 1.79-6.918-1.385-7.691 4.574-1.51 6.414 1.383 8.296-3.966 8.742-11.523 10.376-2.249 9.395 7.16 1.726 4.592z" id="59130"/>
    <path d="M656.614 119.31l-.433 8.845 6.933 15.214 4.466 4.752-.66 7.285-11.346 3.384-2.847 4.865-6.912-.166-1.627 4.705-4.968 1.847-.582-8.2 4.272-6.293-9.603-4.208 2.034-15.502-2.326-4.096 4.366-2.52 1.845-7.562 17.388-2.35z" id="55062"/>
    <path d="M566.472 89.756l3.236 2.141.532 6.009-4.296 6.485 3.365 11.05 4.417 2.853-2.053 5.831 3.883 3.142 5.37.033 6.808-3.694 1.95 1.554 5.55 3.742-1.042 6.74 4.763 4.59 3.972-3.808 6.584 2.417 3.328 5.546-6.775 4.438-10.478.547-7.473-5.454-7.966-3.143-4.105.924-4.692-3.533-4.647-8.275-4.378-4.096-5.932 1.072-1.399 3.994-9.459 2.877-14.234 1.781 1.936 5.2-6.322 3.427-1.61 5.142-3.802 2.124-2.256 5.851-9.188-6.107-5.958 1.384-6.75-7.68 8.206-6.85-3.41-8.509 4.545-5.23 4.999-16.284 3.897-3.874.072-3.835 4.527-1.652 9.952.105 7.317-4.98 19.355-1.599 8.635 3.466 1.026-5.862z" id="59942"/>
    <path d="M595.983 88.382l17.49 16.64-6.088 6.502-1.161 4.556-5.47 6.172-8.332.178-2.738 2.73-1.95-1.554-6.807 3.694-5.37-.033-3.884-3.142 2.053-5.83-4.417-2.853-3.365-11.05 4.296-6.486-.532-6.009-3.236-2.141 1.194-13.388 2.94-11.02 6.203 7.998 10.566 7.02-.375 3.212 8.983 4.804z" id="57314"/>
    <path d="M600.09 47.797l.097 6.972 8.196 9.139 7.25 4.431.499 6.354 5.303 1.758.72 3.828 5.748 1.139 4.43-1.842 3.422-4.522 13.812-1.052.407 7.483-1.492 7.722 2.407 12.004 2.437 3.18-.106 8.181 3.394 6.738-17.388 2.35-1.845 7.562-4.366 2.52 2.326 4.096-2.034 15.502-10.903 4.456-9.278-4.874-.287-6.535-3.328-5.546-6.584-2.417-3.972 3.807-4.763-4.588 1.042-6.74-5.55-3.743 2.738-2.73 8.332-.178 5.47-6.172 1.16-4.556 6.089-6.502-17.49-16.64-.364-11.175-6.77-10.109 7.364-7.455.352-11.163 3.525-.683z" id="56666"/>
    <path d="M649.567 74.002l-13.812 1.052-3.423 4.522-4.43 1.842-5.748-1.14-.719-3.828-5.303-1.757-.498-6.353-7.25-4.432-8.197-9.14-.097-6.97 3.92-3.467-.215-4.38 6.781-6.083-.192-10.711-2.944-2.161L613.73 1l2.64 3.194 9.658-2.409 7.605 4.534 5.063 8.184 9.711-1.492 2.638 3.426 10.252-5.81 6.384.605 6.685-4.342 9.988 2.6 6.476-2.615 9.95 3.022-2.573 12.697 4.357 9.67.273 6.958-10.675 7.863-3.202-.492-8.695-7.246-5.312 6.952-8.971-3.087-1.604 6.894-4.993-2.055-6.554 9.154 3.542 8.515-2.144 7.585-4.662.697z" id="57083"/>
    <path d="M455.201 391.454l3.277 2.582.677 12.046-8.903 7.78-.898 2.296 4.75 7.274-.208 4.945-5.544-1.273-4.443 4.4-4.473.207-5.497 3.56 3.213 3.42-5.084 1.407-3.714-2.302-12.884 2.32-13.915-5.288-1.4 1.738-4.886-6.405.58-9.309 5.058-5.683 1.92-9.824-2.386-3.317-1.569-10.384 1.62-9.539 4.251-5.457-.639-3.199.98-1.774 13.657-3.15-1.01-7.811 2.532-7.373 3.786-1.952 9.134 7.978 3.948.642 8.997 15.28 1.127 8.816 7.946 7.349z" id="55838"/>
    <path d="M460.885 338.607l4.417-4.238 7.869-.173 5.63-3.487 8.093.86 2.084-1.772 5.62 4.148 3.024 5.096-5.2 3.891 2.03 4.848 9.953-2.112 7.412.252 7.862 3.412 6.497 5.104 9.245 3.408 3.197 11.46-7.17 3.236-2.22-4.168-5.206 4.88-4.663-5.448-7.035-.105-17.126 5.753-7.813-1.413-9.323 2.951-8.56.5-2.553 5.17 5.378 2.543-1.742 5.63-7.683-5.373-7.7 7.994-7.947-7.35-1.127-8.815-8.997-15.28-3.948-.642-9.134-7.978-3.786 1.952-8.014-6.889-1.098-4.816 7.582-8.818 4.275.399.683-4.93 5.264-3.518 1.783-3.787 8.253-2.854 7.58.224-3.246 8.73 2.016 4.367 4.596 2.929 4.859 7.05 6.089-2.82z" id="56988"/>
    <path d="M791.32 359.169l-21.208-5.195-5.175.765-7.637-5.307-8.433 3.175-8.659-4.136-5.613-4.756 1.34-5.993 5.603-.372 12.527-12.96 5.641 1.872 1.36 7.828 5.226-.313 4.005-2.88.862-5.152 7.09 1.346 4.903-.979-2.7 7.555 7.48 3.68 4.52 5.329.966 7.427 5.582 6.824-7.68 2.242z" id="56327"/>
    <path d="M689.809 282.132l1.258 4.416 5.594 1.28 1.06 9.095 6.855 6.768 22.742-4.094 2.94 3.772 6.733 1.232 5.789-.989 9.398-3.853 8.629 2.348 4.16-1.379 8.76 1.56-2.748 3.385-.494 8.028-3.27 2.15-1.368 6.188 5.312 3.706-.862 5.152-4.005 2.88-5.226.313-1.36-7.828-5.641-1.873-12.527 12.96-5.603.373-1.34 5.993-8.11-7.79-7.472-3.008-9.704 4.074-6.23-1.421-12.044-.263-2.984-1.394-6.83 3.225-2.104 6.339-15.177-1.682-4.859 3.228-3.23-10.035 3.55-.026-1.683-7.808 3.854-8.717 6.571-5.945-1.786-5.132-2.394-10.387 1.442-4.182 4.797-1.591.057-5.57-3.754-10.324 10.387 2.106 10.578 6.023 2.339-1.303z" id="59826"/>
    <path d="M748.361 227.084l-4.619 1.996-5.659-.729-9.566-3.596-.373 8.082-2.41 3.845-7.027-1.672-7.553.75-2.087 4.046-8.432-2.388-4.398 1.206-1.64-1.707 1.941-1.644-.938-8.768 1.552-8.327 5.424-4.004-4.6-7.926-.583-4.225-3.991-5.304 1.68-5.327-1.209-9.643 5.681-6.837 1.077-5.327 6.43 2.294.538 5.69 12.031 1.14 2.624 9.501 7.241 2.053 5.97-8.315 5.596 2.16.235 7.622 5.45 4.959-.055 6.672 7.057 8.034.099 9.425-5.486 6.264z" id="59880"/>
    <path d="M700.631 169.585l-1.077 5.327-5.68 6.837 1.208 9.643-1.68 5.327 3.991 5.304.583 4.225 4.6 7.926-5.424 4.004-5.934-3.67-13.557-3.24-3.707 6.717-10.034-6.574 1.183-7.02-1.118-6.44-15.701-3.819-3.43-6.328 2.21-5.48-4.522-3.393 3.95-4.454-2.304-6.283 1.627-4.705 6.912.166 2.847-4.865 11.345-3.384 7.052-3.39 10.417-1.479 5.461 1.714-1.025-6.496 6.762-1.999 6.24 10.525-2.366 6.845-4.77-2.712 1.51 11.777 4.431-.606z" id="55160"/>
    <path d="M538.618 369.303l3.513 3.024.341 8.448 8.447 3.17 1.547 4.078 4.875 2.742-2.972 5.713 6.124 3.363 2.268-2.07 10.243 4.603 4.197-1.16 10.306 1.834 3.92 6.711 8.464 1.4 6.938-1.821 6.305.37.557.892-4.65 3.602 2.92 3.558-8.35 10.76-5.665 1.138-1.438 3.293-10.465-.512-4.173 1.625-7.452-6.26-11.42 13.932-7.02 2.208.811 8.557-4.013 2.459-.468 4.099 5.77 4.305 4.9.807 5.241-5.72 2.053 14.254-1.481 6.076 2.41 4.684-3.685 4.313-6.543-4.314-10.609 3.186.008-2.968-5.627-2.851.078-8.092-4.147.07.917-6.05-4.77-3.382 1.552-3.397-6.913-11.11-3.037-2.11-1.243-7.618 5.221-2.123 1.432-5.283 4.767-2.895-2.125-9.081 4.556-7.326-5.837-3.106 2.499-6.758-6.551-7.552-10.43-6.83-7.405.61-13.485-1.682-4.627-13.663 17.127-5.754 7.035.105 4.663 5.447 5.206-4.88 2.22 4.17 7.17-3.238z" id="55687"/>
    <path d="M644.96 443.988l1.84 2.563-.893 6.69-5.821 7.548 3.158 1.463 4.589 9.36-1.916 6.741 9.854 6.603 1.651 8.307-3.079 4.68-7.895.116-5.556 3.3-8.5 7.678-6.936-1.508-7.574-6.25-1.64 4.64-3.52.88-1.972-5.83-7.994 2.123-2.184 5.311-.444 8.358-6.212-2.283-3.612-10.064-3.114-3.249-8.012-2.889-4.548-4.67-10.912-1.048 3.798-4.78 3.686-4.313-2.411-4.684 1.481-6.076-2.053-14.253-5.241 5.719-4.9-.806-5.77-4.306.468-4.1 4.013-2.458-.811-8.557 7.02-2.208 11.42-13.932 7.452 6.26 4.173-1.625 10.466.512 1.437-3.293 5.665-1.138 8.35-10.76-2.92-3.558 4.65-3.602.173 9.316 5.852 3.203 9.267 8.36-5.487 3.448-.486 5.357 5.839 2.874 9.89 2.205 6.22-1.375z" id="57350"/>
    <path d="M616.242 505.92l8.34 8.292-.06 6.732-4.484 8.804-.075 7.186 2.695 4.742-7.803 4.37 2.354 11.274 8.462.718-.503 6.502-6.736-5.708-6.5 1.219-2.139-4.426 3.212-4.719-9.028-1.818-6.113 2.567-4.904-7.772-4.648-3.812-8.422-2.962-.033-3.785-6.532-3.894 5.38-6.669 3.337-7.504.223-9.68-3.087-7.301 8.012 2.89 3.114 3.248 3.612 10.064 6.212 2.283.444-8.358 2.184-5.311 7.994-2.124 1.971 5.832 3.52-.88z" id="58990"/>
    <path d="M598.818 225.736l8.71 4.905 1.273 6.477 2.752 2.814-4.9 8.398 3.855 11.095 9.925 8.951-2.467 7.52-6.855.659-5.416 4.568 2.666 5.487-1.281 3.352 5.914 8.513-6.016 5.21.369 4.736-15.835 3.495-10.937 3.611-5.212-5.369-7.983-.664-1.357-2.61-6.241.369 4.139-9.832 3.399-15.28-2.286-1.026 4.668-13.364 3.491.08 7.762 4.442 4.538-12.95-.925-4.317 1.606-8.984-2.478-12.763.057-2.648 15.065-4.875z" id="58142"/>
    <path d="M521.938 206.376l2.75 7.148-1.033 5.337 7.024 1.977 6.34 14.844-1.188 2.932 4.079 8.39 4.035 1.314 4.883 5.022 9.863 1.491 2.347 6.152 8.664 6.768-4.668 13.364 2.286 1.026-3.399 15.28-4.139 9.832-6.523.404-5.448-2.331-13.192-10.781-1.82-5.301-7.974-8.67-7.883-19.012-2.786-1.66-5.412-9.064 1.735-9.362-5.84-12.346-1.545-9.59-7.7-11.045-4.173-.922 3.845-5.368.827-4.797 13.095-4.51 5.348 2.313.926 3.536 6.676 7.629z" id="57449"/>
    <path d="M536.824 463.377l4.769 3.381-.917 6.05 4.147-.07-.078 8.093 5.627 2.85-.008 2.969 10.609-3.186-3.081 6.793-4.945 4.715-7.448 2.051-6.344-5.886-13.183 3.376-1.816-4.09-9.7 7.742-2.85 8.558 5.175 3.846-1.826 3.896.11 7.787-6.265.925-1.593-2.503-10.4-3.246-2.983-4.9-3.501-.729-3.648-5.519-4.995-1.207-3.062-6.576-10.623-7.694 10.777-9.41-3.23-8.37 2.188-6.037 7.004-1.484 10.094-5.388 4.68 5.375 7.402 4.4 9.783-2.07-.324-6.337 6.882-.307 1.528 4.315 6.248-3.101 5.797.988z" id="57582"/>
    <path d="M567.516 487.777l-3.798 4.781 10.913 1.049 4.547 4.669 3.087 7.301-.223 9.68-3.338 7.504-5.379 6.669-5.324-.573-4.387 6.457-3.164-8.36-5.836-5.772-8.996-.716-2.02-1.701-5.816 4.895-6.244-6.27-3.733.038-4.008-4.803-7.016-2.056-5.174-3.846 2.848-8.558 9.701-7.742 1.816 4.09 13.183-3.376 6.344 5.886 7.448-2.05 4.945-4.716 3.08-6.793 6.544 4.313z" id="55598"/>
    <path d="M603.196 624.222l11.91 4.973 6.564 15.627 9.704 4.116.093 5.908 4.18 10.448-11.039 2.925-6.065 4.163-5.94 1.64-6.34-1.29-4.173-7.83-7.066-2.861-3.198-6.192 2.093-3.25-3.025-11.421.776-6.677-16.537-2.131-.26-8.55 9.477-1.828 16.383 1.169 2.463 1.062z" id="56425"/>
    <path d="M477.853 539.377l2.646 6.15 5.017 2.733 1.418 5.317 6.045-3.238 24 1.743-4.233 9.928 9.64 3.357 6.63-3.824 4.798 2.156-6.242 11.825-2.988.932-4.162 12.077 2.062 4.634-5.051 4.5-6.272 11.406-4.364 1.561-7.362 3.07-4.688-7.018-3.272-12.076-18.534 4.074-4.491-8.232-3.297.6-6.756-8.004-4.813-3.713-.36-6.277 3.7-4.518-.438-3.764 7.766-3.97 6.483.329 3.712-5.62-4.725-13.397 3.994-3.164 4.137.423z" id="58918"/>
    <path d="M561.745 556.151l-2.926 13.599-4.842 6.76 2.498 3.758-.567 10.614-9.252-.66-15.992-3.491-10.242 1.802 4.162-12.077 2.988-.932 6.242-11.825 11.34-10.56 3.337 2.167 13.254.845z" id="55311"/>
    <path d="M467.995 490.803l10.623 7.694 3.062 6.576 4.995 1.207 3.648 5.52 3.501.727 2.983 4.9 10.4 3.247 1.593 2.503 6.265-.925-.11-7.787 1.826-3.896 7.016 2.056 4.008 4.803 3.733-.038 6.244 6.27 5.816-4.895 2.02 1.7 8.996.717 5.836 5.772 3.164 8.36-1.726 6.867-14.83 3.538 9.019 4.928 4.673 1.116.995 4.388-13.254-.845-3.336-2.167-11.34 10.56-4.799-2.156-6.63 3.824-9.64-3.357 4.233-9.928-24-1.743-6.045 3.238-1.418-5.317-5.017-2.733-2.646-6.15.733-5.528 3.955-.712-.584-9.032-5.643-5.024 2.533-3.736-5.176-4.108-7.764-17.762 2.088-2.672z" id="59764"/>
    <path d="M564.886 211.608l-5.83-6.04-5.822-2.401-7.491 7.447-6.106-7.683-7.441 1.883-2.207 5.667-5.3 3.043-2.751-7.148 2.102.659 4.53-7.642 12.75-4.064 10.71.447 2.832-4.569.003-6.062 4.025-16.848-1.97-2.072 24.388-4.935 5.937.843 7.247 10.078 4.077-.31 7.267 4.059 1.256 4.2-8.48 4.254-10.958 9.76-5.283 1.814-2.824 4.564-8.287 4.348-3.23 5.618-3.144 1.09z" id="55106"/>
    <path d="M612.84 144.387l.286 6.535 9.279 4.874 10.902-4.456 9.603 4.208-4.272 6.294.582 8.198 4.968-1.846 2.303 6.283-3.95 4.454 4.524 3.393-2.21 5.48 3.429 6.328-1.208 6.412-7.124 4.1-1.875-4.536-7.833 5.635-8.423-.833-3.86 2.584-6.727.375-4.205 5.304-4.03-.137-8.186 3.78 4.005 8.92-15.065 4.875-.057 2.648-4.733-11.273-4.081.155-5.637-4-.52-4.522-3.84-2.011 3.145-1.09 3.23-5.618 8.287-4.348 2.824-4.564 5.283-1.814 10.957-9.76 8.48-4.254-1.255-4.2-7.267-4.06-4.077.311-7.247-10.078-5.937-.843-24.388 4.935 2.047-3.52-1.43-6.74-6.633-9.73-9.593-5.912-6.105 2.459-1.969-2.064-1.936-5.198 14.234-1.782 9.46-2.877 1.398-3.994 5.932-1.072 4.378 4.096 4.648 8.275 4.691 3.533 4.105-.924 7.966 3.143 7.473 5.454 10.478-.547 6.775-4.438z" id="55008"/>
    <path d="M555.908 590.882l6.241 1.015 2.048 3.448 8.665 7.221 11.488 19.426-9.477 1.829-3.548.722.416-10.175-7.851.794-.476 10.843-23.627 4.57-4.265-8.343-7.593-.18-9.476 1.828-11.656-13.246 4.364-1.561 6.272-11.405 5.051-4.5-2.062-4.635 10.241-1.803 15.993 3.492 9.252.66z" id="55277"/>
    <path d="M573.325 529.43l6.532 3.894.033 3.785 8.422 2.962 4.648 3.812 4.904 7.772 6.113-2.567 9.028 1.818-3.212 4.719 2.14 4.426 6.5-1.219 6.735 5.708-7.21 10.325 1.574 3.042-4.157 5.073 6.271 6.253-10.465-1.223-2.239 10.22-5.712 5.89-2.851 9.313 3.424.594-.607 10.195-2.463-1.061-16.383-1.169-11.488-19.426-8.664-7.22-2.048-3.45-6.242-1.014.567-10.614-2.498-3.759 4.842-6.76 2.926-13.598-.995-4.388-4.673-1.116-9.02-4.928 14.831-3.538 1.726-6.867 4.387-6.457 5.324.573z" id="55259"/>
    <path d="M574.873 623.82l.26 8.55 16.537 2.131-.776 6.677 3.025 11.421-2.093 3.25 3.198 6.192-1.922 3.087-5.668-2.663-12.335 2.278-3.756 3.545-5.045-3.05-8.144 3.358-5.453-.904-7.702 5.01-14.762-4.532-12.04 5.582-4.496 7.544 1.784 6.904-10.812 1.268 2.119 6.573 11.62 5.049-9.01 11.025-9.12-4.845-6.632-.93-7.428-4.479-5.288-5.42-.626-6.872-5.346-6.899-1.306-9.815 7.366-14.269-1.238-6.13 5.44-4.088 6.829-7.714-1.701-6.009 7.892-.656 2.298-2.77-2.246-8.42-4.729-5.376 5.868-3.72 7.362-3.069 11.656 13.246 9.476-1.828 7.593.18 4.265 8.343 23.627-4.57.476-10.843 7.85-.794-.415 10.175 3.548-.722z" id="58721"/>
    <path d="M133.972 303.5l-13.398 2.152-6.43-.182-2.033-3.856-6.28-.624-5.663 9.643.177 5.191-7.988-.09-5.993 4.768-5.08 15.805-8.97 3.42.07-12.495 7.34-12.534-1.209-7.878.649-6.73-1.681-6.55 6.212-14.93 3.423-2.202 9.854-1.736 3.651-2.353 1.555-5.553 6.503 4.424 7.09.543 1.842 3.921 14.373 5.462 3.734 6.244-.444 11.665-1.304 4.475z" id="57163"/>
    <path d="M376.681 542.417l-3.42-2.512-9.72.684-3.672 4.657-4.591 1.66-5.148 5.222-7.094-3.807-6.989 8.145-1.844 8.71 2.826 3.802-7.268 6.076-4.311 13.27-6.98 8.33 2.439 5.5-5.465 7.624.838 6.134-1.642 7.893-3.444 5.79 2.045 4.952-10.644-.248-5.969 4.885-9.644.11-12.925-3.092-3.214-11.252-9.305 2.74-7.49-.646-.271-4.296 5.825-9.878 3.356-.475.105-11.422 2.779-8.763 2.793-4.129.016-6.533 5.978-9.108 4.566-20.614 4.165-.79 7.494-8.666 7.602-.445 15.732.972 6.333-8.509 6.081-2.323 7.588-6.506 7.977-2.136 3.768-3.14.623-4.764 3.74-3.985 5.127-2.218 8.824 7.407-4.445 8.655 6.832 3.801 8.871 7.086 1.172 6.152z" id="60026"/>
    <path d="M376.681 542.417l5.4 3.272 7.986.363.04 5.994 10.982-.148 9.118 4.509 4.889.089 3.547 8.925 8.914.09-3.778 4.787 1.932 7.27-3.85 9.168-15.621-.206-14.376 4.646-3.81-4.375-7.238-.858-17.145 9.384-1.5 2.762-9.507 6.832-.023 4.472-5.823 6.842-4.571 3.023-6.963-.332-8.253 7.89-7.066-.463-5.036 3.667-1.688 4.527-2.045-4.951 3.444-5.79 1.642-7.894-.838-6.134 5.465-7.625-2.439-5.499 6.98-8.33 4.31-13.27 7.27-6.076-2.827-3.802 1.844-8.71 6.99-8.144 7.093 3.806 5.148-5.223 4.591-1.66 3.673-4.656 9.718-.684 3.421 2.512z" id="55918"/>
    <path d="M655.905 572.831l6.578 5.523 1.443 7.326 5.37 6.097 6.115 10.25 10.32 5.288 5.648-5.313 3.871-1.193 3.997 7.905-2.604 6.354-7.906.312-5.186-6.173-9.109.08-13.375 18.46-6.292-6.59-2.78 1.89-6.161-9.139-4.893 2.135-5.43-1.12-1.883-5.976-5.058-7.428-.213-8.292-4.329-5.846-2.382 1.852-6.27-6.253 4.156-5.073-1.573-3.042 7.209-10.325.503-6.502 2.084-4.963 11.115-5.256 7.716 3.36-.294 8.477-3.11 7.15 12.723 6.025z" id="60062"/>
    <path d="M692.923 546.007l2.895 7.519 11.021 6.02 8.148.344 1.497 7.89-3.784 5.378-4.023 11.673-.051 9.609-7.654 3.219 3.872 8.974-5.597 2.08-3.997-7.904-3.871 1.193-5.648 5.313-10.32-5.287-6.115-10.251-5.37-6.097-1.443-7.326-6.578-5.523-1.09-4.909 3.837-13.642 3.42-4.388 6.514-1.225 3.403 2.51 5.428-3.875 9.421-4.29 6.085 2.995z" id="59693"/>
    <path d="M495.197 373.452l4.627 13.664 13.485 1.682 7.405-.61 10.43 6.83 6.55 7.552-2.498 6.758 5.837 3.106-4.556 7.326 2.125 9.081-4.767 2.895-1.432 5.283-5.221 2.123 1.243 7.618 3.037 2.11 6.913 11.11-1.551 3.397-5.797-.988-6.248 3.101-1.528-4.315-6.882.307.324 6.338-9.783 2.07-7.401-4.401-4.681-5.375-10.094 5.388-7.004 1.484-2.189 6.036 3.23 8.37-10.776 9.411-2.088 2.672-5.612 2.88-3.964-10.677-6.055-.31-3.247-2.5 4.05-2.9.348-4.179-4.19-2.697 3.076-23.803-11.323 4.014 3.209-8.242 5.083-3.666-10.13-2.703-3.213-3.421 5.497-3.56 4.473-.207 4.443-4.4 5.544 1.273.208-4.945-4.75-7.274.898-2.297 8.903-7.78-.677-12.045-3.277-2.582 7.7-7.994 7.684 5.373 1.742-5.63-5.378-2.542 2.553-5.17 8.56-.5 9.323-2.952 7.813 1.413z" id="54975"/>
  </g>
</svg>
