<svg xmlns="http://www.w3.org/2000/svg" version="1.2" baseProfile="tiny" stroke-linecap="round" stroke-linejoin="round" viewBox="0 0 800 713">
  <g id="CJ" fill="none" stroke="#aaa">
    <path d="M661.043 627.67l7.071 24.507-3.084 6.83 2.194 10.323 16.24 12.072-9.989 8.118-3.108-.097-16.33-13.345-11.676-.415-6.736-10.447-4.273-16.355-9.703-4.116-6.564-15.626 8.498-.418 17.336-12.734 20.124 11.703z" id="58311" data-name="Luna" class="comuna"/>
    <path d="M621.625 589.158l6.71 3.994.213 8.292 6.94 13.404 5.43 1.119-17.335 12.734-8.498.418-11.91-4.973.034-20.101 5.712-5.89 2.239-10.22 10.465 1.223z" id="55357" data-name="Câmpia Turzii" class="municipiu"/>
    <path d="M456.47 564.702l-2.902 14.558 19.357 19.348 18.532-4.072 7.96 19.092 1.108 17.515-15.317 17.148-18.266-10.321-7.682 6.376-5.233-11.382-13.124 12.709-4.178-5.303-26.27-8.816-4.311-16.76-6.953 2.858-19.476-5.764-4.287-6.686-22.8 4.115.024-4.472 11.007-9.593 17.143-9.383 11.048 5.232 14.375-4.646 15.621.206 5.696-21.223 4.413-4.823 11.252-1.512 13.264 5.6z" id="58008" data-name="Iara" class="comuna"/>
    <path d="M348.107 507.94l2.181 3.522-4.363 8.748-25.413 14.105-6.333 8.509-23.333-.527-11.658 9.456-4.567 20.613-20.58 54.601-10.196 10.198-12.208-.306-5.606 15.15-11.555 2.161-13.92-.741 4.655-17.589-11.399-7.269-4.845 1.244-6.693-4.239-4.17-31.307-4.756-4.586-8.436 4.215-4.129-17.57 8.247-9.272 13.703-6.358 15.788-15.804 11.645 3.42.277-9.144 10.114-12.4 11.31-5.193 14.166 3.711 4.445-3.849 19.348-3.603 8.74 4.694 12.889-7.738 3.765-5.744 18.178 8.543 14.99-11.756 15.03 4.65 4.689-2.545z" id="58357" data-name="Măguri-Răcătău" class="comuna"/>
    <path d="M654.32 497.871l9.245.148 4.868 6.788 17.529-1.905 15.681 6.011L715.2 525.29l-15.432 8.138-6.869 12.505-6.085-2.994-14.848 8.165-9.918-1.286-7.255 18.03 1.09 4.909-12.724-6.024 3.404-15.627-7.716-3.36-13.198 10.218-8.461-.717-2.355-11.274 7.803-4.37-2.62-11.928 4.545-15.535-8.34-8.293 16.15 3.118 14.054-10.978 7.895-.116z" id="56844" data-name="Ceanu Mare" class="comuna"/>
    <path d="M210.853 508.632l-10.896 10.458.995 20.096-2.431 5.708-15.788 15.804-13.703 6.358-8.247 9.271 4.13 17.57-14.431-5.407-11.256 1.293-20.279 12.079-20.924-8.246-14.14-8.123.036-8.633 2.883-11.448-5.303-4.654.998-13.226-2.822-6.413 9.216-15.067 20.005-6.03 10.093-.115 5.067 4.561 9.678-5.598 1.222-9.078-3.258-12.372 15.34 2.262 10.728-4.229 8.63 3.094 20.481-1.473 2.392-4.015 11.793 5.76.437 8.14 9.354 1.673z" id="56014" data-name="Beliș" class="comuna"/>
    <path d="M465.89 493.403l10.407 25.605 5.643 5.024.584 9.032-4.688 6.24-8.13 2.74 4.725 13.398-3.713 5.619-14.248 3.641-13.264-5.6-11.251 1.513-4.413 4.823-8.913-.091-3.548-8.925 11.804-15.173 2.331-9.458 7.135-.697 6.35-14.09-6.904-20.487 11.216-13.72 9.302 2.81 9.575 7.796z" id="57225" data-name="Ciurila" class="comuna"/>
    <path d="M311.536 478.413l-.401 4.76-14.702 15.607-1.213 10.268-3.765 5.744-12.888 7.738-8.74-4.694-19.35 3.603-4.444 3.85-14.166-3.712-11.31 5.194-10.114 12.399-.277 9.144-11.645-3.42 2.43-5.708-.994-20.096 10.896-10.458 6.12-5.35 8.466-18.846 12.968-6.832 8.532 7.602 32.845-1.403 22.862-5.371 8.89-.019z" id="58534" data-name="Mărișel" class="comuna"/>
    <path d="M435.797 496.517l6.904 20.487-6.35 14.09-7.135.697-2.331 9.458-11.804 15.173-25.028-10.443-13.385-3.635-1.172-6.152-15.702-10.887 4.445-8.654-8.824-7.407-5.127 2.218-2.181-3.522 13.126-8.903 8.53.625.59-15.558 9.749-7.502 15.623 1.327 4.43 5.941 7.903-4.544 16.35 3.383 11.39 13.808z" id="59327" data-name="Săvădisla" class="comuna"/>
    <path d="M717.09 469.117l11.624 16.729 11.802 1.716 4.982 7.039-10.986 27.164-19.312 3.525-13.557-16.377-15.682-6.011-17.528 1.906-4.867-6.789-9.246-.148 1.428-12.986 27.615-4.112 4.653-4.159-8.19-11.7 10.844-5.865 12.096.445 14.323 9.623z" id="57742" data-name="Frata" class="comuna"/>
    <path d="M260.307 440.035l16.498 22.557 4.097 12.033 8.057-4.228 20.22 1.076 6.529 2.815-4.172 4.125-8.89.019-22.862 5.37-32.845 1.404-8.532-7.602-12.968 6.832-8.465 18.845-6.12 5.35-9.355-1.672-.436-8.14-11.794-5.76 8.814-2.664 14.768-9.904 6.113-26.59 9.998-2.854 2.591-7.496 9.27 5.579 8.33-1.073 11.154-8.022z" id="59238" data-name="Rîșca" class="comuna"/>
    <path d="M437.137 438.622l13.16 10.597-3.284 33.577-11.216 13.72-11.39-13.807-16.349-3.383-7.904 4.544-4.43-5.941-15.622-1.327 1.275-12.706 16.198-12.584 2.566-14.816 15.314 3.55 21.682-1.424z" id="57706" data-name="Florești" class="comuna"/>
    <path d="M679.826 464.913l8.19 11.701-4.653 4.159-27.615 4.112-9.853-6.602 1.915-6.742-4.589-9.36 1.716-18.262 10.404-25.582 7.127 4.458 14.074.587 10.078 5.974 6.147 11.239-1.849 8.622-13.223 10.697 2.131 5z" id="59657" data-name="Suatu" class="comuna"/>
    <path d="M395.255 430.092l4.886 6.404-2.566 14.817-16.198 12.583-1.275 12.706-9.75 7.502-.59 15.558-8.53-.625-13.125 8.903-4.689 2.546-15.03-4.65-14.99 11.755-18.178-8.543 1.213-10.268 14.702-15.606.401-4.76 4.172-4.126 9.576-7.649 2.228-13.177 20.926-5.687-1.061-33.404 4.257-.799 16.867 7.116 5.763 5.92 20.99 3.484z" id="57902" data-name="Gilău" class="comuna"/>
    <path d="M164.968 412.091l13.687 1.414 3.633 11.34-2.216 16.343-3.808 3.355 8.254 21.635-10.672 13.574-17.44 5.452 1.36 10.249-10.729 4.229-15.34-2.262 3.259 12.372-1.222 9.078-9.678 5.598-5.067-4.561-10.093.114-20.005 6.03-8.276 5.514-14.14-15.265-1.174-11.197-11.988-21.115-1.302-10.77 8.852 3.58 21.546-12.01 1.063-15.539 8.61-9.22 25.169-.95 4.496-12.22 11.55-12.943 10.58 5.536 19.232-10.332 1.86 2.971z" id="58464" data-name="Mărgău" class="comuna"/>
    <path d="M201.522 414.478l10.365 12.53-1.048 8.199 8.125 18.693-6.113 26.591-14.768 9.904-8.814 2.664-2.392 4.015-20.482 1.473-8.629-3.094-1.36-10.25 17.44-5.451 10.672-13.574-8.254-21.635 3.808-3.355 2.216-16.343-3.633-11.34-13.687-1.414 15.75-14.663 11.764-.743 2.867 12.674 6.173 5.119z" id="56461" data-name="Călățele" class="comuna"/>
    <path d="M773.536 416.377l.862 1.335 4.158 8.527-10.375 8.57-24.727 4.746-1.516 4.196 5.187 16.204-5.512 2.75-15.701-5.148-6.914 1.828-7.133-14.183 10.293-2.405 5.093-10.425-3.23-14.173 9.324-10.009-.309-9.45 7.014-2.951 9.713 6.908 8.077-.046 5.797 10.363 9.899 3.363z" id="56522" data-name="Cămărașu" class="comuna"/>
    <path d="M255.103 391.447l12.192 24.297-6.988 24.291-11.153 8.022-8.33 1.073-9.271-5.579-2.59 7.496-10 2.853-8.124-18.693 1.048-8.2-10.365-12.529 2.555-7.437 10.686-10.02 22.84 5.43 13.175-13.642 4.325 2.638z" id="58393" data-name="Mănăstireni" class="comuna"/>
    <path d="M733.036 398.74l.309 9.45-9.324 10.01 3.23 14.172-5.093 10.425-10.293 2.405 7.133 14.183 6.914-1.828-8.823 11.56-14.323-9.623-12.096-.445-10.844 5.864-2.131-5 13.223-10.696 1.849-8.622-6.147-11.239-10.078-5.974-14.074-.587-7.127-4.458 12.167-15.358 9.804.565 21.09-5.06-1.902-13.166 8.695.302 13.226 14.395 2.544-7.672 12.071 6.396z" id="58623" data-name="Mociu" class="comuna"/>
    <path d="M347.377 414.371l1.06 33.404-20.925 5.687-2.228 13.177-9.576 7.649-6.53-2.815-20.219-1.076-8.057 4.228-4.097-12.033-16.498-22.557 6.988-24.291-12.192-24.297 8.245-1.289 6.452 3.955 12.309-6.397 4.648-10.42 20.08 14.642 9.741 9.176 13.487 1.357 17.312 11.9z" id="56568" data-name="Căpușu Mare" class="comuna"/>
    <path d="M657.23 381.1l8.364 8.666 5.517 10.783 6.201 2.995-9.804-.565-12.167 15.358-10.404 25.582-6.221 1.374-15.727-5.079 5.972-8.804-15.119-11.563-.172-9.316-.557-.892 10.141-3.717.804-18.344 6.055-.97 5.426-11.823 10.392.95 11.299 5.366z" id="56354" data-name="Căianu" class="comuna"/>
    <path d="M139.035 385.57l-6.753 6.054-.476 7.832 12.431.982-2.059 8.408-8.88 5.07-11.551 12.942-4.496 12.221-25.169.95-8.61 9.22-1.063 15.54-21.546 12.008-8.852-3.58-4.774-10.723-8.667-7.068-.727-18.966 13.582 1.71 19.374-4.608-7.54-17.083 3.032-11.092 12.882-29.75 6.32-4.406 13.97 3.932 2.306 6.894 21.428-2.35 15.838 5.862z" id="59283" data-name="Săcuieu" class="comuna"/>
    <path d="M168.918 356.945l4.772 13.773 16.373 10.337 17.347 3.626.671 9.78 6.682 2.56-10.686 10.02-2.555 7.437-6.173-5.12-2.867-12.673-11.764.743-15.75 14.663-1.859-2.97-19.232 10.33-10.58-5.535 8.881-5.07 2.06-8.408-12.431-.982.475-7.832 6.753-6.055 12.313-4.52 4.69-11.515-.405-12.198 13.285-.39z" id="59434" data-name="Sâncraiu" class="comuna"/>
    <path d="M635.539 374.785l-5.426 11.823-6.055.97-.804 18.344-10.141 3.717-21.707.051-3.92-6.71-14.502-.674-10.242-4.603-11.842-13.826-8.447-3.17-3.854-11.47-3.196-11.46 5.811-3.1 18.07 6.376 5.862-5.634 17.157 4.115 13.427-1.059 1.623 4.618 29.442 4.34 8.744 7.352z" id="58259" data-name="Jucu" class="comuna"/>
    <path d="M281.823 362.243l1.849 5.094-13.526 8.416-6.798 14.405-8.245 1.289-4.325-2.638-13.176 13.642-22.839-5.43-6.682-2.56-.671-9.78 11.347-8.74-.587-7.367 11.03-2.569 6.473 6.588 14.9-3.27 15.065-14.565 6.944-.016 9.241 7.5z" id="58204" data-name="Izvoru Crișului" class="comuna"/>
    <path d="M791.292 359.102l3.437 8.245-9.588 15.332 4.519 11.331-10.688 5.714 4.235 7.077-9.671 9.576-9.899-3.363-5.797-10.363-8.077.046-9.713-6.908 3.933-2.834 9.455-23.476-4.598-16.939 8.433-3.174 34.02 9.736z" id="56773" data-name="Cătina" class="comuna"/>
    <path d="M679.093 343.41l17.299 8.289.76 12.536 6.089 7.299-9.035 8.191 2.294 5.593 1.902 13.167-21.09 5.06-6.201-2.996-5.517-10.783-8.364-8.665 3.681-11.679-12.827-7.809 3.715-9.806 7.26-6.85 4.858-3.228 15.176 1.682z" id="58794" data-name="Pălatca" class="comuna"/>
    <path d="M734.569 343.649l14.271 8.891 4.598 16.94-9.455 23.475-3.933 2.834-7.014 2.95-12.071-6.396-2.543 7.672-13.227-14.395-8.695-.302-2.294-5.593 9.035-8.191-6.089-7.299-.76-12.536-17.299-8.288 2.104-6.34 9.813-1.83 18.274 1.684 9.704-4.074 15.58 10.798z" id="57831" data-name="Geaca" class="comuna"/>
    <path d="M354.392 335.295l12.03 37.222 10.776 10.071 8.152 1.342 4.93-8.676 13.81-1.872-5.232 18.194 3.955 13.7-6.978 15.507-.58 9.309-20.991-3.483-5.763-5.921-16.866-7.116-4.697-9.65 3.764-4.415-5.269-9.004 1.6-24.39-1.704-10.764-5.783-6.147-2.344-10.331 9.975-7.899 7.215 4.323z" id="57948" data-name="Gîrbău" class="comuna"/>
    <path d="M229.2 366.005l-11.03 2.57.587 7.365-11.347 8.74-17.347-3.625-16.373-10.337-4.772-13.773-9.414-2.662-8.53-18.14 3.042-11.06 32.893 9.398 20.956 10.686 9.513-10.038 13.34 10.688-4.534 8.564 3.017 11.624z" id="55446" data-name="Huedin" class="oras"/>
    <path d="M648.084 361.613l12.827 7.809-3.681 11.679-11.3-5.366-10.391-.95-8.744-7.351-29.442-4.34-1.623-4.619-13.427 1.06-17.157-4.116-5.862 5.634-18.07-6.375 10.776-24.026 23.07-3.918 5.495-11.272 26.77-7.106-2.632 8.996 8.584 7.11 5.886 20.46 14.124-.303 11.12 16.455 3.677.54z" id="56210" data-name="Bonțida" class="comuna"/>
    <path d="M516.182 303.605l7.458 8.593 28.35 18.454-10.776 24.026-5.811 3.1-23.604-11.924-17.365 1.86.148-13.835-15.798-3.236-17.915 7.898 3.398-14.941 8.473-11.54 6.967.223 2.556-8.897 9.157 4.064 6.227-4.127 6.27 6.5 9.622 1.21 2.643-7.428z" id="56265" data-name="Borșa" class="comuna"/>
    <path d="M133.967 303.435l10.185 8.671 9.864 12.977-3.041 11.06 8.529 18.14 9.414 2.662-13.285.39.406 12.199-4.69 11.515-12.314 4.52-15.837-5.862-21.43 2.35-2.306-6.894-13.97-3.932-6.319 4.406-12.882 29.75-3.032 11.092 7.54 17.083-19.374 4.609-13.582-1.71.101-2.965L1 406.02l10.485-3.867 23.165.39 11.782-7.749 8.617-20.026 6.444-23.358 10.818-11.749 8.97-3.42 5.08-15.804 13.803-9.87 5.664-9.642 8.311 4.48 19.828-1.97z" id="59041" data-name="Poieni" class="comuna"/>
    <path d="M431.253 305.57l-.53 15.346-19.586 20.654 9.111 11.704-1.522 15.183-14.636 4.925-13.81 1.872-4.93 8.676-8.152-1.342-10.775-10.071-12.03-37.222 10.981-15.972 14.619-14.166 9.392-.822 17.23 7.805 13.93-6.252 10.708-.318z" id="59586" data-name="Sînpaul" class="comuna"/>
    <path d="M629.688 297.19l6.32 10.305 16.948-1.728 13.377 1.528-10.505 27.627 3.23 10.035-7.259 6.85-3.715 9.806-3.677-.539-11.12-16.455-14.124.303-5.886-20.46-8.584-7.11 2.633-8.996 5.647-9.946 16.715-1.22z" id="59416" data-name="Sic" class="comuna"/>
    <path d="M337.202 338.87l2.344 10.332 5.783 6.147 1.704 10.764-1.6 24.39 5.269 9.004-3.764 4.416 4.697 9.65-4.258.798-17.312-11.9-13.487-1.357-9.742-9.176-20.079-14.643-4.648 10.42-12.309 6.398-6.452-3.955 6.798-14.405 13.526-8.416-1.849-5.094 2.79-9.046 10.531-8.371-4.73-6.25-2.977-15.996 11.096-5.762-4.965-5.428 3.099-9.446 16.657 9.99-.027 15.8 9.765 11.926 14.14-.79z" id="55473" data-name="Aghireșu" class="comuna"/>
    <path d="M496.731 273.99l10.302 5.717 1.014 11.33 8.135 12.568-2.643 7.428-9.623-1.21-6.269-6.5-6.227 4.127-9.157-4.064-2.556 8.897-6.967-.222-8.473 11.539-3.398 14.941-6.089 2.82-11.47-14.346 3.246-8.729-15.833 2.63.53-15.346 2.18-8.505 10.635-7.89 12.315 3.455 4.494-13.912-7.227-10.986 1.889-6.715 23.132 15.7 18.06-2.727z" id="60099" data-name="Vultureni" class="comuna"/>
    <path d="M83.692 278.545l-6.212 14.93 2.242 21.157-7.34 12.534-13.232-1.71-11.393-8.217-3.848-7.835-15.862-4.478-5.715-7.695 1.291-15.64 10.705-7.177 16.607-18.993 12.415 3.855 13.182 10.362 7.16 8.907z" id="60169" data-name="Negreni" class="comuna"/>
    <path d="M559.762 307.188l15.581 2.905 5.212 5.37-5.495 11.27-23.07 3.92-28.35-18.455-7.458-8.593-8.135-12.568-1.014-11.33-10.302-5.717 1.002-23.057 10.993-.158 8.198 10.724 7.883 19.011 9.794 13.97 13.19 10.781 11.971 1.927z" id="57546" data-name="Dăbîca" class="comuna"/>
    <path d="M426.1 248.987l6.886 1.282 11.782 10.523 10.77.225-1.888 6.715 7.227 10.986-4.494 13.912-12.315-3.454-10.635 7.889-2.18 8.505-10.708.318-13.93 6.252-17.23-7.805-9.392.822-7.82-8.565 15.653-10.825 1.034-9.35 29.231-7.505 2.525-14.191 5.484-5.734z" id="55776" data-name="Așchileu" class="comuna"/>
    <path d="M653.808 252.156l-15.974 12.742-3.203 11.944-6.478 1.292 3.827 12.257-2.292 6.798-16.715 1.221-7.299-17.35 12.27-5.228 2.468-7.52-9.926-8.95-3.854-11.095 4.9-8.397 9.467 2.017 12.27 7.574 3.984-13.522 4.377-.764 12.178 16.981z" id="55384" data-name="Gherla" class="municipiu"/>
    <path d="M694.573 236.855l1.64 1.706 4.568 12.277-1.276 11.924-9.72 19.306-23.303-6.826 3.697 15.893-6.239 5.773 2.393 10.387-13.377-1.528-16.948 1.728-6.32-10.306 2.292-6.798-3.827-12.257 6.478-1.292 3.203-11.944 15.974-12.742 40.765-15.301z" id="57644" data-name="Fizeșu Gherlii" class="comuna"/>
    <path d="M748.335 227.022l-9.128 29.348 4.857 8.953-4.83 6.26.794 13.882 5.311 9.723-2.585 8.36-15.462-4.016-22.74 4.094-6.856-6.768-1.06-9.094-6.851-5.696 9.72-19.306 1.276-11.924-4.568-12.277 14.916-2.863 14.58.921 2.783-11.926 15.224 4.325 4.619-1.996z" id="59498" data-name="Sânmărtin" class="comuna"/>
    <path d="M564.866 211.546l4.36 6.534 9.717 3.844 4.732 11.273 1.797 26.063-4.538 12.95-11.252-4.523-11.01-12.919-9.863-1.491-8.918-6.336-9.23-26.165-5.99-7.314 7.506-8.71 7.441-1.883 6.106 7.683 7.49-7.446 11.652 8.44z" id="55623" data-name="Aluniș" class="comuna"/>
    <path d="M430.006 203.771l9.69 20.173 8.28 6.33 10.995 3.202 7.086-11.318 11.669 3.783 7.723-8.256-.735-7.967 6.49-2.207 11.872 11.967 7.385 21.936-1.735 9.36-10.993.16-1.002 23.056-18.06 2.728-23.132-15.701-10.771-.225-11.782-10.523-6.886-1.282-5.081-22.029-7.992-1.616-2.19-11.632-7.48-6.445 1.352-5.74 25.297 2.246z" id="58856" data-name="Panticeu" class="comuna"/>
    <path d="M697.127 218.116l-2.554 18.739-40.765 15.301-12.178-16.98-4.377.763-3.985 13.522L621 241.887l-9.467-2.017-4.025-9.29-8.71-4.906-4.005-8.92 13.927-4.456 3.35-5.112 18.153-1.505 18.04-11.61 15.7 3.82-.065 13.458 10.033 6.574 3.707-6.718 19.49 6.911z" id="58552" data-name="Mintiu Gherlii" class="comuna"/>
    <path d="M556.9 166.165l1.97 2.072-6.859 27.478-10.71-.447-12.75 4.064-6.631 6.982-12.95-13.477-13.095 4.51-4.671 10.164-6.49 2.207-18.37-10.26-3.817-7.781 9.862-4.112 8.239-10.694-8.303-4.242 3.041-9.176 10.178-4.223 1.44-8.405 10.35-6.025 6.749 7.68 5.958-1.384 9.188 6.108 7.667-13.118 6.323-3.427 8.073-.395 9.593 5.911 6.633 9.73-.618 10.26z" id="56096" data-name="Bobîlna" class="comuna"/>
    <path d="M486.983 150.825l-1.44 8.405-10.177 4.223-3.04 9.176 8.302 4.242-8.239 10.694-9.862 4.112 3.817 7.78 18.37 10.261.735 7.967-7.723 8.256-11.67-3.783-7.085 11.318-10.995-3.202-8.28-6.33-9.69-20.173 2.908-19.36 7.008.134-2.866-12.998.405-14.61 19.284-4.092 8.742-11.524 4.953-1.262 5.422-.986 11.121 11.752z" id="59130" data-name="Recea-Cristur" class="comuna"/>
    <path d="M656.591 119.252l-.433 8.845 10.738 27.249-11.345 3.384-11.385 9.404-10.881-16.853 5.919-29.68 17.387-2.35z" id="55062" data-name="Cuzdrioara" class="comuna"/>
    <path d="M566.453 89.698l3.767 8.15-4.296 6.485 9.612 22.875 14.127-2.107 4.508 10.483 15.319 3.198 3.328 5.546-17.253 4.984-7.473-5.453-16.761-5.752-9.025-12.371-7.331 5.066-23.692 4.659 1.936 5.198-6.323 3.427-7.667 13.118-9.188-6.108-5.958 1.384-6.75-7.68 8.207-6.85-3.41-8.508 4.544-5.23 5-16.283 5.44-8.113 13.007-1.143 7.316-4.98 29.016-3.995z" id="59942" data-name="Vad" class="comuna"/>
    <path d="M595.962 88.325l17.49 16.64-12.719 17.229-11.07 2.907-14.127 2.107-9.611-22.875 4.295-6.485-3.767-8.15 4.106-24.412 16.42 18.234 8.983 4.805z" id="57314" data-name="Cîțcău" class="comuna"/>
    <path d="M600.069 47.741l.097 6.972 15.446 13.57.498 6.353 11.77 6.725 7.853-6.364 13.811-1.052-1.085 15.205 4.738 23.364 3.394 6.738-17.387 2.35-5.92 29.679-10.901 4.456-9.278-4.875-.287-6.534-3.328-5.546-15.319-3.198-4.508-10.483 11.07-2.907 12.718-17.23-17.49-16.64-.363-11.174-6.77-10.108 7.364-7.456 3.877-11.845z" id="56666" data-name="Cășeiu" class="comuna"/>
    <path d="M649.544 73.945l-13.81 1.052-7.853 6.364-11.771-6.725-.498-6.353-15.446-13.57-.097-6.972 10.486-13.928.002-9.161-1.942-7.02L613.65 1l12.356.731 12.668 12.718 12.348 1.934 23.32-9.548 15.2-.06 11.24 3.072-2.599 12.692 4.63 16.628-10.675 7.862.384 4.62-12.28-12.357-5.312 6.951-8.971-3.087-13.15 13.993 2.665 12.526-5.93 4.27z" id="57083" data-name="Chiuiești" class="comuna"/>
    <path d="M455.185 391.386l3.954 14.627-9.8 10.077 4.749 7.273-16.951 15.259-21.682 1.424-15.314-3.55-4.886-6.404.58-9.309 6.978-15.507-3.955-13.7 5.232-18.194 14.636-4.925 1.522-15.183 3.786-1.951 13.082 8.62 8.996 15.278 1.127 8.816 7.946 7.349z" id="55838" data-name="Baciu" class="comuna"/>
    <path d="M460.869 338.541l17.915-7.898 15.798 3.236-.148 13.834 17.365-1.86 23.604 11.924 3.196 11.46-14.596 3.947-11.697-5.552-17.126 5.753-7.812-1.414-17.882 3.452-14.3 15.963-7.947-7.349-1.127-8.816-8.996-15.279-13.082-8.62-3.786 1.952-9.111-11.704 19.586-20.654 15.833-2.63-3.246 8.73 11.47 14.346 6.089-2.82z" id="56988" data-name="Chinteni" class="comuna"/>
    <path d="M791.292 359.102l-34.019-9.736-8.433 3.174-14.271-8.891 19.47-19.325 7 9.7 10.093-8.344 21.292 16.93L799 357.03l-7.708 2.071z" id="56327" data-name="Buza" class="comuna"/>
    <path d="M689.785 282.068l6.852 5.696 1.059 9.094 6.856 6.768 22.74-4.094 15.462 4.015 9.398-3.853 12.788.97 6.012 4.944-5.132 16.366 5.312 3.706-10.093 8.344-7-9.7-19.47 19.325-15.581-10.798-9.704 4.074-18.274-1.685-9.813 1.832-2.104 6.339-15.176-1.682-4.859 3.228-3.23-10.035 10.505-27.627-2.393-10.387 6.238-5.773-3.696-15.893 23.303 6.826z" id="59826" data-name="Țaga" class="comuna"/>
    <path d="M748.335 227.022l-4.619 1.996-15.224-4.325-2.783 11.926-14.58-.921-14.916 2.863-1.64-1.706 2.554-18.739 5.425-4.004-9.174-17.454.47-14.97 6.759-12.163 6.967 7.983 12.03 1.141 2.625 9.5 7.24 2.053 9.623-6.68 7.628 13.106-.055 6.671 7.057 8.034.098 9.425-5.485 6.264z" id="59880" data-name="Unguraș" class="comuna"/>
    <path d="M700.607 169.525l-6.758 12.164-.471 14.97 9.174 17.453-5.425 4.004-19.49-6.91-3.707 6.717-10.033-6.574.065-13.459-15.7-3.819-4.096-25.937 11.385-9.404 11.345-3.384 15.872-4.273 6.032-5.378 9.393 2.08 3.609 6.447-1.195 15.303z" id="55160" data-name="Mica" class="comuna"/>
    <path d="M538.6 369.236l3.853 11.472 8.447 3.17 11.842 13.825 10.242 4.603 14.502.673 3.92 6.712 21.707-.052.557.892-1.73 7.16-15.452 15.19-14.639 1.113-7.451-6.259-11.42 13.931-7.02 2.208-3.67 15.114 10.67 5.113 5.241-5.72 2.983 25.013-3.686 4.312-6.543-4.314-10.608 3.186-5.541-13.91-7.999-9.362 1.55-3.396-11.192-20.837 11.42-10.301-2.125-9.081 4.556-7.325-3.338-9.864-16.98-14.382-20.889-1.071-4.627-13.664 17.126-5.753 11.697 5.552 14.596-3.948z" id="55687" data-name="Apahida" class="comuna"/>
    <path d="M644.937 443.919l-1.716 18.263 4.59 9.359-1.916 6.742 9.853 6.602-1.428 12.986-7.895.116-14.054 10.978-16.15-3.118-5.493-4.95-7.993 2.123-2.628 13.669-6.211-2.283-3.612-10.064-11.127-6.138-11.66-10.498 3.685-4.312-2.983-25.012-5.24 5.719-10.67-5.113 3.67-15.114 7.019-2.208 11.42-13.931 7.451 6.26 14.639-1.113 15.452-15.19 1.73-7.16.172 9.315 15.12 11.563-5.973 8.804 15.727 5.079 6.221-1.374z" id="57350" data-name="Cojocna" class="comuna"/>
    <path d="M616.22 505.847l8.341 8.293-4.544 15.535 2.619 11.928-7.803 4.37 2.355 11.274 8.461.717-.503 6.502-6.735-5.708-6.5 1.219 1.073-9.144-15.14.748-9.553-11.584-8.421-2.961-6.565-7.679 8.717-14.172-2.865-16.98 11.126 6.137 3.613 10.064 6.21 2.283 2.63-13.669 7.992-2.124 5.492 4.951z" id="58990" data-name="Ploscoș" class="comuna"/>
    <path d="M598.798 225.674l8.71 4.905 4.024 9.29-4.9 8.398 3.855 11.095 9.925 8.95-2.468 7.52-12.27 5.227 7.3 17.351-5.649 9.945-26.77 7.107-5.212-5.37-15.58-2.904 4.138-9.832 5.78-29.669 11.253 4.522 4.538-12.95-1.797-26.062 15.123-7.523z" id="58142" data-name="Iclod" class="comuna"/>
    <path d="M521.92 206.314l2.75 7.148 5.99 7.314 9.231 26.165 8.918 6.336 9.862 1.491 11.01 12.919-5.78 29.67-4.139 9.83-11.97-1.926-13.191-10.78-9.794-13.971-7.883-19.01-8.198-10.725 1.735-9.361-7.385-21.936-11.872-11.967 4.671-10.164 13.095-4.51 12.95 13.477z" id="57449" data-name="Cornești" class="comuna"/>
    <path d="M536.805 463.306l7.999 9.362 5.54 13.91 10.609-3.185-8.025 11.508-7.448 2.05-6.344-5.885-24.699 7.027 2.326 12.404-1.716 11.683-18.258-4.825-18.187-18.93-10.623-7.694 10.776-9.41-1.042-14.406 17.097-6.871 12.082 9.775 9.459-8.408 20.454 1.895z" id="57582" data-name="Feleacu" class="comuna"/>
    <path d="M567.496 487.706l11.661 10.498 2.865 16.981-8.717 14.172-9.71 5.884-9-14.131-11.016-2.418-5.816 4.896-6.244-6.27-14.756-6.82-2.326-12.405 24.699-7.027 6.344 5.885 7.447-2.05 8.026-11.509 6.543 4.314z" id="55598" data-name="Aiton" class="comuna"/>
    <path d="M603.174 624.146l11.911 4.973 6.564 15.626 9.703 4.116 4.273 16.355-11.039 2.926-9.936 8.575-9.139-5.535-10.508-9.219-4.13-20.862.776-6.676-16.536-2.132-.26-8.548 9.477-1.829 18.844 2.23z" id="56425" data-name="Călărași" class="comuna"/>
    <path d="M477.836 539.304l2.646 6.15 12.48 4.811 23.999 1.744-4.233 9.927 9.639 3.357 11.428-1.668-9.23 12.757-4.161 12.076-9.261 20.54-4.363 1.56-7.362 3.07-7.96-19.093-18.533 4.073-19.357-19.348 2.903-14.558 14.247-3.641 3.713-5.619-4.725-13.398 8.13-2.74z" id="58918" data-name="Petreștii de Jos" class="comuna"/>
    <path d="M561.725 556.077l-5.27 24.116-.566 10.614-25.244-4.151-10.241 1.802 4.161-12.076 9.23-12.757 11.34-10.56 16.59 3.012z" id="55311" data-name="Săndulești" class="comuna"/>
    <path d="M467.979 490.731l10.623 7.694 18.187 18.93 18.258 4.825 1.716-11.683 14.756 6.82 6.244 6.271 5.816-4.896 11.016 2.418 9 14.131-1.87 20.836-16.59-3.012-11.34 10.56-11.428 1.668-9.64-3.357 4.234-9.927-24-1.744-12.479-4.811-2.646-6.15 4.688-6.24-.584-9.032-5.643-5.024-10.407-25.605 2.089-2.672z" id="59764" data-name="Tureni" class="comuna"/>
    <path d="M564.866 211.546l-11.651-8.44-7.491 7.446-6.106-7.683-7.44 1.883-7.508 8.71-2.75-7.148 6.63-6.982 12.751-4.064 10.71.447 6.86-27.478-1.97-2.072 24.386-4.935 5.937.843 7.248 10.078 11.343 3.748-7.225 8.455-33.724 27.192z" id="55106" data-name="Jichișu de Jos" class="comuna"/>
    <path d="M612.818 144.328l.287 6.534 9.278 4.875 10.902-4.456 10.88 16.853 4.096 25.937-18.039 11.61-18.153 1.505-3.35 5.112-13.927 4.457 4.005 8.92-15.122 7.522-4.732-11.273-9.718-3.844-4.359-6.534 33.724-27.192 7.225-8.455-11.343-3.748-7.248-10.078-5.937-.843-24.387 4.935.618-10.26-6.633-9.73-9.593-5.911-8.073.395-1.936-5.198 23.692-4.659 7.33-5.066 9.026 12.371 16.761 5.752 7.473 5.453 17.253-4.984z" id="55008" data-name="Dej" class="municipiu"/>
    <path d="M555.889 590.807l6.24 1.015 10.713 10.669 11.488 19.425-9.477 1.829-3.132-9.453-7.851.795-.476 10.842-23.626 4.57-4.265-8.343-17.068 1.648-11.655-13.246 4.363-1.56 9.261-20.54 10.241-1.802 25.244 4.15z" id="55277" data-name="Mihai Viteazu" class="comuna"/>
    <path d="M573.305 529.357l6.565 7.679 8.421 2.961 9.552 11.584 15.14-.748-1.072 9.144 6.5-1.219 6.735 5.708-9.792 18.44 6.27 6.252-10.464-1.223-2.239 10.22-5.712 5.89-.034 20.101-18.845-2.23-11.488-19.425-10.712-10.67-6.241-1.014.566-10.614 5.27-24.116 1.87-20.836 9.71-5.884z" id="55259" data-name="Turda" class="municipiu"/>
    <path d="M574.853 623.745l.26 8.548 16.536 2.132-.776 6.676 4.13 20.862-42.32 5.65-7.703 5.012-14.762-4.533-12.039 5.583-4.496 7.543 1.05 15.027 4.915 7.38-10.264 8.411-15.751-5.776-13.308-8.382-6.685-25.1 11.568-24.487 15.317-17.148-1.107-17.515 7.362-3.07 11.655 13.246 17.068-1.648 4.265 8.342 23.626-4.57.476-10.841 7.85-.795 3.133 9.453z" id="58721" data-name="Moldovenești" class="comuna"/>
    <path d="M133.967 303.435l-19.828 1.97-8.311-4.48-5.664 9.642-13.803 9.87-5.08 15.804-8.97 3.42.07-12.495 7.341-12.534-2.242-21.157 6.212-14.93 13.277-3.937 5.202-7.817 32.769 17.872-.973 18.772z" id="57163" data-name="Ciucea" class="comuna"/>
    <path d="M376.668 542.344l-13.139-1.828-13.412 11.538-7.093-3.806-6.989 8.144.982 12.512-7.268 6.076-4.31 13.27-6.98 8.33-3.026 13.122-2.203 24.768-10.643-.248-5.969 4.885-22.568-2.982-3.215-11.25-16.794 2.092 20.58-54.6 4.567-20.614 11.658-9.456 23.333.527 6.333-8.509 25.413-14.105 4.363-8.748 5.127-2.219 8.824 7.408-4.445 8.654 15.702 10.887 1.172 6.152z" id="60026" data-name="Valea Ierii" class="comuna"/>
    <path d="M376.668 542.344l13.385 3.635 25.028 10.443 3.547 8.924 8.914.092-5.696 21.223-15.62-.206-14.375 4.646-11.049-5.232-17.144 9.383-11.006 9.593-.023 4.472-10.394 9.865-6.963-.332-11.785 7.701-10.257 7.92 2.203-24.769 3.026-13.123 6.98-8.33 4.31-13.27 7.268-6.075-.982-12.512 6.99-8.144 7.092 3.806 13.412-11.538 13.139 1.828z" id="55918" data-name="Băișoara" class="comuna"/>
    <path d="M655.883 572.757l19.505 29.196 10.32 5.286 9.518-6.506 3.996 7.905-7.524 7.806-8.171-7.312-9.108.079-13.376 18.46-20.124-11.704-5.43-1.119-6.94-13.404-.214-8.292-6.71-3.994-6.271-6.253 9.792-18.44.503-6.5 13.198-10.22 7.716 3.361-3.404 15.627 12.724 6.024z" id="60062" data-name="Viișoara" class="comuna"/>
    <path d="M692.9 545.933l2.893 7.519 20.653 12.292-7.793 19.012-.052 9.609-7.654 3.219 2.837 9.877-4.562 1.177-3.996-7.905-9.519 6.506-10.32-5.286-19.504-29.196-1.09-4.909 7.255-18.03 9.918 1.286 14.848-8.165 6.085 2.994z" id="59693" data-name="Tritenii de Jos" class="comuna"/>
    <path d="M495.18 373.385l4.627 13.664 20.89 1.071 16.98 14.382 3.337 9.863-4.556 7.326 2.125 9.08-11.42 10.302 11.193 20.837-1.55 3.396-20.455-1.895-9.459 8.408-12.082-9.775-17.097 6.871 1.042 14.407-10.776 9.41-2.089 2.671-9.575-7.796-9.301-2.81 3.284-33.578-13.161-10.597 16.95-15.26-4.748-7.272 9.8-10.077-3.954-14.627 14.3-15.963 17.883-3.452 7.812 1.414z" id="54975" data-name="Cluj-Napoca" class="municipiu resedinta"/>
  </g>
</svg>
