<svg xmlns="http://www.w3.org/2000/svg" version="1.2" baseProfile="tiny" stroke-linecap="round" stroke-linejoin="round" viewBox="0 0 800 346">
  <g id="CL" fill="none" stroke="#aaa">
    <path d="M93.692 265.505l18.072 5.92 3.922 22.914-15.844 2.106-21.263-8.875 4.07-14.11 11.043-7.955z" id="101724"/>
    <path d="M167.366 278.337l10.079 24.728-9.272 26.121-34.852 1.742-46.623 14.267-24.957-5.776-10.31-40.45 27.148-11.4 21.263 8.876 15.844-2.106-3.922-22.913 31.232-.122 4.604-9.464 19.766 16.497z" id="101804"/>
    <path d="M229.113 277.608l15.478 31.587-42.2 7.713-34.218 12.278 9.272-26.12-10.079-24.729-3.836-9.39 28.71-12.777 1.357 15.283 35.516 6.156z" id="100610"/>
    <path d="M275.638 289.29l-31.046 19.905-15.479-31.587 1.368-48.164 11.13-5.879 13.85 38.86 20.177 26.864z" id="105259"/>
    <path d="M93.692 265.505l-11.043 7.954-6.302-32.408 24.544-18.371 3.045-.861-10.244 43.686z" id="180055"/>
    <path d="M136.902 233.104l12.825 23.66-2.127 5.076-4.604 9.464-31.232.122-18.072-5.921 10.244-43.686 32.966 11.285z" id="104751"/>
    <path d="M230.48 229.444l-1.367 48.165-35.516-6.156-1.356-15.283 1.195-23.623 16.55-13.499 20.495 10.396z" id="105605"/>
    <path d="M188.888 212.296l-.112 15.673-18.12 3.677-20.929 25.118-12.825-23.66 8.288-8.562 26.95-12.69 16.748.444zm0 0l10.54-5.303-3.422-27.142 8.835-11.792 8.587.065 6.95 11.899-1.062 11.114-2.778 13.224-3.567 7.883-24.083.052z" id="102419"/>
    <path d="M212.971 212.244l-2.985 6.804-16.55 13.499-1.195 23.623-28.71 12.777 3.835 9.39L147.6 261.84l2.127-5.076 20.93-25.119 18.119-3.676.112-15.673 24.083-.052z" id="100638"/>
    <path d="M148.075 191.39l6.002 16.362-8.887 16.79-8.288 8.562-32.966-11.285-3.045.86 11.29-20.915 17.527-10.418 18.367.043z" id="105384"/>
    <path d="M196.006 179.85l3.422 27.143-10.54 5.303-16.748-.444-26.95 12.69 8.887-16.79 41.93-27.901z" id="104083"/>
    <path d="M139.31 166.87l-.067 7.024-9.558 9.772-72.57 13.24-18.272-9.231 26.15-18.462 1.606-2.96 30.268 4.1 42.443-3.484z" id="105829"/>
    <path d="M500.85 158.452l-4.004 42.25 12.812 1.186-.394 25.479 10.333 20.927 3.219 24.556-42.196-4.445-13.719 8.23-4.55-65.787 20.148-14.5.572-39.602 17.78 1.706z" id="92569"/>
    <path d="M574.854 152.585l18.267 51.968 12.644 14.283-8.926 18.198-24.352 19.895-13.511-7.233 1.255-96.938 14.623-.173z" id="93325"/>
    <path d="M347.23 152.547l-6.382 55.785 8.944 26.511-5.154 10.443 5.879 26.208-22.45 3.901-9.594-40.258-18.432-29.189 25.13-19.2 3.912-20.384 17.322-13.991.824.174z" id="93441"/>
    <path d="M540.735 151.649l19.496 1.109-1.255 96.938 13.511 7.233-19.695 16.062-17.562 2.638 3.257-7.131 1.283-109.115.965-7.734z" id="94312"/>
    <path d="M371.814 196.423l26.915 34.147 4.659 39.953-20.354 5.173-32.517-4.202-5.88-26.209 5.155-10.442-8.944-26.51 6.381-55.786 3.913-5.738 7.393-3.046 7.943 14.525-9.344 20.453 14.68 17.682z" id="93085"/>
    <path d="M539.77 159.383l-1.283 109.115-3.257 7.13-12.414-2.778-3.22-24.556-10.332-20.927.394-25.479-12.812-1.186 4.005-42.25 1.454-14.901 22.582 2.657 14.883 13.175z" id="92587"/>
    <path d="M166.384 143.395l23.095.66 15.362 24.004-8.835 11.792-41.929 27.901-6.002-16.363-8.832-17.495.067-7.025 27.074-23.474z" id="104323"/>
    <path d="M96.867 170.353l-30.268-4.1 20.447-12.28 9.82 16.38z" id="179962"/>
    <path d="M346.405 152.373l-17.322 13.991-3.912 20.385-25.13 19.199-24.19-20.806 7.184-19.02 13.558-9.667 29.456-7.988 20.356 3.906z" id="94606"/>
    <path d="M449.664 125.04l3.743 14.502-12.202 55.706 5 14.767 6.006 73.378-25.772-.897-23.051-11.973-4.66-39.953-26.914-34.147 22.245-6.269 4.694 7.787 32.079-20.74 7.802-47.56 11.03-4.602z" id="93664"/>
    <path d="M408.226 140.011l3.324 9.892-17.491 40.251-22.245 6.27-14.68-17.683 9.344-20.453-7.943-14.525 30.481 9.49 11.16-29.24 8.05 15.998z" id="94125"/>
    <path d="M635.893 222.932l-39.054 14.102 8.926-18.198-12.644-14.283-18.267-51.968-2.13-22.914 12.401-5.853 24.998 53.36 12.752.967 18.524 28.707-5.506 16.08z" id="94651"/>
    <path d="M296.594 156.455l-13.56 9.668-7.183 19.02-8.503 6.3-48.032-.306 1.062-11.114 4.098-11.587 25.956-15.71 25.892-30.222 15.149 15.896 5.12 18.055z" id="102838"/>
    <path d="M541.903 123.248l-1.168 28.4-.965 7.735-14.883-13.175-22.582-2.657-1.454 14.9-17.78-1.705-14.497-2.023 5.247-37.536 30.432 5.574 37.65.487z" id="94580"/>
    <path d="M451.488 108.721l-1.824 16.318-11.03 4.602-7.802 47.56-32.079 20.74-4.694-7.787 17.49-40.251-3.323-9.892 13.323 5.707 13.323-36.578 16.616-.419z" id="93771"/>
    <path d="M664.97 227.594l-29.077-4.662 5.506-16.08-18.524-28.707-12.752-.966-24.998-53.361 30.309-14.298 49.38 89.169.157 28.905z" id="93815"/>
    <path d="M112.619 108.014l22.279 8.497.12 15.024 27.593-5.53 3.773 17.39-27.073 23.474-42.444 3.484-9.82-16.38 25.572-45.96z" id="105222"/>
    <path d="M271.645 114.34l4.679 8.164-25.892 30.222-25.956 15.71-4.098 11.587-6.95-11.9 7.292-29.627-9.23-20.094 14.526-16.91L237.52 103l24.012 1.188 10.114 10.153z" id="105712"/>
    <path d="M112.619 108.014l-25.573 45.959-20.447 12.28-1.605 2.96-14.842-22.957 16.938-25.243 18.07.315 13.783-20.907 13.676 7.593z" id="104635"/>
    <path d="M469.62 94.982l4.201 22.205-5.247 37.537 14.497 2.022-.572 39.602-20.147 14.5 4.55 65.786-14.69 6.759-6.007-73.378-5-14.767 12.202-55.706-3.743-14.503 1.824-16.318 1.063-9.395 17.068-4.344z" id="93281"/>
    <path d="M351.065 110.45l.077 36.36-3.913 5.737-.824-.174-20.356-3.906-29.455 7.988-5.121-18.055-15.15-15.896-4.678-8.163L292 104.559l9.437-17.451 2.211 18.075 47.417 5.267z" id="93931"/>
    <path d="M452.55 99.326l-1.062 9.395-16.616.42-13.323 36.577-13.323-5.707-8.05-15.999-12.34-5.683 1.126-21.562 23.352-9.303 27.91-.43 12.327 12.292z" id="94731"/>
    <path d="M379.687 86.972l9.275 9.795-1.125 21.562 12.34 5.683-11.16 29.242-30.482-9.491-7.393 3.046-.077-36.359 11.055-23.494 17.567.016z" id="94768"/>
    <path d="M228.762 71.427l11.703 19.816L237.52 103l-11.503-1.509-16.73-1.355-4.417-18.078 23.893-10.631z" id="104341"/>
    <path d="M477.592 50.083l-8.84 18.761.867 26.138-17.068 4.344-12.327-12.292-27.91.43-23.352 9.303-9.275-9.795 5.801-32.85 14.03-10.79 30.202 9.959 9.622-6.337 38.25 3.129z" id="93539"/>
    <path d="M154.774 40.045l15.05 28.128-16.384 29.83-28.175-34.236 24.918-29.338 4.59 5.616z" id="105455"/>
    <path d="M134.563 28.542l15.62 5.887-24.918 29.338 28.175 34.236 4.38 14.23-22.922 4.278-22.28-8.497-13.675-7.593-4.845-21.807 2.314-32.532 28.45-18.748 9.701 1.208z" id="103032"/>
    <path d="M287.839 36.667l-8.368 2.97-10.593 33.305-11.696 19.486-16.717-1.185-11.703-19.816 15.676-30.677 14.918-10.76 28.483 6.677z" id="93851"/>
    <path d="M134.563 28.542l-9.701-1.208-28.45 18.748-2.314 32.532-4.305-.04-25.55-.326L48.22 60.3l26-24.807 13.505-26.34 13.264-6.77 33.573 26.16z" id="101083"/>
    <path d="M613.94 57.943l-5.187 28.755 7.533 15.593-.852 7.229-30.309 14.298-12.401 5.853 2.13 22.914-14.623.173-19.496-1.11 1.168-28.4-2.445-64.357L564.881 62l-1.723-18.73 9.302-31.986L593.2 1l1.043 57.529 19.696-.586z" id="94223"/>
    <path d="M244.438 40.75l-15.676 30.677-23.893 10.63-33.92-5.783-1.125-8.101-15.05-28.128L191.71 9.491l19.187 15.182 33.54 16.077z" id="103764"/>
    <path d="M309.743 277.928l-34.105 11.361-20.178-26.864-13.85-38.86-11.13 5.88-20.494-10.397 2.986-6.804 3.566-7.883 11.38-13.009 48.376 47.642 18.008 11.953 15.441 26.981z" id="101822"/>
    <path d="M300.041 205.948l18.432 29.189 9.594 40.258-18.324 2.533-15.441-26.981-18.008-11.953-48.376-47.642-11.38 13.01 2.778-13.225 48.032.306 8.503-6.3 24.19 20.805z" id="104181"/>
    <path d="M209.286 100.136l16.73 1.355-14.526 16.91 9.23 20.095-7.292 29.628-8.587-.065-15.362-24.003-23.095-.661-3.773-17.39 46.675-25.869z" id="103568"/>
    <path d="M204.869 82.058l4.417 18.078-46.675 25.868-27.593 5.53-.12-15.023 22.921-4.278-4.38-14.23 16.385-29.83 1.125 8.101 33.92 5.784z" id="104886"/>
    <path d="M323.71 27.608l-7.397 24.56-23.632.63 8.756 34.31-9.437 17.45-20.355 9.782-10.114-10.152L237.519 103l2.946-11.757 16.717 1.185 11.696-19.486 10.593-33.304 8.368-2.97 35.87-9.06z" id="93888"/>
    <path d="M385.488 54.123l-5.8 32.849-17.568-.016-11.055 23.494-47.417-5.267-2.21-18.075-8.757-34.31 23.632-.63 7.397-24.56 14.184 12.412 39.773-.949 7.821 15.052z" id="93370"/>
    <path d="M139.243 173.894l8.832 17.495-18.367-.043-17.527 10.418-11.29 20.916-24.544 18.371-7.273-16.02-17.72 1.019-21.349-21.576 27.11-7.567 72.57-13.24 9.558-9.773z" id="101458"/>
    <path d="M50.152 146.256l14.842 22.958-26.151 18.46 18.271 9.233-27.109 7.567L2.06 179.48 1 159.311l35.063-26.69 14.09 13.634z" id="102945"/>
    <path d="M664.97 227.594l-.156-28.905-49.38-89.17.852-7.228 16.867-15.452 34.815-.058 9.03 35.85 18.46 3.609 11.424 12.845 17.833-29.628L799 131.901l-2.073 11.54-32.612 46.282-48.589 4.286-22.346 9.622-28.41 23.963z" id="92961"/>
    <path d="M633.153 86.839l-16.867 15.452-7.533-15.593 5.186-28.755 20.997 12.938-1.783 15.958z" id="94562"/>
    <path d="M563.158 43.27L564.88 62l-25.423-3.109 2.445 64.357-37.65-.487-30.432-5.574-4.202-22.205-.867-26.138 8.84-18.761 34.124-6.943 51.442.13z" id="93487"/>
    <path d="M94.098 78.614l4.845 21.807-13.782 20.907-18.071-.315-16.938 25.243-14.09-13.635-3.757-15.329 34.884-27.255 22.604-11.464 4.305.041z" id="103014"/>
  </g>
</svg>
