<svg xmlns="http://www.w3.org/2000/svg" version="1.2" baseProfile="tiny" stroke-linecap="round" stroke-linejoin="round" viewBox="0 0 800 875">
  <g id="CS" fill="none" stroke="#aaa">
    <path d="M212.83 769.858l17.012 15.306-9.706 24.264-39.208-9.413-20.212 3.759-11.873-8.321 37.025-16.762 8.22-9.609 18.743.776z" id="53489"/>
    <path d="M324.802 733.077l10.358 18.338-20.118 9.917-19.247 31.415-4.006 23.674-33.62-2.676-7.316-9.314-30.717 4.996 9.706-24.263-17.012-15.306 3.665-12.773 20.206-16.366 12.876 9.569 19.534-12.756-2.716-20.73 24.75 17.797 15.7-5.495 17.957 3.973z" id="53853"/>
    <path d="M635.813 676.343l-17.923 30.632-3.183 32.958-18.099-2.942-20.461 6.077-6.554-17.28-45.085-10.195-14.609-20.083 11.513-16.773 21.061-2.932 14.748 12.034 28.858 3.58 16.256-11.328-6.476-11.038 25.11 12.004 14.844-4.714z" id="54387"/>
    <path d="M303.16 671.603l7.58 19.732 27.27 26.529-13.208 15.213-17.957-3.973-15.7 5.495-24.75-17.798-24.546-13.569 17.812-19.477 11.26-34.816 32.24 22.664z" id="54163"/>
    <path d="M161.994 648.977l13.451 21.52-2.019 21.384-10.832 15.355-21.68 4.965-7.717 9.85-32.294-13.219-41.01-5.022-20.4 2-19.841-13.304 8.817-1.347 19.411-25.97 16.1 2.875 22.954-9.818 15.93.143 39.936-9.954 19.194.542z" id="53513"/>
    <path d="M82.639 628.08l5.477 16.598 14.749 13.71-15.931-.142-22.953 9.818-16.1-2.874-19.412 25.969-8.817 1.347-6.548-21.955L1 651.296 9.398 630.3l28.52-5.291 27.628 5.476 17.093-2.405z" id="54109"/>
    <path d="M361.267 624.36l14.072 19.02.299 27.357 12.026 32.168-25.676 39.867-23.978-24.909-27.27-26.528-7.58-19.732 58.107-47.243z" id="52570"/>
    <path d="M436.483 615.828l29.61 21.022 5.56 26.704 21.2 24.355-7.808 30.97 4.7 14.485-6.981 12.551-10.122-31.637-22.663-.33-38.723-69.265-2.365-28.228-6.889-4.512 19.793-4.507 14.688 8.392z" id="53700"/>
    <path d="M402.002 611.943l6.89 4.512 2.364 28.228 38.724 69.266 22.662.33 10.122 31.636-15.18 3.04-11.172 29.414-5.399-8.053-38.553 1.737-16.144-20.862-34.328-8.419 25.676-39.867-12.026-32.168-.3-27.356-14.07-19.021 26.674-21.299 14.06 8.882z" id="51305"/>
    <path d="M161.993 627.355l.001 21.622-19.194-.542-39.935 9.954-14.75-13.71-5.476-16.6 39.116-12.706-6.308-34.03 19.102.647 12.168 13.774 15.276 31.59z" id="53345"/>
    <path d="M661.667 566.868l-3.808 19.368 4.52 20.366-4.678 24.493-21.888 45.248-14.844 4.714-25.11-12.004 9.342-18.857 3.71-24.744 16.547-7.997 35.785-50.055.424-.532z" id="50923"/>
    <path d="M317.714 551.133l3.004 17.377 16.533 27.188 24.016 28.662-58.106 47.243-32.24-22.664-8.727-11.324-5.748-19.552 17.88-18.204 9.85-22.885 33.538-25.84z" id="53103"/>
    <path d="M536.915 528.416l11.85 20.954 22.844 9.792 6.29 22.511-25.296 53.546-15.195 19.24-18.234 5.722-19.298-22.793-.043-50.403 10.53-20.487 13.81-10.321 1.177-19.223 11.565-8.538z" id="53023"/>
    <path d="M593.33 526.218l9.604 4.843 33.745-1.428.812 11.113 17.737 10.154 6.015 16.5-35.785 50.055-16.548 7.997-3.708 24.744-9.343 18.857 6.476 11.038-16.256 11.327-28.858-3.58-14.748-12.033-21.06 2.932-2.239-18.556 18.234-5.723 15.195-19.239 25.297-53.546-6.29-22.511-1.665-11.549 23.384-21.395z" id="53274"/>
    <path d="M264.782 538.91l19.608-.047-1.136 37.307-53.149 10.22-34.843-15.643-22.53-11.533 5.544-6.35-8.044-27.518 7.011-4.923 17.132-11.573 23.82-.012 27.007 8.513 19.58 21.56z" id="51948"/>
    <path d="M144.773 500.292l29.655 11.993 2.815 8.138-7.01 4.923 8.043 27.517-5.543 6.351-31.803-8.302-10.39-8.129-17.757 8.006-17.58-19.487 24.596-32.226 24.974 1.216z" id="53675"/>
    <path d="M34.546 496.74l12.667 13.005 15.335.704 32.655 20.853 17.58 19.487-9.226 22.724-31.75-16.78-17.833-2.496-17.45-15.378-25.252-35.18 23.274-6.94z" id="51387"/>
    <path d="M596.213 495.006l-2.884 31.212-23.384 21.395 1.664 11.549-22.844-9.792-11.85-20.954 15.346-14.753-1.344-11.869 21.031-7.642 24.265.854z" id="52115"/>
    <path d="M525.35 536.954l-1.177 19.223-13.81 10.321-10.53 20.487-17.316-3.838-15.478-43.188-17.318-23.721-17.937-10.252-3-18.46 19.334 2.685 25.703 19.34 19.374-.53 16.445 21.948 15.71 5.985z" id="53069"/>
    <path d="M119.799 499.077l-24.596 32.225-32.655-20.853-15.335-.704-12.667-13.005 32.63-6.867-4.637-11.878 24.02.979 33.24 20.103z" id="54573"/>
    <path d="M591.677 439.44l11.258 12.158-6.722 43.408-24.265-.854-21.03 7.642-4.817-12.176-2.857-25.894 9.661-12.12 38.772-12.164z" id="52721"/>
    <path d="M385.518 449.029l-13.064 33.817 8.553 31.223 17.873 5.232-.689 18.486 8.278 31.798-1.655 10.994 31.67 35.25-14.688-8.393-19.794 4.507-14.06-8.882-26.675 21.298-24.016-28.661-16.533-27.188-3.004-17.377 11.54-72.92 16.753 5.393.874-20.677 12.444-16.39 9.335-9.57 16.858 12.06z" id="51573"/>
    <path d="M269.195 444.774l-1.986 26.137 10.392 11.217-8.547 23.251 6.76 8.534-11.032 24.997-19.58-21.56-27.007-8.512-23.82.012-17.132 11.573-2.815-8.138-29.655-11.993-.058-25.245 28.47-10.343 4.107-13.852 41.813-29.877 9.94 14.25 40.15 9.549z" id="51118"/>
    <path d="M661.667 566.868l-.424.532-6.015-16.5-17.737-10.154-.812-11.113-33.745 1.428-9.605-4.843 2.884-31.212 6.722-43.408-11.258-12.158 20.722 4.31 14.422-15.003 59.325 19.255 18.665-28.98 11.985 16.065 39.184 9.103 3.344 18.595-42.438 48.696-12.52 6.943-16.36 25.89-26.34 22.554z" id="52160"/>
    <path d="M359.325 446.538l-12.444 16.391-.874 20.677-16.752-5.393-11.54 72.92-33.538 25.84-.923-.803 1.135-37.307-19.607.047 11.032-24.997-6.76-8.534 8.547-23.251-10.392-11.217 1.986-26.137 16.429-.04 1.439-17.522 11.081-8.033 14.317 10.276 22.594 2.537 24.27 14.546z" id="50889"/>
    <path d="M479.633 430.539l12.056 22.408 14.338 39.526 35.34 3.863 4.734-6.719 4.816 12.177 1.344 11.87-15.346 14.752-11.565 8.538-15.71-5.985-16.445-21.948-19.374.53-25.703-19.34-19.334-2.686 18.298-71.293 32.551 14.307z" id="53327"/>
    <path d="M543.244 463.724l2.856 25.894-4.732 6.718-35.341-3.863-14.338-39.526-12.056-22.408 2.829-13.997 38.785 28.133 17.586 3.723 4.411 15.326z" id="53130"/>
    <path d="M144.715 475.047l.058 25.245-24.974-1.215-33.24-20.103-24.02-.98 22.077-28.717-1.731-24.426 28.775-12.305.367-10.612 9.953-5.28 9.807 12.412-.996 25.045-6.566 12.328 14.022 12.538 6.468 16.07z" id="54500"/>
    <path d="M287.063 427.212l-1.44 17.522-16.428.04-40.15-9.548-9.94-14.25-10.607-.72-14.435-16.65 28.915-4.128 32.906-6.97 31.179 34.704z" id="52035"/>
    <path d="M447.082 416.232l-18.298 71.293 3 18.462 17.937 10.251 17.318 23.72 15.478 43.19 17.315 3.837.044 50.403 19.298 22.793 2.238 18.556L509.9 695.51l-17.046-7.601-21.2-24.355-5.56-26.704-29.61-21.022-31.67-35.25 1.656-10.993-8.278-31.798.689-18.486-17.873-5.232-8.553-31.223 13.064-33.817 28.02-50.635 12.52-9.956 21.024 27.794z" id="53577"/>
    <path d="M177.292 450.852l-4.106 13.852-28.47 10.343-6.469-16.07-14.022-12.538 6.566-12.328.996-25.045-9.807-12.413 23.193-11.131 12.699 52.064 19.42 13.266z" id="52990"/>
    <path d="M270.28 364.421l21.306 17.888 6.558 36.87-11.081 8.033-31.18-34.703-32.905 6.97-15.235-8.061 16.275-23.887 20.55-18.253 25.713 15.143z" id="52954"/>
    <path d="M313.281 327.122l34.257 16.433 14.83 18.041 12.045.438 3.438 10.932-7.018 22.403-2.173 41.6-9.335 9.57-24.27-14.547-22.594-2.537-14.317-10.276-6.558-36.87-21.305-17.888 5.903-17.02 16.709-4.795 20.389-15.484z" id="51804"/>
    <path d="M199.345 323.752l-1.417 20.694 26.09 23.085-16.275 23.887 15.235 8.06-28.915 4.127 14.435 16.651 10.607.72-41.813 29.876-19.42-13.266-12.699-52.064 3.34-26.714 36.317-35.788 14.515.733z" id="54305"/>
    <path d="M694.618 318.416l4.17 25.2-22.795 26.06-18.858 7.242-18.566 22.058-31.924 3.192-21.648 9.657-16.186-8.93-20.849-26.607 9.438-24.046 33.352-11.197 23.3 5.039 52.791-13.373 17.685-18.202 10.09 3.907z" id="51243"/>
    <path d="M726.961 385.897l-22.15 33.125-18.665 28.98-59.325-19.255L612.4 443.75l-20.722-4.31-38.772 12.162-9.66 12.121-4.412-15.326-17.586-3.723-38.785-28.133-2.829 13.997-32.55-14.307-21.025-27.794-8.34-16.992 11.2-16.883 8.217 7.841 18.37-3.505 26.144 12.21 66.313 5.18 20.85 26.607 16.185 8.93 21.648-9.658 31.924-3.192 18.566-22.058 18.858-7.243 22.795-26.06-4.17-25.199 11.941-17.863 23.602 7.326 2.653 21.561-15.036 21.688 9.183 34.769z" id="54270"/>
    <path d="M565.75 303.151l31.529 4.653 14.942-5.974 41.217 12.594 31.09.085-17.685 18.202-52.792 13.373-23.299-5.039-33.352 11.197-9.438 24.046-66.313-5.178 7.085-17.384-6.892-17.925 21.086-13.957L543.166 319l1.951-12.106 20.633-3.742z" id="54056"/>
    <path d="M277.24 272.509l11.618 4.988 17.848 21.128 6.575 28.497-20.388 15.484-16.709 4.795-5.903 17.02-25.713-15.143 10.396-14.988-.155-27.567 15.295-34.912 7.135.698z" id="53167"/>
    <path d="M270.104 271.811l-15.295 34.912.155 27.567-10.396 14.988-20.55 18.253-26.09-23.085 1.417-20.694 21.946-19.58 10.246-34.627 22.685-6.511 15.882 8.777z" id="52696"/>
    <path d="M665.684 287.007l12.246-7.178 19.9 5.652 8.73 15.072-11.942 17.863-10.09-3.907-31.09-.086-41.217-12.594-14.942 5.975-31.53-4.653 6.774-19.663-17.674-13.314-.55-14.676 11.775-13.135 9.556 19.229 27.488-.849 22.019 17.923 30.936 11.447 9.61-3.106z" id="51546"/>
    <path d="M426.045 267.935l3.256 10.65-26.176 9.858-18.824-3.877-15.785 6.318-20.953-17.423 2.048-13.778 18.273-3.314 15.869-13.515 17.006-5.557 25.286 30.638z" id="54350"/>
    <path d="M274.811 248.93l2.428 23.579-7.135-.698-15.882-8.777-22.685 6.51-.11-5.03 13.493-11.445.4-19.901 15.29-.244 14.201 16.005z" id="50987"/>
    <path d="M349.611 259.683l-2.048 13.779 20.953 17.422 15.785-6.318 18.824 3.877 26.176-9.858 7.57-.625 15.344 26.144-10.303 13.263-27.15-10.98-11.677 25.154-19.993 6.516-8.679 23.977-12.046-.438-14.83-18.041-34.255-16.433-6.576-28.497-17.848-21.128-11.619-4.988-2.428-23.58 7.14-16.624 22.284-14.993 21.085 5.86 24.291 36.51z" id="50790"/>
    <path d="M607.82 187.872l7.626 12.422 15.063-1.907 8.176 21.58 17.859 14.458 5.953 15.175 17.353 11.04-14.166 26.367-9.611 3.106-30.936-11.447-22.02-17.923-27.487.849-9.556-19.23-28.988-13.534 8.925-11.447 2.598-27.125 59.211-2.384z" id="54412"/>
    <path d="M462.223 173.253l35.692-1.216 7.331 4.246-9.9 37.017-10.582 18.36-39.041 32.162-8.853 14.138-7.569.625-3.256-10.65-5.404-16.572.902-35.446 24.092-17.834-13.146-13.462 29.734-11.368z" id="53425"/>
    <path d="M432.489 184.621l13.146 13.462-24.092 17.834-.902 35.446 5.404 16.572-25.286-30.638-17.006 5.557-23.925-25.723.66-11.268-1.612-11.706 53.272-24.663 20.34 15.127z" id="51626"/>
    <path d="M274.71 158.663l3.829 21.585 14.032 9.053 11.664 28.01-22.285 14.994-7.139 16.624-14.202-16.005-15.288.244-.401 19.901-13.492 11.446-2.19-17.2-15.009-3.528-26.03-16.266-10.98-14.859 21.113-28.58 8.953 5.49 26.316 8.739 3.769-18.724 37.34-20.923z" id="50969"/>
    <path d="M340.072 172.554l4.732 24.295 15.685 9.014-.661 11.268 23.925 25.723-15.869 13.515-18.273 3.314-24.29-36.511-21.086-5.86-11.664-28.01 11.72-7.908 9.718-22.4 26.063 13.56z" id="52758"/>
    <path d="M548.61 190.256l-2.599 27.125-8.925 11.447-19.364-3.197-19.7 15.314-13.258-9.285 10.581-18.36 9.901-37.017-7.33-4.246-35.693 1.216 2.351-9.356 32.873-11.877 14.029 16.376 30.374 10.581 6.76 11.28z" id="51010"/>
    <path d="M173.858 152.41l33.427 37.163-8.953-5.49-21.113 28.58 10.98 14.858-56.558 32.835-15.513-5.833-14.114-15.171 15.783-41.43 8.435 2.09 18.047-48.263 7.664-10.816 21.915 11.477z" id="51500"/>
    <path d="M140.658 127.419l11.285 13.514-7.664 10.816-18.047 48.263-8.435-2.09-15.783 41.43-28.586-33.762-1.998-13.686 27.969-8.13-12.538-21.902-2.542-26.046 30.77-12.323 25.569 3.916z" id="53247"/>
    <path d="M411.456 132.36l5.57 17.201-4.878 19.933-53.272 24.663 1.613 11.706-15.685-9.014-4.732-24.295 12.82-34.868 15.099-14.959 12.148-3.749 31.317 13.382z" id="54699"/>
    <path d="M250.952 103.06l17.344 34.31 6.414 21.293-37.34 20.924-3.77 18.724-26.315-8.738-33.427-37.163 34.817-22.283 2.105-11.093 40.172-15.974z" id="53639"/>
    <path d="M678.7 88.996l-12.847 28.64-15.256 17.934 12.639 17.567 52.048 41.393 11.402-2.227 21.473 10.622 22.67 21.086 2.022 13.576-6.989 8.996 18.722 36.247 2.496 19.963-11.424 16.222 4.305 24.265-24.025 26.07-28.975 16.547-9.183-34.77 15.036-21.687-2.653-21.56-23.602-7.327-8.728-15.072-19.901-5.652-12.246 7.178 14.166-26.366-17.353-11.04-5.953-15.176-17.859-14.458-8.176-21.58-15.063 1.907-7.626-12.422 4.232-19.978 14.488-7.241 2.695-19.99-10.334-9.36 6.288-32.635 8.185-14.384 30.308 11.14 15.018-6.428z" id="54617"/>
    <path d="M726.686 192.303l-11.402 2.227-52.048-41.393-12.64-17.567 15.257-17.934 12.847-28.64 21.687-10.02-10.846 19.6-2.004 21.26 8.221 29.019 14.31 12.876 16.618 30.572z" id="53210"/>
    <path d="M772.85 237.587l-2.022-13.576-22.669-21.086-21.473-10.622-16.619-30.572-14.309-12.876-8.221-29.02 2.004-21.26 10.846-19.598 7.253-5.326 6.886-3.492 42.638 13.761 2.719 17.043 28.306 49.17L799 211.55l-13.242 19.244-12.907 6.792z" id="51332"/>
    <path d="M633.374 84.284l-8.185 14.384-6.288 32.635 10.334 9.36-2.695 19.99-14.488 7.24-7.382-3.47 2.212-10.957-22.684-13.461 7.804-22.272-4.207-37.61 4.319-14.88 15.24 1.53 26.02 17.511z" id="51207"/>
    <path d="M592.114 65.243l-4.319 14.88 4.207 37.61-7.804 22.272 22.684 13.461-2.212 10.957-7.303-5.222-25.557 3.895-15.516-16.56 8.993-21.494-4.721-14.014 4.675-21.35 8.965-8.567 3.126-20.59 14.782 4.722z" id="52936"/>
    <path d="M577.332 60.522l-3.126 20.589-8.965 8.568-4.675 21.349 4.72 14.014-8.992 21.493 15.516 16.561 25.557-3.895 7.303 5.222 7.382 3.47-4.232 19.98-59.21 2.383-6.76-11.279-30.374-10.58-14.029-16.377 4.717-11.01 21.558-15.584L542.227 64.7l16.691-10.532 18.414 6.354z" id="53372"/>
    <path d="M252.04 88.026l-1.088 15.034-40.172 15.974-2.105 11.093-34.817 22.283-21.915-11.477-11.285-13.514 13.4-11.585.588-31.895 11.825-9.467 44.534-21.926 13.968 18.485 14.052 1.693 13.014 15.302z" id="54537"/>
    <path d="M707.64 73.651l-7.253 5.326L678.7 88.996l-15.018 6.428-30.308-11.14-26.02-17.51-15.24-1.531-14.782-4.721-18.414-6.354 8.994-29.59L579.12 6.276l23.574-5.201 18.188 4.319L641.97 1l15.434 7.498 6.802 21.837 16.871 15.169 9.255 17.32L707.64 73.65z" id="53728"/>
    <path d="M542.227 64.7l-18.505 60.726-21.558 15.585-4.717 11.01-32.873 11.876-3.624-26.634-17.66-31.404 49.03-20.728 5.918-19.256 22.592-17.364L542.227 64.7z" id="51877"/>
    <path d="M441.912 317.367l.027 9.122-13.02 28.074-11.202 16.883 8.34 16.992-12.519 9.957-28.02 50.634-16.858-12.06 2.173-41.6 7.018-22.403-3.438-10.932 8.68-23.977 19.992-6.516 11.677-25.153 27.15 10.979z" id="54485"/>
    <path d="M537.086 228.828l28.988 13.535-11.775 13.135.55 14.676-18.674-8.998-23.881 4.956-20.226 14.793-14.081-.334L462.32 307l-20.409 10.366 10.303-13.263-15.345-26.144 8.853-14.138 39.041-32.162 13.258 9.285 19.7-15.314 19.364 3.197z" id="51699"/>
    <path d="M481.842 335.8l6.892 17.926-7.085 17.384-26.144-12.211-18.37 3.505-8.216-7.841 13.02-28.074 16.991 8.255 22.912 1.057z" id="51662"/>
    <path d="M554.85 270.174l17.673 13.314-6.773 19.663-20.633 3.742-1.951 12.106-40.238 2.845-21.086 13.957-22.912-1.057-16.99-8.255-.028-9.122L462.321 307l15.666-26.41 14.081.335 20.226-14.793 23.881-4.956 18.674 8.998z" id="51751"/>
    <path d="M283.254 576.17l.923.804-9.85 22.885-17.88 18.204 5.747 19.552-41.74 5.782-7.227 8.68-36.257 18.007-1.525.413-13.45-21.52-.002-21.622 12.067-37.047 19.566-9.248 1.636-10.313 34.843 15.643 53.15-10.22z" id="53791"/>
    <path d="M172.733 559.214l22.53 11.533-1.637 10.313-19.566 9.248-12.067 37.047-15.276-31.59-12.168-13.775-19.102-.647-11.89-7.83 9.226-22.724 17.758-8.006 10.39 8.13 31.802 8.301z" id="51984"/>
    <path d="M520.83 48.511l-22.592 17.364-5.917 19.256-49.03 20.728-4.81-.8-10.038-16.522 27.435-31.39 36.85-8.619 11.32-10.239 16.782 10.222z" id="53755"/>
    <path d="M443.29 105.859l17.66 31.404 3.624 26.634-2.35 9.356-29.735 11.368-20.341-15.127 4.878-19.933-5.57-17.201 20.642-13.09 6.382-14.211 4.81.8z" id="52062"/>
    <path d="M367.99 122.727l-15.098 14.959-12.82 34.868-26.063-13.56-9.718 22.4-11.72 7.907-14.032-9.053-3.829-21.584-6.414-21.293-17.344-34.311 1.087-15.034 21.708 10.132 25.35 3.865 25.204-4.91 3.271-20.012 22.792 7.714 17.627 37.912z" id="52785"/>
    <path d="M184.83 323.02l-36.316 35.788-3.34 26.714-23.194 11.131-9.953 5.28-5.623-14.768-13.27-4.414-4.893-14.671 14.282-9.397 12.18-22.846 5.554-24.45 12.535-7.295-6.67-22.42 28.238 2.183 21.224 21.726 9.246 17.439z" id="52856"/>
    <path d="M231.428 264.514l.11 5.03-10.247 34.628-21.946 19.58-14.515-.732-9.246-17.44-21.224-21.725-28.238-2.183-9.994-27.15 15.513 5.834 56.558-32.835 26.03 16.266 15.01 3.527 2.189 17.2z" id="52650"/>
    <path d="M338.01 717.864l23.978 24.908 34.328 8.42 16.144 20.86 38.553-1.736 5.4 8.053-7.175 35.818 18.327 10.104 2.167 19.64-17.57 29.732-17.52-4.412-14.094-22.932-17.766 7.112-32.624 1.117-8.363-22.01-22.469-1.993-17.316-10.14-30.221-3.984 4.006-23.674 19.247-31.415 20.118-9.917-10.358-18.338 13.208-15.213z" id="51449"/>
    <path d="M241.85 703.232l24.545 13.57 2.716 20.73-19.534 12.756-12.876-9.57-20.206 16.367-10.268-13.533 12.201-46.888 23.421 6.568z" id="52909"/>
    <path d="M218.428 696.664l-12.2 46.888 10.267 13.533-3.665 12.773-18.742-.776-8.22 9.61-37.025 16.76-1.238-36.172-14.408-37.228 7.718-9.851 21.68-4.966 10.831-15.354 2.019-21.384 1.525-.413 41.458 26.58z" id="51056"/>
    <path d="M262.194 637.615l8.727 11.324-11.26 34.816-17.812 19.477-23.421-6.568-41.458-26.58 36.257-18.006 7.226-8.68 41.74-5.783z" id="51840"/>
  </g>
</svg>
