<svg xmlns="http://www.w3.org/2000/svg" version="1.2" baseProfile="tiny" stroke-linecap="round" stroke-linejoin="round" viewBox="0 0 800 873">
  <g id="CV" fill="none" stroke="#aaa">
    <path d="M473.952 629.264l-1.068 33.086 3.36 10.398 18.716 8.322 6.096 20.428-18.643 4.095-18.167 18.958-.608 9.211-15.437-10.717-30.266-.046-10.139-5.845 13.848-10.812 2.042-29.86 3.463-14.38-7.55-49.23.836-1.732 7.43-4.34 46.087 22.464z" data-name="Întorsura Buzăului" class="oras" id="63580"/>
    <path d="M586.147 687.066l-6.162 16.26-12.46 7.63-31.52-15.87-17.271-12.593-17.678 19.005-6.096-20.428-18.717-8.322-3.36-10.399 1.069-33.085 10.225-10.567 3.886-16.44 20.724 15.54 20.89-7.865 13.834 9.02 7.52 21.529 8.146 3.546 7.812 24.54 21.404 10.482-2.246 8.017z" data-name="Barcani" class="comuna" id="63633"/>
    <path d="M742.813 623.963l-17.48 31.1-33.267-7.734-8.514-32.087-15.073-8.934-7.637-16.114 8.3-16.111 28.863 10.93 2.908 9.49 34.395 16.26 7.505 13.2z" data-name="Comandău" class="comuna" id="63553"/>
    <path d="M491.853 460.879l-2.5 8.474-19.872 10.373-8.905 15.206 21.42 2.287-1.898 24.138-8.193 12.076 13.311 13.186 5.832 27.166-2.985 28.471-18.658 2.114-16.632-19.823-22.635 15.702-11.11 2.524 3.999-8.901-1.966-25.365 11.548-14.39-6.337-12.187 2.225-19.14 11.08-12.158-5.256-35.507 11.12-22.727 24.337-8.068 22.075 16.549z" data-name="Boroșneu Mare" class="comuna" id="63937"/>
    <path d="M303.463 551.608l5.176 11.579-5.382 29.137 16.244 3.596 9.995 16.538-18.168-3.737-36.64-6.558 1.37-12.69-26.547 5.275 20.882-14.313 6.661-30.857 26.409 2.03z" data-name="Chichiș" class="comuna" id="64238"/>
    <path d="M480.098 521.357l4.25 9.086 56.638-2.412 17.307 11.462 67.624 2.634 13.451 23.616 29.774 8.34-8.3 16.11 7.637 16.115 15.073 8.934 8.514 32.087 33.266 7.733-10.695 21.12 2.05 8.606-7.798 31.872 4.98 13.021-2.9 15.072-12.485 21.084-9.814 3.633-12.937 20.67-23.411-16.84-4.984-23.719-22.674-.42 3.391-18.5-38.932-25.934-2.976-17.66 2.246-8.018-21.404-10.483-7.812-24.539-8.145-3.547-7.521-21.528-13.834-9.02-20.89 7.865-20.724-15.54 2.985-28.472-5.832-27.166-13.311-13.186 8.193-12.076z" data-name="Zagon" class="comuna" id="65011"/>
    <path d="M407.541 611.311l-15.777-.398-10.119-10.657-25.117 7.554-16.556-1.491-10.476 6.14-9.995-16.54-16.244-3.595 5.382-29.137-5.176-11.579-7.688-23.396 6.994-16.245 21.366-5.178 6.071-27.176 15.156 10.52 33.562 41.304 16.863 12.168.103 32.547 9.209 9.8 2.442 25.359z" data-name="Ozun" class="comuna" id="64639"/>
    <path d="M368.916 473.968l17.558.982 31.082 22.286 3.107-14.258 13.658-7.853 5.256 35.507-11.08 12.159-2.225 19.14 6.337 12.185-11.548 14.391 1.966 25.365-3.999 8.9 1.407 8.368-.835 1.732-12.059-1.561-2.442-25.36-9.21-9.8-.102-32.546-16.863-12.168-33.562-41.304-15.156-10.52.103-7.563 38.607 1.918z" data-name="Reci" class="comuna" id="64773"/>
    <path d="M489.352 469.353L509.735 468l11.058 11.469 4.778 11.892 15.8.743 7.71 23.128-8.095 12.8-56.637 2.41-4.25-9.085 1.897-24.138-21.42-2.287 8.905-15.206 19.871-10.373z" data-name="Brateș" class="comuna" id="64005"/>
    <path d="M746.446 518.234l14.2 21.07-6.68 22.806 5.193 18.246-6.625 19.71 3.328 15.515-13.05 8.382-7.504-13.2-34.395-16.26-2.908-9.49-28.863-10.93-29.774-8.34-13.451-23.616-67.624-2.634-17.307-11.462 8.094-12.8-7.708-23.127-15.801-.743-4.778-11.892 15.196-.818 24.457-13.18 26.875 8.618 51.65-4.145 26.9 21.648-9.839 23.619 33.851.434 5.738 7.997 14.743-20.828 36.082 15.42z" data-name="Covasna" class="oras" id="63526"/>
    <path d="M488.063 602.256l-3.886 16.441-10.225 10.567-46.087-22.464-7.43 4.34-1.407-8.367 11.11-2.524 22.635-15.702 16.632 19.823 18.658-2.114z" data-name="Valea Mare" class="comuna" id="65099"/>
    <path d="M217.879 494.917l-6.708-1.888-5.788 28.418 1.313 22.52-5.95 4.107 5.132 31.487-4.41 14.59-18.75 17.062-7.48-1.554 10.28-11.756-1.025-11.318-12.94-25.64-18.718-22.03-10.058 1.858-.934-18.586 12.774-6.394-2.934-18.268 19.555-18.96 9.723-37.167 1.273-.82 6.303-.419 16.912 31.167-2.51 11.603 14.94 11.988z" data-name="Vîlcele" class="comuna" id="64942"/>
    <path d="M180.961 441.398l-9.723 37.167-19.555 18.96 2.934 18.268-12.774 6.394-37.884-7.424-12.428-21.067-3.86-27.616 11.779-4.763 12.752 5.733 18.06-17.532 24.763-9.381-1.15-6.625 27.086 7.886z" data-name="Hăghig" class="comuna" id="64390"/>
    <path d="M293.596 455.106l13.242 1.54-.16 14.228 23.631 1.176-.103 7.563-6.071 27.176-21.366 5.178-6.994 16.245 7.688 23.396-26.409-2.03-.028-29.369-15.025-14.597-13.705-.443-13.98-10.758-16.437.506-14.94-11.988 2.51-11.603-16.912-31.167-6.303.419 21.179-9.915 38.257 20.561 51.926 3.882z" data-name="Sfîntu Gheorghe" class="municipiu resedinta" id="63394"/>
    <path d="M445.442 452.398l-11.121 22.727-13.658 7.853-3.107 14.258-31.082-22.286-17.558-.982-2.849-23.746 7.563-21.173 16.418 3.392-.269-21.378 9.262-2.166 9.176 23.682 16.436 4.237 20.789 15.582z" data-name="Moacșa" class="comuna" id="64568"/>
    <path d="M586.369 401.292l29.713 12.431 12.598-3.43 16.407 5.517 5.499 15.282 11.396 11.752 16.79 30.955 18.918 5.778 8.77-9.014 40.825 2.48-3.539 12.273 4.206 15.098-1.506 17.82-36.082-15.42-14.743 20.828-5.738-7.997-33.85-.434 9.839-23.62-26.9-21.647-51.65 4.145-26.876-8.619-24.457 13.181-15.196.818L509.735 468l-20.383 1.353 2.5-8.474 13.852-12.777 12.185-22.177 8.403-1.227 2.985-17.492 18.926-18.926 23.078 3.54 15.088 9.472z" data-name="Zăbala" class="comuna" id="65048"/>
    <path d="M298.517 433.585l8.495 8.77-13.416 12.751-51.925-3.882-38.258-20.561-21.179 9.915 7.953-26.775 11.899-24.15 9.412-4.86.75-.922 27.266 21.618 1.06 6.613 24.121 11.696 33.822 9.787z" data-name="Arcuș" class="comuna" id="65113"/>
    <path d="M211.498 384.793l-9.412 4.86-11.899 24.15-7.953 26.775-1.273.82-27.085-7.886-27.387 11.41-27.901-6.625-17.71 5.528-.173-16.38 6.597-17.157-9.533-9.834-2.725-26.55 6.82-4.882 17.669 10.483 9.743-9.272 18.244-3.086 21.678 12.994 23.892-11.037 32.356 17.084 6.052-1.395z" data-name="Belin" class="comuna" id="63866"/>
    <path d="M753.938 379.98l6.105 23.113-14.697 15.94 1.403 20.291 9.147 18.083-8.61 15.637-40.826-2.481-8.77 9.014-18.919-5.778-16.789-30.955-11.396-11.752-5.5-15.281-16.406-5.519-12.598 3.431-29.713-12.431 6.844-26.375-14.768-16.317 11.037-11.705 7.198-11.52 12.368-3.08 9.154 18.244 17.538 9.5 13.257-.271 9.99 16.902 20.103 16.198 29.662 8.976 19.99-5.157 25.196-16.707z" data-name="Ghelința" class="comuna" id="64318"/>
    <path d="M385.05 331.916l3.433 11.713-17.684 21.018 10.119 18.367.234 15.522 8.627 12.527.269 21.378-16.418-3.392-7.563 21.173 2.849 23.746-38.607-1.918-23.63-1.176.16-14.229-13.243-1.539 13.416-12.75-8.495-8.771-.51-11.574 11.468-27.12 11.484-8.06 7.117 11.248 28.558-13.12 8.024-9.647-9.63-16.99 6.951-21.689 13.411-4.19 9.66-.527z" data-name="Ghidfalău" class="comuna" id="64345"/>
    <path d="M589.482 346.895L578.445 358.6l14.768 16.317-6.844 26.375-15.088-9.472-23.078-3.54-18.926 18.926-2.985 17.492-8.403 1.227-12.185 22.177-28.252-22.162 4.031-11.765-1.078-12.674 7.54-16.16 12.667 1.413 22.275-12.146 5.6-20.912 12.187-18.982 13.184-3.955 10.769 10.65 9.466-8.116 15.39 13.602z" data-name="Catalina" class="comuna" id="64130"/>
    <path d="M481.483 414.175l-4.03 11.765 28.25 22.162-13.85 12.777-22.075-16.549-24.336 8.068-20.79-15.582-16.435-4.237-9.176-23.683-9.262 2.167-8.627-12.526-.234-15.523-10.119-18.367 17.684-21.018-3.433-11.713 8.224 2.245 1.931 31.296 23.734 4.625 8.82 16.472 26.801 21.768 26.923 5.853z" data-name="Dalnic" class="comuna" id="65147"/>
    <path d="M241.198 323.552l19.992 30.3 9.836 8.872 6.979 20.397 31.47 11.77-11.469 27.12.51 11.574-33.821-9.787-24.122-11.696-1.06-6.613-27.265-21.618-6.134-11.545 4.204-22.987 10.847-16.009 2.522-10.957 17.511 1.18z" data-name="Valea Crișului" class="comuna" id="64906"/>
    <path d="M169.395 303.486l4.3 11.901 15.008 1.93 9.942 13.808 22.52 2.205-10.847 16.009-4.204 22.987 6.134 11.545-.75.922-6.052 1.395-32.356-17.084-23.892 11.037-21.678-12.994-18.244 3.087-9.743 9.271-17.67-10.483-6.82 4.882-.889-34.215 13.11-16.506 9.4 8.692 49.144-2.63 3.833-20.505 19.754-5.254z" data-name="Aita Mare" class="comuna" id="63777"/>
    <path d="M790.612 303.653l2.9 19.794-31.993 28.283-7.58 28.25-25.197 16.707-19.99 5.157-29.662-8.976-20.104-16.198-9.989-16.902-13.257.271-17.538-9.5-9.154-18.244-12.368 3.08 30.371-37.152 14.787-8.635 14.355 7.324 18.637 18.718 12.652-10.85 14.007-2.369 27.763 9.71 21.572 16.158 8.413-29.94 31.375 5.314z" data-name="Ojdula" class="comuna" id="64602"/>
    <path d="M369.1 323.201l6.29 9.242-13.41 4.19-6.953 21.688 9.631 16.991-8.024 9.647-28.558 13.12-7.117-11.247-11.484 8.059-31.47-11.77-6.979-20.397-9.836-8.873-19.992-30.299 12.24-15.114L265 304.812l10.886-21.088 17.754 2.07 18.311 31.123 42.609 10.31 14.54-4.026z" data-name="Bodoc" class="comuna" id="63893"/>
    <path d="M513.625 332.815l14.861 20.881-5.6 20.912-22.274 12.146-12.668-1.413-7.54 16.16 1.08 12.674-26.924-5.853-26.801-21.768-8.82-16.472-23.734-4.625-1.93-31.296-8.225-2.245-9.66.527-6.29-9.242-3.791-26.07 8.46-3.112 3.793-21.478 50.198 10.256 19.66 22.346 56.263 18.482 9.942 9.19z" data-name="Cernat" class="comuna" id="64194"/>
    <path d="M652.798 278.789l-10.96 10.799-14.787 8.635-30.371 37.151-7.198 11.521-15.39-13.602-9.465 8.116-10.769-10.65-13.184 3.955-12.188 18.982-14.861-20.881 21.484-42.274 18.413.12 28.647 15.699.057-16.813 13.768-12.809 1.568-10.687 8.263-1.515 10.16-3.826 18.711 12.96 18.102 5.119z" data-name="Târgu Secuiesc" class="municipiu" id="63740"/>
    <path d="M295.801 255.206l9.39 23.231 25.852 10.114 34.215-2.394 8.511 7.862-8.46 3.113 3.79 26.07-14.539 4.026-42.609-10.311-18.311-31.122-17.754-2.07L265 304.811l-11.562 3.626-12.24 15.114-17.511-1.179 12.45-34.092 30.406-.905.584-10.124-11.143-12.36 39.817-9.686z" data-name="Malnaș" class="comuna" id="64504"/>
    <path d="M379.605 240.458l-2.043 32.083-3.793 21.478-8.511-7.862-34.215 2.394-25.853-10.114-9.389-23.23 9.418-19.917 26.528-6.295 47.858 11.463z" data-name="Micfalău" class="comuna" id="65139"/>
    <path d="M790.612 303.653l-31.375-5.313-8.413 29.94-21.572-16.158-27.763-9.71-14.007 2.368-12.652 10.85-18.637-18.718-14.355-7.324 10.96-10.799 14.55-22.818 33.07-18.917 14.25-34.339 19.531-2.963 7.662-10.58 13.697 6.375 30.415 25.932-4.205 12.804 10.499 15.222 2.016 16.885L799 291.862l-8.388 11.79z" data-name="Brețcu" class="comuna" id="64096"/>
    <path d="M468.517 150.217l13.315 23.15-1.867 10.092 11.084 30.328-.205 17.075 7.712 17.186 20.3 16.62.731 16.394 15.522 9.48-21.484 42.273-9.942-9.19-56.262-18.482-19.661-22.346-50.198-10.256 2.043-32.083 9.32-19.49-.25-18.056 6.482-26.613-3.326-5.024 31.257-10.062 5.337 8.965 27.445-1.188 12.647-18.773z" data-name="Turia" class="comuna" id="64871"/>
    <path d="M391.831 171.275l3.326 5.024-6.482 26.613.25 18.055-9.32 19.491-47.858-11.463-26.528 6.295-12.12-35.764-17.006-27.615 21.278-29.767 11.903 11.691 13.987 24.018.91.836 18.301-3.652 20.448 1.909 15.687-10.29 13.224 4.619z" data-name="Bixad" class="comuna" id="65121"/>
    <path d="M510.796 135.237l4.882 13.172 20.65 4.21 19.242-2.859 11.165 14.563-4.34 23.827-18.016 3.983 8.39 44.4 14.153 17.236 9.91 20.448 20.73-8.166-1.568 10.687-13.768 12.809-.057 16.813-28.647-15.7-18.413-.119-15.522-9.479-.731-16.394-20.3-16.62-7.712-17.186.204-17.075-11.083-30.328 1.867-10.092-13.315-23.15 1.976-8.082 19.216-11.188 21.087 4.29z" data-name="Sînzieni" class="comuna" id="64826"/>
    <path d="M741.861 189.171l-7.662 10.58-19.53 2.964-14.25 34.34-33.07 18.916-14.55 22.818-18.103-5.12-18.71-12.959 27.122-17.294-3.604-5.892 11.825-25.83 12.386-17.837-3.547-57.666 20.966-32.442 15.326 1.984 7.616-7.127 13.633 27.852-3.095 27.53 33.722-8.997.658 18.736-14.373 12.445 7.24 13z" data-name="Lemnia" class="comuna" id="64461"/>
    <path d="M601.367 240.384l8.45 10.78-3.992 13.372-8.263 1.515-20.73 8.166-9.91-20.448-14.153-17.236-8.39-44.4 18.016-3.983 4.34-23.827-11.165-14.563-19.242 2.86-20.65-4.21-4.882-13.173 6.056-9.884 16.866 3.835 16.415-11.27 21.302 11.842 9.056-7 8.623-20.386 15.623 5.734 10.17-31.33 4.937 14.781-3.787 22.887-25.795 6.337-1.98 18.1-8.601 14.854-6.105 42.828 23.732 14.58 4.059 29.239z" data-name="Poian" class="comuna" id="64719"/>
    <path d="M99.19 74.855L88.342 90.95l8.365 32.74-10.024 29.051 16.53 14.238-.609 33.71-9.937 8.707-54.015-6.172-29.222 3.44-8.102-4.073-.181-1.868 12.149-2.104 9.345-21.05 1.54-25.98 12.985-1.51 9.173-15.452-2.212-27.694 43.65-36.79 11.413 4.71z" data-name="Vîrghiș" class="comuna" id="64997"/>
    <path d="M297.371 142.144l-21.278 29.767 17.005 27.615 12.121 35.764-9.418 19.916-39.817 9.686 11.143 12.36-.584 10.124-30.407.905-12.449 34.092-2.522 10.957-22.52-2.205-9.942-13.808-15.007-1.93-4.301-11.901-2.892-14.75-11.432-13.454 9.748-11.118 27.112-10.803-12.589-28.393 4.64-15.83-6.584-9.956 8.519-10.624-4.31-20.687 4.656-15.369-10.004-16.739 15.853-24.547 3.996-26.584 52.15-17.201 18.785 20.862 4.824 11.393-1.395 11.859 26.9 30.599z" data-name="Bățani" class="comuna" id="63802"/>
    <path d="M248.257 67.43l-52.149 17.202-3.996 26.584-15.853 24.547 10.004 16.74-4.657 15.368-20.41 8.895-5.032 18.664-18.958 17.34-21.018 10.595-20.663-2.792-2.858-11.176 9.937-8.707.61-33.71-16.531-14.238 10.023-29.051-8.364-32.74L99.19 74.855l13.907-23.825 30.573-12.677 33.905-20.906 5.204-11.01 4.01-.939L197.608 1l21.76 1.838 4.624 16.712-5.914 3.71 30.178 44.17z" data-name="Brăduț" class="comuna" id="64041"/>
    <path d="M217.879 494.917l16.437-.506 13.98 10.758 13.705.443 15.025 14.597.028 29.369-6.661 30.857-20.882 14.313-2.078-.693-8.617-10.514-27.233.35-5.704-4.33-5.133-31.487 5.95-4.106-1.313-22.52 5.788-28.42 6.708 1.89z" data-name="Ilieni" class="comuna" id="64425"/>
    <path d="M169.395 303.486l-19.754 5.254-3.833 20.505-49.143 2.63-9.4-8.692 8.717-6.293 9.984-27.11-13.424-11.557-2.796-13.472-14.712-4.255-29.666 7.55-19.215-16.527L1 236.104l1.662-12.59-1.335-20.922 8.103 4.073 29.222-3.44 54.015 6.172 2.858 11.177 20.663 2.79 21.018-10.594 18.958-17.34 5.031-18.664 20.411-8.895 4.31 20.687-8.518 10.624 6.584 9.956-4.64 15.83 12.589 28.393-27.112 10.803-9.748 11.118 11.432 13.454 2.892 14.75z" data-name="Baraolt" class="oras" id="63447"/>
    <path d="M681.134 103.749l-20.966 32.442 3.547 57.666-12.386 17.837-11.825 25.83 3.604 5.892-27.122 17.294-10.16 3.826 3.99-13.372-8.45-10.78 10.193.584-.342-21.502 16.686-32.317-2.471-42.117 4.162-17.481 13.386-16.261-1.914-15.352 14.328-2.701 25.74 10.512z" data-name="Mereni" class="comuna" id="65105"/>
    <path d="M704.076 98.606l-7.616 7.127-15.326-1.984-25.74-10.512-14.328 2.701 1.914 15.352-13.386 16.26-4.162 17.483 2.471 42.116-16.686 32.317.342 21.502-10.192-.584-4.058-29.24-23.733-14.58 6.105-42.827 8.6-14.854 1.98-18.1 25.796-6.337 3.787-22.886-4.937-14.782 25.394-4.98 7.172-6.206-3.506-24.732 4.984-10.898 17.112.494 32.29 16.173 10.767 18.082 3.017 16.466-8.061 17.428z" data-name="Estelnic" class="comuna" id="65154"/>
    <path d="M586.147 687.066l2.976 17.661 38.932 25.934-3.39 18.5-27.095 16.254-.633 14.736-13.056 31.514-16.408-18.888-20.327 41.52-18.66 23.756-3.873 14.321.584-21.81 8.04-17.034-7.934-7.887-4.558-19.77-14.558-4.099-15.13-21.998 9.968-10.78-11.311-13.522-31.652-2.271 5.576-19.441.608-9.211 18.167-18.958 18.643-4.095 17.678-19.005 17.27 12.594 31.52 15.869 12.46-7.63 6.163-16.26z" data-name="Sita Buzăului" class="comuna" id="63688"/>
    <path d="M407.541 611.311l12.059 1.56 7.55 49.231-3.464 14.38-27.465-5.914-19.748-18.434-44.46-.018-3.329-14.463-17.626-1.193-5.24-10.054 5.51-17.685 18.168 3.737 10.476-6.14 16.556 1.492 25.117-7.554 10.119 10.657 15.777.398z" data-name="Dobîrlău" class="comuna" id="64265"/>
  </g>
</svg>
