<svg xmlns="http://www.w3.org/2000/svg" version="1.2" baseProfile="tiny" stroke-linecap="round" stroke-linejoin="round" viewBox="0 0 800 859">
  <g id="CV" fill="none" stroke="#aaa">
    <path d="M473.952 629.264l2.406 13.286-3.474 19.8 3.36 10.398 23.214.83-4.498 7.492 6.096 20.428-18.643 4.095-5.192 9.27-12.975 9.688-.608 9.211-15.437-10.717-30.266-.046.056-12.639 5.508-11.146.187-22.731 3.463-14.38-6.367-7.184 1.978-14.36-3.16-27.687.835-1.732 7.43-4.34 29.246 13.529 14.24-.015 2.601 8.95z" id="63580"/>
    <path d="M586.147 687.066l-7.27 4.378 1.108 11.882-12.46 7.63-15.995-7.153-12.437 9.277-3.088-17.993-6.925-9.796-10.346-2.798-8.688 13.941-8.99 5.064-6.096-20.428 4.498-7.493-23.215-.83-3.36-10.397 3.475-19.8-2.406-13.286 14.131 5.326-3.906-15.893 3.886-16.44 12.83 5.129 7.894 10.41 11.576.494 9.313-8.358 13.835 9.02 7.52 21.529 8.146 3.546 7.812 24.54 21.404 10.482-2.246 8.017z" id="63633"/>
    <path d="M742.813 623.963l-17.48 31.1-33.267-7.734-8.514-32.087-15.073-8.934-7.637-16.114 8.3-16.111 28.863 10.93 2.908 9.49 34.395 16.26 7.505 13.2z" id="63553"/>
    <path d="M491.853 460.879l-2.5 8.474-19.872 10.373-8.905 15.206 21.42 2.287-1.898 24.138-8.193 12.076 13.311 13.186.185 13.762 5.647 13.404-3.858 8.743.873 19.728-18.658 2.114-8.349-14.613-8.283-5.21-22.635 15.702-11.11 2.524 3.999-8.901-1.966-25.365 8.795-3.444 2.753-10.947-6.337-12.186 2.225-19.14 11.08-12.158-1.305-26.469-3.951-9.038-2.781-3.747 13.902-18.98 24.336-8.068 22.075 16.549z" id="63937"/>
    <path d="M303.463 551.608l5.176 11.579-6.247 20.1.865 9.037 17.008-7.856-.764 11.452 9.995 16.538-4.577 6.108-13.591-9.845-36.64-6.558 1.37-12.69-26.547 5.275 20.882-14.313 6.661-30.857 26.409 2.03z" id="64238"/>
    <path d="M480.098 521.357l4.25 9.086 31.148-.22 11.586-5.268 13.904 3.076 17.307 11.462 11.81-3.673 6.7 7.173 14.78-2.204 34.334 1.338 13.451 23.616 12.64 6.631 17.134 1.709-8.3 16.11 7.637 16.115 15.073 8.934 8.514 32.087 33.266 7.733-10.695 21.12 2.05 8.606-7.798 31.872 4.98 13.021-2.9 15.072-6.73 4.64-5.755 16.444-9.814 3.633-12.113 19.312-24.236-15.481-4.983-23.72-22.674-.42 3.391-18.5-26.254-17.848-10.619 4.816-2.059-12.902 7.965-2.73-2.89-12.06-8.051-2.87 2.246-8.018-21.404-10.483-7.812-24.539-8.145-3.547-7.521-21.528-13.834-9.02-9.314 8.358-11.576-.493-7.893-10.411-12.831-5.13-.873-19.728 3.858-8.743-5.647-13.404-.185-13.762-13.311-13.186 8.193-12.076z" id="65011"/>
    <path d="M407.541 611.311l-15.777-.398-10.119-10.657-13.298.152-11.82 7.402-16.555-1.491-10.476 6.14-9.995-16.54.764-11.45-17.008 7.855-.865-9.038 6.247-20.1-5.176-11.578-7.688-23.396 8.696-5.97-1.702-10.275 21.366-5.178.25-14.795 5.821-12.38 17.113 3.26-1.957 7.259 14.088 15.096 19.474 26.208 8.143.97 8.72 11.198 2.274 11.833-2.171 20.714 9.209 9.8 2.442 25.359z" id="64639"/>
    <path d="M368.916 473.968l17.558.982 31.082 22.286 3.107-14.258 13.658-7.853 3.951 9.038 1.305 26.469-11.08 12.159-2.225 19.14 6.337 12.185-2.753 10.947-8.795 3.444 1.966 25.365-3.999 8.9 1.407 8.368-.835 1.732-12.059-1.561-2.442-25.36-9.21-9.8 2.172-20.712-2.274-11.834-8.72-11.199-8.143-.969-19.474-26.208-14.088-15.096 1.957-7.258-17.113-3.262.103-7.563 19.25.945.302 5.762 17.446 2.273 1.609-7.062z" id="64773"/>
    <path d="M489.352 469.353L509.735 468l11.058 11.469 4.778 11.892 15.8.743 7.71 23.128-8.095 12.8-13.904-3.077-11.586 5.268-31.147.22-4.25-9.086 1.897-24.138-21.42-2.287 8.905-15.206 19.871-10.373z" id="64005"/>
    <path d="M746.446 518.234l13.853 21.509-6.334 22.367 5.194 18.246-6.625 19.71 3.328 15.515-13.05 8.382-7.504-13.2-34.395-16.26-2.908-9.49-28.863-10.93-17.134-1.709-12.64-6.631-13.451-23.616-34.334-1.338-14.78 2.204-6.7-7.173-11.81 3.673-17.307-11.462 8.094-12.8-7.708-23.127-15.801-.743-4.778-11.892 15.196-.818 11.736-9.088 12.72-4.093 26.876 8.619 10.414-3.483 15.162 2.574 12.471-4.151 13.604.915 20.489 13.248 6.41 8.4-9.839 23.619 14.775-1.974 19.076 2.408 5.738 7.997 14.743-20.828 36.082 15.42z" id="63526"/>
    <path d="M488.063 602.256l-3.886 16.441 3.906 15.893-14.131-5.326-2.601-8.95-14.24.015-29.246-13.529-7.43 4.34-1.407-8.367 11.11-2.524 22.635-15.702 8.283 5.21 8.35 14.613 18.657-2.114z" id="65099"/>
    <path d="M217.879 494.917l-6.708-1.888-5.788 28.418 1.313 22.52-5.95 4.107 1.038 23.077 4.095 8.41-4.412 14.59-15.497 15.418-1.477-22.984-12.94-25.64-18.718-22.03-10.058 1.858-.934-18.586 12.774-6.394-2.934-18.268 9.182-13.406 10.373-5.554 9.723-37.167 1.273-.82 6.303-.419 16.912 31.167-2.51 11.603 14.94 11.988z" id="64942"/>
    <path d="M180.961 441.398l-9.723 37.167-10.373 5.554-9.182 13.406 2.934 18.268-12.774 6.394-9.747-5.334-9.563 2.802-18.574-4.892-12.428-21.067 1.99-13.923-5.243-17.523 11.172-.933 12.752 5.733 18.06-17.532 24.763-9.381-1.15-6.625 27.086 7.886z" id="64390"/>
    <path d="M293.596 455.106l13.242 1.54-.16 14.228 23.631 1.176-.103 7.563-5.822 12.38-.249 14.796-21.366 5.178 1.702 10.275-8.696 5.97 7.688 23.396-26.409-2.03-.028-29.369-15.025-14.597-13.705-.443-13.98-10.758-16.437.506-14.94-11.988 2.51-11.603-16.912-31.167-6.303.419 21.179-9.915 15.617 10.768 22.64 9.793 18.657 1.723 3.893-6.561 14.494 8.364 14.882.356z" id="63394"/>
    <path d="M445.442 452.398l-13.902 18.98 2.78 3.747-13.657 7.853-3.107 14.258-31.082-22.286-17.558-.982-2.849-23.746 7.563-21.173 16.418 3.392-.269-21.378 9.262-2.166 9.176 23.682 16.436 4.237 20.789 15.582z" id="64568"/>
    <path d="M586.369 401.292l7.75 6.629 21.963 5.802 12.598-3.43 16.407 5.517 5.499 15.282 11.396 11.752 16.79 30.955 18.918 5.778 8.77-9.014 17.58-2.345 4.318 5.33 18.927-.504-4.446 19.392 5.002 7.113-1.395 18.685-36.082-15.42-14.743 20.828-5.738-7.997-19.076-2.408-14.775 1.974 9.84-23.62-6.411-8.399-20.49-13.248-13.603-.915-12.47 4.15-15.163-2.573-10.414 3.483-26.875-8.619-12.72 4.093-11.737 9.088-15.196.818L509.735 468l-20.383 1.353 2.5-8.474 13.852-12.777 12.185-22.177 8.403-1.227 2.985-17.492 18.926-18.926 23.078 3.54 1.993 9.431 13.095.04z" id="65048"/>
    <path d="M298.517 433.585l8.495 8.77-13.416 12.751-14.882-.356-14.494-8.364-3.894 6.56-18.656-1.722-22.64-9.793-15.617-10.768-21.179 9.915 8.5-17.542-.547-9.233 11.899-24.15 9.412-4.86.75-.922 27.266 21.618 1.06 6.613 24.121 11.696 33.822 9.787z" id="65113"/>
    <path d="M211.498 384.793l-9.412 4.86-11.899 24.15.547 9.233-8.5 17.542-1.273.82-27.085-7.886-27.387 11.41-27.901-6.625-17.71 5.528-.173-16.38 8.101-12.19-15.013-25.062 1.25-16.289 6.82-4.882 17.67 10.483 9.743-9.272 18.244-3.086 21.678 12.994 23.892-11.037 13.236 4.494 19.12 12.59 6.052-1.395z" id="63866"/>
    <path d="M753.938 379.98l6.105 23.113-6.943 2.472-7.754 13.467 1.403 20.292 9.147 18.083-8.61 15.637-18.928.503-4.317-5.329-17.581 2.345-8.77 9.014-18.919-5.778-16.789-30.955-11.396-11.752-5.5-15.281-16.406-5.519-12.598 3.431-21.962-5.802-7.751-6.63 6.844-26.374-1.326-7.728-13.442-8.589 11.037-11.705 7.198-11.52 12.368-3.08 9.154 18.244 17.538 9.5 13.257-.271 9.99 16.902 20.103 16.198 12.615.43 17.047 8.546 19.99-5.157 11.043-10.53 14.153-6.176z" id="64318"/>
    <path d="M385.05 331.916l3.433 11.713-17.684 21.018 10.119 18.367.234 15.522 8.627 12.527.269 21.378-16.418-3.392-7.563 21.173 2.849 23.746-1.61 7.062-17.445-2.273-.301-5.762-19.25-.945-23.631-1.176.16-14.229-13.243-1.539 13.416-12.75-8.495-8.771-.51-11.574 11.468-27.12 11.484-8.06 7.117 11.248 28.558-13.12 8.024-9.647-9.63-16.99 6.952-21.689 13.41-4.19 9.66-.527z" id="64345"/>
    <path d="M589.482 346.895L578.445 358.6l13.442 8.589 1.326 7.728-6.844 26.375-13.095-.04-1.993-9.432-23.078-3.54-18.926 18.926-2.985 17.492-8.403 1.227-12.185 22.177-4.615-10.969-10.136-.757-13.5-10.436 4.03-11.765-1.078-12.674 7.54-16.16 12.667 1.413 22.275-12.146 5.6-20.912 12.187-18.982 13.184-3.955 10.769 10.65 9.466-8.116 15.39 13.602z" id="64130"/>
    <path d="M481.483 414.175l-4.03 11.765 13.5 10.436 10.136.757 4.615 10.97-13.851 12.776-22.075-16.549-24.336 8.068-20.79-15.582-16.435-4.237-9.176-23.683-9.262 2.167-8.627-12.526-.234-15.523-10.119-18.367 17.684-21.018-3.433-11.713 8.224 2.245 3.445 14.61-1.514 16.686 23.734 4.625 8.82 16.472 7.111 1.989 7.996 13.333 11.694 6.446 26.923 5.853z" id="65147"/>
    <path d="M241.198 323.552l10.306 15.341 9.444 4.388.305 9.622 9.773 9.82-.758 11.912 7.737 8.486 26.407 12.92 5.063-1.15-11.469 27.12.51 11.574-33.821-9.787-24.122-11.696-1.06-6.613-27.265-21.618-6.134-11.545 6.725-17.95-2.52-5.037 10.846-16.009 2.522-10.957 17.511 1.18z" id="64906"/>
    <path d="M169.395 303.486l4.3 11.901 15.008 1.93 9.942 13.808 22.52 2.205-10.847 16.009 2.521 5.036-6.725 17.951 6.134 11.545-.75.922-6.052 1.395-19.12-12.59-13.236-4.494-23.892 11.037-21.678-12.994-18.244 3.087-9.743 9.271-17.67-10.483-6.82 4.882-2.79-12.964 1.823-22.035 13.189-15.722 9.4 8.692 13.536-7.548 5.393 5.846 13.267-1.51 10.498 5.868 6.45-5.286 3.832-20.505 19.754-5.254z" id="63777"/>
    <path d="M790.612 303.653l2.9 19.794-15.092 15.37-16.901 12.913-6.244 12.426-1.337 15.825-14.153 6.176-11.043 10.53-19.99 5.157-17.047-8.546-12.615-.43-20.104-16.198-9.989-16.902-13.257.271-17.538-9.5-9.154-18.244-12.368 3.08 3.657-7.832 17.288-14.62 9.426-14.7 14.787-8.635 14.355 7.324 18.637 18.718 12.652-10.85 14.007-2.369 27.763 9.71 15.181 16.85 6.39-.692 8.414-29.94 31.375 5.314z" id="64602"/>
    <path d="M369.1 323.201l6.29 9.242-13.41 4.19-6.953 21.688 9.631 16.991-8.024 9.647-28.558 13.12-7.117-11.247-11.484 8.059-5.063 1.15-26.407-12.92-7.737-8.486.758-11.911-9.773-9.82-.305-9.623-9.443-4.388-10.307-15.34 12.24-15.115L265 304.812l10.886-21.088 17.754 2.07 17.31 24.596 1.001 6.527 18.517 2.518 24.092 7.793 14.54-4.027z" id="63893"/>
    <path d="M513.625 332.815l14.861 20.881-5.6 20.912-22.274 12.146-12.668-1.413-7.54 16.16 1.08 12.674-26.924-5.853-11.694-6.446-7.996-13.333-7.111-1.989-8.82-16.472-23.734-4.625 1.514-16.686-3.445-14.61-8.224-2.245-9.66.527-6.29-9.242-3.791-26.07 8.46-3.112-1.834-13.555 5.627-7.923 50.198 10.256 15.825 13.106 3.836 9.24 56.262 18.482 9.942 9.19z" id="64194"/>
    <path d="M652.798 278.789l-10.96 10.799-14.787 8.635-9.426 14.7-17.288 14.62-3.657 7.831-7.198 11.521-15.39-13.602-9.465 8.116-10.769-10.65-13.184 3.955-12.188 18.982-14.861-20.881 17.842-32.087 3.642-10.187 18.413.12 2.072 9.673 10.706-2.238 15.87 8.264 7.151-6.896-7.095-9.917 13.768-12.809 1.568-10.687 8.263-1.515 10.16-3.826 18.711 12.96 18.102 5.119z" id="63740"/>
    <path d="M295.801 255.206l5.612 2.271 3.777 20.96 25.853 10.114 15.827 1.37 18.388-3.764 8.511 7.862-8.46 3.113 3.79 26.07-14.539 4.026-24.091-7.793-18.518-2.518-1.001-6.527-17.31-24.595-17.754-2.07L265 304.811l-11.562 3.626-12.24 15.114-17.511-1.179 12.45-34.092 30.406-.905.584-10.124-11.143-12.36 39.817-9.686z" id="64504"/>
    <path d="M379.605 240.458l-2.043 32.083-5.627 7.923 1.834 13.555-8.511-7.862-18.388 3.763-15.827-1.37-25.853-10.113-3.777-20.96-5.612-2.27 9.418-19.917 9.002-.165 13.383-10.692 4.143 4.562 47.858 11.463z" id="65139"/>
    <path d="M790.612 303.653l-31.375-5.313-8.413 29.94-6.39.69-15.182-16.848-27.763-9.71-14.007 2.368-12.652 10.85-18.637-18.718-14.355-7.324 10.96-10.799 14.55-22.818 33.07-18.917 3.133-12.77 11.117-21.569 19.531-2.963 7.662-10.58 13.697 6.375 11.396-3.287 1.087 14.42 15.528 17.585-1.8 10.018 10.498 15.222 2.623 34.588 4.11 7.77-8.388 11.79z" id="64096"/>
    <path d="M468.517 150.217l5.178 1.675 8.137 21.475-1.867 10.092 11.084 30.328-.205 17.075 7.712 17.186 8.032 1.603 12.268 15.017.731 16.394 15.522 9.48-3.642 10.186-17.842 32.087-9.942-9.19-56.262-18.482-3.837-9.24-15.824-13.106-50.198-10.256 2.043-32.083 2.122-15.05 7.199-4.44-.251-18.056 6.482-26.613-3.326-5.024 34.446-8.862 29.593 6.577 12.647-18.773z" id="64871"/>
    <path d="M391.831 171.275l3.326 5.024-6.482 26.613.25 18.055-7.198 4.441-2.122 15.05-47.858-11.463-4.143-4.562-13.383 10.692-9.002.165 4.696-6.79-11.829-8.921-4.988-20.053-17.005-27.615 11.93-19.772 9.348-9.995 11.903 11.691 8.589 21.047 8.173 5.27 16.393-5.165 20.491 1.959 15.687-10.29 13.224 4.619z" id="65121"/>
    <path d="M510.796 135.237l4.882 13.172 20.65 4.21 19.242-2.859 11.165 14.563-4.34 23.827-12.607-1.901-5.409 5.884 5.96 25.899 6.855 9.2-4.425 9.301 14.153 17.236 9.91 20.448 20.73-8.166-1.568 10.687-13.768 12.809 7.095 9.917-7.152 6.896-15.869-8.264-10.706 2.238-2.072-9.673-18.413-.12-15.522-9.479-.731-16.394-12.268-15.017-8.032-1.603-7.712-17.186.204-17.075-11.083-30.328 1.867-10.092-8.137-21.475-5.178-1.675 1.976-8.082 19.216-11.188 21.087 4.29z" id="64826"/>
    <path d="M741.861 189.171l-7.662 10.58-19.53 2.964-11.118 21.569-3.133 12.77-33.07 18.917-14.55 22.818-18.102-5.12-18.71-12.959 27.122-17.294-3.604-5.892 11.825-25.83-.234-8.52 12.62-9.317-3.547-57.666 10.509-20.962 10.457-11.48 15.326 1.984 7.616-7.127 2.906 12.33 10.727 15.522-3.095 27.53 25.587-9.762 8.713.678.08 18.823-14.373 12.445 7.24 13z" id="64461"/>
    <path d="M601.367 240.384l8.45 10.78-3.992 13.372-8.263 1.515-20.73 8.166-9.91-20.448-14.153-17.236 4.425-9.301-6.854-9.2-5.96-25.9 5.408-5.883 12.607 1.901 4.34-23.827-11.165-14.563-19.242 2.86-20.65-4.21-4.882-13.173 6.056-9.884 16.866 3.835 4.067-8.403 12.348-2.867 21.302 11.842 9.056-7 .358-14.993 8.265-5.393 15.623 5.734 10.17-31.33 4.937 14.781-3.787 22.887-15.565-3.251 3.252 13.582-13.482-3.995-1.98 18.101-8.601 14.854-2.093 28.721-4.012 14.107 23.732 14.58 4.059 29.239z" id="64719"/>
    <path d="M99.19 74.855L88.342 90.95l3.938 6.896 4.427 25.844-10.024 29.051 16.53 14.238-.609 33.71-9.937 8.707-11.13-4.588-11.274 3.406-31.61-4.99-29.223 3.44-8.102-4.073 11.968-3.972 9.345-21.05 1.54-25.98 12.985-1.51 9.173-15.452 1.537-20.18-3.749-7.514 43.65-36.79 11.413 4.71z" id="64997"/>
    <path d="M297.371 142.144l-9.348 9.995-11.93 19.772 17.005 27.615 4.988 20.053 11.829 8.921-4.696 6.79-9.418 19.916-39.817 9.686 11.143 12.36-.584 10.124-30.407.905-12.449 34.092-2.522 10.957-22.52-2.205-9.942-13.808-15.007-1.93-4.301-11.901-12.113-5.611 9.22-9.14-11.431-13.453 9.748-11.118 27.112-10.803-1.849-9.52-10.74-18.873 4.64-15.83-6.584-9.956 8.519-10.624-4.31-20.687 4.656-15.369-10.004-16.739 4.717-13.754 11.136-10.793 3.996-26.584 52.15-17.201 23.696 29.474-1.482 14.64 12.322 7.874 1.237 9.25 13.34 13.475z" id="63802"/>
    <path d="M248.257 67.43l-52.149 17.202-3.996 26.584-11.136 10.793-4.717 13.754 10.004 16.74-4.657 15.368-20.41 8.895-5.032 18.664-5.742.815-13.216 16.525-11.988 1.529-9.03 9.066-20.663-2.792-2.858-11.176 9.937-8.707.61-33.71-16.531-14.238 10.023-29.051-4.426-25.844-3.938-6.896L99.19 74.855l13.907-23.825 30.573-12.677 33.905-20.906 5.645-11.18L197.61 1l21.76 1.838 6.586 12.484-7.877 7.937 30.178 44.172z" id="64041"/>
    <path d="M217.879 494.917l16.437-.506 13.98 10.758 13.705.443 15.025 14.597.028 29.369-6.661 30.857-20.882 14.313-10.695-11.207-27.233.35-5.704-4.33-4.095-8.41-1.038-23.077 5.95-4.106-1.313-22.52 5.788-28.42 6.708 1.89z" id="64425"/>
    <path d="M169.395 303.486l-19.754 5.254-3.833 20.505-6.45 5.286-10.497-5.869-13.267 1.51-5.393-5.845-13.536 7.548-9.4-8.692 8.717-6.293 10.61-21.654-17.739-16.816-7.579-18.812-12.015 5.42-10.198-1.631-14.718 4.751-18.19-16.63L1 236.105l.327-33.512 8.103 4.073 29.222-3.44 31.61 4.99 11.275-3.406 11.13 4.588 2.858 11.177 20.663 2.79 9.03-9.065 11.988-1.53 13.216-16.524 5.742-.815 5.031-18.664 20.411-8.895 4.31 20.687-8.518 10.624 6.584 9.956-4.64 15.83 10.74 18.872 1.849 9.521-27.112 10.803-9.748 11.118 11.432 13.454-9.221 9.139 12.113 5.61z" id="63447"/>
    <path d="M681.134 103.749l-10.457 11.48-10.509 20.962 3.547 57.666-12.62 9.317.234 8.52-11.825 25.83 3.604 5.892-27.122 17.294-10.16 3.826 3.99-13.372-8.45-10.78 10.193.584-.342-21.502 16.686-32.317-3.21-14.668.739-27.448 4.162-17.482 13.386-16.261-1.914-15.352 14.328-2.701 25.74 10.512z" id="65105"/>
    <path d="M704.076 98.606l-7.616 7.127-15.326-1.984-25.74-10.512-14.328 2.701 1.914 15.352-13.386 16.26-4.162 17.483-.738 27.448 3.21 14.668-16.687 32.317.342 21.502-10.192-.584-4.058-29.24-23.733-14.58 4.012-14.106 2.093-28.721 8.6-14.854 1.98-18.1 13.483 3.994-3.252-13.582 15.565 3.251 3.787-22.886-4.937-14.782 25.394-4.98 7.172-6.206-3.506-24.732 5.294-11.099 16.802.695 20.06 7.419 12.918 9.254 10.08 17.582 3.016 16.466-8.061 17.428z" id="65154"/>
    <path d="M586.147 687.066l8.05 2.871 2.891 12.06-7.965 2.73 2.06 12.902 10.618-4.816 26.254 17.848-3.39 18.5-27.095 16.254-.633 14.736-13.056 31.514-16.408-18.888-3.935 12.29-11.313 14.416-5.08 14.814-18.66 23.756-3.288-7.488 8.04-17.035-7.934-7.887-4.558-19.77-14.558-4.099-3.105-9.14-12.025-12.858 9.968-10.78-11.311-13.522-22.974 1.507-8.678-3.778 5.576-19.441.608-9.211 12.975-9.687 5.192-9.27 18.643-4.096 8.99-5.064 8.688-13.94 10.346 2.797 6.925 9.796 3.088 17.993 12.438-9.277 15.993 7.153 12.46-7.63-1.107-11.882 7.27-4.378z" id="63688"/>
    <path d="M407.541 611.311l12.059 1.56 3.16 27.688-1.978 14.36 6.367 7.183-3.463 14.38-27.465-5.914-19.748-18.434-44.46-.018-3.329-14.463-26.478-3.796 3.964-19.816 5.157-5.32 13.592 9.845 4.577-6.108 10.476-6.14 16.556 1.492 11.82-7.402 13.297-.152 10.119 10.657 15.777.398z" id="64265"/>
  </g>
</svg>
