<svg xmlns="http://www.w3.org/2000/svg" version="1.2" baseProfile="tiny" stroke-linecap="round" stroke-linejoin="round" viewBox="0 0 800 1339">
  <g id="DB" fill="none" stroke="#aaa">
    <path d="M243.853 1200.548l-17.772 18.113-5.835 14.532 3.469 15.536-9.95 19.172-13.512-6.732-17.173 30.688-23.481 13.735 4.445 8.935-22.684 10.43-25.42 13.397-13.811-24.787 21.624-22.011 19.804-4.177-9.212-23.508 9.397-15.694-13.421-41.577-7.198-5.974 20.268-21.049 17.559 6.8 34.947-18.22 47.956 32.39z" data-name="Șelaru" class="comuna" id="68887"/>
    <path d="M518.633 1092.436l22.984 25.606 4.518 18.273-7.887 19.768-23.998 27.845-33.02-26.874.37-12.306 8.342-16.716-7.878-15.298 14.18-9.44 8.067 9.066 14.322-19.924z" data-name="Poiana" class="comuna" id="68431"/>
    <path d="M588.45 1090.942l-15.665 11.333-13.66-3.908-17.508 19.675-22.984-25.606 15.8-25.299 25.75 7.837 11.385-10.81 16.883 26.778z" data-name="Slobozia Moară" class="comuna" id="105142"/>
    <path d="M478.927 1105.668l3.137 7.066 7.878 15.298-8.343 16.716-27.829 4.7-14.095 27.354-10.837 4.682-8.12-11.319-25.705 2.415-4.568-9.066-14.194-19.626 44.032-24.508-18.587-31.207 23.202-24.243 7.047-4.42 46.982 46.158z" data-name="Potlogi" class="comuna" id="68468"/>
    <path d="M236.338 1045.18l9.838 11.883L228.7 1106.3l9.669 15.438-7.428 48.536 20.19 11.878-1.4 9.762-5.877 8.633-47.956-32.39-34.947 18.218-17.559-6.799 11.59-30.223 18.615-31.442.798-34.265 38.05-43.73 13.543 12.744 10.35-7.48z" data-name="Vișina" class="comuna" id="69330"/>
    <path d="M424.898 1063.93l-23.202 24.243 18.587 31.207-44.032 24.508-13.148-31.321-17.4-17.64-9.293-19.671 1.867-6.195 17.929 2.981 14.126-19.119 24.188-21.858 36.852 22.536-6.474 10.33z" data-name="Odobești" class="comuna" id="68342"/>
    <path d="M497.713 1020.163l30.96 46.374 5.76.6-15.8 25.3-14.322 19.923-8.068-9.066-14.179 9.44-3.137-7.066 2.731-20.595-41.786-36.329 25.58-37.898 19.468.429 12.793 8.888z" data-name="Lungulețu" class="comuna" id="67906"/>
    <path d="M693.024 1022.232l4.834 29.52 7.974 16.628-13.482 13.35 20.859 13.75-19.868 22.364-.443 9.45-33.575-26.919 3.164-6.808-34.069-29.38-5.704-18.352-12.592-12.315 8.063-10.911 28.126 4.067 12.72-16.108 14.282-5.708 19.71 17.372z" data-name="Ciocănești" class="comuna" id="101840"/>
    <path d="M352.328 991.986l12.708 28.055-6.324 7.485 11.62 25.397-14.126 19.12-17.93-2.982-26.321-16.55-10.71-14.664 22.173-39.182 28.91-6.679z" data-name="Costeștii din Vale" class="comuna" id="67121"/>
    <path d="M132.241 1059.871l-12.898-2.327-26.429 22.642-13.196-13.75-16.324-5.328 3.322-19.578-26.573-34.144 18.02-11.22 7.952 5.543 37.312-37.008 34.945 32.306 14.476 33.5-9.891 26.545-10.716 2.82z" data-name="Morteni" class="comuna" id="68253"/>
    <path d="M251.781 947.364l-2.356 15.392 32.698 11.193-10.875 19.055-.892 20.27 9.974 19.083-30.089-2.436-14.16-10.3-5.936-19.488-17.138-.719-15.183-12.472-.493-19.848 12.3-15.778 25.872 6.714 16.278-10.666z" data-name="Mogoșani" class="comuna" id="68128"/>
    <path d="M132.262 944.682l28.476 13.292 20.703-2.205 15.89 11.325.493 19.848 15.183 12.472 17.138.72 5.937 19.487 14.159 10.3-13.903 15.26-10.35 7.48-13.545-12.744-38.05 43.73-13.513-3.673-28.639-20.103 10.716-2.819 9.891-26.545-14.476-33.5-34.945-32.306-2.21-1.227 12.511-19.586 18.534.794z" data-name="Petrești" class="comuna" id="65752"/>
    <path d="M555.871 944.32l-6.784 18.732 1.521 16.928-14.07 14.29 6.503 23.263-16.645 5.713-28.683-3.083-12.793-8.888-19.467-.429-25.521-4.063-5.514-10.02 28.987-22.374-16.232-15.168 5.756-15.725 20.451 12.616 32.457-7.08 20.238 11.423 17.974-16.67 11.822.535z" data-name="Conțești" class="comuna" id="66768"/>
    <path d="M580.681 929.322l6.265 13.037 17.744 14.04 19.794-10.29 15.332 12.547-19.08 15.822 30.4 23.632 7.894 12.458-12.719 16.108-28.126-4.067-8.063 10.911-38.554 30.644-11.385 10.81-25.75-7.837-5.76-.6-30.96-46.374 28.683 3.083 16.645-5.713-6.503-23.263 14.07-14.29-1.52-16.928 6.783-18.732 24.81-14.998z" data-name="Răcari" class="oras" id="68627"/>
    <path d="M743.56 959.932l-20.442 59.788-30.095 2.512-19.71-17.372-14.283 5.708-7.894-12.458-30.4-23.632 19.08-15.822 15.978-5.308 8.22 10.648 34.507-14.452.395-7.996 21.754-2.86 2.455-14.164 14.011 17.282 6.425 18.126z" data-name="Butimanu" class="comuna" id="101564"/>
    <path d="M386.418 962.081l-11.165 5.68-16.161 7.626-6.764 16.6-28.91 6.678-17.089-15.103 33.86-22.81-22.385-26.04 36.227-17 29.819-10.114 2.568 54.483z" data-name="Produlești" class="comuna" id="68529"/>
    <path d="M698.916 941.548l-.395 7.996-34.507 14.452-8.22-10.648-15.978 5.308-15.332-12.547-19.794 10.29 27.607-33.602 30.974-21.44 10.42-5.87 9.58 16.57 14.182-.463 1.463 29.953z" data-name="Cojasca" class="comuna" id="66697"/>
    <path d="M188.41 894.432l5.858 10.231 7.227 8.54-.536 25.463 8.671 12.65-12.298 15.778-15.89-11.325-20.704 2.205-28.476-13.292 2.855-14.604 13.101.826 29.008-30.109 11.184-6.363z" data-name="Găești" class="oras" id="65681"/>
    <path d="M312.066 920.259l5.738 14.453 22.384 26.04-33.859 22.81 17.09 15.103-22.174 39.182 10.71 14.664-11.62 3.08-19.11-9.938-.895-13.296-9.974-19.082.892-20.27 10.875-19.056-32.698-11.193 2.356-15.392 19.441-24.065-7.795-18.827 13.68-9.34 12.871-9.763 22.088 34.89z" data-name="Mătăsaru" class="comuna" id="68048"/>
    <path d="M558.278 900.472l11.236 10.017 11.209-7.04 8.584 15.026-8.626 10.847-24.81 14.998-11.822-.535-17.974 16.67-20.238-11.423-32.457 7.08-20.451-12.616-11.598-34.051 2.506-22.16 20.292-7.36 21.062-.457-.852-11.742 15.346-1.248 16.178 15.615 34.749-8.86 7.666 27.239z" data-name="Cornățelu" class="comuna" id="66955"/>
    <path d="M628.676 865.217l19.084 16.172 15.51 19.969-30.972 21.439-27.608 33.602-17.744-14.04-6.265-13.037 8.625-10.847-8.583-15.026-11.21 7.04-11.235-10.017 18.731-12.134 36.227-21.153 15.44-1.968z" data-name="Bilciurești" class="comuna" id="66401"/>
    <path d="M370.41 851.327l21.218 31.615-40.464 22.1-39.098 15.217-22.088-34.89-12.87 9.763-3.25-16.87 15.074-20.585 15.871-9.624 7.016-.414 18.077 17.303 40.514-13.615z" data-name="Gura Șuții" class="comuna" id="67648"/>
    <path d="M464.129 879.925l-20.292 7.36-2.506 22.16 11.598 34.051-5.756 15.725-17.464 6.567-30.669-9.796-12.622 6.09-2.568-54.484-29.819 10.114-36.227 17-5.738-14.453 39.098-15.217 40.464-22.1 12.668-4.553 9.476-23.452 9.034-4.506 2.252 7.104 29.174-9.427 9.897 31.817z" data-name="Sălcioara" class="comuna" id="68789"/>
    <path d="M188.41 894.432l-11.184 6.363-29.008 30.11-13.1-.827-14.843-15.037 9.549-7.602 20.162-31.628 10.623-42.112 8.383-9.689 16.116 8.31-8.063 27.072-10.92 11.84 30.895 8.056-8.61 15.144z" data-name="Gura Foii" class="comuna" id="65707"/>
    <path d="M361.046 818.035l-13.936 5.813 7.847 17.006 15.453 10.473-40.514 13.615-18.077-17.303 9.902-7.12-7.847-21.224 20.93-17.263 13.584-4.448 12.658 20.45z" data-name="Perșinari" class="comuna" id="179935"/>
    <path d="M148.78 807.834l-19.657 24.727.11 13.778-16.621 23.683-7.666-2.638-13.66 42.4-21.818-4.392 9.685-31.508-3.41-26.096-16.77-57.377 31.223 20.328 52.065 3.069 6.519-5.974z" data-name="Valea Mare" class="comuna" id="69170"/>
    <path d="M168.992 824.01l-8.383 9.69-10.623 42.11-20.162 31.63-9.55 7.601 14.843 15.037-2.855 14.604-18.534-.794-12.512 19.586-46.268-25.8-9.282-19.188 10.514-17.763 13.288 4.67 21.817 4.39 13.66-42.399 7.667 2.638 16.62-23.683-.109-13.778 19.657-24.727 8.368-22 11.844 38.176z" data-name="Crîngurile" class="comuna" id="67167"/>
    <path d="M723.125 924.524l-2.455 14.164-21.754 2.86-1.464-29.954-14.18.463-9.582-16.57-10.42 5.87-15.51-19.968-19.084-16.172 21.981-24.263 15.566-7.424-8.233-21.142 1.035-7.8 24.216-21.018 14.16 28.468 14.77 11.815 22.783 48.085 15.093 12.367-16.122 13.854-10.8 26.365z" data-name="Cornești" class="comuna" id="67014"/>
    <path d="M427.721 783.697l7.26 23.95-23.466 6.48 11.291 36.304-9.034 4.506-9.476 23.452-12.668 4.553-21.218-31.615-15.453-10.473-7.847-17.006 13.936-5.813 31.321-20.488 3.031-13.378 9.302 4.936 23.021-5.408z" data-name="Nucet" class="comuna" id="68280"/>
    <path d="M595.854 777.482l3.023 16.575 59.113 18.33 8.233 21.143-15.566 7.424-21.981 24.263-15.44 1.968-36.227 21.153 1.718-24.11-28.136-30.019 28.273-63.605 16.99 6.878z" data-name="Finta" class="comuna" id="67470"/>
    <path d="M578.864 770.604L550.59 834.21l28.137 30.018-1.718 24.11-18.731 12.135-7.666-27.238-34.749 8.86-16.178-15.616-15.346 1.248-1.223-16.798 13.665-18.66 18.143-14.221 28.813-34.502 30.06-29.696 5.067 16.755z" data-name="Dobra" class="comuna" id="67292"/>
    <path d="M573.796 753.85l-30.059 29.695-28.813 34.502-18.143 14.222-13.665 18.66 1.223 16.797.852 11.742-21.062.457-9.897-31.817-29.174 9.427-2.252-7.104-11.291-36.304 23.466-6.48 13.963-4.318 31.447-32.41 12.63-4.446 11.531 10.134 43.452-39.174 5.473 9.301 20.32 7.115z" data-name="Băleni" class="comuna" id="66198"/>
    <path d="M375.274 734.994l13.117 19.986 7.007 29.19-3.03 13.377-31.322 20.488-12.658-20.45-13.584 4.447-19.082-17.285-14.972-34.23 9.311-13.291 17.275-9.931 26.564 20.71 21.374-13.011z" data-name="Văcărești" class="comuna" id="69250"/>
    <path d="M213.036 739.579l-20.807 22.325 16.072 27.897 7.301 22.114 8.59 10.624 6.894 45.854-20.688 1.45-16.13 34.82-5.858-10.231 8.61-15.144-30.894-8.056 10.919-11.84 8.063-27.072-16.116-8.31-11.844-38.177-.333-34.086 24.59-18.911 9.215-19.922 22.416 26.665z" data-name="Cobia" class="comuna" id="66580"/>
    <path d="M417.676 706.962l41.207 30.408-36.578 25.25 13.666 9.395-8.25 11.682-23.02 5.408-9.303-4.936-7.007-29.19-13.117-19.985-3.787-20.373 25.28-24.815 12.786 2.241 8.123 14.915z" data-name="Comișani" class="comuna" id="66731"/>
    <path d="M548.005 737.433l-43.452 39.173-11.531-10.133-12.63 4.446-31.448 32.41-13.963 4.318-7.26-23.95 8.25-11.682-13.666-9.394 36.577-25.251-41.206-30.408 11.269-11.365 20.012 7.667 28.453-22.818 17.145 22.873 24.224 11.276 6.891 10.135 22.335 12.703z" data-name="Bucșani" class="comuna" id="66474"/>
    <path d="M385.885 681.593l10.882 8.213-25.28 24.815 3.787 20.373-21.374 13.011-26.564-20.71-17.275 9.931-16.72-9.357-11.027 17.142-14.115-5.643-12.883-12.468 9.95-29.847 17.662 10.64 46.475-10.323 7.082-7.01 16.583 14.504L371.28 692.4l-3.414-17.979 18.02 7.172z" data-name="Ulmi" class="comuna" id="65501"/>
    <path d="M168.231 673.248l9.709 27.516 3.465 32.072-24.59 18.911.333 34.086-8.368 22.001-6.519 5.974-52.065-3.07-31.223-20.327 2.858-12.432 10.088-17.725-4.33-14.198 21.532 9.428 44.426-9.932-1.11-20.577 15.164-31.263-11.27-9.654 8.56-27.287 23.34 16.477z" data-name="Hulubești" class="comuna" id="67675"/>
    <path d="M214.825 651.854l9.372 25.376-4.885 9.509 9.962 14.528 11.175-9.447 24.818 5.233-9.951 29.847 12.883 12.468-20.857 14.25-23.797-27.004-10.51 12.965-22.415-26.665-9.215 19.922-3.465-32.072-9.709-27.516 38.212-26.525 8.382 5.131z" data-name="Dragomirești" class="comuna" id="67407"/>
    <path d="M314.663 638.137l-3.69 14.174 40.45 24.251 16.443-2.14 3.413 17.978-18.21 12.464-16.584-14.503-7.082 7.009-46.475 10.323-17.661-10.64-24.818-5.233-11.175 9.447-9.962-14.528 4.885-9.509-9.372-25.376 1.376-13.895 43.537 8.154 19.469-12.012 15.24 8.172 20.216-4.136z" data-name="Tîrgoviște" class="municipiu resedinta" id="65342"/>
    <path d="M512.73 629.158l2.604 2.238 20.224 12.612 23.515 43.708 17.796 17.968 5.447 18.044-8.52 30.121-20.319-7.115-5.472-9.301-22.335-12.703-6.891-10.135-24.224-11.276-17.145-22.873-2.019-14.152-19.694-21.685 6.467-31.098 50.566 15.647z" data-name="I. L. Caragiale" class="comuna" id="67737"/>
    <path d="M212.835 610.946l3.366 27.013-1.376 13.895-8.382-5.13-38.212 26.524-23.34-16.477-18.723-10.476-10.563 15.495-18.709-18.839 3.134-20.065 7.106-7.685 26.394-3.986 25.45-9.686 10.516 17.132 9.93-7.826 17.928 10.641 15.481-10.53z" data-name="Mănești" class="comuna" id="68002"/>
    <path d="M462.164 613.511l-6.467 31.098 19.694 21.685 2.019 14.152-28.453 22.818-20.012-7.667-11.269 11.365-8.123-14.915-12.786-2.24-10.882-8.214 9-36.815-15.837-36.94 10.575 5.05 26.776-5.778 15.253-12.264-11.372 17.094 18.816 14.981 23.068-13.41z" data-name="Gura Ocniței" class="comuna" id="67595"/>
    <path d="M349.348 570.502l12.026 31.384 17.674 5.952 15.837 36.94-9 36.815-18.02-7.172-16.442 2.141-40.45-24.251 3.69-14.174 14.594-14.624-.126-38.497 20.217-14.514z" data-name="Răzvad" class="comuna" id="65431"/>
    <path d="M329.131 585.016l.126 38.497-14.594 14.624-20.216 4.136-15.24-8.172-22.584-22.045 27.946-38.788 32.425-8.388 12.137 20.136z" data-name="Aninoasa" class="comuna" id="65379"/>
    <path d="M243.196 562.202l-4.147 14.844 17.574 35.01 22.584 22.045-19.47 12.012-43.536-8.154-3.366-27.013-15.81-16.477-1.133-24.615-7.225-13.357 14.033-6.722 40.496 12.427z" data-name="Șotînga" class="comuna" id="65477"/>
    <path d="M284.569 573.268l-27.946 38.788-17.574-35.01 4.147-14.844 16.955-13.631.3 8.32 24.118 16.377z" data-name="Doicești" class="comuna" id="65413"/>
    <path d="M503.133 556.513l7.73 39.753-4.641 19.008 6.508 13.884-50.566-15.647-23.068 13.41-18.816-14.98 11.372-17.095 2.168-26.528 14.42-9.232 19.596-4.588 7.216 9.094 28.08-7.08z" data-name="Moreni" class="municipiu" id="65841"/>
    <path d="M377.238 537.006l30.536 9.141 6.512-1.864 33.954 14.803-14.42 9.232-2.168 26.528L416.4 607.11l-26.776 5.778-10.575-5.05-17.674-5.952-12.026-31.384-5.873-9.276 3.355-27.44 15.39-4.66 15.018 7.88z" data-name="Ocnița" class="comuna" id="68324"/>
    <path d="M128.946 524.557l1.918 13.582 18.868 17.938 13.887 3.629 25.048-3.21 7.225 13.358 1.133 24.615 15.81 16.477-15.481 10.53-17.928-10.64-9.93 7.825-10.516-17.131-25.45 9.685-26.394 3.986-7.106 7.685-10.607-4.482 1.976-18.216-5.383-19.692-21.853 3.098 2.873-14.05-4.07-28.56 27.73-.212-.821-16.685 39.07.47z" data-name="Tătărani" class="comuna" id="68921"/>
    <path d="M377.238 537.006l-15.018-7.88-15.39 4.66-3.355 27.44 5.873 9.276-20.217 14.514-12.137-20.136-32.425 8.388-24.119-16.378-.299-8.32 1.096-1.478 13.645-6.519 20.142.294.063-17.032 23.41-11.854 21.93-2.528 15.139 10.53 13.244-2.74 8.418 19.763z" data-name="Glodeni" class="comuna" id="67522"/>
    <path d="M230.728 492.642l-.93 4.942 30.392 39.577 1.057 9.932-1.096 1.478-16.955 13.63-40.496-12.426.622-11.187-15.62-14.223 2.897-28.07 15.36-11.034 24.77 7.381z" data-name="Vulcana-Pandele" class="comuna" id="179640"/>
    <path d="M251.903 479.257l27.637 18.412 4.164 20.477 11.393 5.69-.063 17.03-20.142-.293-13.645 6.52-1.057-9.932-30.392-39.577.93-4.942 1.656-11.091 19.519-2.294z" data-name="Brănești" class="comuna" id="66009"/>
    <path d="M503.133 556.513l-28.08 7.079-7.217-9.094-19.596 4.588-33.954-14.803-6.512 1.864 12.91-9.085 6.765-17.302 19.93-6.455 9.016-16.666 5.537-32.184 7.664-14.045 13.77 1.195 18.69 12.957 11.751 29.308 12.578 16.206 2.426 14.113-15.467 6.916-10.211 25.408z" data-name="Iedera" class="comuna" id="65869"/>
    <path d="M128.946 524.557l-39.071-.47.821 16.686-27.73.211-20.513-22.026-22.63 3.139 1.095-15.769-18.59-14.907L1 477.245l14.093-14.581 24.683 4.73 9.3-12.853 8.204-9.586 32.626 6.487 11.346 34.619 27.694 38.496z" data-name="Cîndești" class="comuna" id="66526"/>
    <path d="M469.596 450.41l-7.664 14.045-5.537 32.184-9.016 16.666-19.93 6.455-6.765 17.302-12.91 9.085-30.536-9.14-8.418-19.764-13.244 2.74-15.138-10.53-8.572-28.738 27.15-6.426 21.017-28.665 36.785-1.434 9.562 7.305 15.507-19.433 12.683-3.064 15.026 21.412z" data-name="Valea Lungă" class="comuna" id="69063"/>
    <path d="M186.326 414.565l4.284 7.35-8.43 6.92 9.431 17.914 1.794 17.67-20.651 14.163-7.03-11.95-22.957-7.083-22.113 4.816-7.403-26.05 8.926-26.57 36.28 14.801 27.869-11.981z" data-name="Pietrari" class="comuna" id="179908"/>
    <path d="M318.316 434.955l-6.22 11.292 7.306 29.244 12.464 5.224 8.572 28.738-21.931 2.528-23.41 11.854-11.393-5.689-4.164-20.477-27.638-18.412 4.392-10.742 15.915-15.413-5.539-19.806 26.594-29.54 1.063-.063 2.274 14.243 21.715 17.02z" data-name="Pucioasa" class="oras" id="65921"/>
    <path d="M380.033 445.624l-21.016 28.665-27.151 6.426-12.464-5.224-7.306-29.244 6.22-11.292 30.762-5.25-2.345-14.643 25.005-12.478 3.976 17.415-8.586 12.378 12.905 13.247z" data-name="Vîrfuri" class="comuna" id="69447"/>
    <path d="M123.244 395.522l-1.067 16.224-8.926 26.568 7.403 26.051 22.113-4.816 22.957 7.083 7.03 11.95 20.651-14.163 12.553 20.842-15.36 11.034-2.896 28.07 15.62 14.223-.622 11.187-14.033 6.722-25.048 3.209-13.887-3.63-18.868-17.937-1.918-13.582-27.694-38.496-11.346-34.619-32.626-6.487-8.203 9.586-3.025-21.899-8.638-4.086 10.65-30.39 17.412 1.66 13.046 10.815 31.358-18.44 13.364 3.321z" data-name="Voinești" class="comuna" id="69526"/>
    <path d="M267.977 373.206l25.287 30.55-26.594 29.54-2.505-12.464-33.54-14.777-8.379-4.995-3.584-18.388 5.034-16.878 13.098 13.295 16.693 3.34 14.49-9.223z" data-name="Fieni" class="oras" id="65609"/>
    <path d="M454.57 428.998l-12.683 3.064-15.507 19.433-9.562-7.305-36.785 1.434-12.905-13.247L375.714 420l-3.976-17.416 12.835-3.1-1.671-21 27.185-20.279L430.79 377.3l-3.978 6.987 27.562 42.157.196 2.554z" data-name="Vișinești" class="comuna" id="69394"/>
    <path d="M162.337 342.18l20.1 45.5 3.889 26.885-27.869 11.981-36.28-14.8 1.067-16.224 8.593-24.105 30.5-29.238z" data-name="Bărbulețu" class="comuna" id="66223"/>
    <path d="M131.837 371.417l-8.593 24.106-13.364-3.322-31.358 18.44-13.046-10.815-17.413-1.66 2.665-19.53 14.73-9.71-.401-10.987 29.46-2.995 20.197-17.196 5.713 20.82 11.41 12.849z" data-name="Malu cu Flori" class="comuna" id="67942"/>
    <path d="M223.696 365.794l-5.034 16.878 3.584 18.388-14.864 16.84-16.772 4.014-4.284-7.35-3.89-26.884-20.099-45.5 15.666-4.166 28.805-1.838 1.229 12.455 15.659 17.163z" data-name="Râu Alb" class="comuna" id="179917"/>
    <path d="M294.327 403.693l-1.063.063-25.287-30.55 2.007-10.786-9.78-20.36 28.097-6.309 6.73 14.99 25.3-18.295 13.811-1.645-.33-16.08 18.09-3.346-8.843 51.826-17.873 3.982-17.749 16.138-13.11 20.372z" data-name="Buciumeni" class="comuna" id="66438"/>
    <path d="M65.057 357.939l.401 10.987-14.73 9.71-2.665 19.53-10.649 30.39-18.382-23.86 4.048-14.203.247-52.392-11.342-39.681 17.44-5.525 32.874 54.634 2.758 10.41z" data-name="Văleni-Dîmbovița" class="comuna" id="69303"/>
    <path d="M410.087 358.204l-27.185 20.279 1.67 21-12.834 3.1-25.005 12.48 2.345 14.641-30.762 5.251-21.714-17.019-2.275-14.243 13.11-20.372 17.75-16.138 17.872-3.982 8.844-51.826-18.091 3.346-1.45-13.889 20.122-16.401 19.569 6.688 5.426 16.255-4.08 20.005 20.5-5.766 6.693 26.508 9.495 10.083z" data-name="Bezdead" class="comuna" id="66330"/>
    <path d="M178.003 338.014l-15.666 4.165-30.5 29.238-11.41-12.849-5.713-20.82-3.739-38.702 20.271-3.635 21.566-23.857 16.746-8.25 12.305 20.394-3.86 54.316z" data-name="Pucheni" class="comuna" id="68565"/>
    <path d="M332.363 300.832l1.449 13.889.33 16.08-13.811 1.645-25.3 18.296-6.73-14.99-28.096 6.308-38.14-78.414-10.846-7.768 3.624-16.51 25.918 26.116 11.718 25.566 30.418 27.612 17.374-1.856 16.685-12.93 15.406-3.044z" data-name="Pietroșița" class="comuna" id="68404"/>
    <path d="M214.843 239.367l-3.624 16.51 10.846 7.769 38.14 78.414 9.779 20.36-2.007 10.786-14.49 9.222-16.693-3.34-13.098-13.294-15.66-17.163-1.228-12.454-28.805 1.837 3.86-54.316-12.305-20.394-16.746 8.25-7.895-11.202-3.886-39.283 22.117-27.445-1.518-6.542 20.528 14.347 16.13 4.362 16.06 21.565.495 12.011z" data-name="Runcu" class="comuna" id="68716"/>
    <path d="M352.484 284.43l-20.121 16.402-15.407 3.043-16.685 12.931-17.374 1.856-30.418-27.612-11.718-25.566-25.918-26.117-.496-12.011-16.059-21.565-16.13-4.362-20.528-14.347 11.132-31.237-5.816-13.931 13.168-16.025-7.172-35.06 4.495-11.546 36.411-13.548 37.613 5.064 6.61-17.319-.574-28.345 18.028-19.658L296.025 1l17.577 18.862-1.809 15.09 13.529 25.6-3.065 13.957-9.301 17.291 2.979 17.584-5.391 13.967 5.94 24.055 12.29 16.88 14.248-4.434 29.257 25.978 18.145 34.851-12.306 13.869-11.276 28.408-14.358 21.473z" data-name="Moroeni" class="comuna" id="68182"/>
    <path d="M266.67 433.296l5.539 19.806-15.915 15.413-9.8-22.328-14.532-9.286-1.337-30.846 33.54 14.777 2.505 12.464z" data-name="Moțăieni" class="comuna" id="65645"/>
    <path d="M230.625 406.055l1.337 30.846 14.532 9.286 9.8 22.328-4.391 10.742-19.52 2.294-1.655 11.091-24.77-7.38-12.553-20.843-1.793-17.67-9.431-17.914 8.429-6.92 16.772-4.014 14.864-16.841 8.379 4.995z" data-name="Vulcana-Băi" class="comuna" id="69615"/>
    <path d="M132.241 1059.871l28.64 20.103 13.513 3.673-.798 34.265-18.614 31.442-30.983-21.915-6.158 7.736-29.742-50.678 4.815-4.311 26.43-22.642 12.897 2.327z" data-name="Răscăeți" class="comuna" id="179926"/>
    <path d="M280.33 1032.357l.894 13.296 19.11 9.937 11.62-3.08 26.323 16.55-1.867 6.196-9.487-5.032-28.47 19.396 4.56 9.997-51.883 82.536-20.19-11.878 7.428-48.536-9.669-15.438 17.477-49.238-9.838-11.883 13.903-15.26 30.09 2.437z" data-name="Uliești" class="comuna" id="68976"/>
    <path d="M304.803 848.053l-15.871 9.624-15.074 20.586 3.25 16.869-13.681 9.34 7.795 18.827-19.44 24.065-16.279 10.666-25.873-6.714-8.671-12.65.536-25.462-7.227-8.54 16.13-34.821 20.688-1.45-6.895-45.854-8.589-10.624 35.126 1.348.877-9.47 25.577 2.546-3.387 26.614 18.629-.457 12.38 15.557z" data-name="Dragodana" class="comuna" id="67327"/>
    <path d="M315.722 784.747l19.082 17.285-20.93 17.263 7.847 21.224-9.902 7.12-7.016.414-12.38-15.558-18.628.458 3.387-26.614-25.577-2.546-1.379-23.357 12.671-8.146 33.135 20.022 19.69-7.565z" data-name="Raciu" class="comuna" id="179891"/>
    <path d="M268.199 739.368l14.115 5.643 11.028-17.142 16.72 9.357-9.312 13.29 14.972 34.23-19.69 7.566-33.135-20.022-12.67 8.146 1.378 23.357-.877 9.47-35.126-1.348-7.3-22.114-16.073-27.897 20.807-22.325 10.51-12.965 23.796 27.004 20.857-14.25z" data-name="Lucieni" class="comuna" id="67773"/>
    <path d="M100.03 622.886l-3.134 20.065 18.709 18.838 10.563-15.494 18.722 10.476-8.559 27.287 11.27 9.654-15.164 31.263 1.11 20.577-44.426 9.932-21.532-9.428-7.528-22.379 6.168-27.806-27.689-24.414-.521-34.466 1.896-30.264 6.38-20.633 17.868-2.5 21.853-3.098 5.383 19.692-1.976 18.216 10.607 4.482z" data-name="Ludești" class="comuna" id="67835"/>
    <path d="M723.118 1019.72l7.101 18.935 19.76-15.426 45.686 28.843L799 1065.72l-56.797 53.296-36.52 18.425-12.785-10.146.442-9.45 19.869-22.363-20.859-13.751 13.482-13.35-7.974-16.628-4.834-29.52 30.094-2.512z" data-name="Crevedia" class="comuna" id="102286"/>
    <path d="M749.98 1023.229l-19.76 15.426-7.102-18.935 20.442-59.788 18.959-16.353 15.383-4.13 3.826 13.451 15.437-1.784-18.334 34.318-4.492 21.067-21.73 1.702-2.63 15.026z" data-name="Niculești" class="comuna" id="104387"/>
    <path d="M632.354 1149.537l-19.115 24.049-23.28-6.73-32.5-.623-11.938-7.091-7.273-3.06 7.887-19.768-4.518-18.272 17.509-19.675 13.659 3.908 15.666-11.333 9.194 5.738 6.303 24.624 8.28 3.352 20.126 24.881z" data-name="Brezoaele" class="comuna" id="101341"/>
    <path d="M692.898 1127.294l12.785 10.146 1.062 21.396-14.441 9.238-19.817-6.218-8.127 19.493-4.404-13.493-27.602-18.319-20.125-24.88-8.28-3.352-6.304-24.625-9.194-5.738-16.883-26.778 38.554-30.644 12.592 12.315 5.704 18.351 34.07 29.38-3.165 6.81 33.575 26.918z" data-name="Tărtășești" class="comuna" id="105534"/>
    <path d="M336.41 1075.256l9.292 19.671 17.4 17.64 13.15 31.321 14.193 19.626-7.891.63-21.696 26.155-14.005-.573-17.687 26.43 17.69 14.466 2.295 14.07-10.433 6.254-20.073-16.799-14.504 9.346-11.185-30.34-43.226-21.238 1.4-9.762 51.882-82.536-4.56-9.997 28.47-19.396 9.488 5.032z" data-name="Corbii Mari" class="comuna" id="66857"/>
    <path d="M439.932 1006.783l25.52 4.063-25.58 37.899 41.786 36.328-2.73 20.595-46.983-46.157-7.047 4.42 6.474-10.33-36.852-22.536-24.188 21.858-11.62-25.397 6.324-7.485-12.708-28.055 6.764-16.6 16.16-7.625 11.902 27.19 25.508 2.99 6.004 7.711 21.266 1.131z" data-name="Titu" class="oras" id="66081"/>
    <path d="M447.173 959.22l16.232 15.17-28.987 22.373 5.514 10.02-21.266-1.13-6.004-7.713-25.508-2.99-11.901-27.189 11.165-5.68 12.622-6.089 30.669 9.796 17.464-6.567z" data-name="Braniștea" class="comuna" id="66152"/>
    <path d="M595.854 777.482l-16.99-6.878-5.068-16.755 8.52-30.121-5.447-18.044 60.57-26.4 4.25 20.845-14.952 10.78 5.063 18.567-10.392 9.152-.417 19.558-25.137 19.296z" data-name="Vlădeni" class="comuna" id="179711"/>
    <path d="M637.438 679.284l-60.569 26.4-17.796-17.968-23.515-43.708 54.267-7.686 20.157 2.795 10.222 30.364 17.122 9.577.112.226z" data-name="Dărmănești" class="comuna" id="67256"/>
  </g>
</svg>
