<svg xmlns="http://www.w3.org/2000/svg" version="1.2" baseProfile="tiny" stroke-linecap="round" stroke-linejoin="round" viewBox="0 0 800 1341">
  <g id="DB" fill="none" stroke="#aaa">
    <path d="M243.875 1199.98l-17.774 18.114-10.533 23.087 8.167 6.983-9.951 19.175-13.513-6.733-17.34 23.274.165 7.416-23.483 13.737 4.446 8.936-39.744 19.048-7.323 6.9-9.95-24.623 16.722-24.299 19.805-4.177-9.212-23.51 9.397-15.696-13.422-41.58-7.713-5.524 20.785-21.501 17.56 6.8 19.278-6.804 15.673-11.417 47.96 32.393z" id="68887"/>
    <path d="M518.678 1091.858l22.987 25.608 4.519 18.274-7.888 19.77-22.968 27.198-34.055-26.227.369-12.306 8.344-16.718-7.88-15.3 14.181-9.44 8.069 9.066 14.322-19.925z" id="68431"/>
    <path d="M588.503 1090.364l-15.668 11.333-13.66-3.908-9.416 19.578-8.094.1-22.987-25.609 15.802-25.301 25.753 7.837 11.385-10.81 16.349 19.149.536 7.631z" id="105142"/>
    <path d="M478.97 1105.09l3.137 7.068 7.879 15.299-8.344 16.718-10.342 5.887-17.49-1.188-14.096 27.357-17.443 3.163-1.515-9.8-25.708 2.414-4.569-9.066 2.766-6.755-16.96-12.872 44.035-24.51-4.996-14.775-13.592-16.436 18.476-25.034 4.728.79 7.047-4.42 46.987 46.16z" id="68468"/>
    <path d="M236.359 1044.598l9.839 11.883-17.479 49.244 9.67 15.438-7.428 48.54 20.191 11.88-1.4 9.763-5.877 8.633-47.96-32.393-15.673 11.417-19.278 6.803-17.56-6.8 11.591-30.225 18.617-31.445.797-34.268 38.053-43.734 13.545 12.745 10.352-7.481z" id="69330"/>
    <path d="M424.936 1063.35l-4.728-.79-18.476 25.034 13.592 16.436 4.996 14.774-44.035 24.51-13.15-31.324-17.402-17.64-9.293-19.674 1.867-6.195 17.93 2.981 14.127-19.12 24.191-21.86 36.855 22.537-6.474 10.33z" id="68342"/>
    <path d="M497.757 1019.579l30.963 46.378 5.76.6-15.802 25.301-14.322 19.925-8.069-9.066-14.18 9.44-3.137-7.066 2.73-20.597-41.789-36.332 25.583-37.901 19.469.428 12.794 8.89z" id="67906"/>
    <path d="M693.085 1021.648l4.835 29.522 7.975 16.63-13.483 13.35 20.86 13.753-19.87 22.365-.442 9.45-33.578-26.92 3.164-6.81-34.072-29.383-5.705-18.353-12.593-12.315 8.064-10.912 28.129 4.067 12.72-16.11 14.283-5.708 19.713 17.374z" id="101840"/>
    <path d="M352.359 991.399l12.709 28.058-6.325 7.485 11.621 25.4-14.127 19.12-17.93-2.981-11.602-12.01-14.723-4.542-10.71-14.665 22.175-39.185 28.912-6.68z" id="67121"/>
    <path d="M132.253 1059.29l-12.9-2.327-26.43 22.643-13.198-13.751-16.325-5.328 10.502-16.305-24.067-22.071-9.638-15.255 17.972-11.317 7.952 5.544 37.315-37.012 12.829 15.063 11.872 3.913 10.247 13.333 14.478 33.503-9.893 26.548-10.716 2.82z" id="68253"/>
    <path d="M251.804 946.773l-2.357 15.393 32.701 11.195-10.876 19.056-.892 20.272 9.975 19.085-30.092-2.437-14.16-10.3-5.938-19.49-17.139-.719-15.185-12.474-.492-19.85 12.3-15.779 25.875 6.715 16.28-10.667z" id="68128"/>
    <path d="M132.274 944.09l28.478 13.294 20.705-2.205 15.892 11.325.492 19.85 15.185 12.474 17.139.719 5.938 19.49 14.16 10.3-19.975 4.434 6.07 10.827-10.35 7.481-13.546-12.745-38.053 43.734-13.514-3.673-28.642-20.105 10.716-2.82 9.893-26.547-14.478-33.503-10.247-13.333-11.872-3.913-12.829-15.063-2.21-1.226 12.512-19.588 18.536.793z" id="65752"/>
    <path d="M555.92 943.728l-6.784 18.734 1.52 16.93-14.07 14.291 6.503 23.265-16.646 5.714-28.686-3.083-12.794-8.89-19.47-.428-25.522-4.064-5.515-10.021 28.99-22.376-16.233-15.17 5.756-15.725 10.569-1.22 9.884 13.837 11.664-6.376 20.796-.705 20.24 11.423 17.975-16.67 11.823.534z" id="66768"/>
    <path d="M580.733 928.73l6.265 13.038 17.746 14.041 19.796-10.29 15.332 12.547-19.082 15.823 30.403 23.635 7.896 12.458-12.72 16.11-28.13-4.067-8.063 10.912-38.558 30.646-11.385 10.811-25.753-7.837-5.76-.6-30.963-46.378 28.686 3.083 16.646-5.714-6.504-23.265 14.072-14.291-1.521-16.93 6.784-18.734 24.813-14.998z" id="68627"/>
    <path d="M743.626 959.342l-20.444 59.793-30.097 2.513-19.713-17.374-14.283 5.708-7.896-12.458-30.403-23.635 19.082-15.823 15.98-5.308 8.22 10.648 34.51-14.453.396-7.997 21.756-2.86 2.455-14.165 14.012 17.283 6.425 18.128z" id="101564"/>
    <path d="M386.452 961.491l-11.166 5.68-16.162 7.627-6.765 16.6-28.912 6.68.601-8.665-17.692-6.439 33.862-22.811-22.386-26.043 36.23-17.002 29.822-10.115 2.568 54.488z" id="68529"/>
    <path d="M698.978 940.956l-.395 7.997-34.51 14.453-8.22-10.648-15.98 5.308-15.333-12.548-19.796 10.291 27.61-33.606 30.976-21.44 10.42-5.872 9.582 16.571 14.182-.462 1.464 29.956z" id="66697"/>
    <path d="M188.426 893.836l5.859 10.232 7.228 8.542-.537 25.464 8.673 12.651-12.3 15.78-15.892-11.326-20.705 2.205-28.478-13.294 2.855-14.605 13.102.827 29.01-30.112 11.185-6.364z" id="65681"/>
    <path d="M312.094 919.665l5.738 14.455 22.386 26.043-33.862 22.811 17.692 6.439-.601 8.666-22.176 39.185 10.711 14.665-11.62 3.08-19.113-9.938-.894-13.297-9.975-19.085.892-20.272 10.876-19.056-32.7-11.195 2.356-15.393 6.358 1.06 13.084-25.128-7.796-18.828 13.682-9.341 12.872-9.764 21.401 28.407.689 6.486z" id="68048"/>
    <path d="M558.327 899.876l11.237 10.019 11.21-7.041 8.585 15.027-8.626 10.849-24.813 14.998-11.823-.534-17.975 16.67-20.24-11.423-20.796.705-11.664 6.376-9.884-13.837-10.569 1.22-11.6-34.054 2.507-22.162 20.294-7.361 21.064-.458-.852-11.742 15.347-1.248 16.18 15.616 34.752-8.86 7.666 27.24z" id="66955"/>
    <path d="M628.731 864.619l4.893 11.344 14.194 4.829 15.512 19.97-30.976 21.441-27.61 33.606-17.746-14.041-6.265-13.038 8.626-10.85-8.585-15.026-11.21 7.04-11.237-10.018 18.734-12.135 36.23-21.154 15.44-1.968z" id="66401"/>
    <path d="M370.442 850.727l-3.425 11.12 16.78 5.433 7.865 15.065-40.466 22.102-39.102 15.218-.689-6.486-21.401-28.407-12.872 9.764-3.25-16.87 15.075-20.588 15.873-9.625 7.017-.414 18.078 17.304 40.517-13.616z" id="67648"/>
    <path d="M464.17 879.328l-20.294 7.36-2.506 22.163 11.599 34.054-5.756 15.726-9.377-8.017-8.089 14.585-30.671-9.797-12.624 6.09-2.568-54.489-29.821 10.115-36.23 17.002-5.74-14.455 39.102-15.218 40.468-22.102 12.669-4.553 9.476-23.454 9.036-4.507 2.252 7.105 29.176-9.428 9.898 31.82z" id="68789"/>
    <path d="M188.426 893.836l-11.185 6.364-29.01 30.112-13.102-.827-14.844-15.038 9.55-7.602L150 875.213l-.217-9.528 10.841-32.587 8.384-9.69 16.117 8.31-8.064 27.075-10.92 11.841 30.897 8.057-8.61 15.145z" id="65707"/>
    <path d="M361.078 817.432l-13.938 5.814 7.848 17.008 15.454 10.473-40.517 13.616-18.079-17.304 9.903-7.12-7.847-21.227 24.163-10.086-3.231-7.178 13.585-4.448 12.659 20.452z" id="179935"/>
    <path d="M148.793 807.23l-19.659 24.73.11 13.779-16.622 23.685-7.667-2.638-13.662 42.403-21.82-4.391-.374-9.903 10.06-21.609-3.41-26.098-9.449-26.246-7.322-31.136 31.226 20.33 52.07 3.069 6.519-5.974z" id="69170"/>
    <path d="M169.007 823.408l-8.384 9.69-10.84 32.587.216 9.528-20.164 31.632-9.55 7.602 14.844 15.038-2.855 14.605-18.536-.793-12.513 19.587-46.272-25.801-2.219-27.505 16.74-4.78 21.82 4.391 13.661-42.403 7.667 2.638 16.622-23.685-.11-13.78 19.659-24.728 8.368-22.003 11.846 38.18z" id="67167"/>
    <path d="M723.189 923.931l-2.455 14.165-21.756 2.86L697.514 911l-14.182.462-9.582-16.571-10.42 5.872-15.512-19.971-14.194-4.83-4.893-11.343 21.984-24.265 15.567-7.425-8.234-21.145 1.036-7.8 22.882-20.665 22.632 38.95 7.635.982 22.786 48.09 14.792 12.62-15.821 13.602-10.801 26.368z" id="67014"/>
    <path d="M427.759 783.092l7.26 23.951-23.468 6.481 11.293 36.307-9.036 4.507-9.476 23.454-12.67 4.553-7.866-15.065-16.779-5.434 3.425-11.119-15.454-10.473-7.848-17.008 13.938-5.814 31.324-20.49 3.031-13.379 9.303 4.937 14.43-10.384 8.593 4.976z" id="68280"/>
    <path d="M595.907 776.876l3.023 16.576 20.986 4.488 38.132 13.844 8.235 21.145-15.568 7.425-21.984 24.265-15.44 1.968-36.23 21.154 1.717-24.112-28.139-30.02 28.276-63.611 16.992 6.878z" id="67470"/>
    <path d="M578.915 769.998l-28.276 63.61 28.14 30.02-1.718 24.113-18.734 12.135-7.666-27.24-34.752 8.86-16.18-15.616-15.347 1.248-1.223-16.8 13.666-18.66 18.145-14.224 28.815-34.505 30.062-29.698 5.068 16.757z" id="67292"/>
    <path d="M573.847 753.24l-30.062 29.7-28.815 34.504-18.145 14.223-13.666 18.662 1.223 16.799.852 11.742-21.064.458-9.898-31.82-29.176 9.428-2.252-7.105-11.293-36.307 23.468-6.48 13.965-4.319 31.45-32.413 12.632-4.446L504.597 776l43.456-39.177 5.474 9.302 20.32 7.116z" id="66198"/>
    <path d="M375.307 734.384l13.118 19.988-.114 17.822 7.122 11.37-3.031 13.379-31.324 20.49-12.659-20.453-13.585 4.448-19.084-17.287-14.974-34.233 9.313-13.292 17.276-9.932 26.566 20.712 21.376-13.012z" id="69250"/>
    <path d="M213.055 738.97l-20.809 22.327 16.074 27.899 7.301 22.116 8.59 10.625 1.625 24.727 11.82 14.598-6.55 6.533-20.69 1.45-.183 10.227-11.816 10.393-4.132 14.203-5.859-10.232 8.611-15.145-30.897-8.057 10.92-11.841 8.064-27.074-16.117-8.31-11.846-38.181-.333-34.09 24.594-18.912 9.215-19.924 22.418 26.667z" id="66580"/>
    <path d="M417.714 706.35l41.21 30.41-36.582 25.253 13.667 9.395-8.25 11.684-8.593-4.976-14.43 10.384-9.303-4.937-7.122-11.37.114-17.821-13.118-19.988-3.787-20.375 11.132-15.25 14.15-9.567 12.787 2.241 8.125 14.916z" id="66731"/>
    <path d="M548.053 736.823L504.597 776l-11.531-10.134-12.632 4.446-31.45 32.413-13.965 4.318-7.26-23.951 8.25-11.684-13.667-9.395 36.581-25.253-41.21-30.41 11.27-11.366 20.014 7.667 17.87-10.186 10.585-12.634 17.147 22.875 24.226 11.278 6.892 10.135 22.336 12.704z" id="66474"/>
    <path d="M385.92 680.978l10.882 8.214-14.15 9.567-11.132 15.25 3.787 20.375-21.376 13.012-26.566-20.712-17.276 9.932-16.721-9.357-11.029 17.143-14.117-5.643-12.883-12.47 9.951-29.85 17.663 10.642 46.48-10.325 7.081-7.01 16.586 14.505 18.212-12.465-3.414-17.98 18.021 7.172z" id="65501"/>
    <path d="M168.246 672.633l9.71 27.518-3.038 9.068 6.504 23.007-24.594 18.913.333 34.089-8.368 22.003-6.52 5.974-52.07-3.07-31.225-20.33 6.232-22.8 6.715-7.359-4.33-14.2 21.534 9.43 44.43-9.933-1.11-20.58 15.165-31.265-11.27-9.654 1.296-18.197 7.263-9.093 21.847 9.716 1.496 6.763z" id="67675"/>
    <path d="M214.844 651.237l9.372 25.378-4.885 9.51 9.963 14.529 11.176-9.448 10.22 7.44 14.6-2.206-9.952 29.85 12.884 12.469-6.19 11.364-14.669 2.887-9.353-14.925-14.445-12.082-10.51 12.966-22.418-26.667-9.215 19.924-6.504-23.007 3.037-9.068-9.71-27.518 38.216-26.527 8.382 5.13z" id="67407"/>
    <path d="M314.691 637.519l-3.69 14.174 40.453 24.254 16.444-2.141 3.414 17.98-18.212 12.466-16.586-14.505-7.082 7.01-46.479 10.324-17.663-10.641-14.6 2.206-10.22-7.44-11.176 9.448-9.963-14.53 4.885-9.509-9.373-25.378 1.377-13.897 22.322 2.001 14.83 18.016 6.389-11.862 19.47-12.013 15.242 8.173 20.218-4.136z" id="65342"/>
    <path d="M512.775 628.539l2.483 7.377 20.347 7.474 23.518 43.712 17.797 17.97 5.448 18.045-8.52 30.124-20.321-7.116-5.474-9.302-22.336-12.704-6.892-10.135-24.226-11.278-17.147-22.875-2.019-14.153-19.695-21.687 6.467-31.1 50.57 15.648z" id="67737"/>
    <path d="M212.854 610.325l3.366 27.015-1.376 13.897-8.382-5.131-38.216 26.527-1.496-6.763-21.847-9.716-18.724-10.477-10.564 15.496-18.71-18.84 3.134-20.067 7.106-7.686 26.397-3.986 25.452-9.686 10.517 17.133 9.931-7.827 17.93 10.642 15.482-10.53z" id="68002"/>
    <path d="M462.205 612.89l-6.467 31.1 19.695 21.688 2.019 14.153-10.585 12.634-17.87 10.186-20.014-7.667-11.27 11.365-8.124-14.916-12.787-2.24-10.883-8.215 9.001-36.818-15.839-36.943 10.576 5.05 26.778-5.778 15.255-12.266-11.373 17.096 18.818 14.983 23.07-13.412z" id="67595"/>
    <path d="M349.378 569.878l12.028 31.386 17.675 5.953 15.84 36.942-9.002 36.819-18.02-7.172-16.445 2.141-40.453-24.254 3.69-14.174 14.595-14.626-.126-38.5 20.218-14.515z" id="65431"/>
    <path d="M329.16 584.393l.126 38.5-14.595 14.626-20.218 4.136-15.241-8.173-22.587-22.047 27.949-38.791 32.428-8.389 12.138 20.138z" id="65379"/>
    <path d="M243.218 561.577l-4.148 14.845 13.672 20.682 3.904 14.331 22.586 22.047-19.471 12.013-6.39 11.862-14.83-18.016-22.32-2-3.367-27.016-15.811-16.478-1.134-24.618-7.225-13.358 14.034-6.723 17.267 2.5 23.233 9.928z" id="65477"/>
    <path d="M284.594 572.644l-27.948 38.791-3.904-14.33-13.672-20.683 4.148-14.846 16.956-13.632.3 8.32 24.12 16.38z" id="65413"/>
    <path d="M503.177 555.887l7.732 39.757-4.642 19.01 6.508 13.885-50.57-15.649-23.07 13.412-18.818-14.983 11.373-17.096 2.169-26.53 14.42-9.233 19.599-4.588 7.216 9.095 28.083-7.08z" id="65841"/>
    <path d="M377.271 536.379l30.539 9.142 6.512-1.865 33.957 14.804-14.42 9.234-2.169 26.53-15.255 12.265-26.778 5.778-10.576-5.05-17.675-5.952-12.028-31.387-5.873-9.278 3.356-27.442 15.39-4.661 15.02 7.882z" id="68324"/>
    <path d="M128.957 523.928l1.918 13.584 18.87 17.939 13.888 3.63 25.05-3.21 7.226 13.358 1.134 24.618 15.81 16.478-15.482 10.531-17.929-10.642-9.93 7.827-10.518-17.133-25.452 9.686-26.397 3.986-7.106 7.686-10.608-4.482 1.977-18.218-5.385-19.693-21.854 3.098 2.873-14.052-4.07-28.562 27.732-.212-.821-16.686 39.074.469z" id="68921"/>
    <path d="M377.271 536.379l-15.02-7.882-15.39 4.661-3.356 27.442 5.873 9.278-20.218 14.515-12.138-20.138-32.428 8.389-24.12-16.38-.3-8.32 1.096-1.478 13.646-6.52 20.144.293.063-17.033 23.412-11.855 21.933-2.528 15.14 10.532 13.245-2.742 8.418 19.766z" id="67522"/>
    <path d="M230.749 492.011l-.93 4.942 30.394 39.58 1.057 9.933-1.096 1.478-16.956 13.633-23.233-9.928-17.267-2.5.622-11.188-15.622-14.225 6.57-16.415-3.672-11.657 15.36-11.035 24.773 7.382z" id="179640"/>
    <path d="M251.925 478.625l27.64 18.413 4.164 20.479 11.394 5.69-.063 17.033-20.144-.294-13.646 6.52-1.057-9.933-30.395-39.58.93-4.942 1.656-11.093 19.52-2.293z" id="66009"/>
    <path d="M503.177 555.887l-28.083 7.08-7.216-9.095-19.599 4.588-33.957-14.804-6.512 1.865 12.911-9.087 6.766-17.303 19.931-6.456 9.017-16.668 5.538-32.186 7.665-14.047 13.77 1.196 15.221 9.455 15.223 32.814 12.58 16.207-.284 14.566-12.759 6.465-10.212 25.41z" id="65869"/>
    <path d="M128.957 523.928l-39.074-.47.821 16.687-27.733.212-6.7-12.715-13.815-9.314-22.631 3.14.942-17.54L2.33 490.79 1 476.612l14.094-14.582 24.685 4.73 9.302-12.854 8.204-9.586 32.629 6.487 11.347 34.622 13.4 22.373 14.296 16.126z" id="66526"/>
    <path d="M469.638 449.774l-7.665 14.047-5.538 32.186-9.017 16.668-19.931 6.456-6.766 17.303-12.911 9.087-30.539-9.142-8.418-19.766-13.246 2.741-15.139-10.53.879-10.678-9.452-18.064 27.154-6.426 4.948-12.57 16.07-16.097 36.787-1.435 9.564 7.306 15.508-19.435 12.685-3.064 9.796 5.268 5.23 16.145z" id="69063"/>
    <path d="M186.342 413.926l4.285 7.35-8.43 6.922 9.431 17.916 1.794 17.671-20.653 14.164-7.03-11.95-22.96-7.085-22.114 4.817-7.405-26.053 8.928-26.57 11.84 1.875 24.443 12.926 27.871-11.983z" id="179908"/>
    <path d="M318.345 434.319l-6.221 11.293 7.306 29.246 12.465 5.224 9.452 18.064-.879 10.677-21.933 2.528-23.412 11.856-11.394-5.69-4.164-20.479-27.64-18.413 4.392-10.744 15.916-15.414-5.54-19.808 16.615-14.317 9.982-15.225 1.063-.064 2.275 14.245 21.717 17.02z" id="65921"/>
    <path d="M380.067 444.989l-16.07 16.097-4.949 12.57-27.153 6.426-12.465-5.224-7.306-29.246 6.22-11.293 30.765-5.252-2.346-14.643 16.86-3.344 8.148-9.136 3.976 17.417-8.586 12.38 12.906 13.248z" id="69447"/>
    <path d="M123.255 394.882l-1.067 16.225-8.928 26.57 7.405 26.054 22.114-4.817 22.96 7.084 7.03 11.95 20.653-14.163 12.554 20.844-15.36 11.035 3.672 11.657-6.57 16.415 15.622 14.225-.622 11.187-14.034 6.723-25.05 3.21-13.888-3.63-18.87-17.939-1.919-13.584-14.296-16.126-13.4-22.373-11.347-34.622-32.63-6.487-8.203 9.586-3.025-21.9-8.639-4.087 6.277-4.85 4.373-25.542 17.414 1.66 13.048 10.815 31.36-18.441 13.366 3.321z" id="69526"/>
    <path d="M268.001 372.564l25.289 30.553-9.982 15.225-16.614 14.317-2.506-12.465-33.543-14.778-8.38-4.996-3.583-18.389 5.034-16.88 13.099 13.296 16.695 3.34L268 372.564z" id="65609"/>
    <path d="M454.61 428.36l-12.684 3.065-15.508 19.435-9.564-7.306-36.787 1.435-12.906-13.249 8.586-12.38-3.976-17.416 12.836-3.1-1.672-21.003 27.188-20.28 20.87 20.922 6.61 23.819 12.718 12.82 4.29 13.239z" id="69394"/>
    <path d="M162.351 341.535l2.265 11.614 17.837 33.89-2.417 20.495 6.306 6.392-27.87 11.983-24.445-12.926-11.84-1.876 1.068-16.225 8.594-24.107 30.502-29.24z" id="66223"/>
    <path d="M131.849 370.775l-8.594 24.107-13.365-3.321-31.361 18.442-13.048-10.817-17.414-1.66 2.666-19.532 14.73-9.71-.4-10.989 29.462-2.994 20.199-17.198 5.713 20.822 11.412 12.85z" id="67942"/>
    <path d="M223.716 365.152l-5.034 16.879 3.584 18.389-14.865 16.843-16.774 4.014-4.285-7.35-6.306-6.393 2.417-20.494-17.837-33.891-2.265-11.614 15.668-4.167 28.808-1.837 1.228 12.455 15.66 17.166z" id="179917"/>
    <path d="M294.353 403.053l-1.063.064L268 372.564l2.007-10.787-9.78-20.361 28.098-6.31 6.731 14.992 18.184-8.98 7.118-9.318 13.813-1.645-.33-16.081 18.092-3.347-2.925 30.369-5.92 21.462-17.874 3.982-17.75 16.14-13.112 20.373z" id="66438"/>
    <path d="M65.062 357.295l.402 10.988-14.731 9.711-2.666 19.533-4.373 25.543-6.277 4.85-18.383-23.863-.281-17.968 6.304-17.431-1.728-31.202 2.79-29.362 14.65 3.027 21.536 35.764 2.757 10.41z" id="69303"/>
    <path d="M410.123 357.56l-27.188 20.281 1.672 21.003-12.836 3.1-8.148 9.136-16.86 3.344 2.346 14.643-30.764 5.252-21.717-17.021-2.275-14.245 13.112-20.373 17.75-16.14 17.875-3.982 5.919-21.462 2.925-30.369-18.093 3.347-1.45-13.89 16.484-7.21 3.64-9.193 19.57 6.688 5.428 16.257-4.08 20.007 20.5-5.767 6.694 26.511 9.496 10.084z" id="66330"/>
    <path d="M178.019 337.368l-15.668 4.167-30.502 29.24-11.412-12.85-5.713-20.822L111 298.344l20.258-3.581 21.567-23.86 16.748-8.25 12.306 20.395-3.86 54.32z" id="68565"/>
    <path d="M332.392 300.184l1.45 13.89.33 16.081-13.813 1.645-7.118 9.319-18.184 8.979-6.73-14.992-28.1 6.31-11.924-27.234-19.18-32.882-7.038-18.306-10.847-7.769 3.624-16.512 25.92 26.12 11.72 25.567 30.42 27.615 17.375-1.856 16.687-12.932 15.408-3.043z" id="68404"/>
    <path d="M214.862 238.713l-3.624 16.512 10.846 7.769 7.039 18.306 19.18 32.882 11.925 27.233 9.78 20.362L268 372.564l-14.491 9.223-16.695-3.34-13.1-13.295-15.66-17.166-1.228-12.455-28.808 1.837 3.86-54.32-12.306-20.396-16.748 8.25-7.895-11.202-3.887-39.286 22.12-27.448-1.519-6.542 20.53 14.348 16.132 4.362 16.06 21.567.496 12.012z" id="68716"/>
    <path d="M352.515 283.78l-3.64 9.194-16.483 7.21-15.408 3.043-16.687 12.932-17.375 1.856-30.42-27.615-11.72-25.568-25.92-26.119-.496-12.012-16.06-21.567-16.132-4.362-20.53-14.348 11.133-31.24-5.25-19.474 12.603-10.486.863-14.322-8.035-20.74 6.307-14.125 34.602-10.971 37.616 5.064 6.61-17.32-.321-33.074 17.777-14.934L296.826 1l2.777 10.02 14.027 8.168-1.81 15.092 13.53 25.602-12.367 31.251 2.98 17.585-5.392 13.969 8.482 11.693-2.541 12.364 12.29 16.881 14.25-4.434 27.808 21.6-.818 9.512 15.676 17.35 4.74 12.373-21.822 27.291-1.762 14.989-14.359 21.475z" id="68182"/>
    <path d="M266.694 432.659l5.539 19.808-15.916 15.414-9.801-22.33-14.534-9.286-4.467-22.404 3.13-8.445 33.543 14.778 2.506 12.465z" id="65645"/>
    <path d="M230.645 405.416l-3.13 8.445 4.467 22.404 14.534 9.286 9.801 22.33-4.392 10.744-19.52 2.293-1.656 11.093-24.773-7.382-12.554-20.844-1.794-17.671-9.431-17.916 8.43-6.921 16.774-4.014 14.865-16.843 8.38 4.996z" id="69615"/>
    <path d="M132.253 1059.29l28.642 20.105 13.514 3.673-.797 34.268-18.617 31.445-30.985-21.917-10.183 2.923-6.053-15.087-19.697-30.72 4.845-4.374 26.432-22.643 12.899 2.327z" id="179926"/>
    <path d="M280.355 1031.774l.894 13.297 19.112 9.938 11.621-3.08 14.723 4.543 11.602 12.009-1.867 6.195-9.488-5.032-28.473 19.398 4.56 9.997-51.887 82.543-20.191-11.879 7.428-48.54-9.67-15.438 17.479-49.244-9.84-11.883-6.07-10.827 19.975-4.434 30.092 2.437z" id="68976"/>
    <path d="M304.83 847.453l-15.873 9.625-15.075 20.588 3.25 16.87-13.682 9.341 7.796 18.828-13.084 25.129-6.358-1.06-16.28 10.666-25.875-6.715-8.673-12.65.537-25.465-7.228-8.542 4.132-14.203 11.816-10.393.184-10.227 20.69-1.45 6.549-6.533-11.82-14.598-1.625-24.727-8.59-10.625 35.13 1.348.876-9.47 25.58 2.545-3.388 26.616 11.172 10.828 7.459-11.285 12.38 15.559z" id="67327"/>
    <path d="M315.75 784.141l19.084 17.287 3.23 7.178-24.162 10.086 7.847 21.226-9.903 7.121-7.016.414-12.38-15.559-7.459 11.285-11.172-10.828 3.387-26.616-25.579-2.546-1.379-23.359 12.673-8.147 14.795 12.845 18.343 7.179 19.691-7.566z" id="179891"/>
    <path d="M268.222 738.759l14.117 5.643 11.029-17.143 16.72 9.357-9.312 13.292 14.974 34.233-19.691 7.566-18.343-7.179-14.796-12.845-12.672 8.147 1.38 23.36-.877 9.47-35.13-1.348-7.301-22.116-16.074-27.9 20.809-22.327 10.51-12.966 14.445 12.082 9.353 14.925 14.668-2.887 6.191-11.364z" id="67773"/>
    <path d="M100.04 622.266l-3.135 20.067 18.71 18.84 10.564-15.496 18.724 10.477-7.263 9.093-1.296 18.197 11.27 9.654-15.166 31.266 1.11 20.579-44.43 9.933-21.533-9.43-7.529-22.38 6.17-27.808-27.692-24.417 1.374-64.735 7.057-21.724 17.194-1.411 21.855-3.098 5.383 19.693-1.976 18.217 10.608 4.483z" id="67835"/>
    <path d="M723.182 1019.135l7.102 18.937 19.762-15.428 43.764 26.546 5.19 16.153-31.772 31.75-24.959 21.347-36.524 18.426-12.785-10.147.442-9.451 19.87-22.365-20.86-13.753 13.482-13.35-7.974-16.63-4.835-29.522 30.097-2.513z" id="102286"/>
    <path d="M750.046 1022.644l-19.762 15.428-7.102-18.937 20.444-59.793 18.96-16.354 15.385-4.13 3.827 13.451 15.438-1.784-6.787 18.817-22.934 3.432 11.385 12.072-4.492 21.07-21.733 1.7-2.63 15.028z" id="104387"/>
    <path d="M632.41 1148.964l-19.116 24.05-23.283-6.73-32.503-.623-6.347-11.222-12.865 1.071 7.887-19.77-4.518-18.274 8.094-.099 9.417-19.578 13.66 3.909 15.667-11.334 9.195 5.739 6.304 24.626 8.28 3.352 20.128 24.883z" id="101341"/>
    <path d="M692.96 1126.719l12.785 10.147-9.215 5.273 10.233 16.064-14.398 9.3-19.819-6.22-6.673 15.107-13.404-18.096-20.059-9.33-20.127-24.883-8.281-3.352-6.304-24.626-9.195-5.739-.536-7.631-16.349-19.15 38.558-30.646 12.593 12.315 5.705 18.353 34.072 29.384-3.164 6.809 33.578 26.92z" id="105534"/>
    <path d="M336.44 1074.676l9.293 19.673 17.402 17.641 13.15 31.325 16.96 12.872-2.766 6.755-7.891.63-21.698 26.158-14.006-.573-17.689 26.431 17.692 14.468 2.256 14.134-10.395 6.192-12.427-16.99-22.153 9.536-11.186-30.342-43.23-21.24 1.4-9.764 51.887-82.543-4.56-9.997 28.473-19.398 9.488 5.032z" id="66857"/>
    <path d="M439.97 1006.197l25.524 4.064-25.583 37.901 41.79 36.332-2.731 20.597-46.987-46.161-7.047 4.42 6.474-10.33-36.855-22.539-24.19 21.86-11.622-25.399 6.325-7.485-12.709-28.058 6.765-16.6 16.162-7.627 11.902 27.192 25.51 2.99 6.005 7.712 21.268 1.131z" id="66081"/>
    <path d="M447.213 958.63l16.233 15.17-28.99 22.376 5.515 10.021-21.268-1.13-6.005-7.713-25.51-2.99-11.902-27.192 11.166-5.68 12.624-6.09 30.671 9.797 8.089-14.585 9.377 8.017z" id="66152"/>
    <path d="M595.907 776.876l-16.992-6.878-5.068-16.757 8.52-30.124-5.447-18.046 60.575-26.402 4.251 20.846-14.953 10.782 5.063 18.569-10.393 9.152-.417 19.56-25.139 19.298z" id="179711"/>
    <path d="M637.495 678.669L576.92 705.07l-17.797-17.97-23.518-43.711 54.272-7.687 20.16 2.796 10.222 30.366 17.236 9.804z" id="67256"/>
  </g>
</svg>
