<svg xmlns="http://www.w3.org/2000/svg" version="1.2" baseProfile="tiny" stroke-linecap="round" stroke-linejoin="round" viewBox="0 0 800 801">
  <g id="DJ" fill="none" stroke="#aaa">
    <path d="M636.116 718.324l4.857 26.846-5.233 21.265-27.647-2.398-9.001-2.544 4.773-16.715 4.716-1.29 11.456-29.141 16.08 3.977z" data-name="Bechet" class="oras" id="70879"/>
    <path d="M680.204 783.838l-44.464-17.403 5.233-21.265-4.856-26.846 8.578-25.311 13.03.227 5.226-15.315 30.654 10.682-10.705 30.748.056 41.94 2.078 9.662-4.83 12.881z" data-name="Călărași" class="comuna" id="71607"/>
    <path d="M463.908 641.513l.857 20.011-7.152 30.353-7.866.56-.379 31.34-13.162 1.855-21.055-4.817-20.76-11.864 19.107-36.61-8.618-6.965 8.868-12.28.226-7.317 17.09-8.352 32.844 4.086z" data-name="Cârna" class="comuna" id="74867"/>
    <path d="M586.892 681.343l-4.895 20.951-12.245-10.954-4.834 5.169-.869 14.28-7.22 21.44-8.021-2.499-5.268 9.894-25.388-8.438-8.39-12.01-27.446-2.665-20.661 3.397 19.235-32.632 10.623-12.483 2.81-8.063 13.081 2.176 6.206-3.67 7.104-28.813 28.837 3.62-1.917 29.933 18.317 3.866 20.941 7.501z" data-name="Gighera" class="comuna" id="72463"/>
    <path d="M516.323 635.805l4.391.618-7.104 28.813-6.206 3.67-13.08-2.175-2.811 8.062-10.623 12.483-19.235 32.632-12.287 3.87.379-31.34 7.866-.56 7.152-30.354-.857-20.011.123-.825 22.023 5.527 3.028-5.525 14.582.346.97-7.012 11.69 1.781z" data-name="Măceșu de Jos" class="comuna" id="72980"/>
    <path d="M121.52 715.73l-15.439-6.435-39.332-8.34 3.192-20.954 19.634-47.072.206-3.37 21.148 10.994 16.783 6.503-2.631 24.004 3.989 10.523-7.55 34.147z" data-name="Desa" class="comuna" id="72034"/>
    <path d="M593.86 616.651l23.48 2.173 16.962 5.736 11.794 4.042-2.904 7.57 34.515 12.183-8.136 23.162-6.62 6.408-5.225 15.315-13.031-.227-8.579 25.31-16.08-3.976 3.927-19.043-15.711-9.75.288-9.71-22.32 3.481 3.59-51.424-7.193-7.04 11.244-4.21z" data-name="Sadova" class="comuna" id="73996"/>
    <path d="M582.617 620.86l7.193 7.041-3.59 51.424.672 2.018-20.94-7.5-18.318-3.867 1.917-29.933-28.837-3.62-4.39-.618 2.722-21.93 37.39 5.165 26.181 1.82z" data-name="Gîngiova" class="comuna" id="72579"/>
    <path d="M413.974 645.779l-.226 7.317-8.868 12.28 8.618 6.965-19.107 36.61-15.614-15.073-28.358-7.506-17.235-8.43-2.443-5.78 5.566-29.31 9.832-37.06 10.164-1.09 19.198-1.83 5.037 19.553 34.913-3.21-4.449 25.21 2.972 1.354z" data-name="Bistreț" class="comuna" id="70897"/>
    <path d="M309.307 677.533l-21.5.666-9.12-37.723-8.598-7.248 5.497-31.285 29.368 4.787.996-7.148 9.072 1.217-5.299 41.063-.416 35.671z" data-name="Negoi" class="comuna" id="73460"/>
    <path d="M477.763 603.645l-2.475 16.438-7.97-.697-3.287 21.302-.123.825-32.844-4.086-17.09 8.352-2.972-1.353 4.449-25.211-34.913 3.21-5.037-19.553 1.038-.268 29.223-8.178.724 7.583 18.123 6.418 22.527-.039.957-7.216 29.67 2.473z" data-name="Goicea" class="comuna" id="72640"/>
    <path d="M346.14 605.792l-9.833 37.06-5.566 29.31 2.443 5.78-23.877-.409.416-35.67 5.3-41.064-9.073-1.217.852-7.16 31.702 4.885 7.635 8.485z" data-name="Catane" class="comuna" id="74842"/>
    <path d="M99.795 598.866L89.781 629.56l-.206 3.37L69.94 680l-3.192 20.955-13.494-8.385-21.77-4.578-15.682-7.809-12.809-20.06-1.93-10.925 18.312 3.883 12.762 7.79 10.257-1.642 6.007-9.352-14.996-6.397L58.3 596.252l16.127-2.631 7.145-8.874 18.224 14.12z" data-name="Ciupercenii Noi" class="comuna" id="71858"/>
    <path d="M213.264 583.814l25.054 3.955-.627 6.332-5.236 29.725-13.14-2.83-20.851 5.227-14.043-2.995 6.07-20.517 10.75-21.23 12.023 2.333z" data-name="Seaca de Cîmp" class="comuna" id="74108"/>
    <path d="M692.952 580.535l11.028 3.871.196 12.979 6.069 6.634-7.865 22.867 16.644 1.802 15.434 5.19-5.425 15.338-19.04-6.767-5.345 15.2-26.941-9.294-34.514-12.183 2.903-7.57-11.794-4.043.283-13.02 13.464-38.28 19.342 6.748 2.414-7.66 23.147 8.188z" data-name="Daneți" class="comuna" id="71956"/>
    <path d="M732.826 571.082l-1.449 22.753-5.501 15.63 13.76 9.174-5.178 15.238-15.434-5.189-16.644-1.802 7.865-22.867-6.069-6.634-.196-12.979 3.537-18.935 25.31 5.611z" data-name="Dobrotești" class="comuna" id="74883"/>
    <path d="M503.303 567.75l9.913 1.936-4.515 29.38-8.676 7.845-22.262-3.265-29.67-2.474-.957 7.216-22.528.04-18.122-6.419-.724-7.583-29.223 8.178 1.797-16 17.81-6.022 5.109-7.744 11.75-6.871 15.767 5.145-.283-7.811 28.196 7.155.95-4.378 29.733 4.495 15.935-2.822z" data-name="Bîrca" class="comuna" id="70940"/>
    <path d="M184.425 573.769l9.216 4.068-18.063 37.338-5.624 15.192-5.665 6.141-.78 23.025-6.712 8.793 12.941 10.055-8.64 4.155-.043 27.285-39.535 5.909 7.55-34.147-3.99-10.523 2.632-24.004-16.783-6.504L89.78 629.56l10.014-30.693 13.814-22.51 20.643-10.373 6.8 6.284 10.208-9.208 25.006 17.676 8.16-6.966z" data-name="Poiana Mare" class="comuna" id="73736"/>
    <path d="M749.07 561.558l49.93 8.78-3.772 17.93-17.714-6.238-8.878 3.64-5.368 15.066-31.891-6.901 1.45-22.753 16.242-9.524z" data-name="Amărăștii de Sus" class="comuna" id="70673"/>
    <path d="M631.753 559.054l4.813 10.057 11.483 4.149-13.464 38.28-.283 13.02-16.962-5.736-23.48-2.173 6.765-3.683 6-28.268-21.508-17.07-.763-7.568 9.06-1.296 8.396-4.095 14.527-.786 15.416 5.17z" data-name="Dobrești" class="comuna" id="72098"/>
    <path d="M528.409 551.979l55.945 8.083.763 7.568 21.508 17.07-6 28.268-6.764 3.683-11.244 4.21-26.181-1.82-37.39-5.165-1.967-13.468-8.378-1.342 4.515-29.38-9.913-1.935 2.691-19.088 22.415 3.316z" data-name="Valea Stanciului" class="comuna" id="74581"/>
    <path d="M141.053 572.267l-6.801-6.284-20.643 10.373-13.814 22.51-18.224-14.119-7.145 8.874-16.127 2.631-24.893 47.229 14.996 6.397-6.007 9.352-10.257 1.641-12.762-7.79L1.063 649.2 1 642.36l14.054-28.417 10.483-44.344 7.47-7.72 20.928-6.771 22.944-5.045 19.188-1.53 15.24-18.467 11.262 5.965 5.346 9.758 10.474.515 2.664 25.964z" data-name="Calafat" class="municipiu" id="70352"/>
    <path d="M395.815 520.365l8.517.295-.284 18.94 25.574.876-1.133 22.825.283 7.811-15.768-5.145-11.75 6.871-5.108 7.744-17.81 6.021-1.797 16.001-1.038.268-19.198 1.83 3.788-30.293 10.977.847.027-7.932 11.14-23.393-10.403-5.441 6.686.106.29-18.879 17.007.648z" data-name="Urzicuța" class="comuna" id="74554"/>
    <path d="M327.143 523.937l-.48 12.986 16.107.513 19.423 10.027 9.639-8.973 10.402 5.441-11.14 23.393-.026 7.932-10.977-.847-3.788 30.293-10.163 1.09-7.636-8.486-31.702-4.885 4.616-24.442 6.558 2.246 1.084-52.402 8.083 6.114z" data-name="Afumați" class="comuna" id="70520"/>
    <path d="M408.041 506.54l12.932 5.36 16.898.788-.463 21.783 13.413 3.618 16.833-12.471 7.056 9.208 16.293-.686 4.48 12.84 10.511 1.683-2.691 19.088-15.935 2.822-29.732-4.495-.951 4.379-28.196-7.156 1.133-22.825-25.574-.875.284-18.941-8.517-.295.218-14.205 12.008.38z" data-name="Giurgița" class="comuna" id="72533"/>
    <path d="M387.224 505.873l8.81.287-.22 14.205-17.006-.648-.29 18.879-6.686-.106-9.639 8.973-19.423-10.027-16.107-.513.48-12.986 10.323.179 6.813-12.667 10.995.103 2.257-6.557 29.693.878z" data-name="Siliștea Crucii" class="comuna" id="74224"/>
    <path d="M298.66 516.84l20.4.983-1.084 52.402-6.558-2.246-4.616 24.442-.852 7.16-.996 7.149-29.368-4.787-37.895-7.842.627-6.332-25.054-3.955 16.796-33.172-14.356-6.32 21.35-42.558 20.918 1.197-.448 12.467 41.136 1.413z" data-name="Băilești" class="municipiu" id="70316"/>
    <path d="M168.757 484.273l4.167 13.973 20.1 20.595-.64 13.27 7.824 1.205-1.493 11.792-14.29 28.66-8.16 6.967-25.005-17.676-10.207 9.208-2.664-25.964-10.474-.515-5.346-9.758-11.262-5.965 9.09-21.44 34.68-10.983.956-13.576 12.724.207z" data-name="Maglavit" class="comuna" id="73031"/>
    <path d="M464.776 477.543l3.488 13.59 16.613 10.734 13.534 14.453-5.46 6.076-1.948 11.744-16.293.686-7.056-9.208-16.833 12.471-13.413-3.618.463-21.783 26.906-35.145z" data-name="Cerăt" class="comuna" id="71698"/>
    <path d="M753.47 515.489l1.65 15.18-6.05 30.889-16.244 9.524-25.31-5.61-3.536 18.934-11.028-3.87-4.286-10.826-3.404-22.266 9.693-26.793 9.682-2.889 12.736-39.836 11.931-2.327 8.613 2.563-4.8 15.79 22.27 5.463-1.916 16.074z" data-name="Celaru" class="comuna" id="71634"/>
    <path d="M386.296 472.492l5.63 5.658-.3 14.138-4.402 13.585-29.693-.878-2.257 6.557-10.995-.103-6.813 12.667-10.323-.179-8.083-6.114-20.4-.982 4.011-11.38 16.67 7.279.12-6.512 12.533.283.8-16.502 7.555-.334.744-17.91 2.61-.092 17.995.626 6.144 9.126 14.107-2.551 4.347-6.382z" data-name="Cioroiași" class="comuna" id="71812"/>
    <path d="M341.093 471.765l-.744 17.91-7.555.334-.8 16.502-12.532-.283-.122 6.512-16.669-7.278 3.619-10.855-7.972-2.117 3.912-11.86 9.025-10.907 12.609 4.757 17.229-2.715z" data-name="Galiciuica" class="comuna" id="74891"/>
    <path d="M595.612 511.585l-.366 4.911-9.203 3.64-.706 23.428 8.078 15.202-9.06 1.296-55.946-8.083-.47-18.148 4.613-32.204 10.77 6.011.565-10.443 22.002-.485-8.195-8.346-4.193-10.4 1.873-8.108 21.846 1.151 8.255-1.763-2.59 25.975 1.134 15.53 11.593.836z" data-name="Drănic" class="comuna" id="72221"/>
    <path d="M728.385 470.37l.919 5.23-11.931 2.326-12.736 39.836-9.682 2.889-9.693 26.793-26.644-6.507 1.69-24.878-11.847 6.04-12.569-13.104 1.725-4.483 13.68 1.79 20.365-7.552 11.051-18.384 10.171 2.613 8.686-22.09 26.815 9.481z" data-name="Apele Vii" class="comuna" id="70726"/>
    <path d="M311.255 469.723l-9.025 10.908-3.912 11.859 7.972 2.117-3.619 10.855-4.01 11.379-41.137-1.413.448-12.467-20.918-1.197 8.868-10.585.772-18.981 20.067-13.8 6.63 6.043 20.924-6.873 6.984 17.36 9.956-5.205z" data-name="Galicea Mare" class="comuna" id="72383"/>
    <path d="M222.418 452.6l15.542.368 9.131 5.573-.397 13.657-.772 18.98-8.868 10.586-21.35 42.559 14.356 6.319-16.796 33.172-12.023-2.333-7.6-3.644-9.216-4.068 14.29-28.661 1.493-11.792-7.823-1.206.64-13.27-20.101-20.594-4.167-13.973.644-14.65-8.07-.296 1.143-18.678 42.116 3.07-.232 8.09 17.141.565.919-9.773z" data-name="Moțăței" class="comuna" id="73335"/>
    <path d="M553.5 477.965l4.194 10.4 8.195 8.345-22.002.485-.565 10.443-10.77-6.01-4.614 32.203.47 18.148-22.414-3.316-10.51-1.683-4.48-12.84 1.947-11.744 5.46-6.076-13.534-14.453-16.613-10.734-3.488-13.59-.224-9.877-5.989-9.305-2.632-13.892 9.766.011 38.846 11.235 4.474-3.072 20.292 5.773-1.544 15.63 25.736 3.919z" data-name="Segarcea" class="oras" id="70502"/>
    <path d="M157.635 442.444l4.839 8.205-1.144 18.678 8.071.296-.644 14.65-12.725-.207-.955 13.576-34.68 10.984-4.497-12.592-7.028-7.727-18.114-6.962-15.418-.965 11.263-19.544 9.952-9.516 3.404-16.348 28.267 1.31 15.976.692 6.328 8.325 7.105-2.855z" data-name="Cetate" class="comuna" id="71787"/>
    <path d="M775.183 436.498l5.823 1.199-8.113 36.746 6.555 9.743-2.903 31.014-23.074.289 1.917-16.074-22.27-5.463 4.799-15.79-8.613-2.563-.92-5.229 5.092-25.121 13.645-4.03 2.523-7.613 25.539 2.892z" data-name="Dioști" class="comuna" id="72052"/>
    <path d="M307.473 425.064l4.334 11.855-16.466 6.53-1.026 14.119-20.924 6.873-6.63-6.042-20.067 13.799.397-13.657-9.13-5.573 7.791-23.162 10.662-6.02 16.772-15.748 9.75 4.191 10.277 9.32-1.276 9.298 15.536-5.783z" data-name="Izvoare" class="comuna" id="72882"/>
    <path d="M348.395 424.513l.646 14.825-7.812 2.781-1.497 9.38 4.442 10.027-.471 10.147-2.61.092-17.23 2.715-12.608-4.757-9.956 5.205-6.984-17.36 1.026-14.118 16.466-6.53-4.334-11.856-5.109-12.938 25.878-9.663 4.7 12.685 5.802-2.224 9.651 11.59z" data-name="Giubega" class="comuna" id="72506"/>
    <path d="M381.377 401.499l8.856 3.21 4.97 8.406-1.598 15.688 9.852 5.25 1.203 10.381 5.772 7.866 1.646 4.536-15.813 7.031-9.969 8.625-4.347 6.382-14.107 2.55-6.144-9.125-17.995-.626.471-10.147-4.442-10.027 1.497-9.38 7.812-2.781-.646-14.825 17.203.876 5.526-21.87 10.253-2.02z" data-name="Perișor" class="comuna" id="73594"/>
    <path d="M495.291 409.772l-.189 9.345 16.352 3.455 19.88-3.56 25.707 8.77 7.314 27.923-8.98 14.15-1.875 8.11-25.735-3.92 1.544-15.63-20.292-5.772-4.474 3.072-38.846-11.235-9.766-.011-4.428-9.815 3.326-11.346 7.5-15.613 6.853-6.627 26.11 8.704z" data-name="Calopăr" class="comuna" id="71457"/>
    <path d="M621.07 436.98l-34.041 11.879-11.012 14.307 1.203 7.841-21.846-1.151 8.98-14.151-7.313-27.924 13.246-6.174-8.175-9.456 5.849-11.661 33.92 8.149 7.312 10.42-2.063 10.225 13.94 7.695z" data-name="Teasc" class="comuna" id="74322"/>
    <path d="M268.749 406.251l4.436 1.787-16.771 15.749-10.661 6.019-7.793 23.162-15.542-.367.36-22.542-5.765-9.724 1.784-12.426 11.41-8.1 8.86-3.25 29.682 9.692z" data-name="Caraula" class="comuna" id="71518"/>
    <path d="M635.517 401.102l-13.999 36.101-.447-.224-13.941-7.695 2.063-10.226-7.313-10.42-33.919-8.148-.737-9.188 19.417 3.583 14.765-1.921 16.972 1.242 17.14 6.896z" data-name="Ghindeni" class="comuna" id="74915"/>
    <path d="M567.224 391.302l.737 9.188-5.849 11.66 8.176 9.457-13.247 6.174-25.707-8.768-19.88 3.56-16.352-3.456.19-9.345.54-13.16 15.302 5.105 10.932-2.712 10.032 5.162 14.53-1.89-1.161-6.62 19.679-13.803 2.078 9.448z" data-name="Țuglui" class="comuna" id="74509"/>
    <path d="M775.183 436.498l-25.539-2.892-2.523 7.612-13.644 4.03-37.865-20.993 15.44-27.272 14.564 8.054 1.764-14.127 5.353-15.027 47.385 15.11 1.357 11.713-.248.955-7.32 25.725 1.276 7.112z" data-name="Teslui" class="comuna" id="74411"/>
    <path d="M316.052 394.02l12.19 8.443-25.878 9.663 5.11 12.938-15.537 5.783 1.276-9.298-10.277-9.32-9.75-4.19-4.437-1.788 15.489-31.89 22.319 9.868 9.495 9.792z" data-name="Vîrtop" class="comuna" id="74732"/>
    <path d="M664.225 372.203l4.625.388 42.202 24.392-15.44 27.272 37.865 20.994-5.092 25.121-26.815-9.481 1.248-4.212-14.705-7.406 5.116-10.083-7.72-3.652-4.768 9.207-11.115-5.924-3.965 7.228-14.693-4.993-8.642 7.755-20.808-11.606 14-36.1 18.892-34.3 9.815 5.4z" data-name="Leu" class="comuna" id="72926"/>
    <path d="M471.252 382.647l-2.07 18.421-6.853 6.627-7.5 15.613-7.308-1.032-7.21 8.15-7.73-3.206 4.408-10.222-13.587-11.589-7.746-.167-23.12-9.795-2.303 9.262-8.856-3.21.086-19.226 3.455-9.38-13.835-16.666 24.553 11.018 2.125-15.553 10.273.673 2.985-10.94 13.62-.608 12.372 3.5 28.536 2.83-3.134 21.922 8.839 13.578z" data-name="Vîrvoru de Jos" class="comuna" id="74750"/>
    <path d="M654.41 366.804l-18.893 34.298-17.14-6.896-16.971-1.242-11.912-20.084 17.007-4.445 5.256-15.189 8.445.857 5.388-13.801 25.465 9.828-4.265 12.31 7.62 4.364z" data-name="Coșoveni" class="comuna" id="71885"/>
    <path d="M569.79 340.368l16.76 15.68 2.944 16.832 11.912 20.084-14.765 1.921-19.417-3.583-2.078-9.448-13.118-.891 4.693-22.208-4.099-10.52 3.893-10.949 13.275 3.082z" data-name="Malu Mare" class="comuna" id="73068"/>
    <path d="M371.083 356.227l13.835 16.666-3.455 9.38-.086 19.226-10.253 2.02-5.526 21.87-17.203-.876-9.65-11.588-5.804 2.223-4.699-12.685-12.19-8.442 10.325-36.547 22.6 2.23 6.993-23.326 14.92 11.64.193 8.209z" data-name="Sălcuța" class="comuna" id="74028"/>
    <path d="M732.733 375.883l-5.353 15.027-1.764 14.127-14.564-8.054-42.202-24.392-4.625-.388 20.02-34.004 8.212-7.516 9.793-.606 3.07 6.573 9.839-1.114 1.362 26.27 19.776 2.804 1.054 5.7-4.618 5.573z" data-name="Drăgotești" class="comuna" id="72150"/>
    <path d="M593.6 324.761l4.416 6.365 23.325 7.462 4.25 1.714-5.389 13.801-8.445-.857-5.256 15.189-17.007 4.445-2.944-16.833-16.76-15.679 5.624-3.355-7.763-12.746 25.95.494z" data-name="Cârcea" class="comuna" id="74859"/>
    <path d="M270.806 325.73l-3.414 14.437 14.995 8.338 4.585 19.683-2.734 6.174-15.49 31.89-29.682-9.693-8.859 3.25-7.735-5.48-4.555-20.665.625-10.728.786-13.908 11.323-19.622 13.065-15.64 11.414 9.383 15.676 2.58z" data-name="Orodel" class="comuna" id="73503"/>
    <path d="M366.737 316.425l22.937 6.151 5.917-10.662 19.896 2.034 10.675.339-1.522 26.53-13.621.608-2.985 10.94-10.272-.673-2.126 15.553-24.553-11.018-.192-8.208-14.922-11.641-20.748-4.105-22.51-10.235 3.59-12.65 50.436 7.037z" data-name="Terpezița" class="comuna" id="74359"/>
    <path d="M230.651 329.406l-11.323 19.622-.786 13.907-5.01 6.11-16.414-8.432-9.622 1.128 4.747-15.376-7.372.36-21.443-8.078 9.01-24.382 25.143-5.76-2.404 4.445 9.242 10.289 14.965.296 11.268 5.87z" data-name="Verbița" class="comuna" id="74705"/>
    <path d="M295.976 305.744l20.326 3.643-3.59 12.651 22.51 10.235 20.748 4.105-6.994 23.326-22.599-2.23-10.325 36.547-9.495-9.792-22.32-9.867 2.735-6.174-4.585-19.683-14.995-8.338 3.414-14.438 6.988-20.284 14.201 3.796 3.981-3.497z" data-name="Vela" class="comuna" id="74616"/>
    <path d="M678.276 297.736l15.325 12.865 8.65 19.476-9.794.606-8.211 7.516-20.02 34.004-9.816-5.4-7.62-4.364 4.265-12.31-25.465-9.827-4.25-1.714 12.788-14.405 15.914-7.328 9.41-15.338 18.824-3.781z" data-name="Robănești" class="comuna" id="73923"/>
    <path d="M416.62 273.194l8.48 2.983-8.375 27.661-1.238 10.11-19.896-2.034-5.917 10.662-22.937-6.151 6.814-13.06-4.182-13.61.407-12.933 7.493-3.015 17.653 1.942 8.062 8.218 13.637-10.773z" data-name="Pleșoi" class="comuna" id="74931"/>
    <path d="M517.259 274.92l.734 6.973 17.504 15.406 9.296-8.187 9.851-.278 11.23 13.263 8.917 8.61-.358 5.924 14.753 2.382 9.464-1.892-5.05 7.64-25.949-.495 7.763 12.747-5.624 3.355-13.275-3.082-3.893 10.95 4.099 10.52-19.025-20.81-10.644.744-6.527 7.657-13.565-23.858-14.123-10.576 4.204-11.09-2.012-15.283 22.23-10.62z" data-name="Craiova" class="municipiu resedinta" id="69900"/>
    <path d="M476.128 271.553l18.901 13.987 2.012 15.284-4.204 11.089-16.997 7.63-8.567-2.053-11.97 5.041-17.527-.413-3.064-8.134.615-5.751 14.578-6.29.176-7.871 8.71-12.764-9.08-10.125 26.417.37z" data-name="Breasta" class="comuna" id="71260"/>
    <path d="M291.128 299.362l4.848 6.382-3.98 3.497-14.202-3.796-6.988 20.284-15.676-2.58-11.414-9.384-13.065 15.64-11.267-5.87-14.965-.296-9.242-10.29 2.404-4.444 9.989-21.58-2.172-7.385 16.342-10 17.847 18.423 18.512 2.207 33.029 9.192z" data-name="Carpen" class="comuna" id="71536"/>
    <path d="M678.276 297.736l-18.824 3.781-9.41 15.338-15.914 7.328-12.787 14.405-23.325-7.462-4.415-6.365 5.05-7.64 20.943-28.138-10.784-18.3 23.886-.513 10.385 3.125 3.482 5.478 17.183-2.902 18.408 9.856-3.878 12.009z" data-name="Pielești" class="comuna" id="73629"/>
    <path d="M275.338 257.029l36.221 5.144-1.08 20.128-12.75 3.788-6.601 13.273-33.03-9.192-18.51-2.207-17.848-18.423-.196-8.499 15.07 5.632.974-13.647 8.856-.296 28.894 4.299z" data-name="Seaca de Pădure" class="comuna" id="74135"/>
    <path d="M377.27 273.807l-7.494 3.015-.407 12.934 4.182 13.61-6.814 13.059-50.435-7.038-20.326-3.643-4.848-6.382 6.601-13.273 12.75-3.788 1.08-20.128.003-9.366 10.82-1.282 6.02 3.43 18.69-3.014 24.898 2.449-.483 18.441 5.762.976z" data-name="Brabova" class="comuna" id="70986"/>
    <path d="M632.696 270.17l-23.886.512 10.784 18.301-20.944 28.137-9.464 1.893-14.753-2.382.358-5.924-8.916-8.61 16.569-14.345 14.996-12.176 7.519-10.066-9.944-18.103 5.14-9.34 28.444 7.209 9.495 4.579-5.398 20.315z" data-name="Ghercești" class="comuna" id="72409"/>
    <path d="M517.32 236.293l12.785 5.925-7.002 29.53-5.844 3.172-22.23 10.62-18.9-13.987 12.482-10.673-2.83-8.227 30.334-12.534 1.205-3.826z" data-name="Ișalnița" class="comuna" id="70094"/>
    <path d="M420.752 241.561l17.439 14.532 11.52 15.09 9.08 10.125-8.71 12.764-.176 7.871-14.578 6.29-.615 5.75-8.55.304-10.675-.34 1.238-10.109 8.374-27.661-8.478-2.983-.38-10.163-7.63-5.292-1.46-13.243 6.206-10.074 7.395 7.14z" data-name="Predești" class="comuna" id="73772"/>
    <path d="M407.15 244.496l1.461 13.243 7.63 5.292.38 10.163-13.637 10.773-8.062-8.217-17.653-1.943-5.762-.976.483-18.441-24.898-2.45-18.69 3.015-6.02-3.43-6.007-10.086 18.882-2.888 11.591-7.267 8.44-3.213 27.975 1.623 8.876 9.454 11.245-1.882 3.767 7.23z" data-name="Sopot" class="comuna" id="74242"/>
    <path d="M218.374 222.486L239.041 227l10.255 5.79 10.494-.96 2.441 10.255 13.456-1.47-.349 16.414-28.894-4.299-8.856.296-.975 13.647-15.069-5.632-9.657-4.494-18.18-15.95 6.778-9.19 10.304 8.314 7.585-17.235z" data-name="Botoșești-Paia" class="comuna" id="70968"/>
    <path d="M346.848 231.284l-11.59 7.267-18.883 2.888 6.007 10.086-10.82 1.282-.003 9.366-36.221-5.144.35-16.415-13.457 1.47-2.44-10.254 9.613-6.45 25.281-1.276 19.021-2.208 15.708 1.456 17.434 7.932z" data-name="Gogoșu" class="comuna" id="72604"/>
    <path d="M450.605 211.08l-9.101 7.954 27.849 15.605 16.427 18.014 2.831 8.227-12.483 10.673-26.418-.37-11.52-15.09-17.438-14.532-7.438-11.689 35.771-21.906 1.52 3.114z" data-name="Coțofenii din Dos" class="comuna" id="71910"/>
    <path d="M572.676 205.13l.035.045.945 18.263-13.732 5.335 3.714 21.173-2.958 18.098 21.764 19.708-16.57 14.345-11.23-13.262-9.851.277-9.296 8.187-17.504-15.406-.735-6.973 5.845-3.172 7.003-29.53-12.786-5.924-6.796-6.693 8.618-8.68 13.25-5.374-4.578-8.296 28.293-6.685 5.876 11.382 10.693-6.819z" data-name="Șimnicu de Sus" class="comuna" id="70174"/>
    <path d="M364.244 206.023l20.412 3.682 18.168 8.406 10.49 11.761 7.438 11.69-7.395-7.14-6.206 10.074-3.767-7.23-11.245 1.882-8.876-9.454-27.976-1.623-8.439 3.213-17.434-7.932-15.708-1.456-19.02 2.208 7.058-16.872 2.113-14.97 21.11 6.756 14.088.638 25.189 6.367z" data-name="Cernătești" class="comuna" id="71723"/>
    <path d="M469.353 234.64l-27.85-15.606 9.102-7.954 11.052-10.861 18.043-8.351 7.647 22.297-5.957 12.123-12.037 8.351z" data-name="Coțofenii din Față" class="comuna" id="74875"/>
    <path d="M510.524 229.601l6.796 6.692-1.205 3.826-30.335 12.534-16.427-18.014 12.037-8.351 5.957-12.124-7.647-22.296 4.413-4.466 12.453 16.205 8.376 23.164 5.582 2.83z" data-name="Almăj" class="comuna" id="70566"/>
    <path d="M306.083 188.754l-2.226 3.509-2.113 14.97-7.059 16.87-25.28 1.278-9.615 6.449-10.494.96L239.04 227l-20.667-4.514 3.646-5.74-11.047-6.586 2.212-12.347 20.106-4.514 7.243-4.395 7.357-1.339.419 18.162 34.875.31 18.097-19.369 4.801 2.086z" data-name="Grecești" class="comuna" id="72819"/>
    <path d="M433.777 195.938l15.308 12.028-35.771 21.906-10.49-11.76-18.168-8.407-20.412-3.682 6.043-7.686-1.68-14.672 8.986-.06 18.85 6.117 16.832 8.466 13.514-4.941 6.988 2.691z" data-name="Scăești" class="comuna" id="74073"/>
    <path d="M306.083 188.754l-4.801-2.086-18.097 19.37-34.875-.31-.419-18.163-7.357 1.339-2.325-11.569 19.627-4.475 6.782 8.694 26.154-2.345 10.165 2.89 5.146 6.655z" data-name="Secu" class="comuna" id="74171"/>
    <path d="M572.676 205.13l-10.693 6.818-5.876-11.382-28.293 6.685 4.577 8.296-13.25 5.374-8.616 8.68-5.583-2.83-8.376-23.164-12.453-16.206-8.875-7.085-.45-13.111 35.71 1.581 33.905-14.607 10.77 20.12 11.703 13.825 5.8 17.005z" data-name="Goiești" class="comuna" id="72677"/>
    <path d="M333.535 154.732l13.175 20.797 30.883 8.075-8.985.06 1.68 14.673-6.044 7.686-25.19-6.367-14.087-.638-21.11-6.755 2.226-3.509-5.146-6.655-10.165-2.89-26.154 2.345-6.782-8.694 2.637-11.159-14.87-3.781-.725-7.378 17.958-6.057 15.563-.57 11.513 12.496 11.234-12.543 13.188-1.235 19.201 12.1z" data-name="Argetoaia" class="comuna" id="70744"/>
    <path d="M438.711 136.66l2.685 6.102 15.925-3.362 8.772 18.095 8.695 9.71.45 13.111 8.875 7.085-4.413 4.467-18.043 8.35-11.052 10.862-1.52-3.114-15.308-12.028 3.036-5.794-7.265-11.443-23.232-4.611 10.63-18.504 15.461-10.74 6.304-8.186z" data-name="Brădești" class="comuna" id="71055"/>
    <path d="M495.842 112.675l4.08 12.773 15.18.422 9.606 13.812 13.963 7.306 5.732 7.19-33.906 14.608-35.71-1.581-8.694-9.71-8.772-18.095-15.925 3.362-2.685-6.102-7.318-23.734 13.192-4.929 14.037-4.275 19.1-1.732 11.96 2.07 6.16 8.615z" data-name="Melinești" class="comuna" id="73102"/>
    <path d="M444.585 107.997l-13.192 4.93 7.318 23.733-6.304 8.187-15.46 10.74-10.63 18.503-17.305-16.273-1.055 7.803-11.754-4.333-10.847 2.815-28.44-13.047 3.97-8.283 13.27-7.474 1.841-13.076 5.99-6.859 19.864-.9 7.467-16.293 41.246-9.799 5.174 11.915 8.847 7.711z" data-name="Filiași" class="oras" id="70414"/>
    <path d="M595.938 173.78l7.532 7.068-11.267 13.3-11.35 9.725-8.142 1.302-.035-.046-5.8-17.005-11.702-13.824-10.771-20.121-5.732-7.191-13.963-7.306-9.606-13.812 11.722-.504 7.008-17.067-3.533-8.716 1.427-18.79 9.207-7.802 10.005-3.81 10.094 12.774.24 12.896 6.825 12.394-.636 13.466 10.296 10.2 1.448 19.073 8.804 11.146-1.631 6.742 9.56 5.907z" data-name="Murgași" class="comuna" id="73371"/>
    <path d="M492.837 311.913l14.123 10.576 13.565 23.858 7.16 10.957-13.944 11.754-10.89 4.286-7.292-6.062-6.698 10.019-17.61 5.346-8.838-13.578 3.134-21.923-28.536-2.83-12.371-3.499 1.522-26.53 8.55-.303 3.064 8.134 17.526.413 11.97-5.041 8.568 2.054 16.997-7.631z" data-name="Bucovăț" class="comuna" id="69964"/>
    <path d="M336.916 151.055l28.44 13.047 10.847-2.815 11.754 4.333 1.055-7.803 17.304 16.273 23.232 4.61 7.265 11.444-3.036 5.794-6.988-2.691-13.514 4.94-16.832-8.465-18.85-6.118-30.883-8.075-13.175-20.797 3.381-3.677z" data-name="Braloștița" class="comuna" id="71126"/>
    <path d="M595.015 247.407l9.944 18.103-7.52 10.066-14.995 12.176-21.764-19.708 2.958-18.098-3.714-21.173 13.732-5.335-.945-18.263 8.142-1.302 11.35-9.725 11.054 8.988-4.744 15.736-7.819 12.624 4.32 15.911z" data-name="Mischii" class="comuna" id="73246"/>
    <path d="M508.701 599.066l8.378 1.342 1.967 13.468-2.723 21.929-11.688-1.78-.971 7.012-14.582-.347-3.028 5.525-22.023-5.527 3.287-21.302 7.97.697 2.475-16.438 22.262 3.266 8.676-7.845z" data-name="Măceșu de Sus" class="comuna" id="73013"/>
    <path d="M635.892 508.995l12.57 13.105 11.846-6.04-1.69 24.877 26.644 6.507 3.404 22.266 4.286 10.825-23.147-8.189-2.414 7.66-19.342-6.746-11.483-4.15-4.813-10.056-5.288-10.245 2.793-7.974-13.598-4.877-30.323 7.606.706-23.427 9.203-3.641.311 3.955 21.642 7.68 12.373-5.756 6.32-13.38z" data-name="Mîrșani" class="comuna" id="73317"/>
    <path d="M631.753 559.054l-15.416-5.17-14.527.787-8.395 4.095-8.078-15.202 30.323-7.606 13.598 4.877-2.793 7.974 5.288 10.245zm-5.676-59.151l11.54 4.609-1.725 4.483-6.32 13.38-12.373 5.756-21.642-7.68-.311-3.955.366-4.911 16.329-15.903 14.136 4.22z" data-name="Rojiște" class="comuna" id="74949"/>
    <path d="M621.518 437.203l20.808 11.606-9.344 25.083 1.736 7.465-8.64 18.546-14.137-4.221-16.33 15.903-11.592-.837-1.134-15.53 2.59-25.974-8.255 1.763-1.203-7.841 11.012-14.307 34.042-11.88.447.224z" data-name="Bratovoești" class="comuna" id="71199"/>
    <path d="M701.57 460.889l-8.686 22.09-10.17-2.613-11.052 18.385-20.366 7.552-13.68-1.791-11.538-4.61 8.64-18.545-1.736-7.465 9.344-25.083 8.642-7.755 14.693 4.993 3.965-7.228 11.115 5.924 4.768-9.207 7.72 3.652-5.116 10.083 14.705 7.406-1.248 4.212z" data-name="Castranova" class="comuna" id="71572"/>
    <path d="M454.83 423.308l-3.327 11.346 4.428 9.815-27.112 17.741-14.984-11.79-3.403 1.88-5.772-7.866-1.203-10.381-9.852-5.25 1.598-15.688-4.97-8.406 2.303-9.262 23.12 9.795 7.746.167L436.989 417l-4.408 10.22 7.73 3.207 7.21-8.15 7.308 1.032z" data-name="Radovan" class="comuna" id="73852"/>
    <path d="M464.776 477.543l-26.905 35.145-16.898-.787-12.932-5.362 21.766-30.762-.988-13.567 27.112-17.741 2.632 13.892 5.99 9.305.224 9.877z" data-name="Lipovu" class="comuna" id="72953"/>
    <path d="M428.819 462.21l.988 13.567-21.766 30.762-12.008-.379-8.81-.287 4.402-13.585.3-14.138-5.629-5.658 9.969-8.625 15.813-7.031-1.646-4.536 3.403-1.88 14.984 11.79z" data-name="Întorsura" class="comuna" id="74923"/>
    <path d="M201.241 581.48l-10.75 21.23-6.07 20.518 14.043 2.995-11.33 17.824 6.563 6.905-1.261 24.866 4.248 18.73-35.629 15.273.044-27.285 8.639-4.155-12.94-10.055 6.71-8.793.781-23.025 5.665-6.142 5.624-15.19 18.063-37.339 7.6 3.644z" data-name="Piscu Vechi" class="comuna" id="73665"/>
    <path d="M237.69 594.1l37.896 7.843-5.497 31.285 8.598 7.248 9.12 37.723-17.454-.99-29.827 1.753-12.025 5.625-3.734-22.717-1.27-20.205 8.958-17.839 5.236-29.725z" data-name="Rast" class="comuna" id="73905"/>
    <path d="M218.542 362.935l-.625 10.729 4.555 20.665 7.735 5.48-11.41 8.1-1.784 12.426-9.28 3.886-14.917.414-4.247-11.392-25.789-1.126-12.468-7.811 9.79-13.812-9.885-4.354 2.065-13.603-4.542-2.119 3.052-15.01 8.066-.046 4.57-16.715 21.443 8.078 7.372-.36-4.747 15.376 9.622-1.128 16.414 8.432 5.01-6.11z" data-name="Plenița" class="comuna" id="73709"/>
    <path d="M217.013 420.335l5.766 9.724-.361 22.542-.919 9.774-17.14-.566.231-8.09-42.116-3.07-4.84-8.205 5.146-30.327 25.79 1.126 4.246 11.392 14.916-.414 9.281-3.886z" data-name="Unirea" class="comuna" id="74536"/>
    <path d="M620.037 714.347l-11.456 29.141-4.716 1.29-4.773 16.715-20.594-4.001-23.62-10.28-11.338-7.588 5.268-9.894 8.021 2.498 7.22-21.438.87-14.281 4.833-5.169 12.245 10.954 4.895-20.951-.672-2.018 22.32-3.482-.288 9.71 15.71 9.75-3.925 19.044z" data-name="Ostroveni" class="comuna" id="73567"/>
    <path d="M556.72 358.755l-4.692 22.208 13.118.89-19.68 13.804 1.162 6.62-14.53 1.89-10.032-5.162-10.932 2.712-15.303-5.105-.54 13.16-26.109-8.704 2.07-18.421 17.61-5.346 6.697-10.019 7.291 6.062 10.89-4.286 13.945-11.754-7.16-10.957 6.527-7.656 10.644-.745 19.025 20.81z" data-name="Podari" class="comuna" id="70110"/>
    <path d="M541.908 56.352l-23.399 9.735-8.415-3.702-.135-10.38-7.736-5.603L507.19 35.2l-5.773-14.608.03-10.696L505.348 1l14.115 10.685 18.117 1.946 5.39 25.728-1.063 16.993z" data-name="Tălpaș" class="comuna" id="74956"/>
    <path d="M541.908 56.352l-.975 16.639-9.207 7.802-1.427 18.79 3.533 8.716-7.008 17.067-11.721.504-15.18-.422-4.08-12.773 4.975-9.932-3.152-7.958 5.437-14.708-6-23.443 5.12-10.232 7.736 5.604.135 10.379 8.415 3.702 23.4-9.735z" data-name="Fărcaș" class="comuna" id="72276"/>
    <path d="M232.455 623.826l-8.957 17.839 1.27 20.205 3.733 22.717-9.859 1.193-21.958 8.769-4.248-18.731 1.26-24.866-6.563-6.905 11.33-17.824 20.852-5.227 13.14 2.83z" data-name="Ghidici" class="comuna" id="74907"/>
    <path d="M729.033 649.216l7.156-6.129 33.446 11.776-2.2 7.89 11.506 4.01-1.664 16.669-15.513-5.257 1.357 8.986-5.374 15.19-.216 12.831-8.892 1.324-11.546-4.056-10.047 29.494-4.934.522-9.962 58-14.732-2.195-17.214-14.433 4.83-12.88-2.078-9.662-.056-41.94 10.705-30.749-30.654-10.682 6.62-6.408 8.136-23.162 26.941 9.294 5.344-15.2 19.041 6.767z" data-name="Dăbuleni" class="oras" id="72007"/>
    <path d="M795.228 588.269l-.611 6.683-2.954 7.069-10.438-3.342-5.246 15.518 10.254 3.54 2.363 9.08-11.137 30.748 4.231 1.536-2.75 7.662-11.505-4.01 2.2-7.89-33.446-11.776-7.156 6.13 5.425-15.34 5.178-15.238-13.76-9.173 5.501-15.631 31.89 6.9 5.37-15.065 8.877-3.64 17.714 6.239z" data-name="Amărăștii de Jos" class="comuna" id="70637"/>
    <path d="M595.938 173.78l-9.56-5.908 1.63-6.742-8.803-11.146-1.448-19.073-10.296-10.2.636-13.466-6.824-12.394-.24-12.896-10.095-12.774 5.774-3.89 20.926 13.055 24.2 4.41-9.341 8.258 8.42 31.273 7.14-2.858 5.362 15.621 4.16 23.465.856 1.044-12.645 10.472-9.852 3.748z" data-name="Bulzești" class="comuna" id="71340"/>
  </g>
</svg>
