<svg xmlns="http://www.w3.org/2000/svg" version="1.2" baseProfile="tiny" stroke-linecap="round" stroke-linejoin="round" viewBox="0 0 800 804">
  <g id="DJ" fill="none" stroke="#aaa">
    <path d="M637.982 720.43l4.87 26.925-5.248 21.328-36.755-4.956 9.517-18.058 11.489-29.227 16.127 3.988z" id="70879"/>
    <path d="M682.199 786.137l-44.595-17.454 5.249-21.328-4.871-26.925 8.603-25.385 13.07.228 5.24-15.36 30.744 10.714-10.736 30.838.056 42.064 2.084 9.69-4.844 12.918z" id="71607"/>
    <path d="M465.267 643.394l.86 20.07-7.173 30.443-7.89.56-.379 31.433-13.201 1.86-21.116-4.83-20.822-11.9 19.164-36.717-8.644-6.985 9.121-19.655 17.14-8.377 32.94 4.098z" id="74867"/>
    <path d="M588.613 683.341l-4.91 21.013-12.28-10.986-12.962 41.008-13.327 7.417-25.463-8.463-8.414-12.046-27.528-2.672-20.721 3.407 32.764-53.333 19.344-1.499 7.125-28.897 28.92 3.63-1.922 30.021 39.374 11.4z" id="72463"/>
    <path d="M517.837 637.67l4.404.62-7.125 28.897-19.344 1.499-32.764 53.333-12.323 3.881.38-31.432 7.89-.561 7.172-30.443-.86-20.07.124-.827 22.088 5.543 30.358-10.44z" id="72980"/>
    <path d="M121.874 717.829l-15.484-6.454-39.448-8.364 3.201-21.016 19.9-50.59 38.041 17.548-2.639 24.075 4.001 10.554-7.572 34.247z" id="72034"/>
    <path d="M595.602 618.46l23.548 2.179 17.012 5.752 8.917 11.647 34.615 12.218-8.16 23.23-6.64 6.427-5.24 15.36-13.069-.228-8.603 25.385-16.127-3.988 3.937-19.1-15.757-9.778.29-9.739-22.387 3.493 3.601-51.576-7.214-7.06 11.277-4.222z" id="73996"/>
    <path d="M584.325 622.681l7.214 7.061-3.6 51.576.674 2.023-39.374-11.4 1.923-30.021-28.921-3.63-4.404-.62 2.73-21.994 37.5 5.18 26.258 1.825z" id="72579"/>
    <path d="M415.187 647.673l-9.12 19.655 8.643 6.985-19.164 36.717-15.66-15.117-28.441-7.528-17.286-8.455-2.45-5.796 5.583-29.397 9.861-37.17 10.193-1.092 19.255-1.835 5.052 19.61 35.015-3.22-1.48 26.643z" id="70897"/>
    <path d="M310.213 679.52l-21.564.668-9.146-37.834-8.624-7.269 5.513-31.377 29.455 4.8.999-7.168 9.099 1.221-5.315 41.183-.417 35.776z" id="73460"/>
    <path d="M479.163 605.415l-2.482 16.486-7.993-.698-3.297 21.364-.124.827-32.94-4.098-17.14 8.376 1.481-26.641-35.015 3.22-5.052-19.611 1.04-.269 29.31-8.202.726 7.605 18.176 6.438 22.594-.04.959-7.238 29.757 2.481z" id="72640"/>
    <path d="M347.153 607.568l-9.861 37.169-5.582 29.397 2.45 5.796-23.947-.41.417-35.775 5.315-41.184-9.099-1.221.854-7.182 31.795 4.9 7.658 8.51z" id="74842"/>
    <path d="M100.085 600.622l-10.043 30.784-19.899 50.59-3.201 21.015-13.533-8.409-21.834-4.591-15.729-7.832L3 662.059l-1.936-10.956 18.366 3.894 12.8 7.812 10.287-1.646 6.024-9.379-15.04-6.416L58.469 598l16.174-2.638 7.166-8.9 18.277 14.16z" id="71858"/>
    <path d="M213.887 585.525l25.128 3.968-.63 6.35-5.25 29.813-13.178-2.839-20.914 5.242-14.084-3.003 6.09-20.578 10.78-21.293 12.058 2.34z" id="74108"/>
    <path d="M694.984 582.238l11.06 3.881.197 13.017 6.087 6.654-7.888 22.934 32.172 7.012-5.44 15.384-19.098-6.788-5.36 15.246-27.02-9.322-34.615-12.218-8.917-11.647.284-13.058 13.504-38.392 19.398 6.766 2.421-7.683 23.215 8.214z" id="71956"/>
    <path d="M734.976 572.757l-1.454 22.819-5.517 15.677 13.8 9.2-5.192 15.283-32.173-7.012 7.888-22.934-6.087-6.654-.197-13.016 3.548-18.99 25.384 5.627z" id="74883"/>
    <path d="M504.778 569.415l9.943 1.94-4.528 29.468-8.703 7.867-22.327-3.275-29.757-2.48-.96 7.237-22.593.04-18.176-6.438-.726-7.606-29.31 8.203 1.803-16.048 17.863-6.038 16.907-14.66 15.53-2.673 28.28 7.177.953-4.392 29.82 4.509 15.981-2.83z" id="70940"/>
    <path d="M184.964 575.451l9.242 4.08-29.437 58.844-.784 23.092-6.73 8.82 4.314 14.25-.044 27.366-39.65 5.926 7.571-34.247-4.001-10.554 2.64-24.075-38.043-17.547 10.043-30.784 13.855-22.577 20.703-10.402 6.821 6.302 10.238-9.235 25.078 17.728 8.184-6.987z" id="73736"/>
    <path d="M751.266 563.204L799 570.77l-1.44 19.223-17.765-6.256-8.904 3.65-5.385 15.11-31.984-6.921 1.453-22.82 16.291-9.552z" id="70673"/>
    <path d="M633.606 560.693l4.827 10.086 11.517 4.162-13.505 38.392-.283 13.058-17.012-5.752-23.548-2.18 6.784-3.693 6.017-28.351-21.57-17.12-.765-7.591 9.087-1.3 22.989-4.895 15.462 5.184z" id="72098"/>
    <path d="M529.958 553.597l56.11 8.107.764 7.59 21.571 17.12-6.017 28.352-6.784 3.694-11.277 4.221-26.258-1.826-37.5-5.18-1.973-13.506-8.401-1.346 4.528-29.467-9.943-1.94 2.7-19.145 22.48 3.326z" id="74581"/>
    <path d="M141.464 573.945l-6.82-6.302-20.704 10.402-13.855 22.577-18.277-14.16-7.166 8.9L58.468 598l-24.966 47.368 15.04 6.416-6.026 9.38-10.286 1.645-12.8-7.812-18.366-3.894L1 644.242l14.095-28.5 10.514-44.474 7.492-7.743 44-11.85 19.245-1.535 15.285-18.521 11.295 5.982 5.362 9.787 10.505.516 2.671 26.04z" id="70352"/>
    <path d="M396.974 521.89l8.543.296-.285 18.997 25.649.877-1.137 22.892-15.53 2.674-16.907 14.659-17.863 6.038-1.802 16.048-1.04.269-19.256 1.835 3.8-30.382 11.036-7.105 11.172-23.462-10.433-5.457 6.705.106.292-18.934 17.056.65z" id="74554"/>
    <path d="M328.101 525.473l-.482 13.024 16.155.515 19.48 10.056 9.667-9 10.433 5.458-11.172 23.462-11.037 7.105-3.799 30.382-10.193 1.093-7.658-8.51-31.795-4.9 4.63-24.514 6.577 2.253 1.087-52.556 8.107 6.132z" id="70520"/>
    <path d="M409.237 508.024l12.969 5.377 16.948.79-.464 21.847 13.452 3.628 16.882-12.508 7.077 9.235 16.342-.687 4.493 12.878 10.542 1.687-2.7 19.144-15.982 2.83-29.819-4.508-.954 4.392-28.279-7.177 1.137-22.892-25.649-.877.285-18.997-8.543-.296.22-14.246 12.043.38z" id="72533"/>
    <path d="M388.358 507.356l8.836.288-.22 14.246-17.056-.65-.292 18.935-6.705-.106-9.667 8.999-19.48-10.056-16.155-.515.482-13.024 10.353.18 6.834-12.705 13.29-6.473 29.78.88z" id="74224"/>
    <path d="M299.535 518.356l20.46.985-1.088 52.556-6.577-2.253-4.63 24.514-.854 7.182-1 7.169-29.454-4.801-38.006-7.865.629-6.35-25.127-3.968 16.845-33.269-14.399-6.338 21.413-42.683 20.98 1.2-.45 12.504 41.258 1.417z" id="70316"/>
    <path d="M169.25 485.693l4.179 14.013 20.16 20.656-.642 13.308 6.35 13.036-14.333 28.745-8.184 6.987-25.078-17.728-10.238 9.235-2.671-26.04-10.505-.517-5.362-9.787-11.295-5.982 9.116-21.502L155.53 499.1l.959-13.616 12.761.208z" id="73031"/>
    <path d="M466.139 478.943l3.497 13.63 16.662 10.765 13.574 14.495-7.43 17.873-16.34.687-7.078-9.235-16.882 12.508-13.452-3.628.464-21.847 26.985-35.248z" id="71698"/>
    <path d="M755.68 517l1.656 15.224-6.07 30.98-16.29 9.553-25.384-5.628-3.548 18.99-11.06-3.881-7.713-33.189 9.723-26.872 9.71-2.897 12.773-39.953 11.966-2.334 8.638 2.57-4.813 15.837 22.335 5.479L755.681 517z" id="71634"/>
    <path d="M387.428 473.877l5.646 5.674-4.716 27.805-29.78-.88-13.29 6.472-6.834 12.704-10.353-.179-8.107-6.132-20.46-.986 4.023-11.412 29.409 1.052.802-16.55 7.578-.335.745-17.963 2.618-.091 18.048.627 6.162 9.153 14.15-2.559 4.359-6.4z" id="71812"/>
    <path d="M342.091 473.147l-.745 17.963-7.578.336-.802 16.55-29.409-1.053-4.366-13.01 12.975-22.833 12.646 4.77 17.28-2.723z" id="74891"/>
    <path d="M597.358 513.084l-.367 4.926-9.23 3.651-.708 23.497 8.102 15.246-9.087 1.3-56.11-8.107-.472-18.201 4.628-32.298 11.368-4.446 22.067-.486-12.426-18.8 1.88-8.133 21.91 1.155 8.279-1.769-2.598 26.051 1.137 15.575 11.627.84z" id="72221"/>
    <path d="M730.521 471.749l.922 5.244-11.966 2.334-12.773 39.953-9.71 2.897-9.723 26.872-26.721-6.526 1.695-24.95-11.882 6.057-12.606-13.143 1.73-4.496 13.719 1.796 20.425-7.575 11.085-18.438 10.2 2.62 8.711-22.155 26.894 9.51z" id="70726"/>
    <path d="M312.166 471.1l-12.975 22.833 4.366 13.01-4.022 11.413-41.257-1.417.45-12.504-20.98-1.2 8.893-10.617.775-19.036 20.126-13.84 6.649 6.06 20.986-6.893 7.004 17.411 9.985-5.22z" id="72383"/>
    <path d="M223.068 453.927l15.588.368 9.158 5.59-.398 13.697-.775 19.036-8.894 10.617-21.413 42.683 14.399 6.338-16.846 33.27-12.058-2.34-7.623-3.654-9.242-4.08 14.332-28.746-6.35-13.036.642-13.308-20.16-20.656-4.179-14.013.647-14.694-8.095-.297 1.147-18.733 42.24 3.08-.232 8.113 17.19.568.922-9.803z" id="73335"/>
    <path d="M555.123 479.366l12.425 18.8-22.066.486-11.368 4.446-4.628 32.298.472 18.2-22.48-3.325-10.542-1.687-4.493-12.878 7.43-17.873-13.575-14.495-16.662-10.766-3.497-13.63-8.872-33.17 9.795.01 38.96 11.269 4.487-3.082 20.352 5.79-1.549 15.675 25.811 3.932z" id="70502"/>
    <path d="M158.095 443.74l4.853 8.23-1.147 18.732 8.095.297-.647 14.694-12.761-.208-.959 13.616-34.782 11.016-11.558-20.379-18.167-6.983-15.463-.967 11.296-19.602 12.304-11.803 1.091-14.137 44.373 2.008 13.472 5.487z" id="71787"/>
    <path d="M777.456 437.777l5.883.877-8.18 37.18 6.587 9.556-2.923 31.32-23.142.29 1.922-16.121-22.335-5.479 4.813-15.836-8.638-2.57-.922-5.245 5.107-25.196 13.685-4.042 2.53-7.634 25.613 2.9z" id="72052"/>
    <path d="M308.373 426.31l4.347 11.89-16.515 6.549-1.028 14.16-20.986 6.893-6.65-6.06-20.125 13.84.398-13.697-9.158-5.59 7.815-23.23 27.514-21.831 20.086 13.55 14.302 3.525z" id="72882"/>
    <path d="M349.416 425.757l.647 14.868-9.336 12.197 3.982 20.234-2.618.091-17.28 2.724-12.645-4.771-9.985 5.22-7.004-17.411 1.028-14.16 16.515-6.55-4.347-11.89-5.124-12.975 25.954-9.692 20.213 22.115z" id="72506"/>
    <path d="M382.494 402.675l8.882 3.22 4.985 8.43-1.603 15.734 9.882 5.265 6.995 18.301-24.207 20.252-4.36 6.4-14.149 2.559-6.161-9.153-18.049-.627-3.982-20.234 9.336-12.197-.647-14.868 17.252.878 5.543-21.933 10.283-2.027z" id="73594"/>
    <path d="M496.743 410.972l-.19 9.373 16.4 3.465 19.938-3.57 25.783 8.794 7.336 28.006-9.008 14.193-1.879 8.133-25.811-3.931 1.549-15.676-20.352-5.79-4.487 3.082-38.96-11.268-9.795-.012-4.44-9.843 3.335-11.38 14.395-22.305 26.186 8.73z" id="71457"/>
    <path d="M622.892 438.26l-34.142 11.914-11.044 14.35 1.207 7.864-21.91-1.155 9.006-14.193-7.335-28.006 13.286-6.192-8.2-9.484 5.866-11.695 34.02 8.173 7.333 10.45-2.069 10.256 13.982 7.718z" id="74322"/>
    <path d="M269.535 407.442l4.45 1.792-27.514 21.831-7.815 23.23-15.588-.368.362-22.607-5.782-9.754 1.789-12.462 11.443-8.123 8.885-3.26 29.77 9.72z" id="71518"/>
    <path d="M637.38 402.277l-14.04 36.207-.448-.224-13.982-7.718 2.07-10.256-7.335-10.45-34.019-8.173-.74-9.215 19.475 3.594 14.808-1.927 17.022 1.246 17.19 6.916z" id="74915"/>
    <path d="M568.887 392.448l.74 9.215-5.867 11.695 8.2 9.484-13.286 6.192-25.783-8.793-19.938 3.57-16.4-3.466.19-9.373.542-13.198 15.347 5.12 10.964-2.72 10.062 5.177 33.145-22.379 2.084 9.476z" id="74509"/>
    <path d="M777.456 437.777l-25.613-2.9-2.53 7.634-13.685 4.042-37.976-21.055 15.486-27.352 14.606 8.077 7.139-29.239 47.523 15.155 1.362 11.747-7.59 26.758 1.278 7.133z" id="74411"/>
    <path d="M316.978 395.175l12.225 8.467-25.954 9.692 5.124 12.975-14.302-3.525-20.086-13.55-4.45-1.792 15.534-31.984 22.385 9.896 9.524 9.82z" id="74732"/>
    <path d="M666.173 373.294l4.639.388 42.326 24.464-15.486 27.352 37.976 21.055-5.107 25.196-26.894-9.51-13.496-11.651-18.541-10.483-3.977 7.25-14.736-5.008-8.667 7.777-20.87-11.64 14.04-36.207 18.95-34.399 9.843 5.416z" id="72926"/>
    <path d="M472.633 383.768l-2.076 18.475-14.395 22.305-17.892-6.328-13.628-11.623-7.768-.167-23.188-9.825-2.31 9.29-8.882-3.22 3.552-28.69-13.876-16.715 24.625 11.05 2.132-15.599 10.302.676 2.994-10.972 13.66-.61 41.029 6.348-3.144 21.987 8.865 13.618z" id="74750"/>
    <path d="M656.33 367.878l-18.95 34.4-17.19-6.917-17.02-1.246-11.948-20.143 17.057-4.458 5.272-15.233 8.47.86 5.404-13.843 25.539 9.857-4.277 12.346 7.643 4.377z" id="71885"/>
    <path d="M571.46 341.365l16.81 15.725 2.952 16.882 11.947 20.143-14.808 1.927-19.474-3.594-2.084-9.476-13.157-.893 4.707-22.273-4.11-10.55 3.903-10.982 13.315 3.09z" id="73068"/>
    <path d="M372.17 357.27l13.876 16.715-3.552 28.69-10.283 2.027-5.543 21.933-17.252-.878-20.213-22.115-12.225-8.467 10.355-36.654 22.665 2.237 7.014-23.395 14.965 11.675.193 8.232z" id="74028"/>
    <path d="M734.883 376.984l-7.14 29.24-14.605-8.078-42.326-24.464-4.639-.388 20.08-34.105 18.057-8.145 12.947 5.475 1.365 26.346 19.835 2.813-3.574 11.306z" id="72150"/>
    <path d="M595.341 325.712l4.428 6.384 23.394 7.483 4.262 1.72-5.404 13.841-8.47-.86-5.272 15.234-17.057 4.458-2.952-16.882-16.81-15.725-2.145-16.149 26.026.496z" id="74859"/>
    <path d="M271.599 326.683l-3.425 14.48 15.04 8.362 4.598 19.742-2.743 6.191-15.534 31.984-29.77-9.721-8.885 3.26-7.757-5.497-3.942-31.486.788-13.948 11.357-19.68 13.103-15.686 11.448 9.412 15.722 2.587z" id="73503"/>
    <path d="M367.81 317.351l23.005 6.17 5.935-10.694 19.954 2.04 10.707.34-1.527 26.608-13.661.61-2.994 10.972-10.302-.675-2.132 15.599-24.625-11.05-.193-8.233-14.965-11.675-20.81-4.117-22.575-10.265 3.6-12.688 50.584 7.058z" id="74359"/>
    <path d="M231.326 330.37l-11.356 19.68-.789 13.948-5.025 6.128-16.462-8.457-9.65 1.132-2.633-15.06-21.506-8.102 9.036-24.454 25.218-5.776 6.858 14.776 15.008.298 11.301 5.887z" id="74705"/>
    <path d="M296.842 306.64l20.386 3.653-3.601 12.688 22.576 10.265 20.81 4.117-7.015 23.395-22.665-2.237-10.355 36.654-9.524-9.82-22.385-9.897 2.743-6.191-4.599-19.742-15.039-8.362 3.425-14.48 7.008-20.344 18.235.3z" id="74616"/>
    <path d="M680.266 298.607l15.358 12.85 8.686 19.587-18.058 8.145-20.079 34.105-9.843-5.416-7.643-4.377 4.277-12.346-25.54-9.857-4.261-1.719 12.824-14.447 15.961-7.35 9.438-15.382 18.88-3.793z" id="73923"/>
    <path d="M417.841 273.993l8.504 2.992-9.64 37.882-19.955-2.04-5.935 10.694-23.004-6.17 6.835-13.097-3.787-26.622 7.515-3.024 17.705 1.948 8.085 8.242 13.677-10.805z" id="74931"/>
    <path d="M518.775 275.725l.736 6.993 17.556 15.45 9.323-8.21 9.88-.278 11.264 13.301 8.583 14.577 24.289.491-5.065 7.663-26.026-.496 2.146 16.149-13.315-3.091-3.904 10.981 4.111 10.551-19.08-20.87-10.677.746-6.545 7.68-13.605-23.929-14.164-10.607 4.216-11.122-2.018-15.329 22.295-10.65z" id="69900"/>
    <path d="M477.524 272.348l18.956 14.027 2.018 15.329-4.216 11.122-17.047 7.653-38.177 2.582-3.072-8.158 15.237-12.076 8.913-20.696-9.108-10.155 26.496.372z" id="71260"/>
    <path d="M291.98 300.238l4.862 6.401-18.235-.3-7.008 20.344-15.722-2.587-11.448-9.412-13.103 15.686-11.3-5.887-15.01-.298-6.857-14.776 10.017-21.644-2.178-7.407 16.39-10.03 17.9 18.477 18.566 2.215 33.126 9.218z" id="71536"/>
    <path d="M680.266 298.607l-18.88 3.793-9.438 15.382-15.96 7.35-12.825 14.447-23.394-7.483-4.428-6.384 5.065-7.663 21.005-28.22-10.816-18.355 23.956-.513 13.908 8.627 17.234-2.91 16.716 7.13-2.143 14.8z" id="73629"/>
    <path d="M276.144 257.78l36.327 5.16-1.083 20.188-12.787 3.798-6.62 13.312-33.127-9.218-18.566-2.215-17.9-18.476-.196-8.524 15.113 5.648.978-13.686 37.86 4.014z" id="74135"/>
    <path d="M378.374 274.608l-7.515 3.024 3.787 26.622-6.835 13.097-50.583-7.058-20.386-3.654-4.862-6.4 6.62-13.313 12.788-3.798 1.083-20.188 10.855-10.68 6.038 3.44 18.744-3.022 24.972 2.456-.484 18.496 5.778.978z" id="70986"/>
    <path d="M634.551 270.96l-23.956.514 10.816 18.355-21.005 28.22-24.288-.49-8.584-14.578 16.617-14.387 22.582-22.307-9.974-18.156 5.155-9.368 38.051 11.823-5.414 20.375z" id="72409"/>
    <path d="M518.837 236.985l12.822 5.942-7.022 29.616-5.862 3.182-22.295 10.65-18.956-14.027 12.52-10.704-2.84-8.252 30.424-12.57 1.209-3.837z" id="70094"/>
    <path d="M421.985 242.268l17.49 14.574 11.553 15.134 9.108 10.155-8.913 20.696-15.237 12.076-8.575.304-10.707-.34 9.641-37.882-8.504-2.992-8.033-15.5-1.464-13.281 13.641-2.944z" id="73772"/>
    <path d="M408.344 245.212l1.464 13.281 8.033 15.5-13.677 10.805-8.085-8.242-17.705-1.948-5.779-.978.485-18.496-24.972-2.456-18.744 3.023-6.038-3.44-6.025-10.115 18.938-2.897 11.625-7.288 8.464-3.223 28.058 1.628 8.902 9.481 15.056 5.364z" id="74242"/>
    <path d="M219.013 223.137l41.537 9.37L263 242.794l13.495-1.475-.35 16.463-37.861-4.014-.978 13.686-15.113-5.648-9.686-4.508-17.819-15.873 6.384-9.341 10.334 8.34 7.608-17.286z" id="70968"/>
    <path d="M347.864 231.96l-11.625 7.289-18.938 2.897 6.025 10.115-10.855 10.679-36.327-5.16.35-16.462L263 242.793l-2.449-10.285 9.643-6.468 25.355-1.281 34.83-.754 17.486 7.956z" id="72604"/>
    <path d="M451.925 211.697l-9.128 7.977 27.931 15.651 16.476 18.067 2.84 8.252-12.52 10.704-26.496-.372-11.553-15.134-17.49-14.574-7.46-11.724 35.876-21.97 1.524 3.123z" id="71910"/>
    <path d="M574.355 205.729l.035.046.948 18.316-13.772 5.35 3.724 21.236-2.967 18.15 21.828 19.767-16.617 14.387-11.264-13.301-9.88.278-9.323 8.21-17.556-15.45-.736-6.993 5.862-3.182 7.023-29.616-12.823-5.942-6.816-6.712 21.93-14.096-4.59-8.32 28.376-6.705 5.894 11.416 10.724-6.84z" id="70174"/>
    <path d="M365.31 206.625l20.473 3.693 18.222 8.431 10.52 11.795 7.46 11.724-13.641 2.944-15.056-5.365-8.902-9.481-28.058-1.628-8.464 3.223-17.485-7.956-34.831.754 7.08-16.92 2.118-15.014 21.173 6.774 14.129.64 25.263 6.386z" id="71723"/>
    <path d="M470.728 235.326l-27.93-15.652 9.127-7.977 11.085-10.893 18.096-8.376 7.67 22.363-5.975 12.158-12.073 8.376z" id="74875"/>
    <path d="M512.021 230.273l6.816 6.712-1.21 3.837-30.423 12.57-16.476-18.066 12.073-8.377 5.975-12.158-7.67-22.363 4.426-4.48 12.49 16.254 8.4 23.232 5.599 2.839z" id="70566"/>
    <path d="M306.979 189.306l-2.233 3.518-2.118 15.014-7.08 16.92-25.355 1.282-9.642 6.468-41.538-9.371-7.423-12.363 2.219-12.383 27.429-8.935 7.378-1.343.42 18.215 34.978.312 18.15-19.427 4.815 2.093z" id="72819"/>
    <path d="M435.048 196.51l15.353 12.064-35.876 21.97-10.52-11.795-18.222-8.43-20.472-3.694 6.06-7.708-1.684-14.716 9.012-.06 35.787 14.626 20.562-2.256z" id="74073"/>
    <path d="M306.979 189.306l-4.815-2.093-18.15 19.427-34.978-.311-.42-18.216-7.378 1.343-2.337-11.701 19.69-4.39 6.802 8.72 26.23-2.353 15.356 9.574z" id="74171"/>
    <path d="M574.355 205.729l-10.724 6.839-5.894-11.416-28.376 6.705 4.59 8.32-21.93 14.096-5.6-2.84-8.4-23.23-12.489-16.254-8.901-7.106-.451-13.15 35.814 1.586 34.005-14.65 10.802 20.18 11.737 13.865 5.817 17.055z" id="72677"/>
    <path d="M334.512 155.184l13.214 20.857 30.973 8.1-9.012.06 1.685 14.716-6.061 7.708-25.263-6.386-14.13-.64-21.172-6.774 2.233-3.52-15.356-9.573-26.23 2.353-6.803-8.72 2.645-11.192-9.937-10.943 12.307-6.323 17.008-.497 10.148 12.457 11.266-12.579 13.228-1.239 19.257 12.135z" id="70744"/>
    <path d="M439.997 137.059l2.692 6.12 15.972-3.373 8.798 18.149 8.72 9.738.452 13.15 8.901 7.106-4.426 4.48-18.096 8.375-11.085 10.893-1.524-3.123-15.353-12.063-4.24-17.288-23.301-4.625 10.661-18.558 21.829-18.981z" id="71055"/>
    <path d="M497.295 113.003l4.093 12.81 15.224.424 9.634 13.853 19.753 14.538-34.005 14.651-35.815-1.586-8.72-9.738-8.798-18.149-15.971 3.373-2.693-6.12-7.34-23.804 13.231-4.944 33.235-6.024 11.995 2.076 6.177 8.64z" id="73102"/>
    <path d="M445.888 108.311l-13.231 4.944 7.34 23.804-21.829 18.981-10.661 18.558-17.356-16.32-23.725 6.303-28.523-13.085 3.98-8.308 13.31-7.496 7.854-19.993 19.923-.903 7.489-16.34 41.344-9.84 14.085 19.695z" id="70414"/>
    <path d="M597.686 174.287l7.553 7.09-11.3 13.338-19.549 11.06-.035-.046-5.817-17.055-11.737-13.865L546 154.629l-19.753-14.54-9.634-13.852 11.757-.506 7.028-17.117-3.543-8.742 1.431-18.844 9.234-7.826 10.035-3.82 10.123 12.81.241 12.934 6.844 12.431-.637 13.506 10.326 10.23 1.452 19.129 16.783 23.865z" id="73371"/>
    <path d="M494.282 312.826l14.164 10.607 13.605 23.928 7.181 10.99-13.985 11.788-42.614 13.629-8.865-13.618 3.144-21.987-41.028-6.348 1.527-26.608 8.575-.304 3.072 8.158 38.177-2.582 17.047-7.653z" id="69964"/>
    <path d="M337.903 151.496l28.523 13.085 23.725-6.303 17.356 16.32 23.3 4.624 4.24 17.289-20.561 2.256-35.787-14.626-30.974-8.1-13.213-20.857 3.39-3.688z" id="71126"/>
    <path d="M596.76 248.131l9.973 18.156-22.582 22.307-21.828-19.766 2.967-18.151-3.724-21.235 13.772-5.35-.948-18.317 19.55-11.06 11.086 9.015-12.6 28.443 4.333 15.958z" id="73246"/>
    <path d="M510.193 600.823l8.401 1.346 1.974 13.507-2.731 21.993-30.358 10.441-22.088-5.543 3.296-21.365 7.994.699 2.482-16.486 22.327 3.275 8.703-7.867z" id="73013"/>
    <path d="M637.757 510.487l12.606 13.143 11.882-6.058-1.695 24.95 26.721 6.527 7.713 33.189-23.215-8.214-2.42 7.683-19.4-6.766-11.516-4.162-4.827-10.086-2.503-18.272-13.637-4.891-30.413 7.628.708-23.497 9.23-3.651 22.018 11.669 12.41-5.773 6.338-13.419z" id="73317"/>
    <path d="M633.606 560.693l-15.462-5.184-22.99 4.895-8.101-15.246 30.413-7.628 13.637 4.89 2.503 18.273zm-5.693-59.325l11.574 4.623-1.73 4.496-6.339 13.42-12.41 5.772-22.017-11.669.367-4.926 16.377-15.95 14.178 4.234z" id="74949"/>
    <path d="M623.34 438.484l20.87 11.64-9.372 25.157 1.741 7.487-8.666 18.6-14.178-4.233-16.377 15.95-11.626-.84-1.138-15.575 2.598-26.05-8.28 1.768-1.206-7.865 11.044-14.349 34.142-11.914.449.224z" id="71199"/>
    <path d="M703.627 462.24l-8.71 22.154-10.201-2.62-11.085 18.438-20.425 7.575-13.72-1.796-11.573-4.623 8.666-18.6-1.741-7.487 9.372-25.157 8.667-7.777 14.736 5.007 3.976-7.25 18.542 10.484 13.496 11.651z" id="71572"/>
    <path d="M456.162 424.548l-3.336 11.38 4.44 9.843-27.19 17.794-18.442-9.94-6.995-18.3-9.88-5.266 1.602-15.734-4.985-8.43 2.31-9.29 23.188 9.825 7.768.167 13.628 11.623 17.892 6.328z" id="73852"/>
    <path d="M466.139 478.943l-26.985 35.248-16.948-.79-12.97-5.377 21.83-30.852-.99-13.607 27.19-17.794 8.873 33.172z" id="72953"/>
    <path d="M430.075 463.565l.99 13.607-21.828 30.852-12.043-.38-8.836-.288 4.716-27.805-5.646-5.674 24.207-20.252 18.44 9.94z" id="74923"/>
    <path d="M201.83 583.185l-10.782 21.293-6.089 20.578 14.084 3.003-11.363 17.877 6.583 6.925-1.265 24.939 4.26 18.786-35.733 15.317.044-27.365-4.314-14.252 6.73-8.819.784-23.092 29.437-58.843 7.623 3.653z" id="73665"/>
    <path d="M238.386 595.843l38.006 7.865-5.513 31.377 8.624 7.27 9.146 37.833-47.42.765-12.06 5.642-5.018-43.049 8.984-17.89 5.25-29.813z" id="73905"/>
    <path d="M219.181 363.998l3.942 31.486 7.757 5.497-11.443 8.123-1.79 12.462-24.267 4.313-4.26-11.425-25.864-1.13-12.506-7.834 9.819-13.852-9.913-4.367-2.485-15.768 3.06-15.055 8.09-.045 4.584-16.764 21.506 8.101 2.633 15.061 9.65-1.132 16.462 8.457 5.025-6.127z" id="73709"/>
    <path d="M217.648 421.566l5.782 9.754-.362 22.607-.921 9.803-17.191-.568.232-8.113-42.24-3.08-4.853-8.228 5.16-30.416 25.865 1.129 4.26 11.425 24.268-4.313z" id="74536"/>
    <path d="M621.855 716.442l-11.49 29.227-9.516 18.058-20.655-4.014-35.06-17.92 13.327-7.417 12.961-41.008 12.281 10.986 4.91-21.013-.675-2.023 22.386-3.493-.288 9.739 15.756 9.779-3.937 19.099z" id="73567"/>
    <path d="M558.353 359.806l-4.707 22.273 13.157.893-33.145 22.38-10.062-5.178-10.964 2.72-15.347-5.12-.542 13.198-26.186-8.729 2.076-18.475 42.614-13.629 13.985-11.788-7.181-10.99 6.545-7.679 10.676-.746 19.081 20.87z" id="70110"/>
    <path d="M543.497 56.514l-23.468 9.764-16.334-19.743 4.982-11.235-7.103-22.864L506.83 1l14.157 10.717 18.17 1.951 5.406 25.804-1.066 17.042z" id="74956"/>
    <path d="M543.497 56.514l-.978 16.688-9.234 7.826-1.431 18.844 3.543 8.742-7.028 17.117-11.757.506-15.224-.424-4.093-12.81 1.83-17.942 5.453-14.752-6.018-23.511 5.135-10.263 16.334 19.743 23.468-9.764z" id="72276"/>
    <path d="M233.135 625.655l-8.984 17.891 5.018 43.048-31.91 9.991-4.26-18.785 1.264-24.939-6.583-6.925 11.363-17.877 20.913-5.242 13.18 2.838z" id="74907"/>
    <path d="M731.171 651.12l7.178-6.147 33.544 11.81 9.332 11.936-1.668 16.717-14.17 3.657-5.512 28.228-20.62-2.782-10.076 29.58-4.95.525-9.99 58.17-14.775-2.2-17.265-14.477 4.844-12.918-2.084-9.69-.056-42.064 10.736-30.838-30.744-10.714 6.64-6.427 8.16-23.23 27.02 9.322 5.36-15.245 19.096 6.787z" id="72007"/>
    <path d="M797.56 589.993l-3.575 13.793-10.468-3.352-5.262 15.564 13.905 8.694-12.42 34.801 1.485 9.226-9.332-11.935-33.544-11.811-7.178 6.147 5.441-15.384 5.193-15.283-13.8-9.2 5.517-15.677 31.984 6.921 5.385-15.11 8.904-3.65 17.766 6.256z" id="70637"/>
    <path d="M597.686 174.287l-16.783-23.865-1.452-19.129-10.326-10.23.637-13.506-6.844-12.43-.241-12.935-10.123-12.81 5.79-3.902 20.988 13.093 24.784 4.639-9.882 8.066 8.444 31.365 7.163-2.867 9.58 39.766-21.735 14.745z" id="71340"/>
  </g>
</svg>
