<svg xmlns="http://www.w3.org/2000/svg" version="1.2" baseProfile="tiny" stroke-linecap="round" stroke-linejoin="round" viewBox="0 0 800 683">
  <g id="GJ" fill="none" stroke="#aaa">
    <path d="M525.49 597.454l7.745 11.586-1.128 5.87 3.375 7.715 8.683 7.8-.08 3.833 6.613 10.058-5.715 1.282.988 5.746-5.501 5.263 3.163 11.243-.91 13.273-7.406-1.684-1.943-4.42-9.676-4.99.706-5.438-13.286-2.887 5.593-10.23-3.234-6.908-13.501-8.41 5.467-7.925-13.309 2.098-7.973-2.297-10.232-7.455 5.704-5.895 18.321 1.216 17.378-7.25-.834-6.28 8.759-7.939 2.232 3.025z" id="80560"/>
    <path d="M630.62 610.463l-2.617 6.1-.46 10 2.59 7.377-3.509 9.094-14.667 4.058-31.742 6.967-2.931 3.038-5.47 15.295-14.385 1.906-7.967-.893.21 8.48-6.949-.762.91-13.273-3.163-11.243 5.5-5.263-.987-5.746 5.715-1.282 6.294 2.24 2.26-5.698 12.273-8.497-1.019-7.946 10.085-1.732 18.93 2.471 7.224 2.536 9.636-4.913.678-11.015 5.214-12.668 9.174-6.963-2.396 14.12 1.569 4.212z" id="82680"/>
    <path d="M567.661 564.07l3.453 2.746.047 9.625 5.897 2.533-4.856 5.023 1.567 11.014 4.78 5.692-5.792 3.499 2.503 7.299-3.189 3.279-1.565 9.635 1.019 7.946-12.273 8.497-2.26 5.699-6.294-2.241-6.614-10.058.08-3.832-8.682-7.8-3.375-7.716 1.128-5.87-7.746-11.586 14.168-8.11.91-3.85-8.576-10.3-2.986-7.6 1.678-6.106 9.91 5.494 3.549-3.002 10.018 2.265 13.501-2.176z" id="79237"/>
    <path d="M679.664 570.519l-1.38 7.787 1.913 9.417-1.309 6.464-8.09 12.015-3.91 1.65 6.58 13.548-11.649-1.189-4.462 2.977-7.89-5.131-18.847-7.594-1.57-4.212 2.397-14.12 1.32-5.436 1.581-4.86-1.91-8.192 3.81-10.42-1.05-3.534 14.723-7.449 8.097 2.408 2.87 8.223 8.842-2.729 6.738 9.06 3.196 1.317z" id="82314"/>
    <path d="M457.695 599.12l-13.578-8.116-3.195-5.01-8.6 6.518-8.221-1.957-15.438-.991-18.372-6.853-12.257-.036 4.51-13.165-7.578-.451-3.621 2.649-12.186 1.488-11.445-2.712-1.437-2.935.529-8.87 3.834-7.29 9.85-5.06 7.86 4.932 6.48-1.156 9.417 3.159 6.373-.506-.197 5.89 15.156.1 4.835-1.722 3.624 4.832 9.489-3.879 4.216 1.234 9.187-12.394-1.67-4.417-12.276-12.376 23.104-2.74 1.072 7.22 5.864 4.322 5.488 10.617 9.718 1.422 4.828 7.754-.05 9.406 4.63 2.7-4.138 8.9.55 4.976-5.408 3.016-10.947 11.5z" id="79157"/>
    <path d="M371.943 529.3l-1.637 7.16-9.816 9.869-9.85 5.06-3.834 7.29-.53 8.87-2.274 7.613-12.983-2.633-4.34-4.764-6.592-.784-6.928-4.923-4.767-7.31-7.001-2.862-4.371-12.548-5.708-6.98 9.65-9.621 9.525-2.154 3.236-4.743-.845-8.048 16.482 2.85 13.172 5.293 2.873 5.457 7.74 3.502 8.939.177 9.86 4.228z" id="82779"/>
    <path d="M469.167 500.055l5.861 8.546-.233 7.28 11.117 2.233 1.048 6.518 7.328 6.034.888 9.677 4.98 10.519-2.358 9.056 5.351 11.305 10.779 11.71 13.044 7.304-3.715 4.192-8.76 7.94.835 6.28-17.378 7.25-18.321-1.217-5.704 5.895-13.99-9.234 1.155-4.906-3.399-7.318 10.947-11.5 5.409-3.016-.55-4.976 4.136-8.9-4.628-2.7.049-9.407-4.828-7.753-9.718-1.422-5.488-10.617-5.864-4.322-1.072-7.22-10.94-10.366-8.471-11.696.032-8.415 5.22 2.022 8.295 9.32 14.993-3.394 13.95-4.702z" id="82617"/>
    <path d="M422.984 530.026l12.276 12.376 1.67 4.417-9.187 12.394-4.216-1.234-9.49 3.88-3.623-4.833-4.835 1.721-15.156-.098.197-5.891-6.373.505-9.416-3.158-6.48 1.156-7.861-4.932 9.816-9.87 1.637-7.16 6.211-12.788.06-5.207-7.411-.764.823-4.414 10.37-5.628 2.126-4.454 6.475 4.9 3.117 8.116 17.61 8.986 3.27 6.975 8.39 5.005z" id="79077"/>
    <path d="M674.564 511.995l2.138 4.986-4.845 13.32-4.77 8.46-8.029-.616-3.24 2.584-6.833-1.154.936 12.665-14.722 7.449 1.048 3.534-3.809 10.42 1.91 8.192-1.58 4.86-10.543 3.073-2.148 3.16-7.621-6-2.998-15.501 3.452-1.823-3.198-13.132 3.753-18.217 6.718-3.643 1.035-7.288-3.61-7.929 1.474-5.904 3.59-10.86-2.238-10.307 7.81-.095 17.81 8.199 13.686 2.908 14.824 8.659z" id="79497"/>
    <path d="M312.878 507.792l.845 8.048-3.236 4.743-9.526 2.154-9.649 9.622-15.101-1.977-8.323-6.55-3.465-12.97 4.57-3.563-2.995-5.65 6.445-1.088 12.999-10.26-1.378-5.662-8.967-5.145-.772-8.89 11.647-3.866 9.204 12.625 4.554-1.16L300.894 489l11.646 3.033.338 15.758z" id="81656"/>
    <path d="M455.15 467.86l-7.26 3.214 7.53 7.807 5.34-4.915 7.268 10.015 5.043 11.714-3.904 4.36-13.95 4.702-14.993 3.394-8.296-9.32-5.219-2.022-3.208-5.658-7.594-6.393-5.815-2.174-6.326-7.326 14.127-14.508 11.372-2.34 17.619-7.275-.505 4.36 8.77 12.366z" id="82733"/>
    <path d="M680.75 451l-3.997 6.953 15.798 8.99 4.099 4.718-9.728 4.505-5.613 5.667-3.038 10.61-3.707 19.552-14.824-8.659-13.687-2.908-17.809-8.199-7.81.095-1.395-5.023 12.847-12.008 8.324-15.992 4.92 2.215 8.131-2.508 4.884 4.975 9.205-2.198 4.09-5.81-2.504-4.952 11.814-.022z" id="80506"/>
    <path d="M480.378 441.973l4.46 3.438 7.489 1.355 4.067 7.083 3.262 3.748 8.071 2.616 1.598 7.675 4.592 7.274 4.986 17.874 5.537 10.426-17.74 11.984-.157 7.594 3.087 5.935 5.106 3.493 4.82 11.368 5.724 1.915-.043 5.63 5.446 10.108-1.678 6.104 2.986 7.602 8.576 10.3-.91 3.849-14.168 8.11-2.232-3.025 3.715-4.192-13.044-7.304-10.779-11.71-5.35-11.305 2.356-9.056-4.979-10.519-.888-9.677-7.328-6.034-1.048-6.518-11.117-2.232.233-7.28-5.86-8.547 3.903-4.36-5.043-11.714-7.269-10.015-5.339 4.915-7.53-7.807 7.26-3.213 16.852-7.936 8.376-17.952z" id="81264"/>
    <path d="M583.74 514.891l12.125.06 7.666-2.686 4.08 3.046 11.471-1.82-1.473 5.904-6.639.033-7.85 8.335-6.886 2.963-9.905-.436-3.281-3.03-6.059 11.769 3.478 4.938-8.872 8.674.595 8.394-4.529 3.034-13.5 2.176-10.02-2.265-3.548 3.002-9.91-5.493-5.446-10.108.043-5.63-5.724-1.915-4.82-11.368-5.106-3.493-3.087-5.935.157-7.594 17.74-11.984-5.537-10.426-4.986-17.874-4.592-7.274-1.598-7.675-8.071-2.616-3.262-3.748 9.179-6.829 7.595 2.84 9.006-4.46.798-9.664 6.05-.032 3.251 9.09-.056 6.06 3.05 10.275-.677 4.1 5.828 4.209 3.158 12.453 3.825 7.898 3.782 1.43 1.51 15.937 17.168 5.692 13.88 2.043z" id="78604"/>
    <path d="M339.715 461.747l1.885 12.79 5.597 2.677 2.955 12.483 10.826 10.745 10.648 5.684-.823 4.414 7.412.764-.06 5.207-6.212 12.788-9.86-4.228-8.938-.177-7.74-3.502-2.873-5.457-13.172-5.293-16.482-2.85-.338-15.758L300.894 489l-1.164-10.798-4.554 1.16-9.204-12.625-11.647 3.865 1.438-6.718-1.945-4.88 3.624-11.097-5.289-5.863 8.146-8.235 3.074 3.293 7.764-1.75 7.487 2.727 4.348 6.117 3.092 13.957 12.574 4.575 2.26-2.973 8.255 4.239 10.562-2.248z" id="82047"/>
    <path d="M338.364 431.449l6.475 7.754-.12 3.31 10.022 6.108.272 3.208 12.317 8.984.47 4.975 10.552 11.689-5.104 6.034 5.96 3.425.45 6.56 4.464 2.548-2.125 4.454-10.371 5.628-10.648-5.684-10.826-10.745-2.955-12.483-5.597-2.678-1.885-12.789-5.845-10.08-9.01-5.274 6.264-12.555 7.24-2.39z" id="80249"/>
    <path d="M710.77 544.726l1.154-4.949-3.812-14.306 5.557-16.367-3.401-5.354 5.363-11.326 6.77-6.017 3.69-13.581-.92-9.664 3.753-3.162-1.689-7.234 3.737-2.643 8.05-11.516.68-16.87 5.763 5.093 6.217 13.868-2.257 10.188 5.192 8.519 3.317 10.318-3.047 2.681-3.882 13.358-5.606.973-3.638 15.772 1.778 10.618 4.302 6.34-2.639 5.131 2.897 6.06-2.21 6.136-.812 14.258 1.961 7.889-20.385-2.19-9.052-4.983-6.83-7.04z" id="80043"/>
    <path d="M553.711 420.8l11.284 1.301-.022 10.329 4.594 4.26-3.735 18.56 5.104 4.618 10.827 1.698 3.436 6.819 6.114 3.166-3.141 12.548-3.293-.35-2.314 12.91-4.308 8.457 6.644 4.65-1.16 5.125-13.88-2.043-17.169-5.692-1.51-15.937-3.781-1.43-3.825-7.898-3.158-12.453-5.828-4.208.677-4.101-3.05-10.274.056-6.06-3.251-9.091-6.05.032-1.106-4.688 4.545-8.091 14.333.841 2.332-2.775 10.635-.224z" id="81816"/>
    <path d="M625.91 417.217l3.36 14.393-1.361 7.229 4.373 5.38.793 5.636 7.135 9.446-8.324 15.992-12.847 12.008 1.395 5.023 2.239 10.307-3.59 10.86-11.471 1.82-4.081-3.046-7.665 2.687-12.125-.061 1.16-5.125-6.644-4.65 4.308-8.458 2.314-12.908 3.293.349 3.141-12.548-6.114-3.166 4.856-4.418-6.69-8.655 7.51-11.571 3.188.618 1.935-3.964 7.665-1.307 4.794-8.027.675-11.468 11.342-3.309 5.436.933z" id="82831"/>
    <path d="M229.677 410.838l2.83 11.376-2.587 4.465 2.455 4.52 19.234 4.311-2.021 16.862.38 12.458-11.507.515-4.676 6.097-5.027-1.506.944-6.402-21.14-13.508-11.086-23.53 4.834-4.603-3.113-7.77.553-9.47 12.61 2.828 1.035 7.796 16.281-4.439z" id="79585"/>
    <path d="M736.93 397.524l1.813 12.274-5.287 12.22 6.245-.28-.68 16.869-8.05 11.516-3.736 2.643 1.69 7.234-3.754 3.162.92 9.664-3.69 13.581-6.77 6.017-5.363 11.326 3.401 5.354-5.557 16.367 3.812 14.306-1.153 4.949-4.391 10.01-1.966-3.225-16.087-6.17-7.354 4.26-4.505 6.948 3.315 2.893-.12 11.077-3.195-1.316-6.737-9.061-8.843 2.73-2.87-8.224-8.097-2.408-.937-12.664 6.833 1.153 3.241-2.584 8.03.616 4.77-8.46 4.844-13.32-2.138-4.986 3.707-19.551 3.038-10.611 5.613-5.668 9.728-4.504 7.1-1.523 6.273-10.484 1.394-8.882 7.216-9.653.265-4.605 6.034-12.87-1.495-7.608 3.158-6.017 8.394-1.251-.927-5.899 2.867-5.345z" id="82243"/>
    <path d="M246.696 397.113l7.966 9.816 4.744 3.038 10.023 16.152 2.724 15.926 5.289 5.863-3.624 11.097 1.945 4.88-1.438 6.718.772 8.891 8.967 5.144 1.378 5.664-13 10.259-6.444 1.088 2.995 5.65-4.57 3.563-3.77-3.27.97-12.813-3.944-5.913-6.544-2.255-10.587-8.18-8.733 13.183-3.621-3.42-3.046-14.633 3.61-3.625 5.027 1.506 4.676-6.097 11.508-.515-.381-12.458 2.02-16.862-19.233-4.31-2.455-4.521 2.587-4.465-2.83-11.376 12.103-4.713-.478-5.476 5.394-3.536z" id="78141"/>
    <path d="M312.622 398.711l1.466 1.426 6.689 15.505 3.492 4.077 12.223 6.143 2.779 4.71-.907.877-7.24 2.388-6.264 12.556 9.01 5.275 5.845 10.08-10.562 2.247-8.256-4.239-2.26 2.973-12.573-4.575-3.092-13.957-4.348-6.117-7.487-2.726-7.764 1.749-3.074-3.293-8.146 8.235-2.724-15.926-10.023-16.152 3.367 1.77 7.416-2.798-.012-7.863 10.121 1.683 2.99-5.793 11.311 3.845 7.813-.394 3.865-3.426 6.345 1.72z" id="80846"/>
    <path d="M594.063 444.36l-3.188-.62-7.51 11.572 6.69 8.655-4.856 4.418-3.436-6.819-10.827-1.698-5.104-4.619 3.735-18.56-4.594-4.26.022-10.328-11.284-1.302-4.498-3.55-4.292-8.337-6.704-5.904 3.748-10.573 13.098-8.317 10.226-.964 7.108 3.103 11.047 9.275 3.395 12.081-2.118 7.065 5.779 5.83-4.035 2.878.989 7.08 6.35 7.5.26 6.393z" id="78828"/>
    <path d="M558.093 368.772l-3.03 15.346-13.098 8.317-3.748 10.573 6.704 5.904 4.292 8.338 4.498 3.55-10.635.223-2.332 2.775-14.333-.841-4.545 8.09 1.106 4.69-.798 9.662-9.006 4.462-7.595-2.84-9.18 6.828-4.066-7.083-7.488-1.356-4.46-3.437 4.052-4.29-2.637-6.506-11.246-11.909-.998-7.61 4.752-9.542 6.737-1.095-.894-6.137-4.017-3.741 4.817-3.708 2.993-6.543 11.454-1.997 11.007 1.206 6.335-8.97 12.455-.522 3.657 2.605 17.534 1.38 8.239-6.57 3.474.748z" id="78454"/>
    <path d="M636.179 365.853l2.248 9.89-2.918 3.988 1.76 19.257-.869 9.507-10.49 8.722-5.436-.933-11.342 3.31-.675 11.467-4.794 8.027-7.665 1.307-1.935 3.964-.259-6.393-6.35-7.5-.99-7.08 4.036-2.878-5.779-5.83 2.118-7.065-3.395-12.081-11.047-9.275-7.108-3.103-10.226.964 3.03-15.346 4.894-.134 7.932-8.368 4.884 3.557 10.118-.722.637 8.277 26.789-2.781 5.824 2.321 9.208-4.962 7.8-.107z" id="80613"/>
    <path d="M460.663 377.448l11.11-.228 4.355 13.923 4.017 3.741.894 6.137-6.737 1.095-4.752 9.542.998 7.61 11.246 11.91 2.637 6.505-4.053 4.29-8.376 17.952-16.853 7.936-8.77-12.365.505-4.361-3.646-8.583-11.1-.631 3.234-6.452-6.134-5.063-7.065-12.673-12.642-5.808-10.883-2.361-11.789-15.433-6.883 2.718-2.345-4.907-2.42-5.496 9.84.694 7.418-9.594.602-7.557-6.226-.655-.245-7.744 6.807-1.488 11.161.94 6.093 5.82 7.722-2.614 2.927 3.395 10.764.678 8.609 13.585 12.315-5.054 7.665.596z" id="79004"/>
    <path d="M272.252 339.438l17.65 3.1-3.44 14.541 3.985 12.082 16.995 12.617.007 9.756 5.173 7.177-6.346-1.72-3.864 3.426-7.813.394-11.31-3.845-2.991 5.793-10.12-1.683.01 7.863-7.415 2.798-3.367-1.77-4.744-3.038-7.966-9.816-2.68-6.56-7.078 3.912-3.557-7.57-4.08-2.19-1.05-12.049-4.078-1.3 2.323-12.594-5.593-10.199 6.601-9.173 8.368-2.14 14.948 1.19 2.601 3.542 10.908-5.56 7.923 3.015z" id="79656"/>
    <path d="M648.54 334.71l7.811 12.049.142 10.673 7.308 14.393 1.255 7.967-1.202 10.224-5.477 3.234.731 5.218 5.98 8.803.299 6.46 3.692 10.208-2.728 5.407 2.585 21.678 2.503 4.95-4.09 5.811-9.204 2.198-4.884-4.975-8.13 2.508-4.92-2.215-7.136-9.446-.793-5.636-4.373-5.38 1.361-7.23-3.36-14.392 10.49-8.722.869-9.507-1.76-19.257 2.918-3.989-2.248-9.889-2.777-12.914 5.49-2.452.025-11.401 9.623-4.376z" id="80711"/>
    <path d="M203.752 329.958l2.013 1.72 6.852 4.572 8.286 12.313 5.594 10.2-2.324 12.593 4.078 1.3 1.05 12.05 4.08 2.19 3.557 7.569 7.077-3.913 2.681 6.561-5.394 3.536.478 5.476-12.103 4.713-16.281 4.439-1.037-7.796-12.61-2.829 2.36-5.425-4.288-10.743 1.21-6.697-7.163-18.815.853-7.31-4.369-11.528 2.077-4.393-2.566-7.875 15.89-1.908z" id="80365"/>
    <path d="M440.617 308.446l2.751 9.28-4.184 5.772 6.634 7.327 5.978 11.711 4.934 20.63 3.88 3.007.053 11.275-7.665-.596-12.315 5.054-8.609-13.585-10.764-.678-2.927-3.395-7.722 2.614-6.093-5.82-11.16-.94-6.808 1.488-8.993-5.152 4.504-6.517-15.526-.796 7.998-10.83 7.242.433 5.38-6.951 9.22-2.353 9.106-13.81 12.024-11.842 7.148-4.141 9.723 8.497 6.191.318z" id="78016"/>
    <path d="M482.939 300.413l7.342 2.943 4.442-4.77 12.1 10.891 4.22-1.586 4.678 7.892 5.833.027 2.247 7.88-3.354 1.949-.26 8.958-4.554 5.09-.913 11.202-2.76 13.613.774 6.629-6.335 8.97-11.007-1.206-11.454 1.997-2.993 6.543-4.817 3.708-4.355-13.923-11.11.228-.053-11.275-3.88-3.007-4.934-20.63-5.978-11.71-6.634-7.328 4.184-5.773-2.75-9.28 8.05-4.564 5.14 1.95 7.076-4.938 2.135 3.825 8.257-1.1 3.66 2.701 8.003-5.906z" id="80123"/>
    <path d="M651.624 323.13l-3.084 11.58-9.623 4.376-.025 11.401-5.49 2.452 2.777 12.914-7.8.107-9.208 4.962-5.824-2.322-26.789 2.782-.637-8.277-10.118.722-4.884-3.557-7.932 8.368-4.894.134-3.474-.749-8.239 6.571-17.534-1.38-3.657-2.605-12.455.522-.774-6.63 2.76-13.612.913-11.202 4.554-5.09.26-8.958 3.354-1.949 7.53-3.878 2.872-12.468 12.13-8.973 8.012 3.268 23.174 1.541 2.952-5.694 20.952 2.746 5.274-6.838 4.35-.44 7.217 7.936-.108 3.802 9.426 8.887 12.945.726 7.483 1.95 3.614 6.875z" id="78329"/>
    <path d="M696.697 295.22l3.456 9.004 5.604-1.943 11.5 1.271 8.6-7.343 6.691 2.645 4.501 6.107-2.087 8.942 3.572 6.915.032 14.022 2.54 6.075-6.198 6.853-2.113 8.15-7.85 8.26-1.083 6.149-4.935 8.44-5.63-5.526-10.589-1.895-14.552.358.522-11.169-2.28-12.575 1.55-8.655-8.496-28.28-.36-6.396 5.012-7.711-.411-6.484 2.785 3.236 10.22 1.55z" id="79406"/>
    <path d="M362.02 348.91l-6.666-4.487-7.107-.423-.566 8.106-3.235-.57-5.317-7.895-9.29.573-.801-10.368-7.36-3.856-11.713-8.835-5.395-8.009 1.17-8.723-2.929-1.094-5.279-5.97 1.758-7.75-3.323-2.694.33-7.394 12.442-.301 8.476-2.788 7.302 1.275 15.76-4.287-.113 8.719 3.809 1.395 2.888 6.745-.987 17.112 3.53 1.243 2.865 10.503 4.482 6.308-6.424 12.194 11.277 6.255.417 5.016z" id="82396"/>
    <path d="M279.284 278.796l1.196 6.236-2.763 15.407-2.865 9.272-.496 11.094-2.496 5.565 3.074 3.47-2.682 9.598-7.923-3.016-10.908 5.56-2.601-3.541-14.948-1.19-8.368 2.14-6.601 9.172-8.286-12.313-6.852-4.572 9.65-12.226 12.973-3.384 8.45-5.18-4.004-12.32-.971-14.52 10.767-4.499 3.025-3.427 7.888-.56 9.408-4.437 3.815.356-.43 8.93 6.733 2.214 6.215-3.83z" id="80427"/>
    <path d="M683.693 290.434l.411 6.484-5.012 7.711.36 6.397-13.4.056-3.754 5.83-10.674 6.218-3.614-6.875-7.483-1.95-12.945-.726-9.426-8.887.109-3.802-7.218-7.936-4.35.44-5.835-6.868 10.41-12.803 5.948-4.258 16.193.217 16.084-4.214-.453 2.572 11.374 12.938 9.83 6.366 9.42.387 4.025 2.703z" id="78472"/>
    <path d="M577.539 248.718l5.078 5.627 3.989-4.681 5.51 3.739 17.634 7.522 5.664 1.211-4.142 11.587-10.41 12.803 5.835 6.868-5.274 6.838-20.952-2.746-2.952 5.694-23.174-1.54-8.013-3.27-12.129 8.974-2.872 12.468-7.53 3.878-2.247-7.88-5.833-.027-4.678-7.892-4.22 1.586-12.1-10.89-4.442 4.77-7.342-2.944 7.447-5.24-4.09-9.188 3.129-7.078 10.888 7.975 1.793-9.027 11.808-1.254 1.165-9.35 11.185-8.186 6.543 2.165 3.81-5.865 9.63-4.752 14.178 5.648 11.035-1.795 6.079-5.748z" id="81861"/>
    <path d="M394.519 255.894l2.688 5.612 4.704 2.191-.493 8.3 8.514 18.886 14.77 8.748-7.147 4.141-12.024 11.841-9.107 13.81-9.219 2.354-5.38 6.952-7.242-.434-7.998 10.83-4.564-.215-.417-5.016-11.277-6.255 6.424-12.194-4.482-6.308-2.865-10.503-3.53-1.243.987-17.112-2.888-6.745-3.809-1.395.113-8.719-.912-6.016 5.202-5.616 1.896-2.221 13.558.334 3.117 8.29 6.198-3.098-3.58-4.594 11.782-3.444-.071-13.668 9.46.612-.662 11.845 8.254.05z" id="77910"/>
    <path d="M752.933 255l-.585 4.008 8.646 27.178-.923 4.115-14.222 11.625-8.8 3.035-4.5-6.107-6.692-2.645-8.6 7.343-11.5-1.27-5.604 1.942-3.456-9.004 5.285-6.124 4.612-1.15 2.198-11.367 11.443-10.21-2.384-5.154 5.653-10.473.57-12.234 10.924.932 7.338-2.552L752.933 255z" id="81497"/>
    <path d="M504.847 234.303l1.476 1.508-9.26 14.496-3.77 13.955 2.84 9.141-6.708 5.504-3.13 7.078 4.091 9.188-7.447 5.24-8.003 5.906-3.66-2.7-8.257 1.099-2.135-3.825-7.075 4.939-5.141-1.951-8.05 4.565-6.192-.318-9.723-8.497-14.77-8.748-8.515-18.886.493-8.3-4.704-2.19-2.688-5.613 8.28-2.645-2.562-9.535 5.694-8.189.083-8.662 6.457 4.06 7.442 1.353 13.131 8.49 4.156-1.226 2.423-12.258 7.478 8.338 11.278.929 4.274-8.653 8.426-7.516 4.553-6.843 3.398 3.449-6.892 8.632 1.033 4.856 5.945 2.828 13.656-1.304 12.075 2.305z" id="77812"/>
    <path d="M734.04 217.117l8.892 5.563-.596 14.208-7.338 2.552-10.924-.932-.57 12.234-5.653 10.473 2.384 5.155-11.443 10.209-2.198 11.366-4.612 1.15-5.285 6.125-10.219-1.55-2.785-3.236-4.024-2.704-9.42-.386-9.83-6.366-11.375-12.938.453-2.572 7.548-11.833 11.038-13.605 7.55-2.84 2.837.415 5.248-10.669 15.248 2.975 6.99-6.147 2.983-6.133 11.032-2.313 7.097-4.68 6.972 6.479z" id="81415"/>
    <path d="M371.603 231.526l5.864 11.861.07 13.668-11.78 3.444 3.58 4.594-6.199 3.097-3.117-8.289-13.558-.334-1.896 2.22-5.165-5.18.59-5.498-8.353 1.307 3.48-18.654-6.012-4.494 5.364-10.386 5.065 1.001 3.918-6.56 14.07-2.701-1.135 13.287 3.898 1.84 1.871 6.997 9.445-1.22z" id="78668"/>
    <path d="M582.486 212.427l-3.458 1.289-.158 10.725-1.84 5.675 2.873 6.089-2.364 12.513-6.08 5.748-11.034 1.795-14.178-5.649-9.63 4.753-3.81 5.865-6.543-2.165-11.185 8.186-1.165 9.35-11.808 1.254-1.793 9.027-10.888-7.975 6.708-5.504-2.84-9.141 3.77-13.954 9.26-14.497-1.476-1.508 7.782-4.243.466-5.301 4.215-5.9 9.35-.347 3.703-11.255 5.54 7.473 3.966-1.07 3.289-9.69 8.018 6.341 3.434-2.809 4.823 7.346 7.21-4.64 7.213-11.216 8.63 13.435z" id="78748"/>
    <path d="M409.733 184.4l4.849 11.15-1.628 17.404 3.467 1.042.946 7.357-4.896 9.57-6.457-4.06-.083 8.662-5.694 8.19 2.563 9.534-8.281 2.645-8.254-.05.663-11.845-9.461-.612-5.864-11.86-1.276-6.285 9.335-6.15 2.356-11.06 10.48-1.79 1.995-19.269 7.793 1.581 7.447-4.154z" id="80677"/>
    <path d="M638.919 183.029l7.028 4.66 12.95-.148-.535 6.845 16.357 6.256-2.886 8.584 3.874 4.608 9.845 5.8-9.918 17.555-7.551 2.841-11.038 13.605-7.548 11.833-16.084 4.214-16.193-.217-5.948 4.258 4.142-11.587 2.189-23.672 3.613-9.261-3.713-4.513 1.522-9.383 6.727-4.948-1.253-6.625 3.685-10.737-1.057-3.9 10.104-3.149 1.688-2.92z" id="78873"/>
    <path d="M627.127 189.097l1.057 3.9-3.685 10.737 1.253 6.625-6.727 4.947-1.522 9.384 3.713 4.513-3.613 9.261-2.188 23.672-5.665-1.21-17.634-7.523-5.51-3.74-3.99 4.682-5.077-5.627 2.364-12.513-2.872-6.089 1.84-5.675.157-10.725 3.458-1.289 16.264-4.182-2.83-9.76 7.124-14.885 8.307-4.422 7.747 7.558 8.029 2.361z" id="81754"/>
    <path d="M709.942 178.328l4.2 3.695 9.224 1.254 6.856 5.358 5.92-1.636 10.011.422-.582 7.658 2.933 4.977-11.678 7.094-2.786 9.967-6.972-6.478-7.097 4.679-11.032 2.313-2.983 6.133-6.99 6.147-15.248-2.975-5.248 10.67-2.836-.417 9.918-17.555-9.845-5.8-3.874-4.608 2.886-8.584 3.512-5.872 9.148-3.475 11.891-1.092-1.658-9.099 12.33-2.776z" id="79362"/>
    <path d="M759.172 176.2l2.098 17.026-.718 5.981 9.915-2.499 1.403 4.51 6.831 8.282.71 9.58-4.63 2.562 6.882 12.143-1.871 7.708 1.596 4.09-10.098 2.78-5.04 3.569L752.933 255l-10.596-18.112.595-14.208-8.892-5.563 2.786-9.967 11.678-7.094-2.933-4.977.582-7.659 8.461-4.39 4.558-6.83z" id="78542"/>
    <path d="M480.018 200.134l-9.705 16.245.766 4-8.426 7.517-4.274 8.653-11.278-.929-7.478-8.339 5.461-5.82 4.181-.236 1.261-6.668-4.534-7.103-5.732-1.736-2.78-7.23.27-12.406 6.285-14.322-.04-11.012 2.553-1.316 11.785 9.366 5.628 14.078 5.29 1.386 2.461 9.758 8.306 6.114z" id="78089"/>
    <path d="M314.65 70.672l-.938 12.981 3.94 5.826-4.777 3.22-4.428 7.21-11.227 7.338-6.746-3.347-7.22 5 4.878 6.386 2.164 12.275 9.297 3.843-4.856 22.306 4.85 9.441-.2 9.343 11.243 8.424.954 9.434-10.354 3.192 4.694 10.097 9.906 8.572 2.032 4.37 8.314 4.295-2.11 9.792 11.053 3.092-3.48 18.654 8.353-1.307-.59 5.497 5.165 5.182-5.202 5.616.912 6.016-15.76 4.287-7.302-1.275-8.476 2.788-12.442.3-.33 7.395 3.323 2.694-1.758 7.75 5.28 5.97-7.05 13.662-3.104-5.111-5.036.357-5.584-16.17-1.558-11.035-1.196-6.236 4.127-9.614-1.399-3.948-6.273-.805-3.474-5.039 3.155-7.926.685-16.201-2.649-5.191-2.22-13.328 2.842-5.596-10.9-12.69-3.745-.66-1.648-8.435-7.674-4.773-14.157 2.193-2.44-23.515 4.107-3.591 6.78-13.09 8.05-4.708.465-3.327-6.893-5.13-1.796-6.52-21.645-17.272 4.384-8.567-.492-11.79 12.468 2.929L244.95 73.8l-.695-6.45 8.41-3.478 2.466 10.623 4.11 4.49 6.892-.696 6.197-4.3 6.893 6.134 16.577-4.356 13.316-6.391 5.534 1.295z" id="81184"/>
    <path d="M139.656 68.395l4.267 7.308 5.54 4.366 3.095 19.828 5.114 10.845-6.308 9.687 5.343 4.25 4.928-4.238 10.242-4.457 10.905 3.617 3.674 19.132 5.764 1.782 1.727 6.085-3.862 5.307 5.477 7.78 1.32 7.411-2.044 15.818-14.927 11.235-3.252 11.457-6.193 10.72 1.136 5.967-5.39 12.438 4.9 9.235 4.413 4.35 7.227-.17 2.28 4.03-.466 13.012 8.85 15.314-3.148 7.237 4.643 14.065-14.455 5.108-5.05-2.765 1.536-5.318-13.393-18.119 1.963-3.447-10.475-11.594-9.95-5.969-6.155-1.321-11.533-14.875-4.328 2.068-14.06-.692-2.812-2.886.073-11.112-6.614-.558-12.124 5.263-2.505-8.461.003-7.681-5.01-11.407-4.24-5.225-5.773 4.586-10.898-8.568 1.47-4.056-4.632-11.34-6.04.311-6.772-6.92-7.833.411-6.033-3.272-6.76 2.843-8.55-3.128-7.52-7.847L1 156.3l.944-5.677 9.138-10.31.832-6.613 12.86-12.493 3.202-6.308 8.806-3.12 7.176.784 11.945-9.324 2.912-4.777-.42-7.162 9.874-1.575 5.64-4.447 2.453-6.298 13.203-9.654 5.977 1.2 7.034 4.568 9.255.56 6.093-9.964 8.687.491 2.854-3.862 7.472.474 2.72 5.601z" id="81095"/>
    <path d="M465.86 43.913l-5.81 5.32-1.251 5.963 2.133 6.787 12.522 10.804 2.308 11.792 4.125 7.48-.417 10.334-7.37 10.452 1.557 6.711 7.396 12.464-.61 14.115 5.343 4.93 9.909 4.906 2.328 6.303-1.31 11.862-16.695 25.998-8.306-6.114-2.462-9.758-5.29-1.386-5.627-14.078-11.785-9.366-2.552 1.316-7.215-3.837 2.593-11.783-.986-20.188-1.735-1.608.235-19.225-2.202-8.993 7.658-12.874.957-5.163-5.987-15.599 4.78-9.759 10.42-7.497 9.197-4.07 4.15 3.76z" id="81987"/>
    <path d="M461.711 40.151l-9.197 4.071-10.42 7.497-4.78 9.76 5.987 15.598-.957 5.163-7.658 12.874 2.202 8.992-.235 19.226 1.735 1.608.986 20.188-2.593 11.783 7.215 3.837.04 11.012-6.286 14.322-.27 12.407 2.78 7.23 5.733 1.735 4.533 7.103-1.26 6.668-4.182.236-5.461 5.82-2.423 12.26-4.156 1.226-13.13-8.49-7.443-1.353 4.896-9.57-.946-7.358-3.467-1.042 1.628-17.404-4.849-11.15-1.693-11.94-6.65-2.03 2.75-12.533-5-6.864 5.699-11.787.198-5.824 5.569-2.178 3.781-8.824-.187-11.81 2.23-2.602-2.82-8.178.244-9.463-7.999-10.96 1.328-8.462-4.722-8.756 4.468-4.156.454-5.806 6.14-9.119 13.556-6.398 12.423-.266 6.021 1.498 7.92-2.896 8.268 5.105z" id="82136"/>
    <path d="M573.856 198.992l-7.213 11.216-7.21 4.64-4.823-7.346-3.434 2.81-8.018-6.342-3.29 9.69-3.966 1.07-5.539-7.473-.52-16.735 2.753-6.668 5.163-5.37.25-6.258-6.722-.503-2.62-7.456.148-9.487-5.026-5.568 2.568-4.141 7.592-1.43 2.088-5.446-1.47-9.31-3.84-1.301 12.88-26.327-.098-5.566 7.71-18.043 8.33-2.007 7.787-8.719 1.341-8.576 8.777-13.484.524-5.554 15.726-9.621 7.317-8.298-.435 10.637-3.672 12.962-8.231 4.787-4.839 9.776-7.042 7.732 3.608 11.029-2.633 8.163-1.587 15.171-9.098 8.342-3.232 9.097 7.647 10.656-.903 5.829 1.71 16.859 2.666 7.626-2.88 11.939 1.756 26.998z" id="80908"/>
    <path d="M601.021 21.389l-7.317 8.298-15.726 9.62-.524 5.554-8.777 13.485-1.341 8.577-7.788 8.718-8.328 2.007-7.71 18.044.096 5.566-12.88 26.326 3.841 1.302 1.47 9.309-2.088 5.447-7.592 1.429-2.568 4.141 5.026 5.568-.149 9.487 2.621 7.456 6.721.503-.249 6.258-5.163 5.37-2.752 6.668.52 16.735-3.705 11.255-9.349.348-4.214 5.899-.467 5.3-7.782 4.244-12.075-2.305-13.656 1.304-5.945-2.828-1.033-4.856 6.892-8.632-3.398-3.45-4.553 6.844-.766-4.001 9.705-16.245 16.696-25.998 1.309-11.862-2.329-6.303-9.908-4.906-5.343-4.93.61-14.115-7.396-12.464-1.557-6.71 7.37-10.453.417-10.333-4.125-7.481-2.308-11.792-12.522-10.805-2.133-6.786 1.25-5.963 5.811-5.32 10.531-8.553.904-8.768 4.324-7.003 6.666-3.494 6.919-.775 11.191 1.638 1.306-5.524 8.846 4.418 6.539-1.15 2.03 10.618-3.474 5.822 11.916 7.853 10.472 3.153 1.467 4.778 7.838.034 12.317-3.623 4.878-7.995 20.452-12.587 10.039-1.366z" id="79308"/>
    <path d="M771.87 201.219l-1.403-4.511-9.915 2.5.718-5.982-2.098-17.026-1.326-14.343-2.394-8.871 1.321-13.996-8.023-15.044-1.686-7.192.865-9.317-4.01-15.06 3.37-5.602.932-10.001 4.152-16.258 8.236-13.371 3.563-11.043-4.753-23.711-7.608-4.54 13.72-5.38 10.251 7.986 8.883 8.709 8.038 2.554 2.248 7.214-.893 7.597-6.106 5.026-10.878 17.456-2.09 6.341-8.734 11.893-2.304 5.91 5.167 17.472 2.933 1.814.366 14.033 7.373 18.234 8.78 6.474 2.163 10.926 2.69 2.147 4.812 13.826.77 11.536-5.173 6.999-12.615 5.472-9.342 9.129z" id="81380"/>
    <path d="M640.297 3.671l-4.091 4.11-1.312 6.377-6.92 15.637 5.58 3.85 3.965 13.805.087 7.215 5.85 5.925 1.718 5.013 13.855 2.896.283 3.27-5.411 11.035-1.484 11.04 5.022 15.025 1.21 14.313 4.044 2.34-3.305 13.023.243 27.728-2.074 5.39-8.384 4.023-5.174 6.689-5.08.654-1.688 2.919-10.104 3.15-8.029-2.363-7.747-7.557-8.307 4.422-7.125 14.886 2.83 9.759-16.263 4.182-8.63-13.435-1.756-26.998 2.88-11.94-2.667-7.625-1.71-16.86.904-5.828-7.647-10.656 3.232-9.097 9.098-8.342 1.587-15.171 2.633-8.163-3.608-11.029 7.042-7.732 4.839-9.776 8.23-4.787 3.673-12.962.435-10.637 4.946-2.932 1.251-6.74 7.393 1.023 7.072-3.716 2.79-5.594L639.013 1l1.284 2.671z" id="79834"/>
    <path d="M759.172 176.2l-4.558 6.83-8.46 4.39-10.011-.42-5.92 1.635-6.857-5.358-9.223-1.254-4.202-3.695-.104-10.914-2.196-10.977 9.413-9.47 2.998-12.921-4.837-16.056-1.509-9.186 2.773-9.305-1.737-10.995-9.891-2.043-6.182-8.358 8.447-10.346-7.52-10.275-4.244-8.578-.674-10.402 2.164-14.81 13.56-4.935 11.713 5.941 5.93-5.154 14.33-2.762 9.436-8.932 7.608 4.541 4.753 23.71-3.563 11.044-8.236 13.371-4.152 16.258-.933 10-3.368 5.602 4.009 15.061-.865 9.317 1.686 7.192 8.023 15.044-1.321 13.996 2.394 8.87 1.326 14.344z" id="78711"/>
    <path d="M696.842 23.692l-2.164 14.81.674 10.402 4.244 8.578 7.52 10.275-8.447 10.346 6.182 8.358 9.89 2.043 1.738 10.995-2.773 9.305 1.509 9.186 4.837 16.056-2.998 12.92-9.413 9.471 2.197 10.977.104 10.914-12.33 2.776 1.658 9.099-11.89 1.092-9.15 3.475-3.511 5.872-16.357-6.256.536-6.845-12.951.148-7.028-4.66 5.08-.654 5.174-6.689 8.384-4.023 2.074-5.39-.243-27.728 3.305-13.022-4.044-2.341-1.21-14.313-5.022-15.025 1.484-11.04 5.41-11.034-.282-3.27-13.855-2.897-1.718-5.013-5.85-5.925-.087-7.215-3.965-13.804-5.58-3.85 6.92-15.638 1.312-6.376 4.09-4.11 5.184 6.59 16.893 6.763 6.53-11.464 7.315-.651 10.69 7.109 9.934 11.673z" id="78258"/>
    <path d="M706.38 554.736l-.033 12.035 4 3.254-.83 8.992 3.326 4.19-11.35 24.117 3.673 6.24-3.543 6.672 4.747 3.789 1.874 9.677-6.117 16.55 3.546 8.953-3.793 9.968-8.737-8.486.592-5.166-14.049 2.837-21.49 1.949-10.324 6.194-11.657-5.124-3.769-4.936 1.585-4.696-7.407-8.71 3.509-9.095-2.59-7.378.46-9.999 2.617-6.1 18.847 7.594 7.89 5.131 4.462-2.977 11.649 1.189-6.58-13.549 3.91-1.649 8.09-12.015 1.31-6.464-1.913-9.417 1.379-7.787.12-11.077-3.316-2.893 4.505-6.949 7.354-4.26 16.087 6.171 1.966 3.225z" id="79932"/>
    <path d="M302.811 303.329l2.928 1.094-1.169 8.723 5.395 8.009 11.714 8.835 7.359 3.856.8 10.368 9.29-.573 5.318 7.896 3.235.569 2.114 8.608-.45 12.529-3.733 3.322-7.245 6.578-9.653 5.927-5.837 6.766-8.789 4.3-1.466-1.425-5.173-7.177-.007-9.756-16.995-12.618-3.986-12.08 3.44-14.543-17.649-3.1 2.682-9.597-3.074-3.47 2.496-5.565.496-11.094 2.865-9.272 2.763-15.407 1.558 11.035 5.584 16.17 5.036-.357 3.103 5.111 7.05-13.662z" id="79736"/>
    <path d="M403.766 475.258l6.325 7.326 5.816 2.174 7.594 6.393 3.208 5.658-.032 8.415 8.47 11.696 10.94 10.365-23.103 2.741-8.39-5.005-3.27-6.975-17.61-8.986-3.117-8.116-6.475-4.9-4.463-2.547-.451-6.56-5.96-3.426 5.104-6.034-10.551-11.689-.471-4.975-12.317-8.984-.272-3.208-10.022-6.108.12-3.31-6.475-7.754.907-.878 10.034-3.638 5.77-6.074 17.883 16.647 10.278 5.977 4.734 12.495 9.76 5.867 6.036 13.413z" id="80980"/>
    <path d="M377.63 391.942l2.346 4.907 6.883-2.718 11.789 15.433 10.883 2.361 12.642 5.808 7.065 12.673 6.134 5.063-3.235 6.452 11.101.631 3.646 8.583-17.62 7.275-11.371 2.34-14.127 14.508-6.036-13.413-9.76-5.867-4.734-12.495-10.278-5.977-17.882-16.647-5.77 6.074-10.035 3.638-2.78-4.709-12.222-6.143-3.492-4.077-6.689-15.505 8.789-4.301 5.837-6.766 9.653-5.927 7.245-6.578 4.076 8.262 9.876 4.428 8.859 8.921 9.208-6.234z" id="80285"/>
    <path d="M362.02 348.91l4.565.214 15.526.797-4.504 6.517 8.993 5.152.245 7.744 6.226.655-.602 7.557-7.418 9.594-9.84-.694 2.42 5.496-9.208 6.234-8.859-8.92-9.876-4.43-4.075-8.26 3.732-3.323.45-12.53-2.114-8.607.566-8.106 7.106.423 6.668 4.487z" id="82895"/>
    <path d="M402.46 62.189l4.724 8.756-1.329 8.463 7.999 10.959-.244 9.462 2.82 8.179-2.23 2.603.187 11.81-3.781 8.823-5.57 2.178-.197 5.824-5.698 11.787 5 6.864-2.752 12.532 6.65 2.031 1.694 11.94-7.447 4.154-7.793-1.58-1.995 19.268-10.48 1.79-2.356 11.06-9.335 6.15 1.276 6.284-9.445 1.22-1.87-6.997-3.9-1.84 1.135-13.287-14.069 2.7-3.918 6.561-5.065-1.001-5.364 10.386 6.012 4.494-11.052-3.092 2.109-9.792-8.314-4.296-2.032-4.369-9.906-8.572-4.694-10.097 10.354-3.192-.954-9.434-11.243-8.424.2-9.343-4.85-9.44 4.856-22.307-9.297-3.843-2.164-12.275-4.879-6.386 7.22-5 6.747 3.347 11.227-7.337 4.428-7.21 4.778-3.221-3.94-5.826.936-12.98 4.32-10.227 3.469 1.031 10.23-13.003 15.91 4.23 7.841 5.433 5.295-.203 5.356-4.882 4.418 6.037 7.821.428L390 54.889l12.462 7.3z" id="81576"/>
    <path d="M226.474 89.272l.492 11.791-4.384 8.567 21.645 17.272 1.796 6.52 6.893 5.13-.466 3.327-8.05 4.709-6.78 13.089-4.106 3.59 2.44 23.516 14.157-2.193 7.674 4.773 1.648 8.435 3.744.66 10.9 12.69-2.84 5.596 2.22 13.328 2.648 5.19-.685 16.202-3.156 7.926 3.475 5.039 6.273.805 1.4 3.948-4.128 9.614-6.215 3.83-6.733-2.215.43-8.93-3.815-.356-9.408 4.438-7.888.559-3.025 3.427-10.767 4.5.97 14.52 4.005 12.318-8.45 5.181-12.972 3.384-9.651 12.226-2.013-1.72-3.133-8.249 4.151-13.4-2.66-6.047-7.199-.456-4.643-14.065 3.148-7.237-8.85-15.314.466-13.012-2.28-4.03-7.227.17-4.412-4.35-4.902-9.235 5.39-12.438-1.135-5.967 6.193-10.72 3.252-11.457 14.927-11.235 2.044-15.818-1.32-7.411-5.477-7.78 3.862-5.307-1.727-6.085-5.764-1.782-3.674-19.132-10.905-3.617-10.242 4.457-4.928 4.239-5.343-4.251 6.308-9.687-5.114-10.845-3.095-19.828-5.54-4.366-4.267-7.308 2.878.31 9.033-7.362 9.421-.835 6.004-5.795 7.452-2.924 8.063 7.86 5.206-1.423 3.662 12.958 17.22-7.56 3.01-3.554 22.531-2.992 6.667 4.803.255 5.085-4.865 12.906-9.719 9.4z" id="82430"/>
    <path d="M617.609 519.395l3.609 7.929-1.035 7.288-6.718 3.643-3.753 18.217 3.198 13.132-3.452 1.823 2.998 15.5 7.621 6 2.148-3.159 10.542-3.073-1.32 5.436-9.174 6.963-5.214 12.668-.678 11.015-9.636 4.913-7.225-2.536-18.929-2.471-10.085 1.732 1.565-9.635 3.19-3.279-2.504-7.3 5.792-3.498-4.78-5.692-1.567-11.014 4.856-5.023-5.897-2.533-.047-9.625-3.453-2.747 4.53-3.034-.596-8.394 8.872-8.674-3.478-4.938 6.059-11.768 3.281 3.029 9.905.436 6.886-2.963 7.85-8.335 6.639-.033z" id="82555"/>
    <path d="M679.452 311.026l8.495 28.279-1.548 8.656 2.279 12.574-.522 11.168 3.508 26.494 3.024 12.218-7.905-1.061-3.627 15.611-2.405 26.036-11.815.023-2.585-21.678 2.728-5.407-3.692-10.209-.3-6.459-5.979-8.803-.73-5.218 5.476-3.234 1.202-10.224-1.255-7.967-7.308-14.393-.142-10.673-7.811-12.05 3.084-11.58 10.674-6.218 3.754-5.829 13.4-.056z" id="78926"/>
    <path d="M741.106 340.915l3.955 13.272-3.027 8.002-1.984 12.935 2.775 14.835-5.896 7.565-2.867 5.345.927 5.899-8.394 1.251-3.158 6.017 1.495 7.609-6.034 12.87-.264 4.604-7.217 9.653-1.394 8.882-6.273 10.484-7.1 1.523-4.099-4.717-15.798-8.991L680.75 451l2.406-26.036 3.627-15.611 7.905 1.06-3.024-12.217-3.508-26.493 14.552-.358 10.589 1.895 5.63 5.525 4.935-8.44 1.083-6.148 7.85-8.26 2.113-8.15 6.198-6.853z" id="80766"/>
  </g>
</svg>
