<svg xmlns="http://www.w3.org/2000/svg" version="1.2" baseProfile="tiny" stroke-linecap="round" stroke-linejoin="round" viewBox="0 0 800 682">
  <g id="GJ" fill="none" stroke="#aaa">
    <path d="M525.449 597.542l7.747 11.588 2.247 13.587 8.684 7.802 6.534 13.892-10.23 12.293 2.254 24.52-31.795-19.586 5.779-10.067-3.235-6.91-39.553-23.992 5.705-5.896 18.324 1.216 17.38-7.25 7.926-14.222 2.233 3.025z" data-name="Ionești" class="comuna" id="80560"/>
    <path d="M630.595 610.553l-3.996 32.576-46.416 11.027-8.403 18.335-22.355 1.014-6.74 7.719-2.254-24.52 10.23-12.293 20.83-11.957-1.019-7.947 10.087-1.732 26.158 5.008 9.637-4.914 5.893-23.686 9.176-6.965-.828 18.335z" data-name="Țînțăreni" class="comuna" id="82680"/>
    <path d="M567.627 564.153l3.453 2.747 4.147 44.691-4.755 12.916 1.019 7.947-20.83 11.957-6.534-13.892-8.684-7.802-2.247-13.587-7.747-11.588 14.17-8.11-7.667-14.152-1.309-13.708 9.912 5.494 27.072-2.913z" data-name="Brănești" class="comuna" id="79237"/>
    <path d="M679.646 570.603l-.776 23.672-12.003 13.666 6.582 13.55-19.79-1.108-23.064-9.83.828-18.335 1.32-5.437 2.431-27.01 14.725-7.45 19.812 7.904 9.935 10.378z" data-name="Stoina" class="comuna" id="82314"/>
    <path d="M457.645 599.208l-13.58-8.117-11.797 1.509-23.663-2.95-18.374-6.853-12.26-.036 4.51-13.167-23.387 3.687-12.885-5.648 4.364-16.163 9.852-5.06 7.862 4.933 15.899 2.002 6.176 5.386 23.619 3.21 13.707-2.645 9.189-12.396-13.949-16.796 23.108-2.74 12.426 22.162 9.719 1.422 9.409 19.863-8.997 16.895-10.948 11.502z" data-name="Borăscu" class="comuna" id="79157"/>
    <path d="M371.88 529.378l-11.455 17.031-9.852 5.06-4.363 16.164 2.524 14.437-4.799-6.823-12.986-2.633-29.632-20.646-6.103-12.354-3.977-7.177 9.65-9.623 9.527-2.154 2.392-12.793 29.658 8.145 2.874 5.457 26.542 7.909z" data-name="Văgiulești" class="comuna" id="82779"/>
    <path d="M469.118 500.128l5.63 15.83 11.118 2.233 8.377 12.554 5.868 20.198-2.357 9.057 5.351 11.308 20.111 23.21-7.926 14.22-17.38 7.251-18.324-1.216-5.705 5.896-13.991-9.236-2.245-12.225 10.948-11.502 8.997-16.895-9.41-19.863-9.718-1.422-12.426-22.163-19.423-22.127.04-8.353 13.518 11.343 28.947-8.098z" data-name="Turceni" class="oras" id="82617"/>
    <path d="M422.928 530.104l13.949 16.796-9.189 12.396-13.707 2.645-23.619-3.21-6.176-5.386-15.9-2.002-7.861-4.934 11.455-17.031 6.212-12.79-6.53-10.387 12.499-10.084 9.593 13.018 17.613 8.987 11.661 11.982z" data-name="Bolboși" class="comuna" id="79077"/>
    <path d="M674.546 512.07l2.138 4.988-9.616 21.783-18.106.814.937 12.667-14.725 7.45-2.432 27.01-20.314.232-2.744-30.46 3.753-18.22 6.72-3.643-2.575-15.22 1.474-5.904 1.351-21.17 7.812-.095 17.811 8.2 13.689 2.909 14.827 8.66z" data-name="Căpreni" class="comuna" id="79497"/>
    <path d="M312.806 507.867l-2.392 12.793-9.526 2.154-9.651 9.624-15.104-1.977-8.324-6.552-3.465-12.972 21.022-20.563-10.346-10.809-.773-8.892 11.65-3.867 26.571 25.3.338 15.76z" data-name="Samarinești" class="comuna" id="81656"/>
    <path d="M455.098 467.93l17.925 27.838-3.905 4.36-28.947 8.098-13.517-11.343-3.208-5.66-19.739-15.895 14.13-14.51 28.995-9.617 8.266 16.729z" data-name="Urdari" class="comuna" id="82733"/>
    <path d="M680.733 451.067l-3.998 6.954 19.9 13.71-15.343 10.173-6.746 30.166-14.827-8.66-13.689-2.909-17.811-8.2-7.812.096-1.395-5.024 12.849-12.01 8.326-15.994 27.143 2.484 1.587-10.763 11.816-.022z" data-name="Hurezani" class="comuna" id="80506"/>
    <path d="M480.331 442.038l11.95 4.794 4.068 7.084 11.335 6.365 11.177 32.827 5.538 10.428-17.743 11.986 23.987 46.05 1.309 13.708 7.667 14.151-14.17 8.111-2.233-3.025-20.11-23.21L497.753 560l2.357-9.057-5.868-20.198-8.377-12.554-11.119-2.233-5.629-15.83 3.905-4.36-17.925-27.838 16.855-7.937 8.378-17.955z" data-name="Plopșoru" class="comuna" id="81264"/>
    <path d="M583.709 514.967l35.347-1.4-1.474 5.905-6.64.033-14.738 11.3-13.188-3.466-15.39 36.814-27.071 2.913-9.912-5.495-23.987-46.05 17.743-11.984-5.538-10.429-11.177-32.827-11.335-6.365 9.18-6.83 16.604-1.621.798-9.664 9.303 9.06 2.317 20.438 16.595 25.993 1.51 15.939 31.053 7.736z" data-name="Aninoasa" class="comuna" id="78604"/>
    <path d="M339.647 461.815l1.886 12.791 8.552 15.163 21.478 16.432 6.529 10.387-6.212 12.79-26.542-7.909-2.874-5.457-29.658-8.145-.338-15.76-26.572-25.3-11.649 3.866 3.118-22.699-5.29-5.863 8.147-8.237 18.328 4.27 7.441 20.077 23.092 5.842 10.564-2.248z" data-name="Slivilești" class="comuna" id="82047"/>
    <path d="M338.296 431.512l6.356 11.066 22.614 18.303 11.024 16.666 5.77 18.57-12.497 10.084-21.478-16.432-8.552-15.163-1.886-12.79-14.857-15.357 6.265-12.557 7.241-2.39z" data-name="Drăgotești" class="comuna" id="80249"/>
    <path d="M710.758 544.806l-2.659-19.257 5.558-16.37-3.402-5.354 12.135-17.346 4.835-33.646 11.788-14.162.68-16.87 6.612 5.509 5.37 13.453-2.257 10.19 8.51 18.839-5.988 16.14-6.55.875-3.637 15.775 6.08 16.96-1.358 15.225.556 24.254-20.388-2.19-15.885-12.025z" data-name="Dănciulești" class="comuna" id="80043"/>
    <path d="M553.675 420.861l11.285 1.303 4.573 14.59-3.736 18.563 15.934 6.317 3.437 6.82 6.114 3.167-13.058 33.57 5.485 9.776-31.053-7.736-1.51-15.94-16.595-25.993-2.317-20.438-9.303-9.06 3.44-12.781 27.304-2.158z" data-name="Săulești" class="comuna" id="81816"/>
    <path d="M625.884 417.279l2 21.624 12.303 20.466-8.326 15.994-12.849 12.01 1.395 5.024-1.351 21.17-35.347 1.4-5.485-9.776 13.058-33.57-6.114-3.167-1.836-13.075 10.701-10.954 9.601-5.272 5.47-19.498 16.78-2.376z" data-name="Vladimir" class="comuna" id="82831"/>
    <path d="M229.592 410.899l2.699 20.365 19.237 4.31-1.64 29.325-21.214 5.106.944-6.402-21.144-13.511-7.449-19.137-.136-.385-1.228-25.858 12.612 2.83 1.036 7.796 16.283-4.439z" data-name="Cătunele" class="comuna" id="79585"/>
    <path d="M736.92 397.583l2.773 24.217-.68 16.871-11.788 14.162-4.835 33.646-12.135 17.346 3.402 5.354-5.558 16.37 2.659 19.257-4.392 10.011-18.056-9.396-7.354 4.26-1.31 20.922-9.935-10.378-19.812-7.903-.937-12.667 18.106-.814 9.616-21.783-2.138-4.988 6.746-30.166 15.343-10.174 7.1-1.522 7.67-19.37 7.217-9.654 7.963-31.104 8.394-1.252 1.941-11.245z" data-name="Stejari" class="comuna" id="82243"/>
    <path d="M246.615 397.172l12.711 12.856 10.024 16.154 2.725 15.928 5.29 5.864-3.118 22.699.773 8.892 10.346 10.809-21.022 20.563-2.8-16.085-21.079-16.35-8.734 13.184-6.668-18.055 3.61-3.626 21.215-5.106 1.64-29.325-19.237-4.31-2.699-20.365 12.106-4.714 4.917-9.013z" data-name="Motru" class="municipiu" id="78141"/>
    <path d="M312.55 398.77l1.467 1.426 10.182 19.585 15.004 10.854-.907.877-7.241 2.39-6.265 12.557 14.857 15.356-10.564 2.248-23.092-5.842-7.44-20.076-18.329-4.271-8.147 8.236-2.724-15.928-10.025-16.154 10.785-1.029 13.1-11.974 11.314 3.845 18.025-2.1z" data-name="Mătăsari" class="comuna" id="80846"/>
    <path d="M594.033 444.425l-10.7 10.954 1.835 13.075-3.437-6.82-15.933-6.317 3.735-18.563-4.573-14.59-11.285-1.303-15.496-17.793 3.748-10.575 13.1-8.318 10.228-.964 18.157 12.38 4.01 34.94 6.611 13.894z" data-name="Bărbătești" class="comuna" id="78828"/>
    <path d="M558.058 368.827l-3.03 15.348-13.1 8.317-3.75 10.576 15.497 17.793-27.304 2.158-3.44 12.782-.798 9.664-16.604 1.621-9.18 6.83-4.067-7.084-11.95-4.794 1.415-10.797-11.248-11.91-.998-7.612 6.58-20.519 7.81-10.251 22.464-.792 6.337-8.971 33.65 3.464 11.716-5.823z" data-name="Țicleni" class="oras" id="78454"/>
    <path d="M636.155 365.907l.22 42.648-10.49 8.724-16.78 2.376-5.47 19.498-9.602 5.272-6.61-13.895-4.01-34.94-18.158-12.38-10.228.965 3.03-15.348 12.828-8.504 15.004 2.835.638 8.279 26.792-2.782 5.826 2.322 17.01-5.07z" data-name="Jupînești" class="comuna" id="80613"/>
    <path d="M460.613 377.504l11.112-.228 4.355 13.924-6.58 20.519.999 7.611 11.248 11.911-1.416 10.797-8.378 17.955-16.855 7.937-8.266-16.729-3.647-8.584-14.001-12.148-7.067-12.674-23.529-8.17-11.79-15.436-9.23-2.189 14.841-14.398-5.87-15.958 17.97-.549 6.095 5.821 21.416 1.46 8.61 13.587 19.983-4.46z" data-name="Bîlteni" class="comuna" id="79004"/>
    <path d="M272.174 339.488l17.652 3.1-3.44 14.544 3.986 12.083 16.997 12.62 5.181 16.935-18.025 2.1-11.313-3.845L270.11 409l-10.785 1.028-12.711-12.856-9.76-2.649-7.64-9.76-2.803-25.948-5.595-10.2 6.603-9.175 36.83-2.969 7.924 3.017z" data-name="Ciuperceni" class="comuna" id="79656"/>
    <path d="M648.517 334.76l7.813 12.05.142 10.674 7.31 14.396.052 18.194-4.746 8.453 5.98 8.805 3.992 16.67-2.729 5.407 2.586 21.681-1.587 10.764-27.143-2.485-12.303-20.466-2-21.624 10.492-8.724-.221-42.648-2.778-12.916 5.516-13.856 9.624-4.376z" data-name="Licurici" class="comuna" id="80711"/>
    <path d="M203.664 330.007l2.013 1.72 15.14 16.888 5.595 10.2 2.804 25.948 7.64 9.76 9.759 2.649-4.917 9.013-12.106 4.714-16.283 4.44-1.036-7.798-12.612-2.83-.72-22.868-7.162-18.818-3.995-31.074 15.88-1.944z" data-name="Glogova" class="comuna" id="80365"/>
    <path d="M440.564 308.491l-1.433 15.055 12.614 19.04 8.868 34.918-19.983 4.458-8.61-13.587-21.416-1.459-6.094-5.82-17.971.548-20.018-12.468 8-10.831 21.844-8.873 9.108-13.812 19.174-15.985 15.917 8.816z" data-name="Drăguțești" class="comuna" id="78016"/>
    <path d="M482.892 300.458l11.786-1.828 29.083 25.108-8.17 16-2.9 31.448-6.336 8.971-22.464.792-7.81 10.251-4.356-13.924-11.112.228-8.868-34.917-12.614-19.041 1.433-15.055 42.328-8.033z" data-name="Dănești" class="comuna" id="80123"/>
    <path d="M651.602 323.178l-3.085 11.581-9.624 4.376-5.516 13.856 2.778 12.916-17.01 5.07-5.826-2.322-26.792 2.782-.638-8.279-15.004-2.835-12.827 8.504-11.715 5.823-33.651-3.464 2.9-31.449 8.169-15.999 7.53-3.88 2.873-12.469 12.13-8.974 8.014 3.269 23.178 1.541 2.953-5.695 20.955 2.746 5.274-6.838 20.889 20.188 20.43 2.675 3.615 6.877z" data-name="Tîrgu Cărbunești" class="oras" id="78329"/>
    <path d="M696.682 295.263l3.457 9.006 17.105-.672 8.602-7.344 11.194 8.753 4.058 35.959-16.164 23.267-11.65 9.064-25.144-1.538-.21-32.403-8.495-28.283 4.24-20.595 13.007 4.786z" data-name="Bustuchin" class="comuna" id="79406"/>
    <path d="M361.956 348.961l-14.342 3.197-18.646-18.262-19.075-12.694-7.155-17.829-5.28-5.97-1.236-17.84 28.224-1.815 15.763-4.287 6.585 16.861-.987 17.114 10.879 18.057-6.425 12.196 11.695 11.272z" data-name="Telești" class="comuna" id="82396"/>
    <path d="M279.207 278.837l1.196 6.237-5.629 24.683-2.6 29.73-7.924-3.016-36.83 2.97-6.603 9.174-15.14-16.889 9.652-12.227 21.426-8.566-4.976-26.843 13.794-7.927 21.114-4.641-.43 8.93 12.95-1.615z" data-name="Godinești" class="comuna" id="80427"/>
    <path d="M683.676 290.477l-4.241 20.595-13.403.056-14.43 12.05-3.615-6.877-20.43-2.675-20.889-20.188-5.836-6.87 10.412-12.804 5.95-4.26 16.194.217 16.087-4.214 10.923 15.513 23.278 9.457z" data-name="Albeni" class="comuna" id="78472"/>
    <path d="M577.506 248.754l37.881 13.421-4.143 11.589-10.412 12.804 5.836 6.87-5.274 6.838-20.955-2.746-2.952 5.695-23.179-1.541-8.013-3.27-12.131 8.976-2.873 12.469-7.53 3.88-29.083-25.108-11.786 1.827 7.449-5.242-.962-16.268 24.492-2.306 1.166-9.351 11.187-8.188 19.986-8.454 14.18 5.65 17.116-7.545z" data-name="Scoarța" class="comuna" id="81861"/>
    <path d="M394.459 255.932l15.416 34.994 14.772 8.749-19.174 15.985-9.108 13.812-21.844 8.873-8 10.831-4.565-.215-11.695-11.272 6.425-12.196-10.879-18.057.987-17.114-6.585-16.861 4.29-11.635 32.976-4.734-.07-13.67 9.462.613 7.592 11.897z" data-name="Bălești" class="comuna" id="77910"/>
    <path d="M752.926 255.038l8.063 31.19-15.148 15.743-8.8 3.035-11.195-8.753-8.602 7.344-17.105.672-3.457-9.006 9.898-7.275 2.199-11.368 11.444-10.211 3.84-27.865 18.265-1.62 10.598 18.114z" data-name="Roșia de Amaradia" class="comuna" id="81497"/>
    <path d="M504.804 234.337l-15.425 44.611.962 16.269-7.449 5.24-42.328 8.034-15.917-8.816-14.772-8.749-15.416-34.994 5.72-12.182 12.235-12.792 20.576 9.844 6.58-13.487 7.478 8.34 11.28.928 12.702-16.171 2.092 10.096 31.682 3.83z" data-name="Tîrgu Jiu" class="municipiu resedinta" id="77812"/>
    <path d="M734.03 217.149l8.894 5.564-.596 14.21-18.265 1.62-3.84 27.866-11.444 10.21-2.199 11.369-9.898 7.275-13.006-4.786-23.278-9.457-10.923-15.513 18.588-25.442 7.552-2.84 8.086-10.255 15.25 2.975 9.975-12.282 18.131-6.993 6.973 6.479z" data-name="Prigoria" class="comuna" id="81415"/>
    <path d="M371.54 231.56l5.864 11.863.071 13.67-32.975 4.733-12.93-9.372 3.48-18.658-.648-14.882 23.056-8.261-1.135 13.29 5.77 8.837 9.446-1.22z" data-name="Arcani" class="comuna" id="78668"/>
    <path d="M582.454 212.458l-5.456 17.692.508 18.604-17.117 7.545-14.18-5.65-19.985 8.454-11.187 8.188-1.166 9.351-24.492 2.306 15.425-44.61 7.782-4.244 4.683-11.202 9.35-.348 3.704-11.256L543.12 204l16.278 10.88 14.425-15.859 8.631 13.438z" data-name="Bălănești" class="comuna" id="78748"/>
    <path d="M409.675 184.427l4.85 11.152-1.628 17.406 4.414 8.401-4.897 9.572-12.236 12.792-5.72 12.182-7.591-11.897-9.463-.612-5.865-11.863 10.417-23.498 10.482-1.79 1.995-19.271 15.242-2.574z" data-name="Lelești" class="comuna" id="80677"/>
    <path d="M638.895 183.056l19.446 11.358 16.36 6.258-2.887 8.585 13.722 10.41-9.92 17.557-7.553 2.841-18.588 25.442-16.087 4.214-16.195-.216-5.949 4.259 4.143-11.589 2.189-23.675 3.614-9.263-2.192-13.899 6.728-4.948 1.375-21.265 11.794-6.07z" data-name="Bengești-Ciocadia" class="comuna" id="78873"/>
    <path d="M627.101 189.125l-1.375 21.265-6.728 4.948 2.192 13.899-3.614 9.263-2.189 23.675-37.881-13.42-.508-18.605 5.456-17.692 16.266-4.183-2.83-9.76 7.125-14.888 8.308-4.422 15.778 9.92z" data-name="Săcelu" class="comuna" id="81754"/>
    <path d="M709.928 178.354l20.284 10.309 15.933-1.215 2.352 12.638-11.68 7.094-2.787 9.969-6.973-6.48-18.131 6.994-9.975 12.282-15.25-2.975-8.086 10.254 9.92-17.558-13.72-10.409 2.885-8.585 3.513-5.873 21.043-4.568-1.659-9.1 12.331-2.777z" data-name="Bumbești-Pițic" class="comuna" id="79362"/>
    <path d="M759.166 176.226l1.38 23.01 11.32 2.012 7.541 17.865 1.978 26.506-28.459 9.419-10.598-18.115.596-14.21-8.894-5.564 2.786-9.969 11.68-7.094-2.35-12.638 13.02-11.222z" data-name="Alimpești" class="comuna" id="78542"/>
    <path d="M479.971 200.163l-8.94 20.249-12.703 16.171-11.28-.928-7.478-8.34 10.904-12.727-10.267-8.84-2.51-19.639 6.286-14.324-.04-11.013 14.34 8.05 5.628 14.08 16.06 17.262z" data-name="Turcinești" class="comuna" id="78089"/>
    <path d="M314.577 70.683l3.004 18.81-9.206 10.431-20.319 15.378 2.165 12.278 9.298 3.843-4.857 22.31 4.65 18.787 11.245 8.425.955 9.435-10.356 3.192 4.695 10.1 20.255 17.239-2.11 9.793 11.054 3.092-3.48 18.658 12.93 9.372-4.291 11.635-15.763 4.287-28.224 1.814 1.236 17.842 5.28 5.97-7.051 13.664-8.14-4.755-7.144-27.21-1.196-6.236 4.128-9.615-11.148-9.794 3.84-24.13-4.868-18.522 2.841-5.597-16.295-21.788-7.675-4.774-14.16 2.194-2.44-23.52 10.889-16.682 8.05-4.709-8.224-14.98-21.648-17.274 3.893-20.36 12.47 2.93 6.007-18.404 7.716-9.93 6.577 15.115 13.091-4.996 6.894 6.135 29.897-10.749 5.535 1.296z" data-name="Peștișani" class="comuna" id="81184"/>
    <path d="M139.559 68.405l9.808 11.676 3.095 19.83 5.115 10.847-.965 13.94L171.784 116l10.907 3.617 7.304 32.311 6.798 15.194-2.045 15.82-14.929 11.237-9.446 22.18-4.255 18.408 9.315 13.586 9.508 3.86-.466 13.016 8.851 15.315-3.148 7.239 4.644 14.067-14.458 5.108-25.423-41.248-16.107-7.292-11.535-14.877-18.39 1.376-2.74-14-17.417 6.14-3.826-17.579-9.25-16.634-5.775 4.586-10.142-6.782-3.92-17.185-12.814-6.61-29.18-3.146L1 156.49l10.798-22.77 12.941-12.732 3.123-6.073 15.985-2.336 11.946-9.325 2.492-11.94L73.8 85.291l7.964-14.44 13.673-.315 16.292 5.13 6.093-9.967 19.016-2.897 2.72 5.602z" data-name="Padeș" class="comuna" id="81095"/>
    <path d="M465.811 43.919l-5.812 5.321.883 12.752 12.524 10.806 6.433 19.275-.417 10.335-7.37 10.454 8.953 19.178-.609 14.117 15.254 9.837 1.02 18.167-16.699 26.002-16.06-17.26-5.628-14.08-14.34-8.052-7.215-3.837 2.592-11.785-2.485-41.027-2.203-8.994 8.617-18.04-5.988-15.6 4.781-9.761 19.62-11.57 4.149 3.762z" data-name="Schela" class="comuna" id="81987"/>
    <path d="M461.661 40.157l-19.619 11.57-4.781 9.76 5.988 15.601-8.617 18.04 2.203 8.994 2.485 41.027-2.592 11.785 7.215 3.838.04 11.013-6.286 14.324 2.51 19.64 10.267 8.84-10.904 12.726-6.58 13.487-20.576-9.844 4.897-9.572-4.414-8.4 1.628-17.407-4.85-11.152-5.593-26.507-5-6.865 15.248-28.617-.533-32.058-8-10.96-3.395-17.222 11.064-19.084 20.45-6.605 19.476-1.458 8.27 5.106z" data-name="Stănești" class="comuna" id="82136"/>
    <path d="M573.823 199.021l-14.425 15.859L543.12 204l-12.797 3.288-.52-16.738 7.918-12.04-6.474-6.761-2.472-16.946 5.135-11.14-3.223-16.06 12.882-26.33 7.614-23.614 8.33-2.007 18.432-36.339 15.728-9.622 7.319-8.3-4.108 23.603-8.233 4.788-11.882 17.51 3.609 11.031-4.221 23.338-12.332 17.442 7.649 10.657 2.35 69.261z" data-name="Mușetești" class="comuna" id="80908"/>
    <path d="M600.992 21.392l-7.319 8.299-15.728 9.622-18.432 36.339-8.33 2.007-7.614 23.613-12.882 26.33 3.223 16.06-5.135 11.141 2.472 16.946 6.474 6.761-7.917 12.04.52 16.738-3.705 11.256-9.35.348-4.683 11.202-7.782 4.243-31.682-3.829-2.092-10.096 8.941-20.249 16.698-26.002-1.02-18.167-15.253-9.837.61-14.117-8.954-19.178 7.37-10.454.417-10.335-6.433-19.275-12.524-10.806L460 49.24l5.812-5.321 10.532-8.554 8.099-18.488 8.7.045 14.865-5.67 15.038 3.452-1.444 16.443L533.52 39l19.78 7.966 12.318-3.622 4.879-7.997 20.456-12.59 10.04-1.365z" data-name="Bumbești-Jiu" class="oras" id="79308"/>
    <path d="M771.866 201.248l-11.32-2.011-1.38-23.011-3.72-23.218 1.32-13.998-8.023-15.046-4.832-31.574 8.455-31.865 11.8-24.418-4.753-23.714-7.609-4.542 13.722-5.38 19.137 16.697 8.04 2.555 1.355 14.814-6.107 5.026-24.01 41.606 8.467 33.324 7.375 18.237 8.78 6.475 9.562 26.765.875 11.675-27.134 21.603z" data-name="Polovragi" class="comuna" id="81380"/>
    <path d="M640.273 3.671L627.948 29.8l5.582 3.85 4.052 21.023 7.569 10.94 13.858 2.896-6.614 25.35 5.023 15.026 2.193 57.412-2.076 5.392-18.64 11.367-11.794 6.069-15.778-9.92-8.308 4.422-7.126 14.888 2.831 9.76-16.266 4.183-8.63-13.437-2.35-69.26-7.649-10.658 12.332-17.442 4.22-23.338-3.608-11.03 11.882-17.511 8.233-4.788 4.108-23.602 6.198-9.674 7.393 1.023 9.864-9.31L638.99 1l1.283 2.671z" data-name="Crasna" class="comuna" id="79834"/>
    <path d="M759.166 176.226l-13.02 11.222-15.934 1.215-20.284-10.309-2.3-21.894 9.414-9.472 2.999-12.922-6.347-25.246 1.035-20.303-9.892-2.043-6.183-8.36 8.449-10.347-11.766-18.856 1.49-25.215 13.563-4.937 11.714 5.943 20.263-7.917 9.437-8.934 7.609 4.542 4.753 23.714-11.8 24.418-8.454 31.865 4.83 31.574 8.025 15.047-1.321 13.998 3.72 23.217z" data-name="Baia de Fier" class="comuna" id="78711"/>
    <path d="M696.827 23.696l-1.49 25.215 11.766 18.856-8.448 10.348 6.182 8.359 9.892 2.042-1.035 20.304 6.347 25.246-2.999 12.922-9.414 9.472 2.3 21.894-12.33 2.777 1.658 9.1-21.043 4.568-3.513 5.873-16.36-6.258-19.445-11.358 18.64-11.367 2.076-5.392-2.193-57.412-5.023-15.027 6.614-25.349-13.858-2.896-7.569-10.94-4.052-21.023-5.582-3.85L640.273 3.67l5.184 6.592 16.896 6.764L672.19 4.27l14.701 7.751 9.936 11.676z" data-name="Novaci" class="oras" id="78258"/>
    <path d="M706.366 554.817l-.033 12.038 6.497 16.438-5.59 12.606-5.761 11.515 6.751 26.381-6.118 16.552 3.547 8.955-5.6 11.177-6.931-9.694-13.46-2.33-21.494 1.95-15.796 4.81-9.956-8.677-5.823-13.409 3.996-32.576 23.064 9.83 19.79 1.108-6.582-13.55 12.003-13.666.776-23.672 1.31-20.921 7.354-4.26 18.056 9.395z" data-name="Crușet" class="comuna" id="79932"/>
    <path d="M302.738 303.373l7.155 17.83 19.075 12.693 18.646 18.262 1.665 21.14-3.734 3.323-31.528 23.575-1.467-1.426-5.181-16.936-16.997-12.619-3.987-12.083 3.441-14.544-17.652-3.1 2.6-29.731 5.63-24.683 7.143 27.209 8.14 4.755 7.05-13.665z" data-name="Cîlnic" class="comuna" id="79736"/>
    <path d="M403.707 475.328l19.739 15.895 3.208 5.66-.04 8.353 19.422 22.127-23.108 2.741-11.661-11.982-17.613-8.987-9.593-13.018-5.771-18.57-11.024-16.666-22.614-18.303-6.356-11.065.907-.878 15.807-9.714 17.885 16.65 10.28 5.977 4.734 12.498 9.762 5.868 6.036 13.414z" data-name="Negomir" class="comuna" id="80980"/>
    <path d="M377.568 392l9.23 2.19 11.79 15.434 23.529 8.17 7.067 12.675 14.001 12.149 3.647 8.583-28.996 9.617-14.129 14.51-6.036-13.414-9.762-5.868-4.735-12.498-10.28-5.977-17.884-16.65-15.807 9.714-15.004-10.854-10.182-19.585 31.528-23.575 4.076 8.263 18.738 13.351 9.21-6.235z" data-name="Fărcășești" class="comuna" id="80285"/>
    <path d="M361.956 348.961l4.565.215 20.018 12.468 5.87 15.958L377.569 392l-9.21 6.235-18.738-13.351-4.076-8.263 3.733-3.323-1.664-21.14 14.342-3.197z" data-name="Rovinari" class="oras" id="82895"/>
    <path d="M402.402 62.198l3.395 17.221 8 10.96.533 32.06-15.249 28.616 5.001 6.865 5.593 26.507L394.433 187l-1.995 19.272-10.482 1.789-10.417 23.498-9.445 1.22-5.77-8.838 1.134-13.29-23.056 8.262.648 14.882-11.054-3.092 2.11-9.793-20.255-17.24-4.695-10.099 10.356-3.192-.954-9.435-11.245-8.425-4.65-18.787 4.856-22.31-9.298-3.843-2.165-12.278 20.319-15.378 9.206-10.432-3.004-18.81 18.022-22.2 23.755 9.663 15.07.953 14.727-4.088 16.25 7.188z" data-name="Runcu" class="comuna" id="81576"/>
    <path d="M226.39 89.285l-3.893 20.36 21.648 17.275 8.224 14.98-8.05 4.71-10.888 16.682 2.44 23.519 14.159-2.194 7.675 4.774L274 211.179l-2.841 5.597 4.868 18.522-3.84 24.13 11.148 9.794-4.128 9.615-12.95 1.615.43-8.93-21.114 4.64-13.794 7.928 4.976 26.843-21.426 8.566-9.652 12.227-2.013-1.72-3.134-8.25 4.152-13.401-9.86-6.505-4.644-14.066 3.148-7.239-8.85-15.315.465-13.015-9.508-3.86-9.315-13.587 4.255-18.408 9.446-22.18 14.93-11.237 2.044-15.82-6.798-15.194-7.304-32.31L171.784 116l-15.172 8.697.965-13.94-5.115-10.846-3.095-19.831-9.808-11.676 21.335-7.889 13.626-8.374 13.102 6.093 3.663 12.96 20.234-11.116 22.534-2.993 6.667 4.804-4.61 17.994-9.72 9.401z" data-name="Tismana" class="oras" id="82430"/>
    <path d="M617.582 519.472l2.575 15.22-6.72 3.642-3.753 18.22 2.744 30.46 20.314-.233-1.32 5.437-9.175 6.965-5.893 23.686-9.637 4.914-26.158-5.008-10.087 1.732 4.755-12.916-4.147-44.691-3.453-2.747 15.389-36.814 13.188 3.465 14.739-11.3 6.639-.032z" data-name="Turburea" class="comuna" id="82555"/>
    <path d="M679.435 311.072l8.496 28.283.209 32.403 6.532 38.717-7.906-1.061-6.033 41.654-11.816.022-2.586-21.68 2.73-5.408-3.994-16.67-5.98-8.805 4.747-8.453-.053-18.194-7.31-14.396-.14-10.674-7.814-12.05 3.085-11.582 14.43-12.05 13.403-.056z" data-name="Berlești" class="comuna" id="78926"/>
    <path d="M741.098 340.965l1.423 6.383 2.57 6.73-5.05 21.101 2.776 14.837-5.897 7.567-1.94 11.245-8.395 1.252-7.963 31.104-7.217 9.655-7.67 19.369-7.1 1.522-19.9-13.71 3.998-6.952 6.033-41.654 7.906 1.061-6.532-38.717 25.144 1.538 11.65-9.064 16.164-23.267z" data-name="Logrești" class="comuna" id="80766"/>
  </g>
</svg>
