<svg xmlns="http://www.w3.org/2000/svg" version="1.2" baseProfile="tiny" stroke-linecap="round" stroke-linejoin="round" viewBox="0 0 800 870">
  <g id="GL" fill="none" stroke="#aaa">
    <path d="M494.794 704.912l-9.785 18.715 3.715 34.288-14.226-.273.26 23.739-12.079-.374-1.247 19.101-6.586 6.757-12.04 31.956 7.61 3.547-18.265 6.03-2.95-24.187-15.512-4.742-5.543 8.578-35.043-13.179 11.606-16.6 11.281-3.757-1.027-17.603 14.925-5.392 17.751-23.107 17.242-4.242 2.378-13.217 11.693-3.315-.017-21.404 35.86-1.32z" data-name="Independența" class="comuna" id="76585"/>
    <path d="M447.259 730.95l-2.378 13.216-17.242 4.243-17.751 23.107-14.925 5.392 1.027 17.603-11.281 3.758.852-24.453-13.349 8.525-10.17-8.702 14.193-.946 5.487-34.03 7.683-20.64-12.126-25.646 3.64-43.72 42.988 4.426-3.35 33.864 19.783 4.644-4.365 21.689 11.284 17.67z" data-name="Piscu" class="comuna" id="76996"/>
    <path d="M336.135 656.254l-25.684 11.33-.172 32.32-4.623 9.457-18.787-6.293-16.135 8.073-19.22 19.474 3.11-16.33-3.832-16.49-16.05-10.562 4.13-15.37 20.618-5.664 14.637-11.088 13.848-2.957 26.906-15.647L332.73 630l3.406 26.254z" data-name="Fundeni" class="comuna" id="76353"/>
    <path d="M695.83 622.546l19.425 21.012 7.75 16.09 15.498-4.692 3.294 10.251 17.418 22.946 2.168 30.632 11.383 38.292 7.873 12.148 18.361 6.26-13.071 10.783.64 48.296-7.995 2.554-20.818-13.17-20.947-12.22-23.772-3.46-20.475 7.986-27.746 22.44-6.205 13.267-19.286 9.983-10.608-4.26-7.31 11.154-21.962-12.935 6.264-6.67-.492-28.695-15.548-12.93-.063-20.987 6.518-31.016 16.375-4.703 23.393 12.498 28.813.59-4.403-31.43 2.264-38.918 7.47-25.8-1.25-22.787 6.618-26.499 20.426 3.99z" data-name="Galați" class="municipiu resedinta" id="75098"/>
    <path d="M448.174 528.646l36.152 6.89 31.96 2.526-6.45 25.264 15.846 3.079.063 63.24-62.048-1.61-11.474 13.038-12.9-2.965-.812-14.335-16.016-1.13 6.584-24.44-32.574-1.157-13.698 31.323-5.356-.272.136-20.145 9.053-.123-2.748-24.274.408-31.599 8.362-12.842 44.826 3.548 10.686-14.016z" data-name="Pechea" class="comuna" id="76969"/>
    <path d="M384.643 500.45l-3.77 24.078 3.427 27.428-.408 31.599-2.916-12.28-20.413-.641.09-8.156-26.15 3.19-6.924-20.871-4.936-41.266-.091-15.844 26.128 2.867 8.963 11.308 27-1.412z" data-name="Grivița" class="comuna" id="76558"/>
    <path d="M739.014 455.334l.265 9.423 12.95 8.966-4.18 12.816 7.76 18.779-47.476 4.093-.724 16.024-20.5 1.466-3.63-7.515-43.29 8.965-18.705-48.632 22.32-11.622 10.01-15.41 23.234 8.448 61.966-5.801z" data-name="Foltești" class="comuna" id="76282"/>
    <path d="M714.545 416.227l10.726 10.652 14.44-5.22-7.201 25.264 6.504 8.41-61.966 5.802-23.234-8.448-10.01 15.41-22.32 11.622-14.275 1.38-15.86-8.574 18.068-16.43 13.57-31.861 2.284-13.658 18.665-4.788-2.473-18.878-15.368-9.49 14.508-12.181 9.846 4.193 16.26 41.774 15.04 13.668 32.796-8.647z" data-name="Măstăcani" class="comuna" id="76718"/>
    <path d="M715.403 328.383l-16.876 8.631 6.912 10.494-3.32 20.658 8.378 17.98 4.048 30.081-32.797 8.648-15.04-13.669-16.26-41.774-9.845-4.193-8.358-9.402-2.489-28.252 13.475-8.351 1.123-9.341 35.029.746 36.02 17.744z" data-name="Vlădești" class="comuna" id="77536"/>
    <path d="M272.314 267.607l-4.4 7.287 2.046 29.832-3.297 13.146-27.185-10.798-9.746 24.932-22.651-3.993-41.77-11.766-44.075 13.566-2.967-6.03-5.771-28.239-8.887-20.655 20.194-4.908-10.848-17.864 48.632-15.43 2.515-7.655 3.11 1.209 16.443 2.485-9.363 37.613 21.623 2.468 76.397-5.2z" data-name="Munteni" class="comuna" id="75258"/>
    <path d="M467.357 174.205l27.217 50.336 8.225 20.842 3.236 25.394 8.569.125 16.447 63.481-.622 13.328-22.154 8.52-37.863-.798-15.25 4.204-2.594-19.6 17.685-5.611 4.49-14.996-13.749-34.015-8.724-10.077-12.09-37.006-5.496-18.194 12.667-3.327 4.839-14.587-6.263-26.92 10.897-2.38 10.533 1.28z" data-name="Vîrlezi" class="comuna" id="77509"/>
    <path d="M226.399 97.732l-10.322 8.93-14.232-4.58L189.69 122.3l-10.621 29.567-15.805-19.435-10.838-27.543.91-9.338-4.337-49.747 4.546-6.993 17.8 14.22 25.202-.106 1.94-15.748 14.907-.33 7.715 14.422 19.298 35.63-14.008 10.834z" data-name="Priponești" class="comuna" id="77028"/>
    <path d="M662.566 693.642l-2.264 38.919 4.403 31.428-28.813-.59-23.393-12.497-16.375 4.702-6.117-.799 6.884-33.625 6.361-10.29-1.604-29.442 4.259-3.259 27.071 4.253-.651 18.052 20.396-.865 9.843-5.987z" data-name="Vînători" class="comuna" id="75150"/>
    <path d="M714.212 599.198l-18.382 23.348-20.426-3.99-6.618 26.5 1.25 22.786-7.47 25.8-9.843 5.987-20.396.865.651-18.052-27.071-4.253-10.096-89.437 28.03.961 25.554-3.556 1.565 15.585 49.553-7.46 13.7 4.916z" data-name="Tulucești" class="comuna" id="77331"/>
    <path d="M535.852 750.512l24.938 10.982.392 29.062 24.212 5.435 4.275 11.616 15.548 12.931.492 28.696-6.264 6.67-31.334-3.623-22.559-13.91-12.581 4.367-6.051-1.77 11.548-47.729-14.888-4.403 5.93-20.41 6.342-17.914z" data-name="Șendreni" class="comuna" id="75114"/>
    <path d="M452.223 641.073l3.372 23.599 54.3 8.063 2.591 14.23-15.709.024-1.983 17.923-35.859 1.32.017 21.403-11.693 3.315-11.284-17.67 4.365-21.689-19.783-4.644 3.35-33.864-42.988-4.425 1.888-20.29 13.698-31.322 32.574 1.158-6.584 24.44 16.016 1.129.812 14.335 12.9 2.965z" data-name="Slobozia Conachi" class="comuna" id="77180"/>
    <path d="M535.852 750.512l-6.342 17.915-15.674 4.185-14.24 14.488-11.153-10.227.281-18.958-3.715-34.288 9.785-18.715 1.983-17.923 15.71-.024-2.592-14.23 16.895-7.828 11.286 35.278-2.224 50.327z" data-name="Schela" class="comuna" id="77153"/>
    <path d="M377.45 628.097l5.357.272-1.889 20.289-3.639 43.719 12.126 25.646-7.683 20.64-5.487 34.03-14.193.946 2.206-7.734-11.08-7.27 9.295-35.894-13.429-6.57-7.973-14.539-21.96-6.71-13.445 14.44 4.623-9.459.172-32.32 25.684-11.329 6.563-19.182 14.71-10.014 20.043 1.039z" data-name="Tudor Vladimirescu" class="comuna" id="77313"/>
    <path d="M364.248 765.905l-15.335 13.799 2.126 17.875-13.537 8.91-14.383-12.288 1.522-10.284-10.505-10.036-33.662-3.642-21.32-18.654-7.64-20.97 19.22-19.474 16.135-8.073 18.787 6.293 13.444-14.44 21.961 6.711 7.973 14.539 13.429 6.57-9.296 35.894 11.08 7.27z" data-name="Nămoloasa" class="comuna" id="76763"/>
    <path d="M334.503 565.668l-.188 15.536-26.933-.46-59.363 19.808-26.798.806-16.123 3.912-14.623-17.37-2.094-12.096-.214-8.707 26.458-1.104 14.815-11.233-8.564-15.555 12.913-6.09-5.179-12.363 33.486-11.442 3.014 10.677 43.352-12.834 14.181-3.622 4.936 41.266 6.924 20.871z" data-name="Ivești" class="comuna" id="76601"/>
    <path d="M383.892 583.555l2.748 24.274-9.053.123-.136 20.145-20.043-1.04-14.71 10.015-6.563 19.182L332.729 630l-17.848 6.507-26.906 15.647-13.848 2.957-14.637 11.088-14.194-9.88-4.466-30.037-12.188-11.75-7.42-13.174 26.797-.806 59.363-19.808 26.933.46.188-15.536 26.15-3.19-.09 8.156 20.413.64 2.916 12.28z" data-name="Liești" class="comuna" id="76674"/>
    <path d="M544.256 536.226l-5.986 32.816-12.588-2.637-15.845-3.079 6.448-25.264-31.96-2.525-36.151-6.89.715-14.604 38.478-8.847.89-31.054 4.986-19.16 32.24-5.075 1.137 29.203-6.756 14.437 1.178 31.54 5.077 9.648 18.137 1.491z" data-name="Rediu" class="comuna" id="77082"/>
    <path d="M207.08 328.013l8.17 70.31-40.595 2.252-7.93 20.198-21.38-.492.7 18.858-10.213.468-23.354-29.88 13.637-10.272-18.507-41.575-8.43-7.75 6.99-15.466 12.101-10.88 2.967 6.029 44.076-13.566 41.769 11.766z" data-name="Tecuci" class="municipiu" id="75203"/>
    <path d="M715.403 328.383l-36.02-17.744-35.03-.746 1.91-20.282-6.893-49.49 42.943-13.625 11.228-6.275 10.698 18.858-2.562 9.934 9.468 16.778-8.811 24.975 6.513 17.827 9.668 8.312-3.112 11.478z" data-name="Oancea" class="comuna" id="76932"/>
    <path d="M682.15 175.868l13.655 38.074-2.264 6.28-11.228 6.274-42.943 13.626-42.517 5.34-11.141-19.087-3.619-27.796 19.846-19.302-3.008-12.263 22.908-12.282 27.542-8.374 12.536 36.327 20.232-6.817z" data-name="Suceveni" class="comuna" id="77288"/>
    <path d="M470.412 355.433l2.082 27.412-36.732 11.587 1.018 17.203-11.135-3.238-1.105-22.093-24.966-.106-.723-9.062-9.624-27.447 23.684-6.54 9.543-17.525 15.329-2.292-8.215-28.692 31.426-9.225 13.748 34.015-4.49 14.996-17.684 5.611 2.594 19.6 15.25-4.204z" data-name="Corni" class="comuna" id="76004"/>
    <path d="M440.18 238.332l12.09 37.006 8.724 10.077-31.426 9.225 8.215 28.692-15.33 2.292-9.542 17.524-23.684 6.54 1.58-31.593-13.008-9.31 1.212-23.47-3.426-22.305-1.179-11.471 20.224-3.159 11.483-12.894 20.433 6.64 13.635-3.794z" data-name="Smulți" class="comuna" id="77260"/>
    <path d="M326.297 343.024l-5.367 3.041-11.498 33.17 14.77 3.162-3.231 23.099-12.78-2.648-42.426 12.425-12.854-17.887-37.662.936-8.168-70.31 22.651 3.994 9.746-24.932 27.185 10.798 3.296-13.146 7.65 13.858 26.31 6.11-4.544 10.6 26.922 7.73z" data-name="Matca" class="comuna" id="76692"/>
    <path d="M301.886 451.422l-7.783 17.541-27.844 7.23-55.268 19.33-13.427 8.028-39.27-14.749-14.862-29.245 3.567-7.51 41.753-3.964 3.133 6.535 61.23-14.613-8.707-18.501 20.878-4.954 9.353 30.849 25.332-9.312 1.915 13.335z" data-name="Barcea" class="comuna" id="75515"/>
    <path d="M621.484 479.719l18.706 48.632 10.42 37.132-29.572-1.171.68-7.792-25.35 1.278-26.401-34.103-14.67-23.476 10.536-2.797 4.768-15.935 20.748-8.962 15.86 8.573 14.275-1.38z" data-name="Scînteiești" class="comuna" id="77126"/>
    <path d="M582.093 198.58l3.619 27.795 11.141 19.087 42.517-5.34 6.893 49.489-1.91 20.282-1.122 9.34-13.475 8.352-24.458 1.908-.752-55.588-62.044.195-.99-9.171-8.305-55.865 13.442-3.08 7.617-13.846 27.827 6.441z" data-name="Băneasa" class="comuna" id="75686"/>
    <path d="M546.65 205.983l-13.443 3.081 8.304 55.865-26.907 5.973-8.569-.125-3.236-25.394-8.225-20.842-27.217-50.336-5.302-23.01 26.073-20.656 24.662-5.371 33.86 80.815z" data-name="Jorăști" class="comuna" id="76638"/>
    <path d="M714.212 599.198l-13.699-4.916-49.553 7.46-1.565-15.585-25.554 3.556-28.03-.961-4.046-34.4-38.631 2.856.165-27.904 16.668-5.609 26.401 34.103 25.35-1.278-.68 7.792 29.571 1.171-10.42-37.132 43.29-8.966 3.63 7.515 20.5-1.465.724-16.024 47.476-4.094-7.234 6.183 9.671 25.902-6.52 21.603 10.192 16-13.364 11.099-8.556 16.319-25.786-3.225z" data-name="Frumușița" class="comuna" id="76317"/>
    <path d="M488.724 757.915l-.281 18.958 11.152 10.227 14.24-14.488 15.675-4.185-5.93 20.41 14.887 4.402-11.547 47.73 6.05 1.77-5.117 22.348-17.875-2.823-15.527 4.546-29.992-10.677-3.262-17.303-10.78 3.538-7.61-3.547 12.039-31.956 6.586-6.757 1.247-19.1 12.078.373-.259-23.74 14.226.274z" data-name="Braniștea" class="comuna" id="75711"/>
    <path d="M449.85 501.618l-.961 12.425-.715 14.603-10.686 14.016-44.826-3.548-8.362 12.842-3.426-27.428 3.769-24.078 13.056-8.679 24.383 1.6 1.048 7.194 26.72 1.053z" data-name="Costache Negri" class="comuna" id="76111"/>
    <path d="M308.462 507.153l-43.351 12.834-3.015-10.677-33.486 11.442 5.18 12.363-12.914 6.09 8.564 15.555-14.815 11.233-26.458 1.104-9.885-9.285-27.336-2.554-12.863-21.143-2.444-17.763 16.637-7.573 6.018-19.977 39.27 14.749 13.427-8.029 55.268-19.33 27.844-7.229 14.36 38.19z" data-name="Umbrărești" class="comuna" id="77402"/>
    <path d="M570.601 481.488l-4.768 15.934-10.537 2.797 14.67 23.476-16.667 5.609-9.043 6.922-18.137-1.491-5.077-9.648-1.178-31.54 6.756-14.437-1.137-29.203-3.569-7.465 10.659-4.17-5.229-22.07 23.574 1.243 1.625 11.99 17.446 32.368.612 19.685z" data-name="Cuca" class="comuna" id="76139"/>
    <path d="M99.178 350.13l8.43 7.75 18.507 41.575-13.637 10.271-13.42 9.653-18.548-1.133-10.024-31.855-4.215-12.478-17.026-11.893-9.344-19.998 8.906-14.15L72.1 316.876l18.902 14.232 8.176 19.021z" data-name="Cosmești" class="comuna" id="76040"/>
    <path d="M102.159 186.035l-13.192-.701 3.11 33.112 9.595 31.037-11.138 4.888-28.41-2.134-9.98-24.72 15.629-12.322L55.761 186.2l-22.93-35.372 6.56-18.02 9.376-2.436 10.257-1.695 12.487 21.517 7.66 26.038 13.63-3.77 9.358 13.573z" data-name="Buciumeni" class="comuna" id="75819"/>
    <path d="M52.144 227.518l9.98 24.719 28.41 2.134 11.138-4.888-3.927 7.815 5.866 17.59 8.887 20.656 5.771 28.24-12.1 10.88-6.99 15.465-8.177-19.021L72.1 316.876l-23.292 10.996-14.666-33.153-19.15-33.67-4.808-24.7 30.093-3.34 11.867-5.491z" data-name="Nicorești" class="comuna" id="76807"/>
    <path d="M109.83 106.102l15.762 3.822-7.88 24.345 12.44 22.246-.723 27.27-27.27 2.25-9.359-13.574-13.63 3.77-7.66-26.037-12.486-21.517-10.258 1.695-4.365-20.354 8.608-6.036 20.897 5.459 35.925-3.34z" data-name="Brăhășești" class="comuna" id="75766"/>
    <path d="M255.591 180.867l-5.645 10.363 5.398 31.224-72.08-4.225-12.558-26.221 2.177-18.042 17.627-13.803-11.441-8.297 10.621-29.567 12.155-20.216 14.232 4.579 10.322-8.93 12.23 20.205-12.517 12.735 29.48 50.195z" data-name="Ghidigeni" class="comuna" id="76406"/>
    <path d="M344.84 126.96l9.481 12.698-3.716 24.818-9.468 12.057.663 18.846-28.956 25.085-10.543-.434-23.032 12.288-15.631 2.419-8.294-12.283-5.398-31.224 5.645-10.363 9.442 8.78 18.96-5.96 13.375-13.711-4.959-41.122 21.654-6.887 30.777 4.993z" data-name="Cerțești" class="comuna" id="75917"/>
    <path d="M255.344 222.454l8.294 12.283 8.676 32.87-76.397 5.2-21.623-2.468 9.363-37.613-16.444-2.485 3.56-11.99 12.492-.022 72.079 4.225z" data-name="Negrilești" class="comuna" id="77579"/>
    <path d="M445.927 175.304l6.263 26.92-4.839 14.587-12.667 3.327 5.497 18.194-13.635 3.793-20.433-6.64-11.483 12.895-20.224 3.159-7.033-24.26-13.081-1.635-7.935-13.307-.023-13.753 14.705-5.6-10.434-28.508 3.716-24.818-9.481-12.697 8.365-11.886 17.181 2.395 15.802 9.654 17.07-7.59 10.284 8.35 2.991 30.38 8.535-3.035 9.403 25.315 11.456-5.24z" data-name="Drăgușeni" class="comuna" id="76175"/>
    <path d="M398.85 377.136l.724 9.062 24.966.106 1.105 22.093 11.135 3.238 3.179 23.466 10.039 27.855 15.19.091L456.073 474l1.97 16.833-8.194 10.785-26.72-1.053-1.047-7.195-24.383-1.599-13.056 8.68-27 1.41-8.962-11.307-26.13-2.867.092 15.844-14.18 3.622-14.36-38.19 7.783-17.54 15.027-4.37-1.963-24.429 6.02-17.128 3.233-23.1 26.094-2.816.605 9.83 38.373.133 9.576-12.407z" data-name="Cudalbi" class="comuna" id="76157"/>
    <path d="M438.364 79.1l-16.467-1.15 1.005 24.81 9.226 14.018 12.687 37.108 9.74 3.3 2.269 15.737-10.897 2.381-11.456 5.24-9.403-25.315-8.535 3.035-2.99-30.38-10.286-8.35-17.07 7.59-15.801-9.654 8.23-31.153-30.907-26.995-5.05-19.242 6.237-9.637 13.926 9.953 26.16 1.776 28.292.914 1.346 14.02 17.79 3.027 1.954 18.967z" data-name="Bălăbănești" class="comuna" id="75542"/>
    <path d="M512.79 125.168l-24.662 5.371-7.925-11.005-14.977-46.458-5.431-5.15-6.015-7.549 16.657-18.083 12.325-2.901 16.427 8.085 30.032.403-8.45 36.803 7.478 26.697 7.302 11.81-22.76 1.977z" data-name="Berești" class="oras" id="75338"/>
    <path d="M438.364 79.1l21.43-11.173 5.432 5.149 14.977 46.458 7.925 11.005-26.073 20.656 5.302 23.01-10.533-1.282-2.27-15.737-9.739-3.3-12.687-37.108-9.226-14.018-1.005-24.81 16.467 1.15z" data-name="Rădești" class="comuna" id="77561"/>
    <path d="M342.66 40.08l5.049 19.242 30.907 26.995-8.23 31.153-17.182-2.395-8.364 11.885-30.777-4.992-10.885-13.153-21.45 1.306 18.606-5.091-4.147-16.298-15.09-22.169 5.337-12.465-11.072-27.68 16.68 2.425 18.502 10.881 18.432-7.44 13.683 7.796z" data-name="Bălășești" class="comuna" id="75613"/>
    <path d="M32.831 150.828l22.93 35.372 12.012 28.995-15.63 12.323-11.866 5.492-30.093 3.338L1 190.532l5.91-17.063.673-24.964 4.79 2.449 20.458-.126z" data-name="Poiana" class="comuna" id="77587"/>
    <path d="M640.603 365.239l-14.508 12.181 15.368 9.49 2.473 18.878-18.666 4.788-2.282 13.658-13.57 31.86-18.069 16.43-20.748 8.964-.612-19.685-17.446-32.368-1.625-11.99-23.574-1.242-8.859-25.772 34.504-18.577 36.299-12.927 12.326-.282 3.683-29.152 24.46-1.908 2.488 28.252 8.358 9.402z" data-name="Fîrțănești" class="comuna" id="76255"/>
    <path d="M605.298 329.493l-3.684 29.152-12.326.282-36.3 12.927-34.503 18.577-10.21-34.2 22.154-8.52.622-13.328-16.447-63.48 26.907-5.974.99 9.17 62.045-.194.751 55.588z" data-name="Tîrgu Bujor" class="oras" id="75472"/>
    <path d="M320.97 405.496l-6.02 17.128 1.963 24.429-15.027 4.37-1.915-13.336-25.332 9.312-9.353-30.849-20.878 4.954 8.707 18.501-61.23 14.613-3.133-6.535-41.754 3.964-.953-12.908-.7-18.858 21.38.492 7.93-20.198 40.594-2.252 37.662-.937 12.854 17.887 42.425-12.425 12.78 2.648z" data-name="Drăgănești" class="comuna" id="75221"/>
    <path d="M508.275 356.231l10.21 34.2 8.86 25.772 5.228 22.07-10.659 4.17-36.502 6.189.275 13.733-20.499.683-15.19-.092-10.04-27.855-3.178-23.466-1.018-17.203 36.732-11.587-2.082-27.412 37.863.798z" data-name="Băleni" class="comuna" id="75668"/>
    <path d="M525.483 449.907l-32.24 5.074-4.985 19.16-.89 31.055-38.48 8.847.961-12.425 8.194-10.785-1.97-16.833 9.115-10.952 20.5-.683-.276-13.733 36.502-6.19 3.57 7.465z" data-name="Suhurlui" class="comuna" id="77601"/>
    <path d="M112.478 409.726l23.354 29.88 10.213-.467.954 12.908-3.567 7.51 14.862 29.245-6.018 19.977-16.637 7.573 2.444 17.763-12.239-16.795-14.062-30.348-2.386-17.529-13.231-27.145-15.655-24.052 18.548 1.133 13.42-9.653z" data-name="Movileni" class="comuna" id="76745"/>
    <path d="M525.745 629.645l1.045 35.262-16.895 7.827-54.3-8.062-3.372-23.6 11.474-13.037 62.048 1.61z" data-name="Cuza Vodă" class="comuna" id="77595"/>
    <path d="M595.81 588.752l10.097 89.437-4.26 3.259 1.605 29.441-6.361 10.29-6.884 33.626 6.117.8-6.518 31.016.063 20.986-4.274-11.616-24.213-5.435-.392-29.062-24.938-10.982 2.224-50.327-11.286-35.278-1.045-35.262-.063-63.24 12.588 2.637 5.986-32.816 9.043-6.922-.165 27.904 38.63-2.856 4.047 34.4z" data-name="Smîrdan" class="comuna" id="77224"/>
    <path d="M164.104 229.032l-2.515 7.654-48.632 15.431 10.848 17.864-20.194 4.908-5.866-17.59 3.927-7.816-9.596-31.037-3.109-33.112 13.192.701 27.27-2.25.135 8.847 34.54 36.4z" data-name="Țepu" class="comuna" id="77377"/>
    <path d="M153.335 95.55l-.909 9.338 10.838 27.543 15.805 19.435 11.442 8.297-17.628 13.803-2.177 18.042 12.559 26.22-12.492.024-3.56 11.989-3.109-1.21-34.54-36.4-.135-8.846.724-27.27-12.44-22.246 7.879-24.345-15.761-3.822 43.504-10.552z" data-name="Gohor" class="comuna" id="76497"/>
    <path d="M682.15 175.868l-20.233 6.817-12.536-36.327-27.542 8.374-22.908 12.282-6.254-7.187-17.129-50.538-.239-23.123-8.98-20.77 22.708-16.03 2.98 7.329 19.471-6.209.101 11.752 25.354-2.671 26.722-13.544 22.264-.062 9.65 9.994-19.647 44.17 13.362 18.333-10.3 18.978-2.782 30.578 5.938 7.854z" data-name="Cavadinești" class="comuna" id="75864"/>
    <path d="M589.037 49.366l-22.708 16.03 8.98 20.77.239 23.123 17.13 50.538 6.253 7.187 3.008 12.263-19.846 19.303-27.827-6.442-7.617 13.845-33.859-80.815 22.76-1.976-7.301-11.811-7.478-26.697 8.45-36.803-30.032-.403-16.427-8.086-.447-32.08L490.192 1l9.44 1.715 2.787 17.653 10.55-.173 19.54-10.258 12.222 1.087 11.189 19.193 19.383-7.874 13.734 27.023z" data-name="Berești-Meria" class="comuna" id="75356"/>
    <path d="M389.227 349.689l9.624 27.447-9.576 12.407-38.373-.132-.605-9.83-26.094 2.816-14.771-3.161 11.498-33.171 5.367-3.04 12.152-6.237 6.528 10.834 12.072-7.27-13.196-21.642 14.198-8.842-6.84-11.312 17.097-10.495-11.755-19.072 19.032-5.979 3.426 22.305-1.212 23.47 13.007 9.31-1.579 31.594z" data-name="Valea Mărului" class="comuna" id="77475"/>
    <path d="M374.406 251.539l1.18 11.471-19.033 5.98 11.755 19.071-17.097 10.495 6.84 11.312-14.198 8.842 13.196 21.643-12.072 7.27-6.527-10.835-12.153 6.236-26.922-7.73 4.545-10.6-26.31-6.11-7.65-13.858-2.046-29.832 4.4-7.287-8.676-32.87 15.631-2.419 23.032-12.288 10.543.434L341.8 195.38l-.663-18.846 9.468-12.057 10.434 28.507-14.705 5.601.023 13.753 7.935 13.307 13.08 1.635 7.034 24.26z" data-name="Corod" class="comuna" id="75953"/>
  </g>
</svg>
