<svg xmlns="http://www.w3.org/2000/svg" version="1.2" baseProfile="tiny" stroke-linecap="round" stroke-linejoin="round" viewBox="0 0 800 873">
  <g id="GL" fill="none" stroke="#aaa">
    <path d="M502.608 705.869l-9.94 19.011 3.774 34.83-14.45-.277-32.194 82.464 7.73 3.603-22.449 6.852.897-25.296-21.387 3.897-35.598-13.388 11.79-16.862 63.54-68.384 11.861-25.11 36.426-1.34z" id="76585"/>
    <path d="M454.32 732.32l-63.539 68.383-23.026-25.02 14.418-.96 13.378-55.535-12.317-26.053 3.697-44.41 43.669 4.495-3.404 34.4 20.097 4.717-4.435 22.032 11.462 17.95z" id="76996"/>
    <path d="M341.438 656.441l-26.09 11.509-4.87 42.439-19.085-6.393-35.914 27.982-.734-33.338-12.11-26.343 20.945-5.753 74.399-36.773 3.46 26.67z" id="76353"/>
    <path d="M706.825 622.2l27.606 37.69 15.743-4.768 21.04 33.723 2.202 31.117 24.934 68.55.65 49.06-8.12 2.595-42.427-25.792-44.947 4.598-34.488 36.272-37.793 17.144-22.31-13.14 5.863-35.924-15.793-13.136 6.556-52.825 16.635-4.778 23.763 12.696 29.269.6-2.173-71.462 13.042-76.273 20.748 4.052z" id="75098"/>
    <path d="M455.25 526.814l69.19 9.565 9.545 28.79.064 64.241-63.03-1.634-11.655 13.244-23.51-43.548-33.09-1.176-13.915 31.818-5.44-.276 9.333-20.588-2.79-24.659.413-32.098 8.495-13.046 45.535 3.604 10.855-14.237z" id="76969"/>
    <path d="M390.714 498.172l-.349 52.32-.414 32.1-23.607-21.411-26.563 3.24-12.048-63.12 26.45-13.183 9.103 11.487 27.428-1.433z" id="76558"/>
    <path d="M750.693 452.34l13.424 18.681 3.637 32.095-48.228 4.158-69.221 19.24-19.002-49.402 32.842-27.46 23.601 8.582 62.947-5.893z" id="76282"/>
    <path d="M725.837 412.616l24.856 39.725-62.947 5.893-23.6-8.582-32.843 27.46-30.612-7.308 18.355-16.69 16.103-46.24 18.961-4.862-3.385-41.192 10.001 4.26 16.517 42.435 15.278 13.885 33.316-8.784z" id="76718"/>
    <path d="M726.709 323.382l-13.495 40.412 12.623 48.822-33.316 8.784-15.278-13.885-16.517-42.435-10.001-4.26-11.019-38.249 14.829-17.973 35.583.759 36.59 18.025z" id="77536"/>
    <path d="M276.607 261.643l-2.391 37.707-30.964 2.385-9.9 25.326-23.01-4.056-42.43-11.951-47.787 7.655-14.89-49.669 9.493-23.131 49.402-15.675 2.555-7.776 3.159 1.228 16.703 2.525-9.511 38.208 21.966 2.507 77.605-5.283z" id="75258"/>
    <path d="M474.737 166.763l27.647 51.134 11.643 46.967 8.705.127 16.707 64.486-23.137 22.193-38.462-.81 4.4-36.573-13.967-34.553-21.142-47.829-5.584-18.481 17.783-18.198-6.362-27.346 11.07-2.419 10.7 1.302z" id="77509"/>
    <path d="M229.966 89.08l-24.943 4.42-23.136 50.57-16.055-19.741-10.086-37.465-5.917-48.18 49.812 4.88 18.502-9.947 26.053 44.457-14.23 11.006z" id="77028"/>
    <path d="M673.035 694.42l2.173 71.461-29.27-.599-23.762-12.696-16.635 4.778.78-34.97 9.159-43.67 27.5 4.32-.662 18.337 30.717-6.96z" id="75150"/>
    <path d="M725.499 598.482l-18.674 23.717-20.748-4.052-13.042 76.273-30.717 6.96.662-18.337-27.5-4.32-10.256-90.852 54.432-2.637 1.59 15.832 50.337-7.578 13.916 4.994z" id="77331"/>
    <path d="M544.316 752.19l25.332 11.156.399 29.522 28.938 17.321 15.793 13.136-5.863 35.925-67.526-13.374 5.584-50.282-9.1-25.205 6.443-18.198z" id="75114"/>
    <path d="M459.364 641.02l3.425 23.972 55.159 8.19-15.34 32.687-36.426 1.34-11.862 25.11-11.462-17.95 4.435-22.032-20.097-4.717 3.404-34.4-43.67-4.496 1.919-20.61 13.915-31.818 33.09 1.176 23.51 43.548z" id="77180"/>
    <path d="M544.316 752.19l-6.443 18.199-30.387 18.968-11.044-29.646-3.773-34.83 9.94-19.012 15.339-32.687 17.163-7.951 11.465 35.837-2.26 51.123z" id="77153"/>
    <path d="M383.408 627.838l5.441.276-1.918 20.61-3.697 44.411 12.317 26.053-13.378 55.535-14.418.96 2.241-7.856-11.256-7.384 9.443-36.462-21.74-21.444-22.309-6.816-13.656 14.668 4.87-42.44 26.09-11.508 6.668-19.485 35.302-9.118z" id="77313"/>
    <path d="M369.996 767.827l-31.45 28.144-19.455-20.041-34.195-3.7-29.417-40.252 35.914-27.982 19.085 6.393 13.656-14.668 22.309 6.816 21.74 21.443-9.443 36.463 11.256 7.384z" id="76763"/>
    <path d="M339.781 564.422l-27.55 15.314-60.303 20.121-27.221.82-16.379 3.973-17.2-38.777 26.878-1.122 14.206-45.957 37.078-.776 44.038-13.037 14.405-3.68 12.048 63.12z" id="76601"/>
    <path d="M389.951 582.591l2.791 24.659-9.334 20.588-35.302 9.118-6.668 19.485-3.46-26.67-74.398 36.773-14.418-10.038-4.537-30.512-19.918-25.318 27.221-.819 60.302-20.12 27.551-15.315 26.563-3.241 23.607 21.41z" id="76674"/>
    <path d="M552.854 534.514l-18.869 30.656-9.545-28.791-69.19-9.565.726-14.834 39.088-8.988 5.969-51.009 32.75-5.154-4.512 76.37 23.583 11.315z" id="77082"/>
    <path d="M210.342 323.005l8.298 71.423-41.237 2.288-8.055 20.518-21.008 18.656-10.374.475-23.724-30.353 13.853-10.434-27.363-50.106 19.393-26.763 47.787-7.655 42.43 11.951z" id="75203"/>
    <path d="M726.709 323.382l-36.591-18.025-35.583-.759-5.062-70.875 55.028-20.215 17.882 46.29-8.95 25.371 13.276 38.213z" id="76932"/>
    <path d="M692.929 168.453l11.572 45.055-55.028 20.215-43.19 5.425-14.994-47.624 17.105-32.065 51.247-20.983 12.735 36.902 20.553-6.925z" id="77288"/>
    <path d="M477.84 350.86l2.115 27.846-37.313 11.77 1.034 17.475-12.433-25.732-26.096-9.313-9.776-27.882 24.059-6.644 25.265-20.13-8.345-29.145 31.923-9.371 13.966 34.553-4.399 36.573z" id="76004"/>
    <path d="M447.13 231.905l21.143 47.829-31.923 9.37 8.345 29.147-25.265 20.13-24.059 6.643 1.604-32.093-13.213-9.457-2.249-46.5-1.197-11.653 32.208-16.307 34.607 2.891z" id="77260"/>
    <path d="M331.445 338.254l-17.133 36.785 15.005 3.21-3.283 23.466-12.982-2.69-43.097 12.621-13.058-18.17-38.257.952-8.298-71.423 23.01 4.056 9.9-25.326 30.964-2.385 29.88 31.052 27.349 7.852z" id="76692"/>
    <path d="M306.648 448.368l-7.907 17.818-84.427 26.98-13.64 8.156-39.89-14.983-11.475-37.337 45.596 2.612 62.2-14.844 49.543 11.598z" id="75515"/>
    <path d="M631.303 477.112l19.002 49.401 10.585 37.72-55.1-7.806-26.82-34.642-14.902-23.848 15.547-19.028 21.076-9.105 30.612 7.308z" id="77126"/>
    <path d="M591.289 191.524l14.994 47.624 43.19-5.424 5.062 70.875-14.829 17.972-24.846 1.938-.763-56.467-63.026.197-1.006-9.316-8.436-56.748 13.655-3.13 7.737-14.064 28.268 6.543z" id="75686"/>
    <path d="M555.284 199.045l-13.655 3.13 8.436 56.748-27.333 6.068-8.705-.127-11.643-46.967-27.647-51.134-5.386-23.374 26.486-20.982 25.052-5.457 34.395 82.095z" id="76638"/>
    <path d="M725.499 598.482l-13.916-4.994-50.337 7.578-1.59-15.832-54.432 2.636-4.11-34.944-39.243 2.902.168-28.346 16.932-5.697 26.819 34.642 55.1 7.807-10.585-37.72 69.221-19.24 48.228-4.158 2.475 32.592-6.623 21.945 10.353 16.252-22.266 27.853-26.194-3.276z" id="76317"/>
    <path d="M496.442 759.71l11.044 29.647 30.387-18.968 9.1 25.205-5.584 50.282-5.198 22.703-33.931 1.75-30.467-10.846-14.264-13.983-7.73-3.603 32.192-82.464 14.451.278z" id="75711"/>
    <path d="M456.952 499.358l-.976 12.621-.726 14.835-10.855 14.237-45.535-3.604-8.495 13.046.349-52.321 13.262-8.817 52.976 10.003z" id="76111"/>
    <path d="M313.328 504.98l-44.038 13.038-37.078.776-14.206 45.957-26.877 1.122-37.81-12.026-13.067-21.478 20.531-46.03 39.892 14.983 13.639-8.156 84.427-26.98 14.587 38.795z" id="77402"/>
    <path d="M579.615 478.909l-15.547 19.028 14.903 23.848-16.932 5.697-9.185 7.032-23.583-11.316 4.512-76.37-3.625-7.582 5.516-26.655 23.947 1.262 19.372 45.06.622 19.996z" id="76139"/>
    <path d="M100.732 345.472l27.363 50.106-13.853 10.434-32.474 8.655-14.464-45.035-26.787-32.396 9.047-14.374 23.661-11.17 27.507 33.78z" id="76040"/>
    <path d="M103.76 178.781l-13.4-.713 12.905 65.165-40.175 2.797-10.137-25.11 15.877-12.517-35.495-65.386 16.187-20.78 10.42-1.722 20.466 48.307 23.351 9.96z" id="75819"/>
    <path d="M52.953 220.92l10.137 25.11 40.175-2.797 1.97 25.807 14.89 49.67-19.393 26.762-27.507-33.78-23.66 11.17-34.352-67.88-4.884-25.092 42.624-8.97z" id="76807"/>
    <path d="M111.553 97.582l20.644 51.212-.735 27.701-27.703 2.286-23.351-9.959-20.466-48.307-10.42 1.722-4.434-20.676 66.465-3.979z" id="75766"/>
    <path d="M259.62 173.53l-.252 42.246-73.22-4.292-12.756-26.636 8.495-40.777 23.136-50.57 24.943-4.42 12.424 20.524-12.716 12.937 29.946 50.988z" id="76406"/>
    <path d="M350.28 118.772l9.632 12.898-3.775 25.21-8.943 31.393-29.415 25.482-49.985 14.498-8.425-12.477.251-42.246 9.592 8.92 32.846-19.982-5.037-41.773 21.996-6.996 31.264 5.073z" id="75917"/>
    <path d="M259.368 215.776l8.426 12.477 8.813 33.39-77.605 5.283-21.966-2.507 9.511-38.208-16.703-2.525 16.305-12.202 73.22 4.292z" id="77579"/>
    <path d="M452.968 167.88l6.362 27.346-17.783 18.198 5.584 18.481-34.607-2.891-32.209 16.307-20.432-26.304-8.084-27.488 14.938-5.69-10.6-28.959 3.775-25.21-9.631-12.898 25.95-9.642 43.84 10.58 21.26 53.493 11.637-5.323z" id="76175"/>
    <path d="M405.147 372.906l26.096 9.313 12.433 25.732 13.427 52.133 15.431.093-15.582 39.181-52.976-10.003-13.262 8.817-27.428 1.433-9.103-11.487-26.45 13.183-14.405 3.68-14.587-38.795 7.907-17.818 15.264-4.439 4.122-42.214 3.283-23.465 27.123 7.125 38.98.135 9.727-12.604z" id="76157"/>
    <path d="M445.285 70.153l-15.706 24.035 34.458 71.273-11.069 2.419-11.637 5.323-21.26-53.493-43.84-10.58 8.36-31.646-31.396-27.421-5.13-19.547 75.796 3.054L443.3 50.886l1.986 19.267z" id="75542"/>
    <path d="M520.89 116.95l-25.053 5.457-28.782-63.604 23.331-28.985 47.194 8.622-8.584 37.386 15.014 39.117-23.12 2.007z" id="75338"/>
    <path d="M445.285 70.153l21.77-11.35 28.782 63.604-26.486 20.982 5.386 23.374-10.7-1.302-34.458-71.273 15.706-24.035z" id="77561"/>
    <path d="M348.066 30.516l5.13 19.547 31.395 27.421-8.36 31.646-25.95 9.642-31.264-5.073-33.487-56.28 6.766-32.095 55.77 5.192z" id="75613"/>
    <path d="M33.335 143.017l35.495 65.386-15.877 12.517-42.624 8.97L1 183.35l9.829-39.243 22.506-1.09z" id="77587"/>
    <path d="M650.725 360.82l3.385 41.192-18.96 4.863-16.104 46.24-18.355 16.69-21.076 9.104-.622-19.996-19.372-45.06-23.947-1.262-9-26.18 35.05-18.87 49.394-13.418 3.742-29.614 24.846-1.938 11.019 38.25z" id="76255"/>
    <path d="M614.86 324.509l-3.741 29.613-49.395 13.418-35.05 18.871-10.372-34.74 23.137-22.194-16.707-64.486 27.333-6.068 1.006 9.316 63.026-.197.763 56.467z" id="75472"/>
    <path d="M326.034 401.715l-4.122 42.214-15.264 4.439-49.543-11.598-62.2 14.844-45.596-2.612-.969-13.112 21.008-18.656 8.055-20.518 41.237-2.288 38.257-.951 13.058 18.17 43.097-12.622 12.982 2.69z" id="75221"/>
    <path d="M516.302 351.67l10.372 34.741 9 26.18-5.516 26.654-37.08 6.288-20.544 14.644-15.43-.093-13.428-52.133-1.034-17.476 37.313-11.77-2.115-27.845 38.462.81z" id="75668"/>
    <path d="M533.783 446.829l-32.75 5.154-5.97 51.01-39.087 8.986.976-12.62 15.582-39.182 20.544-14.644 37.08-6.288 3.625 7.584z" id="77601"/>
    <path d="M114.242 406.012l23.724 30.353 10.374-.475.969 13.112 11.474 37.337-20.53 46.03-21.661-31.486-6.87-32.766-29.954-53.45 32.474-8.655z" id="76745"/>
    <path d="M534.049 629.41l1.062 35.82-17.163 7.952-55.16-8.19-3.424-23.972 11.655-13.244 63.03 1.635z" id="77595"/>
    <path d="M605.224 587.87l10.255 90.853-9.158 43.67-.78 34.97-6.557 52.826-28.937-17.32-.399-29.523-25.332-11.155 2.26-51.123-11.466-35.837-1.061-35.82-.064-64.241 18.869-30.656 9.185-7.032-.168 28.346 39.243-2.902 4.11 34.944z" id="77224"/>
    <path d="M166.685 222.458l-2.555 7.776-49.402 15.675-9.493 23.131-1.97-25.807-12.906-65.165 13.4.713 27.703-2.286.136 8.987 35.087 36.976z" id="77377"/>
    <path d="M155.746 86.864l10.086 37.465 16.055 19.742-8.495 40.777 12.757 26.636-16.305 12.202-3.159-1.228-35.087-36.976-.136-8.987.735-27.701-20.644-51.212 44.193-10.718z" id="76497"/>
    <path d="M692.929 168.453l-20.553 6.925-12.735-36.902-51.247 20.983-23.754-58.639-9.365-44.587 23.068-16.284 22.909 13.076 25.755-2.714 27.015-13.765 32.185 4.466-19.595 50.498 13.575 18.624-10.464 19.279 3.206 39.04z" id="75864"/>
    <path d="M598.343 39.949l-23.067 16.284 9.364 44.587 23.754 58.639-17.105 32.065-28.268-6.543-7.737 14.064-34.395-82.095 23.12-2.007-15.013-39.117 8.584-37.386-47.194-8.622 19.967-19.326L553.337 1l11.366 19.497 19.842-5.979 13.799 25.43z" id="75356"/>
    <path d="M395.371 345.024l9.776 27.882-9.727 12.604-38.98-.135-27.123-7.125-15.005-3.211 17.133-36.785 12.345-6.334 12.963-38.838 17.368-10.66 7.392-25.448 2.249 46.5 13.213 9.457-1.604 32.093z" id="77475"/>
    <path d="M380.315 245.321l1.198 11.653-7.392 25.447-17.368 10.661-12.963 38.838-12.345 6.334-27.348-7.852-29.881-31.052 2.391-37.707-8.813-33.39 49.985-14.498 29.415-25.482 8.943-31.393 10.6 28.96-14.939 5.689 8.085 27.488 20.433 26.304z" id="75953"/>
  </g>
</svg>
