<svg xmlns="http://www.w3.org/2000/svg" version="1.2" baseProfile="tiny" stroke-linecap="round" stroke-linejoin="round" viewBox="0 0 800 953">
  <g id="GR" fill="none" stroke="#aaa">
    <path d="M271.376 939.729l-19.338 10.4-49.856 1.86 7.504-7.31-5.731-18.597-8.372-9.737-3.364-24.588-7.234-4.137 13.127-25.875-6.115-6.012-.332-30.943 18.547-7.382 38.354 21.946 17.447 14.727-1.959 48.01-4.217 15.694 11.54 21.944z" data-name="Găujani" class="comuna" id="103194"/>
    <path d="M332.447 882.628l-11.11 1.711-16.008 16.733-6.888 17.962-9.914 11.269-17.15 9.426-11.54-21.944 4.217-15.693 1.959-48.01-17.447-14.728-38.354-21.946 15.565-29.116 20.424-6.668 6.67 14.566 10.276 2.245 42.162 25.124 18.784 44.567 8.353 14.502z" data-name="Vedea" class="comuna" id="105909"/>
    <path d="M385.645 820.834l-12.342 15.049-2.14 12.841-23.21 25.298-15.506 8.606-8.353-14.502-18.785-44.567-42.162-25.124-10.277-2.245-6.669-14.566 20.365-16.26 14.44 17.803 6.601-8.729 16.398 1.26 4.784-17.913 10.583-.45.282 12.132 13.096.843 2.382 16.663 36.357 30.076 14.156 3.785z" data-name="Malu" class="comuna" id="179739"/>
    <path d="M424.57 764.4l-9.874 8.407-29.051 48.027-14.156-3.785-36.357-30.077-2.382-16.662-13.096-.843-.282-12.132 2.407-8.432 18.2-.573 3.662-20.011 23.877-.878 11.171-.376 3.38 13.771 15.629-.582 8.098 11.606 18.775 12.54z" data-name="Slobozia" class="comuna" id="100549"/>
    <path d="M266.566 765.365l-20.365 16.259-20.424 6.668-15.565 29.116-18.547 7.382-.187-15.205-17.6.123-6.466.02-.315-26.609-11.829.233-6.56-25.049 6.06-14.916-.183-25.422-24.153-3.051.093-34.05 26.498-.094 3.262-4.423 40.36-1.518.909 24.271 11.622-.467.902 13.613 30.59-1.222.93 21.543 13.384-.425 11.517 9.188-3.933 24.035z" data-name="Gogoșari" class="comuna" id="103309"/>
    <path d="M270.856 662.34l11.967-.51 18.924 41.739 17.848 25.502 17.077-14.361 6.969 13.609-3.662 20.01-18.2.574-2.407 8.432-10.583.45-4.784 17.913-16.398-1.26-6.6 8.729-14.44-17.802 3.932-24.035-11.517-9.188-13.385.425-.93-21.543-30.589 1.222-.902-13.613-11.622.467-.908-24.271 11.369-.483-.843-17.245 21.72-2.005 3.974-15.971 21.638 11.524 12.352 11.69z" data-name="Putineiu" class="comuna" id="104715"/>
    <path d="M510.877 617.046L531.3 634.45l-3.159 20.684-15.506 22.38 5.89 5.6-13.998 24.593-16.3 14.81-10.744-28.882-18.409-3.016 3.478-19.835-12.33-31.205 14.535-.33 6.22-7.77 22.856-4.98.4-9.823 16.643.37z" data-name="Oinacu" class="comuna" id="104519"/>
    <path d="M595.406 596.091l20.411 28.174-29.114-1.035-36.711 15.049-31.466 44.836-5.89-5.6 15.506-22.38 3.159-20.685-20.424-17.404-6.033-14.993 9.542-20.514 11.349 15.109 8.44-15.55 40.811-13.994 20.42 28.987z" data-name="Gostinu" class="comuna" id="103354"/>
    <path d="M383.646 524.148l61.356 7.993-.52 4.502-1.873 15.923 16.54-.722 8.003 29.133 27.083 35.699-.4 9.823-22.857 4.98-6.22 7.77-14.534.33-37.109-63.056-10.7-1.233 3.32-24.018-25.118-3.527 3.03-23.597z" data-name="Daia" class="comuna" id="102446"/>
    <path d="M557.332 500.211l12.13 5.887 5.115 11.356 12.512 1.741-6.247 15.638 11.81 10.524-3.064 8.415 11.431 26.222-5.613 16.097-20.42-28.987-40.811 13.994-8.44 15.55-11.349-15.11-9.542 20.515 6.033 14.993-16.642-.37-27.083-35.7-8.002-29.132-16.541.722 1.872-15.923 19.52-6.955 4.17-34.232 14.814-9.848 3.345 17.105 16.612-2.909 3.294 13.975 16.945-4.894 2.24-13.903 18.187 8.807 13.724-3.578z" data-name="Băneasa" class="comuna" id="101001"/>
    <path d="M370.179 546.773l1.846 18.364-27.603 14.162 2.954 29.946-17.47 9.228-12.705 19.413-13.828-7.433-5.356 13.421-15.624-7.249.263 21.671-11.8 4.043-12.352-11.69-21.638-11.524 11.302-21.015-23.424-13.006 3.11-5.638 20.827-36.504 20.174-4.95 3.48-28.588 13.775-15.63 14.584-40.113 7.602 5.836-5.466 18.696 10.393 9.347 41.36 3.738 4.636 17.956-10.531 6.98 3.574 13.145 17.917-2.606z" data-name="Izvoarele" class="comuna" id="103899"/>
    <path d="M760.038 473.346l-15.683 12.803-38.981 15.242-29.942-1.83-5.38-12.751-1.081-9.179 27.327-4.8-5.149-23.088 22.198-5.556 27.138-5.32.512 15.88-11.236 4.546 9.215 17.886 16.55-17.462 4.512 13.63z" data-name="Greaca" class="comuna" id="103470"/>
    <path d="M522.254 429.156l17.376 1.761 2.762 17.042-16.528 2.692 1.846 13.392 18.87 12.986 5.617-4.482 13.189 25.516-8.054 2.148-13.724 3.578-18.188-8.807-2.239 13.903-16.945 4.894-3.294-13.975-16.612 2.91-3.345-17.106-14.814 9.848-18.48-1.553 5.314-52.878 7.231-11.532 20.16-6.478 39.858 6.14z" data-name="Mihai Bravu" class="comuna" id="104118"/>
    <path d="M387.844 410.16l-9.069 19.018 24.483 12.593 1.085 15.77-5.67 43.946-13.408 10.795-1.619 11.866-3.029 23.597-9.978-1.095 2.634-27.946-3.33-23.764-12.315-3.37-2.008-19.058-12.585-10.25 2.653-23.39 12.337-4.351-6.033-22.833 19.602-5.385 16.25 3.857z" data-name="Stoenești" class="comuna" id="105348"/>
    <path d="M727.413 400.756l.553 13.152-14.619 30.279-22.197 5.556 5.149 23.087-27.328 4.801-5.65-48.07 6.383-12.163 20.8.064 28.345-24.238 8.564 7.532z" data-name="Isvoarele" class="comuna" id="179766"/>
    <path d="M760.038 473.346l-4.512-13.629-16.55 17.462-9.215-17.886 11.236-4.547-.512-15.879-27.138 5.32 14.619-30.28-.553-13.151 16.05-8.049 12.275 3.168 19.474-9.648.29 13.347 10.992 10.37 11.18 20.006L799 441.498l-7.125 24.699-13.628-.929-18.209 8.08z" data-name="Hotarele" class="comuna" id="103639"/>
    <path d="M326.202 379.335l34.383 8.183-5.603 7.316 16.612 11.47-19.602 5.384 6.033 22.833-12.337 4.351-2.653 23.39 12.585 10.25 2.008 19.059 12.316 3.369 3.329 23.764-2.634 27.946-.46.123-17.917 2.606-3.574-13.145 10.53-6.98-4.635-17.956-41.36-3.738-10.393-9.347 5.466-18.696-7.601-5.836-10.53-4.872 1.89-21.32 8.898-6.334-3.63-15.778 19.022-13.139 9.857-32.903z" data-name="Schitu" class="comuna" id="104975"/>
    <path d="M653.755 397.19l11.159 3.445 4.79 16.763-6.384 12.162 5.65 48.071 1.082 9.179-17.994-9.156-8.312-41.4-34.306 6.988 1.672-36.916 6.771-5.864 20.107-25.44 15.765 22.169z" data-name="Gostinari" class="comuna" id="103372"/>
    <path d="M518.717 392.666l6.555 21.216-3.018 15.274-39.858-6.141-20.16 6.478-7.23 11.532-5.315 52.878 18.48 1.553-4.17 34.232-19.52 6.955.52-4.502-61.355-7.993 1.62-11.866 13.406-10.795 5.67-43.946-1.084-15.77-24.483-12.593 9.07-19.018 13.947-21.791 11.672-9.698 9.795 22.143 12.704-1.534 37.153-41.81-1.522 21.107 43.883 4.27 3.24 9.819z" data-name="Călugăreni" class="comuna" id="101662"/>
    <path d="M727.413 400.756l-8.564-7.532-28.345 24.238-20.8-.064-4.79-16.763-11.159-3.444 45.274-73.025 16.091 13.73.512 30.388 11.78 32.472z" data-name="Valea Dragului" class="comuna" id="105776"/>
    <path d="M439.117 307.302l-.517 5.648-11.25 12.312 24.372 25.851 10.618-7.924 10.776 14.28-37.153 41.81-12.704 1.535-9.795-22.143-11.672 9.698-13.948 21.791-16.25-3.857-16.612-11.47 5.603-7.315 22.217-26.373 16.64-12.868-9.37-18.488 10.091-7.296-4.774-11.458 11.61-7.805 17.572 6.208 14.546-2.136z" data-name="Singureni" class="comuna" id="105106"/>
    <path d="M572.764 348.565l-8.492 14.372-13.826-8.171-7.746 9.36-6.108 21.037-17.875 7.503-3.24-9.82-43.882-4.269 1.521-21.108-10.776-14.28-10.618 7.924-24.373-25.851L438.6 312.95l19.36-34.276 19.738 7.331 24.547 25.85 23.294 2.756 3.165 11.308 26.642 12.388 17.418 10.258z" data-name="Adunații-Copăceni" class="comuna" id="100781"/>
    <path d="M312.785 277.051l-16.167 4.785-20.656 15.952-37.1-9.989-8.123 6.362-25.63-.929-10.035-4.336-11.463-4.343-8.341 21.896-21.705-15.216 11.022-18.008-7.246-8.06 18.358-9.707 7.004-14.432 11.916-7.237 16.72 10.666 6.259-17.551 22.977 7.821 14.342-11.346 22.408 1.359-12.738 17.35 15.964 16.27 20.215-4.339 12.149 8.463-.13 14.569z" data-name="Clejani" class="comuna" id="101984"/>
    <path d="M215.393 155.393l3.584 15.706 22.704 3.205-4.11 24.101 9.614 10.984 5.163 10.347 2.569 3.643-14.342 11.346-22.977-7.821-6.26 17.551-16.72-10.666-11.915 7.237-7.004 14.432-18.358 9.707-14.498-5.46-7.46 9.388-18.686 2.992-8.837-9.005 13.631-27.632-1.257-17.96 30.746-29.43 17.102 3.817 22.938-24.555 24.373-11.927z" data-name="Bucșani" class="comuna" id="101378"/>
    <path d="M150.98 188.058l-30.745 29.43 1.256 17.96-13.63 27.632-26.694 2.122-13.167.616-32.967-12.002 7.613-31.85 94.38-64.693 6.078 7.585 15.114-10.449 11.964 14.779-19.202 18.87z" data-name="Mîrșa" class="comuna" id="104225"/>
    <path d="M293.715 139.198l.287 11.253-7.485 12.686 1.633 24.656-31.387 20.045-9.578 1.55-9.614-10.983 4.11-24.1-22.704-3.206-3.584-15.706 1.324-1 11.447 1.761 11.808-16.542 37.829-4.98 15.914 4.566z" data-name="Ogrezeni" class="comuna" id="104485"/>
    <path d="M336.425 184.875l-29.572 25.226-14.214 2.883-12.123-5.358-28.168 12.11-5.163-10.347 9.578-1.551 31.387-20.045-1.633-24.656 7.485-12.686 42.096-18.053 15.766 16.058-35.51 22.887 4.041 9.304 16.03 4.228z" data-name="Grădinari" class="comuna" id="103407"/>
    <path d="M61.207 86.489l10.383 18.48 22.503 8.356 15.289 21.978 27.643 21.97-94.379 64.694-3.832-21.576-18.647-4.396-.339-9.442L1 175.122l4.211-9.734 19.598-14.456 32.625-51.951-5.151-7.143 8.924-5.35z" data-name="Roata de Jos" class="comuna" id="104831"/>
    <path d="M180.946 97.533l35.77 56.86-1.323 1-24.373 11.927-22.938 24.555-17.102-3.817 19.202-18.87-11.964-14.779-15.114 10.45-6.079-7.586-27.643-21.97-15.289-21.978 26.591-11.09 19.795-20.383 28.332 23.187 12.135-7.506z" data-name="Crevedia Mare" class="comuna" id="102348"/>
    <path d="M269.525 95.123l16.256 8.39 7.934 35.685-15.914-4.567-37.829 4.98-11.808 16.543-11.447-1.762-35.77-56.859 19.012-6.992 10.165 22.22 24.555-.998 13.028-10.477 21.818-6.163z" data-name="Bolintin-Vale" class="oras" id="101190"/>
    <path d="M340.918 78.176l-.939 34.957 7.687 8.263-11.567 11.002-42.097 18.053-.287-11.253-7.934-35.686 2.995-20.966 25.912-2.286 9.558 10.427 16.672-12.511z" data-name="Bolintin-Deal" class="comuna" id="101163"/>
    <path d="M129.368 32.422l6.36 20.562-6.984 9.662 11.735 19.206-19.795 20.384-26.59 11.089-22.504-8.355-10.383-18.481-1.964-12.035-15.13-12.375L59.24 39.472l11.98.49L89.777 17.59l6.75-.539 3.907 7.755 21.988-2.066 6.945 9.682z" data-name="Vînătorii Mici" class="comuna" id="105972"/>
    <path d="M371.642 74.29l-20.403-5.905-13.801-15.347-5.264-18.992-1.35-1.74 6.952-16.673 16.95 5.319 12.353-7.902 23.867 26.896-19.304 34.343z" data-name="Săbăreni" class="comuna" id="179775"/>
    <path d="M229.174 13.311l23.098 27.77-19.792 9.554 20.046 42.829 17 1.659-21.82 6.163-13.027 10.477-24.555.999L199.96 90.54l-5.46-16.733.939-21.67 6.989-17.625 20.526-23.818 6.221 2.616z" data-name="Florești-Stoenești" class="comuna" id="102794"/>
    <path d="M287.098 25.666l-4.656 10.478 14.029 17.358 10.405 2.764 15.509 20.417-7.697 3.577-25.912 2.286-2.995 20.966-16.256-8.39-16.999-1.658-20.046-42.829 19.792-9.553-23.098-27.77 10.211 6.065 27.8.533 19.913 5.756z" data-name="Ulmi" class="comuna" id="105623"/>
    <path d="M202.427 34.513l-6.99 17.626-.938 21.669 5.46 16.733-19.013 6.992-12.135 7.506-28.332-23.187-11.735-19.206 6.983-9.662-6.36-20.562 9.27-4.004L150.694 5.02 174.498 1l-.315 10.526 28.244 22.987z" data-name="Găiseni" class="comuna" id="103087"/>
    <path d="M637.99 375.022l-20.107 25.44-16.668-28.116-11.915-3.185-3.57-22.404 8.649-16.042 13.772 9.613 24.644-9.265-2.665-8.894 18.794-24.29 11.923 9.16-21.533 30.411-7.936 20.754 6.612 16.818z" data-name="Colibași" class="comuna" id="102071"/>
    <path d="M585.73 346.757l3.57 22.404 11.915 3.185 16.668 28.116-6.771 5.864-1.672 36.916-3.87 1.816 2.485 47.28-9.163 1.763-24.315 23.353-5.115-11.356-12.13-5.887 8.054-2.148-13.189-25.516-5.616 4.482-18.87-12.986-1.847-13.392 16.528-2.692-2.762-17.042-17.376-1.761 3.018-15.274-6.555-21.216 17.875-7.503 6.108-21.038 7.746-9.36 13.826 8.172 8.492-14.372 12.966-1.808z" data-name="Comana" class="comuna" id="102106"/>
    <path d="M336.291 279.039l-11.171 22.484 3.667 9.043-16.52 6.183-28.983 26.258-21.16-19.583 13.838-25.636 20.656-15.952 16.167-4.785 13.211-15.917 10.295 17.905z" data-name="Bulbucata" class="comuna" id="101519"/>
    <path d="M326.202 379.335l-9.857 32.903-19.022 13.139 3.63 15.778-8.899 6.334-1.89 21.32 10.53 4.872-14.584 40.113-13.776 15.63-15.66-38.07-20.267-4.564-5.41-16.608-5.208-8.281-21.927 9.81-2.029-33.68 19.83 3.332 3.954-15.464 13.558-28.567-3.919-18.96 12.334-11.44 18.743 13.359 28.257-26.853-11.306-10.43 28.983-26.259 16.52-6.183 9.938 21.205-7.905 19.896-4.618 27.668z" data-name="Ghimpați" class="comuna" id="103238"/>
    <path d="M395.389 311.035l4.774 11.458-10.092 7.296 9.37 18.488-16.639 12.868-22.217 26.373-34.383-8.183 4.618-27.668 7.905-19.896-9.938-21.205-3.667-9.043 11.171-22.484 17.691 4.152 8.078 13.657 20.378 1.544 12.95 12.643z" data-name="Iepurești" class="comuna" id="103693"/>
    <path d="M670.052 486.81l5.38 12.75 29.942 1.831 38.98-15.242 12.65 56.276 5.398 14.528-59.495 19.04-19.728 16.966-67.362 31.306-20.41-28.174 5.612-16.097-11.43-26.222 3.063-8.415-11.81-10.524 6.247-15.638-12.512-1.741 24.314-23.353 9.164-1.762-2.486-47.28 3.87-1.817 34.307-6.989 8.312 41.4 17.994 9.157z" data-name="Prundu" class="comuna" id="104680"/>
    <path d="M775.212 386.227l-19.474 9.648-12.275-3.168-16.05 8.049-11.78-32.472-.513-30.387-16.09-13.731-1.178-1.062 9-2.36 24.758 17.303 11.348-.328 1.263 20.792 31.018-1.782.783 17.755 11.946 10.285-12.756 1.458z" data-name="Herăști" class="comuna" id="179757"/>
    <path d="M363.558 215.872l-8.654 17.717-10.45-1.804-14.798 17.966-3.66 11.383-13.21 15.917.129-14.569-12.15-8.463-20.214 4.338-15.964-16.27 12.738-17.35-22.408-1.358-2.57-3.643 28.17-12.11 12.122 5.358 14.214-2.883 29.572-25.226 5.08-2.964 1.071 17.285 9.802 7.707 11.18 8.969z" data-name="Buturugeni" class="comuna" id="101617"/>
    <path d="M697.852 323.104l1.177 1.062-45.274 73.025-15.765-22.169-6.612-16.818 7.936-20.754 21.533-30.41-11.923-9.16-18.794 24.288 2.665 8.894-24.644 9.266.338-11.718 10.717-19.377 7.385 6.83 14.38-18.398 13.357-17.104 8.27-.074 18.83 14.773 16.424 27.844z" data-name="Vărăști" class="comuna" id="105874"/>
    <path d="M161.69 536.802l26.965 40.424 39.2 22.24-3.111 5.638 23.424 13.006-11.302 21.015-3.975 15.97-21.72 2.006.844 17.245-11.37.483-40.36 1.518-8.41-12.444 4.805-3.39-21.322-31.448 9.937-6.852-8.078-25.27 3.592-26.59 20.88-33.551z" data-name="Toporu" class="comuna" id="154709"/>
    <path d="M272.334 529.424l-3.479 28.589-20.174 4.949-20.827 36.505-39.2-22.24-26.964-40.425-.61-19.69 16.757-11.019-3.222-7.346 13.388-13.324 27.525 3.686 15.469-18.926 5.41 16.607 20.267 4.564 15.66 38.07z" data-name="Răsuceni" class="comuna" id="104788"/>
    <path d="M418.204 691.547l-7.914 16.24-29.084 2.45-13.688 17.204-23.877.878-6.969-13.61-17.077 14.362-17.848-25.502-18.924-41.74-11.967.51 11.8-4.043-.263-21.67 15.624 7.248 5.356-13.42 13.828 7.432 12.704-19.413 17.47-9.228 8.749-4.98 15.085 33.009 10.599 7.254 20.794 45.194 15.602 1.825z" data-name="Stănești" class="comuna" id="105295"/>
    <path d="M439.117 307.302l-14.546 2.136-17.572-6.208-11.61 7.805-12.95-12.643-20.379-1.544-8.078-13.657-17.69-4.152-10.296-17.905 3.66-11.383 14.798-17.966 10.45 1.804 8.654-17.717 4.65 10.536 17.264 17.593 17.29-5.242 16.507 11.92 7.107 10.512 11.646-8.513 14.22 9.18 5.415 9.744-18.54 35.7z" data-name="Mihăilești" class="oras" id="104136"/>
    <path d="M330.825 32.307l1.349 1.739-25.298 22.22-10.405-2.764-14.029-17.358 4.656-10.477 16.35-20.57 23.61 15.668 3.767 11.542z" data-name="Cosoba" class="comuna" id="179748"/>
    <path d="M275.962 297.788l-13.837 25.636 21.16 19.584 11.305 10.43-28.257 26.853-18.743-13.359-12.334 11.44 3.919 18.96-13.558 28.567-3.954 15.464.957-7.179-37.936-8.8 9.131-48.697 20.094-32.077 5.156-17.012-25.604-13.894 1.613-24.808 10.035 4.336 25.63.93 8.123-6.363 37.1 9.989z" data-name="Letca Nouă" class="comuna" id="104047"/>
    <path d="M380.618 547.745l25.118 3.527-3.322 24.018 10.701 1.233 37.109 63.056 12.33 31.205-3.479 19.835-16.47-2.965-24.401 3.893-15.602-1.825-20.794-45.194-10.599-7.254-15.085-33.01-8.748 4.981-2.954-29.946 27.602-14.162-1.845-18.364.46-.123 9.978 1.095z" data-name="Frătești" class="comuna" id="102909"/>
    <path d="M459.075 690.619l18.409 3.016 10.744 28.882-26.243 12.847-18.23 17.085-19.184 11.95-18.775-12.54-8.098-11.605-15.63.582-3.379-13.771-11.17.376 13.687-17.204 29.084-2.45 7.913-16.24 24.401-3.893 16.471 2.965z" data-name="Giurgiu" class="municipiu resedinta" id="100521"/>
    <path d="M371.642 74.29l12.637 15.18-8.762 20.734-26.558-11.767 3.162-10.953-11.203-9.308-16.672 12.51-9.558-10.426 7.697-3.578-15.509-20.416 25.298-22.22 5.264 18.992 13.801 15.347 20.404 5.904z" data-name="Joița" class="comuna" id="103997"/>
  </g>
</svg>
