<svg xmlns="http://www.w3.org/2000/svg" version="1.2" baseProfile="tiny" stroke-linecap="round" stroke-linejoin="round" viewBox="0 0 800 949">
  <g id="GR" fill="none" stroke="#aaa">
    <path d="M271.817 937.281l-19.37 10.419-42.425-5.46-24.741-57.155 13.148-25.918-6.125-6.022-.332-30.995 18.578-7.395 38.418 21.983 17.476 14.752-1.961 48.091-4.225 15.72 11.56 21.98z" id="103194"/>
    <path d="M332.99 880.085l-27.163 18.475-6.9 17.992-27.11 20.73-11.56-21.98 4.226-15.72 1.961-48.092-17.476-14.752-38.418-21.983 15.591-29.164 20.459-6.68 16.974 16.839 42.232 25.167 27.184 59.168z" id="105909"/>
    <path d="M386.278 818.187l-14.507 27.937-23.248 25.34-15.533 8.62-27.184-59.167-42.232-25.167-16.974-16.84 20.399-16.286 37.502 10.351 15.392-18.394 13.4 12.997 2.387 16.69 36.418 30.128 14.18 3.791z" id="179739"/>
    <path d="M425.269 761.657l-9.89 8.423-29.101 48.107-14.18-3.791-36.418-30.128-2.386-16.69-13.4-12.997 20.641-9.02 3.668-20.045 23.917-.879 14.576 13.417 15.655-.582 26.918 24.185z" id="100549"/>
    <path d="M266.999 762.624l-20.4 16.287-20.458 6.68-15.59 29.164-18.58 7.395-.187-15.23-24.106.141-.316-26.653-18.221.345-.28-36.825 5.969-28.783-24.222-3.408.121-33.755 29.81-4.525 40.428-1.52.91 24.311 12.546 13.168 30.64-1.223.931 21.578 24.944 8.778-3.94 24.075z" id="103309"/>
    <path d="M271.295 659.425l11.988-.51 18.956 41.81 17.877 25.544 17.107-14.385 6.98 13.632-3.668 20.045-20.642 9.02-15.392 18.394-37.502-10.35 3.94-24.076-24.945-8.778-.931-21.578-30.64 1.223-12.546-13.168-.91-24.312 10.544-17.758 21.756-2.008 3.982-15.998 34.046 23.253z" id="104715"/>
    <path d="M511.72 614.056l20.458 17.433-12.795 48.747-14.022 24.633-16.328 14.835-10.762-28.93-18.44-3.022 3.484-19.868-12.35-31.257 43.684-13.102.401-9.84 16.67.371z" id="104519"/>
    <path d="M596.392 593.066l20.445 28.221-29.163-1.037-36.773 15.074-31.518 44.912 12.795-48.746-20.458-17.434-6.042-15.018 9.557-20.549 19.823-.442 40.88-14.017 20.454 29.036z" id="103354"/>
    <path d="M384.276 521.002l61.458 8.007-.52 4.508 14.692 15.227 8.016 29.182 27.128 35.76-.4 9.84-43.685 13.101-37.171-63.162-10.719-1.235 3.327-24.059-25.16-3.533 3.034-23.636z" id="102446"/>
    <path d="M558.253 497.025l17.275 17.271 26.486 62.646-5.622 16.124-20.455-29.036-40.88 14.017-19.822.442-9.557 20.549 6.042 15.018-16.67-.37-27.128-35.76-8.016-29.182-14.693-15.227 19.553-6.966 4.176-34.289 38.13 18.353 51.181-13.59z" id="101001"/>
    <path d="M370.786 543.665l1.848 18.395-27.648 14.186 2.958 29.996-17.5 9.244-12.725 19.445-19.216 5.999-27.208 18.495-34.046-23.253 11.321-21.05-20.349-18.675 20.863-36.566 20.208-4.957 3.484-28.637 13.8-15.656 14.608-40.181 2.14 24.573 10.41 9.362 41.43 3.745 15.622 35.535z" id="103899"/>
    <path d="M761.301 470.115l-15.71 12.824-39.047 15.268-29.992-1.834-5.389-12.772-1.083-9.194 27.374-4.81-5.158-23.125 22.235-5.566 27.184-5.329-10.742 20.46 9.23 17.917 21.098-3.84z" id="103470"/>
    <path d="M523.117 425.85l17.404 1.764 2.768 17.07-14.707 16.112 18.902 13.007 10.77 23.222-51.182 13.59-38.13-18.353-18.51-1.556 5.323-52.967 7.243-11.552 20.193-6.488 39.926 6.15z" id="104118"/>
    <path d="M388.48 406.822l-9.083 19.05 24.523 12.614-4.593 59.817-15.051 22.699-3.034 23.636-9.995-1.096 2.638-27.994-3.335-23.803-12.336-3.375-2.011-19.091-12.607-10.267 2.658-23.43 12.358-4.358-6.044-22.871 19.635-5.394 16.278 3.863z" id="105348"/>
    <path d="M728.62 397.402l.554 13.174-14.643 30.33-22.235 5.566 5.158 23.126-27.374 4.809-5.66-48.152 6.394-12.183 20.836.065 28.392-24.28 8.578 7.545z" id="179766"/>
    <path d="M761.301 470.115l-21.098 3.839-9.23-17.916 10.742-20.46-27.184 5.328 14.643-30.33-.553-13.174 28.373-4.89 19.506-9.663.29 13.369L799 426.646l-5.808 36.306-31.89 7.163z" id="103639"/>
    <path d="M326.735 375.945l34.44 8.197 11.028 18.817-19.635 5.394 6.044 22.87-12.358 4.36-2.658 23.429 12.607 10.267 2.011 19.09 12.336 3.376 3.335 23.803-2.638 27.994-.461.123-15.623-35.535-41.43-3.745-10.41-9.362-2.138-24.573-10.549-4.88 7.172-43.506 19.053-13.16 9.874-32.96z" id="104975"/>
    <path d="M654.84 393.83l15.974 20.242-6.394 12.183 5.66 48.152 1.083 9.194-18.024-9.172-8.326-41.47-34.364 7.001 1.675-36.979 6.783-5.873 20.14-25.483 15.792 22.206z" id="103372"/>
    <path d="M519.573 389.298l6.567 21.252-3.023 15.3-39.926-6.151-20.193 6.488-7.243 11.552-5.323 52.967 18.51 1.556-4.176 34.29-19.553 6.965.521-4.508-61.458-8.007 15.051-22.7 4.593-59.816-24.523-12.614 9.084-19.05 25.663-31.542 9.811 22.18 12.726-1.536 37.215-41.881-1.524 21.143 43.956 4.277 3.245 9.835z" id="101662"/>
    <path d="M728.62 397.402l-8.578-7.544-28.392 24.279-20.836-.065-15.975-20.241 45.35-73.148 16.118 13.754.513 30.438 11.8 32.527z" id="105776"/>
    <path d="M439.84 303.791l-.518 5.658-11.27 12.332 24.414 25.895 21.43 6.367-37.215 41.88-12.726 1.537-9.811-22.18-25.663 31.542-16.278-3.863-11.027-18.817 22.254-26.418 16.668-12.89-9.387-18.518 5.327-18.786 11.63-7.818 32.171 4.08z" id="105106"/>
    <path d="M573.711 345.123l-8.505 14.397-13.85-8.185-13.877 30.448-17.906 7.515-3.245-9.835-43.956-4.277 1.524-21.143-21.43-6.367-24.414-25.895 11.27-12.332 19.393-34.334 23.507 8.772 13.859 18.663 30.326 8.562 3.17 11.327 44.134 22.684z" id="100781"/>
    <path d="M313.296 273.49l-16.195 4.792-20.69 15.978-37.163-10.005-8.137 6.373-35.724-5.274-15.157 20.108-26.422-17.767 11.04-18.038-7.258-8.074 18.39-9.723 18.95-21.706 16.748 10.684 6.27-17.58 23.016 7.834 14.366-11.365 25.677 35.037 20.249-4.345 12.04 23.07z" id="101984"/>
    <path d="M215.74 151.626l3.59 15.733 22.741 3.21-4.116 24.142 9.63 11.002 5.171 10.365 2.574 3.65-14.366 11.364-23.016-7.835-6.27 17.581-16.748-10.684-18.95 21.706-18.39 9.723-40.713 6.931-8.851-9.02 13.654-27.678-1.26-17.99 30.799-29.48 17.13 3.824 22.976-24.597 24.415-11.947z" id="101378"/>
    <path d="M151.219 184.346l-30.798 29.48 1.259 17.99-13.654 27.678-39.927 2.743-33.023-12.022 7.626-31.903 94.538-64.802 21.228-2.87 11.984 14.804-19.233 18.902z" id="104225"/>
    <path d="M294.193 135.404l.287 11.272-7.497 12.708 1.635 24.697-41.033 21.632-9.63-11.002 4.116-24.141-22.741-3.211-3.59-15.733 1.326-1.002 11.466 1.765 11.828-16.57 37.892-4.99 15.941 4.575z" id="104485"/>
    <path d="M336.975 181.158l-29.622 25.269-26.38-2.48-28.217 12.13-5.17-10.364 41.032-21.632-1.635-24.697 7.497-12.708 42.168-18.083 15.792 16.085-35.57 22.925 20.105 13.555z" id="103407"/>
    <path d="M61.294 82.606l10.4 18.513 22.541 8.369 15.315 22.015 27.69 22.007-94.538 64.802-3.978-21.57L1 171.405l23.835-24.247 32.68-52.039 3.779-12.513z" id="104831"/>
    <path d="M181.235 93.67l35.83 56.954-1.325 1.002-24.415 11.947-22.976 24.597-17.13-3.824 19.233-18.902-11.984-14.803-21.228 2.869-27.69-22.007-15.314-22.015 26.636-11.108L140.7 77.962l28.38 23.226 12.155-7.519z" id="102348"/>
    <path d="M269.963 91.255l16.282 8.404 7.948 35.745-15.94-4.574-37.893 4.989-11.828 16.57-11.466-1.765-35.831-56.955 19.044-7.004 10.183 22.258 24.596-1 34.905-16.668z" id="101190"/>
    <path d="M341.476 74.28l-4.828 54.313-42.168 18.083-.287-11.272-7.947-35.745 3-21.002 25.955-2.29 9.575 10.444 16.7-12.531z" id="101163"/>
    <path d="M129.57 28.449l6.37 20.596-6.996 9.679L140.7 77.962 120.872 98.38l-26.636 11.108-22.542-8.37-10.4-18.512-17.123-24.45L59.325 35.51l12 .49 18.588-22.41 10.675 7.229 22.025-2.07 6.956 9.699z" id="105972"/>
    <path d="M372.252 70.386l-20.438-5.914-13.825-15.373-5.272-19.024-1.352-1.742 6.964-16.701 16.979 5.327 12.373-7.915 23.832 26.69-19.261 34.652z" id="179775"/>
    <path d="M229.544 9.306l23.137 27.817-19.826 9.57 20.08 42.9 17.028 1.662-34.905 16.668-24.596 1-10.183-22.258-4.528-38.467 7-17.655 26.793-21.237z" id="102794"/>
    <path d="M287.565 21.682l-4.663 10.494 24.475 20.157 7.824 24.034-25.955 2.29-3 21.002-16.283-8.404-17.028-1.662-20.08-42.9 19.826-9.57-23.137-27.817 10.228 6.076 47.793 6.3z" id="105623"/>
    <path d="M202.751 30.543l-7 17.655 4.528 38.467-19.044 7.004-12.156 7.52-28.38-23.227-11.755-19.238 6.996-9.679-6.37-20.596 9.285-4.012L150.932 1l14.984 1.018 36.835 28.525z" id="103087"/>
    <path d="M639.047 371.625l-20.14 25.483-16.696-28.163-11.936-3.19-3.576-22.443 8.663-16.069 13.796 9.63 24.685-9.281-2.669-8.91L650 294.353l11.942 9.176-21.569 30.462-7.95 20.789 6.624 16.846z" id="102071"/>
    <path d="M586.7 343.312l3.575 22.443 11.936 3.19 16.696 28.163-6.783 5.873-1.675 36.98-1.387 49.178-9.179 1.765-24.355 23.392-17.275-17.271-10.769-23.221-18.902-13.008 14.707-16.112-2.768-17.07-17.404-1.764 3.023-15.3-6.567-21.252 17.906-7.515 13.877-30.448 13.85 8.185 8.505-14.397 12.988-1.811z" id="102106"/>
    <path d="M336.841 275.48l-11.19 22.522 3.673 9.058-16.547 6.194-29.032 26.303-21.195-19.617 13.86-25.68 20.69-15.978 16.196-4.793 13.233-15.944 10.312 17.935z" id="101519"/>
    <path d="M326.735 375.945l-9.874 32.959-19.053 13.16-7.172 43.505 10.548 4.881-14.609 40.18-13.799 15.657-15.686-38.134-20.301-4.572-5.42-16.636-5.216-8.295-21.963 9.827-2.033-33.737 19.863 3.337 17.541-44.105-3.925-18.99 12.355-11.46 18.774 13.38 28.305-26.897-11.325-10.448 29.032-26.303 16.547-6.194 9.955 21.241-12.544 47.644z" id="103238"/>
    <path d="M396.038 307.53l-5.327 18.786 9.387 18.519-16.668 12.89-22.254 26.417-34.44-8.197 12.543-47.644-9.955-21.24-3.673-9.059 11.19-22.522 17.721 4.16 8.091 13.68 20.413 1.546 12.972 12.664z" id="103693"/>
    <path d="M671.163 483.6l5.389 12.773 29.992 1.834 39.047-15.268 18.077 70.923-59.594 19.073-19.761 16.994-67.476 31.358-20.445-28.221 5.622-16.124-26.486-62.646 24.355-23.392 9.179-1.765 1.387-49.179 34.364-7 8.326 41.47 18.024 9.17z" id="104680"/>
    <path d="M776.5 382.849l-19.506 9.664-28.374 4.889-11.8-32.527-.513-30.438-16.118-13.754-1.179-1.063 9.015-2.364 24.8 17.332 12.632 20.498 31.07-1.785-.027 29.548z" id="179757"/>
    <path d="M364.154 212.207l-19.136 15.94-18.489 29.398-13.233 15.944-12.04-23.07-20.25 4.345-25.676-35.037-2.574-3.65 28.216-12.13 26.381 2.48 29.622-25.269 6.162 14.345 21.017 16.704z" id="101617"/>
    <path d="M699.01 319.62l1.18 1.063-45.35 73.148-15.793-22.206-6.623-16.846 7.95-20.789 21.568-30.462L650 294.352l-18.826 24.33 2.67 8.91-24.686 9.28.339-11.737 18.133-12.568 27.783-35.562 27.145 14.724 16.452 27.891z" id="105874"/>
    <path d="M161.946 533.677l27.01 40.492 39.266 22.278 20.348 18.674-11.321 21.051-3.982 15.998-21.756 2.008-10.544 17.758-40.429 1.52-3.61-15.86-21.358-31.5 9.954-6.864-8.092-25.313 3.598-26.634 20.916-33.608z" id="154709"/>
    <path d="M272.776 526.287l-3.484 28.637-20.208 4.957-20.863 36.566-39.265-22.278-27.01-40.492-.61-19.723 30.24-15.186 10.507-15.175 13.791 2.311 15.495-18.959 5.42 16.636 20.301 4.572 15.686 38.134z" id="104788"/>
    <path d="M418.891 688.682l-7.927 16.267-29.133 2.455-13.71 17.233-23.918.88-6.98-13.633-17.107 14.385-17.877-25.545-18.956-41.809-11.988.51 27.208-18.495 19.216-5.999 12.726-19.445 17.5-9.244 8.762-4.989 15.11 33.065 10.617 7.266 20.83 45.27 15.627 1.828z" id="105295"/>
    <path d="M439.84 303.791l-32.172-4.079-11.63 7.818-12.972-12.664-20.413-1.547-8.091-13.68-17.72-4.159-10.313-17.935 18.489-29.398 19.136-15.94 2.528 14.124 19.423 14.052 17.319-5.25 35.319 13.942 19.668 18.956-18.572 35.76z" id="104136"/>
    <path d="M331.365 28.333l1.352 1.742-25.34 22.258-24.475-20.157 4.663-10.494 16.333-20.566 23.694 15.656 3.773 11.561z" id="179748"/>
    <path d="M276.41 294.26l-13.86 25.68 21.195 19.617 11.325 10.448-28.305 26.898-18.774-13.382-12.355 11.46 3.925 18.991-17.541 44.105.958-7.19-37.999-8.816 9.147-48.778 20.127-32.131 5.164-17.041-25.646-13.917 1.616-24.85 35.724 5.274 8.137-6.373 37.162 10.005z" id="104047"/>
    <path d="M381.242 544.638l25.16 3.533-3.327 24.059 10.719 1.235 37.171 63.162 12.35 31.257-3.483 19.868-40.94.93-15.629-1.828-20.829-45.27-10.616-7.266-15.11-33.065-8.764 4.99-2.958-29.997 27.648-14.186-1.848-18.395.461-.123 9.995 1.096z" id="102909"/>
    <path d="M459.832 687.752l18.439 3.022 10.762 28.93-26.287 12.87-37.477 29.083-26.918-24.185-15.655.582-14.576-13.417 13.711-17.233 29.133-2.455 7.927-16.267 40.94-.93z" id="100521"/>
    <path d="M372.252 70.386l12.658 15.206-8.867 21.036-26.513-12.053-8.054-20.295-16.7 12.531-9.575-10.444-7.824-24.034 25.34-22.258 5.272 19.024 13.825 15.373 20.438 5.914z" id="103997"/>
  </g>
</svg>
