<svg xmlns="http://www.w3.org/2000/svg" version="1.2" baseProfile="tiny" stroke-linecap="round" stroke-linejoin="round" viewBox="0 0 800 865">
  <g id="HR">
    <path d="M321.905 784.928l32.907 6.19 8.26 9.415 1.538 19.266-6.38 10.75-9.034 1.049-1.071 18.073-6.501 14.643-6.768-11.272-16.3-1.996-22.206-10.832 12.746-22.011 12.81-33.275z" fill="none" stroke="#aaa" id="85243"/>
    <path d="M205.496 776.446l-1.044 9.923 6.194 15.959-11.398-.86-12.437 11.347-5.171 5.407-27.286-18.621-9.87-17.42-3.616-16.964 7.141-.51 11.475 8.852 9.165 1.08 24.218-7.475 12.63 9.282z" fill="none" stroke="#aaa" id="84380"/>
    <path d="M644.507 759.705l-5.239 12.587 2.17 20.484-9.605 2.565-3.002 11.106-2.137 31.846-21.744 6.999-9.199-3.214-10.913 7.159-14.224-1.328.539-6.686 18.848-8.79 6.394-9.761-2.46-13.515 7.83-27.242-9.22-8.842-.275-11.82-9.049.432 10.142-10.71 40.214 9.868 10.93-1.138z" fill="none" stroke="#aaa" id="86446"/>
    <path d="M251.499 774.692l12.252 5.837 4.273 9.096-2.822 17.078-20.08 1.033-10.58 5.099-.83-13.218-12.052 8.041 8.212 6.925-9.172 21.813-33.889-23.58 12.437-11.349 11.398.86-6.194-15.958 1.044-9.923L218.903 754l19.613-4.274 11.079 10.821 1.904 14.146z" fill="none" stroke="#aaa" id="86222"/>
    <path d="M594.09 720.644l-5.983 20.1 5.256 10.232-10.142 10.709-7.946 10.228-17.305 7.736-3.285 6.207-33.187 9.635-16.424-22.438 21.567-19.04 18.99-12.89 8.003-.96 15.324-18.855 15.608-7.623 9.524 6.959z" fill="none" stroke="#aaa" id="85840"/>
    <path d="M584.566 713.685l-15.608 7.623-15.324 18.856-8.003.958-18.99 12.891-21.567 19.04-20.994-30.727 4.114-2.58 36.307-22.587 50.776-15.9 9.289 12.426z" fill="none" stroke="#aaa" id="86519"/>
    <path d="M148.01 764.707l-7.142.51-16.276-1.314-.025-7.876-.78-21.044 23-28.734 5.52-5.043 15.45-2.164 3.253 35.893-6.5 18.007-16.5 11.765z" fill="none" stroke="#aaa" id="86487"/>
    <path d="M60.638 704.606l2.961 6.536 13.616 1.13 9.09 11.552-14.674 23.437 4.345 6.773-28.865-3.587-3.37-17.26-13.69-8.84-10.316-14.364 20.79-2.665 7.515-10.086 12.598 7.374z" fill="none" stroke="#aaa" id="85582"/>
    <path d="M459.524 730.623l-3.62 7.66-23.586 14.542-15.477 2.238-10.536 16.381-12.87 3.496-30.364 25.593-8.26-9.416-32.906-6.189-6.83-12.28 5.042-10.418 18.776-18.226 6.699-2.049 10.168 9.607 16.066-5.625 14.091-15.796 15.824 7.103 25.355-11.954 10.014-20.333 17.243-10.177 5.171 35.843z" fill="none" stroke="#aaa" id="85056"/>
    <path d="M218.903 753.999l-13.407 22.447-12.629-9.282-24.218 7.474-9.166-1.079-11.474-8.852 16.501-11.765 6.5-18.007-3.253-35.893 1.13-.795 18.303-1.095 20.88 17.377L218.903 754z" fill="none" stroke="#aaa" id="85127"/>
    <path d="M106.318 699.096l10.092 14.607 30.376-7.454-23 28.734.781 21.044-13.972-2.497-7.886 4.023-14.262-6.758-12.47 3.239-4.346-6.773 14.674-23.437-9.09-11.552-13.616-1.13-2.961-6.536 7.131-12.114 30.008 16.18 8.54-9.576z" fill="none" stroke="#aaa" id="83525"/>
    <path d="M355.026 684.383l-8.223 5.582-8.925 16.474-1.668 15.816 2.683 21.75-18.776 18.225-5.041 10.419 6.83 12.28-12.81 33.274-12.746 22.011-5.43 1.246-25.718-34.757 2.822-17.078-4.273-9.096-12.252-5.837 12.82-6.728 9.213-18.552.334-14.36 9.495-12.364 1.842-10.01 28.282-20.552 16.997-11.525 24.543 3.782z" fill="none" stroke="#aaa" id="84923"/>
    <path d="M574.953 696.107l.324 5.152-50.776 15.9-36.307 22.586-3.216-11.626-22.665 1.851 3.392-13.463 18.444-16.005 9.893 1.823 7.928-7.408 15.16 1.055 28.294-15.682 15.353 12.085 14.176 3.732z" fill="none" stroke="#aaa" id="85680"/>
    <path d="M454.353 694.78l-17.243 10.177-10.014 20.333-25.355 11.954-15.823-7.103-14.092 15.796-16.066 5.625-10.168-9.607-6.7 2.05-2.682-21.75 1.668-15.816 8.925-16.474 8.223-5.582 7.15.644 32.126 2.003 21.427-4.476 10.968-7.564 19.762 5.178 7.894 14.612z" fill="none" stroke="#aaa" id="84629"/>
    <path d="M228.466 672.163l6.683 7.77-8.335 14.019 5.225 24.751 13.61 8.238 18.56-3.348 20.994-10.916-1.842 10.01-9.495 12.365-.334 14.36-9.212 18.552-12.821 6.728-1.904-14.146-11.08-10.82-19.612 4.273-10.833-39.47-20.88-17.377-18.303 1.095 7.334-13.249 13.775-5.13 8.142 3.718 21.808-14.192 8.52 2.77z" fill="none" stroke="#aaa" id="83197"/>
    <path d="M284.738 692.972l11.833 5.773 11.009-8.772 5.905 2.153-28.282 20.551-20.995 10.916-18.558 3.348-13.611-8.238-5.225-24.751 8.335-14.018 18.138-.696 10.677-11.675 2.655 15.56 18.119 9.85z" fill="none" stroke="#aaa" id="83133"/>
    <path d="M580.983 653.124l10.697 1.845 7.336 9.502-2.609 18.716-21.454 12.92-14.176-3.732-15.353-12.085-7.862-18.08 7.787-9.254 10.005-1.709 19.51 7.577 6.119-5.7z" fill="none" stroke="#aaa" id="86479"/>
    <path d="M284.738 692.972l-18.12-9.85-2.654-15.559 6.18-6.454 1.695-14.938 20.894 2.612 6.62-4.106-6.624 20.23-5.882 6.994-2.11 21.071zm43.432-49.38l-22.635-2.444 3.347-19.216 9.362-15.736 20.745 15.733-10.82 21.663z" fill="none" stroke="#aaa" id="83151"/>
    <path d="M328.17 643.592l12.765 7.298-10.254 21.637-.199 8.074-16.997 11.525-5.905-2.153-11.01 8.772-11.832-5.773 2.109-21.071 5.882-6.993 6.624-20.231 6.182-3.529 22.635 2.444z" fill="none" stroke="#aaa" id="86501"/>
    <path d="M70.25 641.796l3.762 2.33 9.857 6.069-11.44 10.374-4.66 31.923-7.131 12.114-12.598-7.374-7.514 10.086-20.79 2.665-10.56.234.383-32.382L1 669.751l16.946-11.132-4.817-14.885 24.267-5.307 6.22 9.43 9.818 2.077 16.815-8.138z" fill="none" stroke="#aaa" id="85467"/>
    <path d="M580.983 653.124l-6.12 5.7-19.509-7.577-10.005 1.71-7.787 9.253 7.862 18.08-28.294 15.683-15.16-1.056-7.928 7.408-9.893-1.823-18.444 16.005-3.392 13.463-2.789.653-5.17-35.843-7.894-14.611-19.763-5.18-1.153-3.44 7.265 1.76 17.709-9.085 34.552-22.067 33.05-9.39 10.059-8.954 5.754 12.954 32.545 2.84 18.587 7.244-4.082 6.273z" fill="none" stroke="#aaa" id="83320"/>
    <path d="M189.996 679.867l-13.775 5.131-7.334 13.25-1.13.794-15.45 2.164-5.52 5.043-30.377 7.454-10.092-14.607 1.766-7.08L98 680.295l7.427-15.95-3.925-11.756 10.922-9.228 7.964-13.735 10.382 4.749 19.187-7.878 1.475-7.153 17.002-2.564 22.2 49.01-.638 14.076z" fill="none" stroke="#aaa" id="85984"/>
    <path d="M152.541 617.687l-1.11 1.658-1.474 7.153-19.187 7.877-10.382-4.748-7.965 13.735-10.921 9.228 3.925 11.756L98 680.296l10.084 11.72-1.766 7.08-8.541 9.575-30.008-16.18 4.66-31.922 11.44-10.374-9.857-6.07 9.168-12.605 10.032 1.89 1.895-12.306 16.613-5.848 26.257-1.563 14.564 3.994z" fill="none" stroke="#aaa" id="83847"/>
    <path d="M723.362 692.78l-13.963 8.403-.786 9.713-13.294 4.378-13.822-4.79-15.432 8.837-29.185-3.239-6.05 4.746-29.62 2.635-7.12-2.82-9.524-6.958-9.289-12.426-.324-5.152 21.454-12.92 2.609-18.716-7.336-9.502-4.932-8.415 11.521-10.333.601-6.393 20.094-16.095 14.222 6.904 8.05-4.67 20.459-3.566 8.486 12.608 21.044-.83 14.835 2.823 21.729 9.976-.667 30.776-7.715 13.974 3.955 11.052z" fill="none" stroke="#aaa" id="83981"/>
    <path d="M529.775 612.036l-1.596 11.777-10.058 8.953-33.05 9.39-34.553 22.068-17.709 9.085-7.265-1.76 6.979-14.397-8.617-19.684.394-23.251 20.456 3.711 8.743-5.576 28.382 5.055 16.314-2.784 21.844-13.01 9.736 10.423z" fill="none" stroke="#aaa" id="86461"/>
    <path d="M421.863 598.952l2.437 15.265-.394 23.25 8.617 19.685-6.98 14.397 1.154 3.44-10.968 7.565-21.427 4.476-32.126-2.003 21.219-35.97 8.002-33.745 13.413-21.923 17.053 5.563z" fill="none" stroke="#aaa" id="83749"/>
    <path d="M520.165 600.81l-.126.804-21.844 13.01-16.314 2.783-28.382-5.055-8.743 5.576-20.456-3.711-2.437-15.265 15.883-9.025 27.237 3.512 39.909-3.764 15.273 11.136z" fill="none" stroke="#aaa" id="85626"/>
    <path d="M402.894 591.137l1.916 2.252-13.413 21.923-8.002 33.745-21.219 35.97-7.15-.644-24.544-3.782.2-8.074 10.253-21.637-12.765-7.298 10.82-21.663 21.71-13.696.934-10.368 13.49-8.671 27.77 1.943z" fill="none" stroke="#aaa" id="83963"/>
    <path d="M503.366 569.284l7.863 4.038 14.175 17.3-5.24 10.189-15.272-11.136-39.909 3.764-27.237-3.512-15.883 9.025-17.053-5.563 13.085-5.477 7.368-13.345 14.135 2.226 16.715-6.376 5.968-8.99 10.114-2.032 31.171 9.89z" fill="none" stroke="#aaa" id="86495"/>
    <path d="M639.677 579.02l-7.008 20.797-28.796 10.145-34.492 5.92-26.311-10.623-13.295 6.777-9.736-10.422.126-.803 5.239-10.188 1.449-8.69 28.428-11.214 16.513 4.503 17.787-19.875 17.425 11.743 13.634 2.43 13.225 10.273 5.812-.773z" fill="none" stroke="#aaa" id="84415"/>
    <path d="M289.96 554.457l9.942 8.86-6.908 18.652-7.021 6.99-11.924 23.8-.442 15.275-5.634 9.252 3.866 8.885-1.695 14.938-6.18 6.454-10.677 11.675-18.138.696-6.683-7.77-3.385-10.9 5.47-13.875-5.076-10.978 9.025-8.94 7.509-25.453-6.349-15.521 16.209-4.226 8.502-10.536 8.17-17.747 21.419.47z" fill="none" stroke="#aaa" id="84264"/>
    <path d="M268.541 553.988l-8.17 17.747-8.502 10.535-16.209 4.227 6.349 15.521-7.509 25.452-9.025 8.941 5.076 10.978-5.47 13.876 3.385 10.898-8.52-2.769-21.808 14.192-8.142-3.719.637-14.075-22.199-49.01-17.002 2.563 1.11-1.658.935-19.721 6.514-9.374 16.926 6.667 9.188-3.227 20.874-.735 5.63-17.073 14.623-.582-1.811-12.432 5.355-11.47 12.922-1.592 12.035-7.118 12.808 12.958z" fill="none" stroke="#aaa" id="84825"/>
    <path d="M522.06 547.813l-20.576 13.464 1.882 8.007-31.171-9.89-10.114 2.034-5.968 8.989-16.715 6.376-14.135-2.226-7.368 13.345-13.085 5.477-1.916-2.252.867-4.347-13.04-22.25-1.264-7.038 29.55-18.33 15.24 3.924 8.835-2.038 29.178.17 13.083 3.263 23.529-.043 13.187 3.365z" fill="none" stroke="#aaa" id="86438"/>
    <path d="M530.283 536.58l-8.224 11.233-13.187-3.365-23.529.043-13.083-3.263-29.178-.17-8.835 2.038-15.24-3.923-29.55 18.329-.498-19.72 19.011-27.745 33.44 8.793 15.935-3.689 29.88 2.752 20.74 13.805 22.318 4.882z" fill="none" stroke="#aaa" id="84237"/>
    <path d="M129.177 545.523l.293 16.88 5.559 13.265 16.673 3.263 8.289 9.66-6.514 9.375-.936 19.721-14.564-3.994-26.257 1.563-16.613 5.848-1.894 12.305-10.033-1.889-9.168 12.605-3.763-2.329-10.664-15.313-12.856-3.716-.566-10.004 14.992-20.853 9.941 2.354 8.326-15.298 12.102-.768 4.102-11.498-8.776-13.299-2.661-12.087 10.008-24.328 25.672-12.018 5.421 17.28 3.887 23.275z" fill="none" stroke="#aaa" id="83785"/>
    <path d="M247.626 507.48l-2.824 14.075 10.64 7.558.291 11.917-12.035 7.118-12.923 1.591-5.354 11.47 1.811 12.433-14.624.582-5.629 17.073-20.874.735-9.188 3.227-16.926-6.667-8.289-9.661-16.673-3.263-5.559-13.265-.293-16.88 14.247 5.978 37.033-9.343 10.857-.156 9.665-28.717 17.686-7.504 8.478-8.244 20.483 9.942z" fill="none" stroke="#aaa" id="84175"/>
    <path d="M388.959 537.783l.498 19.719 1.264 7.038 13.04 22.25-.867 4.347-27.77-1.943-13.49 8.671-.934 10.368-21.71 13.697-20.746-15.734-9.362 15.736-3.347 19.216-6.183 3.529-6.619 4.106-20.894-2.612-3.866-8.885 5.633-9.252.443-15.275 11.924-23.8 7.021-6.99 6.908-18.652-9.942-8.86 7.807-9.58 11.423-23.117 3.032-13.478-2.306-10.921 7.802-1.581 21.274 11.638 13.87 24.64 14.665.47 21.432 5.255z" fill="none" stroke="#aaa" id="86366"/>
    <path d="M679.945 539.294l-3.642 18.477-9.068-7.593-22.307 2.132-5.251 26.71-5.812.773-13.225-10.272-13.634-2.431-17.425-11.743-3.766-14.565 1.996-16.288-11.092-6.893-5.063-14.248 4.055-13.755 15.855 13.098 12.906-1.375 14.064 3.735 8.925 15.805 25.43 10.759 27.054 7.674z" fill="none" stroke="#aaa" id="84754"/>
    <path d="M296.562 478.198l10.112 2.65 3.242 16.513 2.306 10.921-3.032 13.478-11.423 23.116-7.807 9.581-21.419-.469-12.808-12.958-.29-11.917-10.641-7.558 2.824-14.076-.13-8.223 20.27-21.519-4.073-5.583 32.87 6.044z" fill="none" stroke="#aaa" id="86311"/>
    <path d="M575.71 489.599l-4.054 13.754 5.063 14.248 11.092 6.893-1.996 16.288 3.766 14.565-17.787 19.875-16.513-4.503-28.428 11.213-1.45 8.69-14.174-17.3-7.863-4.038-1.882-8.007 20.575-13.464 8.224-11.233 14.47-16.877 10.19-12.27 12.238 2.578 2.277-10.474 11.557-25.113 2.753-14.407 14.292-2.075-2.923 25.336-19.426 6.32z" fill="none" stroke="#aaa" id="85074"/>
    <path d="M471.372 455.514l5.129 17.346 7.679 6.051 3.16 12.071 17.655 20.294 39.757 8.427-14.47 16.877-22.317-4.882-20.74-13.805-29.88-2.752-15.936 3.69-33.439-8.794 5.327-11.374 16.259-11.384 17.62-22.48 11.005-1.277 13.19-8.008z" fill="none" stroke="#aaa" id="84102"/>
    <path d="M581.015 474.424l-11.557 25.113-2.277 10.474-12.238-2.578-10.19 12.27-39.758-8.427-17.655-20.294-3.16-12.07-7.68-6.052-5.128-17.346 14.402-8.598-2.151-12.767 7.791 5.372 5.345 27.116 14.52 22.185 12.2 7.421 9.156-7.884 11.195-16.888 19.403-5.7 17.782 8.653z" fill="none" stroke="#aaa" id="86453"/>
    <path d="M471.349 415.278l4.613 16.472 7.661 2.4 2.15 12.766-14.401 8.598-13.19 8.008-11.006 1.277-17.62 22.48-7.17-19.366.696-10.76-9.452-30.775 9.134-10.524 7.101 4.774 10.636-5.65 11.713 5.833 19.135-5.533z" fill="none" stroke="#aaa" id="86339"/>
    <path d="M230.988 412.872l7.429 22.56 25.276 36.722 4.074 5.583-20.27 21.519.13 8.223-20.484-9.942-8.478 8.244-17.686 7.504-9.665 28.717-10.857.156-37.033 9.343-14.247-5.978-3.887-23.275-5.42-17.28 10.124-16.994 11.85-4.984 12.72 4.343 26.168-17.449 8.68-20.817 14.3.028 9.432-19.306-.772-16.25 8.214-4.457 10.402 3.79z" fill="none" stroke="#aaa" id="85341"/>
    <path d="M383.598 391.292l-.694 12.374-9.056 13.735-3.066 11.952-8.09 6.288-1.933 9.932-16.911 25.838-18.43 2.16-8.123 8.48-10.62-1.204-10.113-2.649-8.197-5.008.387-14.373 7.503-28.235 17.075-5.18-4.826-8.109 8.908-13.864 9.077-3.251 12.825 5.682 32.895-9.038 11.486-7.104-.097 1.574z" fill="none" stroke="#aaa" id="84086"/>
    <path d="M679.945 539.294l-27.055-7.674-25.429-10.759-8.925-15.805-14.064-3.735-12.906 1.375-15.856-13.098 19.427-6.32 2.923-25.336-24.02-19.25 8.853-17.196-13.939-25.94 10.247-12.67 16.031 1.38 12.848 5.601 11.036-1.822 3.489 13.708 14.22 16.204.792 19.572-9.175 15.467 4.477 11.389 13.072 10.48 6.717 14.47 1.094 20.58 7.395 10.068 14.208 4.799 4.54 14.512z" fill="none" stroke="#aaa" id="84656"/>
    <path d="M494.403 377.275l-7.807 23.97-15.247 14.033-19.135 5.533-11.713-5.834-10.636 5.65-7.1-4.773-9.135 10.524 9.452 30.775-.696 10.76 7.17 19.366-16.259 11.384-5.327 11.374-19.012 27.746-21.431-5.255-14.664-.47-13.87-24.64-21.275-11.638-7.802 1.581-3.242-16.514 10.622 1.205 8.122-8.48 18.43-2.161 16.911-25.838 1.933-9.932 8.09-6.288 3.066-11.952 9.056-13.735.694-12.374 5.1-4.917 35.146-4.644 7.954 12.519 36.662-3.629 12.279-21.335 13.664 7.989z" fill="none" stroke="#aaa" id="85920"/>
    <path d="M582.893 421.496l-8.853 17.196 24.02 19.25-14.292 2.075-2.753 14.407-17.782-8.654-19.403 5.701-11.195 16.888-9.156 7.885-12.2-7.422-14.52-22.185-5.345-27.116-7.791-5.372-7.66-2.4-4.614-16.47 15.248-14.035 7.806-23.969 27.868-12.867 2.71 17.132 35.237 45.564 18.836-.143 3.84-5.465z" fill="none" stroke="#aaa" id="85760"/>
    <path d="M275.016 340.71l12.317 9.096 34.872-2.109 22.414 12.554 12.7-.918 8.228 10.724 16.374 2.521 1.774 17.14-11.486 7.104-32.895 9.038-12.825-5.682-9.077 3.251-8.908 13.864 4.826 8.11-17.075 5.179-7.502 28.235-.388 14.373 8.197 5.008-32.87-6.044-25.275-36.722-7.43-22.56 13.093-13.796-6.375-15.319-12.99-16.472.82-18.202 15.157-1.912 16.065-13.981-.759-8.05 14.329 6.253 4.689 9.317z" fill="none" stroke="#aaa" id="84558"/>
    <path d="M419.49 289.858l.003 10.792-19.298 27.018-.205 20.563-11.017 19.723-7.052 4.624-16.374-2.521-8.229-10.724-12.7.918-22.413-12.554-34.872 2.109-12.317-9.096 20.42-3.817 20.39 8.482 31.058-21.379 5.582 1.893 18.468-10.523 8.378-10.184 10.096-2.74 1.894-11.902 24.411 5.293 3.777-5.975z" fill="none" stroke="#aaa" id="84594"/>
    <path d="M331.935 282.213l11.038 38.31 3.91 3.473-31.057 21.379-20.39-8.482-20.42 3.817-4.689-9.317-14.329-6.253-17.15-14.295-3.354-13.749 4.809-12.602 28.874-9.595 9.676-.908 20.824 6.186 33.163-3.137-.905 5.173z" fill="none" stroke="#aaa" id="85412"/>
    <path d="M507.605 264.38l-6.571 5.819 5.192 9.15 11.287-11.097 6.63 6.079-13.56 12.748 2.982 9.681 12.057 5.94-.134 23.111-3.283 6.633 4.1 24.557-4.034 7.407-27.868 12.867-13.664-7.99-12.279 21.336-36.661 3.629-7.955-12.52-35.146 4.645-5.1 4.917.097-1.574-1.774-17.14 7.052-4.624 11.017-19.724.204-20.562 19.3-27.018-.004-10.792 13.123-8.214 24.453 10.53 3.694 12 22.155 8.633 4.68-8.007-7.218-21.64 9.585-17.353 17.643-1.426z" fill="none" stroke="#aaa" id="83561"/>
    <path d="M340.134 271.476l-8.199 10.737.905-5.173-33.163 3.137-20.824-6.186-9.676.908-28.874 9.595-8.713-6.23 18.904-20.493 12.007 2.217 27.793-13.58 19.512-17.897 13.442 10.932-1.633 20.291 18.52 11.743z" fill="none" stroke="#aaa" id="85877"/>
    <path d="M381.244 219.737l22.824 8.253 12.442 13.313 6.303 15.604-1.672 12.691 11.472 12.046-13.123 8.214-3.777 5.975-24.411-5.293-1.894 11.902-10.096 2.74-8.378 10.184-18.468 10.523-5.582-1.893-3.911-3.473-11.038-38.31 8.2-10.737 14.82-16.598 8.168 1.06 5.056-16.142-2.48-24.605 15.545 4.546z" fill="none" stroke="#aaa" id="84344"/>
    <path d="M318.08 192.506l-.288 9.014-11.805 21.767 3.819 5.224-19.512 17.897-27.793 13.58-12.007-2.216 4.08-12.065 26.181-20.775 4.5-10.739 10.78-.361 14.357-7.638 7.688-13.688z" fill="none" stroke="#aaa" id="84460"/>
    <path d="M350.75 173.425l5.36 27 9.59 14.766 2.479 24.605-5.055 16.141-8.17-1.059-14.82 16.599-18.52-11.743 1.634-20.291-13.442-10.933-3.82-5.223 11.806-21.767.288-9.014 15.235-5.612 2.98-13.262 14.456-.207z" fill="none" stroke="#aaa" id="85528"/>
    <path d="M503.181 132.899l11.448 16.711 1.989 14.102 7.124 11.006 7.693-9.306 10.14 11.273 2.354 15.291 7.57 17.841-28.675-6.277-1.117 11.018-19.566 24.866 8.971 16.693-3.507 8.264-17.643 1.426-9.585 17.352 7.218 21.641-4.68 8.007-22.155-8.634-3.694-11.999-24.452-10.53-11.473-12.046 1.672-12.691-6.303-15.604-12.442-13.313 12.91-2.86 7.597-12.48 13.356-10.853-2.602-11.3 13.202-19.545 15.16-.345 7.485-14.389 1.03-15.49 8.684-14.037 13.136 8.588 9.155-2.38z" fill="none" stroke="#aaa" id="86133"/>
    <path d="M503.181 132.899l-9.155 2.38-13.136-8.587-8.684 14.035-1.03 15.491-7.485 14.389-15.16.345-13.202 19.546 2.602 11.299-13.356 10.853-7.596 12.48-12.91 2.86-22.825-8.253 9.452-11.775 4.515-12.798 13.569-6.598-2.534-16.929 6.538-5.948-9.046-8.9-8.49-27.18 6.708-12.292 25.803-25.54 10.846-14.214 13.615-2.028 15.117 7.825 16.353 4.524 7.846 21.287 11.645 9.442v14.286z" fill="none" stroke="#aaa" id="84148"/>
    <path d="M361.885 138.805l9.74 24.8-20.874 9.82-14.456.207-2.98 13.262-15.235 5.612-7.688 13.688-14.357 7.638-10.78.361-4.5 10.74-26.182 20.774-4.08 12.065-18.903 20.492-11.543-2.18 11.724-42.473-5.977-13.864 4.465-27.633 10.037-20.189-.505-16.85-12.533-14.942 2.617-15.549-21.443-24.762-.427-11.71 8.646-17.819 17.939-4.714 9.6-13.639 13.107-.834L278.873 64.8l7.812 13.022 6.316-5.421 15.18 10.227 5.095 19.933 19.722 27.138 12.628-1.697 16.26 10.802z" fill="none" stroke="#aaa" id="83632"/>
    <path d="M381.244 219.737L365.7 215.19l-9.589-14.766-5.36-27 20.875-9.82-9.74-24.8 22.29 7.376 11.074-16.573 8.49 27.18 9.045 8.901-6.538 5.948 2.534 16.93-13.569 6.597-4.515 12.798-9.452 11.775z" fill="none" stroke="#aaa" id="83491"/>
    <path d="M438.605 77.563l-10.846 14.213-25.803 25.54-6.707 12.292-11.074 16.573-22.29-7.376-16.26-10.802-12.627 1.697-19.722-27.137-5.095-19.934-15.18-10.227-6.316 5.421-7.812-13.022-21.576-13.695-13.106.834-5.386-10.045 3.856-18.151 31.462-15.17L313.981 1l.196 10.069 17.204 20.578 21.745 13.74 16.806 18.206 2.919 14.846 11.18 4.331 12.055-2.852 14.917 5.785 10.658-13.211 16.943 5.07z" fill="none" stroke="#aaa" id="83936"/>
    <path d="M583.221 761.685l9.05-.432.274 11.82 9.22 8.842-7.83 27.242 2.46 13.515-6.394 9.762-18.848 8.789-.54 6.686-12.73 2.54-.633-.581-9.73-16.708-26.993-29.419.97-8.25 33.188-9.635 3.285-6.207 17.305-7.736 7.946-10.228z" fill="none" stroke="#aaa" id="86188"/>
    <path d="M666.065 719.32l-2.762 16.88-11.706 22.962-7.09.543-10.93 1.138-40.214-9.867-5.256-10.232 5.983-20.1 7.12 2.819 29.62-2.635 6.05-4.746 29.185 3.239z" fill="none" stroke="#aaa" id="85788"/>
    <path d="M626.694 838.293l2.137-31.846 3.002-11.106 9.606-2.565-2.171-20.484 5.24-12.587 7.09-.543 11.705-22.961 2.762-16.88 15.432-8.838 13.822 4.791 13.294-4.378.786-9.713 13.963-8.403 24.924 3.04 12.978-4.783 5.903-14.711 19.525-8.327L799 676.336l-4.838 10.335-4.814 27.384-11.536 8.369 6.248 25.887-3.712 6.258 2.439 17.206-21.884 7.413-7.845 22.162-10.869-3.989-12.298 19.051-14.819-8.237-11.418 7.84-11.733-2.668-18.882 3.891-13.368 7.783-10.172 18.682-19.092.826-3.713-6.236z" fill="none" stroke="#aaa" id="85289"/>
    <path d="M633.186 620.637l-14.222-6.904-20.094 16.095-.6 6.393-11.522 10.333 4.932 8.415-10.697-1.845 4.082-6.273-18.587-7.245-32.545-2.839-5.754-12.954 1.596-11.777 13.295-6.777 26.311 10.623 34.492-5.92 28.796-10.145 4.983 7.714-4.466 13.106z" fill="none" stroke="#aaa" id="83375"/>
  </g>
</svg>
