<svg xmlns="http://www.w3.org/2000/svg" version="1.2" baseProfile="tiny" stroke-linecap="round" stroke-linejoin="round" viewBox="0 0 800 866">
  <g id="HR">
    <path d="M322.087 784.63l32.894 6.186 8.257 9.412 1.538 19.258-6.379 10.745-9.03 1.05-1.07 18.066-6.499 14.638-8.448 1.463 1.683-12.73-16.294-1.996-10.1-7.333-12.098-3.495 2.043-8.182 10.699-13.821 12.804-33.262z" fill="none" stroke="#aaa" data-name="Ocland" class="comuna" id="85243"/>
    <path d="M205.723 776.15l-1.044 9.92 6.191 15.952-11.393-.86-12.432 11.344-8.609 4.375-23.836-17.585-9.865-17.412-3.616-16.958 7.138-.51 11.47 8.848 9.162 1.08 24.21-7.472 12.624 9.278z" fill="none" stroke="#aaa" data-name="Dîrjiu" class="comuna" id="84380"/>
    <path d="M644.566 759.415l-5.237 12.583 2.17 20.476-9.602 2.564-3.001 11.102-2.136 31.833-21.736 6.997-9.195-3.212-10.909 7.155-14.219-1.327.538-6.684 18.841-8.786 6.392-9.758-2.458-13.51 7.826-27.231-9.216-8.838-.275-11.816-9.046.432 8.731-2.648 1.408-8.057 40.198 9.863 10.926-1.138z" fill="none" stroke="#aaa" data-name="Cozmeni" class="comuna" id="86446"/>
    <path d="M251.708 774.397l12.247 5.835 4.272 9.092-2.821 17.072-20.073 1.032-10.575 5.097-.83-13.213-8.071-2.522-3.977 10.56 8.21 6.923-3.014 13.827-6.155 7.977-13.294-7.618-20.582-15.953 12.432-11.344 11.393.86-6.191-15.953 1.044-9.919 13.402-22.439 19.604-4.271 11.075 10.816 1.904 14.141z" fill="none" stroke="#aaa" data-name="Ulieș" class="comuna" id="86222"/>
    <path d="M594.168 720.37l-5.981 20.092 5.255 10.228-1.408 8.057-8.73 2.648-7.944 10.224-17.298 7.733-3.284 6.205-33.174 9.631-3.355-7.922-13.063-14.507 21.559-19.033 18.982-12.886 8-.958 15.319-18.849 15.601-7.62 9.521 6.956z" fill="none" stroke="#aaa" data-name="Sînsimion" class="comuna" id="85840"/>
    <path d="M584.648 713.413l-15.602 7.62-15.318 18.849-8 .958-18.983 12.886-21.56 19.033-20.985-30.716 4.113-2.58 36.293-22.578 35.68-10.18 15.076-5.713 9.286 12.42z" fill="none" stroke="#aaa" data-name="Sântimbru" class="comuna" id="86519"/>
    <path d="M148.257 764.415l-7.138.51-16.27-1.313-.024-7.873 3.053-4.003-3.834-17.033 22.991-28.723 5.519-5.04 15.444-2.164 2.008 2.147 1.243 33.732-6.496 18-16.495 11.76z" fill="none" stroke="#aaa" data-name="Porumbeni" class="comuna" id="86487"/>
    <path d="M60.92 704.338l2.96 6.533 13.61 1.13 9.087 11.548-14.669 23.427 4.344 6.77-28.854-3.585-3.369-17.252-14.915-10.224-9.081-12.973 20.782-2.664 7.511-10.081 9.753.03 2.84 7.34z" fill="none" stroke="#aaa" data-name="Secuieni" class="comuna" id="85582"/>
    <path d="M459.654 730.345L456.035 738l-23.577 14.537-21.26 8.816-9.67 16.567-7.937-3.276-30.353 25.583-8.257-9.412-32.894-6.187-6.826-12.275 5.038-10.414 18.77-18.22 6.696-2.048 10.164 9.604 16.06-5.623 3.01-7.62 11.076-8.17 15.818 7.1 25.345-11.95 10.01-20.325 17.237-10.173 5.169 35.83z" fill="none" stroke="#aaa" data-name="Merești" class="comuna" id="85056"/>
    <path d="M219.125 753.711l-13.402 22.44-12.625-9.28-24.209 7.472-9.162-1.078-11.47-8.85 16.495-11.76 6.497-18-1.243-33.732-2.008-2.147 1.13-.795 10.185-3.698 8.11 2.603 20.872 17.371 3.185 16.915 7.645 22.54z" fill="none" stroke="#aaa" data-name="Mugeni" class="comuna" id="85127"/>
    <path d="M106.582 698.83l10.088 14.6 30.365-7.45-22.99 28.723 3.833 17.033-3.053 4.003-13.968-2.496-7.882 4.022-14.257-6.756-12.466 3.237-4.344-6.77 14.67-23.428L77.49 712l-13.611-1.129-2.96-6.533 7.128-12.11L98.044 708.4l8.538-9.571z" fill="none" stroke="#aaa" data-name="Cristuru Secuiesc" class="oras" id="83525"/>
    <path d="M355.195 684.122l-8.22 5.58-8.92 16.468-1.668 15.81 2.681 21.74-18.768 18.22-5.04 10.414 6.827 12.275-12.804 33.262-10.699 13.822-2.043 8.181-5.426 1.246-25.71-34.744 2.822-17.072-4.272-9.092-12.247-5.835 12.816-6.726 9.209-18.545.333-14.354 9.492-12.36 1.841-10.007 28.27-20.543 16.992-11.52 16.964.152 7.57 3.628z" fill="none" stroke="#aaa" data-name="Mărtiniș" class="comuna" id="84923"/>
    <path d="M575.039 695.842l.323 5.15-15.075 5.713-35.68 10.18-36.294 22.578-3.215-11.621-15.131-1.278-7.525 3.128 3.39-13.458 18.438-15.999 9.888 1.822 7.925-7.405 15.154 1.055 28.284-15.676 15.347 12.08 14.17 3.73z" fill="none" stroke="#aaa" data-name="Sâncrăieni" class="comuna" id="85680"/>
    <path d="M454.485 694.515l-17.237 10.173-10.01 20.325-25.345 11.95-15.818-7.1-11.077 8.17-3.01 7.62-16.06 5.623-10.163-9.604-6.697 2.049-2.681-21.742 1.668-15.809 8.92-16.468 8.22-5.58 7.148.644 11.17 2.348 20.943-.346 21.42-4.474 10.963-7.561 19.755 5.176 7.89 14.606z" fill="none" stroke="#aaa" data-name="Lueta" class="comuna" id="84629"/>
    <path d="M228.684 671.907l6.68 7.767-9.47 12.706.91 13.306 5.451 12.743 13.606 8.235 18.551-3.347 20.987-10.912-1.841 10.007-9.492 12.36-.333 14.354-9.21 18.545-12.815 6.726-1.904-14.14-11.075-10.817-19.604 4.271-7.645-22.539-3.185-16.915-20.872-17.37-8.11-2.604-10.186 3.698 7.332-13.244 13.77-5.129 8.138 3.717 21.8-14.186 8.517 2.768z" fill="none" stroke="#aaa" data-name="Feliceni" class="comuna" id="83197"/>
    <path d="M284.934 692.708l11.829 5.77 11.004-8.767 5.903 2.151-28.27 20.543-20.988 10.912-18.551 3.347-13.606-8.235-5.45-12.743-.911-13.306 9.47-12.706 18.132-.695 10.673-11.67 4.797 4.92-2.144 10.633 10.973 9.523 7.14.323z" fill="none" stroke="#aaa" data-name="Odorheiu Secuiesc" class="municipiu" id="83133"/>
    <path d="M581.066 652.875l10.693 1.845 7.333 9.497-3.749 5.89 1.142 12.82-21.446 12.915-14.17-3.73-15.349-12.081-7.858-18.074 7.784-9.25L555.447 651l19.502 7.574 6.117-5.698z" fill="none" stroke="#aaa" data-name="Leliceni" class="comuna" id="86479"/>
    <path d="M284.934 692.708l-7.139-.323-10.973-9.523 2.144-10.633-4.797-4.92 6.177-6.452 1.695-14.932 20.885 2.611 6.617-4.105-6.62 20.223-5.88 6.99-2.109 21.064zm43.415-49.36l-22.626-2.444 3.346-19.208 8.609-7.433.75-8.298 20.737 15.727-10.816 21.655z" fill="none" stroke="#aaa" data-name="Brădești" class="comuna" id="83151"/>
    <path d="M328.35 643.347l12.76 7.295-10.25 21.628-.199 8.072-16.991 11.52-5.903-2.151-11.004 8.767-11.829-5.77 2.108-21.063 5.88-6.99 6.621-20.224 6.18-3.527 22.626 2.443z" fill="none" stroke="#aaa" data-name="Satu Mare" class="comuna" id="86501"/>
    <path d="M70.527 641.552l3.762 2.328 9.853 6.067-2.468 8.065-8.967 2.305-4.659 31.91-7.129 12.11-2.84-7.34-9.753-.03-7.51 10.081-20.783 2.664L5.18 700.24l4.679-22.662L1 671.002l3.573-5.898 13.67-6.736-4.734-14.956 24.178-5.228 6.217 9.425 9.814 2.077 16.81-8.134z" fill="none" stroke="#aaa" data-name="Săcel" class="comuna" id="85467"/>
    <path d="M581.066 652.875l-6.117 5.698-19.502-7.574-10 1.708-7.785 9.25 7.858 18.074-28.283 15.676-15.154-1.055-7.925 7.405-9.888-1.822-18.438 15.999-3.39 13.458-2.788.653-5.17-35.83-7.89-14.606-19.755-5.176-1.153-3.44 7.263 1.76 17.702-9.082 34.539-22.059 33.038-9.387 10.054-8.95 5.752 12.95 32.532 2.838 18.58 7.242-4.08 6.27z" fill="none" stroke="#aaa" data-name="Miercurea Ciuc" class="municipiu resedinta" id="83320"/>
    <path d="M190.228 679.608l-13.769 5.13-7.332 13.243-1.13.795-15.443 2.163-5.519 5.04-30.365 7.452-10.088-14.601 1.766-7.079-10.08-11.714 5.996-5.236 1.428-10.708-3.924-11.751 10.918-9.225 7.961-13.73 10.378 4.747 19.18-7.875 1.474-7.15 16.996-2.563 15.407 31.94-.966 5.887 7.75 11.165-.638 14.07z" fill="none" stroke="#aaa" data-name="Șimonești" class="comuna" id="85984"/>
    <path d="M152.788 617.452l-1.11 1.657-1.473 7.15-19.18 7.875-10.378-4.747-7.962 13.73-10.917 9.225 3.924 11.751-1.428 10.708-5.996 5.236 10.08 11.714-1.766 7.079-8.538 9.571-29.996-16.173 4.659-31.911 8.967-2.305 2.468-8.065-9.853-6.067 9.165-12.6 10.028 1.888 1.894-12.3 16.606-5.846 15.03 1.234 5.185-3.796 20.59 4.992z" fill="none" stroke="#aaa" data-name="Avrămești" class="comuna" id="83847"/>
    <path d="M723.39 692.516l-13.957 8.4-.786 9.71-13.288 4.376-13.817-4.79-3.4 6.437-12.026 2.397-29.174-3.237-6.049 4.745-29.607 2.633-7.118-2.818-9.52-6.956-9.286-12.42-.323-5.151 21.446-12.915-1.142-12.82 3.75-5.89-7.334-9.497-4.93-8.412 11.517-10.33.6-6.39 20.087-16.089 14.216 6.901 8.048-4.668 20.45-3.564 8.317 4.094.167 8.509 21.035-.83 14.83 2.823 18.475 9.163 4.136 13.18-1.085 17.758-8.184 14.603 3.953 11.048z" fill="none" stroke="#aaa" data-name="Ciucsîngeorgiu" class="comuna" id="83981"/>
    <path d="M529.878 611.802l-1.596 11.773-10.054 8.95-33.038 9.387-34.54 22.06-17.701 9.08-7.263-1.759 6.977-14.392-8.614-19.676.394-23.242 20.449 3.71 8.738-5.574 28.372 5.053 16.308-2.783 21.835-13.005 9.733 10.418z" fill="none" stroke="#aaa" data-name="Ciceu" class="comuna" id="86461"/>
    <path d="M422.007 598.724l2.436 15.259-.394 23.242 8.614 19.676-6.977 14.392 1.153 3.44-10.964 7.561-21.419 4.474-20.944.346-11.169-2.348 21.21-35.956 2.512-15.009 5.976-10.282-.489-8.442 13.408-21.914 17.047 5.56z" fill="none" stroke="#aaa" data-name="Vlăhița" class="oras" id="83749"/>
    <path d="M520.271 600.582l-.126.802-21.835 13.005-16.308 2.783-28.372-5.053-8.738 5.574-20.45-3.71-2.435-15.26 2.204-5.208 13.673-3.813 27.227 3.511 39.893-3.763 15.267 11.132z" fill="none" stroke="#aaa" data-name="Siculeni" class="comuna" id="85626"/>
    <path d="M403.045 590.912l1.915 2.251-13.408 21.914.489 8.442-5.976 10.282-2.511 15.01-21.211 35.955-7.148-.644-7.57-3.628-16.964-.152.2-8.072 10.25-21.628-12.762-7.295 10.816-21.654L360.867 608l.933-10.363 13.485-8.669 17.406 3.257 10.354-1.314z" fill="none" stroke="#aaa" data-name="Căpîlnița" class="comuna" id="83963"/>
    <path d="M503.479 569.067l7.86 4.036 14.169 17.295-5.237 10.184-15.267-11.132-39.893 3.763-27.227-3.51-13.673 3.812-2.204 5.209-17.047-5.56 13.08-5.476 7.365-13.34 12.227-4.264 1.903 6.489 16.709-6.373 5.965-8.986 10.11-2.032 31.16 9.885z" fill="none" stroke="#aaa" data-name="Racu" class="comuna" id="86495"/>
    <path d="M639.737 578.8l-1.022 11.03-5.982 9.758-28.785 10.142-6.045 5.372-8.829-2.722-19.605 3.267-26.302-10.619-13.29 6.774-9.732-10.418.126-.802 5.237-10.184 1.449-8.688 28.417-11.209 16.507 4.502 17.78-19.867 17.419 11.738 13.628 2.43 13.22 10.268 5.81-.773z" fill="none" stroke="#aaa" data-name="Frumoasa" class="comuna" id="84415"/>
    <path d="M290.154 554.246l9.939 8.857-6.906 18.644-7.018 6.988-11.92 23.79-.442 15.27-5.632 9.248 3.866 8.882-1.695 14.932-6.177 6.452-10.673 11.67-18.132.695-6.68-7.767-3.384-10.894 5.468-13.871-5.074-10.973 9.022-8.938 7.505-25.442-6.346-15.516 16.202-4.224 8.5-10.531 1.548-10.576 6.619-7.165 9.397-2.6 12.013 3.069z" fill="none" stroke="#aaa" data-name="Dealu" class="comuna" id="84264"/>
    <path d="M268.744 553.777l-6.619 7.165-1.548 10.576-8.5 10.53-16.202 4.225 6.346 15.516-7.506 25.442-9.021 8.938 5.074 10.973-5.468 13.87 3.384 10.895-8.517-2.768-21.8 14.186-8.139-3.717.637-14.07-7.75-11.165.968-5.888-15.408-31.939-16.996 2.563 1.109-1.657.935-19.714 6.512-9.37 16.92 6.665 9.184-3.227 20.866-.734 6.14-8.33-.513-8.737 14.619-.582-1.811-12.427 5.352-11.466 12.918-1.59 12.03-7.117 3.835 8.483 8.969 4.471z" fill="none" stroke="#aaa" data-name="Lupeni" class="comuna" id="84825"/>
    <path d="M522.165 547.604l-20.567 13.46 1.881 8.003-31.16-9.885-10.11 2.032-5.965 8.986-16.709 6.373-1.903-6.489-12.227 4.264-7.365 13.34-13.08 5.475-1.915-2.25.867-4.347-13.035-22.241-1.264-7.036 29.539-18.322 15.234 3.922 8.832-2.038 29.167.171 13.078 3.262 23.52-.043 13.182 3.363z" fill="none" stroke="#aaa" data-name="Mădăraș" class="comuna" id="86438"/>
    <path d="M530.385 536.376l-8.22 11.228-13.183-3.363-23.519.043-13.078-3.262-29.167-.17-8.832 2.037-15.234-3.922-29.54 18.322-.497-19.711 19.005-27.736 33.426 8.79 15.93-3.687 18.162-.142 11.706 2.893 20.732 13.8 22.31 4.88z" fill="none" stroke="#aaa" data-name="Dănești" class="comuna" id="84237"/>
    <path d="M129.432 545.315l.294 16.874 5.556 13.26 16.667 3.261 8.286 9.657-6.512 9.371-.935 19.714-20.59-4.992-5.187 3.796-15.029-1.234-16.606 5.845-1.894 12.3-10.028-1.887-9.165 12.6-3.762-2.328-10.66-15.308-12.851-3.714-.565-10 7.917-10.441-1.688-7.493 18.694-.558 8.323-15.292 12.096-.768 4.101-11.494-8.772-13.294-14.307-.369 11.647-11.713 9.962-24.828 25.704-11.504 5.42 17.273 3.884 23.266z" fill="none" stroke="#aaa" data-name="Atid" class="comuna" id="83785"/>
    <path d="M247.837 507.286l-2.823 14.07 10.636 7.555.29 11.913-12.03 7.115-12.918 1.591-5.352 11.466 1.81 12.427-14.618.582.513 8.737-6.14 8.33-20.866.734-9.184 3.227-16.92-6.666-8.286-9.657-16.667-3.262-5.556-13.26-.294-16.873 14.242 5.976 22.05-5.551 5.22 3.044 9.749-6.833 10.853-.155 9.66-28.707 17.68-7.501 8.475-8.24 20.476 9.938z" fill="none" stroke="#aaa" data-name="Corund" class="comuna" id="84175"/>
    <path d="M389.115 537.578l.498 19.711 1.264 7.036 13.035 22.241-.867 4.346-10.354 1.314-17.406-3.257-13.485 8.669-.933 10.363-21.702 13.692-20.737-15.728-.75 8.298-8.608 7.433-3.347 19.208-6.18 3.527-6.617 4.105-20.885-2.611-3.866-8.882 5.632-9.248.442-15.27 11.92-23.79 7.018-6.988 6.906-18.644-9.94-8.857 7.805-9.577 11.419-23.107 3.03-13.473-2.304-10.917 7.799-1.581 21.266 11.633 13.865 24.631 14.659.47 21.423 5.253z" fill="none" stroke="#aaa" data-name="Zetea" class="comuna" id="86366"/>
    <path d="M679.99 539.088l-3.64 18.47-9.065-7.59-22.298 2.132-1.277 21.819-3.973 4.88-5.809.773-13.22-10.268-13.628-2.43-17.419-11.738-3.765-14.56 1.995-16.282-11.087-6.89-5.062-14.242 4.054-13.75 3.462 6.743 12.387 6.35 12.902-1.375 14.058 3.734 8.922 15.799 25.42 10.754 20.814 3.702 6.23 3.97z" fill="none" stroke="#aaa" data-name="Lunca de Sus" class="comuna" id="84754"/>
    <path d="M296.754 478.016l10.108 2.648 3.241 16.508 2.305 10.917-3.031 13.473-11.419 23.107-7.804 9.577-12.013-3.069-9.397 2.6-8.97-4.471-3.833-8.483-.29-11.912-10.638-7.554 2.824-14.07-.13-8.221 20.263-21.51-4.073-5.582 32.857 6.042z" fill="none" stroke="#aaa" data-name="Vărșag" class="comuna" id="86311"/>
    <path d="M575.796 489.412l-4.054 13.75 5.062 14.242 11.087 6.89-1.995 16.282 3.765 14.56-17.78 19.867-16.507-4.502-28.417 11.21-1.449 8.687-14.17-17.295-7.859-4.036-1.881-8.004 20.567-13.459 8.22-11.228 4.64-1.016 9.824-15.855 10.187-12.265 12.233 2.577 2.277-10.47 11.552-25.103 2.752-14.402 14.286-2.075-2.921 25.327-6.815-1.03-12.604 7.348z" fill="none" stroke="#aaa" data-name="Mihăileni" class="comuna" id="85074"/>
    <path d="M471.497 455.34l5.127 17.34 7.676 6.05 3.159 12.065 15.205 14.38 2.443 5.906 18.83 5.366 20.912 3.058-9.825 15.855-4.639 1.016-22.309-4.88-20.732-13.8-11.706-2.893-18.162.142-15.93 3.688-33.426-8.79 5.325-11.37 11.476-4.204 4.776-7.176 6.094-10.676 11.52-11.795 11-1.276 4.54-8.285 8.646.279z" fill="none" stroke="#aaa" data-name="Cârța" class="comuna" id="84102"/>
    <path d="M581.098 474.244l-11.552 25.103-2.277 10.47-12.233-2.577-10.187 12.265-20.912-3.058-18.83-5.365-2.443-5.906-15.205-14.38-3.159-12.067-7.676-6.05-5.127-17.339 14.396-8.594-2.15-12.762 7.789 5.37 5.342 27.106 14.515 22.175 12.196 7.42 9.151-7.882 11.192-16.881 19.395-5.7 17.775 8.652z" fill="none" stroke="#aaa" data-name="Tomești" class="comuna" id="86453"/>
    <path d="M471.474 415.12l4.612 16.465 7.657 2.399 2.15 12.762-14.396 8.594-8.645-.279-4.54 8.285-11.002 1.276-11.519 11.795-6.094 10.676-7.167-19.358.696-10.756-9.449-30.763 9.13-10.52 7.099 4.772 10.632-5.649 11.708 5.831 19.128-5.53z" fill="none" stroke="#aaa" data-name="Voșlăbeni" class="comuna" id="86339"/>
    <path d="M231.204 412.715l7.427 22.551 25.266 36.708 4.073 5.581-20.263 21.51.13 8.221-20.476-9.938-8.474 8.24-17.68 7.501-9.66 28.707-10.854.155-9.748 6.833-5.222-3.044-22.049 5.55-14.242-5.975-3.885-23.266-5.419-17.273 3.629-11.652 18.337-10.318 12.715 4.342 26.159-17.443 8.676-20.809 14.296.028 9.427-19.299-.77-16.243 7.538-3.965 11.07 3.298z" fill="none" stroke="#aaa" data-name="Praid" class="comuna" id="85341"/>
    <path d="M383.757 391.143l-.694 12.37-9.053 13.73-3.065 11.946-8.087 6.286-1.931 9.929-16.906 25.827-18.422 2.16-8.12 8.477-10.617-1.204-10.108-2.648-8.194-5.006.387-14.368 7.5-28.224 17.068-5.177-4.824-8.107 8.904-13.858 9.075-3.25 12.82 5.68 12.746-1.79 20.136-7.245 11.481-7.101-.096 1.573z" fill="none" stroke="#aaa" data-name="Ciumani" class="comuna" id="84086"/>
    <path d="M679.99 539.088l-6.229-3.969-20.815-3.702-25.42-10.754-8.921-15.8-14.058-3.733-12.902 1.375-12.387-6.35-3.462-6.743 12.604-7.349 6.815 1.03 2.921-25.326-18.219-17.07-5.79-2.172 8.849-17.19-13.934-25.93 10.972-12.401 15.296 1.116 12.843 5.6 11.113-1.815 3.406 13.695 14.215 16.197.792 19.566-9.172 15.46 4.475 11.385 13.068 10.476 6.714 14.465 1.093 20.572 12.402 12.385 9.193 2.476 4.538 14.506z" fill="none" stroke="#aaa" data-name="Lunca de Jos" class="comuna" id="84656"/>
    <path d="M494.519 377.131l-7.803 23.96-15.242 14.03-19.128 5.53-11.709-5.832-10.631 5.649-7.098-4.772-9.13 10.52 9.448 30.763-.696 10.756 7.167 19.358-4.776 7.176-11.476 4.204-5.325 11.37-19.005 27.735-21.423-5.253-14.659-.47-13.865-24.63-21.266-11.634-7.799 1.58-3.24-16.507 10.616 1.204 8.12-8.477 18.422-2.16 16.906-25.827 1.931-9.928 8.087-6.287 3.065-11.947 9.053-13.73.694-12.37 5.097-4.914 28.608-5.277 6.525.634 7.952 12.514 36.647-3.626 12.274-21.328 13.659 7.986z" fill="none" stroke="#aaa" data-name="Suseni" class="comuna" id="85920"/>
    <path d="M582.976 421.336l-8.85 17.189 5.791 2.171 18.22 17.071-14.287 2.075-2.752 14.402-17.775-8.651-19.395 5.699-11.192 16.881-9.151 7.882-12.196-7.42-14.515-22.175-5.342-27.107-7.789-5.369-7.657-2.399-4.612-16.465 15.242-14.029 7.803-23.96 27.858-12.862-2.384 6.669 5.093 10.457 35.223 45.547 18.829-.143 3.838-5.463z" fill="none" stroke="#aaa" data-name="Sîndominic" class="comuna" id="85760"/>
    <path d="M275.216 340.58l12.312 9.093 34.859-2.108 22.405 12.55 12.695-.919 8.226 10.72 16.368 2.52 1.772 17.134-11.48 7.1-20.137 7.246-12.747 1.79-12.82-5.68-9.074 3.25-8.904 13.858 4.824 8.107-17.068 5.177-7.5 28.224-.387 14.368 8.194 5.006-32.857-6.042-25.266-36.708-7.427-22.551 5.514-1.19 7.574-12.6-6.373-15.314-12.984-16.465.818-18.195 15.153-1.912 16.058-13.976-.759-8.047 14.324 6.251 4.687 9.313z" fill="none" stroke="#aaa" data-name="Joseni" class="comuna" id="84558"/>
    <path d="M419.634 289.747l.004 10.789-19.291 27.008-.205 20.554-7.446 8.266-3.566 11.45-7.05 4.622-16.367-2.52-8.226-10.72-12.695.918-22.405-12.55-34.859 2.109-12.312-9.093 20.412-3.815 8.181 5.928 12.202 2.55 3.915-6.007 14.269-5.77 12.861-9.593 5.58 1.892 18.461-10.519 8.376-10.18 10.091-2.739 1.893-11.897 24.403 5.29 3.774-5.973z" fill="none" stroke="#aaa" data-name="Lăzarea" class="comuna" id="84594"/>
    <path d="M332.113 282.105l11.034 38.296 3.91 3.472-12.862 9.593-14.269 5.77-3.915 6.007-12.202-2.55-8.181-5.928-20.412 3.815-4.687-9.313-14.324-6.251-1.757-4.835-15.387-9.454-3.352-13.744 4.807-12.597 28.863-9.592 9.673-.907 20.816 6.183 33.15-3.135-.905 5.17z" fill="none" stroke="#aaa" data-name="Remetea" class="comuna" id="85412"/>
    <path d="M507.716 264.28l-6.569 5.816 5.19 9.148 11.284-11.095 6.627 6.077-13.555 12.744 2.98 9.677 8.766 10.078 4.352 11.382-4.48 14.21 4.097 24.548-4.031 7.404-27.858 12.862-13.659-7.986-12.274 21.328-36.647 3.626-7.952-12.514-6.525-.634-28.608 5.277-5.097 4.915.096-1.573-1.772-17.134 7.049-4.622 3.566-11.45 7.446-8.266.205-20.554 19.291-27.008-.004-10.789 13.12-8.21 24.442 10.526 3.693 11.995 7.387.202 14.76 8.428 4.678-8.003-7.215-21.633 9.58-17.346 17.637-1.426z" fill="none" stroke="#aaa" data-name="Gheorgheni" class="municipiu" id="83561"/>
    <path d="M340.31 271.373l-8.197 10.732.905-5.17-33.15 3.135-20.816-6.183-9.673.907-28.863 9.592-8.71-6.228 16.122-14.501 2.775-5.983 12.003 2.215 11.36-7.488 16.422-6.086 16.827-12.4 2.678-5.491 6.2.618 7.237 10.31-1.633 20.284 18.512 11.737z" fill="none" stroke="#aaa" data-name="Subcetate" class="comuna" id="85877"/>
    <path d="M381.404 219.654l15.975 3.34 6.84 4.91 12.437 13.308 6.3 15.597-1.67 12.687 11.467 12.041-13.119 8.21-3.774 5.974-24.403-5.291-1.892 11.897-10.092 2.74-8.376 10.18-18.46 10.518-5.58-1.892-3.91-3.472-11.034-38.296 8.196-10.732 14.815-16.592 8.166 1.059 5.053-16.135-2.479-24.595 15.54 4.543z" fill="none" stroke="#aaa" data-name="Ditrău" class="comuna" id="84344"/>
    <path d="M318.264 192.433l-.288 9.01-11.801 21.76 3.818 5.22-2.678 5.491-16.827 12.4-16.422 6.087-11.36 7.488-12.003-2.216 4.078-12.06 9.054-9.369 17.118-11.397 4.498-10.735 10.776-.361 14.352-7.636.526-11.198 7.159-2.484z" fill="none" stroke="#aaa" data-name="Gălăuțaș" class="comuna" id="84460"/>
    <path d="M350.922 173.359l5.357 26.99 9.585 14.76 2.479 24.596-5.053 16.135-8.166-1.059-14.815 16.592-18.512-11.737 1.633-20.284-7.237-10.31-6.2-.618-3.818-5.222 11.8-21.758.289-9.011 15.228-5.61 2.98-13.257 14.45-.207z" fill="none" stroke="#aaa" data-name="Sărmaș" class="comuna" id="85528"/>
    <path d="M503.294 132.849l11.443 16.705 1.988 14.096 7.122 11.001 7.69-9.302 10.135 11.269 2.354 15.285 10.913 15.713-10.883 2.503-21.127-6.656-1.116 11.014-6.295 6.297-12.409 21.871 7.404 11.91-2.796 9.725-17.637 1.426-9.581 17.346 7.215 21.632-4.679 8.004-14.759-8.428-7.387-.202-3.693-11.995-24.443-10.526-11.468-12.041 1.671-12.687-6.3-15.598-12.437-13.308 12.906-2.858 7.593-12.476 8.595-2.201 4.756-8.648-2.602-11.294 13.198-19.538 15.154-.346 7.482-14.383 1.03-15.485 8.68-14.03 13.132 8.584 9.151-2.38z" fill="none" stroke="#aaa" data-name="Tulgheș" class="comuna" id="86133"/>
    <path d="M503.294 132.849l-9.151 2.38-13.131-8.586-8.681 14.031-1.03 15.485-7.482 14.383-15.154.346-13.198 19.537 2.602 11.295-4.756 8.648-8.595 2.201-7.594 12.476-12.905 2.859-6.84-4.91-15.975-3.34 9.448-11.771 4.513-12.793 13.564-6.595-2.533-16.923 6.536-5.946-9.043-8.897-8.486-27.17 6.704-12.287 25.794-25.53 5.068-13.602 5.774-.606 5.137-3.595 39.283 13.71 8.49 21.48 11.641 9.439v14.28z" fill="none" stroke="#aaa" data-name="Corbu" class="comuna" id="84148"/>
    <path d="M362.052 138.752l9.736 24.791-20.866 9.816-14.45.207-2.98 13.257-15.228 5.61-7.16 2.484-.525 11.198-14.352 7.636-10.776.36-4.498 10.736-17.118 11.397-9.054 9.37-4.078 12.06-2.775 5.983-16.122 14.502-11.674-2.416 11.855-42.22-5.974-13.86 3.875-11.935.588-15.687 10.033-20.18-.505-16.845-12.528-14.936 2.616-15.543-12.562-13.241-8.873-11.512-.427-11.705 8.742-17.857 17.833-4.668 9.597-13.633 13.102-.834 21.568 13.69 7.808 13.017 6.314-5.42 15.174 10.224 5.093 19.926 19.715 27.126 12.623-1.696 16.253 10.798z" fill="none" stroke="#aaa" data-name="Toplița" class="municipiu" id="83632"/>
    <path d="M381.404 219.654l-15.54-4.544-9.585-14.761-5.357-26.99 20.866-9.816-9.736-24.79 22.281 7.373 11.07-16.567 8.486 27.17 9.043 8.897-6.536 5.946 2.533 16.923-13.564 6.595-4.513 12.793-9.448 11.77z" fill="none" stroke="#aaa" data-name="Borsec" class="oras" id="83491"/>
    <path d="M438.743 77.534l-5.774.606-5.068 13.602-25.794 25.53-6.704 12.287-11.07 16.567-22.281-7.374-16.253-10.798-12.623 1.696-19.715-27.126-5.093-19.926-15.174-10.224-6.314 5.42-7.808-13.017-21.568-13.69-13.102.834-5.383-10.042 3.855-18.144 12-7.24 19.449-7.924L314.167 1l.196 10.065 17.197 20.57L352.354 45l17.742 18.57 2.918 14.84 11.176 4.33 12.05-2.85 14.912 5.782 10.654-13.207 16.937 5.07z" fill="none" stroke="#aaa" data-name="Bilbor" class="comuna" id="83936"/>
    <path d="M583.303 761.395l9.046-.432.275 11.816 9.216 8.838-7.826 27.231 2.458 13.51-6.392 9.758-18.84 8.786-.539 6.684-12.726 2.54-.633-.582-9.726-16.701-8.277-8.13-18.706-21.278.97-8.247 33.175-9.631 3.284-6.205 17.298-7.733 7.943-10.224z" fill="none" stroke="#aaa" data-name="Tușnad" class="comuna" id="86188"/>
    <path d="M666.116 719.046l-2.761 16.874-11.702 22.952-7.087.543-10.926 1.139-40.198-9.864-5.255-10.228 5.981-20.093 7.118 2.818 29.607-2.633 6.049-4.745 29.174 3.237z" fill="none" stroke="#aaa" data-name="Sânmartin" class="comuna" id="85788"/>
    <path d="M626.76 837.973l2.136-31.833 3-11.102 9.603-2.564-2.17-20.476 5.237-12.583 7.087-.543 11.702-22.952 2.76-16.874 12.027-2.398 3.4-6.435 13.817 4.789 13.288-4.377.786-9.71 13.958-8.399 24.915 3.039 12.972-4.782 5.901-14.705 19.518-8.324L799 676.078l-4.836 10.332-4.812 27.373-11.532 8.366 6 24.554-3.465 7.579 2.438 17.198-4.987 4.315-17.659 3.464-7.072 21.786-10.864-3.988-5.996 14.177-6.298 4.867-14.813-8.234-11.414 7.837-11.728-2.667-4.212 6.873-14.663-2.983-13.363 7.78-1.373 5.62-8.795 13.054-19.085.826-3.711-6.234z" fill="none" stroke="#aaa" data-name="Plăieșii de Jos" class="comuna" id="85289"/>
    <path d="M633.249 620.4l-14.216-6.9-20.086 16.088-.6 6.39-11.518 10.33 4.93 8.412-10.693-1.845 4.08-6.27-18.58-7.242-32.532-2.838-5.752-12.95 1.596-11.773 13.29-6.774 26.301 10.62 19.605-3.268 8.829 2.722 6.045-5.372 28.785-10.142 4.98 7.711-4.464 13.101z" fill="none" stroke="#aaa" data-name="Păuleni-Ciuc" class="comuna" id="83375"/>
  </g>
</svg>
