<svg xmlns="http://www.w3.org/2000/svg" version="1.2" baseProfile="tiny" stroke-linecap="round" stroke-linejoin="round" viewBox="0 0 800 952">
  <g id="IF" fill="none" stroke="#aaa">
    <path d="M386.166 937.484L343.23 917.52l-5.101-18.225-37.542-4.442 17.01-29.07 20.428-4.175 27.764-.247-2.238 22.802 16.402 16.66 6.213 36.662z" id="179588"/>
    <path d="M524.163 871.985l-23.175 29.65-29.175 20.22-22.74 3.393-13.4 25.287-30.704.054-18.803-13.105-6.213-36.663-16.402-16.66 2.238-22.801-27.764.247 11.399-40.405 5.077-28.25 52.62-10.603 17.301-3.386 37.11 71.148 20.44 14.996 42.191 6.878z" id="105936"/>
    <path d="M223.58 365.362l-6.435 27.412-39.556 27.444 4.508 28.235-25.077 20.829-35.804-12.645-52.632-65.572 56.98-32.142 40.47-29.949 43.893-44.047 9.648 26.166-5.302 36.036 9.307 18.233z" id="100576"/>
    <path d="M182.433 606.003l12.004 45.247-.428.045-33.843 5.82-40.339 31.51L59.06 725.71 43.26 713.29l-1.725-27.858 7.163-21.577 64.173-52.97 13.635-4.465 19.036 7.946 20.56-17.58 16.33 9.217z" id="102570"/>
    <path d="M197.905 535.174l36.408 23.988 5.196 26.538-58.103 4.664 1.027 15.639-16.33-9.216-20.56 17.58-19.036-7.947 14.788-12.934 26.588-28.856-4.299-15.708 34.32-13.748z" id="179249"/>
    <path d="M285.18 363.834l-20.172 32.967 11.867 23.654-17.664 14.316-26.08 23.24-12.385 28.193-7.605-24.873-31.044-12.878-4.508-28.235 39.556-27.444 6.435-27.412 43.604-7.175 17.996 5.647z" id="179463"/>
    <path d="M591.657 753.2l-1.165-12.465-34.898-21.84 11.043-71.384 23.534.41 36.603 58.694-10.726 37.468-24.391 9.117zm79.69-116.403l-34.523 26.442-23.254-26.76 25.972-23.677 25.824-6.352 5.981 30.347zm-104.37 2.555l-11.036 1.817-9.823-12.79-43.664 7.538 8.923-35.244 55.672 14.092-.073 24.587z" id="101742"/>
    <path d="M157.02 469.281l26.256 20.61-19.692 59.031 4.298 15.707-26.587 28.856-44.946-23.618 14.122-33.417-20.448-24.342 31.193-55.471 35.804 12.644z" id="102605"/>
    <path d="M182.097 448.453l31.044 12.878 7.605 24.873-13.497 12.49-9.344 36.48-34.32 13.748 19.691-59.03-26.256-20.61 25.077-20.829z" id="179285"/>
    <path d="M397.87 30.688l-3.557 18.118-11.01.486-1.937 72.627-78.005 28.806-16.305-19.56 4.258-44.256L268.1 70.746l.194-19.316 29.102.587 48.355-43.779 14.032 22.107 38.087.343z" id="101902"/>
    <path d="M296.945 781.908l-5.44 24.066-30.478 47.22-31.81-11.815L220 814.276l21.896-5.316 19.488-33.755 35.56 6.703z" id="102525"/>
    <path d="M640.378 164.667L610.1 154.474l-15.258-42.051-21.412-37.507-30.424-7.129-1.086-18.616 1.79-26.269 19.691-21.379L598.866 1l60.321 64.967 32.768 19.548-14.62 26.9-2.511 31.496-34.446 20.756z" id="104421"/>
    <path d="M148.803 732.31l-34.301-7.693-29.933 32.529-25.51-31.436 60.768-37.085 40.339-31.51 33.843-5.82 10.25 42.253-55.456 38.761z" id="102035"/>
    <path d="M507.228 493.319l-40.394 62.62 6.55 21.894-27.392-1.9-23.873-14.91 36.218-42.603 33.67-24.235 15.221-.866z" id="179310"/>
    <path d="M291.504 805.974l57.92 15.228-11.4 40.405-20.427 4.175-17.01 29.07-39.56-41.659 30.477-47.219z" id="102543"/>
    <path d="M412.672 770.506l-5.55 11.843-52.622 10.603-5.076 28.25-57.92-15.228 5.44-24.066 36.822-52.408 1.474-14.219 32.93 14.077 44.502 41.148z" id="179383"/>
    <path d="M433.866 319.516l8.697 29.675 5.3 10.139-25.158 70.104-15.193-9.445-52.996-7.553 20.204-29.575-9.33-67.421 36.585-15.248 31.891 19.324z" id="105570"/>
    <path d="M717.217 469.789l-35.493 32.676 20.883 15.404 24.315 35.227 72.078.917-12.797 32.693-50.968-.353-2.845 30.743-29.594-.75-31.449 20.452-5.98-30.348-34.19-35.381 7.082-22.675-29.646-23.531 81.038-62.402 27.566 7.328z" id="101298"/>
    <path d="M354.516 412.436l-95.305 22.335 17.663-14.316-11.866-23.654 20.172-32.966 23.827-30.045 56.384-18.35 9.33 67.42-20.205 29.576z" id="179481"/>
    <path d="M390.443 228.529l-3.028 30.66 14.56 41.003-36.584 15.248-56.384 18.35 2.112-31.242-45.253-14.692-21.855-39.296-19-.414 43.854-13.096 79.317-19.886 28.12-18.536 14.141 31.9z" id="100969"/>
    <path d="M309.007 333.79l-23.827 30.044-17.996-5.647-43.604 7.175-9.307-18.233 5.302-36.036-9.648-26.166-4.597-18.813 19.682-17.968 18.999.414 21.855 39.296 45.253 14.692-2.112 31.242z" id="102160"/>
    <path d="M268.294 51.43l-.194 19.316 23.214 16.163-4.258 44.255-12.336 41.37-5.855 62.516-43.853 13.096-19.682 17.968-62.98-39.76 3.626-20.715 29.955-2.345 6.193-29.042 25.274-47.308-21.28 2.459-11.828-67.455 31.496-10.367 11.59 14.523 30.354-17.112 20.564 2.438z" id="104546"/>
    <path d="M611.858 249.6l-10.942 27.517-22.09 19.176 16.423 31.027-8.699 12.295-27.15 7.422-29.088-11.623-17.34 10.117-26.357-12.898-44.053 16.558-8.696-29.675 39.447-34.42 128.745-36.24 9.8.744z" id="102473"/>
    <path d="M717.217 469.789l-27.565-7.327-81.039 62.4-41.272-29.38-22.146 9.423-18.489-25.728 33.911-18.94 23.812-24.577 26.964-9.434 21.003 20.308 43.039-33.833 13.403 17.056 27.01-21.47 33.964 21.778-9.547 32.17-23.048 7.554z" id="103130"/>
    <path d="M512.971 345.53l-20.843 54.953 5.534 21.374-19.751 43.951-55.206-36.374 25.157-70.104-5.3-10.14 44.053-16.557 26.356 12.898z" id="105419"/>
    <path d="M422.705 429.434l55.206 36.374 14.097 28.377-33.67 24.235-89.297-13.304-15.74-37.608 1.215-55.072 52.996 7.553 15.193 9.445z" id="179551"/>
    <path d="M586.55 339.615l1.77 26.423 21.235 26.313 28.887 15.127 13.7-11.933 23.293 17.156-43.04 33.833-21.002-20.308-26.964 9.434-23.812 24.577-33.91 18.94-19.479 14.142-15.22.866-14.097-28.377 19.75-43.951-5.533-21.374 20.843-54.952 17.341-10.117 29.088 11.623 27.15-7.422z" id="100834"/>
    <path d="M495.154 666.283l19.457 23.172-9.77 29.682 32.003 22.975-15.829 18.413 27.499 21.253 30.149 22.671-27.162 34.224-105.755-80.306-21.324 20.596-17.3 3.386 5.55-11.843 22.559-7.536-26.999-54.445 22.946-46.038 25.931 7.672 38.045-3.876z" id="179533"/>
    <path d="M551.5 838.673l-27.337 33.312-42.19-6.878-20.44-14.996-37.11-71.148 21.323-20.596 105.755 80.306z" id="101145"/>
    <path d="M148.803 732.31l38.373 13.732-20.314 50.218-26.603-19.21-27.865 8.447-27.825-28.351 29.933-32.529 34.301 7.692z" id="102213"/>
    <path d="M566.675 191.787l35.384 57.069-128.745 36.24-39.448 34.42-31.891-19.324-14.56-41.004 3.028-30.66 30.02-17.436 18.062 7.146 26.697-13.168 29.685-33.582 29.769 37.084 41.999-16.785z" id="104243"/>
    <path d="M555.941 641.169l10.696 6.342-11.043 71.384 34.898 21.84 1.165 12.465-43.143 28.578-27.499-21.253 15.829-18.413-32.003-22.975 9.77-29.682-19.457-23.172 7.3-30.366 43.664-7.537 9.823 12.789z" id="179347"/>
    <path d="M608.613 524.863l29.646 23.531-7.082 22.675 34.19 35.38-25.825 6.353-25.972 23.677-21.082-10.236-8.948 6.166-16.564 6.943.073-24.587-55.672-14.092-37.993-22.84-6.55-21.893 40.394-62.621 19.478-14.143 18.489 25.729 22.146-9.423 41.272 29.38z" id="179515"/>
    <path d="M494.907 171.488l-29.685 33.582-26.697 13.168-18.062-7.146-30.02 17.437-14.14-31.901-28.121 18.536-79.317 19.886 5.855-62.515 12.336-41.37 16.305 19.56 78.005-28.806 1.937-72.627 11.01-.486 21.45 20.637 36.633-1.553 1.291 21.987 56.418 48.933-15.198 32.678z" id="105160"/>
    <path d="M541.92 49.171l1.086 18.616 30.424 7.129 21.412 37.507 15.258 42.051-21.16-1.416-22.265 38.73-42 16.784-29.768-37.084 15.198-32.678-56.418-48.933-1.29-21.987-36.634 1.553-21.45-20.637 3.557-18.118 12.724-8.613 27.477 16.406 56.854-1.507 37.719 19.508 9.276-7.31z" id="103513"/>
    <path d="M96.349 569.867l44.946 23.619-14.787 12.934-13.636 4.466L48.7 663.855l-7.163 21.577-34.022-2.038L1 668.4l57.229-36.885-27.543-21.17 20.777-22.441-12.387-13.317 14.472-23.684 42.801 18.964z" id="101957"/>
    <path d="M335.24 715.281l-1.474 14.22-36.821 52.407-35.561-6.703-19.488 33.755-21.895 5.316-22.917-14.794-30.222-3.222 20.314-50.218 14.438-16.67 65.627-37.754 67.999 23.663z" id="179409"/>
    <path d="M267.241 691.618l-65.627 37.753-14.438 16.67-38.373-13.732 55.456-38.76-10.25-42.254.428-.045 44.043.574 28.761 39.794z" id="179221"/>
    <path d="M610.1 154.474l30.278 10.193 18.823 12.037 16.407 49.845-23.53 24.782-40.22-1.731-9.8-.744-35.383-57.069 22.264-38.729 21.16 1.416z" id="103443"/>
    <path d="M675.608 226.549l21.328 36.046 27.002-7.125 5.756 24.438-35.777 36.49 11.548 9.813-53.323 69.334-13.7 11.933-28.887-15.127-21.234-26.313-1.77-26.423 8.698-12.295-16.423-31.027 22.09-19.176 10.942-27.517 40.22 1.73 23.53-24.781z" id="104582"/>
  </g>
</svg>
