<svg xmlns="http://www.w3.org/2000/svg" version="1.2" baseProfile="tiny" stroke-linecap="round" stroke-linejoin="round" viewBox="0 0 800 308">
  <g id="IL" fill="none" stroke="#aaa">
    <path d="M777.276 265.259l-6.599 7.259-7.711 14.081-2.637 13.551-72.302-21.845 8.045-20.633-14.368-1.658-13.969-21.171 17.368-8.652 5.243 8.563 8.633-.979 6.04 7.478 13.569 9.809 2.125-20.066 15.3 5.053 3.796 10.625 15.553-1.254 14.42 14.672 7.494 5.167z" id="94492" data-name="Stelnica" class="comuna"/>
    <path d="M655.665 233.245l4.043 6.56 8.027-4.962 13.97 21.171 14.367 1.658-8.045 20.633-4.466 5.986-3.766 14.447-9.125 8.405-6.134-2.423-4.986-10.08-7.349 6.874-10.619-10.387 3.327-2.598-5.044-9.692.72-9.5-6.512-5.185-3.535-7.908.008-24.762 15.321-2.813 9.798 4.576z" id="92701" data-name="Fetești" class="municipiu"/>
    <path d="M771.987 195.916l12.337 7.092 6.893 13.733 1.388 7.492L799 239.13l-2.346 5.383-12.313 8.215-7.065 12.532-7.493-5.167-14.42-14.672-15.554 1.254-3.796-10.625-15.3-5.053-2.125 20.066-13.569-9.809-6.04-7.478-8.633.98-5.243-8.564-17.368 8.652-8.027 4.962-4.043-6.56-11.678-18.878 31.475-20.322 27.562-13.66 16.032 9.769 7.164-.498 13.512 8.171 11.532-1.656 20.723-.255z" id="92989" data-name="Bordușani" class="comuna"/>
    <path d="M390.914 182.144l11.466 3.629-3.663 26.743 3.79.517-1.602 10.605-7.925-4.744-15.207-4.038 3.173-30.883-4.503-1.012 14.47-.817z" id="179793" data-name="Buești" class="comuna"/>
    <path d="M376.443 182.961l4.503 1.012-3.173 30.883-6.264-.912-1.622 11.03-12.033-.527-7.3-.23-.313-14.42-21.63.511-.295-12.344 4.907-.093 12.478-25.285-1.288 10.935 6.306-.179 5.382-11.415 9.89-.54-1.3 6.51 11.752 5.064z" id="92783" data-name="Albești" class="comuna"/>
    <path d="M124.098 169.829l4.6 10.531 7.804 6.016 2.228 8.847-2.938 4.851 3.216 6.128-5.711 4.544-4.469-5.467-10.881-1.27-4.321-4.46-12.585-13.384-12.803-9.126-10.109 1.672 3.348-9.17 4.99-12.886 5.633 2.504 12.21 11.776 5.667-6.206 7.98-3.244 6.14 8.344z" id="102641" data-name="Drăgoești" class="comuna"/>
    <path d="M580.369 225.778l-.162 2.388-19.17.57-1.014-55.993-9.39-1.285-.64-12.793 10.888-4.834-3.22-8.548 6.84-8.768 9.65 16.396 6.945 20.053-.727 52.814z" id="94535" data-name="Sudiți" class="comuna"/>
    <path d="M116.356 143.508l-4.17 8.143 10.425 3.63 3.86 9.051-2.373 5.497-6.141-8.344-7.98 3.244-5.668 6.206L92.1 159.159l-5.633-2.504 6.785-5.316 7.713-15.446 15.391 7.615z" id="179828" data-name="Roșiori" class="comuna"/>
    <path d="M365.005 136.267l13.702 7.148-3.42 8.46 8.332 2.954 10.26 9.652-2.965 17.663-14.471.817-11.752-5.065 1.3-6.508-9.89.54-5.382 11.414-6.306.179 1.288-10.935 2.12-10.314 11.871-27.212 5.313 1.207z" id="92872" data-name="Andrășești" class="comuna"/>
    <path d="M599.33 137.36l1.33 10.763 4.664 8.412 4.323 23.544 3.628 6.474-3.126 24.523-6.617-.072-1.84 18.514-5.813-.181-4.647-3.356-10.863-.203.727-52.814-6.945-20.053-9.65-16.396 9.024-5.464 9.053-.374 11.22-8.062 5.532 14.746z" id="94376" data-name="Săveni" class="comuna"/>
    <path d="M220.953 125.217l3.479 5.052 7.085-1.25 2.225 8.382-1.822 17.382 6.478 1.462-5.638 24.288 7.154 1.466-2.874 11.029 3.545 8.68-13.886 2.58-6.131 7.144-7.61-6.205 3.09-12.582-11.815-4.722-2.377 13.464-13.933-5.603 1.151-13.113-12.349-.345 6.638-31.813 6.05-21.099 12.76 4.49 4.809-6.88 13.97-1.807z" id="100923" data-name="Axintele" class="comuna"/>
    <path d="M623.946 122.777l-5.165 2.494 7.054 10.678 6.666 17.572 3.73 9.487-16.618 11.825-9.966 5.246-4.323-23.544-4.664-8.412-1.33-10.762 6.88-2.84-.299-11.846 11.7 2.683 6.335-2.581z" id="180000" data-name="Platonești" class="comuna"/>
    <path d="M441.224 150.579l3.562 20.96-1.303 19.672-27.253-10.232-13.85 4.794-11.466-3.629 2.966-17.663 3.677-13.728 3.505-.072 8.1-32.472 5.934 7.943 13.839 1.276.959 14.981 10.944 2.083.386 6.087z" id="94161" data-name="Perieți" class="comuna"/>
    <path d="M100.965 135.893l-7.713 15.446-6.785 5.316-4.99 12.887-18.11-6.356-4.536-9.285 3.903-13.94 8.458.677 2.783-7.45 15.434-12.07 1.19-3.747 12.29 14.537-1.924 3.985z" id="104270" data-name="Movilița" class="comuna"/>
    <path d="M166.74 107.98l-3.505 13.576 4.881 1.808 10.542-5.503 1.483 8.693 5.524.695 3.749 2.166-6.051 21.098-6.638 31.813-9.69-8.704 3.146-10.21-8.311-2.58-12.217 33.798-13.861 5.444 2.939-4.851-2.229-8.847-7.804-6.016-4.6-10.531 2.374-5.497 13.938-39.39 9.645-21.74 16.685 4.778z" id="101056" data-name="Bărcănești" class="comuna"/>
    <path d="M515.662 98.69l.018 5.217 12.822-.073.077 8.256-12.933.118.366 22.047 4.998 8.51-10.138.36-9.895 13.906 2.433 5.733-6.154 3.137-6.626-17.453-.068-49.471 25.1-.287z" id="93628" data-name="Gheorghe Lazăr" class="comuna"/>
    <path d="M462.722 102.564l.144 10.58 13.279-.194-1.232 9.829-11.827.101.132 18.79-10.988 8.391-11.006.518-.386-6.087-10.944-2.083-.96-14.98-13.838-1.277-5.934-7.943 7.26-2.386 3.13-16.804 19.403 1.025 12.38-3.491.025 5.955 11.362.056z" id="92836" data-name="Amara" class="oras"/>
    <path d="M538.621 145.666l-10.797 7.447.657 10.067-14.206 1.816-7.991 3.633-2.875-5.865-2.432-5.733 9.895-13.907 10.138-.36-4.998-8.51-.366-22.046 12.933-.118-.077-8.256-12.822.073-.018-5.217-.031-5.245 12.894-.098.247 32.275 12.894-.035.431 10.602-3.476 9.477z" id="93021" data-name="Bucu" class="comuna"/>
    <path d="M330.827 91.05l-3.13 8.723 6.893 4.93 11.685 3.699 3.371 7.09-4.534 13.35-6.044-2.47-8.672 20.085-7.22 4.954-12.12.598-8.266 9.584-1.656.728-2.523-6.066 24.59-68.118 7.626 2.913z" id="93067" data-name="Căzănești" class="oras"/>
    <path d="M392.354 90.023l1.991 9.424 6.09 1.742 8.002-5.823 11.115 3.653-3.13 16.804-7.26 2.386-8.1 32.472-3.505.072-3.678 13.728-10.26-9.652-8.332-2.953 3.42-8.462-13.702-7.147 7.647-20.22 6.244 2.14 3.754-13.861-7.754-2.665 3.248-11.924 5.223-2.656 8.987 2.942z" id="93600" data-name="Gheorghe Doja" class="comuna"/>
    <path d="M45.454 89.23l4.513 1.199 7.738 12.882-3.964 9.482 8.15 14.598.388 6.139-5.9 6.545-10.244 13.471-1.982-8.304-9.317 2.458-3.602-11.957-3.756-.48.157-6.791-5.818-10.406-6.494-4.153 11.884-7.162 4.391-6.58-3.524-4.286 5.036-9.26 12.344 2.606z" id="102749" data-name="Fierbinți-Târg" class="oras"/>
    <path d="M573.525 131.051l-9.024 5.464-6.84 8.768-10.027-1.448-9.013 1.83 3.476-9.476-.43-10.602-12.895.035-.247-32.275.04-5.036 9.087-4 14.561-1.217 5.69 9.559.196 8.653 13.738 4.787-3.932 16.213 5.62 8.745z" id="179819" data-name="Ograda" class="comuna"/>
    <path d="M699.15 97.478l4.385 15.848 9.886 5.891-.51 6.516-7.238 9.42-6.79.9-5.997 16.42-9.295-3.23-8.297 3.27 5.513 8.646-15.231 10.653-2.08-2.983-27.226 16.673-16.657-10.669 16.619-11.825-3.73-9.487 5.245 8.6 7.208-4.358-2.38-10.315-6.806-11.043 3.255-6.897 9.756 2.11 2.446-19.047 7.669 1.245 1.485-6.325-6.414-2.95-7.504-9.564 3.51-2.903-1.894 3.125 7.332 9.19 10.925.531 1.594-5.5 14.338 3.778.973-8.185-4.053-7.334 5.47-3.733 11.993 7.952 2.5 5.58z" id="94795" data-name="Vlădeni" class="comuna"/>
    <path d="M233.031 90.112l-13.87 29.422 1.792 5.683-13.971 1.807-4.81 6.88-12.758-4.49-3.75-2.165 4.89-3.509.015-14.053 7.302-14.96 4.34 2.936 10.25-18.146 20.57 10.595z" id="103862" data-name="Ion Roată" class="comuna"/>
    <path d="M273.68 88.592l-16.88 40.497-10.91 22.042-7.492 5.114-6.478-1.462 1.822-17.381-2.225-8.384-7.085 1.251-3.48-5.052-1.79-5.683 13.87-29.422 6.09-3.194 8.726 4.549 5.49-11.987 20.343 9.112z" id="94456" data-name="Sfântu Gheorghe" class="comuna"/>
    <path d="M309.294 80.462l13.907 7.675-24.59 68.118 2.523 6.066-10.56-3.51 2.703-17.423-11.885-1.785 5.18-12.996 5.703-.787 3.715-12.167-5.07-2.23 7.534-18.963-11.103-4.538 5.39-13.785 16.553 6.325z" id="94107" data-name="Munteni-Buzău" class="comuna"/>
    <path d="M640.293 82.426l9.679 9.648-3.51 2.903 7.504 9.564 6.414 2.95-1.485 6.325-7.67-1.245-2.445 19.047-9.756-2.11-3.255 6.897 6.806 11.043 2.38 10.315-7.208 4.359-5.246-8.6-6.666-17.573-7.054-10.678 5.165-2.494-7.506-9.147-5.631 2.66-4.19-11.642-8.343 6.045-4.768-33.61 22.804-3.352.8 6.567 23.181 2.128z" id="93995" data-name="Mihail Kogălniceanu" class="comuna"/>
    <path d="M215.543 74.107l-3.082 5.41-10.25 18.146-4.34-2.935-7.302 14.96-.016 14.052-4.888 3.509-5.524-.695-1.482-8.693-10.543 5.503-4.88-1.808 3.504-13.576 4.237-.588 12.2-23.122 15.593-20.188 16.773 10.025z" id="100852" data-name="Alexeni" class="comuna"/>
    <path d="M349.198 64.832l15.958 5.295 1.323-3.802 18.417 3.43 10.978 7.396-3.52 12.872-8.987-2.942-5.223 2.656-3.248 11.924 7.754 2.665-3.754 13.861-6.244-2.14-7.647 20.22-5.313-1.207-14.58-6.217 4.534-13.351-3.37-7.09-11.686-3.7-6.892-4.929 3.129-8.723 2.342.896 10.926-28.85 5.103 1.736z" id="94269" data-name="Reviga" class="comuna"/>
    <path d="M62.699 75.207L45.454 89.23 33.11 86.624l-11.304-6.772L39.69 64.338l4.416 1.007 6.159-5.06 12.486.849 8.601 5.091-8.653 8.982z" id="179800" data-name="Maia" class="comuna"/>
    <path d="M198.77 64.082L183.176 84.27l-12.198 23.122-4.238.588-16.685-4.778 5.022-14.026 28.438-30.956 9.348 7.42 5.907-1.558z" id="100736" data-name="Manasia" class="comuna"/>
    <path d="M120.8 85.544l-4.673-1.498-7.903 9.639 3.164-15.352 8.734 4.102 5.995-9.745 18.44-18.129 3.8 3.973-15.217 16.67 6.345 7.886-11.694 8.527-6.99-6.073z" id="180064" data-name="Bărbulești" class="comuna"/>
    <path d="M166.381 45.344l17.134 12.876-28.438 30.956-5.022 14.026-14.417-3.517-10.862 1.686L118 93.388l2.8-7.844 6.991 6.073 11.694-8.528-6.345-7.884 15.216-16.67-3.8-3.974 4.267-9.847 12.613 11.947 4.945-11.317z" id="100683" data-name="Urziceni" class="municipiu"/>
    <path d="M292.74 74.137l-5.39 13.785-11.715 28.824 2.697 9.458-5.315 4.948-1.766 14.883 6.009 2.882.78 9.775-7.8 18.271-14.418-3.179-2.36 9.502L239.913 182l-7.154-1.466 5.638-24.288 7.492-5.114 10.91-22.042 16.88-40.497 19.145-46.126 10.53 5.218-10.615 26.453z" id="92907" data-name="Balaciu" class="comuna"/>
    <path d="M41.273 58.367l2.833 6.978-4.416-1.007-17.884 15.514L1 57.444l10.482-13.566 12.606 5.207.625 6.222 7.73 6.364 8.83-3.304z" id="101243" data-name="Radulești" class="comuna"/>
    <path d="M418.915 59.978L413.017 82.7l-4.58 12.665-8.003 5.823-6.089-1.742-1.991-9.424 3.52-12.872-10.978-7.396 3.33-9.916-9.281-3.329-8.159-6.397 2.918-12.886 20.924.475 24.287 22.276z" id="94045" data-name="Miloșești" class="comuna"/>
    <path d="M589.56 42.117l2.725 24.711 12.408-1.611.8 6.84-11.985 5.025 4.768 33.611 8.343-6.045 4.19 11.642 5.63-2.66 7.507 9.147-6.334 2.581-11.7-2.683.298 11.846-6.88 2.84-5.533-14.746-11.22 8.062-9.052.374-5.62-8.745 3.932-16.213-13.738-4.787-.196-8.653-5.69-9.559 14.747 12.837 5.132-4.764-4.018-5.55-9.369-22.753-16.84-27.317 22.336-.675-.153 3.375 25.111.527.4 3.343z" id="92765" data-name="Țăndărei" class="oras"/>
    <path d="M541.866 35.547l16.84 27.317 9.368 22.754 4.018 5.55-5.132 4.763-14.747-12.837-14.561 1.217-9.086 4-4.745-.002 2.027-13.257-.12-33.422 10.364-.072 5.774-6.01z" id="94688" data-name="Valea Ciorii" class="comuna"/>
    <path d="M84.505 42.522l-7.804 5.781 11.401 8.394 8.083 8.62L79.89 84.8l-4.158 3.665-7.192-3.434-5.842-9.824 8.653-8.981-8.601-5.093-12.486-.848-6.16 5.06-2.832-6.978L66.649 30.53l17.856 11.99z" id="100754" data-name="Adâncata" class="comuna"/>
    <path d="M349.198 64.832l-5.103-1.736-10.926 28.85-2.342-.896-7.626-2.913-13.907-7.675 12.71-33.965-5.483-3.08 8.583-14.249 5.06 4.197 24.106 8.54-5.072 22.927z" id="93209" data-name="Cocora" class="comuna"/>
    <path d="M294.065 39.567l-1.24 2.9-19.144 46.125-20.343-9.112-8.927-4.069 21.057-45.508 3.75-.398 24.847 10.062z" id="93717" data-name="Grindu" class="comuna"/>
    <path d="M525.729 41.63l.12 33.422-2.028 13.257 4.745.002-.041 5.036-12.894.098.03 5.245-25.099.287-.71-21.44-6.675-.023-6.39-6.177 7.08-6.226-7.846-10.34 8.076-11.004 12.202-16.29 18.445 14.015 10.985.139z" id="94429" data-name="Scânteia" class="comuna"/>
    <path d="M265.468 29.904L244.41 75.41l8.927 4.069-5.49 11.987-8.727-4.55-6.09 3.195-20.57-10.595 3.082-5.41 16.99-28.237 5.233 2.95 10.15-18.484 7.111 4.107 4.613-7.918 5.828 3.379z" id="105794" data-name="Valea Măcrișului" class="comuna"/>
    <path d="M165.147 29.918l2.593 4.221-1.359 11.205-4.945 11.317-12.613-11.947.283-6.254-4.865-11.064 5.941-5.878 11.553 7.018 3.412 1.382z" id="100709" data-name="Ciocârlia" class="comuna"/>
    <path d="M259.64 26.525l-4.613 7.918-7.111-4.107-10.15 18.483-5.233-2.95-16.99 28.238-16.773-10.025-5.907 1.558-9.348-7.42-17.134-12.876 1.36-11.205-2.594-4.221 15.265-6.91 2.213 6.295 25.178-4.185 14.945 11.798 8.799-1.631 6.758-10.752 8.573 5.242 5.288-8.82 7.474 5.57z" id="103283" data-name="Gârbovi" class="comuna"/>
    <path d="M644.094 19.002l-.78 12.412-7.044 10.16 5.114 29.93 7.745-1.226 1.183 7.269-10.019 4.88-23.182-2.129-.8-6.567-22.803 3.351 11.984-5.025-.799-6.84-12.408 1.611-2.725-24.71 31.27 1.047.798-6.8 9.318-1.124-8.515-8.675 1.081-4.871 9.602-3.985 10.98 1.292z" id="180046" data-name="Gura Ialomiței" class="comuna"/>
    <path d="M325.104 29.168l-8.583 14.25 5.484 3.079-12.711 33.965-16.554-6.325 10.615-26.453-10.53-5.218 1.24-2.899 14.6-22.563 16.439 12.164z" id="179971" data-name="Colelia" class="comuna"/>
    <path d="M144.24 27.396l4.866 11.064-.283 6.254-4.266 9.847-18.44 18.13-5.995 9.744-8.734-4.102 3.706-4.471-6.46-5.633 7.584-13.082-1.027-20.462 23.578-19.258 5.472 11.97z" id="100870" data-name="Armășești" class="comuna"/>
    <path d="M716.23 93.914l-.555 2.574-16.526.99-2.5-5.58-11.993-7.952-5.469 3.733 4.053 7.334-.973 8.185-14.338-3.778-1.594 5.5-10.925-.53-7.332-9.19 1.894-3.126-9.679-9.648 10.019-4.88-1.183-7.268-7.745 1.225-5.114-29.93 7.044-10.16.78-12.411 5.366-8.664 16.53-1.342-2.031 12.469 5.067 12.55 16.669 1.687 5.352 7.362-3.358 22.779 4.23 10.159 13.877 7.145 10.434 10.767z" id="93646" data-name="Giurgeni" class="comuna"/>
    <path d="M138.77 15.427l-23.58 19.258 1.028 20.462-7.583 13.082-7.632-1.715-12.9-9.817L76.7 48.303l7.804-5.781 6.007-3.655 11.195-15.378-3.731-3.363 25.829-13.605L132.63 1l6.14 14.427z" id="103960" data-name="Jilavele" class="comuna"/>
    <path d="M771.987 195.916l-20.723.255-11.532 1.656-13.512-8.17-7.164.497-16.032-9.768-27.562 13.659-31.475 20.322-9.92-16.137 5.845-3.607-3.642-9.12 27.226-16.674 2.08 2.983 15.23-10.653-5.512-8.646 8.297-3.27 9.295 3.23 5.997-16.42 6.79-.9 7.238-9.42.51-6.516-9.887-5.891-4.385-15.847 16.526-.99.555-2.575 10.7-1.01 15.4 14.891 10.327 7.791 7.42 9.544.942 7.54-2.909 8.33-4.991 9.489 1.68 11.973 8.325 10.38 8.863 23.073z" id="93575" data-name="Făcăeni" class="comuna"/>
    <path d="M290.575 158.81l10.56 3.511 1.655-.728-16.676 38.808-2.32 1.494-20.983 5.563-22.226-5.75-3.545-8.68 2.874-11.03 13.547 1.288 2.36-9.502 14.42 3.18 7.798-18.272 3.19-3.982 9.346 4.1z" id="94330" data-name="Sălcioara" class="comuna"/>
    <path d="M345.112 128.843l14.58 6.217-11.87 27.212-2.12 10.314-12.48 25.285-4.906.093.294 12.344-17.08.413-.26-12.453-13.546.373-13.93 3.254 2.32-1.494 16.676-38.808 8.266-9.584 12.12-.597 7.22-4.955 8.672-20.085 6.044 2.47z" id="93101" data-name="Ciochina" class="comuna"/>
    <path d="M636.27 185.502l3.642 9.12-5.845 3.608 9.92 16.137 11.678 18.878-9.798-4.576-15.321 2.813-.008 24.762-31.63.046 1.736-15.532-4.883-2.716.118-8.705 5.813.181 1.84-18.514 6.617.072 3.126-24.523-3.628-6.474 9.966-5.246 16.657 10.67z" id="94081" data-name="Movila" class="comuna"/>
    <path d="M490.562 98.977l.068 49.47 6.626 17.454 6.154-3.137 2.874 5.865-7.227 2.066-6.206 10.388 1.038 31.649-13.176 1.026-8.403-5.833.011-6.23-.294-14.107-7.541-3.503-9.948 4.807-11.055 2.319 1.303-19.671-3.562-20.961 11.006-.518 10.988-8.391-.132-18.79 11.827-.101 1.232-9.83-13.28.194-.143-10.579 13.296-.099-.198-13.546 7.48-.13-.123-11.275 6.674.024.711 21.439z" id="92658" data-name="Slobozia" class="municipiu resedinta"/>
    <path d="M443.483 191.211l11.055-2.319 9.948-4.807 7.541 3.503.294 14.107-7.919-.384-2.324 19.31-14.579-.105-11.017-1.469 1.001-8.674-9.906-1.235-1.856 10.536-15.45-2.204-7.764-4.437-3.79-.517 3.663-26.743 13.85-4.794 27.253 10.232z" id="93156" data-name="Ciulnița" class="comuna"/>
    <path d="M476.786 71.337l6.391 6.177.124 11.274-7.481.132.198 13.545-13.296.099-11.362-.056-.025-5.955-12.38 3.491-19.403-1.025-11.115-3.653 4.58-12.665 5.898-22.723 4.883-8.48 30.74 16.908 5.703-9.344 16.546 12.275z" id="93735" data-name="Grivița" class="comuna"/>
    <path d="M484.097 43.767l-8.076 11.004 7.845 10.34-7.08 6.226-16.545-12.275-5.703 9.344-30.74-16.909 8.034-14.06 9.357 6.557 11.168-14.783 13.079 4.939 7.362 8.93 4.049-5.451 7.25 6.138z" id="179702" data-name="Traian" class="comuna"/>
    <path d="M557.66 145.283l3.22 8.548-10.887 4.834.64 12.793-1.823 12.052-8.975-.758-2.058 28.708-6.996 2.425-6.86.004 2.776-40.16 1.784-10.55-.657-10.066 10.797-7.447 9.013-1.831 10.026 1.448z" id="179980" data-name="Mărculești" class="comuna"/>
    <path d="M528.48 163.18l-1.783 10.55-2.777 40.16-27.572.15-2.459-1.308-1.038-31.649 6.206-10.388 7.227-2.066 7.99-3.633 14.207-1.816z" id="93236" data-name="Cosâmbești" class="comuna"/>
    <path d="M79.89 84.8l.557 9.332 9.78 6.391 3.184-4.411 3.001 3.37-5.813 17.89-1.19 3.746-15.434 12.07-2.783 7.45-8.458-.677-6.355.114 5.9-6.545-.389-6.139-8.149-14.598 3.964-9.482-7.738-12.882-4.513-1.198L62.7 75.207l5.842 9.824 7.192 3.434 4.158-3.665z" id="102703" data-name="Dridu" class="comuna"/>
    <path d="M290.575 158.81l-9.346-4.1-3.19 3.982-.78-9.775-6.008-2.882 1.766-14.883 5.315-4.948-2.697-9.458 11.716-28.824 11.103 4.538-7.534 18.962 5.07 2.23-3.715 12.168-5.703.787-5.18 12.996 11.885 1.785-2.702 17.422z" id="180019" data-name="Sărățeni" class="comuna"/>
    <path d="M150.055 103.203l-9.645 21.739-13.938 39.39-3.86-9.05-10.427-3.63 4.171-8.143 8.906-28.133 9.522-9.104.854-6.587 14.417 3.517z" id="179784" data-name="Borănești" class="comuna"/>
    <path d="M120.8 85.544l-2.8 7.844 6.776 7.983 10.862-1.686-.854 6.587-9.522 9.104-8.906 28.132-15.391-7.615 1.924-3.985-12.29-14.537 5.813-17.89-3.001-3.37 8.815-6.093 5.998 3.667 7.903-9.639 4.674 1.498z" id="102240" data-name="Coșereni" class="comuna"/>
    <path d="M81.477 169.542l-3.348 9.169-10.09 1.966-4.688 10.818 10.396 3.05-14.721 13.642-5.445.03-12.22-10.25-9.319 7.408-4.624-5.885-8.036-5.92 18.397-23.92-3.984-3.387 12.34-12.717 10.244-13.47 6.355-.115-3.903 13.94 4.536 9.285 18.11 6.356z" id="105026" data-name="Sinești" class="comuna"/>
    <path d="M108.635 68.23l6.459 5.632-3.706 4.47-3.164 15.353-5.998-3.667-8.815 6.094-3.183 4.412-9.781-6.392-.556-9.332 16.294-19.483-8.083-8.62 12.9 9.817 7.633 1.715z" id="179999" data-name="Moldoveni" class="comuna"/>
  </g>
</svg>
