<svg xmlns="http://www.w3.org/2000/svg" version="1.2" baseProfile="tiny" stroke-linecap="round" stroke-linejoin="round" viewBox="0 0 800 308">
  <g id="IL" fill="none" stroke="#aaa">
    <path d="M777.276 265.261l-16.947 34.892-72.302-21.845 8.045-20.633-14.368-1.658-13.969-21.172 17.368-8.652 33.485 24.871L720.713 231l34.65 14.424 21.913 19.838z" id="94492"/>
    <path d="M655.665 233.248l12.07 1.597 13.97 21.172 14.367 1.658-8.045 20.633-17.358 28.837-11.12-12.502-17.967-3.514-.996-21.79-10.048-13.092.008-24.763 25.12 1.764z" id="92701"/>
    <path d="M771.987 195.918l16.826 12.532L799 239.13l-21.724 26.13-21.913-19.838-34.65-14.424-2.125 20.065-33.485-24.87-17.368 8.651-12.07-1.597-11.678-18.878 31.475-20.323 27.562-13.659 36.708 17.442 32.255-1.912z" id="92989"/>
    <path d="M390.914 182.147l11.466 3.628.127 27.261-1.602 10.604-23.132-8.781-1.33-31.895 14.47-.817z" id="179793"/>
    <path d="M376.443 182.964l1.33 31.894-7.886 10.12-19.332-.758-.314-14.42-21.63.51 17.09-37.722 30.742 10.376z" id="92783"/>
    <path d="M124.098 169.832l12.404 16.547-.71 13.698-17.845 3.935-29.71-26.97-10.108 1.671 3.348-9.168 4.99-12.888 17.842 14.28 19.789-1.106z" id="102641"/>
    <path d="M580.369 225.78l-19.332 2.958-1.014-55.993-9.39-1.284 7.027-26.176 6.841-8.767 16.595 36.449-.727 52.814z" id="94535"/>
    <path d="M116.356 143.511l10.116 20.824-2.374 5.496-19.789 1.106-17.842-14.28 14.498-20.761 15.391 7.615z" id="179828"/>
    <path d="M365.005 136.27l13.702 7.147 15.173 21.067-2.966 17.663-14.471.817-30.741-10.376 13.99-37.525 5.313 1.207z" id="92872"/>
    <path d="M599.33 137.363l10.317 42.719.502 30.997-14.27 18.26-15.51-3.558.727-52.814-16.595-36.45 9.024-5.463 20.272-8.437 5.533 14.746z" id="94376"/>
    <path d="M220.953 125.22l10.564 3.801 6.881 27.227 1.516 25.754.67 19.71-27.626 3.518-25.035-9.443-11.198-13.459 12.689-52.91 12.758 4.489 18.78-8.688z" id="100923"/>
    <path d="M623.946 122.78l8.555 30.744 3.73 9.487-16.618 11.825-9.966 5.246-10.317-42.719 6.581-14.686 18.035.102z" id="180000"/>
    <path d="M441.224 150.581l2.26 40.633-27.254-10.232-13.85 4.793-11.466-3.628 2.966-17.663 15.282-46.273 19.773 9.22.959 14.98 11.33 8.17z" id="94161"/>
    <path d="M100.965 135.896l-14.498 20.761-4.99 12.887-18.11-6.356-.633-23.224 27.865-22.59 10.366 18.522z" id="104270"/>
    <path d="M166.74 107.983l18.925 19.268 3.749 2.166-12.689 52.911-14.855-21.494-12.217 33.798-13.861 5.445.71-13.698-12.404-16.547 2.374-5.497 23.584-61.13 16.684 4.778z" id="101056"/>
    <path d="M515.662 98.692l.35 35.565-12.602 28.51-12.78-14.317-.068-49.47 25.1-.288z" id="93628"/>
    <path d="M462.722 102.567l.496 39.105-21.994 8.91-11.33-8.17-.96-14.98-19.772-9.22 10.39-19.19 43.17 3.545z" id="92836"/>
    <path d="M538.621 145.668l-10.14 17.514-22.197 5.45-2.875-5.865 12.603-28.51-.35-35.565 12.863-5.342.247 32.275 12.894-.035-3.045 20.078z" id="93021"/>
    <path d="M330.827 91.053l15.448 17.352-1.163 20.44-14.716 17.615-19.34 5.551-8.266 9.585-1.656.728-2.523-6.067 24.59-68.118 7.626 2.914z" id="93067"/>
    <path d="M392.354 90.026l16.083 5.342 11.115 3.653-10.39 19.19-15.282 46.273-15.173-21.067-13.702-7.147 13.139-46.53 14.21.286z" id="93600"/>
    <path d="M45.454 89.233l12.25 14.08 4.186 24.081-5.51 12.684-10.245 13.47-11.299-5.845-13.02-29.635L33.11 86.627l12.344 2.606z" id="102749"/>
    <path d="M573.525 131.054l-9.024 5.464-6.84 8.767-19.04.383 3.045-20.078-12.894.035-.247-32.275.04-5.037 23.648-5.216 5.886 18.212 13.738 4.786 1.688 24.959z" id="179819"/>
    <path d="M699.15 97.481l14.271 21.739-14.538 16.836-5.997 16.42-56.615 33.029-16.658-10.67 16.619-11.824-3.73-9.487 3.267-17.117 13.011-4.786 5.186-27.078-3.994-12.467 5.438 12.316 26.857-1.191 16.882-5.72z" id="94795"/>
    <path d="M233.031 90.114l-12.078 35.105-18.78 8.688-12.76-4.49-3.748-2.166 4.904-17.561 21.892-30.17 20.57 10.594z" id="103862"/>
    <path d="M273.68 88.594l-27.79 62.54-7.492 5.114-6.881-27.227-10.564-3.802 12.078-35.105 14.817 1.355 5.49-11.986 20.343 9.111z" id="94456"/>
    <path d="M309.294 80.465l13.907 7.674-24.59 68.118 2.523 6.067-10.56-3.51 2.703-17.423-11.885-1.785 17.062-47.143-11.103-4.539 5.39-13.784 16.553 6.325z" id="94107"/>
    <path d="M640.293 82.429l9.679 9.647 3.994 12.467-5.186 27.078-13.01 4.786-3.269 17.117-8.555-30.745-17.327-18.129-8.343 6.046-4.768-33.611 46.785 5.344z" id="93995"/>
    <path d="M215.543 74.11l-3.082 5.41-21.892 30.17-4.904 17.561-18.925-19.268 32.03-43.898 16.773 10.025z" id="100852"/>
    <path d="M349.198 64.834l35.698 4.923 7.458 20.269-14.21-.286-13.139 46.53-5.313-1.208-14.58-6.217 1.163-20.44-15.448-17.352 18.37-26.219z" id="94269"/>
    <path d="M62.699 75.21L45.454 89.232 33.11 86.627l-11.304-6.773 22.3-14.506 18.593 9.861z" id="179800"/>
    <path d="M198.77 64.085l-32.03 43.898-16.685-4.778 5.022-14.026 28.438-30.957 15.255 5.863z" id="100736"/>
    <path d="M120.8 85.547l-12.576 8.14 3.164-15.352 14.729-5.642 18.44-18.13-11.417 20.644-12.34 10.34z" id="180064"/>
    <path d="M166.381 45.346l17.134 12.876-28.438 30.957-5.022 14.026-14.417-3.517L120.8 85.547l12.34-10.34 11.417-20.643 4.266-9.847 17.558.63z" id="100683"/>
    <path d="M292.74 74.14l-5.39 13.784-11.715 28.824-4.384 29.29 6.788 12.657-7.798 18.271-14.42-3.18-15.907 8.215-1.516-25.753 7.492-5.114 27.79-62.54 19.145-46.125 10.53 5.218L292.74 74.14z" id="92907"/>
    <path d="M41.273 58.37l2.833 6.978-22.3 14.506L1 57.447l16.917-13.598 14.526 17.825 8.83-3.305z" id="101243"/>
    <path d="M418.915 59.98l-10.478 35.388-16.083-5.342-7.458-20.269 3.33-9.915-17.44-9.726 2.918-12.887 20.744 1.115 24.467 21.636z" id="94045"/>
    <path d="M589.56 42.12l3.948 34.965 4.768 33.611 8.343-6.046 17.327 18.13-18.035-.103-6.581 14.686-5.533-14.746-20.272 8.437-1.688-24.959-13.738-4.786-5.886-18.212 15.86 2.523-9.368-22.753-16.84-27.317 47.695 6.57z" id="92765"/>
    <path d="M541.866 35.55l16.84 27.317 9.368 22.753-15.86-2.523-23.648 5.216-2.837-46.68 16.137-6.083z" id="94688"/>
    <path d="M84.505 42.524L88.102 56.7l8.083 8.62L79.89 84.802 62.699 75.21l-18.593-9.861-2.833-6.979 25.376-27.835 17.856 11.99z" id="100754"/>
    <path d="M349.198 64.834l-18.371 26.219-7.626-2.914-13.907-7.674 15.81-51.294 29.166 12.736-5.072 22.927z" id="93209"/>
    <path d="M294.065 39.57l-1.24 2.899-19.144 46.125-20.343-9.111-8.927-4.069 21.057-45.508 28.597 9.664z" id="93717"/>
    <path d="M525.729 41.633l2.837 46.68-.041 5.037-12.863 5.343-25.1.287-7.385-21.463-6.39-6.177-.766-16.567 8.076-11.003L496.3 27.48l18.445 14.015 10.985.138z" id="94429"/>
    <path d="M265.468 29.906L244.41 75.414l8.927 4.069-5.49 11.986-14.817-1.355-20.57-10.594 3.082-5.41 16.99-28.237 27.107-19.345 5.828 3.378z" id="105794"/>
    <path d="M165.147 29.92l1.234 15.426-17.558-.629-4.582-17.318 20.906 2.521z" id="100709"/>
    <path d="M259.64 26.528l-27.107 19.345-16.99 28.237-16.773-10.025-15.255-5.863-17.134-12.876-1.234-15.426 42.656-4.8 14.945 11.799 15.557-12.384 21.335 1.993z" id="103283"/>
    <path d="M644.094 19.005l-7.824 22.571 4.023 40.853-46.785-5.344-3.948-34.965 31.27 1.048 2.682-21.47 20.582-2.694z" id="180046"/>
    <path d="M325.104 29.17l-15.81 51.294-16.554-6.324 10.615-26.453-10.53-5.218 1.24-2.9 14.592-22.557 16.447 12.159z" id="179971"/>
    <path d="M144.24 27.399l4.583 17.318-4.266 9.847-18.44 18.129-14.729 5.642-2.753-10.103 7.582-13.082-1.026-20.462 23.578-19.259 5.472 11.97z" id="100870"/>
    <path d="M716.23 93.917l-17.08 3.564-16.883 5.72-26.857 1.191-5.438-12.316-9.679-9.647-4.023-40.853 7.824-22.572L665.989 9l3.037 25.018 22.096 8.788-3.433 23.04 4.23 10.16 24.31 17.912z" id="93646"/>
    <path d="M138.77 15.43l-23.58 19.258 1.028 20.462-7.583 13.082-20.533-11.533-3.597-14.175 13.47-22.395L132.629 1l6.141 14.43z" id="103960"/>
    <path d="M771.987 195.918l-32.255 1.912-36.708-17.442-27.562 13.66-31.475 20.322-9.92-16.138 2.203-12.727 56.616-33.03 5.997-16.42 14.538-16.835-14.272-21.739 17.08-3.564 14.908 4.952 28.94 26.264-6.958 25.358 18.868 45.427z" id="93575"/>
    <path d="M290.575 158.813l10.56 3.51 1.655-.727-18.997 40.302-20.982 5.563-22.226-5.75-.67-19.71 15.907-8.214 14.419 3.179 7.798-18.271 12.536.118z" id="94330"/>
    <path d="M345.112 128.845l14.58 6.218-13.99 37.525-17.092 37.723-17.08.413-.26-12.453-27.477 3.627 18.997-40.302 8.266-9.585 19.34-5.551 14.716-17.615z" id="93101"/>
    <path d="M636.27 185.505l-2.203 12.727 9.92 16.138 11.678 18.878-25.119-1.764-.008 24.763-31.63.046-3.029-26.954 14.27-18.26-.502-30.997 9.966-5.246 16.657 10.669z" id="94081"/>
    <path d="M490.562 98.98l.068 49.47 12.78 14.317 2.874 5.864-13.433 12.455 1.038 31.648-13.176 1.027-8.392-12.064-7.835-17.609-21.003 7.126-2.26-40.633 21.995-8.909-.496-39.105 13.296-.1 7.16-24.95 7.384 21.463z" id="92658"/>
    <path d="M443.483 191.214l21.003-7.126 7.835 17.61-10.243 18.925-36.357-.946-23.214-6.641-.127-27.26 13.85-4.794 27.253 10.232z" id="93156"/>
    <path d="M476.786 71.34l6.391 6.177-7.159 24.95-13.296.1-43.17-3.546-11.115-3.653 10.478-35.388 4.883-8.48 30.74 16.909 5.703-9.345 16.546 12.276z" id="93735"/>
    <path d="M484.097 43.77l-8.076 11.003.765 16.567-16.545-12.276-5.703 9.345-30.74-16.91 17.39-7.503L454.46 26.48l18.339 16.604 11.3.687z" id="179702"/>
    <path d="M557.66 145.285l-7.027 26.176-10.798 11.294-2.058 28.708-13.857 2.43 4.56-50.71 10.141-17.515 19.04-.383z" id="179980"/>
    <path d="M528.48 163.182l-4.56 50.71-30.03-1.158-1.04-31.648 13.434-12.455 22.197-5.449z" id="93236"/>
    <path d="M79.89 84.802l13.52 11.312-2.81 21.26-27.866 22.59-6.355.114 5.511-12.684-4.185-24.08-12.25-14.08 17.244-14.025 17.192 9.593z" id="102703"/>
    <path d="M290.575 158.813l-12.536-.118-6.788-12.657 4.385-29.29 11.714-28.824 11.104 4.54-17.062 47.142 11.885 1.785-2.702 17.422z" id="180019"/>
    <path d="M150.055 103.205l-23.583 61.13-10.116-20.824 8.906-28.132 10.376-15.691 14.417 3.517z" id="179784"/>
    <path d="M120.8 85.547l14.838 14.14-10.376 15.692-8.906 28.132-15.391-7.615-10.366-18.522 2.812-21.26 14.813-2.427 12.576-8.14z" id="102240"/>
    <path d="M81.477 169.544l-3.348 9.17-4.382 15.833-14.721 13.643-17.664-10.22-9.32 7.407-10.757-13.555 24.85-38.273 10.244-13.471 6.355-.114.633 23.224 18.11 6.357z" id="105026"/>
    <path d="M108.635 68.232l2.753 10.103-3.164 15.352-14.813 2.427-13.52-11.312L96.185 65.32l-8.083-8.62 20.533 11.533z" id="179999"/>
  </g>
</svg>
