<svg xmlns="http://www.w3.org/2000/svg" version="1.2" baseProfile="tiny" stroke-linecap="round" stroke-linejoin="round" viewBox="0 0 800 548">
  <g id="IS" fill="none" stroke="#aaa">
    <path d="M746.29 458.946l8.426 8.704-.77 6.322-7.799-2.478-13.122 12.562-15.416 8.819-13.18-24.104-8.847-10.833 24.427-8.016 4.118 9.46 8.766 4.814 13.397-5.25z" id="98202" data-name="Moșna" class="comuna"/>
    <path d="M465.621 451.902l7.706 7.47 6.266-.107 6.737 21.341-2.672 5.044-14.099 4.752 6.222 22.218-16.151 2.678-1.713-3.792-9.51-5.354-2.234-12.133.512-17.691-11.056-23.503 1.854-11.817 7.08-3.963 1.503 15.582 10.28 1.79 9.275-2.515z" id="97553" data-name="Ipatele" class="comuna"/>
    <path d="M463.296 315.926l6.822 21.333-.788 7.24-11.864-2.228-11.409-5.659-11.262 17.468-3.433 27.146-10.945 2.365-7.516-2.963-6.432-4.845 6.842-16.8 7.352-.9-4.727-19.769 2.415-17.713 6.564 2.277 17.61-6.105 16.1 2.736 4.671-3.583z" id="97517" data-name="Horlești" class="comuna"/>
    <path d="M606.335 241.768l21.104 27.227.657 9.233 5.318 5.379-9.587 6.042-16.445.498-21.337-5.847-7.767-8.92-4.04-20.813 5.524 2.832 22.1-16.045 4.473.414z" id="96003" data-name="Ungheni" class="comuna"/>
    <path d="M440.363 240.65l6.74 14.2 12.78.23 6.53 32.894-6.745-.03-5.087 12.777 5.693 3.33 3.022 11.875-4.672 3.583-16.1-2.736-17.61 6.105-6.563-2.277 5.023-3.613-1.833-16.934 8.118-3.473 4.54-29.677-6.03-25.694 12.194-.56z" id="97679" data-name="Lețcani" class="comuna"/>
    <path d="M67.022 235.855l3.98 13.582 11.49 24.113-.141 7.928-10.65.907-3.26 6.63 2.857 9.533-10.068 1.412-5.034-12.652-8.556-8.55-6.073-5.144 10.401-24.876 15.054-12.883z" id="98220" data-name="Moțca" class="comuna"/>
    <path d="M544.542 233.693l12.924-.863.774 7.018 11.329 9.282-1.048 8.38-5.976 6.823-10.92 3.137-9.691 9.196-7.215 1.425-13.167-10.997-5.16-8.203 13.116-6.349-4.676-18.966 19.71.117z" id="95747" data-name="Aroneanu" class="comuna"/>
    <path d="M424.734 162.009l1.566 10.267 22.937 14.746 8.646 7.725 7.325-.698-1.366 10.347 8.55 19.377-17.211-.623-11.841 4.532-12.23-12.43-10.465 2.42-13.396-5.379-1.402-9.334-6.213-.625-7.814-14.156-6.75 3.314 3.544-10.835 14.928-14.559 7.12-.954 5.147-7.94 8.925 4.805z" id="98257" data-name="Movileni" class="comuna"/>
    <path d="M271.266 156.632l-40.228 5.182-15.157-4.316-10.686 8.059-37.651-13.082-.801-5.127 7.613-.856 19.614 5.174 14.902.406 22.177-9.352 36.221-8.408 5.324-5.352 8.998 12.585-3.36 9.333-6.966 5.754z" id="96147" data-name="Ceplenița" class="comuna"/>
    <path d="M398.065 14.11l14.959 27.985 6.376 19.098 5.319 5.915-2.18 14.054-5.819-4.644-18.387 13.814-4.429-6.472-12.926-7.099-13.184 6.303-5.704-10.697-6.539 2.243-6.7-17.129 16.88-11.817-6.351-9.34 2.007-15.789 5.639-4.77 8.543 1.725 6.577.843 7.904-7.481 7.671 2.691.344.568z" id="95667" data-name="Andrieșeni" class="comuna"/>
    <path d="M524.832 233.576l4.676 18.966-13.116 6.35 5.16 8.202-6.164 4.467-8.184-15.977-9.272 1.158-7.559-12.832-9.65-.194 2.657-9.058-10.988-10.885-8.55-19.376 1.366-10.348 14.448-1.426 12.762 1.89 6.776-6.353 10.382 3.842 3.127-13.69 6.321 5.415-1.465 12.242-7.374 9.775.75 21.876 13.897 5.956z" id="98505" data-name="Popricani" class="comuna"/>
    <path d="M497.932 256.742l6.454 29.53-1.258 4.762-4.991-9.221-8.877-2.77-3.589-10.183-14.072-9.13-11.715-4.65-12.78-.23-6.741-14.2-1.953-8.981 4.93-3.987 11.84-4.531 17.212.622 10.988 10.885-2.658 9.058 9.651.194 7.559 12.832z" id="95239" data-name="Rediu" class="comuna"/>
    <path d="M503.128 291.034l-4.104 3.313-15.398-3.02-5.2-8.352-6.827-23.245 14.072 9.13 3.589 10.182 8.877 2.77 4.99 9.222z" id="100353" data-name="Valea Lupului" class="comuna"/>
    <path d="M194.28 357.361l.215 3.922-.453 8.056 6.273 10.012-9.366 4.978-21.19 10.865-9.97-14.973 19.465-12.811 5.156-6.516 9.87-3.533z" id="97811" data-name="Mircești" class="comuna"/>
    <path d="M413.31 358.983l-6.841 16.8 6.432 4.845 1.297 9.148-8.64 14.34-5.995-.129-24.598 9.106-7.078.118 11.148-20.522-17.992-12.624 4.729-20.107 10.818-1.936 14.475 2.713 4.507-7.4 17.739 5.648z" id="97777" data-name="Mădîrjac" class="comuna"/>
    <path d="M241.698 342.79l6.185 7.87 4.243 12.505-7.53 11.488-14.383 6.907.494 10.823-8.19 1.603-6.22 1.173-9.628-27.754-4.94-2.465 8.618-8.447 3.214-10.11 11.571-1.235 9.716 4.103 6.85-6.461z" id="96110" data-name="Butea" class="comuna"/>
    <path d="M118.125 316.041l2.68 10.105-20.835 15.498-12.996 6.692 3.18-15.543-3.94-5.652 9.291-8.546 22.62-2.554z" id="100362" data-name="Ciohorăni" class="comuna"/>
    <path d="M158.15 286.56l5.435.114 10.189 10.491 7.063 19.597 7.97-1.095.312 11.512 8.49 1.465 13.429-2.413-1.79 10.96 4.313 9.193-3.214 10.109-8.618 8.447-7.234-3.657-.216-3.922-5.072-11.077-22.44-10.261-5.528-6.055 7.147-6.344-7.421-7.781-10.553 5.63 2.308-13.606 1.283-14.53 4.146-6.776z" id="95612" data-name="Alexandru I. Cuza" class="comuna"/>
    <path d="M84.886 282.745l10.022 17.199 4.03 11.477 10.096-2.367 9.09 6.988-22.619 2.553-9.291 8.546 3.94 5.652-3.18 15.543 12.996-6.692-4.4 6.03-22.147 14.63-10.767-11.905.893-13.79-2.526-10.066-5.315-20.082 5.522-6.5 10.068-1.413-2.858-9.534 3.262-6.63 10.649-.906 2.535 1.267z" id="98051" data-name="Miroslovești" class="comuna"/>
    <path d="M340.022 267.986l5.333.537 5.36 15.234 2.706 18.54-6.513 5.65 9.313 24.995-.945 7.202 10.496 19.814-4.73 20.107 17.993 12.624-11.148 20.522-.912-.777-9.996-3.494-6.52-7.275-9.693-1.55-4.847-7.322 2.632-14.565-13.324-14.678-.327-.392-6.2-26.707 6.332-15.03 11.834-5.134-4.758-22.902 17.558-4.624-5.505-17.19-4.924-3.847.785.262z" id="99058" data-name="Sinești" class="comuna"/>
    <path d="M238.986 251.978l-8.039 16.706-4.744-2.94 7.053-18.703 5.73 4.937zm24.343-12.683l9.395 9.077 9.6-2.012 7.659 4.65 5.481 8.996.187 13.786-1.42 6.381-19.878 8.831-4.55 6.267 5.679 15.762-1.613 22.316-6.258-5.788-11.665-.485-15.137-4.487-3.837-18.154 5.312-18.217 4.484.642 19.426-11.317-9.544-13.773 5.815-2.141-9.09-21.843 6.502-4.847 3.452 6.356z" id="95499" data-name="Ion Neculce" class="comuna"/>
    <path d="M152.63 200.879l8.488 12.822 10.939 15.233-14.136 4.333-5.007 7.531-.373 17.079-4.788 4.653-.342-6.714-9.615-10.598 4.117-9.377-7.669-13.566-3.07-12.256 11.16-1.118 10.296-8.022z" id="100326" data-name="Hărmănești" class="comuna"/>
    <path d="M199.447 197.81l9.53 6.403-14.195 12.17-8.167-10.176-8.287 6.793-2.741-9.863-9.75 10.488-4.719.076-8.488-12.822-.07-24.69-4.082-11.906-9.859-.275-1.364-12.168 5.013-3.975 9.238 3.992 1.696 6.017 23.562 23.25 11.41 4.184 11.273 12.501z" id="99539" data-name="Todirești" class="comuna"/>
    <path d="M349.837 151.513l-1.948 9.933 12.46 8.408 7.535 9.631-.227 16.95-4.922 7.948-24.538 7.07-12.9-10.6-18.95-32.551 19.562-22.534 15.909 9.93 8.019-4.185z" id="97063" data-name="Focuri" class="comuna"/>
    <path d="M142.268 147.865l-5.013 3.975 1.364 12.168 9.859.275 4.082 11.907.07 24.689-10.295 8.022-11.16 1.118 3.069 12.256-20.292-10.399-7.428-5.766-2.445-20.151 10.995 2.34 8.923-5.456-7.183-20.62 10.214-6.263 11.01-12.314 4.23 4.219z" id="100086" data-name="Vînători" class="comuna"/>
    <path d="M166.743 147.348l.8 5.127 37.652 13.082 10.686-8.06 15.157 4.317 40.228-5.182 3.847 6.305-3.928 7.422 6.989 6.744-15.023 23.02-5.498-1.262-10.347 7.976-13.793 1.105-7.561-7.138-12.03.503-14.475-3.498-11.273-12.501-11.41-4.183-23.563-23.25-1.695-6.018-9.238-3.992-4.23-4.22 3.272-4.09 21.077 4.83 4.356 2.963z" id="96478" data-name="Cotnari" class="comuna"/>
    <path d="M353.457 126.675l-7.248 15.854 3.628 8.984-8.02 4.186-15.908-9.931-5.047-15.72-12.521-8.293-3.827-13.877 18.255 4.982 15.95-4.464 6.692 9.053 7.917-.048.129 9.274z" id="100317" data-name="Fântânele" class="comuna"/>
    <path d="M519.568 121.334l-28.83 2.563-11.615-10.45-13.595 9.945-4.36-4.474 12.303-6.804-2.765-11.21-14.461-6.895-5.826-11.25 18.327-12.698 9.408.838 2.019 6.536 8.182 1.683 13.457-7.964 8.533 15.093 7.652 1.838-7.641 26.128 9.212 7.121z" id="99600" data-name="Trifești" class="comuna"/>
    <path d="M450.419 82.759l5.826 11.25 14.46 6.895 2.766 11.21-12.302 6.804-9.073 8.419-10.356-6.767 3.481-5.936-20.969-14.158-1.713-19.314 2.18-14.054 5.163 9.293 8.392-2.527 12.145 8.885z" id="100344" data-name="Roșcani" class="comuna"/>
    <path d="M468.745 70.06L450.42 82.76l-12.145-8.885-8.392 2.527-5.163-9.293-5.32-5.915-6.375-19.098-14.96-27.984 8.502-2.28L427.884 1l12.496 12.453 8 19.583 6.043 5.304 5.427 19.608 8.895 12.113z" id="95943" data-name="Bivolari" class="comuna"/>
    <path d="M772.474 512.815l-10.426-19.37 3.986-4.342-10.658-9.68-1.43-5.452.77-6.321-8.426-8.704 11.8-11.542 11.553-3.954-4.183-9.332 10.565-9.63-2.511-7.182 8.686 3.903-7.889 11.656 10.14 9.908.882 15.462 6.797 3.079-4.684 9.3.51 9.442 8.064 11.648-9.06 6.986 12.04 8.503-3.548 13.985-11.149-6.936-11.829-1.427z" id="97189" data-name="Gorban" class="comuna"/>
    <path d="M161.239 329.968l-14.05 2.145-6.415 7.586-15.376 9.733 3.324 9.083-12.102 8.045-8.605-4.777-12.444-14.109 4.4-6.03 20.835-15.498 4.594-.19 14.539-11.261 12.781-6.828-2.308 13.605 10.553-5.629 7.42 7.78-7.146 6.345z" id="98168" data-name="Mogoșești-Siret" class="comuna"/>
    <path d="M773.514 417.306l2.511 7.182-10.565 9.63-4.849 1.102-15.259-26.342-26.688-10.203 9.44-14.505 14.103 7.271 6.261-5.18 10.808 20 14.238 11.045z" id="97394" data-name="Grozești" class="comuna"/>
    <path d="M161.239 329.968l5.528 6.055 22.44 10.26 5.072 11.078-9.869 3.533-5.156 6.516-19.465 12.811-9.163-7.565L132.94 357.2l-4.218 1.315-3.324-9.083 15.376-9.733 6.415-7.586 14.05-2.145z" id="97438" data-name="Hălăucești" class="comuna"/>
    <path d="M509.383 476.074l-2.159 17.615 4.647 6.079-8.242 5.145-11.267-.746-16.581 8.453-6.222-22.218 14.099-4.752 9.155-6.566 16.57-3.01z" id="100308" data-name="Drăgușeni" class="comuna"/>
    <path d="M753.946 473.971l1.43 5.451 10.658 9.681-3.986 4.343 10.426 19.37-6.52.304-9.376 7.224-9.48 5.444-12.141-2.837-5.69-13.428-11.322.956-.336-17.604 15.416-8.819 13.122-12.562 7.799 2.477z" id="96593" data-name="Cozmești" class="comuna"/>
    <path d="M533.67 410.151l9.295 11.075 7.813 2.98-4.257 11.653-15.13 2.66-5.809 7.844.052 10.006-11.235 3.039-14.019-21.264-1.19-13.653.939-9.636 16.331-5.65 17.21.946z" id="97241" data-name="Grajduri" class="comuna"/>
    <path d="M718.663 398.675l26.69 10.203 15.258 26.342 4.85-1.102 4.182 9.332-11.553 3.954-11.8 11.542-13.397 5.25-8.766-4.814-4.118-9.46-24.427 8.016-8.512-10.061-8.058 2.368-3.312-8.653 32.24-36.922 8.524-4.505 2.2-1.49z" id="98685" data-name="Răducăneni" class="comuna"/>
    <path d="M459.23 408.424l8.91.804 8.844 8.945 3.13 15.568 4.656.458-5.664 2.396.537 10.9-14.022 4.407-9.276 2.515-10.279-1.79-1.503-15.582-15.857-21.955-3.076-14.31 33.6 7.644z" id="97875" data-name="Mironeasa" class="comuna"/>
    <path d="M716.464 400.165l-8.525 4.505-32.239 36.922-12.926-10.054-4.941-6.716-12.449 6.339-1.59-28.894-5.32-12.11 7.465-6.432 12.449-11.939 7.716 11.706 12.065-.187 6.15 6.359 6.484-3.427 5.756 6.367 13.655.27 6.25 7.29z" id="96423" data-name="Costuleni" class="comuna"/>
    <path d="M504.277 366.61l9.575 8.008 2.608 34.587-16.331 5.65-.939 9.636-14.42 9.708-4.656-.458-3.13-15.568-8.844-8.945-8.91-.804 8.756-5.967-6.037-16.79 10.43-9.15.402-12.16 16.372-5.869 15.124 8.121z" id="98113" data-name="Mogoșești" class="comuna"/>
    <path d="M644.834 334.71l.675 13.647 13.681 14.702-.802 8.727-12.45 11.939-6.3-1.334-9.621 6.113-21.476-16.922 1.162-11.137 7.286-27.382 9.196 3.89 7.98-6.265 10.669 4.022z" id="96370" data-name="Comarna" class="comuna"/>
    <path d="M568.027 331.486l10.048 15.154-13.95 8.629 7.327 11.557-5.143 17.8-3.365 3.518-13.225-.189-8.355-6.844-10.304-18.715.944-28.68 4.527-7.917 7.784 3.801 1.89 11.228 7.679 1.9 9.54 11.145 7.347-15.758-2.744-6.63z" id="95088" data-name="Bîrnova" class="comuna"/>
    <path d="M605.023 321.622l11.709 4.66.257 6.781-7.286 27.382-7.725-11.228-12.049 3.997-11.854-6.574-10.048-15.154-5.619-5.71-1.322-10.683 12.336 2.517 9.362-3.456 10.958-.428 11.281 7.896z" id="95293" data-name="Tomești" class="comuna"/>
    <path d="M633.414 283.607l-.41 8.458 6.514 4.372-6.923 9.83 23.03 13.618-7.54 5.659-3.251 9.166-10.67-4.022-7.98 6.264-9.195-3.889-.257-6.782-11.709-4.66-2.237-14.87 4.596-16.604 16.445-.498 9.587-6.042z" id="99922" data-name="Țuțora" class="comuna"/>
    <path d="M404.848 251.65l-1.305 13.298-15.528 28.914-16.204-.404-2.426-11.48-13.992 4.446-4.677-2.667-5.361-15.234-5.333-.537 4.027-.693 1.24-17.426 26.777 12.097 12.822-3.897 6.703-5.837 4.48-10.706-2.231 9.566 11.008.56z" id="98373" data-name="Podu Iloaiei" class="oras"/>
    <path d="M428.17 241.21l6.028 25.694-4.539 29.677-8.118 3.473 1.833 16.934-5.023 3.613-2.415 17.713 4.727 19.769-7.352.9-17.739-5.649 6.455-10.632 1.632-10.309-6.258-12.423-9.386-26.108 15.528-28.914 1.305-13.297.305-7.833 20.355 6.09 2.662-8.698z" id="96940" data-name="Dumești" class="comuna"/>
    <path d="M75.591 200.673l30.46 11.693-.145 14.664-16.744 17.455-13.978 6.344-4.181-1.392-3.981-13.582-3.977-24.767 12.546-10.415z" id="99968" data-name="Valea Seacă" class="comuna"/>
    <path d="M63.045 211.088l3.977 24.767-15.054 12.883-10.401 24.876-3.906-10.584-20.965-17.29-7.87-9.159 19.183-21.496 10.398 3.098-3.328-12.841-.578-6.39 18.626-1.68 9.918 13.816z" id="96637" data-name="Cristești" class="comuna"/>
    <path d="M606.335 241.768l-4.474-.414-22.1 16.045-5.523-2.832-4.67-5.437-11.328-9.282-.774-7.018-12.924.863 6.211-6.137 16.14-28.605 12.424 8.095 7.574-6.03 8.966 2.918 5.621 7.296 3.519 14.117 6.487 3.862-5.149 12.56z" id="97090" data-name="Golăiești" class="comuna"/>
    <path d="M443.34 227.682l-4.93 3.987 1.952 8.982-12.192.56-2.662 8.697-20.355-6.09-.305 7.832-11.008-.56 2.232-9.566-.767-14.877-8.819-3.937-3.803-15.542.916-13.935 1.47-1.742 6.751-3.313 7.814 14.156 6.213.625 1.402 9.334 13.396 5.379 10.464-2.42 12.23 12.43z" id="98738" data-name="Românești" class="comuna"/>
    <path d="M383.6 193.233l-.917 13.935 3.803 15.542 8.819 3.937.767 14.877-4.481 10.706-6.703 5.837-12.822 3.897-26.777-12.097-6.268-13.189-8.16 6.185.61-9.68-17.35-15.025 11.175-17.305 12.9 10.6 24.54-7.07 4.921-7.948 15.942-3.202z" id="97009" data-name="Erbiceni" class="comuna"/>
    <path d="M282.115 93.82l2.417 27.013 5.94.84-6.527 6.187-11.351 1.1-5.324 5.352-36.22 8.408-22.178 9.352-14.902-.406-19.614-5.174-7.613.856-4.356-2.963-21.077-4.83 2.234-3.826 19.977 1.428 24.626-15.26 19.426 7.8 30.359-7.528 25.284-9.338 10.527-17.03 8.372-1.982z" id="98998" data-name="Scobinți" class="comuna"/>
    <path d="M140.885 129.486l2.66 6.243-2.235 3.825-3.272 4.092-11.01 12.314-10.214 6.262-8.97 2.968-10.592-14.341.309-7.55 4.042-7.927-8.508-16.925-3.936-14.833 9.536-10.59 12.59-1.092 6.285 6.223 9.038 21.72 14.277 9.611z" id="99101" data-name="Sirețel" class="comuna"/>
    <path d="M422.54 81.162l1.712 19.314 20.969 14.158-3.481 5.936-10.23 6.348 4.04 18.086-5.971 8.853-4.845 8.152-8.925-4.806-3.715-19.325-22.913-5.414L379.31 119l3.272-4.294-6.398-19.436-8.39-12.206 13.184-6.302 12.926 7.1 4.429 6.471 18.387-13.814 5.82 4.644z" id="100148" data-name="Vlădeni" class="comuna"/>
    <path d="M514.864 162.408l-2.16 15.905-3.128 13.689-10.382-3.842-6.776 6.353-12.762-1.89-14.448 1.426-7.325.698-8.646-7.725-22.937-14.746-1.566-10.267 4.845-8.152 9.495-7.772 11.834-3.196 10.456 13.56-4.291 10.328 12.084 2.226 9.03-5.694 9.99 5.167 17.456-8.276 9.23 2.208z" id="99879" data-name="Țigănăși" class="comuna"/>
    <path d="M388.015 293.862l9.386 26.108 6.258 12.423-1.632 10.309-6.455 10.632-4.507 7.4-14.475-2.712-10.818 1.936-10.496-19.814.945-7.202-9.313-24.995 6.513-5.65-2.705-18.54 4.677 2.667 13.992-4.446 2.426 11.48 16.204.404z" id="98435" data-name="Popești" class="comuna"/>
    <path d="M226.955 277.595l15.33 8.623-5.313 18.217 3.837 18.154 15.137 4.487 3.006 4.575-7.877 9.262-9.377 1.877-6.85 6.46-9.716-4.102-11.57 1.236-4.315-9.193 1.79-10.96-13.428 2.413-8.49-1.466-.312-11.51 7.447-7.103-5.803-16.401 10.883-3.8 8.993-8.157 1.9-5.656 14.728 3.044z" id="99209" data-name="Strunga" class="comuna"/>
    <path d="M141.537 277.64l5.86.64 10.752 8.28-4.146 6.776-1.283 14.531-12.781 6.828-14.54 11.26-4.593.191-2.681-10.105-9.091-6.987-10.096 2.367-4.03-11.477-10.022-17.199 13-5.696 22.225-5.876 20.91-2.265.516 8.732z" id="99165" data-name="Stolniceni-Prăjescu" class="comuna"/>
    <path d="M339.237 267.724l4.924 3.847 5.505 17.19-17.558 4.624 4.758 22.902-11.834 5.133-6.332 15.031 6.2 26.707-4.287.714-24.117-6.54 8.862-8.541 2.788-13.457-13.451 3.384 5.871-12.55 7.788-8.43-4.936-20.325 1.969-4.863-4.042-13.918-7.114 1.541 1.42-6.38 12.665-1.305 8.19 4.238 22.73-9.002z" id="97722" data-name="Lungani" class="comuna"/>
    <path d="M330.862 242.863l8.159-6.185 6.268 13.19-1.24 17.425-4.027.693-.785-.262-22.73 9.002-8.19-4.238-12.666 1.304-.187-13.786-5.481-8.996-7.659-4.65-9.6 2.012-9.395-9.077 17.103-6.324 4.938 9.052 21.548 6.189 11.544-10.283 12.4 4.934z" id="95792" data-name="Bălțați" class="comuna"/>
    <path d="M134.244 222.275l7.67 13.566-4.118 9.377 9.615 10.598.342 6.714 2.582 8.426-8.798 6.684-.516-8.732-20.91 2.265-22.224 5.876-13 5.696-2.536-1.267.14-7.928-11.488-24.113 4.18 1.392 13.979-6.344 16.744-17.455.145-14.664 7.901-.49 20.292 10.4z" id="95391" data-name="Pașcani" class="municipiu"/>
    <path d="M230.094 247.315l-8.763 5.034-15.093-16.833-7.81 6.559-4.633-6.112-4.406-15.791 5.393-3.788 14.195-12.171 8.885 1.853 14.642 18.258-.124 5.421-10.904 5.022 8.618 12.548z" id="96664" data-name="Cucuteni" class="comuna"/>
    <path d="M247.306 206.837l11.075 11.099 1.496 15.002-6.502 4.848-7.396 2.958-6.993 11.234-5.73-4.936-3.162.273-8.618-12.548 10.904-5.022.124-5.42-14.642-18.259-8.885-1.853-9.53-6.404 14.475 3.498 12.03-.503 7.56 7.138 13.794-1.106z" id="100273" data-name="Balș" class="comuna"/>
    <path d="M306.347 168.302l18.95 32.551-11.176 17.305 17.35 15.025-.61 9.68-12.399-4.934-11.543 10.283-21.55-6.19-4.937-9.05-17.103 6.323-3.452-6.356-1.496-15.003-11.075-11.1 10.347-7.975 5.498 1.263 15.023-23.02-6.99-6.745 3.929-7.422 4.64-4.678 10.484 8.847 16.11 1.196z" id="95872" data-name="Belcești" class="comuna"/>
    <path d="M97.56 143.3l-.308 7.548 10.591 14.342 8.971-2.968 7.183 20.621-8.923 5.456-10.995-2.34 2.445 20.151 7.428 5.766-7.9.49-30.46-11.693-1.47-18.441-17.422-5.841 33.835-4.713-1.945-12.716-16.006-13.698 19.686-11.07 5.29 9.106z" id="97606" data-name="Lespezi" class="comuna"/>
    <path d="M308.34 121.755l12.522 8.294 5.047 15.719-19.562 22.534-16.11-1.196-10.484-8.847-4.64 4.678-3.847-6.305 6.967-5.754 3.359-9.333-8.998-12.585 11.351-1.1 6.527-6.186 17.869.08z" id="96334" data-name="Coarnele Caprei" class="comuna"/>
    <path d="M230.094 247.315l3.162-.273-7.053 18.702 4.744 2.94-3.992 8.91-14.727-3.043-1.9 5.656-11.459-7.976-3.957-8.14 4.475-7.975-8.623-11.892 3.031-8.261 4.634 6.112 7.81-6.559 15.091 16.833 8.764-5.034z" id="100282" data-name="Costești" class="comuna"/>
    <path d="M379.31 119l9.871 13.464 22.913 5.414 3.714 19.325-5.147 7.941-7.119.954-14.928 14.56-3.545 10.834-1.47 1.742-15.942 3.201.227-16.95-7.535-9.63-12.46-8.41 1.948-9.932-3.628-8.984 7.248-15.854 7.306-16.976 18.547 9.3z" id="97321" data-name="Gropnița" class="comuna"/>
    <path d="M609.703 360.445l-1.162 11.137 21.476 16.922 9.622-6.113 6.3 1.334-7.465 6.431 5.32 12.11 1.59 28.895 12.449-6.339 4.94 6.716.243 8.096-8.119 1.053-2.306 8.488-17.3 3.893-9.71-3.23-11.906-16.697-14.208-11.855-4.338-14.09-28.82-22.57 5.143-17.8-7.327-11.557 13.95-8.63 11.854 6.575 12.049-3.998 7.725 11.228z" id="98827" data-name="Schitu Duca" class="comuna"/>
    <path d="M574.238 254.567l4.04 20.813 7.767 8.92 21.337 5.847-4.596 16.605 2.237 14.87-11.28-7.896-10.959.428-2.687-5.36-15.111-1.552-6.534-10.854-7.774-3.134-8.744-16.588 9.69-9.196 10.921-3.137 5.976-6.824 1.048-8.379 4.669 5.437z" id="95159" data-name="Holboca" class="comuna"/>
    <path d="M56.7 176.39l17.423 5.842 1.468 18.441-12.546 10.415-9.918-13.815-18.626 1.679.578 6.39-10.726-.01-9.227-14.707-4.571-.207-7.286-17.596 3.7-7.568L1 157.044l3.123-7.257 12.35-7.537 2.834 10.463 18.266-.098-.008 9.129 14.01 6.225 5.125 8.422z" id="99478" data-name="Tătăruși" class="comuna"/>
    <path d="M521.552 267.094l13.167 10.997 7.215-1.425 8.745 16.588 7.773 3.134 6.534 10.854 15.11 1.552 2.688 5.36-9.362 3.456-12.336-2.517 1.322 10.683 5.62 5.71 2.743 6.629-7.347 15.758-9.54-11.146-7.678-1.9-1.891-11.227-7.784-3.801-3.4-2.32-8.309 15.207-5.26.771 1.433-18.81-12.379-7.155-1.96-10.53-7.902 1.895-15.636-3.314.508-10.215 15.398 3.019 4.104-3.313 1.258-4.761-6.454-29.53 9.272-1.16 8.184 15.978 6.164-4.466z" id="95060" data-name="Iași" class="municipiu resedinta"/>
    <path d="M259.076 105.528l4.14 7.303-25.284 9.338-30.359 7.528-19.426-7.8-24.626 15.26-19.977-1.428-2.659-6.243 5.861-6.34 15.555-1.381 6.194-11.035 18.092 8.766 16.904-4.58 15.064-.388 1.486 5.17 17.035-9.176 22-4.994z" id="95355" data-name="Hîrlău" class="oras"/>
    <path d="M546.521 435.859l-.837 9.56 5.204 4.939.512 18 6.704 1.503 7.304 17.128-.426 1.473-10.032 2.6-17.912 11.036-10.219-4.962-.68-25.026-4.909 2.269-6.83-14.971 11.234-3.039-.052-10.006 5.809-7.845 15.13-2.659z" id="98916" data-name="Scânteia" class="comuna"/>
    <path d="M675.7 441.592l3.312 8.653 8.058-2.368 8.512 10.061-3.36 20.573-19.989 7.143.258 8.426 7.752 9.52-3.82 6.867-16.945-3.416-6.986 7.885-11.93-3.948 7.69-17.301-2.73-7.21.108-16.748-9.66-8.705-.679-7.956 17.3-3.893 2.306-8.488 8.119-1.053-.242-8.096 12.926 10.054z" id="96192" data-name="Ciortești" class="comuna"/>
    <path d="M499.19 424.49l1.19 13.654 14.02 21.264 6.83 14.971 4.91-2.27.68 25.027-8.778-20.394-8.659-.668-16.57 3.01-9.155 6.566 2.672-5.044-6.737-21.341-6.266.107-7.706-7.47 14.022-4.407-.537-10.9 5.664-2.396 14.42-9.708z" id="99290" data-name="Șcheia" class="comuna"/>
    <path d="M625.581 449.838l11.175 42.992.857 8.23-11.291-.985-6.364-9.477-12.033-22.493-3.956 1.748-9.859-13.904-5.609 2.277-5.51-12.715-13.556-14.206-8.225-.088-10.432-7.01-7.813-2.981-9.295-11.075 15.791-5.905-2.65-8.535 2.908-7.756 13.225.19 3.365-3.52 28.82 22.571 4.338 14.09 14.208 11.855 11.906 16.697z" id="96888" data-name="Dobrovăț" class="comuna"/>
    <path d="M566.892 198.951l-16.139 28.605-6.211 6.137-19.71-.117-13.896-5.956-.75-21.876 7.373-9.775 1.465-12.242-6.32-5.414 2.16-15.905 3.335-13.629 2.314 6.34 13.17.392-2.76 13.064 6.589 6.982 4.51 13.285 5.126.127 3.916 11.643 6.373-3.829 9.455 2.168z" id="100004" data-name="Victoria" class="comuna"/>
    <path d="M363.21 435.074l2.794 2.392 2.602 20.172-9.694 1.244-4.844 19.38 5.235 29.598-7.966-3.504-4.44-3.746.625-10.994-10.224-13.367-26.314-19.2 5.518-9.153 8.429.151 17.82-18.4 4.626 7.055 9.233 2.673 6.6-4.3z" id="96717" data-name="Dagîța" class="comuna"/>
    <path d="M273.87 333.35l5.746 11.04-3.317 3.918 9.606 12.096-7.257 2.406-3.557 15.274-6.819 5.815-7.04 15.846-9.696-4.097-6.94-20.995 7.53-11.488-4.243-12.506-6.185-7.87 9.377-1.876 7.877-9.262-3.006-4.575 11.665.485 6.258 5.788z" id="98300" data-name="Oțeleni" class="comuna"/>
    <path d="M296.496 357.331l-10.59 3.073-9.607-12.096 3.317-3.918-5.747-11.04 1.613-22.317-5.68-15.762 4.551-6.267 19.878-8.831 7.114-1.54 4.042 13.917-1.97 4.863 4.937 20.326-7.788 8.428-5.871 12.55 13.45-3.383-2.787 13.457-8.862 8.54z" id="96058" data-name="Brăești" class="comuna"/>
    <path d="M310.507 38.234l.926 15.63-7.36 6.866 13.375 15.379-9.675 5.18-7.394 19.473 4.135 7.116 3.827 13.877-17.87-.081-5.939-.842-2.417-27.013-1.445-15.39-2.991-16.041L280.008 53l9.069-18.571 21.43 3.805z" id="98337" data-name="Plugari" class="comuna"/>
    <path d="M717.61 492.875l.335 17.604-6.853 1.48-6.331 11.117 8.077 11.98-7.334 2.474-9.234 9.961-6.674-.755-4.933-11.623-8.31-10.89.07-13.756 3.82-6.868-7.752-9.519-.258-8.426 19.989-7.143 3.36-20.573 8.848 10.833 13.18 24.104z" id="96904" data-name="Dolhești" class="comuna"/>
    <path d="M348.85 57.481l6.701 17.129 6.54-2.243 5.703 10.697 8.39 12.205 6.398 19.436-3.272 4.294-18.547-9.3-7.306 16.976-.13-9.274-7.916.048-6.692-9.053-15.95 4.464-18.255-4.982-4.135-7.116 7.394-19.473 9.675-5.18-13.375-15.38 7.36-6.865-.926-15.63 12.055 12.381 26.288 6.866z" id="99370" data-name="Șipote" class="comuna"/>
    <path d="M519.568 121.334l4.414 11.082-5.838 3.206.055 13.157-3.335 13.63-9.231-2.21-17.456 8.277-9.99-5.167-9.03 5.694-12.084-2.226 4.291-10.327-10.456-13.561-11.834 3.196-9.495 7.772 5.971-8.853-4.04-18.086 10.23-6.349 10.356 6.768 9.073-8.42 4.359 4.475 13.595-9.945 11.615 10.45 28.83-2.563z" id="98649" data-name="Probota" class="comuna"/>
    <path d="M409.832 513.526l-21.517-2.469-12.968 3.126-12.12.022-3.924-6.345-5.235-29.597 4.844-19.381 9.694-1.244-.402 10.24 7.272 11.31 8.878 5.25 3.12 14.822 8.027 5.055 15.189-2.503-.858 11.714z" id="99441" data-name="Tansa" class="comuna"/>
    <path d="M259.076 105.528l-22 4.994-17.035 9.177-1.486-5.17-15.064.386-16.904 4.581-18.092-8.766-6.194 11.035-15.555 1.38-5.86 6.341-14.278-9.61-9.038-21.721-6.286-6.223-14.077-25.391 9.553-4.552 16.895 8.309 16.519 1.87 14.214-6.1 14.378 8.717 13.756 1.793 25.95-.656 5.184-3.461 23.178 2.777 10.121 9.655 12.121 20.635z" id="96815" data-name="Deleni" class="comuna"/>
    <path d="M469.33 344.499l19.823 13.99-16.372 5.869-.401 12.159-10.431 9.15 6.037 16.79-8.757 5.967-33.599-7.644-11.432-11.004-1.297-9.148 7.516 2.963 10.945-2.365 3.433-27.146 11.262-17.468 11.409 5.66 11.864 2.227z" id="100219" data-name="Voinești" class="comuna"/>
    <path d="M425.63 400.78l3.076 14.31 15.857 21.955-7.08 3.963-1.854 11.817-13.795 4.243-12.868-15.313-21.743 13.471-8.345-10.052-.258-7.598-12.616-.11-2.794-2.392 3.765-22.64.912.777 7.078-.118 24.598-9.106 5.996.128 8.639-14.339 11.432 11.004z" id="99673" data-name="Țibana" class="comuna"/>
    <path d="M435.63 452.825l11.055 23.503-.512 17.69-22.59 8.985-6.882 9.901-6.87.622.859-11.714-15.19 2.503-8.025-5.055-3.121-14.823-8.878-5.25-7.272-11.309.402-10.24-2.602-20.172 12.616.11.258 7.598 8.345 10.052 21.743-13.471 12.868 15.313 13.795-4.243z" id="99780" data-name="Țibănești" class="comuna"/>
    <path d="M194.782 216.384l-5.393 3.788 4.406 15.79-3.031 8.262 8.623 11.892-4.475 7.975-19.361 9.588-8.048-.927-20.105 5.528-5.861-.64 8.798-6.684-2.582-8.426 4.788-4.653.373-17.079 5.007-7.531 14.136-4.333-10.939-15.233 4.72-.076 9.749-10.488 2.742 9.863 8.286-6.793 8.167 10.177z" id="98774" data-name="Ruginoasa" class="comuna"/>
    <path d="M728.103 384.17l-9.44 14.505-2.2 1.49-6.249-7.29-13.655-.27-5.756-6.368-6.485 3.427-6.149-6.36-12.065.188-7.716-11.706.802-8.726-13.681-14.703-.675-13.647 3.251-9.166 3.412 3.896 20.413 4.777 10.255 15.554 10.783 12.52 20.02 5.635 15.135 16.244z" id="98603" data-name="Prisăcani" class="comuna"/>
    <path d="M242.284 286.218l-15.33-8.623 3.993-8.911 8.04-16.706 6.992-11.234 7.396-2.958 9.09 21.843-5.815 2.14 9.544 13.774-19.426 11.317-4.484-.642z" id="95471" data-name="Târgu Frumos" class="oras"/>
    <path d="M201.73 364.94l4.939 2.465 9.628 27.755 6.22-1.174-4.954 6.241-14.293 4.84-7.037-12.42-7.923-.171 2.64-8.147 9.365-4.978-6.273-10.012.453-8.056 7.234 3.657z" id="100335" data-name="Răchiteni" class="comuna"/>
    <path d="M536.531 325.799l-4.527 7.916-.944 28.68 10.304 18.716 8.355 6.844-2.907 7.756 2.65 8.535-15.792 5.905-17.21-.946-2.609-34.587-9.574-8.009 1.057-5.973 8.882-4.261-1.986-11.7 7.331-5.218 5.261-.77 8.31-15.207 3.4 2.319z" id="96254" data-name="Ciurea" class="comuna"/>
    <path d="M471.6 259.73l6.825 23.245 5.2 8.353-.507 10.215 15.636 3.314 7.903-1.896 1.959 10.53 12.379 7.156-1.434 18.81-7.33 5.217 1.985 11.701-8.882 4.26-1.057 5.974-15.124-8.12-19.823-13.99.788-7.24-6.822-21.333-3.022-11.875-5.693-3.33 5.087-12.777 6.746.03-6.53-32.893 11.715 4.649z" id="97919" data-name="Miroslava" class="comuna"/>
    <path d="M210.327 280.207l-8.993 8.158-10.883 3.799 5.803 16.4-7.447 7.103-7.97 1.095-7.063-19.597-10.19-10.49-5.435-.114-10.751-8.28 20.105-5.529 8.048.927 19.36-9.588 3.958 8.14 11.458 7.976z" id="97465" data-name="Heleșteni" class="comuna"/>
  </g>
</svg>
