<svg xmlns="http://www.w3.org/2000/svg" version="1.2" baseProfile="tiny" stroke-linecap="round" stroke-linejoin="round" viewBox="0 0 800 544">
  <g id="IS" fill="none" stroke="#aaa">
    <path d="M744.706 454.532l8.398 8.674-.768 6.3-7.772-2.469-13.078 12.52-7.248 1.618-8.115 7.17-13.136-24.022-8.818-10.795 24.345-7.99 4.104 9.429 8.737 4.797 13.351-5.232z" id="98202"/>
    <path d="M464.987 447.512l7.68 7.445 6.244-.107 6.714 21.269-2.663 5.027-14.05 4.736 6.2 22.143-16.096 2.668-5.458-9.254-5.727.14-2.226-12.093.51-17.631-3.617-10.692-7.402-12.732 1.848-11.777 7.056-3.949 1.498 15.53 10.244 1.783 9.245-2.506z" id="97553"/>
    <path d="M462.67 311.995l6.798 21.261-.785 7.216-11.824-2.22-4.037 3.814-7.333-9.454-11.224 17.41-2.488 14.025 2.982 7.141-3.915 5.886-10.909 2.358-7.49-2.953-6.41-4.83 1.762-9.592 5.056-7.15 7.327-.897-4.71-19.702-.398-12.674 2.805-4.979 6.54 2.27 17.551-6.085 5.23 3.133 10.815-.406 4.657-3.572z" id="97517"/>
    <path d="M605.225 238.089l12.125 14.05 8.907 13.084.655 9.202 5.3 5.36-9.555 6.022-16.389.497-21.265-5.828-2.673-10.539-5.068 1.65-4.026-20.743 5.505 2.822 22.025-15.99 4.459.413z" id="96003"/>
    <path d="M439.813 236.975l6.719 14.152 12.736.23 4.145 15.932 2.363 16.85-6.722-.03-5.07 12.733 5.674 3.319 3.012 11.834-4.657 3.572-10.815.406-5.23-3.133-17.55 6.084-6.541-2.269 5.006-3.6-1.828-16.878 8.091-3.46 4.524-29.578-6.008-25.607 6.477-4.715 5.674 4.158z" id="97679"/>
    <path d="M67.735 232.196l3.968 13.535 11.45 24.032-.14 7.902-10.614.903-3.25 6.607 2.848 9.501-10.034 1.408-3.925-13.322-15.671-12.935 10.366-24.793 15.002-12.838z" id="98220"/>
    <path d="M543.64 230.041l12.88-.86.773 6.994 11.29 9.25-1.045 8.351-5.955 6.801-10.884 3.126-2.97 7.585-6.688 1.58-7.19 1.42-6.042-8.005-7.08-2.954-5.143-8.175 7.416-7.07 5.655.742-4.66-18.902 18.01-2.419 1.634 2.536z" id="95747"/>
    <path d="M424.237 158.599l1.562 10.232 22.859 14.697 8.617 7.698 7.3-.695-1.361 10.312 8.52 19.312-17.152-.621-11.801 4.516-12.19-12.387-10.428 2.41-13.351-5.36-1.398-9.302-6.192-.623-7.786-14.109-6.729 3.303 3.533-10.798 14.878-14.51 7.095-.95 5.13-7.914 8.894 4.789z" id="98257"/>
    <path d="M271.29 153.24l-40.094 5.165-.688 5.994-14.417-10.296-10.65 8.032-37.524-13.038-.798-5.11 7.587-.852 19.549 5.156 14.85.404 22.103-9.32 36.099-8.379 5.305-5.334 4.045.024 4.923 12.518-3.348 9.302-6.943 5.734z" id="96147"/>
    <path d="M397.659 11.201l14.908 27.89 6.354 19.033 5.302 5.895-2.172 14.006-5.8-4.627-18.325 13.767-4.414-6.45-12.883-7.075-13.139 6.28-5.684-10.66-6.517 2.236-6.678-17.07.497-6.628 8.375.072 7.951-5.222-6.33-9.31 3.427-7.773-1.426-7.961 5.62-4.754 15.069 2.559 7.877-7.456 7.988 3.248z" id="95667"/>
    <path d="M523.997 229.924l4.66 18.902-5.655-.742-7.416 7.07 5.142 8.175-6.143 4.451-8.156-15.923-9.241 1.155-7.533-12.789-9.618-.194 2.648-9.026-10.95-10.848-8.521-19.312 1.36-10.312 14.4-1.421 12.718 1.883 6.754-6.331 10.346 3.828 3.118-13.642 6.299 5.395-1.46 12.2-7.35 9.743.749 21.802 13.849 5.936z" id="98505"/>
    <path d="M497.188 253.012l6.432 29.43-1.254 4.746-4.974-9.19-8.847-2.761-3.576-10.148-14.024-9.1-11.677-4.633-12.736-.23-6.719-14.151-1.946-8.951 4.914-3.974 11.8-4.516 17.154.62 10.95 10.849-2.648 9.027 9.618.193 7.533 12.789z" id="95239"/>
    <path d="M502.366 287.188l-4.09 3.301-15.346-3.009-5.183-8.324-6.803-23.167 14.025 9.1 3.576 10.148 8.847 2.76 4.974 9.191z" id="100353"/>
    <path d="M194.563 353.291l.215 3.909-.452 8.028 6.251 9.978-9.333 4.962-21.118 10.827-6.496-6.308-3.44-8.613 19.398-12.769 5.139-6.494 9.835-3.52z" id="97811"/>
    <path d="M412.853 354.907l-5.056 7.15-1.763 9.593 6.41 4.829 1.293 9.117-1.924 7.116-6.686 7.175-5.975-.128-24.515 9.075-7.054.118 11.11-20.453-17.931-12.582 4.713-20.039 10.781-1.929 14.427 2.704 4.492-7.376 17.678 5.63z" id="97777"/>
    <path d="M241.821 338.768l6.163 7.844 4.23 12.463-7.505 11.449-9.057-5.28.591 10.994-5.869 1.17.493 10.786-8.163 1.597-6.198 1.17-9.596-27.66-4.923-2.457 8.589-8.42 3.203-10.074 11.532-1.232 9.683 4.09 6.827-6.44z" id="96110"/>
    <path d="M118.665 312.11l2.672 10.071-13.592 8.542-7.172 6.904-12.953 6.67 3.17-15.491-3.928-5.633 9.26-8.517 22.543-2.545z" id="100362"/>
    <path d="M158.555 282.73l5.417.113 10.154 10.455 2.903 12.942 4.137 6.589 7.943-1.091.31 11.472 8.462 1.46 13.383-2.404 5.203 8.998-6.987 1.924 4.3 9.162-3.204 10.075-8.589 8.419-7.21-3.644-.214-3.909-5.055-11.04-22.365-10.226-5.51-6.035 7.123-6.323-7.395-7.754-10.517 5.61 2.3-13.559 1.279-14.482 4.132-6.752z" id="95612"/>
    <path d="M85.54 278.927l1.408 6.359 8.579 10.781 4.017 11.44 10.061-2.36 9.06 6.964-22.543 2.545-9.26 8.517 3.927 5.633-3.17 15.49 12.954-6.67-4.385 6.01-22.073 14.58-10.73-11.864.89-13.744-1.862-12.325-5.953-17.72 5.503-6.48 10.034-1.407-2.848-9.5 3.25-6.608 10.613-.903 2.528 1.262z" id="98051"/>
    <path d="M339.812 264.217l5.315.536 5.343 15.182 2.696 18.477-6.49 5.632 9.28 24.91-.942 7.178 10.46 19.746-4.712 20.04 17.932 12.58-11.11 20.454-.91-.774-9.962-3.483-6.498-7.25-9.66-1.545-4.831-7.297 3.823-7.442-1.2-7.075-13.605-15.019-6.178-26.615 6.31-14.98 11.794-5.117-4.742-22.824 17.499-4.609-5.487-17.132-4.907-3.834.782.261z" id="99058"/>
    <path d="M239.118 248.264l-2.396 9.643-5.616 7.006-4.727-2.93 7.029-18.639 5.71 4.92zm24.26-12.64l9.364 9.047 9.568-2.006 7.632 4.635 5.463 8.965.186 13.74-1.414 6.358-2.934-.81-16.877 9.612-4.536 6.245 5.66 15.71-1.607 22.24-6.237-5.769-11.625-.483-15.086-4.472-3.824-18.093 5.294-18.155 4.469.64 19.36-11.279-9.511-13.727 5.795-2.133-9.06-21.769 6.48-4.831 3.44 6.334z" id="95499"/>
    <path d="M153.054 197.337l8.46 12.78 10.901 15.181-14.088 4.318-4.99 7.506 1.82 7.19-2.192 9.83-4.771 4.638-.341-6.691-9.583-10.562 4.103-9.346-7.643-13.52-3.058-12.214 11.122-1.114 10.26-7.996z" id="100326"/>
    <path d="M199.713 194.278l9.498 6.382-14.147 12.13-8.14-10.142-8.258 6.77-2.733-9.83-9.716 10.453-4.703.075-8.46-12.779-.07-24.605-4.068-11.867-9.825-.273-1.36-12.128 4.996-3.961 9.207 3.979 1.69 5.996 23.483 23.172 11.371 4.17 11.235 12.458z" id="99539"/>
    <path d="M349.594 148.138l-1.942 9.9 12.418 8.38 7.51 9.598-.226 16.893-4.905 7.921-24.456 7.047-12.857-10.565-18.885-32.441 19.496-22.458 15.855 9.897 7.992-4.172z" id="97063"/>
    <path d="M142.727 144.503l-4.995 3.961 1.359 12.128 9.825.273 4.068 11.867.07 24.605-10.26 7.996-11.123 1.114 3.06 12.215-4.773 2.203-6.248-7.43-9.203-5.137-7.403-5.746-2.437-20.084 10.959 2.332 8.892-5.437-7.158-20.551 1.577-5.165 8.602-1.076 10.973-12.273 4.215 4.205z" id="100086"/>
    <path d="M167.12 143.987l.797 5.11 37.524 13.038 10.65-8.032 14.417 10.296.688-5.994 40.093-5.165 3.834 6.284-3.915 7.397 6.965 6.722-14.972 22.942-5.48-1.258-10.311 7.948-13.747 1.102-7.535-7.114-6.04 4.804-5.95-4.302-14.425-3.487-11.235-12.459-11.371-4.169-23.483-23.172-1.69-5.996-9.207-3.979-4.215-4.205 3.26-4.078 21.006 4.815 4.341 2.952z" id="96478"/>
    <path d="M353.201 123.385l-7.223 15.8 3.616 8.953-7.992 4.172-15.855-9.897-5.03-15.666-12.479-8.266-3.813-13.83 12.722 1.537 5.471 3.428 15.896-4.449 6.669 9.023 7.89-.048.128 9.243z" id="100317"/>
    <path d="M518.75 118.062l-28.732 2.554-11.576-10.414-5.133.63-8.416 9.281-4.344-4.46 12.261-6.78-2.756-11.172-14.412-6.871-5.806-11.213L468.1 66.962l9.377.835 2.012 6.514 8.154 1.677 13.412-7.936 1.03 6.504 7.474 8.538 7.627 1.83-7.616 26.041 9.18 7.097z" id="99600"/>
    <path d="M449.836 79.617l5.806 11.213 14.412 6.871 2.756 11.172-12.26 6.78-9.042 8.391-10.322-6.744 3.47-5.915-20.899-14.11-1.706-19.25 2.172-14.006 5.146 9.261 8.363-2.517 12.103 8.854z" id="100344"/>
    <path d="M468.1 66.962l-18.264 12.655-12.104-8.854-8.363 2.517-5.146-9.261-5.302-5.895-6.354-19.033-14.909-27.89L424.164 1l19.238.426-3.571 9.12 7.973 19.517 6.023 5.285 5.78 14.011-.372 5.532 8.865 12.071z" id="95943"/>
    <path d="M770.802 508.219l-10.391-19.304 3.972-4.328-10.622-9.648-1.425-5.433.768-6.3-8.398-8.674 11.76-11.503 11.514-3.94-4.169-9.301 10.53-9.598-2.503-7.158 8.656 3.89-7.862 11.617 10.106 9.874.879 15.41 6.774 3.069-4.668 9.27-7.356 1.593-.365 7.464 8.23.35 8.036 11.61-9.029 6.963L799 506.036l-11.23 8.487-16.968-6.304z" id="97189"/>
    <path d="M161.634 325.99l-14.002 2.138-6.394 7.56-15.324 9.7 3.313 9.052-12.06 8.018-8.576-4.761-12.403-14.06 4.385-6.01 7.172-6.904 13.593-8.542 4.578-.19 14.49-11.222 12.738-6.805-2.3 13.559 10.517-5.61 7.395 7.754-7.122 6.323z" id="98168"/>
    <path d="M771.838 413.032l2.503 7.158-10.53 9.598-4.832 1.098-15.207-26.253-26.599-10.168 9.408-14.456 14.055 7.246 6.24-5.163 10.772 19.933 16.21 7.752-2.02 3.255z" id="97394"/>
    <path d="M161.634 325.99l5.51 6.035 22.364 10.226 5.054 11.04-9.835 3.52-5.139 6.494-19.399 12.769-9.335-5.963-17.423-16.981-4.204 1.31-3.313-9.052 15.324-9.7 6.394-7.56 14.002-2.138z" id="97438"/>
    <path d="M508.6 471.602l-2.151 17.555 4.631 6.058-7.842 5.041-11.6-.656-16.526 8.425-6.2-22.143 14.05-4.736 9.125-6.544 16.514-3z" id="100308"/>
    <path d="M752.336 469.507l1.425 5.432 10.622 9.648-3.972 4.328 10.39 19.304-25.29 12.929-12.1-2.828-5.67-13.383-11.284.953-.334-17.544 8.115-7.17 7.248-1.619 13.078-12.52 7.772 2.47z" id="96593"/>
    <path d="M532.805 405.902l9.264 11.037 7.786 2.971-4.242 11.613-15.08 2.65-5.788 7.818.051 9.973-11.196 3.028-13.972-21.192-1.186-13.607.936-9.603 16.276-5.63 17.151.942z" id="97241"/>
    <path d="M717.173 394.465l26.599 10.168 15.207 26.253 4.832-1.099 4.17 9.301-11.515 3.94-11.76 11.504-13.351 5.232-8.737-4.797-4.104-9.429-24.345 7.99-8.483-10.028-8.03 2.36-3.3-8.624 32.13-36.797 8.495-4.49 2.192-1.484z" id="98685"/>
    <path d="M458.616 404.18l8.88.802 8.815 8.914 3.12 15.516 4.64.457-5.645 2.387.535 10.864-13.974 4.392-9.245 2.506-10.244-1.784L444 432.705l-15.803-21.88-3.066-14.263 33.485 7.618z" id="97875"/>
    <path d="M714.98 395.95l-8.495 4.489-32.13 36.797-12.883-10.019-4.924-6.693-12.407 6.317-1.584-28.797-5.302-12.069 7.44-6.41 12.406-11.898 7.69 11.666 12.025-.186 6.128 6.337 6.463-3.415 5.736 6.345 13.61.27 6.228 7.265z" id="96423"/>
    <path d="M503.512 362.507l6.547.157 2.995 7.826 2.606 20.352-.006 14.117-16.276 5.631-.936 9.603-14.372 9.676-4.64-.457-3.119-15.515-8.814-8.915-8.88-.802 8.726-5.946-6.017-16.734 10.396-9.119.4-12.118 16.317-5.85 15.073 8.094z" id="98113"/>
    <path d="M643.593 330.716l.673 13.6 6.665 4.525 6.97 10.129-.8 8.697-12.407 11.898-6.278-1.329-9.59 6.092-21.403-16.865 4.925-5.716-3.766-5.384 7.26-27.288 9.165 3.876 7.953-6.244 10.633 4.01z" id="96370"/>
    <path d="M567.046 327.503l10.014 15.103-13.902 8.6 7.302 11.517-5.126 17.74-3.353 3.507-13.181-.189-8.327-6.821-10.27-18.652.942-28.584 4.512-7.89 7.757 3.79 1.885 11.19 7.652 1.892 9.508 11.109 7.322-15.705-2.735-6.607z" id="95088"/>
    <path d="M603.917 317.672l11.67 4.644.256 6.759-7.261 27.288-7.7-11.19-12.008 3.984-11.814-6.551-10.014-15.103-5.6-5.69-1.318-10.648 12.294 2.508 9.331-3.443 10.921-.427 11.243 7.869z" id="95293"/>
    <path d="M632.212 279.786l-.408 8.43 6.49 4.356-6.613 6.89.895 8.467 21.772 8.012-7.514 5.64-3.241 9.135-10.633-4.009-7.953 6.244-9.164-3.876-.257-6.76-11.669-4.643-2.23-14.82 4.581-16.548 16.389-.497 9.555-6.022z" id="99922"/>
    <path d="M404.42 247.938l-1.301 13.252-5.77 12.823-9.706 15.994-16.15-.404-2.417-11.44-13.945 4.43-4.661-2.658-5.343-15.182-5.315-.536 4.013-.69 1.236-17.367 16.684 8.757 10.003 3.3 12.778-3.885 6.68-5.817 4.466-10.67-2.224 9.534 10.971.559z" id="98373"/>
    <path d="M427.662 237.532l6.008 25.607-4.524 29.577-8.09 3.46 1.827 16.878-5.006 3.601-2.805 4.98.397 12.673 4.712 19.702-7.328.897-17.678-5.63 6.432-10.596 1.627-10.274-6.237-12.381-9.354-26.02 9.707-15.993 5.769-12.823 1.3-13.252.304-7.806 20.286 6.07 2.653-8.67z" id="96940"/>
    <path d="M76.276 197.132l30.357 11.654 2.32 8.883-2.465 5.731L89.8 240.796l-13.93 6.323-4.167-1.388-3.968-13.535-3.355-11.756-.608-12.928 12.504-10.38z" id="99968"/>
    <path d="M63.772 207.512l.608 12.928 3.355 11.756-15.002 12.838-10.366 24.793-3.893-10.549-20.894-17.232-7.844-9.127 19.119-21.423 10.362 3.088 1.933-6.786-5.25-6.012-.575-6.37 7.242-2.446 11.32.773 9.885 13.77z" id="96637"/>
    <path d="M605.225 238.089l-4.459-.413-22.025 15.99-5.505-2.822-4.653-5.418-11.29-9.251-.773-6.995-12.88.861 6.19-6.116 16.085-28.508 12.383 8.067 7.548-6.01 8.937 2.909 5.601 7.27 3.506 14.07 6.466 3.849.211 6.74-5.342 5.777z" id="97090"/>
    <path d="M442.78 224.05l-4.913 3.974 1.946 8.95-5.674-4.157-6.477 4.715-2.653 8.67-20.286-6.07-.304 7.805-10.97-.558 2.224-9.534-.765-14.827-8.788-3.923-3.791-15.49.913-13.887 1.465-1.736 6.729-3.303 7.786 14.109 6.192.623 1.398 9.303 13.35 5.36 10.43-2.411 12.189 12.387z" id="98738"/>
    <path d="M383.242 189.718l-.913 13.888 3.79 15.489 8.79 3.923.764 14.827-4.466 10.67-6.68 5.817-12.78 3.885-10.002-3.3-16.684-8.757-6.246-13.144-8.132 6.164.608-9.648-17.293-14.974 11.138-17.246 12.857 10.565 24.456-7.047 4.905-7.92 13.393-6.025 2.495 2.833z" id="97009"/>
    <path d="M282.101 90.64l2.41 26.922 5.919.838-6.505 6.166-5.106-5.018-6.207 6.114-5.305 5.334-36.099 8.38-22.102 9.32-14.851-.405-19.549-5.156-7.587.852-4.341-2.952-21.006-4.815 2.227-3.812 19.91 1.423 24.542-15.208 4.04-.303 15.32 8.077 30.257-7.503 25.198-9.306 3.416-9.042-.384-10.626 7.46 2.696 8.343-1.976z" id="98998"/>
    <path d="M141.349 126.186l2.65 6.222-2.227 3.812-3.26 4.078-10.973 12.273-8.602 1.076-1.577 5.165-8.941 2.958-10.556-14.294.308-7.523 4.029-7.9-8.48-16.868-3.602-2.58-.32-12.203 9.504-10.554 12.546-1.089 6.265 6.202 9.007 21.647 14.229 9.578z" id="99101"/>
    <path d="M422.05 78.025l1.707 19.25 20.898 14.11-3.469 5.915-10.195 6.327 4.026 18.025-5.951 8.823-4.829 8.124-8.895-4.79-3.702-19.26-10.386-.882-12.449-4.512-9.838-13.42 3.262-4.28-6.377-19.37-8.361-12.164 13.138-6.281 12.883 7.075 4.414 6.45 18.325-13.767 5.8 4.627z" id="100148"/>
    <path d="M514.063 158.997l-2.154 15.85-3.117 13.643-10.346-3.828-6.754 6.33-12.718-1.882-14.4 1.42-7.3.696-8.616-7.698-22.86-14.697-1.56-10.232 4.828-8.124 9.464-7.745 11.793-3.186 10.421 13.515-7.617 5.52 3.34 4.772 12.043 2.219 9-5.675 9.956 5.15 17.397-8.249 9.2 2.2z" id="99879"/>
    <path d="M387.643 290.007l9.354 26.019 6.237 12.381-1.627 10.274-6.432 10.596-4.492 7.376-14.427-2.704-10.781 1.93-10.46-19.748.941-7.177-9.28-24.91 6.49-5.632-2.696-18.477 4.661 2.658 13.945-4.43 2.418 11.44 16.15.404z" id="98435"/>
    <path d="M227.127 273.794l14.815 5.684.463 2.91-5.294 18.155 3.824 18.093 15.086 4.472 2.996 4.56-7.85 9.23-9.346 1.87-6.827 6.44-9.683-4.09-11.532 1.232-4.299-9.162 6.987-1.924-5.203-8.998-13.383 2.405-8.462-1.46-.31-11.473 7.421-7.08-5.783-16.344 6.079-7.75 4.767 3.964 8.963-8.13 1.894-5.638 14.677 3.034z" id="99209"/>
    <path d="M141.998 273.84l5.841.637 10.716 8.253-4.132 6.752-1.28 14.482-12.737 6.805-14.49 11.222-4.578.19-2.673-10.07-9.06-6.965-10.061 2.36-4.017-11.439-8.58-10.781-1.407-6.359 5.162.718 7.794-6.395 22.149-5.856 4.34-4.928 6.559 4.059 9.94-1.388.514 8.702z" id="99165"/>
    <path d="M339.03 263.956l4.907 3.834 5.487 17.132-17.499 4.609 4.742 22.824-11.794 5.116-6.31 14.98 6.178 26.616-4.273.713-24.035-6.52 8.832-8.51 2.779-13.413-13.405 3.373 5.85-12.508 7.453-1.88.31-6.52-4.92-20.257 1.962-4.846-4.028-13.87-7.09 1.534 1.415-6.358 12.623-1.3 8.163 4.223 13.524-3.73 1.786-7.8 7.343 2.558z" id="97722"/>
    <path d="M330.683 239.18l8.132-6.164 6.246 13.144-1.236 17.367-4.013.69-.782-.26-7.343-2.558-1.786 7.8-13.524 3.73-8.163-4.224-12.623 1.3-.186-13.74-5.463-8.965-7.632-4.635-9.568 2.006-9.364-9.048 5.263-11.628 4.392 6.194 7.39-.868 4.922 9.022 21.476 6.167 8.143-15.013 3.361 4.766 12.358 4.917z" id="95792"/>
    <path d="M134.73 218.662l7.643 13.52-4.102 9.345 9.582 10.562.34 6.691 2.574 8.398-8.769 6.661-.514-8.702-9.94 1.388-6.56-4.06-4.339 4.93-22.149 5.855-7.794 6.395-5.162-.718-2.528-1.262.14-7.902-11.45-24.032 4.168 1.388 13.93-6.323 16.688-17.396 2.465-5.731-2.32-8.883 7.874-.488 9.203 5.137 6.248 7.43 4.772-2.203z" id="95391"/>
    <path d="M230.256 243.617l-8.734 5.016-15.04-16.775-7.784 6.536-4.618-6.091-4.391-15.738 5.375-3.775 14.147-12.13 8.854 1.848 14.593 18.196-.124 5.403-10.867 5.004 8.59 12.506z" id="96664"/>
    <path d="M247.41 203.275l11.037 11.062 1.491 14.952-6.48 4.831-7.37 2.948-.606 7.475-6.364 3.72-5.71-4.919-3.152.273-8.589-12.506 10.867-5.004.124-5.403-14.593-18.196-8.854-1.848-9.498-6.382 14.426 3.487 5.948 4.302 6.04-4.804 7.536 7.114 13.747-1.102z" id="100273"/>
    <path d="M306.252 164.87l18.884 32.442-11.138 17.246 17.293 14.974-.608 9.648-12.358-4.917-3.36-4.766-8.144 15.013-21.476-6.167-4.922-9.022-7.39.868-4.392-6.194-5.263 11.628-3.44-6.334-1.491-14.952-11.037-11.062 10.312-7.948 5.48 1.258 14.971-22.942-6.965-6.722 3.915-7.397 4.624-4.662 10.448 8.817 3.012-3.47 9.592 7.252 3.453-2.59z" id="95872"/>
    <path d="M98.171 139.953l-.308 7.523 10.556 14.294 8.94-2.958 7.159 20.55-8.892 5.438-10.959-2.332 2.437 20.084 7.403 5.746-7.874.488-30.357-11.654-1.464-18.378-5.256-3.794-12.107-2.028 33.72-4.697-1.938-12.672-6.25-7.666-9.702-5.986 19.62-11.033 5.272 9.075z" id="97606"/>
    <path d="M308.238 118.481l12.479 8.266 5.03 15.666-19.495 22.458-3.453 2.59-9.592-7.253-3.012 3.471-10.448-8.817-4.624 4.662-3.834-6.284 6.943-5.734 3.347-9.302-4.922-12.518-4.045-.024 6.207-6.114 5.106 5.018 6.505-6.166 4.865-2.12 12.943 2.201z" id="96334"/>
    <path d="M230.256 243.617l3.151-.273-7.028 18.64 4.727 2.93-3.979 8.88-14.677-3.034-1.894 5.638-11.419-7.95-3.944-8.112 4.46-7.948-8.594-11.852 3.021-8.233 4.618 6.091 7.783-6.536 15.041 16.775 8.734-5.016z" id="100282"/>
    <path d="M378.967 115.735l9.838 13.42 12.45 4.512 10.385.883 3.702 19.26-5.13 7.914-7.094.95-14.878 14.51-3.533 10.798-1.465 1.736-2.495-2.833-13.393 6.024.226-16.893-7.51-9.598-12.418-8.38 1.942-9.9-3.615-8.953 7.222-15.8 7.282-16.919 18.484 9.269z" id="97321"/>
    <path d="M608.582 356.363l3.766 5.384-4.925 5.716 21.403 16.865 9.59-6.092 6.278 1.33-7.439 6.409 5.302 12.07 1.584 28.796 12.407-6.317 4.924 6.693.242 8.068-8.092 1.05-2.298 8.459-17.241 3.88-9.678-3.219-11.865-16.641-14.16-11.815-4.324-14.042-5.91-1.137-6.455-7.846-16.357-13.511 5.126-17.74-7.303-11.518 13.903-8.6 11.814 6.552 12.008-3.983 7.7 11.19z" id="98827"/>
    <path d="M573.236 250.844l4.026 20.743 5.068-1.65 2.673 10.54 21.265 5.827-4.58 16.548 2.229 14.82-11.243-7.869-10.92.427-2.679-5.342-15.06-1.547-6.512-10.817-7.747-3.124-8.715-16.532 6.688-1.58 2.97-7.585 10.884-3.126 5.955-6.8 1.045-8.351 4.653 5.418z" id="95159"/>
    <path d="M57.449 172.932l12.107 2.028 5.256 3.794 1.464 18.379-12.504 10.38-9.884-13.77-11.321-.773-7.242 2.447.576 6.369-10.69-.01-9.196-14.658-5.66.913-6.157-18.655 3.688-7.543L1 147.905l16.358-8.998 2.823 10.427 18.205-.097-.008 9.098 13.962 6.204 5.109 8.393z" id="99478"/>
    <path d="M520.728 263.33l7.081 2.953 6.042 8.005 7.19-1.42 8.715 16.532 7.747 3.124 6.512 10.817 15.06 1.547 2.678 5.342-9.33 3.443-12.295-2.508 1.319 10.647 5.6 5.69 2.734 6.608-7.322 15.705-9.508-11.109-7.653-1.893-1.884-11.19-7.757-3.788-3.388-2.311-8.282 15.155-5.243.768 2.463-9.069-1.034-9.677-12.337-7.131-1.953-10.495-7.875 1.89-15.583-3.304.505-10.18 15.346 3.008 4.09-3.3 1.254-4.747-6.432-29.43 9.24-1.155 8.157 15.923 6.143-4.45z" id="95060"/>
    <path d="M259.14 102.309l4.126 7.279-25.198 9.306-30.256 7.502-15.32-8.076-4.04.303-24.544 15.208L144 132.408l-2.65-6.222 5.841-6.32 15.503-1.375 6.172-10.997 18.031 8.736 16.847-4.565 15.013-.386 1.481 5.153 16.977-9.146 21.926-4.977z" id="95355"/>
    <path d="M545.613 431.523l-.834 9.527 5.186 4.922.51 17.94 6.681 1.498 4.04 6.661-2.691 11.273-22.343 14.194-.337-7.932-9.847 2.986-.677-24.941-4.894 2.262-6.807-14.92 11.196-3.03-.051-9.972 5.789-7.818 15.08-2.65z" id="98916"/>
    <path d="M674.355 437.236l3.3 8.625 8.031-2.36 8.483 10.027-3.348 20.503-19.921 7.118.257 8.398 7.726 9.487-3.808 6.844-16.887-3.404-6.962 7.858-11.891-3.934L647 489.155l-2.72-7.185.106-16.691 3.077-4.35-12.704-4.326-.676-7.93 17.241-3.88 2.298-8.458 8.092-1.05-.242-8.068 12.883 10.02z" id="96192"/>
    <path d="M498.442 420.193l1.186 13.607 13.972 21.192 6.807 14.92 4.894-2.261.677 24.941-8.748-20.324-8.63-.666-16.513 3-9.125 6.544 2.663-5.027-6.714-21.27-6.245.108-7.68-7.445 13.975-4.392-.535-10.863 5.644-2.388 14.372-9.676z" id="99290"/>
    <path d="M624.405 445.455l.159 10.603 3.34 5.069 7.639 27.174.854 8.202-11.254-.981-12.24-18.066-6.094-13.796-3.942 1.742-9.826-13.857-5.59 2.27-5.491-12.672-13.51-14.158-8.198-.089-3.777-6.842-6.62-.144-7.786-2.97-9.264-11.038 15.738-5.885 9.454 6.844 1.304-9.228-13.399-6.122 2.898-7.73 13.18.189 3.354-3.507 16.357 13.511 6.455 7.846 5.91 1.137L598.38 417l14.16 11.815 11.865 16.641z" id="96888"/>
    <path d="M565.915 195.417l-16.084 28.508-6.19 6.116-1.633-2.536-18.011 2.419-13.85-5.936-.747-21.802 7.349-9.742 1.46-12.2-6.3-5.396 2.154-15.851-.734-10.926 4.058-2.657 2.305 6.319 13.126.39-2.75 13.02 6.566 6.958 4.496 13.24 5.107.127 3.904 11.604 6.35-3.816 9.424 2.16z" id="100004"/>
    <path d="M362.922 430.74l2.784 2.385 2.593 20.104-9.66 1.239-3.752 7.639-1.076 11.676 5.217 29.497-12.363-7.225.621-10.957-10.188-13.322-17.116-13.935-9.11-5.2 5.5-9.122 8.4.151 9.922-9.253.232-7.079 7.607-2.006 4.61 7.031 9.201 2.664 6.578-4.286z" id="96717"/>
    <path d="M273.883 329.36l5.727 11.003-3.305 3.905 9.574 12.055-7.233 2.398-3.545 15.223-8.951 5.133-.969 13.462-3.892 2.992-9.664-4.083-6.916-20.924 7.505-11.449-4.23-12.463-6.163-7.844 9.345-1.87 7.85-9.23-2.995-4.56 11.625.483 6.237 5.769z" id="98300"/>
    <path d="M296.433 353.26l-10.554 3.063-9.574-12.055 3.305-3.905-5.727-11.003 1.607-22.24-5.66-15.71 4.536-6.245 16.877-9.612 2.934.81 7.089-1.535 4.028 13.871-1.962 4.846 4.92 20.257-.31 6.52-7.452 1.88-5.851 12.508 13.405-3.373-2.779 13.412-8.832 8.512z" id="96058"/>
    <path d="M310.397 35.243l-2.248 7.695 3.17 7.882-7.335 6.842 13.33 15.327-9.642 5.163-7.369 19.407 4.122 7.092 3.813 13.83-12.943-2.202-4.865 2.121-5.92-.838-2.409-26.922-4.177-34.954 7.137-20.315 3.978-3.92 21.358 3.792z" id="98337"/>
    <path d="M716.123 488.346l.334 17.544-6.83 1.476-6.31 11.079 8.05 11.939-13.019 2.922-3.493 9.472-19.85-23.19.07-13.71 3.808-6.844-7.726-9.487-.257-8.398 19.92-7.118 3.35-20.503 8.817 10.796 13.136 24.022z" id="96904"/>
    <path d="M348.61 54.425l6.679 17.07 6.517-2.235 5.685 10.66 8.36 12.165 6.378 19.37-3.262 4.28-18.484-9.269-7.282 16.919-.128-9.243-7.89.048-6.67-9.023-15.895 4.45-5.47-3.43-12.723-1.536-4.122-7.092 7.37-19.407 9.642-5.163-13.33-15.327 7.335-6.842-3.171-7.882 2.248-7.695 7.097 4.42 4.918 7.92 16.769 2.908 9.43 3.934z" id="99370"/>
    <path d="M518.75 118.062l4.4 11.044-5.818 3.195.055 13.113-4.058 2.657.734 10.926-9.2-2.201-17.397 8.249-9.956-5.15-9 5.675-12.043-2.219-3.34-4.772 7.617-5.52-10.42-13.516-11.795 3.186-9.463 7.746 5.951-8.823-4.026-18.025 10.195-6.327 10.322 6.744 9.041-8.39 4.344 4.459 8.416-9.28 5.133-.631 11.576 10.414 28.733-2.554z" id="98649"/>
    <path d="M409.386 508.928l-13.206.21-8.238-2.671-12.925 3.115-12.077.022-3.912-6.324-5.217-29.497 1.076-11.676 3.752-7.639 9.66-1.24-.4 10.206 7.247 11.27 8.848 5.233-1.708 5.164 4.818 9.609 8 5.037 15.137-2.494-.855 11.675z" id="99441"/>
    <path d="M259.14 102.309l-21.926 4.977-16.977 9.146-1.481-5.153-15.013.386-16.847 4.565-18.03-8.736-6.173 10.997-15.503 1.376-5.841 6.32-14.229-9.579-9.007-21.647-6.265-6.202-11.297-17.618-2.732-7.687 9.518-4.537 16.84 8.28 16.463 1.865 14.166-6.08 14.33 8.688 13.709 1.787 25.863-.653 5.166-3.45 23.822 2.533 9.364 9.857 12.08 20.565z" id="96815"/>
    <path d="M468.683 340.472l13.47 7.616 6.286 6.326-16.316 5.85-.4 12.117-10.397 9.119 6.017 16.734-8.727 5.946-33.485-7.618-11.394-10.966-1.292-9.117 7.49 2.953 10.909-2.358 3.915-5.886-2.982-7.14 2.488-14.027 11.224-17.41 7.333 9.455 4.037-3.814 11.824 2.22z" id="100219"/>
    <path d="M425.13 396.562l3.067 14.262L444 432.705l-7.056 3.95-1.848 11.776-13.748 4.23-12.825-15.262-21.67 13.426-8.316-10.018-.257-7.573-12.574-.11-2.784-2.383 3.752-22.563.91.774 7.053-.118 24.515-9.075 5.975.128 6.686-7.175 1.924-7.116 11.394 10.966z" id="99673"/>
    <path d="M435.096 448.431l7.402 12.732 3.616 10.692-.51 17.631-22.514 8.953-13.704 10.488.855-11.674-15.138 2.494-7.999-5.037-4.818-9.61 1.708-5.163-8.848-5.232-7.247-11.27.4-10.206-2.593-20.104 12.574.109.257 7.573 8.316 10.018 21.67-13.426 12.825 15.261 13.748-4.229z" id="99780"/>
    <path d="M195.064 212.79l-5.375 3.775 4.391 15.738-3.021 8.233 8.594 11.852-4.46 7.948-19.296 9.555-8.02-.923-20.038 5.509-5.84-.638 8.768-6.66-2.573-8.399 4.772-4.637 2.191-9.83-1.82-7.19 4.99-7.507 14.088-4.318-10.901-15.182 4.703-.075 9.716-10.453 2.733 9.83 8.258-6.77 8.14 10.142z" id="98774"/>
    <path d="M726.58 380.009l-9.407 14.456-2.192 1.484-6.229-7.265-13.61-.27-5.735-6.345-6.463 3.415-6.128-6.337-12.025.186-7.69-11.666.8-8.697-6.97-10.13-6.665-4.523-.673-13.6 3.24-9.136 3.401 3.883 20.344 4.76 10.22 15.502 10.746 12.479 19.952 5.615-6.025 5.621 7.085 5.286 5.267-1.634 8.758 6.916z" id="98603"/>
    <path d="M242.405 282.388l-.463-2.91-14.815-5.684 3.98-8.88 5.615-7.007 2.396-9.643 6.364-3.72.606-7.476 7.37-2.948 9.06 21.769-5.795 2.133 9.511 13.727-19.36 11.278-4.469-.639z" id="95471"/>
    <path d="M201.987 360.844l4.923 2.456 9.596 27.661 6.198-1.17-15.622 10.197-5.772-1.7-10.066-18.12 9.333-4.962-6.251-9.978.452-8.028 7.21 3.644z" id="100335"/>
    <path d="M535.657 321.835l-4.512 7.89-.941 28.583 10.27 18.652 8.326 6.821-2.897 7.73 13.398 6.122-1.304 9.228-9.454-6.844-15.738 5.885-17.151-.943.006-14.117-2.606-20.352-2.995-7.826-6.547-.156 1.053-5.954 8.852-4.246-1.979-11.661 7.306-5.2 5.243-.768 8.282-15.155 3.388 2.31z" id="96254"/>
    <path d="M470.945 255.99l6.802 23.166 5.183 8.324-.505 10.181 15.583 3.303 7.875-1.89 1.953 10.496 12.337 7.13 1.034 9.678-2.463 9.069-7.306 5.2 1.98 11.66-8.853 4.247-1.053 5.954-15.073-8.094-6.286-6.326-13.47-7.616.785-7.216-6.798-21.26-3.012-11.835-5.674-3.32 5.07-12.733 6.723.03-2.364-16.85-4.145-15.932 11.677 4.633z" id="97919"/>
    <path d="M210.556 276.398l-8.963 8.13-4.767-3.964-6.08 7.75 5.784 16.345-7.421 7.079-7.943 1.09-4.137-6.588-2.903-12.942-10.154-10.455-5.417-.113-10.716-8.253 20.038-5.51 8.02.924 19.296-9.555 3.944 8.112 11.42 7.95z" id="97465"/>
  </g>
</svg>
