<svg xmlns="http://www.w3.org/2000/svg" version="1.2" baseProfile="tiny" stroke-linecap="round" stroke-linejoin="round" viewBox="0 0 800 790">
  <g id="MH" fill="none" stroke="#aaa">
    <path d="M471.64 725.397l25.13 1.787.298 12.594 17.118.66-.15 7.192 15.734-.727 8.6 12.952-9.997 9.56-11.315 19.633-21.411-3.347-14.59-10.14-15.261-14.723-1.404-9.547 7.248-25.894z" id="113493"/>
    <path d="M542.726 708.746l10.743 8.32-.345 14.315 17.009 7.685.053 5.683-28.396-1.317-3.42 16.423-8.6-12.952-15.733.727.149-7.191-17.118-.66-.298-12.595 16.093-11.332 5.87-8.831 23.994 1.725z" id="112744"/>
    <path d="M537.635 695.327l5.091 13.419-23.994-1.725-5.87 8.831-16.092 11.332-25.13-1.787-8.916-37.006 21.491-3.164 21.65 6.724 4.928-6.921 7.9 9.598 18.942.698z" id="111444"/>
    <path d="M462.724 688.39l8.916 37.007-7.248 25.894 1.404 9.547-16.723-10.818-15.176-6.117-9.327-7.428 5.58-22.242 7.655-.19.752-16.833-8.587 1.796 12.758-22.004 19.996 11.389z" id="114079"/>
    <path d="M589.79 678.582l2.488 15.795 9.93 4.374-9.835 13.874 12.525 7.847-5.169 30.466-7.137 2.868-6.357-8.363-16.05-.694-.052-5.683-17.01-7.685.346-14.315-10.743-8.32-5.091-13.42 15.584-1.537.776-14.385 17.094 4.271 1.402-9.147 17.298 4.054z" id="111550"/>
    <path d="M536.503 655.611l28.659 10.127 7.329 8.79-1.402 9.147-17.094-4.271-.776 14.385-15.584 1.538-18.941-.699-7.9-9.598 7.187-5.679-10.147-7.689 21.47-7.2-.095-11.037 7.294 2.186z" id="114060"/>
    <path d="M424.61 653.057l16.754 8.33 8.386 8.527-7.022 7.088-12.758 22.004 8.587-1.796-.752 16.833-7.655.19-5.58 22.242-25.394-27.749-22.965-4.741 12.32-12.705-.316-11.075 9.447-11.452 13.392-22.35 13.556 6.654z" id="111783"/>
    <path d="M529.209 653.425l.095 11.036-21.47 7.201 10.147 7.69-7.188 5.678-4.928 6.92-21.65-6.723-21.49 3.164-19.997-11.389 7.022-7.088-8.386-8.527 8.081-9.763 13.74-9.455 29.059 13.946 36.965-2.69z" id="113849"/>
    <path d="M598.85 605.814l9.728 4.195 6.022 12.164-13.12 34.34-8.625 6.99-3.066 15.08-17.298-4.055-7.33-8.79-28.658-10.127 9.37-19.827 3.73.81 3.288-23.58 27.594-9.162 18.365 1.962z" id="112771"/>
    <path d="M449.445 651.624l-8.081 9.763-16.754-8.33 12.683-17.673 3.615 11.831 8.537 4.409zm-94.46-56.485l19.958 16.826 3.588 12.613 5.99 3.06 12.974-2.662 12.494 6.56-17.275 23.517-28.666 11.374.752-10.996-7.035-14.526-14.819-7.377-15.415-1.048-12.858-4.81-.022-9.318 12.193-15.66 17.738 4.719 10.403-12.272z" id="112030"/>
    <path d="M513.73 598.162l5.47 10.258 33.691 4.595-3.288 23.579-3.73-.81-9.37 19.827-7.294-2.186-36.965 2.69-29.06-13.946 17.443-23.156-12.25-6.54 8.496-11.016 8.143-11.47 7.45 14.143 6.175-4.983 15.089-.986z" id="113395"/>
    <path d="M441.13 569.794l3.653 11.274 18.206 9.997 4.495-2.934 9.389 13.326-8.496 11.016 12.25 6.54-17.442 23.156-13.74 9.455-8.537-4.409-3.615-11.831-12.683 17.673-13.556-6.654 6.397-11.03-7.462-3.838-12.494-6.56-12.974 2.662.557-17.35 5.703.684 1.312-18.234 33.738-24.118 15.3 1.175z" id="112879"/>
    <path d="M567.606 558.254l3.511 17.188 14.725.098 7.935 12.722 9.658 2.372-4.585 15.18-18.365-1.962-27.594 9.163-33.69-4.595-5.471-10.258 3.247-18.992 8.447-20.112 7.49-11.489 27.973-.593 6.719 11.278z" id="113929"/>
    <path d="M532.914 547.57l-7.49 11.488-8.447 20.112-3.247 18.992-15.089.985-6.175 4.982-7.45-14.143-8.143 11.471-9.39-13.326 17.918-16.717 11.26-23.422 13.843-9.843 10.53 1.007 11.88 8.413z" id="111417"/>
    <path d="M635.966 548.168l18.264 16.022 9.66 4.416.28 8.519-16.459 10.163 2.182 7.42-10.034 21.678-25.26 5.787-6.02-12.164-9.73-4.195 4.586-15.18-9.658-2.372-7.935-12.722-14.725-.098-3.511-17.188-1.024-5.143 14.529-5.309 1.257-6.479 21.485 5.09 3.276-18.789 28.837 20.544z" id="110535"/>
    <path d="M316.753 527.16l26.426 15.408-14.968 10.045 30.258 18.898 3.363 4.294-6.847 19.334-10.403 12.272-17.738-4.72-12.193 15.66.022 9.319-16.782-5.573-8.432-13.572-12.924-13.339-10.24-32.31-.267-28.617 18.395 16.944 5.816-4.046 12.631-20.82 13.883.824z" id="111863"/>
    <path d="M394.762 524.408l23.17 23.72 21.198 13.812 2 7.854-15.3-1.175-33.737 24.118-1.312 18.234-5.703-.684-.557 17.35-5.99-3.059-3.588-12.613-19.958-16.826 6.847-19.334-3.363-4.294-30.258-18.898 14.968-10.045 6.663-12.71 10.062-8.668 9.225.976 20.484 10.992 5.149-8.75z" id="112548"/>
    <path d="M523.597 508.225l1.569 9.122-10.486 12.862-19.575-7.177-4.688 7.257 20.087 7.86-13.843 9.843-11.26 23.422-17.917 16.717-4.495 2.934-18.206-9.997-3.653-11.274-2-7.854.473-8.252 9.64-9.14-6.828-22.95 3.908-10.46 11.98-11.632 15.058 9.437 5.085-18.885 9.382 8.09 12.164 2.874 15.535-1.226 8.07 8.43z" id="110232"/>
    <path d="M574.29 496.138l7.326 1.165-7.048 17.198 6.585 4.98 25.976 8.143-3.276 18.79-21.485-5.09-1.257 6.478-14.529 5.309 1.024 5.143-6.719-11.278-27.973.593-11.88-8.413-10.53-1.007-20.087-7.86 4.688-7.257 19.575 7.177 10.486-12.862-1.569-9.122 5.556-18.42 24.836 1.5 20.3 4.833z" id="112806"/>
    <path d="M513.581 456.138l16.748 9.32 27.196 5.563 15.38 8.287 1.385 16.83-20.301-4.833-24.837-1.5-5.555 18.42-8.07-8.43-15.535 1.227-12.164-2.874-9.382-8.09-6.49-10.107 19.996-8.563 8.424-11.04 13.205-4.21z" id="113153"/>
    <path d="M378.14 460.261l11.611 13 23.88 9.987 3.427 17.81-14.88 10.369-7.416 12.981-5.15 8.75-20.483-10.992-9.225-.976-10.062 8.669-6.663 12.71-26.426-15.408 1.363-10.808 15.45-24.86 17.478-20.578-2.221-10.029-7.56-3.215 10.22-15.445 18.48 15.431 8.177 2.604z" id="111480"/>
    <path d="M351.483 442.226l-10.22 15.445 7.56 3.215 2.221 10.03-17.477 20.577-15.45 24.86-1.364 10.808-13.883-.824-12.631 20.82-5.816 4.046-18.395-16.944-20.145-22.09-4-19.69 10.229-7.914 23.637 7.7 17.694-7.24 7.313-18.038 2.061-21.686 11.083-12.238 18.132-1.856 19.45 11.019z" id="110946"/>
    <path d="M643.885 424.656l-20.335 6.906.099 13.486-21.751 4.478-5.28-9.568-23.44 6.476 11.592-31.94 6.1-5.954 7.467-2.581 1.437 8.858 19.554-1.406 15.145-6.992 13.09 1.89-3.678 16.346z" id="111916"/>
    <path d="M501.378 440.395l12.203 15.743-13.205 4.21-8.424 11.04-19.997 8.563-3.844 8.992-26.377-20.793-5.776-3.593 15.93-21.435-10.41-1.095-3.733-12.699 7.087-27.011 43.56 33.177 12.986 4.9z" id="112600"/>
    <path d="M444.832 402.317l-7.087 27.011 3.734 12.7 10.408 1.094-15.93 21.435 5.777 3.593-4.806 11.247-8.734 5.452-14.563-1.601-23.88-9.988-11.61-12.999 33.672-14.574 2.923-8.228-3.82-11.578-11.924-15.897 5.571-7.538 13.473-2.914 15.348.924 2.352-8.578 9.096 10.439z" id="112076"/>
    <path d="M622.407 369.004l-.657 19.344-20.496 3.628-2.917 13.983-7.468 2.581-14.45-12.099-3.57-9.623-19.676-4.871 3.82-13.195-17.466-5.158 8.244-15.502 26.06 3.578-.124 7.986 14.967 6.808 23.752 3.643 9.981-1.103z" id="113974"/>
    <path d="M679.31 347.505l-4.157 8.168 17.105 13.093-3.153 13.598 13.414 4.414 4.755 11.45-10.044 10.487-12.666-5.724-18.151 7.788-22.529 13.877 3.678-16.347-13.089-1.89-15.145 6.992-19.554 1.406-1.437-8.858 2.917-13.983 20.496-3.628.657-19.344 16.197-18.37-12.741-9.897 3.522-7.819 26.604-3.317-4.026 11.754 10.944.032 16.402 6.118z" id="110116"/>
    <path d="M513.091 348.536l-6.346 19.197-7.592 6.591-22.259 9.948-15.223-2.588 4.801-12.639.97-14.104-28.165 14.567-11.95-.878-6.005-17.057-5.165-4.815 17.09-8.828 10.204-15.561-5.916-16.774 16.442 3.947 13.303 16.66 18.977 12.717 16.832-1.348 10.002 10.965z" id="112129"/>
    <path d="M625.863 340.738l12.741 9.897-16.197 18.37-9.98 1.102-23.753-3.643-14.967-6.808.125-7.986-26.061-3.578-1.629-17.92-3.952-9.169-10.445-2.25-2.442-7.1 26.882-6.362 9.621 4.005 12.28-6.458 5.449 11.028 26.452 18.43 11.592 2.351 4.284 6.09z" id="111275"/>
    <path d="M494.158 292.07l8.152 2.426 17.176 17.693 9.817-.536 2.442 7.1 10.445 2.25 3.952 9.17 1.629 17.919-8.244 15.502-15.48-13.653-10.956-1.405-10.002-10.965-16.832 1.348-18.977-12.717-13.303-16.66-16.442-3.947.837-3.689 11.505-14.308 10.666-5.629 11.145 1.017 10.745 13.103 11.725-4.019z" id="111097"/>
    <path d="M393.788 255.518l15.008 12.235 4.619 6.582-3.135 9.094 10.115 7.862 8.703-2.559 9.274 13.174-.837 3.689 5.916 16.774-10.204 15.56-17.09 8.83-9.121-9.75-3.77-8.379-20.688-2.28-2.747-14.188-7.177-11.474.884-7.195-9.101-13.479 11.13.236 10.234-21.96 7.987-2.772z" id="112664"/>
    <path d="M234.946 250.772l-1.459 11.449 10.684 12.645 9.484 5.922 3.816 15.362-3.799 6.93-25.42 5.365-17.987 20.329-4.5-28.402-9.207-7.113-4.442-13.672 7.181-8.962 12.63-5.587 8.288 5.553 14.731-19.819z" id="110063"/>
    <path d="M578.087 302.838l-12.28 6.458-9.622-4.005-26.882 6.363-9.817.535-17.176-17.693-8.152-2.426 3.642-7.52 20.415-1.206 13.692-15.115-10.49-8.175 7.796-11.769 18.817 14.595-.867 11.44 4.507 11.111 9.384 9.236 14.738 1.98 2.295 6.191z" id="110875"/>
    <path d="M497.8 284.55l-3.642 7.52-11.725 4.019-10.745-13.103-11.145-1.017-10.666 5.63-11.505 14.308-9.274-13.175-8.704 2.56-10.114-7.863 3.135-9.094-4.62-6.582 12.765-7.678 14.546-4.422 14.575-17.693-4.695-9.85 12.776-5.208 20.53 7.695 8.784 7.4-5.758 12.128 1.082 10.595 11.781 6.521 2.619 17.308z" id="113625"/>
    <path d="M521.417 260.054l10.49 8.175-13.692 15.115-20.415 1.205-2.619-17.308-11.78-6.521-1.083-10.595 5.758-12.127-8.784-7.4-20.53-7.696-.998-7.923 12.707-3.441 9.656 2.566 13.879-8.264 6.65 17.083 18.874 12.061-4.24 5.866 6.127 19.204z" id="111685"/>
    <path d="M370.25 202.09l-3.142 8.542 15.198 13.317 20.886 14.29-.955 8.037-8.449 9.242-7.987 2.772-10.234 21.96-11.13-.236-7.683-11.224 1.32-18.789-14.985-16.838 4.326-15.863 6.95-9.344-3.325-5.439 11.867-4.37 7.343 3.943z" id="110688"/>
    <path d="M393.075 179.73l9.666 12.763 4.477.332 13.635 14.17.216 11.998 17.49.47 7.426 8.647 4.696 9.85-14.575 17.693-14.546 4.422-12.764 7.678-15.008-12.235 8.45-9.242.954-8.037-20.886-14.29-15.198-13.317 3.142-8.542-.524-20.018 12.258 1.862 11.091-4.205z" id="112263"/>
    <path d="M493.885 205.497l.121.343-13.88 8.264-9.654-2.566-12.708 3.44.998 7.924-12.776 5.208-7.427-8.648-17.49-.47-.216-11.997-13.635-14.17-4.477-.332 14.022-13.483 7.164 9.25 11.397 6.572 25.667 6.213 6.814-8.188 15.811 5.248 10.269 7.392z" id="113698"/>
    <path d="M287.11 116.328l7.283 11.697 12.447 8.532 19.23 32.407 10.92 7.746-12.248 10.45 2.525 16.42-3.172 8.082-4.304-6.403-14.133-5.637-12.222-12.141-4.445 8.799-8.568-.493-11.936 9.029-14.852-9.764 4.153-3.223 12.588-28.104-3.318-10.078 7.794-13.354-4.325-19.485 16.584-4.48z" id="112959"/>
    <path d="M482.185 117.461l3.567 27.74 6.394 16.798 2.748 15.57-2.599 13.3 1.59 14.628-10.269-7.392-15.811-5.248-6.814 8.188-25.667-6.213-11.397-6.572-7.164-9.25-14.022 13.483-9.666-12.764-4.48-5.93-1.293-14.196 11.556-19.36 14.766-3.743 13.9 2.863 8.086-3.482 10.204 8.839 21.666-3.193-4.116-18.877 10.844-9.458 7.977 4.269z" id="110296"/>
    <path d="M467.48 141.527l-21.666 3.193-10.204-8.839-8.085 3.482-9.564-17.618-21.082-4.14-6.356-22.402-.113-12.92 4.731-13.735 13.697.456 3.203 6.1 30.4 22.008.94 6.263 16.79 16.24-.231 16.048 7.54 5.864z" id="112995"/>
    <path d="M482.185 117.461l-7.977-4.269-10.844 9.458 4.116 18.877-7.54-5.864.23-16.048-16.789-16.24-.94-6.263-30.4-22.009-3.203-6.1-13.697-.455-6.132-19.674-9.31-8.012 14.082-8.11 15.549-5.481 2.445 12.498 16.417-1.23L438.49 51.82l14.379 6.51 22.694 36.821 12.936-4.569 8.773 5.815-3.707 11.964-11.379 9.1z" id="109924"/>
    <path d="M393.781 32.752l-14.081 8.11 9.309 8.012 6.132 19.674-4.73 13.735-27.368-3.731-19.135-12.257-3.376-11.772-8.738-10.066L367.123 1l14.985 1.21 8.258 14.85 3.415 15.692z" id="110027"/>
    <path d="M159.028 359.102l-14.056 9.398-6.252 22.505-19.947 26.4-16.604 34.112-6.894 18.384-4.186-21.337-12.457-3.88-17.897-10.211-10.668-20.008 2.49-26.705 14.24-1.832 6.935 9.867 16.81-28.445-2.073-18.79-13.692-4.238-3.842-5.428 5.4-31.34 6.426-23.346 12.183 2.694 15.149 23.05 13.582 7.146 13.93 18.43.62 6.992 15.866 15.26 4.937 1.322z" id="112904"/>
    <path d="M192.116 279.587l4.442 13.672 9.208 7.113 4.499 28.402-12.231 5.08-20.024-2.992-16.205 16.613-2.777 11.627-4.937-1.321-15.866-15.26-.62-6.993-13.93-18.43-13.582-7.145-15.149-23.05-12.183-2.695 5.725-7.723 9.465.768 11.738-15.685-4.496-13.858 7.177-15.564.548-13.414 19.761 7.809 10.268 18.025 26.13 8.45 17.005 1.303 6.27 16.533-.236 8.735z" id="112245"/>
    <path d="M351.04 202.517l3.325 5.44-6.95 9.343-4.326 15.863L358.073 250l-1.32 18.789-4.54 3.278-17.95-1.508.223-10.47-26.51-6.899 6.93-23.947.299-9.69 8.89-7.892 3.172-8.082 23.773-1.063z" id="111818"/>
    <path d="M294.584 253.473l1.518 18.168-10.433 17.916 3.13 9.525-6.831 7.745-15.122-10.97-8.375-.241-3.387 7.993-1.412-.528 3.799-6.93-3.816-15.363-9.484-5.922-10.684-12.645 1.46-11.449-2.66-14.451 12.594-17.633 11.784-1.568 5.307 7.11 11.507.036 10.79 10.416-1.341 9.72 11.656 9.07z" id="112334"/>
    <path d="M390.41 82.283l.113 12.92 6.356 22.401 21.082 4.14 9.564 17.619-13.9-2.863-14.767 3.742-11.556 19.36 1.293 14.197-12.482-17.431-11.361-7.095-3.25-11.296-17.927-17.564-14.199-3.388-20.648.802-2.082-6.748 7.102-8.264-.469-10.618-8.201-.116-9.468-7.953 16.534-18.503 2.877-9.694 16.773-11.473 8.738 10.065 3.376 11.772 19.135 12.257 27.367 3.73z" id="112370"/>
    <path d="M388.595 173.799l4.48 5.93-11.09 4.205-12.259-1.862.524 20.018-7.343-3.944-11.867 4.371-23.773 1.063-2.525-16.42 12.248-10.45-10.92-7.746-19.23-32.407-12.447-8.532-7.282-11.697-3.612-9.027-9.329-5.023 6.588-8.134 14.852-10.016 9.468 7.953 8.201.116.47 10.618-7.103 8.264 2.082 6.748 20.648-.802 14.2 3.388 17.927 17.564 3.249 11.296 11.361 7.095 12.482 17.431z" id="110456"/>
    <path d="M411.054 646.403l-13.392 22.35-9.447 11.452.317 11.075-12.321 12.705-7.584-1.271-11.502-9.924.548-12.57 6.375-13.793 28.666-11.374 17.275-23.518 7.462 3.839-6.397 11.03z" id="113206"/>
    <path d="M680.673 484.616l1.322 10.004-6.263 6.033-20.198 4.534-2.222 12.404 11.097 6.616-6.447 5.87-4.835 17.21-10.35-8.353-6.811 9.234-28.837-20.544-25.976-8.144-6.585-4.98 7.048-17.197-7.326-1.165-1.385-16.83 1.407-1.026 15.413 2.064 4.095-15.697 12.3 1.098-1.646 12.299 28.133 4.076 15.797-4.175 4.356 13.8 27.913-7.131z" id="110571"/>
    <path d="M623.649 445.048l17.89-4.409 11.414 12.362 12.69-6.603 8.214 11.352 13.515-.05.728 7.411 14.938 3.8-2.649 11.21-19.716 4.495-27.913 7.13-4.356-13.8-15.797 4.176-28.133-4.076 1.645-12.299-12.299-1.099-4.095 15.698-15.413-2.064 4.538-11.73-12.843-12.294 7.172-7.824 23.44-6.476 5.279 9.568 21.75-4.478z" id="111587"/>
    <path d="M356.754 268.79l7.683 11.224 9.101 13.48-.884 7.194 7.177 11.474 2.748 14.188 20.687 2.28 3.77 8.379-23.897 2.945.748 12.298-10.293-.351-.79-2.76-2.856-3.76-23.784-9.014-4.796-4.713 4.29-25.454-3.824-12.084-8.168-7.364 1.983-10.242-13.67-3.193-25.877-1.676-1.518-18.168 13.392-.282 26.51 6.9-.223 10.469 17.95 1.508 4.54-3.278z" id="112469"/>
    <path d="M281.968 306.827l5.945 13.648 11.28 4.544 7.483 13.803 14.264 4.486 3.378 6.844 17.76 8.332 18.89-9.08 11.836-.264.79 2.761 3.667 24.78-9.121 4.978-32.704.594-26.896-17.576-4.992-9.158-26.882-32.762-21.582-19.149 3.387-7.992 8.375.24 15.122 10.971z" id="109773"/>
    <path d="M407.036 337.009l9.121 9.75 5.165 4.814 6.005 17.057 5.724 3.971 2.685 19.277-2.352 8.578-15.348-.924-13.473 2.913-5.57 7.54-13.378-15.77-14.486-5.654-2.99-6.902 9.122-4.979-3.667-24.779 10.293.351-.748-12.298 23.897-2.945z" id="109826"/>
    <path d="M372.804 349.14l-11.836.264-18.89 9.08-17.76-8.332-3.378-6.844-14.264-4.486-7.482-13.803-11.28-4.544-5.946-13.648 6.83-7.745-3.13-9.524 10.434-17.917 25.877 1.676 13.67 3.193-1.983 10.242 8.168 7.363 3.824 12.085-4.29 25.454 4.796 4.713 23.784 9.013 2.856 3.76z" id="110820"/>
    <path d="M697.23 408.715l-6.954 9.872-9.924 6.52 3.609 11.888 31.745-1.442 5.34 15.49-15.634.572-18.04 6.084-13.515.05-8.214-11.351-12.69 6.603-11.414-12.362-17.89 4.409-.099-13.486 20.335-6.906 22.528-13.877 18.15-7.788 12.667 5.724z" id="110740"/>
    <path d="M770.617 411.767L799 429.251l-14.794 27.299-7.746 5.276-19.314-12.071-13.248 1.24-11.286 12.6-11.565-12.552-5.341-15.49 4.983-8.976-1.22-11.884 16.902-14.343 9.402 7.04 24.844 4.377z" id="111006"/>
    <path d="M736.37 400.35l-16.901 14.343 1.22 11.884-4.983 8.976-31.745 1.442-3.61-11.888 9.925-6.52 6.954-9.872 10.044-10.487-4.755-11.45-13.414-4.414 3.153-13.598 16.001 1.933 19.755 15.327-.026 10.352 8.383 3.972z" id="113518"/>
    <path d="M770.617 411.767l-24.844-4.377-9.402-7.04-8.383-3.972.026-10.352-19.755-15.327-16.001-1.933-17.105-13.093 4.156-8.168 21.123 2.632 10.53-1.346 12.81 8.123 1.318 10.036 47.798 29.662-2.271 15.155z" id="111989"/>
    <path d="M539.527 363.594l17.465 5.159-3.819 13.194-10.105 9.028-7.49-2.828-3.004 14.706 1.677 15.526-4.878 7.766-16.691-1.266-4.06 14.22-7.244 1.296-12.986-4.9-43.56-33.178-9.096-10.439-2.685-19.277-5.724-3.97 11.95.877 28.166-14.567-.97 14.104-4.802 12.64 15.223 2.587 22.26-9.947 7.591-6.592 6.346-19.197 10.955 1.405 15.48 13.653z" id="113233"/>
    <path d="M553.173 381.947l19.676 4.871 3.57 9.623 14.45 12.1-6.099 5.954-11.591 31.94-7.172 7.823 12.844 12.294-4.539 11.73-1.408 1.026-15.379-8.287-27.196-5.563-16.748-9.32-12.203-15.743 7.244-1.296 4.06-14.22 16.691 1.266 4.878-7.766-1.677-15.526 3.004-14.706 7.49 2.828 10.105-9.028z" id="113732"/>
    <path d="M52.558 387.76l-2.49 26.705 10.667 20.008 17.897 10.212 12.457 3.879 4.186 21.337-10.564 12.767-20.077 1.595-25.727-18.66-7.207-7.65-3.861-18.357-17.658-16.61-4.736-18.563 1.132-12.547L1 383.788l7.717-4.866 17.773-2.483 9.814-8.947 7.182 2.143 9.072 18.125z" id="113607"/>
    <path d="M442.415 521.598l6.828 22.95-9.64 9.14-.473 8.252-21.199-13.812-23.17-23.72 7.417-12.981 14.88-10.369 7.51 1.31 17.847 19.23z" id="113894"/>
    <path d="M471.955 479.951l6.49 10.107-5.084 18.885-15.058-9.437-11.98 11.631-3.908 10.46-17.847-19.23-7.51-1.309-3.427-17.81 14.563 1.6 8.734-5.451 4.806-11.247 26.377 20.793 3.844-8.992z" id="113466"/>
    <path d="M324.095 211.662l-8.89 7.891-.3 9.691-6.93 23.947-13.391.282-11.656-9.071 1.34-9.72-10.789-10.416-11.507-.036-5.307-7.11-11.784 1.568.958-10.245 7.796-13.39 14.852 9.763 11.936-9.03 8.568.494 4.445-8.8 12.222 12.142 14.133 5.637 4.304 6.403z" id="111220"/>
  </g>
</svg>
