<svg xmlns="http://www.w3.org/2000/svg" version="1.2" baseProfile="tiny" stroke-linecap="round" stroke-linejoin="round" viewBox="0 0 800 791">
  <g id="MH" fill="none" stroke="#aaa">
    <path d="M471.64 726.147l25.13 1.788.298 12.594 17.118.66-.15 7.192 15.734-.728 8.6 12.952-9.997 9.56-11.315 19.633-21.411-3.346-14.59-10.14-15.261-14.724-1.404-9.546 7.248-25.895z" data-name="Salcia" class="comuna" id="113493"/>
    <path d="M542.726 709.496l10.743 8.32-.345 14.316 17.009 7.684.053 5.683-28.396-1.317-3.42 16.423-8.6-12.952-15.733.728.149-7.192-17.118-.66-.298-12.594 16.093-11.333 5.87-8.831 23.994 1.725z" data-name="Obîrșia de Cîmp" class="comuna" id="112744"/>
    <path d="M537.635 696.077l5.091 13.42-23.994-1.726-5.87 8.831-16.092 11.333-25.13-1.788-8.916-37.006 21.491-3.163 21.65 6.723 4.928-6.92 7.9 9.598 18.942.698z" data-name="Cujmir" class="comuna" id="111444"/>
    <path d="M462.724 689.141l8.916 37.006-7.248 25.894 1.404 9.547-16.723-10.817-15.176-6.118-9.327-7.428 5.58-22.242 7.655-.19.752-16.833-8.587 1.796 12.758-22.004 19.996 11.389z" data-name="Vrata" class="comuna" id="114079"/>
    <path d="M589.79 679.333l4.562 2.128-2.074 13.666 9.93 4.374-9.835 13.875 12.525 7.847-5.169 30.466-7.137 2.868-6.357-8.364-16.05-.694-.052-5.683-17.01-7.684.346-14.315-10.743-8.32-5.091-13.42 15.584-1.537.776-14.386 17.094 4.272 1.402-9.148 17.298 4.055z" data-name="Dîrvari" class="comuna" id="111550"/>
    <path d="M536.503 656.361l28.659 10.127 7.329 8.79-1.402 9.148-17.094-4.272-.776 14.386-15.584 1.537-18.941-.698-7.9-9.599 7.187-5.678-10.147-7.69 21.47-7.2-.095-11.037 7.294 2.187z" data-name="Braniștea" class="comuna" id="114060"/>
    <path d="M424.61 653.807l16.754 8.33 8.386 8.527-7.022 7.088-12.758 22.004 8.587-1.796-.752 16.834-7.655.19-5.58 22.24-25.394-27.747-22.965-4.742 12.32-12.705-.316-11.074 9.447-11.453 13.392-22.35 13.556 6.654z" data-name="Gârla Mare" class="comuna" id="111783"/>
    <path d="M529.209 654.175l.095 11.036-21.47 7.201 10.147 7.69-7.188 5.678-4.928 6.921-21.65-6.723-21.49 3.163-19.997-11.389 7.022-7.088-8.386-8.527 8.081-9.763 4.199 2.253 9.54-11.707 29.06 13.945 36.965-2.69z" data-name="Vânători" class="comuna" id="113849"/>
    <path d="M598.85 606.564l9.728 4.195-1.7 7.558 7.722 4.606-9.05 24.493-4.592 16.792-8.103.045-3.066 15.08-17.298-4.055-7.33-8.79-28.658-10.127 9.37-19.826 3.73.81 3.288-23.58 27.594-9.163 18.365 1.962z" data-name="Oprișor" class="comuna" id="112771"/>
    <path d="M449.445 652.374l-8.081 9.763-16.754-8.33 12.683-17.673 3.615 11.831 8.537 4.41zm-94.46-56.485l19.958 16.826 3.588 12.614 5.99 3.058 9.38 4.313 3.594-6.974 12.494 6.56-17.275 23.518-18.023 8.874-10.643 2.5.752-10.997-7.035-14.526-14.819-7.376-15.415-1.049-12.858-4.81-.022-9.318 12.193-15.66 17.738 4.72 10.403-12.273z" data-name="Gruia" class="comuna" id="112030"/>
    <path d="M513.73 598.912l5.47 10.258 33.691 4.595-3.288 23.58-3.73-.81-9.37 19.827-7.294-2.187-36.965 2.69-29.06-13.945 17.443-23.156-12.25-6.54 8.496-11.016 8.143-11.471 7.45 14.143 6.175-4.983 15.089-.985z" data-name="Punghina" class="comuna" id="113395"/>
    <path d="M441.13 570.545l3.653 11.273 18.206 9.997 4.495-2.934 9.389 13.327-8.496 11.016 12.25 6.54-17.442 23.156-9.541 11.707-4.199-2.253-8.537-4.409-3.615-11.831-12.683 17.673-13.556-6.653 6.397-11.03-7.462-3.839-12.494-6.559-3.594 6.974-9.38-4.313.557-17.35 5.703.685 1.312-18.235 33.738-24.118 15.3 1.176z" data-name="Pătulele" class="comuna" id="112879"/>
    <path d="M567.606 559.004l3.511 17.189 14.725.097 7.935 12.722 9.658 2.372-4.585 15.18-18.365-1.962-27.594 9.163-33.69-4.595-5.471-10.258 3.247-18.991 8.447-20.113 7.49-11.489 27.973-.592 6.719 11.277z" data-name="Vlădaia" class="comuna" id="113929"/>
    <path d="M532.914 548.32l-7.49 11.488-8.447 20.113-3.247 18.99-15.089.986-6.175 4.983-7.45-14.143-8.143 11.47-9.39-13.326 17.918-16.717 11.26-23.422 13.843-9.843 10.53 1.008 11.88 8.412z" data-name="Corlățel" class="comuna" id="111417"/>
    <path d="M635.966 548.918l18.264 16.022 9.701 4.515.197 8.538-16.417 10.045 2.182 7.42-10.034 21.679-25.26 5.786-7.721-4.606 1.7-7.558-9.728-4.195 4.585-15.18-9.658-2.372-7.935-12.722-14.725-.097-3.511-17.189-1.024-5.143 14.529-5.308 1.257-6.48 21.485 5.09 3.276-18.789 28.837 20.544z" data-name="Bălăcița" class="comuna" id="110535"/>
    <path d="M316.753 527.911l26.426 15.408-1.62 4.893-13.348 5.151 30.258 18.898 3.363 4.294-6.847 19.334-10.403 12.272-17.738-4.72-12.193 15.661.022 9.318-16.782-5.573-8.432-13.571-12.924-13.34-10.24-32.31-.267-28.616 18.395 16.943 5.816-4.045 12.631-20.82 13.883.823z" data-name="Gogoșu" class="comuna" id="111863"/>
    <path d="M394.762 525.159l23.17 23.72 21.198 13.811 2 7.855-15.3-1.176-33.737 24.118-1.312 18.235-5.703-.685-.557 17.35-5.99-3.058-3.588-12.614-19.958-16.826 6.847-19.334-3.363-4.294-30.258-18.898 13.348-5.15 1.62-4.894 6.663-12.71 10.062-8.669 9.225.976 20.484 10.992 5.149-8.75z" data-name="Jiana" class="comuna" id="112548"/>
    <path d="M523.597 508.976l1.569 9.121-10.486 12.862-19.575-7.176-4.688 7.256 20.087 7.86-13.843 9.843-11.26 23.422-17.917 16.717-4.495 2.934-18.206-9.997-3.653-11.273-2-7.855.473-8.251 9.64-9.14-6.828-22.95 3.908-10.461 11.98-11.632 15.058 9.437 5.085-18.885 9.382 8.09 12.164 2.874 15.535-1.226 8.07 8.43z" data-name="Vînju Mare" class="oras" id="110232"/>
    <path d="M574.29 496.889l7.326 1.164-7.048 17.198 6.585 4.98 25.976 8.143-3.276 18.79-21.485-5.09-1.257 6.479-14.529 5.308 1.024 5.143-6.719-11.278-27.973.593-11.88-8.412-10.53-1.008-20.087-7.86 4.688-7.256 19.575 7.176 10.486-12.862-1.569-9.121 5.556-18.421 24.836 1.5 20.3 4.834z" data-name="Pădina" class="comuna" id="112806"/>
    <path d="M513.581 456.889l16.748 9.32 27.196 5.562 15.38 8.287 1.385 16.83-20.301-4.833-24.837-1.5-5.555 18.42-8.07-8.429-15.535 1.226-12.164-2.874-9.382-8.09-6.49-10.107 19.996-8.562 8.424-11.04 13.205-4.21z" data-name="Poroina Mare" class="comuna" id="113153"/>
    <path d="M378.14 461.012l11.611 12.999 23.88 9.987 3.427 17.81-14.88 10.37-7.416 12.98-5.15 8.75-20.483-10.992-9.225-.976-10.062 8.669-6.663 12.71-26.426-15.408 1.363-10.808 15.45-24.86 17.478-20.577-2.221-10.03-7.56-3.214 10.22-15.446 18.48 15.432 8.177 2.603z" data-name="Devesel" class="comuna" id="111480"/>
    <path d="M351.483 442.976l-10.22 15.446 7.56 3.214 2.221 10.03-17.477 20.577-15.45 24.86-1.364 10.808-13.883-.823-12.631 20.82-5.816 4.045-18.395-16.943-20.145-22.09-4-19.691 10.229-7.914 23.637 7.7 17.694-7.24 7.313-18.038 2.061-21.686 11.083-12.238 18.132-1.856 19.45 11.02z" data-name="Burila Mare" class="comuna" id="110946"/>
    <path d="M643.885 425.406l-20.335 6.906.099 13.486-21.751 4.478-5.28-9.568-23.44 6.476 11.592-31.939 6.1-5.954 7.467-2.582 1.437 8.858 19.554-1.406 15.145-6.991 13.09 1.89-3.678 16.346z" data-name="Greci" class="comuna" id="111916"/>
    <path d="M501.378 441.145l12.203 15.744-13.205 4.21-8.424 11.04-19.997 8.562-3.844 8.992-26.377-20.792-5.776-3.594 15.93-21.434-10.41-1.095-3.733-12.7 7.087-27.011 43.56 33.178 12.986 4.9z" data-name="Livezile" class="comuna" id="112600"/>
    <path d="M444.832 403.067l-7.087 27.011 3.734 12.7 10.408 1.095-15.93 21.434 5.777 3.594-4.806 11.246-8.734 5.452-9.064-5.595-5.5 3.994-23.879-9.987-11.61-13 33.672-14.574 2.923-8.228-3.82-11.578-11.924-15.896 5.571-7.54 13.473-2.912 15.348.923 2.352-8.578 9.096 10.439z" data-name="Hinova" class="comuna" id="112076"/>
    <path d="M622.407 369.755l-.657 19.344-20.496 3.628-2.917 13.982-7.468 2.582-1.004-7.125-12.443-4.2-4.573-10.398-11.34-.195-8.336-4.676 3.82-13.194-17.466-5.16 8.244-15.5 25.085 2.622.85 8.94 14.968 6.81 23.752 3.642 9.981-1.102z" data-name="Voloiac" class="comuna" id="113974"/>
    <path d="M679.31 348.255l-4.157 8.168 17.105 13.094-3.153 13.597 13.414 4.414 4.755 11.45-10.044 10.487-12.666-5.724-18.151 7.788-22.529 13.877 3.678-16.346-13.089-1.89-15.145 6.991-19.554 1.406-1.437-8.858 2.917-13.982 20.496-3.628.657-19.344 17.201-21.245-13.745-7.022-2.254-12.887 11.502 5.041 20.878-3.291-4.026 11.754 10.944.032 16.402 6.118z" data-name="Strehaia" class="oras" id="110116"/>
    <path d="M513.091 349.287l-6.346 19.196-7.592 6.592-22.259 9.947-15.223-2.588 4.801-12.638.97-14.105-28.165 14.568-11.95-.879-6.005-17.057-5.165-4.814 17.09-8.829 10.204-15.56-5.32-6.397-.596-10.378 16.442 3.947 13.303 16.66 18.977 12.717 16.832-1.347 10.002 10.965z" data-name="Husnicioara" class="comuna" id="112129"/>
    <path d="M625.863 341.488l13.745 7.022-17.2 21.245-9.982 1.102-23.752-3.643-14.967-6.808-.851-8.941-25.085-2.623-1.629-17.919-3.952-9.17-10.445-2.249-2.442-7.1 26.882-6.362 9.621 4.005 12.28-6.459 5.449 11.028 26.452 18.43 11.592 2.351 4.284 6.09z" data-name="Corcova" class="comuna" id="111275"/>
    <path d="M494.158 292.82l8.152 2.427 17.176 17.692 9.817-.535 2.442 7.1 10.445 2.25 3.952 9.17 1.629 17.918-8.244 15.502-15.48-13.653-10.956-1.404-10.002-10.965-16.832 1.347-18.977-12.717-13.303-16.66-16.442-3.947.837-3.688 11.505-14.308 10.666-5.63 11.145 1.017 10.745 13.103 11.725-4.018z" data-name="Căzănești" class="comuna" id="111097"/>
    <path d="M393.788 256.268l15.008 12.236 4.619 6.581-3.135 9.095 10.115 7.861 8.703-2.559 9.274 13.175-.837 3.688.597 10.378 5.319 6.396-10.204 15.561-17.09 8.829-9.121-9.75-3.77-8.379-20.688-2.28-2.747-14.187-7.177-11.475.884-7.194-9.101-13.48 11.13.236 10.234-21.96 7.987-2.772z" data-name="Malovăț" class="comuna" id="112664"/>
    <path d="M234.946 251.523l-1.459 11.448 10.684 12.645 9.484 5.923 3.816 15.362-3.799 6.93-25.42 5.364-17.987 20.33-4.5-28.403-9.207-7.113-4.442-13.672 7.181-8.961 12.63-5.588 8.288 5.553 9.028-2.738-1.262-7.813 6.965-9.267z" data-name="Orșova" class="municipiu" id="110063"/>
    <path d="M578.087 303.588l-12.28 6.459-9.622-4.005-26.882 6.362-9.817.535-17.176-17.692-8.152-2.426 3.642-7.521 20.415-1.206 13.692-15.115-10.49-8.175 7.796-11.769 18.817 14.595 2.5 14.359 3.093 11.58 7.43 5.849 13.483 1.764 3.55 6.406z" data-name="Broșteni" class="comuna" id="110875"/>
    <path d="M497.8 285.3l-3.642 7.52-11.725 4.019-10.745-13.103-11.145-1.016-10.666 5.629-11.505 14.308-9.274-13.175-8.704 2.56-10.114-7.862 3.135-9.095-4.62-6.581 12.765-7.68 14.546-4.42 14.575-17.694-4.695-9.85 12.776-5.208 20.53 7.696 8.784 7.4-5.758 12.127 1.082 10.595 11.781 6.522L497.8 285.3z" data-name="Șișești" class="comuna" id="113625"/>
    <path d="M521.417 260.804l10.49 8.175-13.692 15.115L497.8 285.3l-2.619-17.308-11.78-6.522-1.083-10.595 5.758-12.127-8.784-7.4-20.53-7.696-.998-7.923 12.707-3.44 9.656 2.566 13.879-8.265 6.65 17.084 18.874 12.06-.843 5.716-3.223 3.237 5.953 16.117z" data-name="Florești" class="comuna" id="111685"/>
    <path d="M370.25 202.84l-3.142 8.542 7.064 6.083-4.3 6.97 7.47 8.073 4.964-7.808 20.886 14.29-.955 8.036-8.449 9.242-7.987 2.773L375.567 281l-11.13-.236-7.683-11.225 1.32-18.788-14.985-16.839 4.326-15.863 6.95-9.343-3.325-5.44 11.867-4.37 7.343 3.943z" data-name="Bîlvănești" class="comuna" id="110688"/>
    <path d="M393.075 180.48l9.666 12.763 4.477.332 13.635 14.17.216 11.998 17.49.47 7.426 8.647 4.696 9.85-14.575 17.693-14.546 4.422-12.764 7.679-15.008-12.236 8.45-9.242.954-8.037-20.886-14.29-4.964 7.809-7.47-8.073 4.3-6.97-7.064-6.083 3.142-8.542-.524-20.017 12.258 1.861 11.091-4.204z" data-name="Ilovăț" class="comuna" id="112263"/>
    <path d="M493.885 206.247l.121.343-13.88 8.265-9.654-2.567-12.708 3.441.998 7.923-12.776 5.208-7.427-8.647-17.49-.47-.216-11.997-13.635-14.17-4.477-.333 14.022-13.482 7.164 9.249 10.443-.589.954 7.161 25.667 6.214 6.814-8.19 15.811 5.249 10.269 7.392z" data-name="Șovarna" class="comuna" id="113698"/>
    <path d="M287.11 117.079l7.283 11.696 12.447 8.532 19.23 32.407 10.92 7.746-12.248 10.45 2.525 16.42-3.172 8.082-4.304-6.403-14.133-5.637-12.222-12.14-4.445 8.798-8.568-.493-11.936 9.03-14.852-9.764 4.153-3.224 12.588-28.103-3.318-10.079 7.794-13.354-4.325-19.485 16.584-4.48z" data-name="Podeni" class="comuna" id="112959"/>
    <path d="M482.185 118.211l3.567 27.74 6.394 16.798.642 20.415 1.097 23.083-10.269-7.392-15.811-5.248-6.814 8.189-25.667-6.214-.954-7.161-10.443.589-7.164-9.25-14.022 13.483-9.666-12.763-4.48-5.93-1.293-14.197 11.556-19.36 14.766-3.743 13.9 2.863 8.086-3.481 10.204 8.838 19.32-.3 2.346-2.892-4.116-18.877 10.844-9.459 7.977 4.27z" data-name="Bala" class="comuna" id="110296"/>
    <path d="M467.48 142.278l-2.346 2.891-19.32.301-10.204-8.838-8.085 3.481-9.564-17.618-21.082-4.14-6.356-22.401-.113-12.92 4.731-13.736 13.697.456 3.203 6.1 30.4 22.008.94 6.263 16.79 16.24-.231 16.049 7.54 5.864z" data-name="Ponoarele" class="comuna" id="112995"/>
    <path d="M482.185 118.211l-7.977-4.269-10.844 9.459 4.116 18.877-7.54-5.864.23-16.049-16.789-16.24-.94-6.263-30.4-22.009-3.203-6.1-13.697-.455-6.132-19.674-9.31-8.012 14.082-8.11 15.549-5.48 2.445 12.497 16.417-1.229 10.297 13.28 14.379 6.51L475.562 95.9l12.906-4.56 8.803 5.806-3.707 11.964 2.798 7.365-14.177 1.735z" data-name="Baia de Aramă" class="oras" id="109924"/>
    <path d="M393.781 33.503l-14.081 8.11 9.309 8.011 6.132 19.674-4.73 13.735-27.368-3.73-19.135-12.258-3.376-11.772-8.738-10.065 4.225-7.587L367.9 1l9.054 6.055 5.154-4.094 8.258 14.849 3.415 15.693z" data-name="Obîrșia-Cloșani" class="comuna" id="110027"/>
    <path d="M159.028 359.853l-14.056 9.397-6.252 22.505-19.947 26.4-16.604 34.112-6.894 18.384-4.186-21.337-12.457-3.88-17.897-10.21-10.668-20.009 2.905-11.814-.414-14.89 14.24-1.833 6.934 9.867 16.81-28.444-2.073-18.791-13.692-4.238-3.842-5.428 6.864-34.269 4.962-20.417 12.183 2.694 15.149 23.051 13.582 7.146 13.93 18.43.62 6.991 15.866 15.26 4.937 1.323z" data-name="Dubova" class="comuna" id="112904"/>
    <path d="M192.116 280.337l4.442 13.672 9.208 7.113 4.499 28.402-12.231 5.081-20.024-2.993-16.205 16.613-2.777 11.628-4.937-1.322-15.866-15.26-.62-6.993-13.93-18.43-13.582-7.145-15.149-23.05-12.183-2.695 5.725-7.723 14.524-2.909 6.679-12.008-4.496-13.858 7.177-15.564.292-14.065 16.31 7.271 3.707 1.189 10.268 18.026 18.84 4.192 7.29 4.258 17.005 1.303 6.27 16.532-.236 8.735z" data-name="Eșelnița" class="comuna" id="112245"/>
    <path d="M351.04 203.267l3.325 5.44-6.95 9.343-4.326 15.863 14.984 16.839-1.32 18.788-4.54 3.278-17.95-1.508.223-10.469-26.51-6.9 1.24-11.546 5.69-12.4.299-9.691 8.89-7.892 3.172-8.082 23.773-1.063z" data-name="Godeanu" class="comuna" id="111818"/>
    <path d="M294.584 254.223l-1.858 13.248 3.376 4.92-10.433 17.917 3.13 9.524-6.831 7.745-8.294-2.467-6.828-8.503-8.375-.24-3.387 7.992-1.412-.528 3.799-6.93-3.816-15.362-9.484-5.923-10.684-12.645 1.46-11.448-2.66-14.452 12.594-17.633 11.784-1.568 5.307 7.11 11.507.037 10.79 10.415-1.341 9.72 11.656 9.071z" data-name="Ilovița" class="comuna" id="112334"/>
    <path d="M390.41 83.033l.113 12.92 6.356 22.401 21.082 4.141 9.564 17.618-13.9-2.863-14.767 3.743-11.556 19.36 1.293 14.196-12.482-17.43-11.361-7.096-3.25-11.296-17.927-17.564-14.199-3.387-20.648.8-2.082-6.747 7.102-8.264-.469-10.617-8.201-.116-9.468-7.953 16.534-18.504 2.877-9.694 16.773-11.473 8.738 10.065 3.376 11.772 19.135 12.257 27.367 3.731z" data-name="Isverna" class="comuna" id="112370"/>
    <path d="M388.595 174.55l4.48 5.93-11.09 4.204-12.259-1.861.524 20.017-7.343-3.944-11.867 4.371-23.773 1.063-2.525-16.42 12.248-10.45-10.92-7.746-19.23-32.407-12.447-8.532-7.282-11.696-3.612-9.027-9.329-5.024 6.588-8.134L295.61 84.88l9.468 7.953 8.201.116.47 10.617-7.103 8.264 2.082 6.748 20.648-.801 14.2 3.387 17.927 17.564 3.249 11.296 11.361 7.095 12.482 17.431z" data-name="Balta" class="comuna" id="110456"/>
    <path d="M411.054 647.154l-13.392 22.349-9.447 11.452.317 11.075-12.321 12.705-7.584-1.27-11.502-9.925.548-12.57 6.375-13.792 10.643-2.5 18.023-8.874 17.275-23.519 7.462 3.839-6.397 11.03z" data-name="Pristol" class="comuna" id="113206"/>
    <path d="M680.673 485.366l2.335 11.622-7.276 4.415-20.198 4.535-2.222 12.403 11.097 6.617-3.662 5.766-7.62 17.313-10.35-8.352-6.811 9.233-28.837-20.544-25.976-8.143-6.585-4.98 7.048-17.197-7.326-1.165-1.385-16.83 1.407-1.027 15.413 2.064 4.095-15.697 12.3 1.098-1.646 12.3 28.133 4.075 15.797-4.175 4.356 13.8 27.913-7.131z" data-name="Bîcleș" class="comuna" id="110571"/>
    <path d="M623.649 445.798l17.89-4.409 11.414 12.362 12.69-6.603 8.214 11.352 13.515-.05.728 7.411 14.938 3.8-2.649 11.21-19.716 4.495-27.913 7.13-4.356-13.799-15.797 4.175-28.133-4.076 1.645-12.299-12.299-1.098-4.095 15.697-15.413-2.064 4.538-11.73-12.843-12.294 7.172-7.823 23.44-6.477 5.279 9.568 21.75-4.478z" data-name="Dumbrava" class="comuna" id="111587"/>
    <path d="M356.754 269.54l7.683 11.225 9.101 13.479-.884 7.194 7.177 11.475 2.748 14.188 20.687 2.28 3.77 8.378-23.897 2.945.748 12.298-10.293-.35-.79-2.762-2.856-3.76-23.784-9.012-4.796-4.714 4.29-25.454-3.824-12.084-8.168-7.363 1.983-10.243-13.67-3.193-25.877-1.676-3.376-4.92 1.858-13.248 13.392-.281 26.51 6.899-.223 10.469 17.95 1.508 4.54-3.278z" data-name="Izvoru Bîrzii" class="comuna" id="112469"/>
    <path d="M281.968 307.577l5.945 13.649 11.28 4.544 7.483 13.802 14.264 4.487 3.378 6.843 17.76 8.333 18.89-9.08 11.836-.265.79 2.761 3.667 24.78-9.121 4.978-32.704.594-26.896-17.575-4.992-9.16-26.882-32.76-21.582-19.15 3.387-7.992 8.375.24 6.828 8.504 8.294 2.467z" data-name="Drobeta-Turnu Severin" class="municipiu resedinta" id="109773"/>
    <path d="M407.036 337.76l9.121 9.749 5.165 4.814 6.005 17.058 5.724 3.97 2.685 19.277-2.352 8.578-15.348-.923-13.473 2.913-5.57 7.539-13.378-15.769-14.486-5.655-2.99-6.902 9.122-4.978-3.667-24.78 10.293.351-.748-12.298 23.897-2.945z" data-name="Șimian" class="comuna" id="109826"/>
    <path d="M372.804 349.89l-11.836.265-18.89 9.08-17.76-8.333-3.378-6.843-14.264-4.487-7.482-13.802-11.28-4.544-5.946-13.649 6.83-7.745-3.13-9.524 10.434-17.917 25.877 1.676 13.67 3.193-1.983 10.243 8.168 7.363 3.824 12.084-4.29 25.454 4.796 4.714 23.784 9.013 2.856 3.76z" data-name="Breznița-Ocol" class="comuna" id="110820"/>
    <path d="M697.23 409.465l-6.954 9.873-9.924 6.52 3.609 11.888 31.745-1.442 5.34 15.49-15.634.572-18.04 6.084-13.515.05-8.214-11.352-12.69 6.603-11.414-12.362-17.89 4.409-.099-13.486 20.335-6.906 22.528-13.877 18.15-7.788 12.667 5.724z" data-name="Breznița-Motru" class="comuna" id="110740"/>
    <path d="M770.617 412.517L799 430.001l-1.85 13.135-13.332 7.508-3.986 8.321-3.397 3.695-19.288-12.155-13.25 1.241-11.285 12.6-11.565-12.553-5.341-15.49 4.983-8.975-1.22-11.884L736.37 401.1l9.402 7.04 24.844 4.377z" data-name="Butoiești" class="comuna" id="111006"/>
    <path d="M736.37 401.1l-16.901 14.344 1.22 11.884-4.983 8.976-31.745 1.442-3.61-11.888 9.925-6.52 6.954-9.873 10.044-10.486-4.755-11.451-13.414-4.414 3.153-13.597 16.001 1.933 19.755 15.326-.026 10.352 8.383 3.973z" data-name="Stîngăceaua" class="comuna" id="113518"/>
    <path d="M770.617 412.517l-24.844-4.376-9.402-7.04-8.383-3.973.026-10.352-19.755-15.326-16.001-1.933-17.105-13.094 4.156-8.168 21.123 2.633 10.53-1.347 12.124 7.246 2.004 10.913 12.49 8.244 35.308 21.418 2.887 6.168-5.158 8.988z" data-name="Grozești" class="comuna" id="111989"/>
    <path d="M539.527 364.344l17.465 5.159-3.819 13.194-10.105 9.028-7.49-2.827-3.004 14.705 1.677 15.526-4.878 7.766-16.691-1.266-4.06 14.22-7.244 1.296-12.986-4.9-43.56-33.178-9.096-10.439-2.685-19.276-5.724-3.971 11.95.878 28.166-14.568-.97 14.105-4.802 12.638 15.223 2.588 22.26-9.947 7.591-6.592 6.346-19.196 10.955 1.404 15.48 13.653z" data-name="Prunișor" class="comuna" id="113233"/>
    <path d="M553.173 382.697l8.336 4.676 11.34.195 4.573 10.398 12.443 4.2 1.004 7.125-6.099 5.954-11.591 31.94-7.172 7.823 12.844 12.294-4.539 11.73-1.408 1.026-15.379-8.287-27.196-5.563-16.748-9.32-12.203-15.743 7.244-1.295 4.06-14.22 16.691 1.265 4.878-7.766-1.677-15.526 3.004-14.705 7.49 2.827 10.105-9.028z" data-name="Tîmna" class="comuna" id="113732"/>
    <path d="M52.558 388.51l.414 14.891-2.905 11.814 10.668 20.008 17.897 10.212 12.457 3.879 4.186 21.337-10.564 12.768-20.077 1.594-25.727-18.66-7.207-7.649-3.861-18.358-17.658-16.61-4.736-18.563 1.132-12.547L1 384.54l7.717-4.867 17.773-2.483 9.814-8.946 7.182 2.142 9.072 18.126z" data-name="Svinița" class="comuna" id="113607"/>
    <path d="M442.415 522.348l6.828 22.95-9.64 9.14-.473 8.252-21.199-13.811-23.17-23.72 7.417-12.982 14.88-10.368 7.51 1.31 17.847 19.23z" data-name="Vînjuleț" class="comuna" id="113894"/>
    <path d="M471.955 480.701l6.49 10.107-5.084 18.885-15.058-9.437-11.98 11.632-3.908 10.46-17.847-19.23-7.51-1.31-3.427-17.81 5.5-3.994 9.063 5.595 8.734-5.452 4.806-11.246 26.377 20.792 3.844-8.992z" data-name="Rogova" class="comuna" id="113466"/>
    <path d="M324.095 212.412l-8.89 7.892-.3 9.69-5.69 12.4-1.24 11.548-13.391.281-11.656-9.07 1.34-9.72-10.789-10.416-11.507-.037-5.307-7.11-11.784 1.568 4.554-11.672 4.2-11.963 14.852 9.763 11.936-9.029 8.568.493 4.445-8.799 12.222 12.14 14.133 5.638 4.304 6.403z" data-name="Cireșu" class="comuna" id="111220"/>
  </g>
</svg>
