<svg xmlns="http://www.w3.org/2000/svg" version="1.2" baseProfile="tiny" stroke-linecap="round" stroke-linejoin="round" viewBox="0 0 800 391">
  <g id="MM" fill="none" stroke="#aaa">
    <path d="M337.292 361.514l-3.878 12.808-4.755 2.657-15.338 4.682-9.601.183-.025 5.366-5.652 2.84-6.866-.317-3.792-6.437-6.087-5.042 4.425-6.102 9.145-5.886.061-10.778 3.501-10.132 8.608-7.245.642-10.531 8.274.194 8.66 2.682-4.303 14.788 3.68 6.782-1.08 7.685 3.225 4.07 11.156-2.267z" id="107868"/>
    <path d="M252.263 325.57l3.852-1.793 4.587 5.474 4.12 10.28-3.837 9.983-5.786-2.58-7.82 4.726-.135 5.728-9.922 2.457-2.67 4.412-8.08-1.29-4.044-11.933-3.185-3.531-8.354-1.454-5.095-5.468 4.443-11.068 3.306-3.148 5.913 1.281 5.29-3.494 11.913.556 7.72-1.226 7.784 2.088z" id="107430"/>
    <path d="M213.643 326.365l-3.306 3.148-4.443 11.068 5.095 5.468 8.354 1.454 3.185 3.53 4.044 11.935-7.075-1.808-8.133.473-3.434 3.263-6.026-2.048-4.87-6.67-16.045-2.139-6.606-4.215-8.697-2.196-7.696 1.964-5.617-6.922-2.56-8.82 4.698-5.624 3-6.322 10.886 1.795 8.189 3.476 3.685-8.177 21.57-2.428 11.802 9.795z" id="109354"/>
    <path d="M282.083 322.252l7.411 2.82 6.93-4.486 2.484 4.346 8.772 2.648-.642 10.531-8.608 7.245-3.5 10.132-.062 10.778-9.145 5.886-9.115.018-7.753-7.649-.97-5.351-6.9-9.656 3.837-9.982-4.12-10.28-4.587-5.475-3.852 1.793 2.938-10.22 7.082.902 8.352-6.16 6.45 2.273.678 9.553 4.32.334z" id="109425"/>
    <path d="M441.723 302.544l3.867 7.924-4.235 10.301.398 5.413-6.437 9.047-6.487 2.135-10.283 22.307-8.302 1.916-2.55 7.014-11.957-2.64.897-6.113-7.812-7.193-9.306-1.717-4.983-6.227-.048-12.638-2.124-14.369 4.75-2.706 5.836 2.294 8.762-1.551 10.284-5.216 3.236.47 7.44-6.413 6.135 7.305 6.72 1.702.199-5.19 4.324-4.038 11.676-1.817z" id="109041"/>
    <path d="M81.65 310.864l-7.196 6.802-6.203-1.594-12.029-.22-4.456 2.625-6.83-3.439-10.065 3.843-2.027-7.556 2.644-2.683-3.682-13.916.905-2.07 14.866 1.766 3.63 2.834 8.449-2.536 6.425 7.66 15.569 8.484z" id="108366"/>
    <path d="M32.187 290.93l.524 1.726-.905 2.07 3.682 13.916-2.644 2.683 2.027 7.556-3.626 2.66-1.592 6.283-11.287-7.238-4.653 1.673L1 317.01l.66-9.096 6.97-2.63-7.314-14.728 9.002 1.933 4.89-3.943 12.108 3.103 4.871-.719z" id="107234"/>
    <path d="M132.97 285.21l6.101 7.341 2.101 9.605-2.535 3.497 14.576 15.513 1.298 7.06-4.697 5.624-7.181 1.987-4.999-1.662-4.38-5.283-8.924.44-10.903-3.129-1.81-3.042-12.869-.238-10.481-11.295-.522-6.005 4.523-3.92 14.847-12.69 5.817-1.643-1.038-4.438 5.54-4.38 1.054 5.115 5.792 2.195 8.69-.651z" id="109265"/>
    <path d="M77.993 283.683l-1.52 2.434 13.185 11.834 2.61 3.752-4.523 3.92.522 6.005-6.617-.764-15.569-8.484-6.425-7.66-8.45 2.536-3.63-2.834-14.865-1.766-.524-1.727-.516-11.47 4.03-12.376.62-8.16 8.746 2.863L59.2 272.614l4.805 8.307 8.891 3.451 5.098-.69z" id="107190"/>
    <path d="M248.006 261.114l1.263 8.017 4.947 6.025-4.238 7.079 4.697 16.372-4.208 1.67-4.69-4.74-5.184 2.055-6.285-4.815 3.212-7.844-5.908-6.439-.198-14.85-3.077-2.104 9.387-3.496 10.282 3.07z" id="179837"/>
    <path d="M383.983 298.653l3.489 12.83 4.237 4.258-8.762 1.55-5.835-2.293-4.75 2.706 2.123 14.369.048 12.638 4.983 6.227 9.306 1.717 7.812 7.193-.897 6.113-4.013 2.048-7.692-2.002-5.148 3.344-4.916-.465-7.895 4.474-2.031-2.638-7.479 1.149-3.899-6.303-5.856-3.491-7.439 1.855-2.077-2.418-11.156 2.268-3.225-4.071 1.08-7.685-3.68-6.782 4.304-14.788-8.661-2.683-8.274-.193-8.772-2.648-2.485-4.346-6.929 4.486-7.411-2.82 6.471-4.484 2.47-7.406 6.107.14 2.345-4.628 9.722-4.474 4.86-7.737 9.26-5.527-4.597-15.198 4.17-6.013 11.866-5.018 5.413-5.454 9.324 8.903 2.541 8.614 7.555 3.734 4.582-1.104 7.083 7.675.909 12.523 4.244 6.378 7.575-4.523z" id="106817"/>
    <path d="M196.553 257.196l2.905 6.422 5.244.853-7.006 9.69 1.852 5.838 7.558 8.18 4.232-.81 8.959 10.15 9.683 7.403 10.061-4.05.552-3.28 5.183-2.056 4.691 4.742 4.208-1.67-2.183 11.43 2.709 5.311-2.938 10.221-7.783-2.088-7.721 1.226-11.913-.556-5.29 3.494-5.913-1.281-11.803-9.795-21.569 2.428-2.01-15.366-10.315-7.456-.76-15.473 5.762 1.415 1.244-5.224 12.597-18.278 9.764-1.42z" id="109176"/>
    <path d="M136.327 263.383l5.9 8.494-9.257 13.334-8.69.651-5.792-2.195-1.054-5.116-3.964-8.406-2.632-12.584 3.714-.532.896-7.159 3.277 9.523 6.283 5.647 11.32-1.657z" id="108918"/>
    <path d="M147.932 249.537l5.731 9.713-1.89 5.87 1.552 10.226 9.03 1.219 4.83 4.138.761 15.473 10.316 7.456 2.01 15.366-3.686 8.177-8.19-3.476-10.885-1.795-3 6.322-1.298-7.06-14.576-15.513 2.535-3.497-2.1-9.605-6.102-7.34 9.258-13.334-5.9-8.494 7.367-6.444-3.035-4.843 7.576-3.502-.304.943z" id="108268"/>
    <path d="M205.658 246.324l7.125 3.378 3.43-1.766-2.923 4.919 3.04 6.986 6.798-.807 5.209 2.506 3.077 2.104.198 14.85 5.907 6.44-3.211 7.843 6.285 4.815-.552 3.28-10.061 4.05-9.683-7.403-8.959-10.15-4.232.81-7.558-8.18-1.852-5.838 7.006-9.69-5.244-.853-2.905-6.422 3.792-10.488 5.313-.384z" id="108491"/>
    <path d="M123.722 242.594l8.024 4.947 8.556-.572 7.934 1.625-7.576 3.502 3.035 4.843-7.368 6.444-11.319 1.657-6.283-5.647-3.277-9.523.453-9.69 7.821 2.413z" id="179855"/>
    <path d="M102.89 273.927l-5.26 4.637-10.973-1.38-9.32-3.547-2.171 5.087 2.827 4.959-5.098.69-8.89-3.452-4.806-8.307-14.132-10.828-8.746-2.862.217-6.255 4.868-8.852 5.435-4.415 4.698 7.477 9.87 3.64 5.708 4.124 6.439-2.719 19.116 16.146 3.637-1.061 6.582 6.918z" id="107118"/>
    <path d="M312.111 246.281l-.897 8.033-10.766 9.757-1.406 5.674-6.56 7.559-1.144 9.678-4.19 11.87 9.983 11.65-6.108-.14-2.469 7.406-6.471 4.484-4.32-.334-.678-9.553-6.45-2.272-8.352 6.16-7.083-.904-2.708-5.31 2.183-11.432-4.697-16.372 4.238-7.079-4.947-6.026-1.263-8.016 6.598-5.265 7.806 2.207 13.764-7.144 5.92-13.151 6.575 1.162 8.892 6.033 5.528-2.454 9.022 3.78z" id="107733"/>
    <path d="M455.48 233.95l.834 4.853 12.421 11.875-.443 6.307 5.085 7.88 6.453-.435 10.922 7.891 4.61 7.862-8.894 11.45-20.343-4.304-10.854 2.32-.282 4.738-4.467 3.825-6.764-3.222-2.035 7.554-11.676 1.817-4.324 4.038-.2 5.19-6.72-1.702-6.134-7.305 1.365-10.916 3.947-10.558 4.708-8.291.975-12.09 12.005-10.915-.012-4.989 5.396-8.93 8.097-3.94 6.33-.003z" id="179622"/>
    <path d="M229.991 229.7l6.85 9.134 4.157 5.288 15.306 8.584-1.7 3.143-6.598 5.265-10.282-3.07-9.387 3.496-5.21-2.506-6.797.807-3.04-6.986 2.923-4.92 6.333-14.092 7.445-4.144z" id="108794"/>
    <path d="M385.258 248.409l-4.167 10.122 4.706 9.368 3.926 1.927-.178 11.275 8.262.033.415 4.49-14.568 10.694.329 2.335-7.575 4.523-4.245-6.378-.908-12.523-7.083-7.675-4.582 1.104-7.554-3.734-2.542-8.615-9.324-8.902.07-6.432 5.792-4.544 7.466-13.141 6.383-6.109 3.692 4.516 7.66-.536 7.942 6.421.354 5.82 5.729 5.96z" id="107920"/>
    <path d="M441.053 237.893l-5.396 8.93.012 4.989-12.005 10.916-.975 12.089-4.708 8.29-3.947 10.559-1.365 10.916-7.44 6.413-3.236-.47-10.284 5.216-4.237-4.259-3.489-12.829-.329-2.335 14.568-10.694-.415-4.49-8.262-.033.178-11.275-3.926-1.927-4.706-9.368 4.167-10.122 13.07 6.945 8.907 1.179 8.554-9.708-.4-6.606 5.666-12.087 12.122.677 7.828-2.815-2.021 5.59 2.07 6.31z" id="108222"/>
    <path d="M206.545 239.49l-.887 6.834-5.313.384-3.792 10.488-9.764 1.42-12.596 18.278-1.245 5.224-5.762-1.415-4.831-4.138-9.03-1.219-1.552-10.225 1.89-5.871-5.73-9.713 6.19 1.395 6.066-3.957-1.367-3.847 9.524-10.674 8.553-6.875 1.018-3.612 1.472 3.434 8.399 3.108 6.433 5.999 3.028-.657 9.296 5.64z" id="108712"/>
    <path d="M224.499 226.656l5.492 3.043-7.445 4.144-6.333 14.093-3.43 1.766-7.125-3.378.887-6.834 2.89-7.656-.483-7.312 6.158-3.21 9.389 5.344z" id="179846"/>
    <path d="M110.838 257.56l2.632 12.585-10.58 3.782-6.58-6.918-3.638 1.061-19.116-16.145-6.44 2.718-5.707-4.124-9.87-3.64-4.698-7.477 8.281-6.794 8.426-12.556 6.542-4.956 10.291 17.116 8.592 4.077-1.15 3.134 9.276 6.117-.23 2.864 6.818 6.534 7.15 2.623z" id="107083"/>
    <path d="M252.04 214.875l5.275 4.293-1.562 8.276-5.19 4.444-13.722 6.946-6.85-9.135-5.492-3.043-.274-7.84 15.554-8.28 3.802 4.934 8.459-.595z" id="106363"/>
    <path d="M275.536 206.291l3.103 6.159.301 9.586 5.655 2.131 4.947 8.296-7.448 5.298-5.92 13.15-13.764 7.145-7.806-2.207 1.7-3.143-15.306-8.584-4.157-5.288 13.722-6.946 5.19-4.444 1.563-8.276 7.802-3.649 3.252-5.225 7.166-4.003z" id="108035"/>
    <path d="M168.346 232.454l-9.524 10.674 1.367 3.847-6.066 3.957-6.19-1.395.303-.943-7.934-1.625-8.556.572-8.024-4.947 3.03-6.595-1.372-14.338 1.317-8.953 6.063 1.77 4.384-5.992 9.66-3.073 2.437 7.018-1.952 4.478 3.792 4.377 12.33.128-1.245 4.51 6.18 6.53z" id="108106"/>
    <path d="M359.88 226.227l-6.382 6.109-7.466 13.141-5.793 4.544-.069 6.432-5.413 5.454-11.867 5.018-4.17 6.013 4.597 15.198-9.26 5.527-4.859 7.737-9.722 4.474-2.345 4.628-9.982-11.65 4.19-11.87 1.143-9.678 6.56-7.56 1.406-5.673 10.766-9.757.897-8.032 7.36-1.832 3.936-5.305 13.263-7.2 8.57-16.3-.333-9.285 11.77-.112 2.04-2.351 2.825 5.617 1.222 13.968-2.883 2.745z" id="107582"/>
    <path d="M441.005 225.994l-7.828 2.815-12.122-.677-5.665 12.087.4 6.607-8.555 9.707-8.907-1.18-13.07-6.944-5.73-5.961-.353-5.82-7.943-6.421-7.659.536-3.692-4.516 2.883-2.745-1.222-13.968-2.825-5.617 4.259-3.912 14.249-3.43 9.918 4.131 5.938-3.924 15.455-4.473 2.395 8.77 6.03-.25 8.02 13.659 5.988 4.453 5.6.368 4.436 6.705z" id="107154"/>
    <path d="M576.063 199.807l-.588 3.976 5.49 9.977 8.327-.232 7.414 2.84 9.467 17.674 13.838 2.39-7.74 7.338-2.597 10.55-2.022-3.175-18.293-4.482-4.97-2.855-11.796-3.356-8.482.786-5.806-3.664-11.958-4.242-1.828-2.21 1.574-11.09 3.142-3.026-.4-6.31 4.396-9.17 3.854-3.689-2.097-5.505 8.164 8.022 5.15-2.049 2.687 4.385 5.074-2.883z" id="108874"/>
    <path d="M521.663 191.812l1.02 6.746-5.899 10.45 3.399 9.33-2.207 3.557 2.349 6.479-4.408 7.678.842 6.557-2.51 5.116-2.528 2.994.37 8.341-9.275 9.618.218 5.101-4.715 8.303-2.958-1.9-4.61-7.86-10.92-7.892-6.454.436-5.085-7.88.443-6.308 7.927-6.13 11.44-12.913-.152-7.192 3.684-3.102.442-7.94 5.144-7-.236-9.059 3.574-.256 5.808-10.279 8.335.44 6.962 4.565z" id="108017"/>
    <path d="M630.313 191.202l-.031 21.163 2.502 21.149 8.592 6.32 20.287-7.488 4.222 18.402 3.121 1.82-8.675 7.26-14.92.133.056-5.243-7.689-4.703-10.436 3.996-8.76-1.075-3.762 4.568-5.146-3.184 2.597-10.55 7.74-7.339-13.838-2.39-9.467-17.674-7.414-2.84-8.327.233-5.49-9.977.588-3.976 2.504-6.163 6.763-7.47 9.094-1.96 5.37.915 4.812 4.327 8.95-3.072 7.108 4.776 9.649.042z" id="108348"/>
    <path d="M414.254 181.903l5.088.67 8.556 5.484 8.473-4.111 10.089-.504 5.088 3.123 4.251-3.628 7.419-.83 2.583 5.338 1.13 15.76-5.451 5.311-9.095 18.82 3.095 6.614-6.33.003-8.097 3.94-2.07-6.309 2.022-5.59-4.435-6.705-5.601-.368-5.988-4.453-8.02-13.659-6.03.25-2.395-8.77 3.995-10.177 1.723-.21z" id="107485"/>
    <path d="M546.083 183.428l.691 10.373 8.214-1.469 2.097 5.505-3.854 3.69-4.397 9.17.401 6.31-3.142 3.025-1.574 11.09-6.702 10.493-2.305 6.813-7.866 6.744-6.352-.882-7.045-6.565 2.51-5.116-.842-6.557 4.408-7.678-2.35-6.479 2.208-3.558-3.399-9.33 5.898-10.449-1.02-6.746 7.566-.796 4.327-5.486 7.599-3.638 4.929 1.536z" id="108892"/>
    <path d="M362.976 199.985l-4.26 3.912-2.039 2.35-11.77.113.334 9.284-5.438-2.377-13.728-1.805.664-7.38 10.553-6.438 2.683-10.521 6.225-5.99 3.293 5.562 10.208 4.768 3.275 8.522z" id="106782"/>
    <path d="M340.94 179.48l5.26 1.652-6.225 5.99-2.683 10.522-10.553 6.438-.664 7.38 13.728 1.805 5.438 2.377-8.57 16.3-13.264 7.2-3.936 5.306-7.36 1.832-9.022-3.78-5.528 2.454-8.892-6.033-6.575-1.162 7.448-5.298-4.947-8.296-5.655-2.13-.3-9.587-3.104-6.159 8.002-1.15 7.528 1.836 2.262 5.308 5.872-2.537 9.753-9.063 8.107-2.351 6.453-4.547 5.606-12.164 11.82-2.143z" id="109096"/>
    <path d="M496.984 197.342l.236 9.06-5.144 7-.442 7.94-3.684 3.1.152 7.193-11.44 12.913-7.927 6.13-12.421-11.875-.834-4.853-3.095-6.614 9.095-18.82 5.45-5.31-1.13-15.761 12.23-2.855 1.323-5.88 7.002-1.617 4.877 3.689 5.752 16.56z" id="108204"/>
    <path d="M443.348 168.978l4.829 5.675 4.362-.12 3.485 2.739-.225 5.665-4.251 3.628-5.088-3.123-10.089.504-8.473 4.111-8.556-5.484-5.088-.67 5.825-1.046 8.469-6.714 3.591.53 11.21-5.695z" id="179604"/>
    <path d="M733.549 166.738l23.934-2.655.652 6.722 4.412 6.501 5.748 3.635 18.033 18.445 6.157 1.277 6.515 5.438-.915 7.334-16.47 4.77-7.309 7.166-6.2 3.672-5.96-.855.862 10.31-13.993-.506-7.809-2.815-18.148 5.763-3.29-2.233-9.313 1.046-2.868 11.268-3.067 4.379-7.364-5.48-6.372 2.417-21.778.23-3.12-1.82-4.223-18.401-20.287 7.488-8.592-6.32-2.502-21.15.03-21.162 3.451-3.767-5.913-13.996 9.385-5.131 15.968-3.412 14.978 2.217 2.938-4.758 11.348 1.967 4.092 5.422 10.305 4.561 11.424-.25 5.095-4.554 9.704 2.875 5.748 3.855 6.375-6.097-1.661-3.396z" id="106746"/>
    <path d="M486.646 175.304l-.29 1.789-7.003 1.617-1.324 5.88-12.228 2.855-2.583-5.337-7.419.829.225-5.666-3.485-2.738 4.657-3.926 6.187-.529 10.053-9.227 11.033 1.997 2.177 12.456z" id="179613"/>
    <path d="M533.555 185.53l-4.327 5.486-7.565.796-6.962-4.565-8.335-.44-5.808 10.28-3.574.255-5.752-16.56-4.877-3.69.29-1.788 8.154-.899 4.486-8.146 5.276-1.96-.033-4.801 6.256 6.675 9.762.296 1.848 7.508 7.417.972-.34 6.3 4.084 4.281z" id="107403"/>
    <path d="M286.423 158.873l5.221 1.7 5.388 6.475.42 5.764 10.469 4.974 3.023-2.2 10.662 1.248 7.513 4.789-5.606 12.165-6.453 4.546-8.107 2.351-9.753 9.063-5.872 2.537-2.262-5.308-7.528-1.837-8.002 1.151-7.166 4.003-3.252 5.225-7.803 3.649-5.275-4.293-1.687-7.862 3.332-1.718-2.141-7.863 12.864-9.912 5.776-8.85 8.39-20.87 7.85 1.073z" id="106684"/>
    <path d="M479.34 141.064l7.567.215 17.438 12.864.183 5.355.034 4.8-5.277 1.961-4.486 8.146-8.153.9-2.177-12.457-11.033-1.997-10.053 9.227-6.187.53-4.657 3.925-4.362.12-4.829-5.675 8.563-6.818 8.823-1.982 2.883-4.71-1.337-7.403 4.209-5.454 5.386-2.003 7.465.456z" id="108669"/>
    <path d="M543.395 127.564l5.87 1.287 1.034 5.735-9.263 10.096 8.22 12.417-2.984 4.776-2.551 11.318 3.184 5.918-.822 4.317-4.93-1.536-7.598 3.638-4.085-4.281.341-6.3-7.417-.972-1.848-7.508-9.762-.296-6.256-6.675-.183-5.355 17.993-9.84.678-3.713 4.501-5.866 11.34-6.676 4.538-.484z" id="109504"/>
    <path d="M493.544 119.782l-.432 6.141 7.438 6.352 12.357.39 10.11 7.925-.679 3.713-17.993 9.84-17.438-12.864-7.567-.215-.796-11.873 6.513-3.308 2.703-5.272 5.784-.829z" id="108240"/>
    <path d="M340.94 179.48l-11.82 2.143-7.514-4.789-10.662-1.248-3.023 2.2-10.47-4.974-.42-5.764-5.387-6.474-5.22-1.7.38-7.2-3.845-7.726 1-5.063-3.389-8.25.924-4.87-4.492-10.132 10.192-.551 3.606 5.598 7.861.807 4.126 3.028 4.178-3.116 3.925-8.703 3.333 8.973 8.13 2.064 5.107-6.91 5.563-3.83 14.025 2.756-.462 2.947 12.049 7.223 4.165 5.256-6.365 5.607-4.943-1.567-4.468 11.298-6.155 5.675-1.682 7.532 5.306 7.71-3.554 12.05z" id="107975"/>
    <path d="M454.096 112.63l9.677 3.001 3.813 10.136 10.958 3.424.796 11.873-7.465-.456-5.386 2.003-4.21 5.454 1.338 7.403-2.883 4.71-8.822 1.982-8.564 6.818-11.209 5.695-3.591-.53-8.469 6.714-5.825 1.046-1.723.209-6.15-8.102 5.28-1.36.992-4.747 7.155-7.728 5.527-18.668 2.935-5.58 6.82-.37-.484-11.36 4-5.538 6.518-4.484 8.972-1.544z" id="109005"/>
    <path d="M396.885 111.508l13.72 10.524-1.626 9.247 9.522.214-.387 6.432 7.221 3.582-5.527 18.668-7.155 7.728-.993 4.746-5.279 1.361-6.76-4.406-3.083-5.67-7.829-22.444-7.394-5.926-2.44-12.795 1.678-10.043 2.985-4.174 5.234-.999 8.113 3.955z" id="107546"/>
    <path d="M378.875 122.769l2.44 12.795-8.814 7.87-4.96-.333.252 8.032 2.46 5.297-5.503 7.577.255 4.925-3.624 10.73-15.181 1.47-5.26-1.652 3.553-12.05-5.305-7.71 1.681-7.532 6.155-5.675 4.468-11.298 4.943 1.567 6.365-5.607-4.165-5.256-12.049-7.223.462-2.947-14.026-2.756-5.562 3.83-5.107 6.91-8.13-2.064-3.333-8.972-3.925 8.702-4.178 3.116-4.126-3.028-7.86-.807-3.607-5.598 1.964-6.554 10.447-5.93 18.324-.102 15.853 5.897 4.356-2.818 18.85 8.567 11.626 1.723-2.609 5.6 5.154 6.189 7.716-4.885z" id="108400"/>
    <path d="M544.437 122.57l-1.042 4.995-4.538.483-11.34 6.676-4.5 5.866-10.11-7.925-12.357-.39-7.438-6.352.432-6.14.139-1.074 6.846-2.501 17.206-14.188 5.713 5.562 3.396 7.405 12.42-1.645 5.173 9.227z" id="108696"/>
    <path d="M452.11 95.489l3.642 1.652.693 8.955-2.349 6.535-8.972 1.544-6.518 4.484-4 5.539.484 11.36-6.82.369-2.935 5.58-7.221-3.582.387-6.432-9.522-.214 1.627-9.247-13.72-10.524 2.423-14.461 11.488-7.439 6.792 1.649 2.723-3.015 13.749 3.205.148 3.054 12.41-.83 5.49 1.817z" id="107314"/>
    <path d="M733.549 166.738l1.66 3.396-6.374 6.097-5.748-3.855-9.704-2.875-5.095 4.555-11.424.25-10.305-4.562-4.092-5.422-11.348-1.967-2.938 4.758-14.978-2.217-15.968 3.412-9.385 5.13 5.913 13.997-3.45 3.767-9.649-.042-7.108-4.776-8.95 3.072-4.813-4.327-5.369-.914-9.094 1.96-6.764 7.47-2.503 6.162-5.074 2.883-2.686-4.385-5.151 2.049-8.164-8.022-8.214 1.47-.691-10.374.822-4.317-3.184-5.918 2.55-11.318 2.985-4.776-8.22-12.417 9.263-10.096-1.033-5.735 5.39-2.033 9.049.212.8 4.655 9.35 5.591 2.563 5.261 10.716-4.21 11.6 2.395 12.193-10.585.613-2.91 8.456-.426 3.356-5.72 1.472-12.086 5.623-2.683 6.616-7.806 16.246-11.281 5.393 5.783 6.702 1.481 1.063 6.95 10.845-2.061 7.006 7.966 4.681-5.386 4.858 1.102 2.253 7.864 5.081-.69 11.446 2.396-2.373 8.02 5.693 7.11-.043 7.92 5.63 2.735 1.47 5.007 8.68 7.398 3.11 10.548-1.255 5.37z" id="106979"/>
    <path d="M378.572 84.492l4.808 14.723 5.392 8.338-5.234 1-2.985 4.173-1.678 10.043-7.716 4.885-5.154-6.188 2.61-5.6-11.626-1.724-18.851-8.567-4.356 2.818-15.853-5.897-18.324.103-10.447 5.929-4.878-2.247-3.568-7.515 10.402-5.174 6.675.372 3.07-1.318 11.509 3.193 13.98-6.721 4.944 3.632 6.252-5.752 13.916-1.726 6.815 1.037 7.608-3.415 9.195-1.298 3.495 2.896z" id="108151"/>
    <path d="M493.683 118.709l-.14 1.073-5.783.83-2.703 5.271-6.513 3.308-10.958-3.424-3.813-10.136-9.677-3 2.349-6.535-.693-8.955-3.642-1.653 1.98-10.756 4.032-4.153 9.951 6.368 7.734 2.734 1.602 11.675 10.326 6.582 5.947 10.77z" id="108455"/>
    <path d="M410.798 89.608l-11.49 7.439-2.423 14.46-8.113-3.954-5.392-8.338-4.808-14.723 8.245-4.366 12.615 6.674 6.181-9.105 5.185 11.913z" id="179864"/>
    <path d="M389.29 69.744l3.335 1.01 12.988 6.941-6.181 9.105-12.615-6.674-8.245 4.366-3.494-2.896-9.195 1.298 4.15-11.44 8.892-3.457 6.095 4.681 4.27-2.934z" id="106648"/>
    <path d="M530.018 58.624l-.015 8.245 4.8 8.077-3.74 10.719-12.13 5.433-1.198 10.922-17.206 14.188-6.846 2.5-5.948-10.77-10.326-6.582-1.602-11.675-7.734-2.734-9.951-6.368-4.032 4.153-9.217-4.923-2.084-9.445 1.541-12.706 7.72 1.752 10.09-4.536 6.182 3.049 5.743-.56 11.84 11.138 10.37-5.66 9.109.486 6.895-3.012 10.33-8.027 7.409 6.336z" id="107270"/>
    <path d="M437.367 48.874l3.839 8.177 3.124.607-1.541 12.706 2.084 9.445 9.217 4.923-1.98 10.757-5.49-1.818-12.411.83-.148-3.054-13.75-3.205-2.722 3.015-6.791-1.649-5.185-11.913-12.988-6.942 7.065-3.729 6.447-8.167 6.072-3.728 10.85-1.32 7.476-3.454 6.832-1.48z" id="108632"/>
    <path d="M430.535 50.355l-7.477 3.454-10.85 1.32-6.07 3.728-6.448 8.167-7.065 3.73-3.335-1.01-2.426-10.288 3.332-13.316 18.507-5.258 6.624 6.123 15.208 3.35z" id="108614"/>
    <path d="M653.31 87.225l-16.247 11.28-6.616 7.807-5.623 2.683-1.472 12.086-3.356 5.72-8.456.426-.613 2.91-12.192 10.585-11.601-2.394-10.716 4.21-2.562-5.262-9.35-5.591-.801-4.655-9.048-.212-5.391 2.033-5.871-1.287 1.042-4.995-1.443-5.165 14.098-12.302 2.806-12.844 8.626-9.096 3.698-11.645-1.168-16.263 4.591-3.102 8.65-16.26 9.725 1.293 5.136-4.392 8.535.955 5.042-4.844 7.71 2.138 6.894 11.027 8.215-3.58 3.357 6.76.979 8.563 6.241 3.098 8.344 12.83-3.072 11.168 1.908 6.317z" id="108473"/>
    <path d="M584.295 35.892l-8.65 16.26-4.59 3.102 1.167 16.263-3.698 11.645-8.626 9.096-2.806 12.844-14.098 12.302 1.443 5.165-5.173-9.227-12.42 1.645-3.396-7.405-5.713-5.562 1.199-10.922 12.13-5.433 3.74-10.72-4.801-8.075.015-8.246 14.034-6.546-.443-4.106 4.564-10.612 9.483-3.787 7.1-6.054 4.122 3.593 9.404.695 6.013 4.085z" id="108598"/>
    <path d="M437.367 48.874l-6.832 1.481-15.208-3.35-6.624-6.123-18.507 5.258-6.038-.154-5.6-6.284.61-3.882 1.405-5.144 11.982 1.177 10.91-4.105 8.489 10.226 11.497-2.183 3.32 3.632 10.33 6.033.266 3.418z" id="107350"/>
    <path d="M303.212 51.32l1.446 6.232 2.85 7.563-2.456 7.002-8.832 5.63 2.363 3.972-2.076 5.476 1.281 6.77-6.674-.373-10.402 5.174-14.248-5.45-6.345-5.906 2.824-3.752-4.217-11.788-4.945-2.427-2.342-4.867-6.86-.706-10.076-25.53 3.976-1.991 9.045 2.64 2.037-3.182 12.749-.76 2.452-6.876 5.98-5.394 1.523-7.689 9.01-.264 13.47-4.237 2.236 4.795-2.569 17.073 4.049 8.122-2.132 5.11 6.883 5.633z" id="108945"/>
    <path d="M331.068 18.46l-3.42 1.238-2.397 8.794-6.543 8.23-8.907 5-6.589 9.598-6.883-5.633 2.132-5.11-4.049-8.122 2.57-17.073-2.237-4.795 19.324.316 7.431 5.146 9.568 2.41z" id="107715"/>
    <path d="M272.265 15.088l-1.522 7.69-5.98 5.393-2.453 6.876-12.749.76-2.037 3.183-9.045-2.641-3.976 1.992-7.476 1.247-4.334-5.799-10.795-5.006 1.354-11.56 7.978-13.461L226.951 1l9.606 4.013 16.658-2.507L265.167 7.4l1.075 4.255 6.023 3.433z" id="108552"/>
    <path d="M153.62 132.248l-2.133 7.953-7.178 6.908 5.585 8.403-9.736 12.183-6.4-1.529-4.236-8.28-7.532 3.007-11.393-5.207-4.342-4.81 2.394-8.878-4.048-6.492 14.39-17.06 7.437.16 10.213 6.555.821 6.283 13.758-1.302 2.4 2.106z" id="108963"/>
    <path d="M190.118 139.817l-7.592 10.044 3.616 16.414-2.215 20.272-9.574 4.356-12.62-5.26-4.526-3.377-1.08-8.183-7.463-4.127-8.506-2.261 9.736-12.183-5.585-8.403 7.178-6.908 2.132-7.953 4.675-2.392 8.421-.206 7.4 1.991 2.56 4.398 6.016-1.044 7.427 4.822z" id="107662"/>
    <path d="M113.47 270.145l3.964 8.406-5.54 4.38 1.038 4.439-5.817 1.643-14.847 12.69-2.61-3.752-13.185-11.834 1.52-2.434-2.827-4.959 2.171-5.087 9.32 3.547 10.973 1.38 5.26-4.637 10.58-3.782z" id="107047"/>
    <path d="M406.381 174.01l6.15 8.102-3.995 10.177-15.456 4.473-5.937 3.924-9.918-4.13-14.25 3.43-3.274-8.523-10.208-4.768-3.293-5.563 15.181-1.47 3.624-10.73-.255-4.925 5.502-7.577-2.46-5.297-.252-8.032 4.961.334 8.814-7.871 7.394 5.926 7.83 22.443 3.083 5.67 6.76 4.407z" id="107519"/>
    <path d="M390.195 46.14l-3.33 13.316 2.425 10.288-4.27 2.934-6.095-4.681-8.892 3.457-4.15 11.44-7.608 3.415-6.815-1.037-13.916 1.726-6.252 5.752-4.944-3.632-13.98 6.72-11.508-3.192-3.072 1.318-1.28-6.77 2.075-5.475-2.363-3.971 8.832-5.631 2.457-7.002-2.851-7.563 5.84-6.958 6.355-1.782 8.307-7.518 8.631 3.388 6.933-7.29 2.768 6.617 6.163 2.77 6.522-6.715 13.907-.376 9.085-3.868-.61 3.882 5.6 6.284 6.036.154z" id="106559"/>
    <path d="M340.724 37.393l-6.933 7.289-8.63-3.388-8.308 7.518-6.354 1.782-5.841 6.958-1.446-6.232 6.589-9.599 8.907-5 6.543-8.229 2.397-8.794 3.42-1.239.608 4.202 5.754 4.316-.692 3.546 3.986 6.87z" id="106620"/>
    <path d="M201.12 199.364l-4.676 1.338-3.312 6.441 1.47 7.02-2.892 3.55-8.998-8.92-8.169-4.81-7.122-3.029 1.31-7.725-8.84-3.236 1.841-4.35 12.621 5.26 9.574-4.356 2.215-20.272-3.616-16.414 7.592-10.044 5.207-2.64 3.271-6.947 24.566-12.06 9.149-1.318 4.08 8.37-3.405 3.871 2.766 13.582-6.215 9.881 1.092 9.648-6.888-1.371-6.192 5.058-5.825 7.75-4.412 13.02 1.738 7.012-7.93 5.69z" id="106461"/>
    <path d="M280.712 98.766l3.568 7.515 4.878 2.247-1.964 6.554-10.192.552 4.492 10.13-.924 4.872 3.39 8.25-1.001 5.062 3.845 7.726-.38 7.2-7.85-1.074-8.39 20.87-5.776 8.85-12.864 9.912 2.141 7.863-3.332 1.718 1.687 7.862-8.459.595-3.802-4.933-15.554 8.28-2.054-4.34-5.243-1.402-2.831-9.72-4.65-3.479-8.327-.512 7.93-5.691-1.738-7.011 4.412-13.02 5.825-7.75 6.192-5.06 6.888 1.372-1.092-9.648 6.215-9.882-2.766-13.58 3.405-3.872-4.08-8.37.798-6.713 4.778-4.385 7.598-13.95 7.106 1.852 7.528-6.246 6.345 5.906 14.248 5.45z" id="106318"/>
    <path d="M224.225 218.816l.274 7.84-9.39-5.345-6.157 3.211.483 7.312-2.89 7.656-9.296-5.64-3.028.658-6.433-5.999-8.4-3.108-1.471-3.434-5.837-5.522-2.014-6.013 4.477-6.449 8.17 4.81 8.997 8.92 2.893-3.55-1.471-7.02 3.312-6.44 4.676-1.34 8.327.513 4.65 3.479 2.831 9.72 5.243 1.403 2.054 4.338z" id="106407"/>
    <path d="M159.892 189.993l8.84 3.236-1.311 7.725 7.122 3.03-4.477 6.448 2.014 6.013 5.837 5.522-1.018 3.612-8.553 6.875-6.18-6.53 1.245-4.51-12.33-.128-3.792-4.377 1.952-4.477-2.438-7.02-2.03-4.868 8.414-8.445 6.705-2.106z" id="107001"/>
  </g>
</svg>
