<svg xmlns="http://www.w3.org/2000/svg" version="1.2" baseProfile="tiny" stroke-linecap="round" stroke-linejoin="round" viewBox="0 0 800 904">
  <g id="MS" fill="none" stroke="#aaa">
    <path d="M443.912 729.241l9.567 24.146 1.169 28.365-2.312 6.236 9.587 31.555-3.405 15.486 14.314 25.947 6.172 21.543 1.556 6.451-9.918 7.28-7.414-4.024-15.095 4.964-3.276 6.239-11.319-5.873-3.094-9.206L419 878.866l2.88-20.012-5.08-7.72 6.715-9.016-3.27-16.837 4.95-12.905.274-13.887-3.277-13.033-6.135-8.85 5.849-21.265-5.03-25.375 10.562-6.673 16.475 5.948z" id="116493"/>
    <path d="M499.213 719.524l-7.185 11.406 1.888 7.283 12.896-.115 13.02 11.547-12.108 13.692 5.117 11.904-2.44 8.862 6.297 16.01-.885 16.792 3.741 12.151-7.263 7.063-24.928-17.423-6.828-8.389-11.486-3.239-7.126 12.475-9.587-31.555 2.312-6.237-1.169-28.364-9.567-24.146 10.136 5.825 13.205-5.794 1.36-5.465 17.647-10.28 12.953 5.997z" id="114514"/>
    <path d="M531.202 703.621l8.531 8.68 7.706 1.82 9.219 13.374 1.286 8.803-9.716 4.296 4.575 11.186-1.827 28.07-3.336 6.33-6 20.612-5.299-.026-1.956 16.66 5.388 9.699-10.851 2.07-9.368-6.139-3.741-12.151.885-16.792-6.296-16.01 2.44-8.862-5.118-11.904 12.109-13.692-13.02-11.547-12.897.115-1.888-7.283 7.185-11.406 5.152-9.042-10.135-6.055-1.116-7.096 4.28-7.477 17.832 9.937-1.39 8.374 11.928 2.456 5.438-7z" id="114603"/>
    <path d="M359.833 671.014l15.022 12.871 5.143 16.721 9.488 10.039 13.83.316 1.865 19.178-13.856 23.092-12.103.44-7.265-17.338-13.548 4.462-3.72 7.816-13.707-2.57-8.04-10.356 3.6-29.677-4.493-25.475.351-12.162 15.657 3.761 11.776-1.118z" id="120218"/>
    <path d="M469.137 660.888l23.977 36.442 1.116 7.097 10.135 6.055-5.152 9.042-12.953-5.996-17.648 10.28-1.36 5.464-13.204 5.794-10.136-5.825-16.475-5.948-6.074-29.32 3.718-14.277 11.34-20.357 18.422-6.569 14.294 8.118z" id="118469"/>
    <path d="M526.756 672.525l9.423 6.993-4.977 24.103-5.438 7-11.928-2.456 1.39-8.374-17.832-9.937-4.28 7.476-23.977-36.442 4.257-15.393 5.651-1.833 8.726-.1-1.035 11.164 9.79 3.475 5.967 8.43 24.263 5.894z" id="120174"/>
    <path d="M332.049 680.534l4.494 25.474-3.602 29.677 8.041 10.355-2.533 8.58-11.644-2.958-6.373 7.227-9.128-11.142-32.785-2.77-8.088-3.409-.295-1.287 15.111-18.913-1.224-18.673 7.815-16.863-5.066-18.515-10.837-10.65 10.245-14.533 9.897 3.157 22.571.209 7.32-6.585 4.263 21.569-3.786 9.484 5.604 10.566z" id="115307"/>
    <path d="M226.385 648.49l11.512 14.833 13.747 1.135 3.756 20.304 6.262 13.713-3.88 16.446-4.17 2.583-21.325-1.483-4.131-5.882-10.221 4.809-5.425-5.818-2.535-16.102 1.597-14.548 5.106-3.996-2.034-10.88-12.402-5.225-9.243-7.932 5.576-9.172 15.992-2.655 5.34-4.154 6.478 14.024z" id="116938"/>
    <path d="M403.315 710.961l-13.83-.316-9.487-10.039-5.143-16.72-15.022-12.872-5.505-18.216 3.946-6.96 6.267-6.084 16.93 15.553-.196-9.633 10.69-6.664 10.79-12.301 6.678 1.977-3.135 19.598-12.239 20.071 9.256 42.606z" id="120343"/>
    <path d="M94.574 643.38l9.277 12.006 16.348 10.225-3.12 11.137-17.468 2.866-27.736 1.204-16.606-8.472-20.138-14.07 6.53-5.097 1.174-10.311 11.843-10.487 15.284-6.794 7.361 4.316-.32 11.928 17.571 1.55z" id="115771"/>
    <path d="M269.217 620.172l-4.116 4.014 6.35 12.08 6.78-6.006 7.95 11.874-10.246 14.534 10.837 10.65 5.066 18.514-7.815 16.863 1.224 18.673-15.111 18.913-12.88-9.752-3.644-13.025 4.17-2.583 3.88-16.446-6.262-13.713-3.756-20.304-13.747-1.135-11.512-14.833 14.793-2.759-1.906-16.133 7.095-7.345 22.85-2.082z" id="118209"/>
    <path d="M363.165 613.633l40.097 2.617-.507 10.459-10.79 12.3-10.69 6.665.197 9.634-16.93-15.554-6.268 6.083-5.526-9.42-.969-10.93-13.291-5.336 7.32-8.451 7.257 5.257 10.1-3.324z" id="116171"/>
    <path d="M196.827 623.32l1.748 17.955-5.576 9.172-8.313-.481-5.547-7.754-22.42 4.35-2.204 8.02-9.874 6.454-.622-2.98-3.873-9.937 19.241-48.847 18.956 2.809 11.118 10.1 7.366 11.14z" id="116395"/>
    <path d="M341.955 606.642l3.852 5.058-7.32 8.45 13.292 5.337.969 10.93 5.526 9.42-3.946 6.961 5.505 18.216-11.776 1.118-15.657-3.761-.351 12.163-5.604-10.566 3.786-9.484-4.262-21.569-7.32 6.585-22.572-.21-9.897-3.156-7.95-11.874 1.292-2.906 26.783-12.026 17.897-3.254-2.058-8.497 6.265-7.266 13.546 10.331z" id="119661"/>
    <path d="M104.625 587.839l9.8.19-1.287 9.627-6.448 4.884-4.7 17.196-5.026 5.315-2.39 18.33-17.571-1.55.32-11.928-7.361-4.316-15.284 6.794-11.843 10.487-1.173 10.31-20.597-4.784-3.58-7.907 12.009-7.81 12.846-19.64 8.188-6.669 14.589-4.654 4.206-16.186 13.175 2.881 6.966 8.245 15.16-8.815z" id="115236"/>
    <path d="M512.035 594.462l-13.87 12.303 3.053 15.595 9.891 5.124 21.757 16.687 7.194-.99 5.036 15.906-14.54 7.165-3.8 6.273-24.263-5.895-5.967-8.429-9.79-3.475 1.035-11.164-8.726.1-1.635-26.009-12.062 1.272-8.38 6.24-13.374 1.885-6.054-11.757 4.95-5.09 16.794-6.187-.606-8.154 1.263-3.717 13.714-5.372 15.168-2.271 23.212 9.96z" id="116796"/>
    <path d="M581.723 591.26l1.796 7.969-8.422 11.104.601 10.637 13.67 3.95 8.163 10.189-3.349 10.62-11.355 4.125-10.439-2.21-6.612-10.025-25.716 5.562-7.194.99-21.757-16.687-9.891-5.124-3.053-15.595 13.87-12.303 13.012-11.54 6.44-15.84-.032 8.77 14.11 15.2 20.176 1.057 10.223 4.255 5.76-5.104z" id="119331"/>
    <path d="M269.217 620.172l-22.85 2.081-7.095 7.345-1.325-9.11-8.288-7.72-8.567-19.544 1.986-10.76-11.031-13.584 6.135-13.174 8.457-7.99 11.964-1.274 17.705 1.007 5.527 32.606 8.777 7.37 1.774 13.318-5.86 5.712 2.691 13.716z" id="119466"/>
    <path d="M412.692 538.356l8.655 12.479.057 7.512 10.127 18.87 16.163 13.635 10.984 5.01.606 8.154-16.793 6.187-4.951 5.09-34.278.957-40.097-2.617 2.156-15.244 16.93-18.102-.718-26.129 3.615-11.85 6.384-.69 21.16-3.263z" id="114970"/>
    <path d="M226.638 547.716l-8.456 7.99-6.135 13.174 11.031 13.585-1.986 10.759 8.567 19.543 8.288 7.721 1.325 9.11 1.906 16.134-14.793 2.758-6.478-14.024-5.34 4.154-15.992 2.655-1.748-17.955 9.476-10.392-6.236-14.632 2.129-20.564-6.801-11.302-14.132-15.761 11.853-6.531 17.781-9.714 13.909 5.728 1.832 7.563z" id="118575"/>
    <path d="M132.584 529.46l5.891 12.804 8.683 8.644 1.933 8.854-5.347 5.924-12.356 1.512-5.46 22.26 10.2 3.036-5.687 9.82-12.806 12.219-9.47 32.404-4.314 8.449-9.277-12.006 2.39-18.329 5.026-5.315 4.7-17.197 6.448-4.883 1.287-9.627-9.8-.19-5.33-10.19 8.544-2.146-.85-14.498 10.309-8.04 9.856-24.198 5.43.692z" id="116439"/>
    <path d="M156.03 527.2l15.097 13.986 8.395 3.735 13.594-.783-11.853 6.53 14.132 15.762 6.8 11.302-2.128 20.564 6.236 14.632-9.476 10.392-7.366-11.14-11.118-10.1-18.956-2.808-19.24 48.847 3.872 9.936-15.615-2.35-8.205 9.906-16.348-10.225 4.314-8.449 9.47-32.404 12.806-12.22 5.687-9.819-10.2-3.036 5.46-22.26 12.356-1.512 5.347-5.924-1.934-8.854-8.682-8.644-5.89-12.804 16.21 1.394 7.236-3.654z" id="117827"/>
    <path d="M291.673 544.552l16.554 1.709 11.552 5.417-8.173.773-10.858 9.791-.278 36.5-1.89 8.41 7.725 8.176-26.783 12.026-1.292 2.906-6.78 6.005-6.349-12.079 4.116-4.014-2.692-13.717 5.861-5.712-1.774-13.318-8.777-7.37-5.527-32.606-17.705-1.006-2.344-7.338 11.537-21.54 10.75 14.386 10.633 1.19 22.494 11.411z" id="119894"/>
    <path d="M127.154 528.767l-9.856 24.197-10.308 8.04.849 14.499-8.543 2.146 5.329 10.19-15.161 8.815-6.966-8.245-13.175-2.88 3.244-6.476 14.048-3.72-1.657-8.754 9.55-10.108-1.155-11.197 9.101-27.743 12.015 7.483 12.685 3.753z" id="115824"/>
    <path d="M521.638 518.21l5.396 6.302 18.244 8.32 9.352 12.515-17.644 13.99-5.5 7.744-6.439 15.84-13.012 11.541-23.212-9.96 3.68-12.207 10.601-6.332 4.213-10.112-.436-11.825 14.757-25.815z" id="118511"/>
    <path d="M603.139 546.827l15.216.393 9.33 14.14-4.36 12.224-12.867.817-8.852 16.265-10.57-2.503-9.313 3.097-5.76 5.104-10.222-4.255-20.176-1.057-14.11-15.2.032-8.77 5.5-7.744 17.644-13.99-9.353-12.515 2.81-15.787 10.17-2.033 7.146-8.35 5.034 11.793 32.7 28.371z" id="117042"/>
    <path d="M36.768 512.762l20.524 26.495 1.33 14.013-7.003 5.783 4.585 12.417-1.34 8.668-13.82-6.578-3.203 8.767-10.677 6.187-18.937-14.078-2.558-12.038 3.596-7.966L1 526.644l15.617-22.318 10.622-.091 9.529 8.527z" id="116046"/>
    <path d="M102.454 517.531l-9.101 27.743 1.156 11.197-9.551 10.108 1.657 8.754-14.048 3.72-3.244 6.476-4.206 16.186-14.589 4.653-8.188 6.668 2.887-15.932-4.479-6.723.296-16.821 13.82 6.578 1.34-8.668-4.585-12.417 7.004-5.783-1.331-14.013-20.524-26.495 14.094-10.476 14.628-3 23.67 9.602 13.294 8.643z" id="114710"/>
    <path d="M435.587 485.28l4.427 15.558-9.107 16.908-6.01-2.605-18.39-2.802-11.409 5-11.293-.942 2.448-17.718 7.532-9.618 12.134-5.016 17.703 4.033 11.965-2.799z" id="117925"/>
    <path d="M626.122 507.962l-10.596 26.407-12.387 12.458-32.7-28.37-5.035-11.794 18.943-18.444 1.631-8.948 7.844-2.986 17.229 26.405 15.071 5.272z" id="120478"/>
    <path d="M461.413 472.244l14.711 8.065-4.488 9.003 9.792 9.082 15.823 3.088 14.529-14.488 11.716 11.464-10.219 9.648 8.36 10.105-14.756 25.815-22.596-8.598-9.603-13.721-16.087-2.168-12.682-4.715-5.9-13.986-4.426-15.559.916-7.378 4.416-8.048 15.118 4.837 5.376-2.446z" id="118281"/>
    <path d="M129.555 486.527l-.518 11.723 17.29-.914 3.369 9.113-.794 9.932 7.129 10.819-7.235 3.654-16.212-1.394-5.43-.693-12.685-3.753-12.015-7.483-13.294-8.643-23.67-9.602 15.668-12.155L95.49 466.71l19.41 1.713 11.794 9.598 2.861 8.506z" id="119386"/>
    <path d="M193.457 465.265l7.332 13.715 6.33-.304 12.969 17.869 1.76 20.681-15.843 12.481 4.892 4.717-17.78 9.714-13.595.783-8.395-3.735L156.03 527.2l-7.128-10.819.794-9.932 11.794 2.197 6.327-5.516-4.912-10.394 10.166-7.593 9.478-22.837 10.908 2.96z" id="117667"/>
    <path d="M182.549 462.306l-9.478 22.837-10.166 7.593 4.912 10.394-6.327 5.516-11.794-2.197-3.369-9.113-17.29.914.518-11.723 7.707-4.844 17.066-22.583 24.35-1.48 3.87 4.686z" id="118637"/>
    <path d="M87.476 457.9l8.014 8.81-14.332 20.42-15.668 12.156-14.628 3-3.308-11.519 8.926-3.754.06-11.205 9.088-22.172 10.265 4.86 11.583-.595z" id="119858"/>
    <path d="M621.31 455.486l10.317 3.931 3.574 10.946 22.12 12.97-4.26 12.578-26.939 12.05-15.071-5.27-17.229-26.406 1.268-13.583 6.945-1.41 1.992-11.435 17.284 5.63z" id="120496"/>
    <path d="M552.74 443.298l4.667 17.952-11.506 12.137 2.26 16.111-8.967 13.852 1.08 7.847 7.815 5.85-2.81 15.786-18.245-8.32-5.396-6.302-8.36-10.105 10.218-9.648-11.716-11.464-1.08-15.844 6.06-1.994 15.142-21.997 20.838-3.86z" id="120511"/>
    <path d="M436.503 477.9l-.916 7.38-11.965 2.798-17.703-4.033-12.134 5.016-8.405-4.647-8.394 5.336-17.255-1.597-.02-13.007 10.496-4.8.658-13.246 7.083-15.926 8.634 7.44-.298 12.53 15.25 7.817 17.761-8.969 9.05 13.164 8.158 4.745z" id="114417"/>
    <path d="M514.732 444.907l17.17 2.252-15.143 21.997-6.059 1.994 1.08 15.844-14.529 14.488-15.823-3.088-9.791-9.082 4.487-9.003-14.711-8.065 12.024-9.96-5.9-9.747 1.162-11.495 5.565-3.884 19.81 14.5 12.784 1.034 7.874-7.785z" id="120076"/>
    <path d="M315.206 449.93l.81 21.008-.506 3.575-4.493 5.691-.19 24.189-7.054 10.206-1.114 17.813-10.986 12.14-22.494-11.412-10.634-1.19-10.749-14.385-1.738-12.291 22.404-21.12 4.414-17.266 13.573-1.844 5.518-5.096-5.467-23.28 8.894-.751 19.812 14.014z" id="118691"/>
    <path d="M192.435 427.061l7.807 8.025 17.287-6.455-.142 16.425-3.852 12.863-16.415 3.254-3.663 4.092-10.908-2.959-3.87-4.686-24.351 1.48-6.56-6.039 9.65-10.445 16.554-8.804 18.463-6.75z" id="117275"/>
    <path d="M338.098 460.705l-6.637 7.02-15.444 3.213-.81-21.007 22.89 10.774zm41.237-22.088l-1.387 2.557-7.083 15.926-.658 13.246-10.495 4.8.02 13.007-14.525-11.275-5.243-16.599 22.147-18.506-3.351-14.816 11.136 10.86 9.439.8z" id="114453"/>
    <path d="M286.5 436.669l5.467 23.279-5.518 5.096-13.573 1.844-2.937-6.043-20.135-7.54-15.54-16.176 6.796-6.276 17.048 2.948 3.552-6.292 9.763 9.457 15.077-.297z" id="120502"/>
    <path d="M170.452 410.88l3.52 22.932-16.555 8.804-9.649 10.445-23.984-19.305 3.45-18.689 8.76-3.732 34.458-.455z" id="119750"/>
    <path d="M89.223 406.265l8.685.504 29.326 8.298-3.45 18.689 23.984 19.305 6.56 6.039-17.066 22.583-7.707 4.844-2.86-8.506-11.795-9.598-19.41-1.713-8.014-8.81 6.118-9.953-3.896-13.46-.475-28.222z" id="120370"/>
    <path d="M470.983 428.988l-2.284 12.054-1.162 11.495 5.9 9.747-12.024 9.96-5.376 2.446-15.118-4.837-4.416 8.048-8.159-4.745-9.049-13.164-17.76 8.969-15.251-7.816.298-12.532-8.634-7.44 1.387-2.556 3.492-12.785 12.035-19.284 5.593 8.048 14.607 1.964 11.364-3.574 5.964 9.467 1.141 11.573 15.963.349 21.489-5.387z" id="116652"/>
    <path d="M89.223 406.265l.475 28.222 3.896 13.46-6.118 9.954-11.583.596-10.265-4.861-24.084-14.334 4.635-23.352L81.636 402.4l5.06-.05 2.527 3.916z" id="119974"/>
    <path d="M208.769 398.518l16.08 23.1 12.475.12 3.736 9.115-6.795 6.276 15.54 16.177 20.134 7.54 2.937 6.042-4.414 17.265-22.404 21.12 1.738 12.292-11.537 21.54 2.344 7.337-11.965 1.274-1.832-7.564-13.909-5.728-4.892-4.717 15.842-12.48-1.76-20.682-12.968-17.869-6.33.304-7.332-13.715 3.663-4.092 16.415-3.254 3.852-12.863.142-16.425-17.287 6.455-7.807-8.025.017-11.913 6.941-12.203 9.376-4.427z" id="115389"/>
    <path d="M515.575 387.9l10.665 4.479 9.618 9.199-6.785 18.435-14.341 24.894-7.874 7.785-12.785-1.034-19.81-14.5-5.564 3.884 2.284-12.054 10.299-4.867 4.291-9.664 8.575-2.21 7.4-20.271 11.768-6.84 2.26 2.764z" id="117505"/>
    <path d="M234.446 382.373l10.808 10.827 21.755 1.583 6.748-7.124 5.598 9.335-1.7 9.029-15.156 15.961-.839 5.525-3.552 6.292-17.048-2.948-3.736-9.114-12.475-.12-16.08-23.101 11.1-3.058 14.577-13.087z" id="119803"/>
    <path d="M759.828 394.302l-8.017 4.217.82 17.276-3.236 12.344-6.792 8.183-15.204-.03-9.229 22.133-27.822 18.552-13.524-4.618-19.504 10.974-22.12-12.97-3.573-10.946-10.316-3.93 7.283-16.84-16.123-1.315-1.428-7.145 3.833-12.534 11.058-4.488 3.63-9.396 32.605 2.673 5.176-6.512 15.082-6.523 11.25-1.467 25.061-15.039 17.964-1.362 8.577 2.225 1.205 8.536 13.344 8.002z" id="114854"/>
    <path d="M312.113 380.91l3.22 8.41 24.458 13.992 14.164 13.642 4.805 10.003 3.35 14.816-22.146 18.506-1.866.426-22.892-10.774-19.812-14.014-8.894.752-15.077.297-9.763-9.457.84-5.525 15.154-15.961 1.701-9.029-5.598-9.335 8.245-5.243 12.112-14.28 9.757 10.152 8.242 2.622z" id="115959"/>
    <path d="M234.446 382.373l-14.577 13.087-11.1 3.058-9.376 4.427-6.941 12.203-.017 11.913-18.463 6.75-3.52-22.931-6.52-8.517 3.854-12.31 20.864-8.809 6.683-8.882 25.296-7.262 10.573 3.152 3.244 14.121z" id="118824"/>
    <path d="M345.818 362.342l10.905 6.001 17.53 15.934 19.83.791 4.23 4.864-3.45 16.616-12.036 19.284-3.492 12.785-9.44-.8-11.135-10.86-4.805-10.003-14.164-13.642-24.458-13.993-3.22-8.409 11.193-2.31 12.958-16.633 9.554.375z" id="117113"/>
    <path d="M144.466 361.01l11.039 10.632 12.28 18.41-3.853 12.311 6.52 8.517-34.457.455-8.76 3.732-29.327-8.298-8.685-.504-2.527-3.916 12.812-31.679 18.014-7.196 7.05 3.284 19.894-5.747z" id="118370"/>
    <path d="M423.28 360.377l.082 7.16 15.394 9.167 31.033-2.937 21.074 11.13 2.546-1.684 19.907 1.923-11.768 6.84-7.4 20.27-8.575 2.21-4.291 9.665-10.3 4.867-21.488 5.387-15.963-.349-1.142-11.573-5.963-9.467-11.364 3.574-14.607-1.964-5.593-8.048 3.45-16.616-4.229-4.864 7.684-3.799 14.304-23.209 7.208 2.317z" id="117177"/>
    <path d="M631.499 359.322l36.993-1.846 14.103-6.354 18.732 6.043 17.518 9.37 11.747 3.02 6.11 5.984-17.964 1.362-25.061 15.039-11.25 1.467-15.082 6.523-5.176 6.512-32.604-2.673-3.955-6.8 6.844-12.428-12.474-12.594-21.871 12.657-17.179-.458-15.548 6.76-4.518 7.697-25.006 2.975-9.618-9.2-10.665-4.478 19.315-10.605 7.021-18.87 12.242-5.717 11.587-3.042 4.695-6.256 19.557 14.22 17.059-.623 14.446 9.942 10.002-7.627z" id="116126"/>
    <path d="M401.016 339.781l3.794 14.417 11.26 3.863-14.303 23.208-7.684 3.799-19.83-.791-17.53-15.934-10.905-6.001-2.788-7.987 29.558 3.446-1.462-12.456 9.173-8.438 9.97-1.317 10.747 4.191z" id="120316"/>
    <path d="M318.684 330.508l20.186 14.586 4.16 9.261 2.788 7.987-9.554-.375-12.958 16.632-11.193 2.311-8.242-2.622-9.757-10.152-.06-14.455 24.63-23.173z" id="115600"/>
    <path d="M554.153 352.708l-12.242 5.717-7.02 18.87-19.316 10.605-2.259-2.764-19.908-1.923 3.87-25.976-22.119-2.08-1.135-14.857-5.132-5.54 10.992 1.61 8.263-8.618 16.671-3.346 10.245 16.195 23.127-6.909.278 6.228 15.685 12.788z" id="115708"/>
    <path d="M452.987 325.299l15.905 9.46 5.132 5.541 1.135 14.857 22.119 2.08-3.87 25.976-2.545 1.684-21.074-11.13-31.033 2.937-15.394-9.167-.083-7.16 5.39-15.206 14.207-7.57 2.825-13.442 7.286 1.14z" id="118799"/>
    <path d="M262.34 328.29l13.523 1.412 7.276 8.399-4.844 6.578 4.871 10.581 10.887-1.58.06 14.456-12.11 14.28-8.245 5.243-6.749 7.124-21.755-1.583-10.808-10.827-3.244-14.121-10.573-3.152-11.625-9.112 1.636-13.025-10.691-13.546-1.437-8.03 18.996 3.48 8.923-2.93 13.105 9.75 22.805-3.397z" id="118995"/>
    <path d="M292.322 315.622l9.445 7.15 10.3 1.649 6.617 6.087-24.63 23.173-10.888 1.579-4.871-10.581 4.844-6.578-7.276-8.399-13.522-1.412 4.966-18.335 25.015 5.667z" id="116340"/>
    <path d="M198.512 321.388l1.436 8.03 10.692 13.545-1.636 13.025 11.625 9.112-25.296 7.262-6.683 8.882-20.864 8.809-12.281-18.41-11.038-10.632 3.498-19.843-.9-11.529 10.453-6.128-1.77-22.168 16.978 7.138 17.238 10.541 8.548 2.366z" id="119527"/>
    <path d="M406.997 298.294l3.658 5.932.195 28.055-9.834 7.5-10.746-4.191-9.971 1.317-9.173 8.438-10.097-10.084-11.484-.466-4.984-15.054 9.467-1.272 9.496-11.262-6.65-9.527 2.714-6.912 47.41 7.526z" id="115851"/>
    <path d="M359.588 290.768l-2.715 6.912 6.651 9.527-9.496 11.262-9.467 1.272 4.984 15.054 11.484.466 10.097 10.084 1.462 12.456-29.559-3.446-4.16-9.26-20.185-14.587-6.617-6.087-10.3-1.648-9.445-7.15 11.898-14.562 12.017 6.858 12.012-8.04 4.217 5.57 10.902-1.856 3.221-13.29 12.999.465z" id="116723"/>
    <path d="M155.748 301.343l1.77 22.168-10.452 6.128.9 11.529-3.5 19.843-19.894 5.747-7.05-3.284-18.014 7.196-5.81-8.208-13.763-2.001-12.889-20.13 12.048-16.374 15.884 9.517 6.428-3.206-6.049-18.898 1.768-4.894 28.836-5.534 17.827-15.762 11.146 10.385.814 5.778z" id="119242"/>
    <path d="M740.675 243.636l8.888 6.96 10.262 1.53 6.179-.552 15.043 9.991-4.653 13.151 3.565 14.618 16.365 10.056L799 313.091l-17.08 14.865-16.116 2.034-.87 19.352 13.81 17.513 6.778 16.287-8.056 13.401-17.638-2.24-13.344-8.002-1.205-8.537-8.577-2.225-6.11-5.983-11.747-3.022-17.518-9.37-18.732-6.042-14.103 6.354-36.993 1.846-23.428-14.402-.387-7.963-15.16-3.993-17.087 2.204-12.116-13.732-10.969-3.736.768-10.993 12.127 4.849 39.263 2.334 1.289-12.482 21.251-11.503 17.44-5.893 15.785-14.215 32.623-2.716.711-2.809 11.277-6.145 16.753-3.964 11.225-11.458 7.811.931z" id="117550"/>
    <path d="M487.874 237.812l7.466 13.12 20.951-6.322 16.689 3.905 5.866 4.338-8.82 13.692-16.636 6.966-11.454 13.02-12.313.076-23.727 9.887-3.292-10.83 3.541-19.484 10.33-19.129 2.747-16.45 8.652 7.21z" id="117783"/>
    <path d="M693.61 264.272l-.712 2.809-32.623 2.716-15.785 14.215-17.44 5.893-21.251 11.503-1.289 12.482-39.263-2.334-12.127-4.85 7.491-18.066 11.905-7.97.29-7.175 11.837-13.028 16.228-5.684 5.106-12.631 11.618-10.371-.466-8.84 15.574 5.086 13.136 7.846 21.507 5.452 14.86 8.21 11.403 14.737z" id="117426"/>
    <path d="M603.066 212.053l12.64 10.718 1.423.17.466 8.84-11.618 10.371-5.106 12.63-16.227 5.685-11.838 13.029-.29 7.174-11.904 7.97-7.492 18.067-.768 10.993 10.969 3.736 12.116 13.732 17.088-2.204 15.16 3.993.386 7.963 23.428 14.402-10.002 7.627-14.446-9.942-17.059.623-19.557-14.22-4.694 6.256-11.588 3.042-15.685-12.788-.278-6.228-23.127 6.91-10.245-16.196-16.67 3.346-8.264 8.617 1.183-15.084 22.337-23.326 7.324-11.457 14.556-7.943 4.743-12.014 8.819-13.692 14.634-3.533 19.649-11.455 5.997 1.411 15.397-16.83 1.412-8.205 5.609-2.452 1.522.264z" id="117319"/>
    <path d="M583.156 214.37l-2.272 9.136-7.688 4.883-12.046.116-9.645-6.632-13.916-3.584-8.581 8.13-10.407-1.886-12.992 3.378-3.993 5.376-13.742 4.525-8.652-7.212 10.72-16.081 7.152-1.772 8.196-10.39 5.285-6.153 9.317 4.506 20.226-7.272 14.571 10.605 24.172 1.383 4.295 8.943z" id="115147"/>
    <path d="M595.935 214.241l-1.412 8.206-15.397 16.829-5.997-1.41-19.65 11.454-14.633 3.533-5.866-4.338-16.689-3.905-20.95 6.321-7.467-13.12 13.742-4.524 3.993-5.376 12.992-3.378 10.407 1.886 8.581-8.13 13.916 3.584 9.645 6.632 12.047-.116 7.687-4.883 2.272-9.137 12.779-.128zm-105.613-16.71l14.968 4.826-8.196 10.39-7.152 1.772-10.72 16.081-2.747 16.451-10.33 19.129-3.115-16.495-13.888-14.283-19.395 3.961 3.632-10.514-11.443-.552 7.641-22.643 10.022-7.565 12.819.826 17.15-5.086-6.81-9.456 27.564 13.159z" id="115897"/>
    <path d="M601.544 211.789l-5.61 2.452-12.778.128-4.295-8.943-24.172-1.383-14.571-10.605-20.226 7.272-9.317-4.506-5.285 6.153-14.968-4.825-2.576-9.023 18.169-12.855 10.225-11.038 2.733 11.89 15.5-1.326 7.05 8.937 23.822 2.702 5.548-10.965 6.556-.619 14.688 6.709 13.28 21.74-3.773 8.105z" id="119153"/>
    <path d="M603.066 212.053l-1.522-.264 3.773-8.104-13.28-21.741-14.688-6.709-6.556.619-5.548 10.965-23.822-2.702-7.05-8.936-15.5 1.324-2.733-11.89-2.236-28.447 14.33-21.147 20.482-1.377 10.56-7.642-1.032 11.005 12.933 43.407 8.462 4.391 15.852 1.465 9.067-3.766 14.345 15.722 3.154 8.742-2.014 17-9.572 8.433-7.405-.348z" id="116545"/>
    <path d="M759.825 252.125l-10.262-1.53-8.888-6.959.749-9.475-15.493-22.145 4.035-11.23-13.238-20.364.731-12.281-7.922-14.887.597-11.015 15.873-14.735 5.188-23.712 10.96-11.031 17.182-9.04-2.279-6.503 13.361 14.084-2.782 16.531 13.325 15.886.537 17.916-10.671 21.464-.626 16.685-4.121 12.695 6.354 14.74-12.61 44.906z" id="119625"/>
    <path d="M578.774 30.184l7.027 4.502-5.076 14.018 2.021 8.46-11.717 15.217 2.175 6.383-11.947 16.169-1.982 11.069-10.56 7.642-20.48 1.377-14.33 21.147 2.235 28.448-10.225 11.038-18.169 12.856 2.576 9.022-27.564-13.159-12.141-9.906 11.384-17.919 1.187-27.654 11.163-8.252 8.686-15.123 4.636-21.862 5.76-10.052 25.901-24.994 9.258-13.568 8.902-7.243 16.54-3.118L573.68 35.22l5.094-5.036z" id="120138"/>
    <path d="M757.058 77.218l2.279 6.504-17.182 9.039-10.96 11.032-5.188 23.711-15.873 14.735-.597 11.015 7.922 14.887-.731 12.28 13.238 20.365-4.035 11.23 15.493 22.145-.749 9.475-7.81-.93-11.226 11.457-16.753 3.964-11.277 6.145-11.404-14.737-14.859-8.21-21.507-5.452-13.136-7.846-15.574-5.086-1.423-.17 6.881-10.03 4.747-16.288 9.267-5.741 10.895-31.189.572-18.533-6.314-11.58 10.98-7.74 13.965-21.076 5.172-18.103 6.065-5.44-3.574-13.972 4.345-10.022 15.28-16.063 2.963-16.421L708.475 6.64l10.466 1.422 10.33 12.243 14.61 4.16 9.293 10.04-6.007 18.02.454 12.45 9.437 12.243z" id="118058"/>
    <path d="M696.95 20.573l-2.964 16.42-15.279 16.064-4.345 10.022 3.574 13.972-6.065 5.44-5.172 18.103-13.965 21.077-10.98 7.74 6.314 11.58-.572 18.532-10.895 31.189-9.267 5.741-4.746 16.288-6.882 10.03-12.64-10.718 7.405.348 9.572-8.433 2.014-17-3.154-8.742-14.345-15.722-9.067 3.766-15.852-1.465-8.462-4.39-12.933-43.408 1.031-11.005 1.982-11.07 11.947-16.168-2.175-6.383 11.717-15.216-2.021-8.461 5.076-14.018-7.027-4.502 4.777-13.161 8.626-1.105 20.072 6.865 11.691-1.32 8.836-11.848L649.925 1l17.596 13.375 16.505-1.075 12.924 7.273z" id="118931"/>
    <path d="M302.786 262.665l22.136 5.005 10.257 7.045 12.783-.05-1.373 15.638-3.221 13.29-10.901 1.855-4.218-5.57-12.012 8.04-12.017-6.857-13.33-6.133 8.347-18.399-2.93-7.272 6.479-6.592z" id="116224"/>
    <path d="M629.565 403.77l-3.631 9.395-11.058 4.488-3.833 12.534-20.043 7.7-16.752.764-9.08-3.9-12.428 8.547-20.838 3.86-17.17-2.251 14.341-24.894 6.785-18.435 25.006-2.975 4.518-7.697 15.548-6.76 17.179.458 21.871-12.657 12.474 12.594-6.843 12.427 3.954 6.801z" id="116590"/>
    <path d="M621.31 455.486l-17.283-5.63-1.992 11.436-6.945 1.41-1.268 13.583-7.844 2.986-1.63 8.948-18.944 18.444-7.147 8.35-10.168 2.033-7.816-5.849-1.08-7.847 8.968-13.852-2.26-16.111 11.506-12.137-4.667-17.952 12.428-8.546 9.08 3.899 16.752-.763 20.043-7.701 1.428 7.145 16.123 1.315-7.283 16.84z" id="118094"/>
    <path d="M315.51 474.513l21.648 11.477 8.515 12.424-12.885 12.475-9.587 2.19-2.329 11.609-6.648 6.125-11.565 1.599 1.114-17.813 7.054-10.206.19-24.189 4.493-5.69z" id="114382"/>
    <path d="M355.079 538.963l-3.613 12-15.17-1.533-8.565-6.067-7.952 8.315-11.552-5.417-16.554-1.709 10.986-12.14 11.565-1.599 17.018 9.89 10.267-9.158 13.57 7.418z" id="114355"/>
    <path d="M336.296 549.43l-2.954 10.128 11.96 11.424-10.95 4.828 1.856 12.095 7.441 10.973-1.694 7.764-13.546-10.332-6.265 7.267 2.058 8.497-17.897 3.254-7.725-8.177 1.89-8.409.278-36.5 10.858-9.791 8.173-.773 7.952-8.315 8.565 6.067z" id="116983"/>
    <path d="M379.215 532.405l12.317 9.214-6.384.69-3.615 11.85.719 26.128-16.931 18.102-2.156 15.244-10.1 3.324-7.258-5.257-3.852-5.058 1.694-7.764-7.441-10.973-1.857-12.095 10.952-4.828-11.96-11.424 2.953-10.128 15.17 1.534 3.613-12 2.129-10.877 13.625 5.627 8.382-1.309z" id="116288"/>
    <path d="M426.303 522.307l23.21 23.24-.55 12.265 10.93 3.075 2.077 14.137-2.03 17.12-1.262 3.718-10.984-5.01-16.163-13.635-10.127-18.87-.057-7.512-8.655-12.48 13.61-16.048z" id="118753"/>
    <path d="M506.881 544.026l.436 11.825-4.213 10.111-10.6 6.333-3.681 12.207-15.168 2.27-13.714 5.373 2.03-17.12-2.078-14.138-10.93-3.075.55-12.265-23.21-23.24-1.406-7.166 6.01 2.605 9.107-16.908 5.899 13.986 12.682 4.715 16.087 2.168 9.602 13.721 22.597 8.598z" id="116867"/>
    <path d="M253.612 717.504l3.644 13.025 12.88 9.752.295 1.287-11.744 11.174-6.88-1.126-5.785 8.224-15.06-9.118-9.233 3.58-14.074-1.85-9.805-8.03 5.084-4.973.143-19.314 10.892.864 3.966-6.051 10.22-4.81 4.132 5.883 21.325 1.483z" id="115575"/>
    <path d="M193 650.447l9.242 7.932 12.402 5.225 2.034 10.88-5.106 3.996-1.597 14.548 2.535 16.102 5.425 5.818-3.966 6.051-10.892-.865-.143 19.315-5.084 4.973-4.413-19.276-5.696-9.9 2.12-16.323-14.046.706-13.693-17.366-7.774.286-9.707-21.513 9.874-6.455 2.204-8.019 22.42-4.35 5.547 7.754 8.313.481z" id="114925"/>
    <path d="M144.02 658.055l.62 2.98 9.708 21.514 7.774-.286 13.693 17.366 14.046-.706-2.12 16.323 5.696 9.9-9.796 6.304-5.254 19.48-14.229.492-28.12-25.596-5.982-.328-7.698 11.734-5.7-19.298-9.85-8.213 3.824-21.435-11.021-8.672 17.467-2.866 3.12-11.137 8.206-9.905 15.615 2.35z" id="115076"/>
    <path d="M439.599 198.09l-10.022 7.564-7.64 22.643 2.514 13.21-5.85 15.565 3.253 12.95-13.343 7.675-5.225 7.991-13.044-4.35-5.837-9.22-7.247-31.088 5.892-3.299-4.753-12.857 2.696-10.37-10.485-25.74.604-11.605 4.999-13.667 26.111-.154.672 16.84 7.817 1.938 5.08 11.17 23.808 4.803z" id="115520"/>
    <path d="M370.508 188.764l10.485 25.74-2.696 10.37 4.753 12.857-5.892 3.299 7.247 31.088 5.837 9.22 13.044 4.35 3.711 12.606-47.41-7.526-12.998-.465 1.373-15.639-12.783.051-10.257-7.045-22.136-5.005 20.115-9.781 3.701-9.176 8.477-1.83 9.444-33.169-4.246-12.966 15.856 1.28 7.595-8.388 6.78.129z" id="117998"/>
    <path d="M530.027 266.546l-4.743 12.013-14.556 7.943-7.324 11.457-22.337 23.326-1.183 15.084-10.992-1.61-15.905-9.46 6.25-26.768 6.659-2.037 23.727-9.887 12.313-.075 11.454-13.02 16.637-6.966z" id="119590"/>
    <path d="M560.115 799.343l-5.452 7.704 3.172 18.44 7.088 11.378 7.535 1.467 10.195 14.852 5.063 13.02-1.099 9.757-5.445 13.117.13 12.285-16.806-.358-10.344-9.98-.183-12.708-22.028-4.096-12.601 3.355-14.093 10.79-26.243-5.847-6.172-21.543-14.314-25.947 3.405-15.486 7.126-12.475 11.486 3.24 6.828 8.388 24.928 17.423 7.263-7.063 9.368 6.14 10.851-2.071-5.388-9.698 1.956-16.661 5.3.026 5.999-20.611 5.976 10.71 6.499 2.452z" id="115183"/>
    <path d="M659.72 839.804l-20.093-14.731-6.046-7.253 2.228-19.374-9.935-5.002-15.107-17.086-12.826-.903-6.315-6.578-9.859 6.659-4.541 9.596-8.41 1.788 1.773 9.26-10.474 3.163-6.499-2.452-5.976-10.71 3.336-6.332 1.827-28.069-4.575-11.186 9.716-4.296-1.286-8.803 15.863 10.874 3.584 18.35 18.638 3.807 9.881 6.33 11.234-9.563 19.359 6.981 18.639-4.175 4.627 10.926 14.927-.354 6.222 19.788 10.493 18.52 12.663 8.302 9.72 13.755-9.88 3.204-15.176 13.206-14.438-6.54-13.294-1.102z" id="120254"/>
    <path d="M659.72 839.804l-19.057 15.507-16.118-7.456-24.692 14.053-13.236 14.053 1.1-9.758-5.064-13.019-10.195-14.852-7.535-1.467-7.088-11.378-3.172-18.44 5.452-7.704 10.474-3.164-1.773-9.26 8.41-1.787 4.541-9.596 9.859-6.659 6.315 6.578 12.826.903 15.107 17.086 9.935 5.002-2.228 19.374 6.046 7.252 20.093 14.732z" id="119206"/>
    <path d="M437.54 615.293l6.054 11.757 13.375-1.885 8.379-6.24 12.063-1.272 1.634 26.009-5.65 1.833-4.258 15.393-14.294-8.118-18.422 6.569-11.34 20.357-3.718 14.277 6.074 29.32-10.561 6.673-11.695.173-1.866-19.178-9.256-42.606 12.239-20.071 3.135-19.598-6.678-1.977.507-10.459 34.278-.957z" id="115637"/>
    <path d="M424.897 515.14l1.406 7.167-13.61 16.048-21.161 3.264-12.317-9.214-5.483-8.94 10.073-7.068 11.293.943 11.41-5.001 18.389 2.802z" id="120487"/>
    <path d="M359.731 488.153l17.255 1.597 8.394-5.337 8.405 4.648-7.532 9.618-2.448 17.718-10.073 7.068 5.483 8.94-8.382 1.31-13.625-5.628-2.13 10.876-13.569-7.418-10.267 9.158-17.018-9.89 6.648-6.125 2.33-11.61 9.587-2.19 12.884-12.474-8.515-12.424-21.648-11.477.507-3.575 15.444-3.213 6.637-7.02 1.866-.425 5.243 16.598 14.524 11.275z" id="114319"/>
    <path d="M421.936 228.297l11.443.552-3.632 10.514 19.395-3.961 13.887 14.283 3.116 16.495-3.541 19.484-8.866 2.699-11.219-9.096-20.665-9.246-3.252-12.949 5.849-15.565-2.515-13.21z" id="119723"/>
    <path d="M421.854 270.021l20.665 9.246 11.22 9.096 8.865-2.699 3.292 10.83-6.66 2.037-6.249 26.768-7.287-1.14-2.824 13.442-14.207 7.57-5.39 15.206-7.208-2.317-11.26-3.862-3.795-14.417 9.834-7.5-.195-28.055-3.658-5.932-3.71-12.606 5.224-7.99 13.343-7.677z" id="114809"/>
  </g>
</svg>
