<svg xmlns="http://www.w3.org/2000/svg" version="1.2" baseProfile="tiny" stroke-linecap="round" stroke-linejoin="round" viewBox="0 0 800 903">
  <g id="MS" fill="none" stroke="#aaa">
    <path d="M443.903 729.41l9.568 24.146 1.168 28.365-2.311 6.236 9.587 31.556-3.405 15.486 14.314 25.948 6.172 21.543-2.52 12.096-13.256-2.388-26.02 7.084-6.764-10.96-11.446-9.485 2.88-20.012-5.08-7.72 6.715-9.016-3.27-16.838 4.95-12.905-3.003-26.92-15.72-14.696 11.136 3.22 4.298-18.64-5.03-25.376 10.563-6.673 16.474 5.949z" id="116493" data-name="Daneș" class="comuna"/>
    <path d="M499.206 719.692l-7.186 11.406 1.889 7.284 12.896-.116 13.021 11.548-12.109 13.692 5.117 11.904-2.44 8.863 6.297 16.01-.885 16.792 3.741 12.152-7.263 7.063-24.928-17.424-6.829-8.389-11.486-3.239-7.126 12.475-9.587-31.556 2.312-6.236-1.17-28.365-9.567-24.146 10.136 5.825 32.213-21.54 12.954 5.997z" id="114514" data-name="Sighișoara" class="municipiu"/>
    <path d="M531.196 703.789l15.797 10.076 9.66 13.798 1.286 8.803-9.717 4.296 4.575 11.187-1.827 28.07-3.336 6.331-6 20.611-5.299-.025-1.956 16.661-5.464 11.77-9.368-6.14-3.741-12.152.885-16.792-6.296-16.01 2.44-8.863-5.118-11.904 12.11-13.692-13.022-11.548-12.896.116-1.889-7.284 7.186-11.406 5.152-9.042-11.251-13.152 4.28-7.477 17.832 9.938-1.39 8.374 11.928 2.456 5.439-7z" id="114603" data-name="Albești" class="comuna"/>
    <path d="M359.823 671.18l15.022 12.873 5.143 16.72 9.488 10.04 13.83.316 1.866 19.179-13.856 23.091-13.263-1.18-6.106-15.718-13.548 4.462-3.72 7.817-13.708-2.571-8.041-10.355 3.602-29.678-4.494-25.476.351-12.162 15.657 3.761 11.777-1.118z" id="120218" data-name="Viișoara" class="comuna"/>
    <path d="M469.13 661.055l23.977 36.443 11.251 13.152-5.152 9.042-12.954-5.996-32.213 21.538-10.136-5.824-16.475-5.95-6.074-29.32 3.718-14.277 11.34-20.358 18.423-6.569 14.294 8.119z" id="118469" data-name="Nadeș" class="comuna"/>
    <path d="M526.75 672.692l9.423 6.993-4.977 24.104-5.439 7-11.927-2.456 1.389-8.374-17.833-9.938-4.28 7.477-23.977-36.443 4.258-15.394 5.65-1.833 7.692 11.064 9.79 3.476 5.967 8.43 24.263 5.894z" id="120174" data-name="Vețca" class="comuna"/>
    <path d="M332.038 680.7l4.494 25.476-3.602 29.678 8.041 10.355-2.533 8.58-11.644-2.958-10.68 9.589-4.822-13.504-14.31-2.565-17.625 2.55-8.939-6.164-.295-1.288 15.112-18.913-1.224-18.673 7.815-16.864-5.066-18.515-10.837-10.65 10.245-14.534 9.897 3.157 22.572.21 7.32-6.586 4.263 21.57-3.786 9.484 5.604 10.566z" id="115307" data-name="Bahnea" class="comuna"/>
    <path d="M226.371 648.656l11.513 14.834 13.747 1.134 3.756 20.305 6.262 13.714-8.05 19.029-35.678-2.556-5.425-5.818-2.535-16.103 4.669-29.424-21.645-13.158 5.575-9.172 21.333-6.81 6.478 14.025z" id="116938" data-name="Gănești" class="comuna"/>
    <path d="M403.306 711.129l-13.83-.317-9.488-10.038-5.144-16.721-15.021-12.872-5.506-18.216 3.947-6.962 6.267-6.083 16.734 5.92 10.69-6.664 10.79-12.301 6.68 1.977-3.136 19.598-12.24 20.072 9.257 42.607z" id="120343" data-name="Zagăr" class="comuna"/>
    <path d="M94.557 643.547l9.277 12.005 16.348 10.226-3.12 11.136-17.468 2.867-27.736 1.204-16.607-8.473-20.138-14.07 6.53-5.097 1.174-10.311 11.843-10.487 15.285-6.795 7.36 4.317-.32 11.928 17.572 1.55z" id="115771" data-name="Bichiș" class="comuna"/>
    <path d="M269.204 620.337l9.014 10.089 7.95 11.874-10.245 14.534 10.837 10.65 5.066 18.515-7.815 16.863 1.224 18.674-15.112 18.913-12.88-9.751-3.644-13.026 8.05-19.03-6.262-13.713-3.756-20.305-13.747-1.134-11.513-14.834 14.793-2.758-1.906-16.134 7.096-7.345 22.85-2.082z" id="118209" data-name="Mica" class="comuna"/>
    <path d="M363.155 613.798l40.098 2.618-.508 10.459-10.79 12.3-10.69 6.666-16.734-5.92-6.267 6.082-6.495-20.35-13.292-5.337 7.32-8.45 7.257 5.256 10.1-3.323z" id="116171" data-name="Coroisînmărtin" class="comuna"/>
    <path d="M196.813 623.486l1.748 17.955-5.576 9.172-13.861-8.235-22.42 4.35-2.204 8.02-9.875 6.454-.621-2.98-3.873-9.936 19.24-48.849 18.957 2.809 18.485 21.24z" id="116395" data-name="Cucerdea" class="comuna"/>
    <path d="M341.944 606.808l3.852 5.057-7.32 8.451 13.293 5.337 6.495 20.35-3.947 6.962 5.506 18.216-11.777 1.118-15.657-3.761-.351 12.163-5.604-10.566 3.786-9.485-4.263-21.568-7.32 6.584-22.572-.209-9.897-3.157-7.95-11.874 28.076-14.933 17.896-3.254-2.057-8.497 6.265-7.266 13.546 10.332z" id="119661" data-name="Suplac" class="comuna"/>
    <path d="M104.608 588.003l9.8.191-7.734 14.51-4.701 17.198-5.025 5.315-2.39 18.33-17.573-1.55.32-11.928-7.36-4.317-15.285 6.795-11.843 10.487-1.173 10.311-20.598-4.785-3.58-7.907 12.01-7.81 12.846-19.641 8.189-6.668 14.588-4.654 4.206-16.187 13.176 2.881 6.966 8.245 15.161-8.816z" id="115236" data-name="Ațintiș" class="comuna"/>
    <path d="M512.028 594.627l-13.87 12.303 3.053 15.596 31.649 21.811 7.194-.99 5.036 15.907-14.54 7.164-3.8 6.274-24.264-5.895-5.968-8.43-9.79-3.475-7.69-11.064-1.635-26.01-12.063 1.273-8.38 6.24-13.375 1.885-6.054-11.758 21.745-11.277-.606-8.154 1.263-3.717 28.882-7.644 23.213 9.961z" id="116796" data-name="Fîntînele" class="comuna"/>
    <path d="M581.718 591.424l1.796 7.97-8.422 11.105.6 10.637 13.67 3.95 11.339 16.282-17.879 8.652-10.44-2.21-6.612-10.025-25.716 5.562-7.194.99-31.65-21.811-3.052-15.596 13.87-12.303 13.013-11.54 6.44-15.841-.033 8.77 14.11 15.2 20.177 1.058 10.223 4.255 5.76-5.105z" id="119331" data-name="Sângeorgiu de Pădure" class="oras"/>
    <path d="M269.204 620.337l-22.85 2.082-7.096 7.345-1.324-9.11-8.289-7.721-8.567-19.544 1.986-10.76-11.031-13.585 6.135-13.174 8.457-7.99 11.964-1.274 17.706 1.007 5.527 32.607 8.778 7.37 1.774 13.318-5.861 5.712 2.692 13.717z" id="119466" data-name="Sînpaul" class="comuna"/>
    <path d="M412.683 538.52l8.655 12.479.057 7.512 10.128 18.87 16.162 13.636 10.985 5.01.606 8.154-21.745 11.277-34.278.958-40.098-2.618 2.156-15.244 16.93-18.103-.718-26.129 10-12.54 21.16-3.263z" id="114970" data-name="Acățari" class="comuna"/>
    <path d="M226.625 547.88l-8.457 7.99-6.135 13.174 11.031 13.585-1.986 10.76 8.567 19.544 8.289 7.72 1.324 9.111 1.906 16.134-14.793 2.758-6.478-14.025-21.333 6.81-1.747-17.955 9.476-10.393-6.237-14.632 2.13-20.564-20.934-27.064 11.854-6.531 17.781-9.715 13.909 5.73 1.833 7.562z" id="118575" data-name="Ogra" class="comuna"/>
    <path d="M132.568 529.623l5.891 12.804 8.683 8.645-3.414 14.778-12.356 1.512-5.46 22.26 10.2 3.037-18.494 22.04-9.47 32.404-4.314 8.45-9.277-12.006 2.39-18.33 5.026-5.315 4.7-17.197 7.736-14.511-9.8-.19 2.364-26.835 10.308-8.04 9.857-24.198 5.43.692z" id="116439" data-name="Cuci" class="comuna"/>
    <path d="M156.015 527.363l15.097 13.987 21.99 2.952-11.854 6.53 20.934 27.065-2.13 20.564 6.237 14.632-9.476 10.393-18.485-21.24-18.956-2.809-19.241 48.849 3.873 9.936-15.616-2.35-8.206 9.906-16.348-10.226 4.314-8.449 9.47-32.405 18.495-22.039-10.201-3.036 5.46-22.26 12.356-1.513 3.414-14.778-8.683-8.645-5.89-12.804 16.211 1.394 7.235-3.654z" id="117827" data-name="Iernut" class="oras"/>
    <path d="M291.661 544.716l16.555 1.708 11.552 5.418-8.174.773-10.858 9.791-.277 36.501-1.891 8.41 7.726 8.177-28.076 14.932-9.014-10.089-2.691-13.717 5.86-5.712-1.773-13.319-8.778-7.37-5.527-32.606-17.706-1.007-2.343-7.338 11.537-21.54 10.75 14.386 10.633 1.19 22.495 11.412z" id="119894" data-name="Ungheni" class="oras"/>
    <path d="M127.138 528.93l-9.857 24.198-10.308 8.04-2.365 26.835-15.161 8.816-6.966-8.245-13.176-2.88 3.245-6.476 14.048-3.72-1.657-8.755 9.551-10.108-1.156-11.198 9.102-27.743 24.7 11.237z" id="115824" data-name="Bogata" class="comuna"/>
    <path d="M521.631 518.374l5.397 6.301 18.244 8.321 9.353 12.515-17.645 13.991-5.5 7.744-6.44 15.84-13.012 11.541-23.213-9.96 3.68-12.207 10.602-6.333 3.777-21.937 14.757-25.816z" id="118511" data-name="Neaua" class="comuna"/>
    <path d="M603.134 546.991l15.217.393 9.33 14.14-4.361 12.224-12.867.817-8.852 16.266-19.883.593-5.76 5.105-10.223-4.255-20.176-1.057-14.11-15.201.031-8.77 5.5-7.744 17.645-13.99-9.353-12.516 2.81-15.787 10.17-2.032 7.146-8.352 5.035 11.794 32.7 28.372z" id="117042" data-name="Ghindari" class="comuna"/>
    <path d="M36.75 512.925l20.524 26.496 1.331 14.013-7.004 5.784 3.246 21.085-13.82-6.579-3.204 8.768-14.688 18.462-7.637-2.808 11.648-9.467-18.938-14.078-2.558-12.04 3.596-7.965L1 526.016l15.599-21.527 10.621-.092 9.53 8.528z" id="116046" data-name="Chețani" class="comuna"/>
    <path d="M102.438 517.694l-9.102 27.743 1.156 11.198-9.551 10.108 1.657 8.755-14.048 3.72-3.245 6.475L65.1 601.88l-14.588 4.654-8.189 6.668 2.887-15.933-4.48-6.723.297-16.822 13.821 6.579-3.246-21.085 7.004-5.784-1.33-14.013-20.525-26.496 8.775-9.103 5.32-1.373 14.628-3 23.67 9.602 13.294 8.643z" id="114710" data-name="Luduș" class="oras"/>
    <path d="M435.579 485.442l4.426 15.56-9.107 16.907-6.01-2.605-18.39-2.802-11.41 5-11.293-.942 2.448-17.719 7.533-9.618 12.133-5.015 17.704 4.033 11.966-2.8z" id="117925" data-name="Livezeni" class="comuna"/>
    <path d="M626.118 508.124l-10.597 26.409-12.387 12.458-32.701-28.372-5.035-11.794 28.42-30.377 17.228 26.405 15.072 5.271z" id="120478" data-name="Chibed" class="comuna"/>
    <path d="M461.405 472.406l14.712 8.066-4.488 9.002 9.791 9.082 15.824 3.089 14.529-14.489 11.717 11.465-10.22 9.648 8.361 10.105-14.757 25.816-22.597-8.598-9.603-13.722-28.77-6.883-5.899-13.986-4.426-15.56.915-7.378 4.416-8.048 15.119 4.837 5.376-2.446z" id="118281" data-name="Miercurea Nirajului" class="oras"/>
    <path d="M129.54 486.689l-.52 11.724 17.292-.914 3.368 9.113-.794 9.933 7.13 10.818-7.236 3.654-16.212-1.394-5.43-.692-24.7-11.237-13.295-8.643-23.67-9.602 15.667-12.156 14.334-20.421 19.41 1.713 11.794 9.598 2.861 8.506z" id="119386" data-name="Sânger" class="comuna"/>
    <path d="M193.443 465.427l7.332 13.716 6.33-.304 12.97 17.869 1.758 20.681-15.843 12.482 4.893 4.716-17.781 9.715-21.99-2.952-15.097-13.987-7.129-10.818.794-9.933 11.794 2.197 6.328-5.516-4.912-10.395 10.166-7.593 9.478-22.837 10.909 2.959z" id="117667" data-name="Iclănzel" class="comuna"/>
    <path d="M182.534 462.468l-9.478 22.837-10.166 7.593 4.912 10.395-6.328 5.516-11.794-2.197-3.368-9.113-17.291.914.518-11.724 7.707-4.844 17.066-22.584 24.352-1.48 3.87 4.687z" id="118637" data-name="Papiu Ilarian" class="comuna"/>
    <path d="M87.459 458.062l8.015 8.81-14.334 20.421-15.667 12.156-14.628 3-3.309-11.52 8.926-3.753.06-11.206 9.089-22.173 10.265 4.862 11.583-.597z" id="119858" data-name="Tăureni" class="comuna"/>
    <path d="M621.306 455.648l10.317 3.931 3.574 10.946 22.12 12.97-3.86 12.393-27.34 12.236-15.071-5.271-17.229-26.406 1.268-13.583 6.946-1.41 1.991-11.436 17.284 5.63z" id="120496" data-name="Sărățeni" class="comuna"/>
    <path d="M552.735 443.46l4.667 17.952-11.507 12.137 2.26 16.112-8.968 13.852 8.896 13.696-2.81 15.787-18.245-8.32-5.397-6.302-8.36-10.105 10.219-9.648-11.717-11.465-1.08-15.844 6.06-1.995 15.143-21.997 20.839-3.86z" id="120511" data-name="Bereni" class="comuna"/>
    <path d="M436.494 478.063l-.915 7.379-11.966 2.799-17.704-4.033-12.133 5.015-8.406-4.647-8.394 5.336-17.255-1.596-.02-13.008 10.496-4.8.658-13.246 7.083-15.927 8.634 7.44-.298 12.532 15.251 7.816 17.761-8.97 9.05 13.165 8.158 4.745z" id="114417" data-name="Sîngeorgiu de Mureș" class="comuna"/>
    <path d="M514.725 445.068l17.17 2.252-15.143 21.998-6.059 1.994 1.08 15.844-14.53 14.489-15.823-3.089-9.791-9.082 4.487-9.002-14.711-8.066 12.024-9.96-5.9-9.747 1.162-11.495 5.565-3.885 19.81 14.501 12.785 1.034 7.874-7.786z" id="120076" data-name="Vărgata" class="comuna"/>
    <path d="M315.195 450.092l.81 21.008-.507 3.575-4.493 5.691-.19 24.19-7.054 10.206-1.114 17.813-10.986 12.14-22.495-11.411-10.633-1.19-10.75-14.386-1.738-12.291 22.404-21.122 4.415-17.265 19.09-6.94-5.467-23.28 8.895-.752 19.813 14.014z" id="118691" data-name="Pănet" class="comuna"/>
    <path d="M192.42 427.222l7.808 8.025 17.287-6.455-.141 16.425-3.853 12.864-20.078 7.346-10.909-2.96-3.87-4.685-24.352 1.48-6.56-6.04 9.65-10.445 16.555-8.804 18.463-6.75z" id="117275" data-name="Grebenișu de Cîmpie" class="comuna"/>
    <path d="M338.087 460.866l-6.637 7.021-15.445 3.213-.81-21.008 22.892 10.774zm41.238-22.087l-1.387 2.556-7.083 15.927-.658 13.246-10.496 4.8.02 13.008-14.525-11.275-5.243-16.6 22.147-18.506-3.35-14.817 11.136 10.86 9.439.8z" id="114453" data-name="Sîntana de Mureș" class="comuna"/>
    <path d="M286.487 436.83l5.468 23.28-19.091 6.94-2.937-6.043-20.136-7.54-15.54-16.177 6.795-6.276 17.05 2.948 3.551-6.292 9.764 9.457 15.076-.297z" id="120502" data-name="Mădăraș" class="comuna"/>
    <path d="M170.437 411.04l3.52 22.933-16.555 8.804-9.65 10.446-23.984-19.306 3.45-18.69 8.76-3.731 34.459-.455z" id="119750" data-name="Șăulia" class="comuna"/>
    <path d="M89.206 406.425l8.685.505 29.327 8.298-3.45 18.689 23.985 19.306 6.56 6.038-17.067 22.584-7.707 4.844-2.86-8.506-11.795-9.598-19.41-1.713-8.015-8.81 6.118-9.954-3.895-13.46-.476-28.223z" id="120370" data-name="Zau de Cîmpie" class="comuna"/>
    <path d="M470.975 429.149l-2.284 12.055-1.162 11.495 5.9 9.747-12.024 9.96-5.376 2.446-15.118-4.837-4.417 8.048-8.158-4.745-9.05-13.164-17.76 8.969-15.252-7.816.298-12.532-8.634-7.44 1.387-2.556 3.492-12.786 12.036-19.284 5.592 8.047 14.608 1.964 11.364-3.574 7.105 21.042 15.964.348 21.489-5.387z" id="116652" data-name="Ernei" class="comuna"/>
    <path d="M89.206 406.425l.475 28.223 3.896 13.46-6.118 9.954-11.583.597-10.265-4.861-24.085-14.335-3.375-8.768 8.01-14.584 17.997-9.491 22.521-4.11 2.527 3.915z" id="119974" data-name="Valea Largă" class="comuna"/>
    <path d="M208.755 398.678l16.08 23.101 12.475.12 3.736 9.115-6.795 6.276 15.54 16.177 20.136 7.54 2.937 6.043-4.415 17.265-22.404 21.122 1.738 12.29-11.537 21.541 2.343 7.338-11.964 1.273-1.833-7.563-13.909-5.729-4.893-4.716 15.843-12.482-1.759-20.681-12.969-17.87-6.33.305-7.332-13.716 20.078-7.346 3.853-12.864.14-16.425-17.286 6.455-7.808-8.025.017-11.913 6.942-12.204 9.376-4.427z" id="115389" data-name="Band" class="comuna"/>
    <path d="M515.569 388.06l20.282 13.678-6.784 18.436-14.342 24.894-7.874 7.786-12.785-1.034-19.81-14.501-5.565 3.885 2.284-12.055 10.09-2.643 4.5-11.889 8.576-2.21 7.4-20.271 11.768-6.84 2.26 2.764z" id="117505" data-name="Hodoșa" class="comuna"/>
    <path d="M234.433 382.533l10.808 10.827 21.756 1.583 6.748-7.124 5.598 9.336-1.701 9.028-15.155 15.962-.84 5.525-3.552 6.292-17.049-2.948-3.736-9.114-12.475-.12-16.08-23.102 11.1-3.057 14.578-13.088z" id="119803" data-name="Șincai" class="comuna"/>
    <path d="M759.827 394.462l-8.018 4.217.82 17.277-10.027 20.527-15.205-.03-9.229 22.134-27.823 18.552-13.524-4.618-19.504 10.975-22.12-12.97-3.574-10.947-10.317-3.93 7.284-16.84-16.124-1.316-1.427-7.145 3.833-12.534 11.058-4.489 3.63-9.395 32.606 2.673 5.175-6.513 26.333-7.99 25.062-15.039 17.965-1.362 9.781 10.762 13.345 8.001z" id="114854" data-name="Sovata" class="oras"/>
    <path d="M312.102 381.07l3.22 8.41 24.458 13.992 14.164 13.643 4.805 10.003 3.351 14.817-22.147 18.506-1.866.425-22.892-10.774-19.813-14.014-8.895.752-15.076.297-9.764-9.457.84-5.525 15.155-15.962 1.7-9.028-5.597-9.336 20.356-19.524 18 12.775z" id="115959" data-name="Ceuașu de Cîmpie" class="comuna"/>
    <path d="M234.433 382.533l-14.577 13.088-11.101 3.057-9.376 4.427-6.942 12.204-.017 11.913-18.463 6.75-3.52-22.931-6.52-8.517 3.853-12.311 20.866-8.809 6.683-8.883 25.296-7.261 10.573 3.151 3.245 14.122z" id="118824" data-name="Pogăceaua" class="comuna"/>
    <path d="M345.808 362.501l10.905 6.002 17.53 15.934 19.83.79 4.23 4.865-3.45 16.617-12.036 19.284-3.492 12.786-9.44-.8-11.136-10.861-4.805-10.003-14.164-13.643-24.459-13.992-3.22-8.41 11.194-2.31 12.958-16.634 9.555.375z" id="117113" data-name="Glodeni" class="comuna"/>
    <path d="M144.45 361.17l11.04 10.632 12.28 18.41-3.853 12.312 6.52 8.517-34.458.455-8.76 3.732-29.328-8.298-8.685-.505-2.527-3.916 12.812-31.679 18.014-7.197 7.051 3.284 19.895-5.747z" id="118370" data-name="Miheșu de Cîmpie" class="comuna"/>
    <path d="M423.27 360.537l.083 7.16 15.394 9.167 31.034-2.937 23.62 9.446 19.908 1.923-11.768 6.84-7.4 20.272-8.575 2.21-4.5 11.888-10.091 2.643-21.49 5.387-15.963-.348-7.105-21.042-11.364 3.574-14.608-1.964-5.592-8.047 3.45-16.617-4.23-4.864 7.685-3.799 14.304-23.21 7.209 2.318z" id="117177" data-name="Gornești" class="comuna"/>
    <path d="M631.495 359.481l36.994-1.846 14.104-6.354 18.731 6.043 35.377 18.375-17.965 1.362-25.062 15.04-26.332 7.99-5.177 6.512-32.604-2.673-3.955-6.802 6.844-12.427-12.474-12.594-21.872 12.657-17.179-.458-15.549 6.76-4.518 7.697-25.007 2.975-20.282-13.678 19.315-10.605 7.02-18.87 12.243-5.718 16.283-9.298 19.557 14.22 17.059-.622 14.447 9.942 10.001-7.628z" id="116126" data-name="Chiheru de Jos" class="comuna"/>
    <path d="M401.006 339.94l3.795 14.417 11.26 3.863-14.303 23.209-7.684 3.799-19.83-.791-17.531-15.934-10.905-6.002-2.79-7.987 29.56 3.446-1.462-12.456 9.173-8.438 20.717 2.874z" id="120316" data-name="Voivodeni" class="comuna"/>
    <path d="M318.672 330.666l20.187 14.587 4.16 9.261 2.789 7.987-9.555-.375-12.958 16.633-11.193 2.311-18-12.775-.06-14.455 24.63-23.173z" id="115600" data-name="Băla" class="comuna"/>
    <path d="M554.147 352.867l-12.242 5.717-7.021 18.871-19.315 10.605-2.26-2.764-19.908-1.923 3.87-25.977-22.12-2.08-1.135-14.857-5.132-5.541 10.992 1.61 8.264-8.618 16.672-3.346 10.244 16.196 23.127-6.909.28 6.228 15.684 12.788z" id="115708" data-name="Beica de Jos" class="comuna"/>
    <path d="M452.979 325.457l15.905 9.46 5.132 5.542 1.135 14.858 22.12 2.08-3.87 25.976-23.62-9.446-31.034 2.937-15.394-9.167-.082-7.16 5.39-15.207 14.207-7.57 2.824-13.442 7.287 1.14z" id="118799" data-name="Petelea" class="comuna"/>
    <path d="M262.328 328.448l13.523 1.413 7.276 8.398-4.845 6.579 4.872 10.581 10.887-1.58.06 14.456-20.356 19.524-6.748 7.124-21.756-1.583-10.809-10.827-3.244-14.122-10.573-3.151-11.625-9.112 1.636-13.026-10.692-13.546-1.436-8.03 13.907-.05 14.012.6 13.106 9.749 22.805-3.397z" id="118995" data-name="Rîciu" class="comuna"/>
    <path d="M292.31 315.78l26.362 14.887-24.63 23.173-10.888 1.58-4.872-10.582 4.845-6.579-7.276-8.398-13.523-1.413 4.966-18.335 9.613-3.407 15.403 9.074z" id="116340" data-name="Crăiești" class="comuna"/>
    <path d="M198.498 321.546l1.436 8.03 10.692 13.546-1.636 13.026 11.625 9.112-25.296 7.261-6.683 8.883-20.865 8.809-12.281-18.411-11.04-10.632 3.5-19.843-.9-11.529 10.453-6.129-1.77-22.168 12.69 5.693 30.075 14.352z" id="119527" data-name="Sînpetru de Cîmpie" class="comuna"/>
    <path d="M406.988 298.452l3.658 5.932.195 28.056-9.835 7.5-20.717-2.874-9.173 8.438-10.098-10.084-11.483-.467-4.985-15.053 9.467-1.273 9.497-11.262-6.651-9.527 2.714-6.912 47.41 7.526z" id="115851" data-name="Breaza" class="comuna"/>
    <path d="M359.577 290.926l-2.714 6.912 6.65 9.527-9.496 11.262-9.467 1.273 4.984 15.053 11.484.467 10.098 10.084 1.462 12.456-29.56-3.446-4.16-9.26-20.186-14.588-26.362-14.886 11.898-14.561 12.018 6.858 12.012-8.04 15.119 3.714 3.222-13.29 12.998.465z" id="116723" data-name="Fărăgău" class="comuna"/>
    <path d="M155.732 301.5l1.771 22.17-10.453 6.128.9 11.529-3.5 19.843-19.894 5.747-7.05-3.284-18.015 7.197-5.81-8.209-13.763-2.001-13.557-19.51 10.29-13.481 18.31 6.003 6.428-3.206-6.048-18.898 1.768-4.893 28.836-5.536 12.1-9.993-4.85-9.945 10.577 4.176 11.96 16.164z" id="119242" data-name="Sarmașu" class="oras"/>
    <path d="M740.674 243.793l19.15 8.489 12.418 2.57 9.264 6.623-5.113 13.399 3.565 14.618 16.366 10.056 1.87 5.142.806 8.56-17.08 14.865-16.116 2.033-.871 19.353 13.81 17.514 6.78 16.287-8.057 13.401-5.864 1.267-11.775-3.508-13.345-8.001-9.781-10.762-35.377-18.375-18.731-6.043-14.104 6.354-36.995 1.846-23.428-14.402-.386-7.963-15.16-3.993-17.088 2.204-12.117-13.733-10.969-3.735.768-10.994 12.127 4.849 39.265 2.334 1.288-12.482 21.252-11.503 17.44-5.893 15.785-14.215 32.624-2.717.712-2.808 11.276-6.146 16.754-3.964 11.226-11.458 7.81.93z" id="117550" data-name="Ibănești" class="comuna"/>
    <path d="M487.866 237.968l7.467 13.12 20.951-6.322 22.556 8.243-8.82 13.694-16.637 6.965-11.454 13.022-12.313.075-23.728 9.887-3.292-10.83 3.541-19.485 10.33-19.13 2.748-16.45 8.651 7.211z" id="117783" data-name="Ideciu de Jos" class="comuna"/>
    <path d="M693.607 264.43l-.712 2.808-32.624 2.717-15.785 14.215-17.44 5.893-21.252 11.503-1.288 12.482-39.265-2.334-12.127-4.85 7.492-18.066 11.905-7.97.29-7.175 11.837-13.03 16.228-5.684 5.107-12.63 11.618-10.372-.466-8.84 28.71 12.932 21.508 5.453 14.86 8.21 11.404 14.738z" id="117426" data-name="Hodac" class="comuna"/>
    <path d="M603.061 212.209l12.64 10.718 1.424.17.466 8.84-11.618 10.372-5.107 12.63-16.228 5.685-11.838 13.029-.29 7.174-11.904 7.971-7.492 18.067-.768 10.994 10.969 3.735 12.117 13.733 17.088-2.204 15.16 3.993.386 7.963 23.428 14.402-10.001 7.627-14.447-9.941-17.059.623-19.557-14.22-16.283 9.297-15.685-12.788-.279-6.228-23.127 6.91-10.245-16.197-16.671 3.346-8.264 8.618 1.183-15.084 22.338-23.327 7.324-11.457 14.557-7.944 4.742-12.013 8.82-13.694 14.634-3.532 19.65-11.455 5.997 1.41 15.397-16.83 1.412-8.205 5.609-2.452 1.522.264z" id="117319" data-name="Gurghiu" class="comuna"/>
    <path d="M583.15 214.525l-9.959 14.02-12.047.116-9.645-6.632-13.916-3.584-8.582 8.13-10.407-1.886-30.728 13.28-8.651-7.213 10.72-16.081 15.348-12.162 5.285-6.154 9.317 4.507 20.227-7.273 14.572 10.606 24.171 1.382 4.296 8.944z" id="115147" data-name="Aluniș" class="comuna"/>
    <path d="M595.93 214.397l-1.412 8.206-15.397 16.83-5.997-1.411-19.65 11.455-14.634 3.532-22.556-8.243-20.951 6.322-7.467-13.12 30.728-13.279 10.407 1.886 8.582-8.13 13.916 3.584 9.645 6.632 12.047-.115 9.96-14.02 12.779-.129zm-105.615-16.71l14.968 4.826-15.348 12.162-10.72 16.081-2.748 16.452-10.33 19.129-3.115-16.496-13.888-14.283-19.396 3.962 3.632-10.515-11.443-.551 7.641-22.644 10.022-7.565 12.82.826 17.15-5.087-6.81-9.456 27.565 13.16z" id="115897" data-name="Brîncovenești" class="comuna"/>
    <path d="M601.539 211.945l-5.609 2.452-12.78.128-4.295-8.944-24.171-1.382-14.572-10.606-20.227 7.273-9.317-4.507-5.285 6.154-14.969-4.826-2.575-9.022 18.169-12.856 10.225-11.038 2.733 11.89 15.501-1.326 7.05 8.937 23.822 2.702 5.548-10.965 21.245 6.09 13.28 21.741-3.773 8.105z" id="119153" data-name="Rușii-Munți" class="comuna"/>
    <path d="M603.061 212.209l-1.522-.264 3.773-8.105-13.28-21.74-21.245-6.091-5.548 10.965-23.822-2.702-7.05-8.936-15.501 1.324-2.733-11.89-2.236-28.448 14.331-21.147 20.482-1.377 10.56-7.643-1.031 11.006 12.933 43.408 24.314 5.856 9.067-3.766L618.9 178.38l3.153 8.742-2.013 17-9.572 8.434-7.406-.348z" id="116545" data-name="Deda" class="comuna"/>
    <path d="M759.824 252.282l-19.15-8.49.749-9.475-15.493-22.146 4.034-11.23-13.238-20.364.731-12.281-7.922-14.887.597-11.016 15.873-14.735 5.188-23.712 10.961-11.032 17.182-9.04-2.279-6.503 13.362 14.084-2.783 16.532 13.326 15.886.536 17.917-10.67 21.464-.627 16.685-4.121 12.695 6.354 14.741-12.61 44.907z" id="119625" data-name="Stînceni" class="comuna"/>
    <path d="M578.769 30.335l7.027 4.503-5.076 14.018 2.021 8.461-11.718 15.217 2.175 6.382-11.947 16.17-1.981 11.07-10.56 7.642-20.482 1.377-14.33 21.147 2.235 28.449-10.225 11.038-18.169 12.856 2.576 9.022-27.565-13.159-12.141-9.906 11.384-17.92 1.187-27.654 5.78-8.122 5.383-.13 8.686-15.124 4.653-21.643 5.744-10.272 25.901-24.995 18.161-20.811 16.54-3.117 19.646 10.538 5.095-5.037z" id="120138" data-name="Vătava" class="comuna"/>
    <path d="M757.057 77.371l2.279 6.504-17.182 9.039-10.96 11.032-5.19 23.712-15.872 14.735-.597 11.016 7.922 14.887-.731 12.28 13.238 20.366-4.034 11.23 15.493 22.145-.75 9.476-7.81-.931-11.226 11.458-16.754 3.964-11.276 6.146-11.404-14.739-14.86-8.21-21.507-5.452-28.711-12.932-1.423-.17 6.881-10.03 4.747-16.288 9.267-5.742 10.895-31.19.572-18.533-6.314-11.58 10.98-7.74 13.965-21.077 5.173-18.104 6.065-5.44-3.574-13.972 4.346-10.022 15.279-16.064 2.963-16.42L708.473 6.79l5.266-.735 15.53 14.4 14.61 4.16 12.585 9.068-9.299 18.993.455 12.45 9.437 12.244z" id="118058" data-name="Lunca Bradului" class="comuna"/>
    <path d="M696.947 20.724l-2.963 16.421-15.28 16.064-4.345 10.022 3.574 13.973-6.065 5.44-5.173 18.103-13.965 21.078-10.98 7.74 6.314 11.58-.572 18.533-10.895 31.189-9.267 5.742-4.747 16.288-6.881 10.03-12.641-10.718 7.406.348 9.572-8.433 2.013-17.001-3.153-8.742-14.346-15.722-9.067 3.766-24.314-5.856-12.933-43.408 1.03-11.006 1.982-11.07 11.947-16.168-2.175-6.383 11.718-15.217-2.021-8.461 5.076-14.018-7.028-4.503 4.777-13.161 8.627-1.105 20.072 6.865 11.692-1.319 8.836-11.849L649.808 1l17.71 13.526 16.506-1.075 12.923 7.273z" id="118931" data-name="Răstolița" class="comuna"/>
    <path d="M302.774 262.822l22.137 5.005 10.257 7.046 12.784-.051-1.373 15.638-3.222 13.29-15.12-3.714-12.011 8.04-12.018-6.857-13.33-6.133 8.347-18.4-3.036-7.215 6.585-6.649z" id="116224" data-name="Cozma" class="comuna"/>
    <path d="M629.56 403.93l-3.63 9.395-11.058 4.489-3.833 12.534-20.044 7.701-16.753.763-9.08-3.899-12.427 8.547-20.84 3.86-17.17-2.252 14.342-24.894 6.784-18.436 25.007-2.975 4.518-7.697 15.55-6.76 17.178.459 21.872-12.658 12.474 12.594-6.844 12.427 3.955 6.802z" id="116590" data-name="Eremitu" class="comuna"/>
    <path d="M621.306 455.648l-17.284-5.63-1.991 11.436-6.946 1.41-1.268 13.584-28.419 30.377-7.147 8.352-10.168 2.032-8.896-13.696 8.968-13.852-2.26-16.112 11.507-12.137-4.667-17.952 12.428-8.547 9.08 3.9 16.752-.764 20.044-7.701 1.427 7.145 16.124 1.315-7.284 16.84z" id="118094" data-name="Măgherani" class="comuna"/>
    <path d="M315.498 474.675l21.649 11.478 8.515 12.424-12.885 12.475-9.587 2.19-2.33 11.609-6.647 6.126-11.566 1.598 1.114-17.813 7.054-10.206.19-24.19 4.493-5.69z" id="114382" data-name="Sîncraiu de Mureș" class="comuna"/>
    <path d="M355.068 539.127l-3.612 12-15.171-1.533-8.565-6.067-7.952 8.315-11.552-5.418-16.555-1.708 10.986-12.141 11.566-1.598 17.018 9.89 10.267-9.158 13.57 7.418z" id="114355" data-name="Cristești" class="comuna"/>
    <path d="M336.285 549.594l-2.954 10.128 11.96 11.425-10.95 4.827 1.856 12.095 7.441 10.974-1.694 7.765-13.546-10.332-6.265 7.266 2.057 8.498-17.896 3.254-7.726-8.178 1.89-8.409.278-36.5 10.858-9.792 8.174-.773 7.952-8.315 8.565 6.067z" id="116983" data-name="Gheorghe Doja" class="comuna"/>
    <path d="M379.205 532.569l12.317 9.214-9.999 12.54.719 26.128-16.931 18.103-2.156 15.245-10.101 3.323-7.258-5.257-3.852-5.057 1.694-7.765-7.441-10.974-1.857-12.095 10.952-4.827-11.961-11.425 2.954-10.128 15.17 1.534 3.613-12.001 2.13-10.877 13.625 5.628 8.382-1.31z" id="116288" data-name="Crăciunești" class="comuna"/>
    <path d="M426.294 522.47l23.21 23.24-.549 12.266 10.93 3.075 2.077 14.138-2.03 17.12-1.262 3.718-10.985-5.01-16.162-13.636-10.128-18.87-.057-7.512-8.655-12.48 13.61-16.05z" id="118753" data-name="Păsăreni" class="comuna"/>
    <path d="M506.874 544.19l-3.777 21.937-10.601 6.333-3.68 12.206-28.883 7.644 2.03-17.121-2.078-14.138-10.93-3.075.55-12.265-23.211-23.241-1.406-7.166 6.01 2.605L440.005 501l5.9 13.986 28.769 6.883 9.603 13.722 22.597 8.598z" id="116867" data-name="Gălești" class="comuna"/>
    <path d="M253.599 717.672l3.644 13.026 12.88 9.751.295 1.288-11.744 11.174-12.665 7.098-9.157-2.958-5.904-6.16-9.233 3.58-22.59-4.637-1.29-5.244 5.085-4.972.143-19.316 14.858-5.186 35.678 2.556z" id="115575" data-name="Băgaciu" class="comuna"/>
    <path d="M192.985 650.613l21.645 13.158-4.67 29.424 2.536 16.103 5.425 5.818-14.858 5.186-.143 19.316-5.084 4.972-4.414-19.276-5.696-9.9 2.12-16.323-14.046.705-13.694-17.366-7.773.286-9.708-21.514 9.875-6.454 2.204-8.02 22.42-4.35 13.86 8.235z" id="114925" data-name="Târnăveni" class="municipiu"/>
    <path d="M144.004 658.222l.621 2.98 9.708 21.514 7.774-.286 13.693 17.366 14.046-.705-2.12 16.323 5.696 9.9-9.796 6.305-5.254 19.48-14.23.491-5.191-5.966-22.928-19.63-10.28 9.326-10.227-9.808 1.126-7.41-9.85-8.213 3.823-21.436-11.021-8.672 17.468-2.866 3.12-11.137 8.206-9.906 15.616 2.35z" id="115076" data-name="Adămuș" class="comuna"/>
    <path d="M439.59 198.245l-10.022 7.565-7.64 22.644 2.514 13.21-5.85 15.565 3.253 12.95-13.344 7.675-5.224 7.992-13.044-4.35-5.838-9.22-7.247-31.09 5.892-3.298-4.753-12.858 2.696-10.371-10.485-25.74-3.38-9.145 8.983-16.128 26.112-.153 3.452 6.829 10.118 23.119 23.807 4.804z" id="115520" data-name="Batoș" class="comuna"/>
    <path d="M370.498 188.92l10.485 25.739-2.696 10.371 4.753 12.858-5.892 3.298 7.247 31.09 5.838 9.22 13.044 4.35 3.71 12.606-47.41-7.526-12.998-.466 1.373-15.638-12.784.05-10.257-7.045-22.137-5.005 20.116-9.782 3.7-9.176 8.478-1.83 9.444-33.169-4.245-12.966 15.856 1.28 14.375-8.26z" id="117998" data-name="Lunca" class="comuna"/>
    <path d="M530.02 266.703l-4.742 12.013-14.557 7.944-7.324 11.457-22.338 23.327-1.183 15.084-10.992-1.61-15.905-9.46 6.25-26.769 6.659-2.037 23.728-9.887 12.313-.075 11.454-13.022 16.637-6.965z" id="119590" data-name="Solovăstru" class="comuna"/>
    <path d="M560.11 799.512l-5.453 7.705 3.172 18.44 7.088 11.379 7.535 1.467 10.196 14.852 5.063 13.02-1.099 9.758-5.445 13.117.13 12.285-16.807-.358-10.344-9.98-.183-12.708-22.028-4.096-12.602 3.355-14.093 10.79-26.244-5.848-6.172-21.543-14.314-25.948 3.405-15.486 7.126-12.475 11.486 3.24 6.829 8.388 24.928 17.423 7.263-7.062 9.368 6.14 5.464-11.77 1.956-16.661 5.299.025 6-20.61 12.475 13.161z" id="115183" data-name="Apold" class="comuna"/>
    <path d="M659.716 839.975l-26.14-21.985 2.23-19.375-9.936-5-15.107-17.087-12.827-.904-6.315-6.578-9.86 6.66-11.178 20.643-10.474 3.163-12.475-13.162 3.336-6.332 1.827-28.07-4.575-11.186 9.717-4.296-1.287-8.803 15.864 10.875 3.584 18.35 30.69 3.813 13.259-3.443 15.164 7.185 8.384-4.277 14.856 2.654.027 8.374 17.304 1.398 3.846 18.037 10.493 18.52 25.353 18.704-12.85 6.558-15.176 13.206-6.018.522-8.42-7.063-13.296-1.101z" id="120254" data-name="Vînători" class="comuna"/>
    <path d="M659.716 839.975l-19.057 15.507-16.118-7.456-24.692 14.053-13.237 14.054 1.1-9.759-5.064-13.019-10.196-14.852-7.535-1.467-7.088-11.378-3.172-18.441 5.452-7.705 10.474-3.163 11.179-20.644 9.859-6.659 6.316 6.578 12.826.904 15.107 17.086 9.935 5.001-2.228 19.375 26.14 21.985z" id="119206" data-name="Saschiz" class="comuna"/>
    <path d="M437.531 615.458l6.054 11.758 13.376-1.885 8.379-6.24 12.063-1.272 1.635 26.01-5.651 1.832-4.258 15.394-14.294-8.119-18.422 6.57-11.34 20.357-3.72 14.277 6.075 29.32-10.561 6.674-11.695.174-1.866-19.18-9.256-42.606 12.239-20.072 3.135-19.598-6.679-1.977.508-10.46 34.278-.957z" id="115637" data-name="Bălăușeri" class="comuna"/>
    <path d="M424.888 515.304l1.406 7.166-13.611 16.05-21.16 3.263-12.318-9.214-5.483-8.94 10.073-7.069 11.293.943 11.41-5.001 18.39 2.802z" id="120487" data-name="Corunca" class="comuna"/>
    <path d="M359.721 488.316l17.255 1.596 8.394-5.336 8.406 4.647-7.533 9.618-2.448 17.719-10.074 7.069 5.484 8.94-8.382 1.309-13.626-5.628-2.129 10.877-13.57-7.418-10.267 9.157-17.018-9.89 6.648-6.125 2.33-11.61 9.586-2.19 12.885-12.474-8.515-12.424-21.649-11.478.507-3.575 15.445-3.213 6.637-7.02 1.867-.426 5.242 16.6 14.525 11.275z" id="114319" data-name="Tîrgu Mureș" class="municipiu resedinta"/>
    <path d="M421.927 228.454l11.443.551-3.632 10.515 19.396-3.962 13.887 14.283 3.116 16.496-3.541 19.485-8.866 2.699-11.22-9.097-20.665-9.246-3.252-12.949 5.849-15.565-2.515-13.21z" id="119723" data-name="Suseni" class="comuna"/>
    <path d="M421.845 270.178l20.666 9.246 11.22 9.097 8.865-2.7 3.292 10.83-6.66 2.038-6.249 26.768-7.287-1.14-2.825 13.443-14.207 7.57-5.39 15.207-7.208-2.317-11.261-3.863-3.795-14.417 9.835-7.5-.195-28.056-3.658-5.933-3.711-12.605 5.225-7.992 13.343-7.676z" id="114809" data-name="Reghin" class="municipiu"/>
  </g>
</svg>
