<svg xmlns="http://www.w3.org/2000/svg" version="1.2" baseProfile="tiny" stroke-linecap="round" stroke-linejoin="round" viewBox="0 0 800 519">
  <g id="NT" fill="none" stroke="#aaa">
    <path d="M490.944 455.923l-7.667 6.306-9.909 16.985-9.059 7.868-11.806.523-8.66-10.19-11.96-16.211 3.152-8.143 12.974-5.91 3.084 4.545 12.325-7.483 6.77.381 10.718-6.83 10.038 18.16z" data-name="Cîndești" class="comuna" id="122061"/>
    <path d="M417.623 444.685l14.26 16.519 11.96 16.212-11.993-1.22-5.03 8.2-12.62 4.695-16.953-5.45-13.816 5.053-.574 10.279-9.218 10.212-23.056.147-11.479-3.082-11.02 1.82-8.611-19.59-9.708-16.703-.08-20.206 3.663-11.804 17.788-5.856 18.826 5.466 3.555-3.44 18.585-.432 6.868-2.846 9.306 8.145 7.598-6.926 10.991-1.936 10.758 12.743z" data-name="Tazlău" class="comuna" id="124616"/>
    <path d="M484.769 420.922l1.464 6.28-5.327 10.562-10.718 6.83-6.77-.381-12.325 7.483-3.084-4.545-12.974 5.91-3.152 8.143-14.26-16.52 5.22-.261 14.72-11.19 7.155-14.45 28.461-3.38 4.81-2.557 6.78 8.076z" data-name="Rediu" class="comuna" id="124028"/>
    <path d="M517.043 409.316l-.348 11.072-5.13 23.221-8.33 10.493-12.29 1.821-10.04-18.159 5.328-10.561-1.464-6.28 9.675-7.575 7.544.786 15.055-4.818z" data-name="Costișa" class="comuna" id="122132"/>
    <path d="M603.944 391.175l.423 18.248-14.022 5.297L601 430.585l-9.529 6.23-2.562 7.933-8.656 7.937-6.808 3.91-17.767-16.858.87-11.741-6.14-8.785-1.288-10.496 13.656-13.656 12.638-5.96 28.531 2.076z" data-name="Bahna" class="comuna" id="121153"/>
    <path d="M167.387 428.979l6.67 12.862-3.982 14.19 4.601 20.194-12.23 1.979-10.23 1.67-11.822-5.154-14.08-1.027-10.1 11.416 12.826 23.869-3.532 5.028-17.333.132-32.423-41.926-4.688-9.626 2.194-6.139 3.711-6.816-3.772-22.596 4.124-13.081 5.97 5.977 7.682-6.474 15.431-2.985 14.158-13.053 3.179-11.149 12.304 1.992 11.262 10.765 11.45-.159 3.922 9.995-7.287 9.502 11.995 10.614z" data-name="Dămuc" class="comuna" id="122249"/>
    <path d="M470.707 405.659l7.281 7.187-4.809 2.557-28.46 3.38-7.157 14.45-14.718 11.19-5.22.262-10.759-12.743-10.991 1.936-7.598 6.926-9.306-8.145-6.868 2.846-18.585.431-3.555 3.441-18.826-5.466-17.788 5.856-11.521-17.176 26.546-6.882 34.387.901 24.007-7.764 3.944-6.406 12.188.022 9.603-11.163 9.168-7.545 3.944 7.313 10.151-10.266 20.028 18.776 14.914 6.082z" data-name="Borlești" class="comuna" id="121732"/>
    <path d="M788.082 411.747l-2.918.462-9.749 8.302-.087 6.492-11.539.81-5.915 13.62-8.569-12.557 3.508-10.51-5.453-18.153-2.358-24.52 3.915-2.64 20.555-1.535 12.7 12.025 4.36 10.342 1.55 17.862z" data-name="Oniceni" class="comuna" id="123255"/>
    <path d="M745.002 375.694l2.358 24.519 5.453 18.153-3.508 10.51-9.764.173-7.078-14.635-13.264 1.86-10.407 6.163-5.115-9.887-8.34.42-14.283-2.737-1.129-16.514 20.267-7.738 10.717-13.37 13.011-8.5 5.262 5.786 7.58-2.81 8.24 8.607z" data-name="Valea Ursului" class="comuna" id="124885"/>
    <path d="M513.523 361.8l-.295 40.67 3.815 6.846-15.055 4.818-7.544-.786-9.675 7.574-6.78-8.076-7.282-7.187-2.732-11.85 19.438-25.168 9.352-5.581 14.032 3.511 2.726-4.772z" data-name="Podoleni" class="comuna" id="123674"/>
    <path d="M619.85 373.046l.555 9.503-8.026 6.968-8.435 1.658-28.531-2.077-12.638 5.96-13.656 13.657 7.337-10.459-8.642-20.712-1.862-13.42 4.018-2.977 26.303-1.859 11.413 9.42 32.164 4.337z" data-name="Moldoveni" class="comuna" id="123228"/>
    <path d="M164.994 375.066l5.809-1.427 10.957 8.959-10.989 11.068 13.001 9.091-3.276 14.428-13.109 11.794-11.995-10.613 7.287-9.503-3.922-9.995-11.45.159-11.262-10.765-12.304-1.992-3.179 11.149-14.158 13.053-15.43 2.985-7.683 6.474-5.97-5.977-4.005-10.478-8.07-9.276-2.743-8.908 12.477-11.73-6.1-5.595-10.386 10.213-4.778-8.42 6.047-5.354 2.574-8.953 6.538-6.012 16.448 4.152 2.945 12.837 7.171 7.504 12.944-5.359 13.61-.44 9.34 8.43 19.765-5.913 13.896 4.414z" data-name="Bicaz-Chei" class="comuna" id="121297"/>
    <path d="M400.542 354.441l7.286 9.462 12.333 5.627 5.203 4.442-14.88 10.663 2.018 6.664-9.603 11.163-12.188-.022-3.944 6.406-24.007 7.764-34.387-.9-26.546 6.88-12.153-19.364 1.072-4.803 4.253-2.407 1.758-16.955 5.82-9.09 12.997-4.5 1.992-11 8.344-1.605 7.68 1.216 13.118-10.237 16.115 17.2 23.585-1.678 14.134-4.926z" data-name="Piatra Șoimului" class="comuna" id="123479"/>
    <path d="M443.918 323.026l1.564 7.064-6.008 7.81-8.49 2.882-1.345 10.873-9.478 17.875-12.333-5.627-7.286-9.462 9.016-17.82 6.57 5.285 12.229-14.672-1.25-3.428 16.81-.78z" data-name="Săvinești" class="comuna" id="120824"/>
    <path d="M290.746 398.423l-1.072 4.803 12.153 19.365 11.52 17.176-3.661 11.804.079 20.206-13.131 6.2-10.676 11.19-.829 17.78-5.844 3.279-13.383 1.266-9.597 6.446-5.932-11.235-10.434-1.304-13.3 9.11-11.045-8.35 1.023-10.953-4.688-5.44 1.559-9.959-4.49-13.28-7.364-3.187-17.177 11.688-9.781 1.197-4.6-20.195 3.98-14.189-6.669-12.862 13.11-11.794 3.275-14.428-13-9.091 10.988-11.068 18.058-3.447 14.674-9.12-7.843-24.973 5.65-6.98 23.078-14.556 8.937-1.055 5.953-4.012 12.919 2.984-2.457 14.012 7.254 20.457.858 8.676 21.905 33.84z" data-name="Tarcău" class="comuna" id="124493"/>
    <path d="M427.107 323.806l1.25 3.428-12.23 14.672-6.569-5.285-9.016 17.82-14.134 4.927-23.585 1.677-16.115-17.2 6.81-7.602 31.538-10.807 13.873-22.231 9.273.65 9.445 14.813 9.46 5.138z" data-name="Dumbrava Roșie" class="comuna" id="120771"/>
    <path d="M151.237 307.1l7.795-3.649 9.014 8.225 8.62-.532 13.077-7.262 11.757 13.051-3.74 17.082 8.889 11.043 7.843 24.974-14.674 9.12-18.058 3.446-10.957-8.959-5.81 1.427-9.703-27.148-10.868 5.075-13.735-19.207 6.888-6.055 3.004-23.993 10.658 3.362z" data-name="Tașca" class="comuna" id="124563"/>
    <path d="M140.58 303.738l-3.005 23.993-6.888 6.055 13.735 19.207 10.868-5.075 9.704 27.148-13.896-4.414-19.765 5.913-9.34-8.43-13.61.44-12.944 5.36-7.17-7.505-2.946-12.837-16.448-4.152-6.538 6.012-6.815-10.962 11.422-20.133 5.795-5.797 1.027-10.139 19.447 6.128 10.019-2.305 1.54-5.238 16.45-13.856L136 290.128l4.58 13.61z" data-name="Bicazu Ardelean" class="comuna" id="121340"/>
    <path d="M460.645 280.865l4.965 13.556 19.2 2.253-7.38 14.972 5.575 6.169-6.212 17.724-29.614.21-1.697-5.66-1.564-7.063-.365-4.26 13.168-17.503-2.565-22.533 6.489 2.135z" data-name="Dochia" class="comuna" id="125098"/>
    <path d="M454.156 278.73l2.565 22.533-13.168 17.504.365 4.26-16.81.779-9.462-5.138-9.445-14.813-9.272-.65-13.283-4.505 3.37-11.029-8.929-16.784 6.308 4.875 22.701-17.914 11.656-4.15 6.186 21.336 10.887-.514 2.877 5.617 13.454-1.407z" data-name="Girov" class="comuna" id="122702"/>
    <path d="M409.096 257.848l-22.701 17.914-6.308-4.875-9.424-1.774-8.405-9.634.102-11.81 13.992-10.019 10.053 1.228 4.773 8.151 11.58.506 6.338 10.313z" data-name="Dobreni" class="comuna" id="122285"/>
    <path d="M245.071 255.22l2.863 7.677-6.883 10.457 2.878 17.218-1.969 13.914-5.133 8.06 7.487 9.921-8.937 1.055-23.078 14.557-5.65 6.979-8.89-11.043 3.74-17.082-11.756-13.051-13.078 7.262-8.62.532-9.013-8.225-7.795 3.649-7.66-20.884 1.855-10.999 6.835-10.411 13.336-3.945 4.853-9.859 18.182-3.13 9.593-12.012 17.543 25.11-9.775 11.818 4.401 12.152 10.999-12.15 1.654-9.11 22.018-8.46z" data-name="Bicaz" class="oras" id="120968"/>
    <path d="M488.463 208.342l-7.325 13.403 9.187 11.755-9.258 7.009-.932 9.413-10.052.896-9.693 3.942-5.877-9.667-7.894 3.511-15.134-34.843 17.665-4.142 14.845 9.98 4.398-9.996 13.552-5.696 6.518 4.435z" data-name="Dragomirești" class="comuna" id="122392"/>
    <path d="M431.485 213.761l15.134 34.843 7.894-3.51 5.877 9.666 9.693-3.942 9.408 22.99-18.846 7.057-6.49-2.135-13.453 1.407-2.877-5.617-10.887.514-6.186-21.335-5-19.722 2.923-15.716.384-18.48 3.207 10.607 9.22 3.373z" data-name="Ștefan cel Mare" class="comuna" id="124411"/>
    <path d="M151.335 213.377l6.582 4.87 15.602 1.702 19.31 9.827 5.402 6.084-9.593 12.012-18.182 3.13-4.853 9.859-13.336 3.945-6.835 10.411-1.854 10.999 7.66 20.884-10.659-3.362-4.579-13.61-14.778 3.024-9-8.713-3.97-9.505 6.222-19.596 17.622-27.277-7.587-13.254 4.944-3.814-11.247-9.752-1.685-8.085 7.14-1.935 15.982 12.465 4.333 7.767 7.36 1.924z" data-name="Ceahlău" class="comuna" id="122025"/>
    <path d="M116.521 193.156l1.685 8.085 11.247 9.752-4.944 3.814 7.587 13.254-17.622 27.277-6.223 19.596 3.97 9.505 9.001 8.712-16.45 13.856-1.54 5.238-10.045-14.464-2.167-14.07-9.33-10.373-7.078 8.563-6.556-10.127-1.83-12.976-10.534-15.377v-13.146l-10.716-8.688-7.815-19.773 8.5-8.061 11.904 7.01 17.879-6.383 17.014 2.802 4.186-7.15 16.978-6.247 2.9 9.371z" data-name="Grințieș" class="comuna" id="122864"/>
    <path d="M475.462 179.246l-7.07 30.357-4.397 9.995-14.845-9.98-17.665 4.143-9.219-3.373-3.207-10.607-1.456-1.45 14.84-5.621 9.164-15.294 9.482-5.706 24.373 7.536z" data-name="Războieni" class="comuna" id="123969"/>
    <path d="M241.264 214.636l-1.506 14.688 6.694 10.71-3.95 5.027 2.57 10.158-22.02 8.46-1.653 9.111-10.999 12.15-4.4-12.152 9.774-11.819-17.543-25.109-5.401-6.084-19.311-9.827-15.602-1.701-6.582-4.87 4.513-9.18 17.838-2.133 4.856-12.575 8.07-9.12-.374-22.673 3.796-11.362 22.195-2.453 2.48 8.017 8.887 7.227-3.616 12.913 1.413 7.692 8.83 14.19 5.494 17.194 5.547 3.521z" data-name="Hangu" class="comuna" id="122953"/>
    <path d="M190.034 146.335l-3.796 11.362.374 22.673-8.07 9.12-4.856 12.575-17.838 2.132-4.513 9.18-7.359-1.924-4.333-7.767-15.982-12.465-7.14 1.935-2.9-9.37-16.977 6.247-4.186 7.149-17.014-2.802-17.879 6.383-11.904-7.01 5.241-16.837 15.774-2.491 24.828-15.844 8.194.56 25.187-30.504 14.493-.057 1.508-11.302 7.654-6.036 21.268 16.286 12.537 3.569 7.689 15.238z" data-name="Poiana Teiului" class="comuna" id="123790"/>
    <path d="M473.746 103.421l-21.735 12.953-6.12 11.877-11.972 13.234-12.372 9.177-2.12-5.746-10.604 1.984 2.103-10.735 10.477-10.15-4.438-7.163 11.445-13.168 2.476 4.789 13.57-4.19 20.386-11.76 8.904 8.898z" data-name="Urecheni" class="comuna" id="124849"/>
    <path d="M148.54 111.242l-7.654 6.036-1.508 11.302-14.493.057-25.187 30.504-8.194-.56-24.828 15.844-15.774 2.491 5.348-25.678 6.566-7.36 18.14-5.304 9.302-18.69.012-11.678 10.386-8.82 9.323-2.693 10.596-10.618 1.525-7.79 13.161-9.147 12.924 19.539-2.871 11.744 3.226 10.821z" data-name="Farcașa" class="comuna" id="122551"/>
    <path d="M205.632 49.472l11.927 14.215 11.593 3.537 14.93-4.092 21.51 23.377-18.102 27.727-13.073 4.734-7.058 8.738-.07 9.136-10.542.016-4.518 7.022-22.195 2.453-7.689-15.238-12.537-3.57-21.268-16.285-3.226-10.821 2.871-11.744-12.924-19.539-3.796-4.735 4.295-13.319 17.693-3.929 5.319-4.879 15.113 3.684 4.867-4.176 18.883 10.41 7.997-2.722z" data-name="Pipirig" class="comuna" id="123521"/>
    <path d="M131.465 64.403l3.796 4.735-13.16 9.146-1.526 7.791-10.596 10.618-9.323 2.693-10.386 8.82-.011 11.677-9.303 18.69-18.14 5.305-6.566 7.36-5.348 25.678-5.24 16.837-8.5 8.061L1 189.194l1.368-20.9 16.5-17.413-3.708-8.273 4.75-11.72 10.492-3.356-2.716-16.274 6.739-4.98-.364-9.838 7.288-6.886L62.41 81.01 75.918 64.24 71.56 49.486l-7.659-5.492-7.134-16.476-5.798-5.495 4.67-2.413 17.364 3.482 14.045 3.1 11.053 12.424 5.03.006 16.7 23.824 11.633 1.957z" data-name="Borca" class="comuna" id="121652"/>
    <path d="M352.962 15.303l8.352 18.912 13.885 2.657 3.118 6.319-12.616 9.506-2.943 8.123-22.027-.582-13.728-8.175-12.138 12.523-9.187-3.603-1.562-6.602-9.869-7.507 15.013-4.85-.814-6.558 40.261-20.806 4.255.643z" data-name="Brusturi" class="comuna" id="121938"/>
    <path d="M405.243 30.228l-5.704 6.224-12.585-2.567-11.755 2.988-13.885-2.658-8.352-18.912L372.23 1l15.677 9.302L400 24.512l5.244 5.716z" data-name="Drăgănești" class="comuna" id="125132"/>
    <path d="M445.482 330.09l1.697 5.658 29.614-.21 2.284 12.436-3.601 3.618-5.633.305-17.675 11.075-16.403 17.829-10.15 10.266-3.945-7.313-9.168 7.545-2.018-6.664 14.88-10.663-5.203-4.442 9.478-17.875 1.345-10.873 8.49-2.882 6.008-7.81z" data-name="Roznov" class="oras" id="124117"/>
    <path d="M487.413 368.64l-19.438 25.17 2.732 11.849-14.914-6.082-20.028-18.776 16.403-17.829 17.675-11.075 5.632-.305 11.938 17.049z" data-name="Zănești" class="comuna" id="125061"/>
    <path d="M511.337 312.963l6.26 17.657 14.902 5.822-2.82 9.797-2.599 7.606-13.558 7.954-2.725 4.772-14.032-3.511-9.352 5.58-11.938-17.048 3.602-3.618-2.284-12.435 6.212-17.724-5.575-6.169 7.38-14.972 15.209 5.41 11.317 10.88z" data-name="Mărgineni" class="comuna" id="123175"/>
    <path d="M549.97 361.147l-4.019 2.977 1.863 13.42 8.642 20.712-7.337 10.459 1.288 10.496-4.519 3.975-29.193-2.798.347-11.072-3.814-6.846.295-40.67 13.557-7.955 2.598-7.606 2.52 9.369 17.772 5.54z" data-name="Români" class="comuna" id="124073"/>
    <path d="M710.91 372.61l-10.718 13.37-20.267 7.74 1.129 16.513 14.283 2.737-25.13 7.547-6.885 6.46-13.022 1.397 3.098-15.026-18.835-8.589-2.901-22.477 4.58-3.718 14.043.59 2.772-8.663 13.214 2.459 2.892-12.357 8.753-1.192 6.593 5.246 14.905 1.015 11.495 6.949z" data-name="Icușești" class="comuna" id="123013"/>
    <path d="M788.082 411.747l-1.55-17.862-4.36-10.342-12.7-12.025-20.555 1.535-3.915 2.64-8.24-8.605-7.58 2.81-5.262-5.787.992-13.738 22.052-4.648 11.206 4.014 6.332-9.795 9.93-5.178 15.779 19.244-.75 10.058 5.215 10.179-5.974 2.644.56 21.364 9.738 8.088-2.163 5.23-8.755.174z" data-name="Bozieni" class="comuna" id="121876"/>
    <path d="M712.375 318.456l.862 15.226 8.349 4.003 3.326 12.688-.992 13.738-13.01 8.5-11.496-6.95-14.905-1.014-6.593-5.246-8.753 1.192-2.892 12.357-13.214-2.46-2.772 8.664-14.043-.59-2.394-4.743 4.272-10.603 6.782-4.313 5.605-10.422 14.685-16.32-.09-6.303 4.235-9.774 11.337 4.01 9.186-6.138 6.678 8 15.837-3.502z" data-name="Ion Creangă" class="comuna" id="123102"/>
    <path d="M628.083 335.674l14.327 4.181-4.485 8.23.195 15.134-4.272 10.602-13.998-.776-32.164-4.338-11.413-9.419-26.303 1.86-17.771-5.54-2.52-9.369 2.82-9.797 6.594-2.211 12.377 7.83 11.076-.863-10.149-15.297 9.688-12.106 3.694-.973 16.788 18.862 8.6-2.689 10.51 18.918 20.76 4.152 5.646-16.391z" data-name="Secuieni" class="comuna" id="124233"/>
    <path d="M764.502 339.944l-6.332 9.795-11.206-4.014-22.052 4.648-3.326-12.688-8.349-4.002-.862-15.227 6.251-12.981 9.392-6.346 1.258-.87 22.692 27.306 4.771 11.762 7.763 2.617z" data-name="Poienari" class="comuna" id="123709"/>
    <path d="M728.018 299.13l-9.392 6.345-6.251 12.981-15.837 3.501-6.678-7.999-9.186 6.138-11.337-4.01-4.235 9.774-4.991-3.638 4.887-11.065 8.429-7.907-7.293-11.34 6.341-10.803 18.669-4.41 16.112 6.065 6.239 7.152 9.152.25 5.37 8.966z" data-name="Gâdinți" class="comuna" id="125150"/>
    <path d="M672.475 281.107l-6.341 10.803 7.293 11.34-8.429 7.907-15.872-3.828-9.128 3.408-18.139-16.14.523-4.8 16.307-8.272 15.097-3.92 19.812-4.701-1.123 8.203z" data-name="Roman" class="municipiu" id="120860"/>
    <path d="M550.591 292.095l9.456 4.018 7.705 8.93-5.666 8.752-9.689 12.106 10.149 15.297-11.076.863-12.377-7.83-6.594 2.21-14.901-5.82-6.261-17.658 7.91-14.927.81-11.68-10.245-12.668 7.444-4.548 28.907 24.632 4.428-1.677z" data-name="Făurei" class="comuna" id="122613"/>
    <path d="M534 241.841l5.619 15.282-4.518 2.562 11.037 16.035 12.103 10.854-7.65 5.521-4.428 1.677-28.907-24.632-6.097-10.81-1.314-24.105 20.615-.57 3.54 8.186z" data-name="Ruginoasa" class="comuna" id="125105"/>
    <path d="M717.654 244.247l6.305-2.355 5.888 11.605-1.171 20.633.6 24.129-1.258.87-5.37-8.965-9.153-.25-6.239-7.152-16.112-6.065-18.669 4.41 1.123-8.203-19.812 4.702-1.3-5.84 8.697-2.199 6.437-8.75 12.141-2.577-1.398-9.43 15.032-3.627 13.49-6.98 3.043 7.821 7.726-1.777z" data-name="Sagna" class="comuna" id="124153"/>
    <path d="M641.899 263.324l10.587 8.442 1.3 5.84-15.097 3.92-16.307 8.272-9.94-5.954-13.508-5.515-9.313-13.648-12.595-11.848-3.058-10.79 8.145-1.06 14.439-9.136 7.377 20.65 12.279 1.393 9.328 14.13 16.363-4.696z" data-name="Cordun" class="comuna" id="120888"/>
    <path d="M641.69 220.942l18.321 17.972-2.978 4.744 3.08 11.816 7.507 5.342-6.437 8.752-8.697 2.198-10.587-8.442-4.88-18.172-10.205-19.174 14.876-5.036z" data-name="Tămășeni" class="comuna" id="124634"/>
    <path d="M355.354 210.46l18.128 16.263 2.87 10.927-13.992 10.019-10.066-7.18-9.968-1.58-12.377-19.811-19.34-.947 7.09-14.256 5.823-2.005 23.83 2.707 8.002 5.863z" data-name="Negrești" class="comuna" id="125169"/>
    <path d="M500.591 203.395l9.254 30.83 1.314 24.105 6.097 10.81-7.444 4.548 10.244 12.669-.809 11.679-7.91 14.927-11.318-10.878-15.208-5.41-19.2-2.254-4.966-13.556 18.846-7.058-9.408-22.989 10.052-.896.932-9.413 9.258-7.01-9.187-11.754 7.325-13.403 12.128-4.947z" data-name="Bîrgăuani" class="comuna" id="121466"/>
    <path d="M519.634 198.447l4.646 8.017 19.677 5.284 12.086 12.795 6.257 5.792-6.96 7.098-12.483 7.537-8.856-3.129-3.54-8.186-20.616.57-9.254-30.83 5.7-4.897 13.343-.05z" data-name="Văleni" class="comuna" id="125123"/>
    <path d="M611.245 212.875l-11.354 2.023-3.339 16.95-14.439 9.135-8.145 1.06 3.058 10.79-21.686-15.4 6.96-7.098-6.257-5.792 22.546-25.464-6.564-6.832 9.537 7.874 10.376 15.583 22.054-11.307-2.747 8.478z" data-name="Gherăești" class="comuna" id="122668"/>
    <path d="M377.117 182.93l8.185 11.243 28.262 6.044 4.04-1.887 1.455 1.45-.384 18.48-2.922 15.717 5 19.722-11.657 4.15-6.338-10.314-11.58-.506-4.773-8.151-10.053-1.228-2.87-10.927-18.128-16.263 4.228-12.44 9.18-12.607 8.355-2.482z" data-name="Bodești" class="comuna" id="121607"/>
    <path d="M738.918 280.08l-10.242-5.95 1.171-20.633-5.888-11.605-6.305 2.355 1.676-20.74.164-4.141 14.642-5.137 2.694-4.273 13.434-1.281 3.478-25.904 13.867 15.275-2.74 15.16 5.044 7.62 10.088 1.613 6.787 7.571 10.403 3.637-3.918 23.562-6.87 4.477-9.609-2.783-4.813-7.342-18.548 19.15-8.773-.158-5.742 9.527z" data-name="Stănița" class="comuna" id="124331"/>
    <path d="M572.025 192.247l6.564 6.832-22.546 25.464-12.086-12.795-19.677-5.284-4.646-8.017 9.471-11.43-1.427-6.086 8.956 4.972 12.595-8.373 4.39-1.369 18.406 16.086z" data-name="Botești" class="comuna" id="121796"/>
    <path d="M527.678 180.93l1.427 6.088-9.47 11.43-13.344.05-5.7 4.897-12.128 4.947-6.518-4.435-13.552 5.696 7.069-30.357 13.648 7.568 2.566-5.34 23.05-15.226 12.952 14.683z" data-name="Tupilați" class="comuna" id="124750"/>
    <path d="M368.762 185.413l-9.18 12.607-29.959-21.345.786-5.226 17.9-31.582.054 11.231 5.79 19.618 12.534 4.115 2.075 10.582z" data-name="Ghindăoani" class="comuna" id="125114"/>
    <path d="M227.29 136.844l10.774 7.044 7.321-1.2 12.46 9.252 13.214 4.028-8.376 8.499 15.223 6.462 4.45-6.47 20.012 11.71 22.321-.537 5.72-4.183-.786 5.226 29.96 21.345-4.229 12.44-8.002-5.863-23.83-2.707-5.824 2.005-7.09 14.256-9.008-14.512-9.665 10.32-10.342-2.503-9.758 3.59-14.054-6.066-16.517 5.656-5.547-3.521-5.495-17.194-8.83-14.19-1.412-7.691 3.616-12.914-8.886-7.227-2.48-8.017 4.517-7.022 10.542-.016z" data-name="Crăcăoani" class="comuna" id="122187"/>
    <path d="M478.77 144.255l2.63 10.476-.93 14.352 11.206 12.39-2.566 5.34-13.649-7.567-24.372-7.536-9.482 5.706-9.164 15.294-14.84 5.62-4.04 1.887 1.355-29.493 1.542-6 12 .441 22.458-16.563-1.38-7.764 10.544-3.405 11.978 6.97 6.71-.148z" data-name="Țibucani" class="comuna" id="124803"/>
    <path d="M372.266 124.751l9.728 3.855 1.52 16.606 5.794 13.662-7.995 9.04-4.196 15.017-8.355 2.482-2.075-10.582-12.534-4.115-5.79-19.618-.055-11.231-6.384-5.955 10.16-6.373 1.393-5.59 18.79 2.802z" data-name="Grumăzești" class="comuna" id="122908"/>
    <path d="M318.668 117.618l6.868 2.915 16.945-3.01 10.996 4.426-1.393 5.59-10.16 6.373-22.727 5.831-9.359 19.988-38.779-3.763-13.214-4.028 3.771-10.553 11.428-4.991-1.94-8.205 4.186-10.355 25.321-8.39 8.081 6.98 9.976 1.192z" data-name="Agapia" class="comuna" id="121108"/>
    <path d="M478.77 144.255l-6.71.148-11.978-6.97-10.544 3.405 1.38 7.764-22.458 16.563-12-.44-1.542 6-5.487-8.487-.608-15.338 10.604-1.984 2.12 5.746 12.372-9.177 11.972-13.234 6.12-11.877 21.735-12.953 5.24 13.168-5.747 6.766 5.532 20.9z" data-name="Păstrăveni" class="comuna" id="123371"/>
    <path d="M428.41 105.684l-11.445 13.168 4.438 7.164-10.477 10.149-2.103 10.735.608 15.338 5.487 8.486-1.354 29.493-28.262-6.044-8.185-11.242 4.196-15.017 7.995-9.04-5.793-13.662-1.521-16.606-9.728-3.855 1.924-14.8 20.746-7.348 19.96-5.634 13.513 8.715z" data-name="Petricani" class="comuna" id="123424"/>
    <path d="M392.464 89.74l2.472 12.863-20.746 7.349-1.924 14.8-18.79-2.803-10.995-4.425-16.945 3.009-6.868-2.915 3.87-5.971 18-7.033-.843-5.725-9.964-15.03 1.947-5.371 10.306 11.255 11.485-7.712 17.144-1.132 5.076 9.46 9.168-4.012 7.607 3.393z" data-name="Tîrgu Neamț" class="oras" id="121055"/>
    <path d="M464.842 94.523l-20.387 11.76-13.568 4.19-2.478-4.79-13.514-8.714-19.959 5.634-2.472-12.863 16.391-9.198 2.72-19.174 12.871-10.741 8.191 9.531 21.82 17.996 4.065 11.015 6.32 5.354z" data-name="Timișești" class="comuna" id="124661"/>
    <path d="M294.247 46.874l9.869 7.507 1.562 6.602 9.187 3.603 14.099 7.347 2.714 6.555-1.947 5.37 9.964 15.03.843 5.726-18 7.033-3.87 5.97-9.976-1.192-8.08-6.98-25.322 8.391-4.187 10.355 1.941 8.205-11.428 4.99-3.771 10.554-12.46-9.252-7.321 1.2-10.775-7.044.07-9.136 7.058-8.738 13.073-4.734 18.102-27.727-21.51-23.377-14.93 4.092-11.593-3.537-11.927-14.215 26.824-14.533 5.697 6.323 17.82-6.048 6.587-8.114 31.687 19.774z" data-name="Vînători-Neamț" class="comuna" id="125016"/>
    <path d="M327.24 278.68l8.54 15.22.223 10.926-6.936 8.02-3.68 11.73 2.117 13.647-1.594 14.643-8.344 1.605-1.992 11-12.997 4.5-7.718-14.307-8.488-27.572-.558-11.882 8.34-8.865 1.496-19.759-8.522-10.627 6.711-9.264 8.77-5.692 18.038 2.909 6.594 13.769z" data-name="Alexandru cel Bun" class="comuna" id="124938"/>
    <path d="M293.838 267.695l-6.71 9.264 8.521 10.627-1.495 19.758-8.34 8.866.557 11.882 8.488 27.572 7.718 14.308-5.82 9.089L295 396.016l-4.253 2.407-21.905-33.84-.858-8.675-7.254-20.457 2.457-14.012-12.92-2.984-5.952 4.012-7.487-9.92 5.133-8.06 1.97-13.915-2.88-17.218 6.884-10.457-2.863-7.678-2.569-10.158 3.95-5.028 6.316 6.324 16.651-.813 7.285 5.314 10.371 1.275.152 11.626 6.611 3.935z" data-name="Pîngărați" class="comuna" id="123601"/>
    <path d="M341.924 133.912l6.384 5.955-17.899 31.582-5.72 4.183-22.32.537-20.014-11.71-4.449 6.47-15.223-6.462 8.376-8.499 38.779 3.763 9.36-19.988 22.726-5.83z" data-name="Bălțătești" class="comuna" id="121242"/>
    <path d="M385.646 298.7l13.283 4.505-13.873 22.23-31.538 10.808-6.81 7.602-13.119 10.237-7.68-1.216 1.595-14.643-2.117-13.647 3.68-11.73 6.935-8.02-.223-10.925-8.539-15.22 7.633-3.52 8.9 9.295 6.333-1.983 7.531-12.885 13.507 2.67.16 10.644 4.283 12.99 10.059 2.808z" data-name="Piatra-Neamț" class="municipiu resedinta" id="120726"/>
    <path d="M310.609 218.15l19.34.948 12.377 19.812 9.968 1.579 10.066 7.18-.102 11.81 8.405 9.635 9.424 1.773 8.929 16.784-3.37 11.029-10.059-2.808-4.283-12.99-.16-10.644-13.507-2.67-7.531 12.885-6.332 1.983-8.9-9.295-7.634 3.52-6.594-13.77-18.038-2.908-8.77 5.692-6.611-3.936-.152-11.626-10.371-1.275-7.285-5.314-16.651.813-6.316-6.324-6.694-10.71 1.506-14.687 16.517-5.656 14.054 6.066 9.758-3.59 10.342 2.502 9.665-10.319 9.009 14.512z" data-name="Gîrcina" class="comuna" id="122828"/>
    <path d="M424.446 50.627l-12.87 10.741-2.72 19.174-16.392 9.198-7.607-3.393-9.168 4.012-5.076-9.46-17.144 1.132-11.485 7.712-10.306-11.255-2.714-6.555-14.1-7.347 12.14-12.523 13.727 8.175 22.027.582 2.943-8.123 12.616-9.507-3.118-6.317 11.755-2.988 12.585 2.567 5.704-6.224 6.234 8.239 9.286 4.114 3.683 8.046z" data-name="Răucești" class="comuna" id="123914"/>
    <path d="M738.918 280.08l27.387 19.982 10.64 13.911-.65 11.443 4.62 3.898-6.484 5.452-9.93 5.178-7.762-2.617-4.771-11.762-22.692-27.306-.6-24.13 10.241 5.951z" data-name="Pâncești" class="comuna" id="125141"/>
    <path d="M694.466 203.948l2.171 6.833 18.4 5.595 4.293 7.132-1.676 20.74-7.726 1.776-3.044-7.82-13.49 6.979-8.49-5.372-11.262 4.522-1.788-10.606 15.284-13.286 7.328-16.493z" data-name="Bira" class="comuna" id="121386"/>
    <path d="M687.138 220.44l-15.284 13.287 1.788 10.606 11.261-4.522 8.492 5.372-15.032 3.627 1.398 9.43-12.141 2.576-7.507-5.342-3.08-11.816 2.978-4.744-18.321-17.972 5.155-6.496 8.524-1.668-.514-11.264 14.97-7.188 7.222 21.85 10.091 4.265z" data-name="Doljești" class="comuna" id="122347"/>
    <path d="M753.742 182.77l-3.478 25.905-13.434 1.28-2.694 4.274-14.642 5.137-.164 4.142-4.293-7.132-18.4-5.595-2.171-6.833 7.097-6.051L705.264 182l7.553-2.504 11.022-3.198 25.1 6.808 4.462-.744.34.409z" data-name="Boghicea" class="comuna" id="125178"/>
    <path d="M612.443 283.844l9.939 5.954-.523 4.798 18.139 16.141 9.128-3.408 15.872 3.828-4.887 11.065 4.99 3.638.091 6.303-14.685 16.32-5.605 10.422-6.782 4.314-.195-15.134 4.485-8.23-14.327-4.181-7.475-10.077 3.357-10.871-7.5-12.53-15.8-8.94 2.547-8.375 9.23-1.037z" data-name="Horia" class="comuna" id="120922"/>
    <path d="M603.212 284.88l-2.547 8.376 15.8 8.94 7.5 12.53-3.357 10.871 7.475 10.077-5.647 16.39-20.758-4.151-10.51-18.918-8.601 2.69-16.788-18.863-3.693.973 5.666-8.753-7.705-8.93-9.456-4.017 7.65-5.52 16.153 8.99 6.489-5.106 8.466 2.866 13.863-8.444z" data-name="Trifești" class="comuna" id="124723"/>
    <path d="M555.34 237.433l21.686 15.4 12.595 11.848 9.313 13.648 13.509 5.515-9.23 1.037-13.864 8.444-8.466-2.866-6.489 5.105-16.153-8.99-12.103-10.854-11.037-16.035 4.518-2.562L534 241.84l8.856 3.129 12.483-7.537z" data-name="Dulcești" class="comuna" id="122463"/>
    <path d="M611.245 212.875l8.246.178 7.323 12.925 10.206 19.174 4.879 18.172-16.363 4.696-9.328-14.13-12.279-1.394-7.377-20.649 3.339-16.95 11.354-2.022z" data-name="Săbăoani" class="comuna" id="124206"/>
  </g>
</svg>
