<svg xmlns="http://www.w3.org/2000/svg" version="1.2" baseProfile="tiny" stroke-linecap="round" stroke-linejoin="round" viewBox="0 0 800 518">
  <g id="NT" fill="none" stroke="#aaa">
    <path d="M491.345 455.331l-7.657 6.298-9.896 16.963-9.047 7.858-11.93.37-8.51-10.024-11.945-16.19 3.149-8.133 12.956-5.902 3.08 4.539 12.31-7.474 6.76.381 10.704-6.82 10.026 18.134z" id="122061"/>
    <path d="M418.12 444.108l14.24 16.497 11.945 16.19-11.978-1.216-5.022 8.189-12.604 4.688-16.931-5.443-13.799 5.047-.572 10.265-9.207 10.2-23.025.146-7.434-9.41-4.03 6.332-10.891 1.925-8.715-19.672-9.696-16.681-.079-20.18 3.657-11.789 7.858-.24 9.907-5.608 18.802 5.46 3.55-3.438 18.562-.43 6.859-2.842 9.293 8.134 7.588-6.917 10.977-1.934 10.745 12.727z" id="124616"/>
    <path d="M485.178 420.376l1.461 6.272-5.32 10.548-10.703 6.821-6.762-.38-12.309 7.473-3.08-4.54-12.956 5.903-3.149 8.132-14.24-16.497 5.213-.262 14.7-11.175 7.146-14.432 28.424-3.375 4.803-2.554 6.772 8.066z" id="124028"/>
    <path d="M517.41 408.785l-.347 11.057-2.364 9.33 2.904 13.958-5.663-.096-8.637 10.08-11.958 2.217-10.026-18.135 5.32-10.548-1.461-6.272 9.662-7.564 7.535.785 15.034-4.812z" id="122132"/>
    <path d="M604.198 390.667l.422 18.225-14.004 5.29 10.64 15.845-9.516 6.22-2.559 7.924-15.443 11.832-14.303-14.352-2.573-14.21-10.679 5.149 4.548-13.923-1.287-10.482 13.639-13.639 12.62-5.952 28.495 2.073z" id="121153"/>
    <path d="M168.21 428.422l6.66 12.846-3.977 14.17 4.595 20.168-22.43 3.645-11.807-5.147-14.733-1.268-9.416 11.643 12.928 24.209-3.646 4.651-17.31.132-3.614-7.81-9.396-8.87-19.371-25.192-4.682-9.614 5.897-12.937-3.767-22.567 4.119-13.064 5.962 5.97 7.672-6.466 15.411-2.981 14.14-13.037 3.174-11.134 12.288 1.99 11.248 10.75 11.435-.158 3.917 9.981-7.277 9.49 3.194 6.24 8.785 4.36z" id="122249"/>
    <path d="M471.135 405.132l7.271 7.178-4.803 2.554-28.424 3.375-7.147 14.432-14.699 11.175-5.213.262-10.745-12.727-10.977 1.934-7.588 6.917-9.293-8.135-6.86 2.843-18.56.43-3.55 3.437-18.803-5.46-9.908 5.61-7.857.24-11.505-17.155 15.552-5.575 10.96-1.297 34.342.9 23.975-7.754 3.939-6.398 12.173.022 9.59-11.149 9.156-7.535 3.939 7.304 10.138-10.253 20.001 18.752 11.59 1.753 3.305 4.32z" id="121732"/>
    <path d="M788.096 411.212l-12.65 8.753-.087 6.484-11.524.809-1.05 11.19-13.415-10.129 3.503-10.495-5.446-18.13.36-12.65-2.715-11.838 3.91-2.637 20.529-1.533 12.683 12.009 4.355 10.329 1.547 17.838z" id="123255"/>
    <path d="M745.072 375.206l2.715 11.839-.36 12.648 5.446 18.13-3.503 10.496-9.752.173-7.069-14.616-13.246 1.857-7.004 7.987-8.498-11.706-8.329.42-14.265-2.733-1.127-16.492 20.24-7.729 10.704-13.353 12.994-8.488 5.255 5.778 7.57-2.805 8.229 8.594z" id="124885"/>
    <path d="M513.894 361.33l-1.112 15.816.818 24.801 3.81 6.838-15.035 4.812-7.535-.785-9.662 7.564-6.772-8.066-7.272-7.178-2.728-11.834 19.412-25.135 9.34-5.574 14.014 3.507 2.722-4.766z" id="123674"/>
    <path d="M620.083 372.562l.554 9.49-8.016 6.96-8.423 1.655-28.494-2.073-12.621 5.952-13.639 13.639 7.327-10.446-8.63-20.685-1.86-13.403 4.013-2.972 26.269-1.857 11.398 9.407 32.122 4.333z" id="123228"/>
    <path d="M165.818 374.58l5.802-1.426 10.943 8.948-10.974 11.053 12.983 9.08-3.271 14.409-13.092 11.778-8.785-4.36-3.194-6.24 7.277-9.49-3.917-9.981-11.435.158-11.248-10.75-12.288-1.99-3.174 11.134-14.14 13.037-15.41 2.98-7.673 6.466-5.962-5.97-4-10.463-8.059-9.264-2.74-8.897 12.461-11.715-6.092-5.587-10.373 10.199-4.772-8.41 6.18-5.156 2.43-9.13 6.53-6.005 16.427 4.147 2.94 12.82 7.162 7.494 12.927-5.352 13.593-.44 9.328 8.42 19.739-5.906 13.877 4.409z" id="121297"/>
    <path d="M401.06 353.981l7.277 9.45 12.317 5.62 5.196 4.435-14.86 10.65 2.015 6.655-9.59 11.149-12.173-.022-3.939 6.398-23.975 7.754-34.343-.9-10.959 1.297-15.552 5.575-12.137-19.34 1.07-4.796 4.248-2.404 1.756-16.933 5.812-9.078 12.98-4.494 1.989-10.986 8.333-1.603 7.67 1.215 13.101-10.224 16.094 17.178 23.555-1.676 14.115-4.92z" id="123479"/>
    <path d="M444.38 322.607l1.562 7.054-6 7.8-8.48 2.88-1.343 10.858-9.465 17.852-12.317-5.62-7.277-9.45 9.005-17.796 6.56 5.277 12.214-14.652-1.248-3.424 16.789-.779z" id="120824"/>
    <path d="M291.407 397.906l-1.07 4.796 12.137 19.34 11.505 17.154-3.657 11.789.08 20.18-13.115 6.191-10.661 11.175-.828 17.759-19.203 4.538-9.394 6.426-6.114-11.209-10.42-1.302-13.284 9.099-11.03-8.34 1.021-10.94-4.681-5.433 1.556-9.944-4.483-13.264-7.355-3.183-17.154 11.673-9.769 1.195-4.595-20.168 3.976-14.17-6.66-12.846 13.092-11.779 3.272-14.408-12.984-9.08 10.974-11.053 18.035-3.443 14.654-9.108-7.833-24.94 5.643-6.971 23.048-14.537 8.925-1.054 5.946-4.006 12.902 2.98-2.453 13.993 7.244 20.43.857 8.665 21.876 33.796z" id="124493"/>
    <path d="M427.59 323.386l1.249 3.424-12.214 14.652-6.56-5.277-9.005 17.796-14.115 4.92-23.555 1.676-16.094-17.178 6.802-7.592 31.496-10.793 13.856-22.202 9.26.649 9.433 14.793 9.448 5.132z" id="120771"/>
    <path d="M152.08 306.702l7.784-3.644 9.002 8.214 8.609-.532 13.06-7.252 11.742 13.034-3.736 17.06 8.878 11.029 7.833 24.94-14.654 9.108-18.035 3.443-10.943-8.948-5.802 1.426-4.704-9.328-4.986-17.785-10.854 5.068-13.717-19.182 6.879-6.047 3-23.962 10.644 3.358z" id="124563"/>
    <path d="M141.436 303.344l-3 23.962-6.88 6.048 13.718 19.18 10.854-5.067 4.986 17.785 4.704 9.328-13.877-4.409-19.74 5.906-9.327-8.42-13.593.44-12.927 5.352-7.161-7.495-2.941-12.82-16.427-4.146-6.53 6.004-6.806-10.948 11.407-20.107 5.788-5.79 1.026-10.125 19.422 6.12 10.005-2.302 1.538-5.231 16.429-13.837 14.759-3.02 4.573 13.592z" id="121340"/>
    <path d="M461.085 280.501l4.959 13.538 19.176 2.25-7.371 14.953 5.567 6.16-6.204 17.702-29.576.209-1.694-5.651-1.562-7.055-.365-4.253 13.15-17.482-2.56-22.503 6.48 2.132z" id="125098"/>
    <path d="M454.604 278.369l2.562 22.503-13.15 17.482.364 4.253-16.79.78-9.447-5.133-9.433-14.793-9.26-.65-13.267-4.499 3.366-11.014-2.262-8.946-6.655-7.816 6.3 4.868 22.672-17.89 11.64-4.144 6.178 21.308 10.873-.514 2.873 5.61 13.436-1.405z" id="122702"/>
    <path d="M409.604 257.514l-22.672 17.89-6.3-4.868-9.412-1.771-8.394-9.622.101-11.795 13.975-10.006 10.04 1.226 4.767 8.141 11.564.505 6.33 10.3z" id="122285"/>
    <path d="M245.792 254.888l2.86 7.668L241.775 273l2.875 17.196-1.966 13.896-5.126 8.05 7.476 9.907-8.925 1.054-23.048 14.537-5.643 6.97-8.878-11.028 3.736-17.06-11.742-13.034-13.06 7.252-8.608.532-9.002-8.214-7.785 3.644-7.65-20.857 1.852-10.985 6.826-10.398 13.32-3.94 4.846-9.845 18.158-3.126 9.58-11.996 17.52 25.076-9.761 11.804 4.395 12.135 10.984-12.133 1.652-9.1 21.99-8.449z" id="120968"/>
    <path d="M488.867 208.072l-7.316 13.386 9.175 11.74-9.245 7-.931 9.4-10.039.895-9.68 3.937-5.87-9.654-7.884 3.506-15.114-34.798 17.642-4.137 14.826 9.967 4.392-9.982 13.534-5.69 6.51 4.43z" id="122392"/>
    <path d="M431.963 213.484l15.114 34.798 7.884-3.506 5.87 9.654 9.68-3.937 9.396 22.96-18.822 7.048-6.48-2.132-13.437 1.404-2.873-5.609-10.873.514-6.178-21.308-4.993-19.696 2.92-15.696.382-18.456 3.203 10.593 9.207 3.37z" id="124411"/>
    <path d="M152.178 213.101l6.573 4.864 15.582 1.7 19.285 9.813 5.394 6.077-9.58 11.996-18.158 3.126-4.847 9.846-13.319 3.94-6.826 10.397-1.852 10.985 7.65 20.857-10.644-3.358-4.573-13.592-14.759 3.02-8.989-8.702-3.965-9.492 6.214-19.57 17.6-27.243-7.577-13.236 4.937-3.81-11.232-9.738-1.683-8.075 7.13-1.933 15.962 12.45 4.327 7.756 7.35 1.922z" id="122025"/>
    <path d="M117.41 192.906l1.682 8.075 11.232 9.738-4.937 3.81 7.577 13.236-17.6 27.242-6.214 19.57 3.965 9.493 8.989 8.702-16.429 13.837-1.538 5.23-10.032-14.444-2.164-14.052-9.318-10.36-7.07 8.552-6.546-10.113-1.828-12.96-10.266-14.517-.254-13.968-10.702-8.677-7.805-19.747 8.49-8.051 11.888 7.001 17.855-6.375 16.992 2.799 4.18-7.14 16.956-6.24 2.896 9.36z" id="122864"/>
    <path d="M475.882 179.014l-7.06 30.317-4.391 9.983-14.826-9.967-17.642 4.137-9.207-3.369-3.203-10.593-1.454-1.448 14.821-5.614 9.152-15.274 9.47-5.698 24.34 7.526z" id="123969"/>
    <path d="M241.99 214.358l2.475 6.426-3.98 8.243 6.686 10.695-3.945 5.022 2.566 10.144-21.99 8.45-1.652 9.099-10.984 12.133-4.395-12.135 9.761-11.804-17.52-25.076-5.394-6.077-19.285-9.814-15.582-1.699-6.573-4.864 4.506-9.168 17.815-2.13 4.85-12.558 8.06-9.109-.373-22.642 3.79-11.348 22.167-2.45 2.477 8.007 8.875 7.217-3.612 12.897 1.41 7.681 8.819 14.172 5.487 17.172 5.541 3.516z" id="122953"/>
    <path d="M190.826 146.146l-3.79 11.348.373 22.642-8.06 9.109-4.85 12.558-17.815 2.13-4.506 9.168-7.35-1.922-4.327-7.757-15.961-12.449-7.13 1.933-2.897-9.358-16.955 6.239-4.18 7.14-16.993-2.799-17.855 6.375-11.889-7.001 5.234-16.815 15.753-2.488 24.797-15.823 8.183.56 25.154-30.465 14.474-.057 1.506-11.288 7.644-6.027 21.24 16.264 12.521 3.565 7.679 15.218z" id="123790"/>
    <path d="M474.17 103.288l-21.708 12.936-6.112 11.861-11.956 13.217-12.356 9.166-2.117-5.74-10.59 1.982 2.1-10.721 10.463-10.136-4.432-7.155 11.43-13.15 2.473 4.782 13.551-4.184 20.36-11.744 8.893 8.886z" id="124849"/>
    <path d="M149.386 111.099l-7.644 6.027-1.506 11.288-14.474.057-25.154 30.465-8.183-.56-24.797 15.823-15.753 2.488 5.341-25.645 6.557-7.35 18.117-5.297 9.29-18.667.012-11.662 10.373-8.808 9.31-2.69 10.582-10.603 1.524-7.781 13.144-9.135 12.907 19.514-2.868 11.729 3.222 10.807z" id="122551"/>
    <path d="M206.404 49.409l11.912 14.197 11.577 3.531 14.912-4.086 21.48 23.346-18.078 27.692-13.055 4.728-7.05 8.727-.069 9.123-10.528.016-4.512 7.013-22.167 2.45-7.679-15.218-12.52-3.565-21.24-16.264-3.223-10.807 2.868-11.73-12.907-19.513-3.792-4.729 4.29-13.3 17.67-3.925 5.3-4.873 15.105 3.68 4.861-4.17 18.858 10.395 7.987-2.718z" id="123521"/>
    <path d="M132.333 64.32l3.792 4.73-13.144 9.134-1.523 7.78-10.583 10.605-9.31 2.69-10.373 8.807-.011 11.662-9.29 18.667-18.118 5.297-6.557 7.35-5.34 25.645-5.235 16.815-8.489 8.051-14.433-3.972L1 185.871l2.405-17.795 16.478-17.39-3.703-8.262 4.744-11.705 10.478-3.351-2.712-16.254 6.73-4.972-.364-9.826 7.279-6.877 21.033-8.533 13.49-16.747-4.351-14.736-7.648-5.485-7.125-16.454-1.127-7.898 31.368 6.573 11.039 12.409 5.62.136 7.772 13.825 8.31 9.837 11.617 1.954z" id="121652"/>
    <path d="M353.543 15.284l8.34 18.888 13.868 2.654 3.114 6.31-12.6 9.493-2.94 8.113-21.998-.581-9.424-2.366-4.286-5.798-12.123 12.506-9.175-3.598-1.56-6.594-9.855-7.496 14.993-4.843-.813-6.551 40.21-20.779 4.249.643z" id="121938"/>
    <path d="M405.755 30.19l-5.697 6.216-12.568-2.564-11.74 2.984-13.866-2.654-8.341-18.887L372.783 1l15.658 9.29 3.924 6.856 13.39 13.044z" id="125132"/>
    <path d="M445.942 329.661l1.694 5.652 29.576-.21 2.282 12.42-3.598 3.613-5.625.305-17.652 11.06-16.381 17.806L426.1 390.56l-3.94-7.304-9.155 7.535-2.015-6.655 14.86-10.65-5.196-4.435 9.465-17.852 1.343-10.859 8.48-2.879 6-7.8z" id="124117"/>
    <path d="M487.818 368.163l-19.412 25.135 2.728 11.834-3.305-4.32-11.59-1.753-20.001-18.752 16.38-17.806 17.653-11.06 5.625-.305 6.284 6.59 6.955-.806-1.317 11.243z" id="125061"/>
    <path d="M511.71 312.557l6.254 17.635 14.882 5.813-2.817 9.785-2.595 7.596-13.54 7.944-2.722 4.766-14.014-3.507-9.34 5.574 1.317-11.243-6.955.806-6.284-6.59 3.598-3.613-2.282-12.42 6.204-17.7-5.567-6.161 7.37-14.952 15.188 5.403 11.304 10.864z" id="123175"/>
    <path d="M550.294 360.679l-4.013 2.972 1.86 13.403 8.63 20.685-7.327 10.446 1.287 10.482-4.514 3.97-29.154-2.795.346-11.057-3.81-6.838-.817-24.801 1.112-15.816 13.54-7.944 2.595-7.596 2.517 9.357 17.748 5.532z" id="124073"/>
    <path d="M711.024 372.127L700.32 385.48l-20.24 7.729 1.127 16.492 14.265 2.733-25.097 7.537-6.876 6.452-9.448-2.793-.464-10.819-18.81-8.577-2.898-22.448 4.575-3.713 14.024.589 2.77-8.652 13.196 2.456 2.888-12.34 8.742-1.192 6.584 5.24 14.885 1.014 11.481 6.94z" id="123013"/>
    <path d="M788.096 411.212l-1.547-17.838-4.355-10.329-12.683-12.009-20.529 1.533-3.91 2.637-8.23-8.595-7.57 2.806-5.254-5.778.99-13.72 22.023-4.642 11.192 4.008 6.324-9.782 9.916-5.171 15.759 19.219-.749 10.044 5.209 10.166-5.967 2.641.56 21.336 9.725 8.078-10.904 5.396z" id="121876"/>
    <path d="M712.488 318.043l.86 15.207 8.338 3.997 3.322 12.671-.99 13.72-12.994 8.49-11.48-6.94-14.886-1.014-6.584-5.24-8.742 1.191-2.888 12.34-13.197-2.455-2.769 8.652-14.024-.589-2.391-4.737 4.266-10.589 2.575 4.76 4.665-2.07-3.44-3.907 2.974-3.09 5.598-10.409 14.665-16.298-.09-6.295 4.23-9.762 11.322 4.005 9.174-6.13 6.67 7.989 15.816-3.497z" id="123102"/>
    <path d="M628.305 335.238l14.308 4.176-4.479 8.22 4.024 12.74-3.829 2.373-4.266 10.59-13.98-.775-32.122-4.333-11.398-9.407-26.27 1.857-17.747-5.532-2.517-9.357 2.817-9.785 6.585-2.207 12.361 7.819 11.061-.862-10.135-15.277 9.676-12.09 3.688-.971 16.766 18.837 8.59-2.686 10.496 18.893 20.732 4.147 5.64-16.37z" id="124233"/>
    <path d="M764.547 339.503l-6.324 9.782-11.192-4.008-22.023 4.641-3.322-12.671-8.337-3.997-.861-15.207 4.934-2.108 1.309-10.856 9.379-6.337 1.257-.87 22.662 27.27 4.765 11.747 7.753 2.614z" id="123709"/>
    <path d="M728.11 298.742l-9.38 6.337-1.308 10.856-4.934 2.108-15.817 3.497-6.67-7.989-9.173 6.13-11.322-4.005-4.23 9.762-4.985-3.633 4.882-11.052 8.417-7.896-7.283-11.325 6.333-10.79 4.5-3.288 14.144-1.116 16.092 6.058 6.23 7.142 9.14.25 5.364 8.954z" id="125150"/>
    <path d="M672.64 280.742l-6.333 10.79 7.283 11.325-8.417 7.896-15.852-3.823-9.117 3.404-18.114-16.12.521-4.792 16.287-8.261 15.077-3.915 19.786-4.696-1.121 8.192z" id="120860"/>
    <path d="M550.914 291.716l9.444 4.013 7.695 8.918-5.66 8.74-9.675 12.091 10.135 15.277-11.06.862-12.362-7.82-6.585 2.208-14.882-5.813-6.253-17.635 7.9-14.907.808-11.664-10.23-12.653 7.434-4.542 28.869 24.6 4.422-1.675z" id="122613"/>
    <path d="M534.346 241.528l5.61 15.262-4.512 2.558 11.023 16.015 12.087 10.84-7.64 5.513-4.422 1.675-28.87-24.6-6.088-10.796-1.313-24.074 20.588-.568 3.537 8.175z" id="125105"/>
    <path d="M717.76 243.93l6.297-2.351 5.88 11.59-1.17 20.605-1.287 10.57 1.887 13.528-1.257.87-5.363-8.954-9.141-.25-6.23-7.142-16.092-6.058-14.143 1.116-4.501 3.288 1.121-8.192-19.786 4.696-1.298-5.832 8.685-2.196 6.429-8.74 12.125-2.572-1.396-9.418 15.012-3.623 13.472-6.97 3.04 7.81 7.716-1.774z" id="124153"/>
    <path d="M642.103 262.983l4.586-1.772 5.988 10.203 1.298 5.832-15.077 3.915-16.287 8.261-9.926-5.946-13.49-5.508-7.756-7.012-1.546-6.618-12.578-11.833-3.054-10.776 8.134-1.059 14.42-9.123 7.368 20.622 12.263 1.392 9.315 14.112 16.342-4.69z" id="120888"/>
    <path d="M641.894 220.656l18.298 17.948-2.974 4.738 3.076 11.801 7.497 5.335-6.43 8.74-8.684 2.196-5.988-10.203-4.586 1.772-4.872-18.148-10.193-19.15 14.856-5.029z" id="124634"/>
    <path d="M355.932 210.187l18.104 16.243 2.866 10.912-13.974 10.006-10.053-7.17-9.955-1.577-12.361-19.787-6.807 1.943-12.508-2.888 7.08-14.238 5.817-2.002 23.798 2.703 7.993 5.855z" id="125169"/>
    <path d="M500.98 203.131l9.241 30.79 1.313 24.074 6.089 10.796-7.435 4.542 10.231 12.652-.808 11.665-7.9 14.907-11.304-10.864-15.187-5.403-19.176-2.25-4.959-13.539 18.822-7.049-9.396-22.959 10.039-.895.93-9.4 9.246-7-9.175-11.74 7.316-13.386 12.112-4.94z" id="121466"/>
    <path d="M519.998 198.19l4.64 8.007 13.616 5.874 6.035-.597 12.07 12.778 6.25 5.785-6.952 7.088-12.466 7.528-8.845-3.125-3.537-8.175-20.587.568-9.243-30.79 5.693-4.89 13.326-.05z" id="125123"/>
    <path d="M611.49 212.6l-11.34 2.02.825 7.959-4.16 8.968-14.42 9.123-8.134 1.06 3.054 10.775-21.658-15.38 6.951-7.088-6.249-5.785 22.517-25.43-6.556-6.824 8.617 5.715 4.496 11.132 6.774 6.58 22.025-11.293-2.743 8.467z" id="122668"/>
    <path d="M377.666 182.694l8.175 11.227 28.224 6.037 4.034-1.884 1.454 1.448-.383 18.456-2.919 15.696 4.993 19.696-11.64 4.144-6.33-10.3-11.565-.505-4.767-8.14-10.04-1.226-2.866-10.913-18.104-16.243 4.222-12.423 9.168-12.591 8.344-2.48z" id="121607"/>
    <path d="M738.996 279.717l-10.229-5.943 1.17-20.606-5.88-11.59-6.297 2.353 1.674-20.713.164-4.136 14.623-5.13 2.69-4.268 13.417-1.28 3.472-25.87 13.85 15.256-2.737 15.14 5.038 7.61 10.075 1.61 6.778 7.563 10.417 3.692-4.374 25.02-6.427 2.921-9.597-2.778-4.807-7.333-7.933 2.092-.243 7.383-10.348 9.65-8.761-.157-5.735 9.514z" id="124331"/>
    <path d="M572.32 191.998l6.556 6.823-22.517 25.431-12.07-12.778-6.035.597-13.616-5.874-4.64-8.007 9.458-11.414-1.425-6.08 8.944 4.966 7.991-6.915 8.972-2.814 18.382 16.065z" id="121796"/>
    <path d="M528.03 180.697l1.426 6.079-9.458 11.414-13.326.052-5.693 4.89-12.112 4.94-6.51-4.43-13.534 5.69 7.06-30.318 13.63 7.558 2.563-5.333 23.043-15.222 12.912 14.68z" id="124750"/>
    <path d="M369.322 185.173l-9.168 12.591-16.358-10.261-1.892-4.581-11.67-6.476.785-5.219 17.875-31.541.055 11.217 5.783 19.592 12.517 4.11 2.073 10.568z" id="125114"/>
    <path d="M228.033 136.667l10.76 7.035 7.312-1.198 12.444 9.24 13.197 4.023-8.365 8.487 15.203 6.454 4.443-6.462 19.987 11.695 22.292-.536 5.713-4.178-.785 5.22 11.67 6.475 1.892 4.581 16.358 10.261-4.222 12.423-7.993-5.855-23.798-2.703-5.817 2.002-7.08 14.238-5.674-4.662-3.323-9.831-9.652 10.305-10.329-2.499-9.745 3.585-14.036-6.058-16.495 5.65-5.54-3.518-5.488-17.17-8.818-14.172-1.41-7.682 3.61-12.897-8.874-7.217-2.477-8.007 4.512-7.013 10.528-.016z" id="122187"/>
    <path d="M479.187 144.069l2.626 10.462-.929 14.333 11.192 12.375-2.563 5.333-13.63-7.558-24.342-7.526-9.47 5.698-9.15 15.274-14.822 5.614-4.034 1.884 1.352-29.455 1.54-5.991 11.985.44 4.984-7.69 6.526.915 10.918-9.767-1.377-7.754 10.53-3.4 11.962 6.96 6.702-.147z" id="124803"/>
    <path d="M372.821 124.59l9.715 3.85-2.785 16.037 4.304.547 5.786 13.644-7.985 9.029-4.19 14.997-8.344 2.479-2.073-10.568-12.517-4.11-5.783-19.592-.055-11.217-6.375-5.947 10.146-6.365 1.392-5.582 18.764 2.799z" id="122908"/>
    <path d="M319.293 117.466l6.86 2.911 16.922-3.005 10.982 4.42-1.392 5.582-10.146 6.365-22.697 5.823-9.348 19.963-38.728-3.758-13.197-4.023 3.766-10.54 11.413-4.984-1.938-8.195 4.181-10.34 25.288-8.38 8.071 6.97 9.963 1.191z" id="121108"/>
    <path d="M479.187 144.069l-6.702.148-11.962-6.961-10.53 3.4 1.377 7.754-10.918 9.767-6.526-.915-4.984 7.69-11.984-.44-1.54 5.991-5.48-8.475-.607-15.318 10.59-1.982 2.117 5.74 12.356-9.166 11.956-13.217 6.112-11.861 21.707-12.936 6.242 10.924-6.748 8.984 5.524 20.873z" id="123371"/>
    <path d="M428.892 105.548l-11.43 13.15 4.432 7.155-10.463 10.136-2.1 10.721.606 15.318 5.48 8.475-1.352 29.455-28.224-6.037-8.175-11.227 4.19-14.997 7.985-9.029-5.786-13.644-4.304-.547 2.785-16.037-9.715-3.85 1.922-14.78 20.719-7.34 19.933-5.626 13.497 8.704z" id="123424"/>
    <path d="M392.993 89.625l2.469 12.846-20.72 7.339-1.92 14.78-18.765-2.798-10.982-4.42-16.923 3.005-6.86-2.91 3.865-5.964 17.977-7.024-.842-5.718-9.95-15.01 1.944-5.364 10.292 11.24 11.47-7.701 17.122-1.13 5.07 9.447 9.156-4.007 7.597 3.389z" id="121055"/>
    <path d="M465.277 94.402l-20.36 11.744-13.552 4.184-2.474-4.782-13.496-8.704-19.933 5.627-2.469-12.846 16.37-9.187 2.717-19.148 12.853-10.728 8.18 9.52 21.791 17.971.902 6.23 9.47 10.119z" id="124661"/>
    <path d="M294.904 46.815l9.855 7.496 1.56 6.594 9.175 3.598 2.515 4.771 11.566 2.567 2.71 6.546-1.943 5.363 9.95 15.011.842 5.718-17.977 7.024-3.864 5.963-9.963-1.19-8.07-6.972-25.289 8.38-4.181 10.341 1.938 8.195-11.413 4.984-3.766 10.54-12.444-9.24-7.312 1.198-10.76-7.035.07-9.123 7.048-8.727 13.056-4.728 18.079-27.692-21.481-23.346-14.912 4.086-11.577-3.531-11.912-14.197 26.789-14.514 5.69 6.315 17.796-6.04 7.638-7.643 30.587 19.288z" id="125016"/>
    <path d="M327.854 278.32l8.528 15.2.223 10.911-6.927 8.01-3.674 11.714 2.113 13.629-1.592 14.624-8.333 1.603-1.99 10.986-12.98 4.494-7.707-14.289-8.477-27.536-.557-11.866 8.33-8.854 1.493-19.732-8.51-10.614 6.701-9.252 8.759-5.685 18.014 2.906 6.586 13.75z" id="124938"/>
    <path d="M294.495 267.348l-6.702 9.252 8.511 10.614-1.494 19.732-8.33 8.854.558 11.866 8.477 27.536 7.708 14.29-5.812 9.077-1.756 16.933-4.248 2.404-21.876-33.795-.857-8.664-7.244-20.43 2.453-13.995-12.902-2.98-5.946 4.007-7.476-9.908 5.126-8.05 1.966-13.895L241.776 273l6.875-10.444-2.86-7.668-2.565-10.144 3.945-5.022 6.307 6.315 16.63-.811 7.275 5.307 10.358 1.273.151 11.611 6.603 3.93z" id="123601"/>
    <path d="M342.519 133.74l6.375 5.946-17.875 31.541-5.713 4.178-22.292.536-19.987-11.695-4.443 6.462-15.203-6.454 8.365-8.487 38.728 3.758 9.348-19.963 22.697-5.823z" id="121242"/>
    <path d="M386.183 298.312l13.267 4.5-13.856 22.202-31.496 10.793-6.802 7.592-13.101 10.224-7.67-1.215 1.592-14.624-2.113-13.629 3.674-11.714 6.927-8.01-.223-10.911-8.528-15.2 7.623-3.515 8.889 9.282 6.324-1.98 7.522-12.869 5.169-2.382 8.32 5.049.16 10.63 4.277 12.974 10.045 2.803z" id="120726"/>
    <path d="M311.244 217.869l12.508 2.888 6.807-1.943 12.36 19.787 9.956 1.576 10.053 7.17-.102 11.796 8.394 9.622 9.412 1.77 6.655 7.817 2.262 8.946-3.366 11.014-10.045-2.803-4.278-12.974-.16-10.63-8.32-5.049-5.168 2.382-7.522 12.87-6.324 1.98-8.89-9.284-7.622 3.515-6.586-13.75-18.014-2.906-8.759 5.685-6.603-3.93-.151-11.612-10.358-1.273-7.275-5.307-16.63.811-6.307-6.315-6.686-10.695 3.98-8.243-2.475-6.426 16.495-5.649 14.036 6.058 9.745-3.584 10.33 2.498 9.65-10.305 3.324 9.831 5.674 4.662z" id="122828"/>
    <path d="M424.933 50.562L412.08 61.29l-2.717 19.148-16.37 9.187-7.597-3.389-9.156 4.007-5.07-9.448-17.122 1.13-11.47 7.703-10.292-11.241-2.711-6.546-11.566-2.567-2.514-4.771 12.122-12.506 4.286 5.798 9.424 2.366 21.998.581 2.94-8.113 12.6-9.493-3.114-6.31 11.739-2.984 12.568 2.564 5.697-6.216 6.226 8.228 9.274 4.109 3.678 8.035z" id="123914"/>
    <path d="M738.996 279.717l9.5 5.423 17.851 14.533 10.626 13.893-2.51 20.766-9.916 5.171-7.753-2.614-4.765-11.746-22.662-27.27-1.886-13.53 1.286-10.569 10.229 5.943z" id="125141"/>
    <path d="M694.601 203.684l2.17 6.824 18.376 5.588 4.287 7.122-1.674 20.713-7.716 1.774-3.04-7.81-13.472 6.97-8.48-5.365-11.247 4.516-1.785-10.592 7.476-9.11 7.788-4.159 4.06-3.12 3.257-13.351z" id="121386"/>
    <path d="M687.284 220.155l-7.788 4.16-7.476 9.11 1.785 10.591 11.247-4.516 8.48 5.365-15.012 3.623 1.396 9.418-12.125 2.572-7.497-5.335-3.076-11.8 2.974-4.739-18.298-17.948 13.662-8.154-.514-11.249 6.121-1.22-.616-11.466 6.221-1.668 10.438 28.997 10.078 4.26z" id="122347"/>
    <path d="M753.8 182.534l-3.472 25.87-13.417 1.28-2.69 4.268-14.623 5.13-.164 4.136-4.287-7.122-18.377-5.588-2.168-6.824 7.087-6.043 3.697-15.876 18.854-5.666 24.764 6.77 4.796-.335z" id="125178"/>
    <path d="M612.685 283.476l9.926 5.946-.521 4.792 18.114 16.12 9.117-3.404 15.852 3.823-4.882 11.052 4.985 3.633.09 6.295-14.665 16.298-5.598 10.409-2.974 3.09 3.44 3.907-4.665 2.07-2.575-4.76 3.829-2.373-4.024-12.74 4.48-8.22-14.309-4.176.001-7.131-7.466-2.932 3.353-10.857-7.491-12.513-15.779-8.93 2.544-8.363 9.218-1.036z" id="120922"/>
    <path d="M603.467 284.512l-2.544 8.363 15.779 8.93 7.491 12.513-3.353 10.857 7.466 2.932v7.131l-5.64 16.37-20.732-4.147-10.496-18.893-8.59 2.686-16.766-18.837-3.688.97 5.659-8.74-7.695-8.918-9.444-4.013 7.64-5.513 16.133 8.978 6.48-5.099 8.454 2.862 13.846-8.432z" id="124723"/>
    <path d="M555.657 237.125l21.658 15.38 12.578 11.833 1.546 6.618 7.755 7.012 13.491 5.508-9.218 1.036-13.846 8.432-8.455-2.862-6.48 5.1-16.132-8.979-12.087-10.84-11.023-16.015 4.512-2.558-5.61-15.262 8.845 3.125 12.466-7.528z" id="122463"/>
    <path d="M611.49 212.6l8.235.177 7.313 12.909 10.192 19.149 4.873 18.148-16.342 4.69-9.315-14.112-12.263-1.392-7.368-20.622 4.16-8.968-.825-7.96 11.34-2.02z" id="124206"/>
  </g>
</svg>
