<svg xmlns="http://www.w3.org/2000/svg" version="1.2" baseProfile="tiny" stroke-linecap="round" stroke-linejoin="round" viewBox="0 0 800 1350">
  <g id="OT" fill="none" stroke="#aaa">
    <path d="M608.416 1280.888l11.7 4.673-6.639 20.988-27.235-20.908-42.413-14.026 8.171-13.642-5.244-20.277 65.337-15.869 2.982 11.752-10.881 8.493 12.764 11.702-12.472 15.13 3.93 11.984z" id="125588"/>
    <path d="M394.91 1212.918l-.815 14.539 10.715 2.426 1.437 35.697 8.559-1.67-3.148 28.125-18.716 17.667-1.093 7.626-26.646 16.842-5.857.11-4.76-10.475.618-20.084 13.316.16.105-14.545-32.001-5.397.088-7.719 20.25 3.467 6.39-71.881 31.558 5.112z" id="127938"/>
    <path d="M308.648 1206.937l-15.444 43.625-12.855 1.895-3.88 11.141-10.932-3.818-8.314 20.263-2.179 21.253-7.42-.516-5.522 47.211-18.047 1.242-48.578-19.307 14.283-83.153 7.075-.75 14.403-42.286 16.554 5.815 12.749-1.898-1.971 5.432 38.561 13.597 7.617-21.66 23.9 1.914z" id="127251"/>
    <path d="M363.353 1207.806l-6.39 71.881-20.251-3.467-.088 7.719 32.001 5.397-.105 14.544-13.316-.159-.618 20.084 4.76 10.475-18.933-3.926-46.565 8.331 2.876-15.93-2.216-45.532 28.316 3.286 2.128-13.559 22.486-64.802 15.915 5.658z" id="130339"/>
    <path d="M347.438 1202.148l-22.486 64.802-2.128 13.559-28.316-3.286 2.216 45.532-2.876 15.93-33.08 7.666-18.666 1.64 5.521-47.21 7.421.515 2.179-21.253 8.314-20.263 10.932 3.818 3.88-11.141 12.855-1.895 15.444-43.625 5.733-16.391 33.057 11.602z" id="127224"/>
    <path d="M265.438 1173.224l27.098 9.505 3.723-10.922 11.031 3.826-3.81 11.072 10.901 3.84-5.733 16.392-23.9-1.915-7.617 21.66-38.561-13.596 1.97-5.432.31-18.395 7.705-21.78 16.883 5.745z" id="129282"/>
    <path d="M650.589 1165.264l16.745 17.14-6.117 7.662 22.095 7.601-37.507 9.953-33.712 14.207-65.337 15.869-9.827-33.315 8.195-5.811 51.021-14.672 44.313-20.66 10.13 2.026z" id="127368"/>
    <path d="M529.791 1179.68l7.138 24.7 9.827 33.316 5.244 20.277-8.17 13.642-8.85-.044-37.374-8.711-11.76 1.123-24.824 13.522-49.364 14.53 3.148-28.125-8.56 1.67-1.436-35.697-10.715-2.426.815-14.539.523-12.472 34.082 1.325 9.053-4.198 20.38.04-9.174-22.675 50.838-13.526 6.634 24.31 22.545-6.041z" id="125542"/>
    <path d="M265.438 1173.224l3.957-10.847 26.864 9.43-3.723 10.922-27.098-9.505zm97.875-26.889l33.593 21.505-1.473 32.606-.523 12.472-31.557-5.112-15.915-5.658-33.057-11.602-10.9-3.841 3.809-11.072 11.008 3.898 3.913-11.094 11.016 3.901 9.69-27.558 20.396 1.555z" id="129745"/>
    <path d="M342.916 1144.78l-9.689 27.558-11.015-3.901-3.914 11.094-11.008-3.898-11.031-3.826-26.864-9.43-3.957 10.847-16.883-5.745-1.945-12.883 22.241 7.537-1.353-12.938 7.68-21.945 27.51 9.645 9.327-9.35 16.378 6.005 14.524 11.23z" id="129629"/>
    <path d="M430.432 1179.222l-.917 22.55-34.082-1.326 1.473-32.606-33.593-21.505 10.817-20.212 33.511 21.78 1.683 20.789 11.607.835 9.501 9.695z" id="129718"/>
    <path d="M629.804 1119.689l-11.279 10.093 4.66 18.205 20.233-4.42 7.17 21.697-10.13-2.025-44.313 20.659-51.02 14.672-8.196 5.81-7.138-24.7-5.495-18.603 36.054-16.918-1.882-6.194 56.217-25.407 15.12 7.13z" id="129460"/>
    <path d="M484.366 1114.501l13.423 5.66-4.64 24.854 7.463 16.397-50.838 13.526 9.173 22.675-20.379-.04-9.053 4.198.917-22.549 3.873-17.956.13-28.894 24.814 3.709 5.001-22.747 20.116 1.167z" id="129898"/>
    <path d="M434.436 1132.372l-.131 28.894-3.873 17.956-9.5-9.695-11.608-.835-1.683-20.79-33.511-21.779-12.672-7.892 5.57-8.172 5.534-7.962 43.707 27.84 18.167 2.436z" id="130375"/>
    <path d="M629.804 1119.689l-15.119-7.131-56.217 25.407 1.882 6.194-36.054 16.918 5.495 18.604-22.545 6.041-6.634-24.31-7.463-16.397 4.64-24.854 54.573-24.507 41.16-12.638 5.563-1.395 15.017 28.953 15.702 9.115z" id="126148"/>
    <path d="M341.823 1085.732l2.002 9.657 23.202 14.67-5.569 8.172 12.672 7.892-10.817 20.212-20.397-1.555-14.523-11.23-16.378-6.004-9.326 9.349-27.51-9.645-6.066-2.202 15.967-44.084 28.336 10.946 20.2 1.628 8.207-7.806z" id="127750"/>
    <path d="M460.987 1062.578l23.702 4.922-.323 47.001-20.116-1.167-5 22.747-24.814-3.708-18.166-2.437-43.708-27.839-5.535 7.962-23.202-14.67-2.002-9.657 3.753-16.467 23.662 6.398 3.365-14.169 41.322 13.062 14.417-9.472 29.774 7.506 2.871-10.012z" id="125962"/>
    <path d="M593.522 1083.016l-41.16 12.638-54.573 24.507-13.423-5.66.323-47 8.563 1.507-.773-18.216 78.232-8.85 23.974.654 1.603 18.992-5.446 9.543 2.68 11.885z" id="128588"/>
    <path d="M348.81 1057.31l-3.234 11.955-3.753 16.466-8.207 7.807-20.2-1.628-28.336-10.946-3.388-13.018-14.701-5.076 7.521-22.249 14.964 4.792 4.236-10.135.879 6.034 54.22 15.997z" id="126077"/>
    <path d="M396.005 1019.235l1.901 14.79-16.537-3.701-3.53 12.703 16.336 2.065 22.276 7.685 44.536 9.8-2.87 10.013-29.775-7.506-14.417 9.472-41.322-13.062-3.365 14.169-23.662-6.398 3.235-11.956 4.92-18.256 7.005.716 8.71-27.698 26.559 7.164z" id="130320"/>
    <path d="M472.965 1026.136l-3.68 12.942 22.998 4.124.196 7.59.773 18.216-8.563-1.508-23.702-4.922-44.536-9.8-22.276-7.686-16.335-2.065 3.53-12.703 16.536 3.7-1.901-14.79 9.757-4.467 19.236 4.223 4.158-12.668 34.532 11.235 9.277 8.579z" id="129184"/>
    <path d="M363.245 997.586l6.201 14.485-8.71 27.698-7.006-.716-4.92 18.256-54.22-15.996-.878-6.035 6.284-35.29 17.228 6.299-.819-13.755 15.632-1.022 31.209 6.076z" id="128560"/>
    <path d="M570.711 1041.942l-78.232 8.85-.196-7.59-22.999-4.124 3.68-12.942 11.585-7.814 6.53-17.521 28.858 8.66 6.779-13.641 23.71-8.937 7.38 8.874 10.37-3.81 12.224-5.807-6.803 21.447 2.651 16.915-5.537 17.44z" id="128613"/>
    <path d="M418.485 974.778l10.671 31.544-4.158 12.668-19.236-4.223-9.757 4.468-26.559-7.164-6.2-14.485 5.515-24.977 7.931 1.524 23.417 4.327 18.376-3.682z" id="130026"/>
    <path d="M470.845 972.936l-4.412 20.287 24.645 7.578-6.529 17.52-11.584 7.815-9.277-8.579-34.532-11.235-10.671-31.544-2.358-6.85 48.807-6.496 5.911 11.504z" id="129567"/>
    <path d="M544.501 943.52l21.39 27.265 2.285 21.163-10.37 3.81-7.38-8.875-23.71 8.937-6.779 13.64-28.859-8.66-24.645-7.577 4.412-20.287 37.12-12.743 26.596-15.435 9.94-1.238z" id="125659"/>
    <path d="M429.78 909.316l8.227 1.715 4.99 17.178 8.1-1.702 13.837 34.925-48.807 6.496 2.358 6.85-18.376 3.682-23.417-4.327 4.02-22.337-11.11-27.61-33.327-6.332 7.46-8.973 19.34 3.318 2.48-9.088 37.638-2.231 26.586 8.436z" id="126647"/>
    <path d="M659.49 950.737l5.94 7.377-48.49 10.634-36.54 17.392-12.224 5.808-2.285-21.163-21.39-27.265-5.108-15.027 16.79-14.303-2.61-7.126 15.898-7.548 9.014 9.922 9.99-12.194 9.052-2.258 5.296 12.381 14.653-6.18 13.924 32.121 28.09 17.429z" id="129040"/>
    <path d="M553.572 907.064l2.612 7.126-16.79 14.303 5.107 15.027-9.94 1.238-26.595 15.435-37.12 12.743-5.912-11.504-13.838-34.925 28.431-12.223 11.252-7.662-6.767-10.119 22.83-6.104 10.742 15.15 10.772 6.584 25.216-5.069z" id="127144"/>
    <path d="M306.18 877.797l-3.025 2.362-.418 30.325 40.999-1.603-7.462 8.973 33.328 6.333 11.11 27.61-4.02 22.336-7.931-1.524-5.516 24.977-31.208-6.076-15.632 1.022.819 13.755-17.228-6.298-40.593-6.923-31.537-2.703 9.22-47.25-7.88-1.449 4.2-20.175 19.507-2.971 14.89 2.418 4.161-44.465 34.216 1.326z" id="128524"/>
    <path d="M501.489 861.756l9.019 14.078-3.666 14.565-22.83 6.104 6.767 10.119-11.252 7.662-28.43 12.223-8.1 1.702-4.99-17.178-8.228-1.715 5.375-24.595 15.856 4.06-.085-21.57 34.028-18.85 8.98 14.857 7.556-1.462z" id="129095"/>
    <path d="M701.775 917.86l-6.6-30.755-6.884 1.18-2.764-20.47-7.506-12.175 21.922-6.76 36.096-21.525 28.762 25.593 7.461 25.54.65 16.623-15.447 7.698-27.593 4.298 2.048 6.414-30.145 4.34z" id="127536"/>
    <path d="M325.965 825.064l24.916 25.265 11.66-1.267 15.83 6.397 11.663-11.96 8.35 4.416 36.288 19.855.482 16.95-5.375 24.596-26.586-8.436-37.637 2.23-2.482 9.089-19.338-3.318-41 1.603.419-30.325 3.025-2.362 15.06-1.517 6.872-11.751 3.37-18.362-23.341-4.214 1.845-12.102 15.98-4.787z" id="125472"/>
    <path d="M600.668 819.78l2.85 8.71-21.397 6.11-12.473 9.008.697 8.656 14.057 19.765 17.092 14.03-13.019 11.185-9.99 12.194-9.014-9.922-15.899 7.548-25.216 5.069-10.772-6.583-10.742-15.15 3.666-14.566-9.02-14.078 14.088-8.135 17.845 9.793-6.616-24.854 16.28-10.595 11.028-11.812 12.727 3.271 25.752-3.42 8.076 3.776z" id="126585"/>
    <path d="M309.986 829.851l-1.845 12.102 23.34 4.214-3.37 18.362-6.87 11.751-15.061 1.517-34.216-1.326-9.399-13.969 11.633-52.684 13.48 11.793 17.296 2.667 5.012 5.573z" id="125490"/>
    <path d="M678.02 855.64l7.507 12.175 2.764 20.47 6.884-1.18 6.6 30.755-3.994 6.31-39.689 10.58 1.398 15.987-28.09-17.429-13.924-32.12-14.653 6.179-5.296-12.381-9.052 2.258 13.019-11.184-17.092-14.031-14.057-19.765-.697-8.656 12.473-9.009 21.397-6.11-2.85-8.71 17.779-2.783 23.462-7.9 11.517 21.32 7.623-3.038 16.972 28.262z" id="128472"/>
    <path d="M724.558 788.46l7.58 16.168 3.901 22.727-36.096 21.526-21.922 6.759-16.971-28.262-7.624 3.038-11.517-21.32 18.756-9.78-6.339-10.663 14.51-3.312 24.351 17.42 31.371-14.302z" id="128864"/>
    <path d="M439.186 789.004l-21.544 24.278-16.238 14.261 11.584 5.26-14.604 15.112-8.35-4.417-11.663 11.96-15.83-6.396-11.66 1.267-24.916-25.265 12.31-8.351 4.96-33.871 7.017-10.184 20.565 5.47 6.366-8.302 12.929 13.925 19.66-6.171 29.414 11.424z" id="126718"/>
    <path d="M340.138 779.473l3.098 3.369-4.96 33.87-12.31 8.352-15.98 4.787-5.012-5.573-17.297-2.667-13.479-11.793-10.178-11.916 10.495-36.881 10.665 1.562 54.958 16.89z" id="126102"/>
    <path d="M566.84 819.424l-12.727-3.27-11.029 11.811-16.279 10.595 6.616 24.854-17.845-9.793-14.087 8.135-7.556 1.462-8.98-14.858-12.694-4.71 4.923-24.214-13.497-31.192 25.94-23.72 27.765-7.515 15.762.436 28.67-7.38 20.61 22.945-17.127 9.497-2.796 15.862 4.331 21.055z" id="125622"/>
    <path d="M346.205 760.77l-6.067 18.703-54.958-16.89-10.665-1.562.355-1.37 18.075-3.496 8.388-32.615 12.638-8.171 11.998 7.03 1.743 11.38 15.816 5.55 2.677 21.442z" id="130357"/>
    <path d="M442.916 781.82l-3.73 7.184-29.415-11.424-19.66 6.17-12.928-13.924-6.366 8.302-20.565-5.47-7.016 10.184-3.098-3.369 6.067-18.702 9.232-20.61 13.428-4.168-3.659-12.774 42.72-7.066 5.583-4.4 8.602 6.026 13.86 23.616.55 28.783 6.395 11.642z" id="126978"/>
    <path d="M724.558 788.46l-31.37 14.3-24.353-17.42-14.509 3.313-8.173-31.445 21.64-14.34 40.218-20.715 4.358-14.156 17.11-2.412 20.069-15.606 3.587 8.868-3.808 31.083 10.087 19.777-27.56 27.676-7.296 11.076z" id="129763"/>
    <path d="M557.518 745.044l-31.115 8.435-16.416-4.052-6.246-8.987-21.99-4.843 5.738-35.787 7.404-11.684 11.17 12.003 38.643-1.739 35.362-11.926 7.4 21.552-15.2 7.021 6.301 14.747-21.05 15.26z" id="127386"/>
    <path d="M482.089 674.222l12.804 13.904-7.404 11.684-5.739 35.787 21.99 4.843 6.247 8.987 16.416 4.052 31.115-8.435 4.304 5.021-28.67 7.38-15.762-.436-27.766 7.516-25.939 23.719-13.805 7.693-6.964-14.117-6.395-11.642-.55-28.783-13.86-23.616-8.602-6.026 3.291-8.15 21.871-11.252 36.285-6.116 7.133-12.013z" id="127493"/>
    <path d="M614.053 685.816l28.996 30.347 24.745 26.704-21.64 14.341 8.172 31.445 6.339 10.664-18.756 9.78-23.462 7.9-17.78 2.783-8.075-3.777-25.752 3.421-4.331-21.055 2.796-15.862 17.128-9.497-20.611-22.945-4.304-5.021 21.051-15.26-6.301-14.747 15.2-7.02-7.4-21.553 30.597-13.565 3.388 12.917z" id="129111"/>
    <path d="M712.37 707.997l-4.359 14.157-40.217 20.713-24.745-26.704 39.116-28.637 11.499-11.612 16.239-4.5-6.833 14.354-1.676 14.984 10.975 7.245z" id="127714"/>
    <path d="M395.428 662.043l1.408 21.392 5.42 13.415 11.766 9.183-6.096 10.12-42.72 7.066 3.66 12.773-13.43 4.17-9.23 20.608-2.678-21.442-15.816-5.548-1.743-11.38-11.998-7.031-.757-3.435 25.852-18.694-4.78-12.75 24.39-.77 8.115-5.994-.317-11.36 28.954-.323z" id="127983"/>
    <path d="M749.548 689.98l-20.069 15.605-17.11 2.412-10.975-7.245 1.676-14.984 6.833-14.355 4.109-23.243 19.256 2.582 26.89-8.301 4.708 11.162-10.166 3.827-5.46 12.377.308 20.162z" id="130311"/>
    <path d="M334.287 680.49l4.779 12.75-25.851 18.694-21.315-7.824.719-17.244 6.669-3.944-16.54-39.548 15.2-6.518 16.01 40.023 17.167-7.045 3.162 10.657z" id="130384"/>
    <path d="M714.012 648.17l-4.11 23.244-16.238 4.5-11.499 11.612-39.116 28.637-28.996-30.347 33.306-24.06 30.186-25.175 19.932-3.278 3.03 14.588 13.505.279z" id="126406"/>
    <path d="M505.054 659.038l-7.41 10.976-15.555 4.208-7.133 12.013-36.285 6.115-21.87 11.252-3.292 8.151-5.583 4.4 6.096-10.12-11.767-9.183-5.419-13.415 24.048-5.868 1.52-17.837 6.765-8.57 10.977-15.883 5.609 2.835 39.28-1.504 17.567-4.37 2.452 26.8z" id="126380"/>
    <path d="M597.82 625.522l3.364 18.404 9.48 28.973-30.596 13.565-35.362 11.926-38.643 1.739-11.17-12.003-12.804-13.904 15.555-4.208 7.41-10.976 9.902 4.93 5.386-18.455 20.226 2.424 34.515.14.854-21.953 21.882-.602z" id="129987"/>
    <path d="M297.746 636.352l.202.504-15.2 6.518 16.54 39.548-6.67 3.944-33.837-8.218-4.027 7.856-14.566-6.095-11.003-13.789 8.757-16.03 11.281-9.461 20.792-8.429.928-9.789 14.034 3.86 12.77 9.581z" id="128178"/>
    <path d="M391.094 618.382l5.053 28.64-.719 15.02-28.954.325.317 11.359-8.114 5.994-24.39.77-3.162-10.656-17.167 7.045-16.01-40.023-.202-.504 31.647-10.6 10.884 8.389 19.198-.645 12.807-21.677 14.608-1.827 4.204 8.39z" id="126022"/>
    <path d="M423.579 612.44l-5.997 13.896 15.978 5.428-8.816 9.848 4.425 9.547-6.765 8.57-1.52 17.838-24.048 5.868-1.408-21.392.719-15.02-5.053-28.64 15.527-9.324 16.958 3.381z" id="130348"/>
    <path d="M247.167 603.972l20.647 3.942 3.129 14.997-.928 9.789-20.791 8.429-11.282 9.462-14.352-4.834-26.772 10.812 1.847-13.707-7.69-5 11.622-12.768 20.727.79 14.648-15.777-4.114-4.32 13.31-1.815z" id="125846"/>
    <path d="M659.293 607.12l18.252 29.46-30.186 25.176-33.306 24.06-3.388-12.917-9.481-28.973-3.365-18.404 22.29-19.648 5.393 4.675 13.297-9.208 5.257-16.879 15.237 22.658z" id="129246"/>
    <path d="M760.157 642.45l-26.89 8.302-19.255-2.582-13.505-.279-3.03-14.588-19.932 3.278-18.252-29.461 22.181-17.66 17.264 2.894-4.341-25.914 24.985-7.487 1.102 6.529 73.981-1.866L799 579.805l-5.034 11.92-26.246.521-23.772 7.768.395 6.813 15.814 35.624z" id="129585"/>
    <path d="M420.568 565.883l-10.79 11.669 24.291 17.132-10.49 17.756-16.958-3.381-15.527 9.323-4.204-8.39-11.477-22.287-3.7-17.054 11.694-14.19 15.12 6.008 8.936-9.823 13.105 13.237z" id="127563"/>
    <path d="M332.607 569.254l8.047-4.332 7.656 14.551 23.403-8.822 3.7 17.054 11.476 22.286-14.607 1.828-12.807 21.677-19.198.645-10.884-8.389-31.647 10.6-12.77-9.581-14.033-3.86-3.13-14.997-20.645-3.942 4.839-40.936 16.245-9.838.63-12.44 22.212 1.481 5.815 22.957 12.17 10.09 14.995.633 8.533-6.665z" id="128105"/>
    <path d="M166.816 557.445l-7.724 12.744-10.572 1.15-16.049 20.596-26.391-14.13-24.636 4.16-4.992-7.853 35.894-12.74 12.953-12.884 6.797-21.335 21.02 15.092 13.7 15.2z" id="125677"/>
    <path d="M604.448 530.21l39.608 54.252-5.257 16.879-13.297 9.208-5.393-4.675-22.29 19.648-21.882.602-4.032-.392-3.801-40.924-9.128-5.58 20.401-11.604-4.887-12.994-1.175-6.115 15.155-15.357-3.898-7.534 6.585-3.747 13.291 8.332z" id="127689"/>
    <path d="M247.053 527.468l4.954 35.568-4.84 40.936-13.31 1.815-21.342 13.107-6.301-15.394-14.926-6.618.411-11.667-9.113-5.616-.504-19.353-1.917-35.295 35.504-2.774 7.002 12.682 24.382-7.39z" id="125873"/>
    <path d="M383.407 556.46l-11.694 14.19-23.403 8.823-7.656-14.551-8.047 4.332-1.367-18.198 7.528-9.422-9.14-22.228 24.377-4.83 17.652 25.083.53 12.385 11.22 4.417z" id="125374"/>
    <path d="M177.383 509.167l2.782 15.784 1.917 35.295-15.266-2.801-13.7-15.2-21.02-15.092 2.281-8.824-13.488-4.288-10.587-11.53 31.37 15.648 35.711-8.992z" id="127812"/>
    <path d="M110.302 502.51l10.587 11.53 13.488 4.29-2.281 8.823-6.797 21.335-12.954 12.885-35.893 12.739-15.744-1.99 8.594-31.617 14.936-35.014 20.413-8.555 5.65 5.575z" id="130302"/>
    <path d="M584.572 525.624l3.898 7.534-15.155 15.357 1.175 6.115-55.716 21.045 3.258-2.906-2.521-55.636 37.969-19.424 27.092 27.915z" id="128052"/>
    <path d="M350.218 499.275l.002 2.408 3.785 12.893-24.377 4.83 9.14 22.229-7.528 9.42 1.367 18.199-8.533 6.665-14.995-.633-12.17-10.09-5.815-22.957-22.213-1.48-.63 12.439-16.244 9.838-4.954-35.568-2.723-35.32 49.806 5.793 39.396.603 6.07 6.854 10.616-6.123z" id="127064"/>
    <path d="M685.85 531.482l6.99 19.7 1.557 15.258 4.34 25.914-17.263-2.893-22.18 17.659-15.238-22.658-39.608-54.253 18.933-33.731 14.077-5.866 17.743 17.434-.514 19.899 8.732 10.416 22.43-6.879z" id="127322"/>
    <path d="M177.383 509.167l-35.711 8.992-31.37-15.648-5.65-5.575-10.347-9.121-4.447-5.363 15.186-6.865 24.544 3.498 13.41-12.563 14.21-4.19 8.173 15.998 2.846 23.516 9.156 7.32z" id="130295"/>
    <path d="M530.445 453.565l6.297 17.124 11.011.589 9.727 26.43-37.97 19.425-9.834 3.933-9.915-10.702-8.876-12.473-10.117-23.588 23.718-8.583-3.136-11.739 29.095-.416z" id="130286"/>
    <path d="M637.458 490.612l-14.077 5.866-18.933 33.731-13.291-8.332-6.585 3.747-27.092-27.915-9.727-26.431-11.011-.589-6.297-17.124 23.11-9.302 7.885 5.872 8.135-8.625 25.797-7.732 17.278 13.736 5.596-8.808 14.567 2.878-1.2 12.327 9.463 9.267 5.845 18.042-9.463 9.392z" id="128374"/>
    <path d="M325.9 448.894l8.317 16.848-3.871 11.357 11.505 9.029 8.367 13.147-10.617 6.123-6.069-6.854-39.396-.603-49.806-5.793-1.435-11.58-14.046-6.56 30.63-28.156-.294-15.074 30.272 1.082 1.863 15.824 34.58 1.21z" id="128221"/>
    <path d="M676.387 424.237l-3.487 30.216 5.824.69-.685 29.45 17.48.239-3.334 44.708-6.336 1.942-22.43 6.879-8.732-10.416.514-19.9-17.743-17.433 9.463-9.392-5.845-18.042-9.464-9.267 1.2-12.327-14.566-2.878-5.596 8.808-17.278-13.736 3.436-8.346 15.683-4.178 8.03 7.537 16.52-4.533 9.566 8.31 27.78-8.331z" id="126326"/>
    <path d="M426.697 418.745l1.052 46.398-11.835 3.911-42.481 10.356-8.556 18.8-14.657 3.473-.002-2.408-8.367-13.147-11.505-9.03 3.87-11.356-8.315-16.848 1.05-13.374 13.084-4.08 21.613.097 8.28 4.859 45.361-18.958 11.408 1.308z" id="126433"/>
    <path d="M188.163 415.574l26.044 35.97 5.898 16.421 8.744 6.043 14.046 6.56 1.435 11.58 2.723 35.32-24.382 7.391-7.002-12.683-35.504 2.775-2.782-15.784-9.156-7.32-2.846-23.517-8.174-15.998.204-9.348 13.886-28.154 16.866-9.256z" id="127625"/>
    <path d="M301.702 389.428l33.218 3.868-.01 8.369 17.003 2.42-.654 16.886-24.309 14.549-1.05 13.374-34.58-1.21-1.863-15.825-30.272-1.08-13.426-16.932-2.657-21.805 10.654-8.759 38.593 1.79 9.353 4.355z" id="129139"/>
    <path d="M243.102 392.042l2.657 21.805 13.426 16.931.293 15.074-30.629 28.156-8.744-6.043-5.898-16.421-26.044-35.97 1.264-15.223 10.325-3.578 10.197-15.476 23-.706 10.153 11.45z" id="126166"/>
    <path d="M676.387 424.237l-27.78 8.332-9.567-8.311-16.519 4.534-8.03-7.538-15.683 4.178-10.991-34.37 38.883-.297 16.244-8.462-1.966-11.01 9.383-14.897 9.513-1.686 14.317 11.403.726 20.822 10.19 17.158-8.72 20.144z" id="130366"/>
    <path d="M415.29 417.438l-45.363 18.958-8.28-4.859-21.612-.096-13.085 4.079 24.309-14.55.654-16.884 2.208-27.424.222-40.156 22.17.586 23.16-3.892 12.642 20.583-11.658 3.19 13.682 29.43 13.696-.287-12.746 31.322z" id="129380"/>
    <path d="M354.121 376.662l-2.208 27.424-17.003-2.421.01-8.369-33.218-3.868 1.04-56.786 17.748.336 4.314 15.12-.008 22.285 29.325 6.279z" id="127171"/>
    <path d="M640.978 371.294l1.966 11.01-16.244 8.46-38.883.297-3.291-9.257 5.46-20.645-14.15-30.736 16.167 1.524 26.126-10.536 8.584 10.935 1.922 27.941 12.343 11.007z" id="127901"/>
    <path d="M448.825 293.743l12.407 11.616-3.814 15.594 12.075 4.162 5.66 9.57-2.739 22.162 5.472 14.028-9.177 16.844 14.896 10.222-19.232 3.285-33.518.85-4.158 16.67-11.408-1.308 12.746-31.322-13.696.286-13.682-29.43 11.658-3.189-12.642-20.584 15.72-18.898-9.024-7.119 6.25-8.958 36.206-4.481z" id="127858"/>
    <path d="M655.422 281.028l6.053 28.701-2.887 6.954 1.286 38.027-9.513 1.686-9.383 14.898-12.343-11.007-1.922-27.94-8.583-10.936-9.603-12.107-6.509-29.188-11.14-5.085 5.298-19.264 10.582-8.537 16.213.597 15.994 12.8 6.542.184 2.965 20.509 6.95-.292z" id="126228"/>
    <path d="M596.176 255.767l-5.297 19.264 11.14 5.085 6.508 29.188 9.602 12.107-26.126 10.536-16.167-1.524-16.914-29.285-24.857-9.451-3.606-20.531 27.815-14.753 20.937-22.38 10.59-.266-.195 16.133 6.57 5.877z" id="129317"/>
    <path d="M372.442 218.594l-2.581 14.411 19.643 6.59.046 38.376-4.938 12.408 28.007 7.845-6.25 8.958 9.024 7.12-15.72 18.897-23.16 3.893-22.17-.586.122-17.542-6.689-19.823-11.641-12.341-1.586-37.166-8.15-19.707 46.043-11.333z" id="129816"/>
    <path d="M484.228 180.29l-4.344 8.99 6.614 13.976-6.804 24.262 23.904-4.562 9.313-10.42 8.49 11.127-6.296 23.96 10.838 7.22 1.933 16.977-13.621-.161-12.934 17.373-8.63 2.362-41.347.005-7.576-24.429-17.656-11.519 4.124-11.941 15.62-23.76-1.2-16.495 25.211-26.766 14.361 3.8z" id="128301"/>
    <path d="M655.422 281.028l-6.95.292-2.965-20.509-6.542-.184-15.994-12.8-16.213-.597-10.582 8.537-6.57-5.877.196-16.133-10.59.267-11.855-20.087-7.081-24.28 15.416-6.516-2.457-18.11 5.48-.82 19.183 23.3 25.373-5.117 15.775.032 18.99 7.171 6.643 14.405-4.288 8.565-19.71 11.455 4.311 5.1 9.229 38.834 1.2 13.072z" id="125757"/>
    <path d="M444.657 203.255l1.2 16.494-15.621 23.76-4.124 11.943 17.656 11.518 7.576 24.43-2.519 2.343-36.206 4.48-28.007-7.844 4.938-12.408-.046-38.375-19.643-6.591 2.581-14.411 7.613-3.1 2.6-17.94 10.515-20.532 15.358-4.415 4.951-8.308 9.198-.997 7.655 12.27-9.273 13.584 20.592 8.367 3.006 5.732z" id="126503"/>
    <path d="M564.544 146.972l8.692 18.06 2.456 18.11-15.416 6.516 7.08 24.279 11.855 20.087-20.937 22.379-27.815 14.753-2.583.664-1.933-16.977-10.838-7.22 6.297-23.96-8.49-11.127-9.315 10.42-23.903 4.562 6.804-24.262-6.614-13.976 4.344-8.99 1.307-19.382 33.569-2.387 5.341 12.145 16.65-1.047 15.873-24.028 7.576 1.381z" id="128962"/>
    <path d="M414.174 143.937l5.112 7.658-5.807 12.704-4.951 8.308-15.358 4.415-10.515 20.533-2.6 17.938-7.613 3.1-46.044 11.334-6.618-16.338-2.481-34.13 15.536 1.803 26.308-4.07 2.872-22.311 16.066-9.353 36.093-1.591z" id="130231"/>
    <path d="M371.871 109.028l22.213 3.336 13.688 10.457 5.94 6 .462 15.116-36.093 1.591-16.066 9.353-2.872 22.31-26.308 4.07-15.536-1.803 5.119-12.425-6.074-21.237 17.187-1.621 2.37-10.881 14.127-15.264 21.843-9.002z" id="126772"/>
    <path d="M467.128 91.894l23.04 13.23-5.954 43.097 1.321 12.687-1.307 19.381-14.361-3.8-25.21 26.766-3.006-5.732-20.592-8.367 9.273-13.585-7.655-12.27-9.198.998 5.807-12.704-5.112-7.658-.463-15.116-5.939-6 21.97-12.277 7.838 6.45 13.905-16.669 15.643-8.431z" id="127411"/>
    <path d="M451.485 100.325l-13.905 16.668-7.838-6.449-21.97 12.277-13.688-10.457-22.213-3.336L385.824 82.1l17.612.338 9.278-22.024 16.374-9.29 16.978 10.787-13.254 20.202 18.673 18.212z" id="128882"/>
    <path d="M543.634 87.683l-7.894 6.81-22.534 7.833-23.038 2.797-23.04-13.23 11.944-3.557L490.53 77.69l3.618-15.358 8.14-.187 3.456-35.521 8.478-18.698 13.058 3.872 1.238 32.891 15.117 42.994z" id="129503"/>
    <path d="M429.088 51.124l-16.375 9.29-9.277 22.024-17.612-.338-13.953 26.928-21.843 9.002 9.196-41.257-7.417-9.034 18.477-15.376-6.756-18.212 27.356-1.646L402.77 10.4 413.786 1l21.254 10.5-5.952 39.624z" id="129914"/>
    <path d="M94.305 487.815l10.346 9.121-20.413 8.555-14.936 35.014-13.613-6.565-40.782-10.335L1 525.067l.344-10.883 11.209-18.099 6.802-22.561L2.687 461.76l16.973-20.19 17.045 16.303 5.322 16.774 14.884 13.296 20.056 9.017 17.338-9.145z" id="130124"/>
    <path d="M292.618 686.866l-.718 17.244 21.315 7.824.757 3.435-12.64 8.17-8.387 32.615-18.075 3.497-1.946-16.792-67.758-21.486 6.442-8.167 3.604.777 41.514-13.297-1.972-14.182 4.027-7.856 33.837 8.218z" id="126825"/>
    <path d="M564.544 146.972l-7.576-1.381-15.873 24.028-16.65 1.047-5.341-12.145-33.569 2.387-1.32-12.687 5.953-43.098 23.038-2.797 22.534-7.833 7.894-6.81 7.535 6.2 5.476 21.019 7.81.08-4.818 25.637 4.907 6.353z" id="126905"/>
    <path d="M190.975 637.862l7.69 5-1.847 13.707 26.772-10.812 14.352 4.834-8.757 16.03 11.003 13.788 14.566 6.095 1.972 14.182-41.514 13.297-3.604-.777-1.51-8.173-28.355-4.022-1.951-37.662-14.108 1.596-16.8-37.347 18.055 8.758 13.322-7.44 10.714 8.946z" id="130062"/>
    <path d="M182.082 560.246l.504 19.353 9.113 5.615-.411 11.668 14.926 6.618 6.301 15.394 21.343-13.107 4.114 4.32-14.648 15.777-20.727-.79-11.622 12.768-10.714-8.947-13.322 7.44-18.056-8.757-19.513-18.19 3.101-17.473 16.05-20.595 10.57-1.151 7.725-12.744 15.266 2.801z" id="125418"/>
    <path d="M463.685 788.244l13.497 31.192-4.923 24.213 12.694 4.711-34.028 18.85.085 21.57-15.856-4.06-.482-16.95-36.288-19.855 14.604-15.112-11.584-5.26 16.238-14.26 21.544-24.279 3.73-7.184 6.964 14.117 13.805-7.693z" id="127019"/>
    <path d="M419.18 486.272l-5.533 4.813 19.453 38.49-7.26 20.13 7.54 5.28-12.812 10.898-13.105-13.237-8.935 9.823-15.12-6.008-11.22-4.417-.53-12.385-17.653-25.083-3.785-12.893 14.657-3.473 8.555-18.8 42.482-10.356 3.267 17.219z" id="125347"/>
    <path d="M575.836 330.423l14.15 30.736-5.46 20.645 3.29 9.257 10.992 34.371-3.436 8.346-25.797 7.732-8.135 8.625-7.884-5.872-23.11 9.302-29.096.416-6.371-21.079 7.48-23.488-18.854-11.473-14.896-10.222 9.177-16.844-5.472-14.028 2.739-22.162-5.66-9.57-12.075-4.162 3.814-15.594-12.407-11.616 2.52-2.344 41.345-.005 8.63-2.362 12.935-17.373 13.62.161 2.584-.664 3.606 20.53 24.857 9.452 16.914 29.285z" id="128711"/>
    <path d="M494.979 432.902L446.66 462.01l-27.48 24.263-3.267-17.218 11.835-3.91-1.052-46.399 4.158-16.67 33.518-.85 19.232-3.284 18.854 11.473-7.48 23.488z" id="128436"/>
    <path d="M501.35 453.981l3.135 11.739-23.717 8.583 10.117 23.588 8.876 12.473-3.276 39.905-7.436-.298.68-22.28-26.794 7.997-5.033 17.123-24.522 2.175-7.54-5.28 7.26-20.131-19.453-38.49 5.534-4.813 27.48-24.263 48.318-29.107 6.37 21.08z" id="129656"/>
    <path d="M608.416 1280.888l-3.93-11.985 12.472-15.13-12.764-11.701 10.881-8.493-2.982-11.752 33.712-14.207 37.507-9.953-5.24 19.703 7.728 13.62-42.085 11.169-8.418 10.535 2.176 13.933-9.752 9.067-14.603-3.588-4.702 8.782z" id="127126"/>
    <path d="M519.51 517.133l2.522 55.635-3.258 2.907-9.944 6.635-3.5 38.654 28.693 5.837-13.68 18.712-5.387 18.455-9.902-4.93-2.452-26.8-17.567 4.37-39.28 1.504-5.609-2.835-10.977 15.882-4.425-9.547 8.816-9.848-15.978-5.428 5.997-13.896 10.49-17.756-24.292-17.132 10.791-11.67 12.812-10.896 24.522-2.175 5.033-17.123 26.795-7.998-.681 22.281 7.436.298 3.276-39.905 9.915 10.702 9.835-3.933z" id="125999"/>
    <path d="M575.937 626.124l-.854 21.952-34.515-.139-20.226-2.424 13.68-18.712-28.692-5.837 3.5-38.654 9.944-6.635 55.716-21.045 4.887 12.994-20.4 11.603 9.127 5.581 3.801 40.924 4.032.392z" id="128659"/>
    <path d="M89.858 482.452l4.447 5.363-17.338 9.145-20.056-9.017-14.884-13.296-5.322-16.774L19.66 441.57l-5.108-10.01 26.564-20.512 9.431-3.579 15.796 9.185-1.628 13.638 19.648 31.365 5.495 20.796z" id="126674"/>
    <path d="M157.41 452.984l-.203 9.348-14.21 4.19-13.409 12.563-24.543-3.498-15.187 6.865-5.495-20.796-19.648-31.365 1.628-13.638-15.796-9.185-9.431 3.579 7.325-8.3 8.008 3.56 32.087-7.414 27.836 9.387 10.873 7.543 18.139 31.097 12.027 6.064z" id="127288"/>
  </g>
</svg>
