<svg xmlns="http://www.w3.org/2000/svg" version="1.2" baseProfile="tiny" stroke-linecap="round" stroke-linejoin="round" viewBox="0 0 800 800">
  <g id="PH" fill="none" stroke="#aaa">
    <path d="M477.139 705.334l-1.859 8.178-23.17 13.83-18.073 17.224-9.778-15.855-7.779 1.606-16.057-15.746.277-18.184 18.424-5.822L439 693.484l18.46 7.486 13.823-1.912 5.857 6.276z" data-name="Gorgota" class="comuna" id="133508"/>
    <path d="M494.665 691.893l3.403 2.543-2.066 22.239 39.832 4.582 4.345-2.79 19.34 20.587-.686 10.557-5.047 3.978-20.52-10.613-30.931.82-14.949-8.926-6.922 4.686-7.04 4.017-13.68-4.204-7.635-12.027 23.171-13.83 1.859-8.178 17.526-13.44z" data-name="Balta Doamnei" class="comuna" id="132226"/>
    <path d="M517.896 687.14l17.52 9.915 13.677.699 6.622 12.07-15.536 8.644-4.345 2.789-39.832-4.582 2.066-22.24 19.828-7.295z" data-name="Olari" class="comuna" id="136250"/>
    <path d="M606.342 702.013l-16.529 21.391-19.294.285-1.097 12.484-9.903 2.881-19.34-20.586 15.536-8.644-6.622-12.07-13.677-.7-17.52-9.914 13.36-4.29 16.435 5.688 10.814-7.645 13.437 5.175 21.943-4.485 12.457 20.43z" data-name="Gherghița" class="comuna" id="133429"/>
    <path d="M373.634 663.975l2.506 12.066-4.95 12.125 4.741 14.728 11.284-4.862 4.06 13.372-25.385 7.412 2.225 10.071-9.765 7.6 1.234 8.876-4.562 9.88-13.519-13.426-11.32-9.276-17.087-36.062-11.077-8.86 14.268-10.767 8.407 6.892 17.02-17.4 31.92-2.37z" data-name="Șirna" class="comuna" id="135431"/>
    <path d="M393.816 660.637l5.344 21.877 19.964 8.05-18.424 5.823-.277 18.184-9.149-3.167-4.059-13.372-11.284 4.862-4.741-14.728 4.95-12.125-2.506-12.066 6.437-13.217 13.745 9.88z" data-name="Tinosu" class="comuna" id="135850"/>
    <path d="M494.665 691.893l-17.526 13.441-5.857-6.276-13.822 1.912-18.461-7.486-19.875-2.92-19.964-8.05-5.344-21.877 22.255-5.32 2.917-8.88 20.078 5.383 10.717-2.407 6.135-11.373 24.475 10.64 9.73 9.94-5.03 20.258 9.572 13.015z" data-name="Puchenii Mari" class="comuna" id="134942"/>
    <path d="M783.455 643.107l-40.729 21.454 5.884 5.301-17.651 24.249-9.472 5.763-28.157-18.907 17.364-21.846-2.934-9.436 23.1-29.496 8.753 4.023 12.585 18.635 23.762-7.715 7.495 7.975z" data-name="Sălciile" class="comuna" id="135146"/>
    <path d="M335.658 646.12l6.055 20.224-17.019 17.4-8.407-6.892-14.268 10.767-10.619-21.35-.176-11.696-11.795-14.882 4.01-15.12 11.442-5.788 7.446 10.09-4.784 12.312 24.901 6.437 13.214-1.502z" data-name="Cocorastii Colt" class="comuna" id="136241"/>
    <path d="M730.86 620.19l-23.1 29.495 2.934 9.436-17.364 21.846-40.014 43.892-13.922 5.21-12.189-10.035-.986-9.81 7.078-14.431-14.512-8.205 19.435-30.077 12.795-25.568-4.625-9.54 12.36-6.7 12.022 21.145 26.729-15.998 4.542 10.04 21.14-18.816 7.677 8.115z" data-name="Ciorani" class="comuna" id="132681"/>
    <path d="M484.096 598.416l6.36 9.691-8.782 13.961 10.139 31.525 12.855-4.034 21.396-13.394 9.742 4.926-1.133 11.775-10.403 11.196 5.433 16.281 1.553 2.507-13.36 4.29-19.828 7.296-3.403-2.543-9.571-13.015 5.029-20.258-9.73-9.94-24.475-10.64 1.791-16.698-8.459-8.796 12.606 1.051 12.278-12.566 9.962-2.615z" data-name="Rîfov" class="comuna" id="135020"/>
    <path d="M622.883 607.457l23.507 14.946 4.625 9.54-12.795 25.568-19.435 30.077 14.512 8.205-7.078 14.431-19.877-8.21-12.457-20.43-21.943 4.484-13.437-5.175-10.814 7.645-16.435-5.688-1.553-2.507 22.784-16.892 10.676-2.804-4.105-13.287 8.673-12.913 2.565-13.099 14.36-3.068 15.313-18.87 12.097-2.064 10.817 10.11z" data-name="Drăgănești" class="comuna" id="133018"/>
    <path d="M372.854 603.382l7.644 8.7 18.53 3.504 4.39 10.484 15.57 20.366-2.917 8.881-22.255 5.32-13.745-9.88-6.437 13.218-31.92 2.369-6.056-20.224 2.001-10.215 29.322-39.615 5.873 7.092z" data-name="Brazi" class="comuna" id="130712"/>
    <path d="M594.236 595.482l5.733 3.927-15.314 18.87-14.359 3.07-2.565 13.098-8.673 12.913 4.105 13.287-10.676 2.804-22.784 16.892-5.433-16.281 10.404-11.196 1.132-11.775-9.742-4.926-21.396 13.394-12.855 4.034-10.139-31.525 8.782-13.96.29-7.064 15.259-8.164 7.605 11.386 8.23-6.157 8.513 8.965 24.06-17.565 5.12 14.974 25.543-1.652 9.16-7.35z" data-name="Dumbrava" class="comuna" id="133090"/>
    <path d="M421.446 591.91l11.249-.144 16.555 20.78 8.46 8.796-1.792 16.698-6.135 11.373-10.717 2.407-20.078-5.384-15.57-20.366-4.39-10.485-18.53-3.502-7.644-8.701 15.634-6.997 13.214.932 19.744-5.407z" data-name="Bărcănești" class="comuna" id="130552"/>
    <path d="M282.773 610.587l12.108 8.196-11.442 5.788-4.01 15.12 11.795 14.882.176 11.695-18.16 15.763-.777 5.85-44.333-13.748-2.267-12.43 18.851-14.472.313-14.668 7.794-6.864-3.797-13.925 11.214-8.085-3.188-15.633-.085-.169 7.46-1.754 18.348 24.453z" data-name="Mănești" class="comuna" id="134194"/>
    <path d="M783.455 643.107l-7.495-7.975-23.762 7.715-12.585-18.635-8.753-4.023-7.678-8.115-9.03-5.245 34.562-22.852 8.136-5.584 8.722 6.37 17.155 25.417L799 619.698l-1.63 14.704-13.915 8.705z" data-name="Boldești-Gradiștea" class="comuna" id="132379"/>
    <path d="M366.98 596.29l-29.321 39.615-2 10.215-13.215 1.502-24.9-6.437 4.783-12.312-7.446-10.09-12.108-8.197 38.06-18.484-12.814-12.24 16.837-3.791 33.354-6.829 13.322 14.814-4.551 12.234z" data-name="Tîrgșoru Vechi" class="comuna" id="130892"/>
    <path d="M457.196 549.222l17.967 20.312.813 11.523 8.12 17.36-9.962 2.614-12.278 12.567-12.606-1.052-16.555-20.78-11.249.144 12.696-7.78-10.88-12.568 26.562-12.402-7.22-15.792 14.592 5.854z" data-name="Berceni" class="comuna" id="130614"/>
    <path d="M744.275 557.518l4.44 26.459-34.564 22.852 9.032 5.245-21.14 18.816-4.542-10.04-26.729 15.998-12.022-21.145-12.36 6.7-23.507-14.947 34.91-21.396 6.65 13.164L678.2 576.56l-4.285-14.416 57.13-13.281 5.168-8.333 13.374 6.98-5.312 10.008z" data-name="Fulga" class="comuna" id="133394"/>
    <path d="M567.58 534.966l3.776 11.729-22.694 8.726 45.574 40.06-9.16 7.35-25.544 1.652-5.119-14.974-24.06 17.565-8.513-8.965-21.308-33.227 2.215-15.532 9.84 1.42 12.74-6.192 4.526-11.529 6.008 7.343 12.371 1.156 19.349-6.582z" data-name="Albești-Paleologu" class="comuna" id="131933"/>
    <path d="M658.162 510.992l3.327 12.136-19.395 13.06.658 12.856 21.258-8.34 9.905 21.44 4.285 14.416-13.757 22.664-6.65-13.164-34.91 21.397-10.817-10.111-3.613-16.256 3.283-8.146-12.014-38.142 26.752-11.066 20.21-8.29 11.478-4.454z" data-name="Colceag" class="comuna" id="132752"/>
    <path d="M626.474 523.736l-26.752 11.066 12.014 38.142-3.283 8.146 3.613 16.256-12.097 2.063-5.733-3.927-45.574-40.061 22.694-8.726-3.775-11.73-.77-21.415 20.949-7.108 4.39 20.073 32.848-10.988 1.476 8.21z" data-name="Tomșani" class="comuna" id="135896"/>
    <path d="M239.205 504.62l9.885 25.14 4.195 28.787 8.393 10.448 2.747 17.138-7.46 1.754-12.84-7.182-7.667-22.772-15.117-2.097-40.699 5.764-15.167-9.458 20.497-10.395 21.083.208 1.47-9.298 15.389.36-4.773-16.995 12.094-11.23 7.97-.173z" data-name="Filipeștii de Tîrg" class="comuna" id="133214"/>
    <path d="M529.853 533.05l-4.527 11.528-12.739 6.192-9.84-1.42-2.215 15.532 21.308 33.227-8.23 6.157-7.605-11.386-15.258 8.164-.291 7.063-6.36-9.69-8.12-17.36-.813-11.523-17.967-20.312 9.774-15.413 11.205-3.673-4.325-11.508 3.13-10.272 35.85.43 5.058-9.982-3.103 12.477 10.515 5.983 4.553 15.785z" data-name="Valea Călugărească" class="comuna" id="135949"/>
    <path d="M285.54 505.2l18.048 14.263 49.376 38.497-29.172 5.689 1.064 12.422-16.837 3.791 12.814 12.24-38.06 18.485-18.348-24.454-2.747-17.138-8.393-10.448-4.195-28.787-9.885-25.14 8.469 10.524 37.866-9.945z" data-name="Ariceștii Rahtivani" class="comuna" id="132075"/>
    <path d="M445.109 479.077l3.489 16.14 12.071-3.126 16.31 16.265-3.13 10.272 4.326 11.508-11.205 3.673-9.774 15.413-14.592-5.854-21.056-6.657-18.379-6.059-11.868-23.516 19.948-5.5 17.605-23.383 16.255.824z" data-name="Bucov" class="comuna" id="130785"/>
    <path d="M208.412 487.889l5.405 17.043 17.418-.14-12.094 11.23 4.773 16.995-15.39-.36-1.469 9.298-21.083-.208-20.498 10.395-1.952-1.678-4.881-10.413 3.48-14.256-5.797-29.813 7.658-19.055 11.6-5.187 12.768 5.265 8.602 11.282 11.46-.398z" data-name="Filipeștii de Pădure" class="comuna" id="133161"/>
    <path d="M587.76 506.442l-20.95 7.108.77 21.416-19.348 6.582-12.37-1.156-6.01-7.343-4.552-15.785-10.515-5.983 3.103-12.477 6.295-18.83 9.334-2.175 13.52 9.608 26.921-21.47 10.22 2.247 6.043 19.769-2.461 18.489z" data-name="Urlați" class="oras" id="131620"/>
    <path d="M374.348 471.25l7.373 23.097-6.816 20.79-19.027 19.857-2.894 22.779-.02.187-49.376-38.497 9.538-3.511 19.756-32.395 4.793-13.214 13.025-.55 4.004-8.676 15.084-5.329 4.56 15.462z" data-name="Păulești" class="comuna" id="130847"/>
    <path d="M240.58 450.663l14.953 23.548-1.06 6.281L285.54 505.2l-37.866 9.945-8.47-10.525-7.969.173-17.418.14-5.405-17.043 16.267-3.048 2.826-12.698-3.44-14.77 16.472-6.75.043.04z" data-name="Florești" class="comuna" id="133330"/>
    <path d="M347.958 432.422l21.414 19.121.416 4.245-15.084 5.33-4.004 8.675-13.025.55-.227-21.06 10.51-16.86z" data-name="Plopeni" class="oras" id="131443"/>
    <path d="M664.228 502.701l1.864 5.638-7.93 2.653-11.478 4.454-22.626-19.672-3.13-22.192-12.63-34.166 10.594 6.103 24.181 38.86 21.155 18.322z" data-name="Fântânele" class="comuna" id="133278"/>
    <path d="M524.183 479.973l-6.295 18.831-5.058 9.983-35.85-.431-16.31-16.265-12.072 3.125-3.49-16.139-2.238-18.65 12.072-8.865 14.532 3.594 3.099-18.726 8.757-3.298.64-.227 10.095 19.264 1.833 21.363 17.995-2.32 12.29 8.761z" data-name="Plopu" class="comuna" id="134390"/>
    <path d="M607.229 431.711l-.235 5.113 1.305 2.592 12.629 34.166 3.13 22.192 22.626 19.673-20.21 8.29-1.476-8.21-32.849 10.988-4.39-20.073 2.462-18.49-6.043-19.768-10.22-2.247-6.539-21.624 18.81-5.387 3.533-7.253 17.467.038z" data-name="Ceptura" class="comuna" id="132510"/>
    <path d="M294.097 443.473l40.219 1.974 3.132 3.836.227 21.06-4.793 13.214-19.756 32.395-9.538 3.511L285.54 505.2l-31.067-24.707 1.06-6.281-14.953-23.548 16.944-8.991L246 423.805l10.023-.009 12.227 13.994 25.847 5.683z" data-name="Băicoi" class="oras" id="130981"/>
    <path d="M681.913 425.057l13.634 5.197 10.396 29.526 3.192 11.27-.181 6.261-16.102 9.64-8.824-15.29-7.818 11.741-12.851-8.387-12.573-11.778-3.472-10.475 5.127-13.854 4.557-12.339.814-6.42 24.101 4.908z" data-name="Gura Vadului" class="comuna" id="133688"/>
    <path d="M567.419 444.313l6.54 21.624-26.921 21.47-13.52-9.608-9.335 2.174-12.29-8.761-17.995 2.32-1.833-21.363-10.095-19.264 19.862-5.933 10.778-11.245 16.177 4.173 7.857-10.88.704 14.918 7.706 11.367 22.365 9.008z" data-name="Iordăcheanu" class="comuna" id="133722"/>
    <path d="M563.9 392.752l-1.61 5.754 25.698 6.102 12.91 13.941-11.136 13.124-3.533 7.253-18.81 5.387-22.365-9.008-7.706-11.368-.704-14.917 3.084-8.61 24.173-7.659z" data-name="Gornet-Cricov" class="comuna" id="133615"/>
    <path d="M646.47 394.32l-.74 6.457 11.268 25.792-4.557 12.339-18.189-4.693-27.258 2.61.235-5.114-.941-7.887 14.827-6.964 4.95-9.62-.859-18.999 13.537 14.555 7.727-8.476z" data-name="Călugăreni" class="comuna" id="132459"/>
    <path d="M244.669 421.834l1.33 1.971 11.525 17.867-16.944 8.991-.043-.04-9.447-14.979-12.647-2.99-9.84-11.044-1.417-13.97 7.17-23.603 11.19 6.793 19.123 31.004z" data-name="Bănești" class="comuna" id="132315"/>
    <path d="M310.42 383.896l22.325 10.314 11.179 15.49 11.335 3.36 4.112 5.799-11.413 13.563-10.51 16.861-3.132-3.836-40.22-1.974-1.206-11.933 15.063.01-9.117-13.937.897-11.642-7.488-14.36 18.176-7.715z" data-name="Cocorăștii Mislii" class="comuna" id="132716"/>
    <path d="M625.207 388.241l.859 19-4.95 9.62-14.828 6.963.94 7.887-17.466-.038 11.136-13.124-12.91-13.941-25.697-6.102 1.61-5.754 17.437-.228 8.986-13.379 22.517 10.406 12.365-1.31z" data-name="Tătaru" class="comuna" id="135681"/>
    <path d="M483.55 384.428l-5.585 32.814 3.365 15.89-8.757 3.298-3.099 18.726-14.532-3.594-29.423-1.938 8.238-9.013-7.623-16.643 11.216-5.71 2.77-12.683 12.04-1.163-6.759-27.169 14.514-2.88 6.622 12.376 17.013-2.311z" data-name="Bălțești" class="comuna" id="132271"/>
    <path d="M685.299 376.177l4.772 33.071-8.158 15.809-24.101-4.907-.814 6.42-11.268-25.793.74-6.457 2.461-21.46 9.7-4.214 26.917-3.883-.25 11.414z" data-name="Jugureni" class="comuna" id="133866"/>
    <path d="M303.098 358.548l-.47 10.328 7.793 15.02-18.176 7.715 7.488 14.36-.897 11.642 9.117 13.936-15.063-.009 1.207 11.933-25.847-5.683-12.227-13.994-10.023.01-1.331-1.972 26.755-46.728 10.413 6.377 7.694-11.842-6.283-10.017 19.85-1.077z" data-name="Scorțeni" class="comuna" id="135164"/>
    <path d="M535.035 354.413l3.73 15.496.963 30.5-3.084 8.611-7.857 10.88-16.178-4.173-10.777 11.245-19.862 5.933-.64.227-3.365-15.89 5.585-32.814 14.28-5.833 18.205-6.274 19-17.908z" data-name="Podenii Noi" class="comuna" id="134443"/>
    <path d="M581.822 363.162l-.419 10.516 8.92 5.467-8.985 13.38-17.437.227-24.173 7.658-.963-30.5-3.73-15.497.78-2.112 7.64 13.735 18.123-7.204 20.244 4.33z" data-name="Apostolache" class="comuna" id="132011"/>
    <path d="M357.152 385.195l-7.215 14.572 5.322 13.293-11.335-3.36-11.18-15.49-22.323-10.314-7.794-15.02.471-10.328 18.84 1.41 5.882-10.312 11.742-4.932 13.206 8.625 6.7 19.476-2.316 12.38z" data-name="Vîlcănești" class="comuna" id="136198"/>
    <path d="M117.307 344.818l12.371 5.85 2.659 8.019 19.528 15.017-12.957 3.41-4.027 17.216-15.125 4.104-20.67-31.616 2.983-5.24 2.083-12.654 13.155-4.106z" data-name="Provița de Sus" class="comuna" id="134899"/>
    <path d="M447.26 343.154l2.024 15.659-3.882 18.43 6.757 27.169-12.039 1.163-18.093-1.036.446-12.62-10.821-18.853 1.623-8.82 22.017-11.635 11.967-9.457z" data-name="Gornet" class="comuna" id="133562"/>
    <path d="M486.707 339.669l11.11 11.623.014 27.303-14.281 5.833-17.013 2.31-6.622-12.376-14.514 2.881 3.883-18.43-2.025-15.66 20.149-9.45 19.3 5.966z" data-name="Păcureți" class="comuna" id="134336"/>
    <path d="M261.576 335.835l4.002 16.207 17.67 7.582 6.283 10.017-7.694 11.842-10.413-6.377-26.755 46.728-19.123-31.004-11.19-6.793 5.294-20.746 12.941-4.398 3.975-13.413 15.261-11.09 9.749 1.445z" data-name="Telega" class="comuna" id="135789"/>
    <path d="M210.303 333.596l8.569 14.43.778 15.265-5.294 20.746-7.17 23.602-18.242-19.714-8.621-16.802 12.533-11.527-3.377-21.452 12.594-6.868 8.23 2.32z" data-name="Câmpina" class="municipiu" id="131256"/>
    <path d="M664.71 329.123l-8.711 4.727-7.912 13.15-12.822 4.197 13.666 21.663-2.461 21.46-7.727 8.476-13.537-14.555-12.365 1.31-22.517-10.406-8.92-5.467.418-10.516 7.851-16.237 6.565-5.635 22.19-.975 15.803 5.619 14.38-19.836 16.099 3.025z" data-name="Sîngeru" class="comuna" id="135244"/>
    <path d="M307.4 321.743l12.314 8.982 8.106 18.92-5.881 10.313-18.84-1.41-19.85 1.076-17.67-7.582-4.003-16.207 2.714-6.28 32.252-8.514 10.859.702z" data-name="Cosminele" class="comuna" id="132841"/>
    <path d="M428.344 336.649l6.948 15.962-22.017 11.634-1.623 8.821-14.921 5.537 2.441 26.443-14.799-3.281-2.969-21.405-2.182-15.214 3.113-19.565-3.073-19.841-9.282-6.947 13-11.255 5.16 6.337 4.684 22.35 23.263 2.655 12.257-2.231z" data-name="Gura Vitioarei" class="comuna" id="131835"/>
    <path d="M685.299 376.177l.25-11.414-26.919 3.883-9.699 4.214-13.667-21.663 12.823-4.196 7.912-13.15 8.71-4.728 15.68-14.246 11.098-8.459.606 29.827 6.726 25.023-13.52 14.909z" data-name="Lapoș" class="comuna" id="133919"/>
    <path d="M326.726 306.602l6.03 10.157 22.237-7.742 14.987 9.776 9.282 6.947 3.073 19.84-3.113 19.566 2.182 15.214-15.417 8.883-8.835-4.048 2.315-12.38-6.699-19.476-13.206-8.625-11.742 4.932-8.106-18.921-12.313-8.982 3.888-11.088 15.437-4.053z" data-name="Vărbilău" class="comuna" id="136134"/>
    <path d="M100.645 306.769l15.772 11.096-2.96 13.074 3.85 13.88-13.155 4.105-2.083 12.653-15.527-14.32-7.12-7.563-5.02-19.88 2.684-17.046 23.56 4z" data-name="Adunați" class="comuna" id="131899"/>
    <path d="M505.623 299.56l14.138 7.774-1.465 6.098-20.366 12.291-11.223 13.946-19.3-5.966 5.986-23.056-3.035-6.533 35.265-4.555z" data-name="Surani" class="comuna" id="135404"/>
    <path d="M583.72 304.43l-5.023 17.876 10.976 24.62-7.851 16.236-20.244-4.33-18.123 7.204-7.64-13.735 14.692-23.312-3.286-19.982.34-1.4 3.993-8.87 20.617.672 11.55 5.02z" data-name="Chiojdeanca" class="comuna" id="132645"/>
    <path d="M547.22 309.007l3.287 19.982-14.692 23.312-.78 2.112-19 17.908-18.204 6.274-.014-27.303-11.11-11.623 11.223-13.945 20.366-12.292 1.465-6.098 15.397-12.193 12.063 13.866z" data-name="Șoimari" class="comuna" id="135501"/>
    <path d="M431.411 302.338l6.219 17.802-9.286 16.509-12.257 2.231-23.263-2.656-4.683-22.349-5.16-6.337 25.68-13.716-.194 6.801 22.944 1.715z" data-name="Vălenii de Munte" class="oras" id="131817"/>
    <path d="M618.427 340.315l-22.19.975-6.564 5.635-10.976-24.619 5.024-17.877 19.245-15.038 17.427 3.601-7.154 17.237 5.188 30.086z" data-name="Salcia" class="comuna" id="135128"/>
    <path d="M461.359 285.625l8.999 18.49 3.034 6.532-5.984 23.056-20.149 9.45-11.967 9.458-6.948-15.962 9.286-16.51-6.219-17.801 29.948-16.713z" data-name="Predeal-Sărari" class="comuna" id="134755"/>
    <path d="M310.955 287.92l.334 22.735-3.888 11.088-10.86-.702-32.251 8.514-2.995-12.76-10.154.994-.276-25.743 7.492-12.853 24.377 14.012 11.952 1.66 16.269-6.944z" data-name="Aluniș" class="comuna" id="131988"/>
    <path d="M193.04 263.697l2.915 3.243-4.37 9.002 18.718 57.654-8.23-2.32-12.594 6.868-14.464-19.872-8.456-3.857-7.47-15.48-2.194-18.407 16.655-14.292 19.49-2.538z" data-name="Șotrile" class="comuna" id="135547"/>
    <path d="M478.52 262.016l19.067 7.137 8.566 11.795-.53 18.611-35.265 4.555-8.999-18.489-.35-20.947 17.512-2.662z" data-name="Ariceștii Zeletin" class="comuna" id="132137"/>
    <path d="M104.88 285.517l2.63 11.057-6.865 10.195-23.56-4-2.683 17.044-15.374 4.325 3.06-15.003-4.07-12.191-14.676-5.016 10.768-16.104 8.457-21.305 9.435 18.646 19.07 9.95 13.808 2.402z" data-name="Talea" class="comuna" id="135654"/>
    <path d="M530.738 261.798l13.21 24.033 3.613 21.777-.34 1.4-12.063-13.867-15.397 12.193-14.138-7.775.53-18.61-8.566-11.796-19.066-7.137 7.859-6.556 13.714 7.419 30.644-1.081z" data-name="Cărbunești" class="comuna" id="132486"/>
    <path d="M226.981 259.958l-2.255 7.025 10.539 10.262 23.092 1.948-7.492 12.853.276 25.743 10.154-.995 2.995 12.76-2.714 6.281-9.749-1.446-15.261 11.09-3.975 13.414-12.941 4.398-.778-15.266-8.57-14.428-18.718-57.655 4.371-9.002 1.167-6.818 18.12-7.305 11.739 7.14z" data-name="Brebu" class="comuna" id="132404"/>
    <path d="M402.284 262.288l6.377 31.534-25.68 13.716-13 11.255-14.988-9.776 7.314-3.837-3.305-15.028 1.655-20.667-3.005-13.015 38.039 7.581 6.594-1.763z" data-name="Teișani" class="comuna" id="135725"/>
    <path d="M357.652 256.47l3.005 13.015-1.655 20.667 3.305 15.028-7.314 3.837-22.237 7.742-6.03-10.157-6.796-14.54 1.909-19.844-2.683-19.51-13.63-5.91 2.786-18.06 10.34.581 27.832 10.1 11.168 17.05z" data-name="Slănic" class="oras" id="131577"/>
    <path d="M430.083 198.827l.447 25.32 12.636 14.335 14.003-.26 3.84 26.456.35 20.947-29.948 16.713-22.944-1.715.195-6.8-6.377-31.535 3.91-12.096-9.728-18.49 2.125-11.821 31.491-21.054z" data-name="Drajna" class="comuna" id="132896"/>
    <path d="M173.55 266.236l-16.655 14.292-11.897 4.283-8.448 10.858-11.84-8.508-19.83-1.644-13.809-2.403-19.069-9.95-9.435-18.645 9.229-10.401-13.609-26.138 14.404-2.231 13.727-10.496 25.972-11.777 10.416 14.77 15.567 3.318 13.94 40.95 6.834.584 14.503 13.138z" data-name="Comarnic" class="oras" id="131336"/>
    <path d="M431.488 183.98l1.782 9.704 46.885 22.782 14.613-8.695 7.923 2.194 4.866 15.98 6.88 10.146 9.715-3.906 8.624 16.045-2.038 13.568-30.644 1.081-13.714-7.419-7.86 6.556-17.51 2.662-3.841-26.457-14.003.261-12.636-14.336-.447-25.32 1.405-14.846z" data-name="Posești" class="comuna" id="134648"/>
    <path d="M310.955 287.92l-16.27 6.945-11.95-1.66-24.378-14.012-23.092-1.948-10.54-10.262 2.256-7.025 9.605-21.239 3.874-17.747-1.696-16.785-11.419-13.694 4.888-10.41 19.488 25.636 7.702 24.466 18.699 15.38 12.414 5.588 20.419 36.768z" data-name="Bertea" class="comuna" id="132342"/>
    <path d="M308.313 228.739l-2.788 18.058 13.63 5.911 2.684 19.51-1.909 19.844 6.796 14.54-15.437 4.053-.334-22.734-20.42-36.768-12.413-5.587-18.699-15.381-7.702-24.466-19.488-25.635 14.353 1.794 9.084-4.73 6.615 4.12 11.249 25.066 22.16 7.662 12.618 14.743z" data-name="Ștefești" class="comuna" id="135618"/>
    <path d="M395.344 218.285l3.248 1.596-2.125 11.82 9.728 18.492-3.91 12.095-6.594 1.763-38.04-7.581-11.167-17.052-27.831-10.099-10.34-.58-12.62-14.743-22.16-7.662-11.248-25.067-6.615-4.118 15.906-35.081 13.748 17.621 2.502 8.75 11.632 9.084 10.376-2.192 12.234 10.21-2.078 11.505 16.167 4.863 14.125 13.357 38.558 14.252 6.504-11.233z" data-name="Izvoarele" class="comuna" id="133795"/>
    <path d="M193.04 263.697l-19.49 2.54-14.503-13.14-6.833-.584-13.941-40.949-15.567-3.318-10.416-14.77 3.66-10.755-2.363-20.815 6.85-9.229-1.938-15.76 13.834 11.048 3.084 14.551 8.991 16.08 1.088 11.322 13.299 21.12 12.465 3.527 9.102 21.77 1.14 13.402 11.537 13.96z" data-name="Secăria" class="comuna" id="135226"/>
    <path d="M115.326 132.633l3.173 4.284 1.938 15.76-6.85 9.229 2.362 20.815-3.66 10.755-25.97 11.777-13.728 10.496-14.403 2.231-21.942-19.483-10.686 3.326-9.217-12.66-4.455-18.04 4.043-10.475-2.234-13.187 6.976-12.968 14.358 9.917 12.5-2.108 10.112 7.293 26.099-19.288 31.584 2.326z" data-name="Sinaia" class="oras" id="131540"/>
    <path d="M494.768 207.77l-14.613 8.696-46.885-22.782-1.782-9.704 1.398-11.268-3.53-35.068-7.728-13.88 17.42-7.513-5.082-17.88 3.976-17.97 8.482 3.594 2.309 18.07 8.947 6.552-11.315 24.592 26.262 47.081 16.179 16.535 5.962 10.946z" data-name="Bătrâni" class="comuna" id="136278"/>
    <path d="M283.799 94.702l-1.96 18.591-6.64 10.087-3.623 18.688-15.906 35.08-9.084 4.73-14.353-1.794-4.888 10.409 11.419 13.694 1.696 16.785-3.874 17.747-9.605 21.239-11.74-7.14-18.119 7.304-1.167 6.818-2.916-3.243-11.536-13.96-1.141-13.402-9.102-21.77-12.465-3.527-13.3-21.12-1.087-11.323-8.991-16.079-3.084-14.55-13.834-11.05-3.173-4.283 2.39-7.963-6.666-22.307 17.809-1.784 16.593 5.408 10.578-2.587 4.597-13.618-3.268-26.518 19.799-18.301 10.296 9.77 26.698-.42 8.455-11.611 7.972-1.173 12.056 9.234 15.143 38.066 26.02 5.873z" data-name="Valea Doftanei" class="comuna" id="136107"/>
    <path d="M177.158 44.963l-19.8 18.301 3.27 26.518-4.598 13.618-10.578 2.587-16.593-5.407-17.809 1.783-9.18 6.946-14.02-7.427-12.32-.755-15.893-18.955L54.8 61.89l31.05-8.48 17.473 3.957 2.615-12.259 25.077-16.177 25.052-8.005 12.96 9.974 8.13 14.063z" data-name="Azuga" class="oras" id="130954"/>
    <path d="M435.39 32.451l-5.972 42.584 8.524 5.365-3.976 17.971 5.083 17.88-17.421 7.513 7.727 13.88 3.531 35.068-1.398 11.268-1.405 14.847-31.491 21.054-3.248-1.596-4.67-21.451-12.104-23.967 12.074-23.193-1.59-15.697-9.09-20.132-10.81-9.152-6.82-15.02 5.933-16.638 14.397-13.801 9.894-26.865 8.723 7.428 16.495-6.906 4.662-19.886 12.951 19.446z" data-name="Cerașu" class="comuna" id="132574"/>
    <path d="M392.558 32.37l-9.894 26.864-14.397 13.8-5.933 16.638 6.82 15.02 10.81 9.153 9.09 20.132 1.59 15.697-12.074 23.193 12.104 23.967 4.67 21.45-6.504 11.234-38.558-14.252-14.125-13.357-16.167-4.863 2.078-11.506-12.234-10.209-10.376 2.192-11.632-9.084-2.502-8.75-13.748-17.621 3.623-18.688 6.64-10.087 1.96-18.591.801-12.059 13.266-10.078-1.023-20.307 6.589-11.057-4.408-9.376 11.236-12.803L317.98 1l12.63 6.638 29.046.615 17.38 3.73 5.445 16.713 10.077 3.673z" data-name="Măneciu" class="comuna" id="134096"/>
    <path d="M355.022 755.243l8.714 11.054-1.343 16.876-11.537 3.097-14.218 12.265-4.818-13.595-10.508-12.96 8.1-19.774 12.091-10.39 13.519 13.427zm36.252-43.84l9.15 3.168 16.056 15.746 7.779-1.606 9.778 15.855-8.235 6.593-15.832-.319-11.188-1.326-16.514 9.31-6.305-7.901-17.135 5.64.756-11.2-1.234-8.877 9.765-7.599-2.226-10.071 25.385-7.412z" data-name="Poienarii Burchii" class="comuna" id="134559"/>
    <path d="M54.8 61.89l4.837 20.282 15.894 18.955 12.319.755 14.02 7.427 9.18-6.946 6.666 22.307-2.39 7.963-31.584-2.326-26.1 19.288-10.11-7.293-12.501 2.108-14.358-9.917 2.298-10.468-10.146-19.199 1.357-11.317L1 79.363l1.567-5.616 4.608-6.581L41.126 51.14 54.8 61.89z" data-name="Bușteni" class="oras" id="131210"/>
    <path d="M744.275 557.518l5.312-10.008-13.374-6.98-5.168 8.333-57.13 13.28-9.905-21.44-21.258 8.341-.658-12.856 19.395-13.06-3.327-12.136 7.93-2.653 17.775-3.17 6.563 11.724 12.045-11.438 21.023-7.501 5.312-13.026 13.368-2.195 3.666 11.406 14.02 3.209 15.84 26.662 10.82 7.06 5.063 7.81-47.312 18.638z" data-name="Baba Ana" class="comuna" id="132164"/>
    <path d="M652.44 438.908l-5.126 13.854 3.472 10.475 12.573 11.778.87 27.686-21.156-18.323-24.181-38.86-10.593-6.102-1.305-2.592 27.258-2.609 18.189 4.693z" data-name="Vadu Săpat" class="comuna" id="136269"/>
    <path d="M421.548 536.71l21.056 6.658 7.22 15.792-26.561 12.402 10.879 12.569-12.696 7.78-19.745 5.406-13.213-.932-15.634 6.997-5.873-7.092 4.55-12.234-13.321-14.814-33.354 6.829-1.064-12.422 29.172-5.69.02-.186 10.528 3.802 6.47-17.317 11.858-9.625 12.346-.666 8.163 13.058 19.2-10.314z" data-name="Ploiești" class="municipiu resedinta" id="130534"/>
    <path d="M411.652 373.066l10.821 18.852-.446 12.621 18.093 1.036-2.77 12.683-11.216 5.71 7.623 16.643-22.322-7.286-28.796-2.525-4.065-3.131 20.598-22.623-2.441-26.443 14.92-5.537z" data-name="Măgurele" class="comuna" id="134014"/>
    <path d="M425.519 449.624l29.423 1.938-12.072 8.864 2.239 18.651-16.255-.824-17.605 23.382-19.949 5.501-9.579-12.789-7.373-23.097 9.739-3.33 11.175 6.572-.595-18.39 6.224-6.91 18.054-3.965 6.574 4.397z" data-name="Boldești-Scăeni" class="oras" id="131069"/>
    <path d="M433.757 440.61l-8.238 9.014-6.574-4.397-18.054 3.965-6.224 6.91.595 18.39-11.175-6.572-9.739 3.33-4.56-15.462-.416-4.245 9.202-23.874 4.065 3.131 28.796 2.525 22.322 7.286z" data-name="Lipănești" class="comuna" id="133964"/>
    <path d="M208.602 421.61l9.841 11.044 12.647 2.99 9.447 14.98-16.472 6.748 3.44 14.771-2.826 12.698-16.267 3.048-11.46.398-8.602-11.282-12.768-5.265-1.82-10.584-9.432-12.154-8.813-21.981 29.062-15.777 5.962 9.506 18.061.86z" data-name="Măgureni" class="comuna" id="134050"/>
    <path d="M159.579 371.192l5.567 5.715 2.164 17.817 13.308 7.851 3.96 8.669-29.061 15.777-14.017-9.717-10.327-.897-11.27-16.058-.147-1.915 15.125-4.104 4.027-17.217 12.957-3.41 7.714-2.51z" data-name="Provița de Jos" class="comuna" id="134853"/>
    <path d="M723.498 497.954l-21.023 7.5-12.045 11.44-6.563-11.726-17.775 3.171-1.864-5.638-.869-27.686 12.851 8.387 7.818-11.742 8.824 15.29 16.102-9.639.18-6.262 7.445 21.368 6.92 5.537z" data-name="Mizil" class="oras" id="131407"/>
    <path d="M507.557 225.945l-4.866-15.98-7.923-2.194-5.962-10.946-16.179-16.535-26.262-47.081 11.315-24.592-8.947-6.551-2.309-18.071-8.481-3.595-8.525-5.365 5.971-42.584 17.712 8.156 21.454 18.571 1.675 13.773-3.508 33.57 13.91 6.632-7.506 23.643 9.262 12.954 13.198 5.756 17.86 29.386 11.575 5.252 3.685 6.173-27.15 29.628z" data-name="Starchiojd" class="comuna" id="135315"/>
    <path d="M391.3 507.136l11.87 23.516 18.378 6.059-19.199 10.314-8.163-13.058-12.346.666-11.858 9.625-6.47 17.317-10.528-3.802 2.894-22.78 19.027-19.856 6.816-20.79 9.58 12.79z" data-name="Blejoi" class="comuna" id="130678"/>
    <path d="M189.48 338.144l3.376 21.452-12.533 11.527-9.819-4.298-7.359-30.296-8.37-12.65 11.784-9.464 8.456 3.857 14.464 19.872z" data-name="Cornu" class="comuna" id="132805"/>
    <path d="M180.323 371.123l8.621 16.802 18.242 19.714 1.416 13.971-18.061-.86-5.962-9.506-3.96-8.669-13.309-7.85-2.164-17.818-5.567-5.714 10.925-4.368 9.819 4.298z" data-name="Poiana Câmpina" class="comuna" id="131274"/>
    <path d="M399.172 405.046l-20.598 22.623-9.202 23.874-21.414-19.12 11.413-13.564-4.112-5.799-5.322-13.293 7.215-14.572 8.835 4.048 15.417-8.883 2.97 21.405 14.798 3.28z" data-name="Dumbrăvești" class="comuna" id="131461"/>
    <path d="M156.895 280.528l2.194 18.408 7.47 15.479-11.784 9.465 8.37 12.649 7.36 30.296-10.926 4.368-7.714 2.51-19.528-15.016-2.659-8.02-12.37-5.849-3.85-13.88 2.96-13.073-15.773-11.096 6.865-10.195-2.63-11.057 19.83 1.644 11.84 8.508 8.448-10.858 11.897-4.283z" data-name="Breaza" class="oras" id="131103"/>
  </g>
</svg>
