<svg xmlns="http://www.w3.org/2000/svg" version="1.2" baseProfile="tiny" stroke-linecap="round" stroke-linejoin="round" viewBox="0 0 800 801">
  <g id="PH" fill="none" stroke="#aaa">
    <path d="M475.925 707.131l-1.857 8.175-9.62 4.764-13.542 9.06-8.956 6.605 7.245 19.583-9.421-1.75-6.932-7.22-9.774-15.849-7.776 1.605-8.975-13.805-7.076-1.935.277-18.176 18.417-5.82 5.692 4.847 14.174-1.929 5.608 3.617 12.846 3.866 13.817-1.911 5.853 6.274z" id="133508"/>
    <path d="M493.445 693.696l3.401 2.541-2.065 22.23 39.816 4.58 4.343-2.787 1.846 9.605 8.055 1.041 9.43 9.932-.685 10.553-5.045 3.975-6.39-4.6-14.122-6.008-17.268-1.303-7.283-6.34-6.367 8.462-14.942-8.922-13.957 8.7-13.675-4.202-7.63-12.022 13.54-9.061 9.62-4.764 1.858-8.175 1.128-4.876 9.066-2.07-1.125-7.907 8.45 1.418z" id="132226"/>
    <path d="M516.666 688.945l9.918 7.096 7.595 2.814 13.67.7 6.62 12.065-15.53 8.64-4.342 2.788-39.816-4.58 2.065-22.23 12.459-6.744 7.361-.549z" id="136250"/>
    <path d="M605.076 703.812l-2.97-.147-4.865 13.462-5.354 2.132-3.77 8.076-18.85-1.856-1.097 12.478-9.898 2.88-9.432-9.93-8.054-1.042-1.846-9.605 15.53-8.64-6.62-12.066-13.671-.699-7.595-2.814-9.918-7.096 8.567-4.61 4.788.322 9.643-1.821 6.784 7.506 6.701-1.604 4.109-6.038 13.431 5.174.904-9.965 12.613 8.637 8.418-3.156 8.303 10.573-1.003 6.146 5.152 3.703z" id="133429"/>
    <path d="M372.463 665.79l2.506 12.06-4.949 12.12 4.74 14.722 11.28-4.86 4.056 13.366-4.353-1.142-21.02 8.552 2.224 10.067-19.975.383.555 6.886 9.659.327 1.233 8.873-4.439 1.083-.121 8.793-3.5-8.47-10.013-4.951-1.148-3.759-10.167-5.512 2.984-5.642-9.334-6.155 1.18-6.273-5.945-4.566-5.965-13.412-5.724-.736-5.349-8.12 14.262-10.763 8.404 6.89 5.166-4.692 2.9-7.443 8.946-5.259 17.198.128 3.61-2.806 11.099.31z" id="135431"/>
    <path d="M392.637 662.453l3.545 8.882-2.275 7.83 4.072 5.156 13.799 2.871 6.157 5.176-18.417 5.82-.276 18.176-9.146-3.166-4.057-13.365-11.28 4.86-4.739-14.723 4.949-12.12-2.506-12.06 6.435-13.212 15.009 5.41-1.27 4.465z" id="135850"/>
    <path d="M493.445 693.696l-8.451-1.418 1.125 7.908-9.066 2.068-1.128 4.877-5.853-6.273-13.817 1.911-12.846-3.866-5.608-3.617-14.174 1.929-5.692-4.847-6.157-5.176-13.8-2.871-4.071-5.156 2.275-7.83-3.545-8.882 7.261-.976 1.493-9.934 7.293 7.337 6.2-1.745 2.915-8.877 6.428-.891 13.641 6.273 10.712-2.406 6.133-11.369 14.155 4.896 10.31 5.739 9.726 9.937-.034 7.622-4.993 12.627 7.862 6.245 1.706 6.765z" id="134942"/>
    <path d="M782.115 644.93l-10.745 6.774-29.966 14.671 5.881 5.3-17.644 24.238-9.469 5.761-28.144-18.9 17.356-21.836-2.933-9.433 23.091-29.483 8.749 4.02 12.58 18.628 15.745-3.73 8.007-3.982 7.492 7.972z" id="135146"/>
    <path d="M334.504 647.942l7.35 11.852-1.298 8.363-8.945 5.259-2.901 7.443-5.166 4.692-8.404-6.89-14.262 10.762.476-8.166-5.693-1.614-5.398-11.561-.175-11.69-5.01-4.18-6.78-10.696 1.27-5.04 6.31-1.87-3.572-8.205 11.437-5.785 7.443 10.086-4.996 3.284.214 9.023 5.904.08 9.36 4.735 9.627 1.619 13.209-1.501z" id="136241"/>
    <path d="M729.542 622.022l-23.09 29.483 2.932 9.433-17.356 21.837-28.909 30.046-10.93 13.677-6.088 4.662-7.987.697-12.184-10.031 4.192-8.7-5.178-1.107 7.075-14.425-14.505-8.201 19.426-30.065 7.509-17.028-3.053-5.328 8.334-3.2-4.623-9.538 12.355-6.696 12.017 21.136 26.717-15.992 4.54 10.036 21.132-18.808 7.674 8.112z" id="132681"/>
    <path d="M482.88 600.258l6.357 9.687-8.778 13.955 2.575 9.392 8.546 7.138-6.034 6 5.048 8.982 8.733-5.555 4.117 1.523 21.387-13.389 9.737 4.924-3.158 4.8 2.027 6.97-10.4 11.191 3.53 4.469-2.928 9.552 4.829 2.254 1.553 2.506-4.788-.322-8.567 4.61-7.361.55-12.459 6.742-3.401-2.54-1.706-6.766-7.862-6.245 4.993-12.627.034-7.622-9.726-9.937-10.31-5.739-14.155-4.896-4.888-7.195 6.68-9.496-8.457-8.792 12.601 1.05 12.273-12.56 9.958-2.614z" id="135020"/>
    <path d="M621.61 609.294l22.246 15.65 1.251-.71 4.623 9.537-8.334 3.2 3.053 5.33-7.509 17.027-19.426 30.065 14.505 8.201-7.075 14.425-8.549-.562-11.32-7.645-5.15-3.703 1.002-6.146-8.303-10.572-8.418 3.155-12.613-8.637-.904 9.965-13.431-5.174-4.109 6.038-6.7 1.604-6.785-7.506-9.643 1.82-1.553-2.505 1.606-4.45 15.252-7.495 5.917-4.94 10.671-2.803-4.103-13.282 8.67-12.907-3.854-2.68 6.417-10.413 10.086-9.783 4.268 6.715 6.265-9.049 14.02-6.39-4.978-3.424 12.092-2.062 10.812 10.106z" id="133018"/>
    <path d="M371.684 605.221l7.64 8.698 4.204-7.143 4.873 7.658 9.446 2.986-.131 11.961 4.52-1.481 15.563 20.358-2.916 8.877-6.199 1.745-7.293-7.337-1.493 9.934-7.261.976 1.27-4.465-15.009-5.41-6.435 13.211-11.099-.31-3.61 2.806-17.198-.128 1.299-8.363-7.351-11.852 2-10.21 15.3-20.656-3.516-3.076 17.525-15.867 5.87 7.088z" id="130712"/>
    <path d="M592.974 597.324l5.73 3.926 4.979 3.424-14.02 6.39-6.265 9.049-4.268-6.715-10.086 9.783-6.417 10.413 3.854 2.68-8.67 12.907 4.103 13.281-10.67 2.804-5.918 4.94-15.252 7.495-1.606 4.45-4.83-2.254 2.93-9.552-3.53-4.469 10.399-11.19-2.027-6.97 3.159-4.8-9.738-4.925-21.387 13.389-4.117-1.523-8.733 5.555-5.048-8.983 6.034-6-8.546-7.137-2.575-9.392 8.778-13.955.29-7.06 15.252-8.161 4.87.427 2.733 10.954 8.227-6.154 8.509 8.962 12.755-6.26 11.295-11.299 5.117 14.968 17.338-3.026 8.195 1.375 9.156-7.347z" id="133090"/>
    <path d="M420.256 593.754l5.004 4.905 6.24-5.05 5.722 4.579 10.826 16.194 8.456 8.792-6.68 9.496 4.89 7.195-6.134 11.369-10.712 2.406-13.64-6.273-6.43.89-15.562-20.357-4.52 1.481.131-11.961-9.446-2.986-4.873-7.658-4.204 7.143-7.64-8.698 15.627-6.994 1.258-7.038 11.95 7.97 19.737-5.405z" id="130552"/>
    <path d="M281.64 612.423l2.28 4.49 9.823 3.703-11.437 5.785 3.572 8.205-6.31 1.87-1.27 5.04 6.78 10.696 5.01 4.18.175 11.69-18.153 15.756-.776 5.847-28.584-10.378-15.73-3.364-2.43-11.879 1.303-4.222 17.704-10.79-3.536-2.166 4.974-8.14-1.125-4.356 7.79-6.86-3.795-13.92 11.209-8.081-3.63-5.785.359-10.011 7.456-1.753 8.954 14.352 6.515 2.188 2.872 7.903z" id="134194"/>
    <path d="M782.115 644.93l-7.492-7.972-8.007 3.982-15.745 3.73-12.58-18.628-8.749-4.02-7.674-8.112-5.03 1.089-3.998-6.332 34.549-22.843 8.132-5.581 8.719 6.367 17.148 25.407 5.486-3.755 10.78 13.269-5.052 4.302 6.398 8.275-16.885 10.822z" id="132379"/>
    <path d="M365.813 598.133L348.288 614l3.516 3.076-15.3 20.655-2 10.211-13.21 1.501-9.626-1.619-9.36-4.736-5.904-.079-.214-9.023 4.996-3.284-7.443-10.086-9.822-3.703-2.281-4.49 15.622-9.823 1.657 3.29 20.765-11.944-12.808-12.235 16.83-3.79 17.214-1.606 16.126-5.219 8.668 7.454 4.648 7.353-8.825 7.088 4.276 5.142z" id="130892"/>
    <path d="M455.991 551.084l10.268 7.89-.706 6.44 8.398 5.974.812 11.518 8.117 17.352-9.958 2.614-12.273 12.56-12.6-1.05-10.827-16.194-5.722-4.578-6.24 5.049-5.004-4.905 12.69-7.776-10.041-8.797-.833-3.766 8.683-6.338 17.868-6.059-7.218-15.786 14.586 5.852z" id="130614"/>
    <path d="M742.951 559.376l4.321 20.358.117 6.09-34.55 22.843 3.999 6.332 5.03-1.09-21.131 18.809-4.54-10.036-26.718 15.992-12.017-21.136-12.355 6.696-1.25.71-22.248-15.65 34.895-21.388-1.637 5.862 8.285 7.297 13.752-22.655L672.62 564l57.106-13.275 5.166-8.33 13.369 6.977-6.136 6.127.825 3.877z" id="133394"/>
    <path d="M566.33 536.833l3.774 11.725-22.685 8.722 40.658 36.754 4.897 3.29-9.156 7.347-8.195-1.375-17.338 3.026-5.117-14.968-11.294 11.298-12.756 6.26-8.51-8.961-2.57-9.448-6.943-2.942-11.786-20.824 2.214-15.526 9.836 1.42 4.28-7.59 8.454 1.4 4.525-11.523 6.005 7.34 9.13-7.495 3.236 8.65 19.34-6.58z" id="131933"/>
    <path d="M656.874 512.87l3.325 12.131-5.324 7.334-14.062 5.72.658 12.85 21.249-8.336 9.9 21.431 4.284 14.41-13.752 22.655-8.285-7.297 1.638-5.862-34.896 21.388-10.812-10.106-3.612-16.25 3.282-8.141-5.226-20.092-6.783-18.036 26.74-11.06 20.203-8.287 11.473-4.452z" id="132752"/>
    <path d="M625.199 525.609l-26.741 11.06 6.783 18.036 5.226 20.091-3.282 8.142 3.612 16.25-12.092 2.062-5.731-3.926-4.897-3.29-40.658-36.754 22.685-8.722-3.774-11.725 4.138-1.413-4.908-19.993 20.94-7.106 4.389 20.065 32.835-10.983 1.475 8.206z" id="135896"/>
    <path d="M238.09 506.5l5.93 20.164 3.951 4.966 4.193 28.775 8.39 10.444-1.438 11.905 4.183 5.226-7.456 1.753-5.115-1.078-1.59-7.652-6.13 1.55-7.664-22.762-12.85 4.288-2.261-6.383-15.214 3.926-4.535-1.503-21.525 3.227-14.66-5.49.091-3.853 20.489-10.39 21.074.207 1.469-9.295 8.947-1.375 6.436 1.736-4.77-16.989 11.786-3.77.303-7.455 7.966-.173z" id="133214"/>
    <path d="M528.618 534.918l-4.525 11.524-8.453-1.4-4.28 7.589-9.837-1.42-2.214 15.526 11.786 20.824 6.943 2.942 2.57 9.448-8.226 6.154-2.734-10.954-4.869-.427-15.251 8.16-.29 7.06-6.358-9.686-8.117-17.352-.812-11.518-8.398-5.975.706-6.438-10.268-7.89 6.17-4.261 3.6-11.146 5.467.91 5.733-4.582-4.323-11.503 3.129-10.269 5.733-3.935 4.816 4.965 13.8-2.471 11.486 1.872 5.056-9.978-3.102 12.471 10.51 5.981 4.552 15.779z" id="135949"/>
    <path d="M284.406 507.08l18.04 14.258 49.356 38.48-14.798 1.035-14.362 4.652 1.063 12.416-16.829 3.79 12.808 12.235-20.765 11.945-1.657-3.29-15.622 9.822-2.872-7.903-6.515-2.188-8.954-14.352-4.183-5.226 1.438-11.905-8.39-10.444-4.193-28.775-3.95-4.966-5.931-20.164 3.89-6.007 4.575 16.527 37.85-9.94z" id="132075"/>
    <path d="M443.909 480.968l3.487 16.132 2.292 2.183 9.775-5.306 6.49 8.794 9.814 7.464-3.13 10.268 4.324 11.503-5.733 4.582-5.467-.91-3.6 11.146-6.17 4.26-14.586-5.852-12.825-.841-8.222-5.813-18.371-6.056-7.023-7.64-4.841-15.866 19.94-5.5-.313-5.1 12.02-7.65-.725-5.479 6.616-5.143 7.924 1.964 8.324-1.14z" id="130785"/>
    <path d="M207.31 489.776l4.86 9.272.543 7.764 17.41-.14-.302 7.455-11.787 3.77 4.771 16.988-6.436-1.735-8.947 1.375-1.469 9.295-21.074-.208-20.489 10.39-6.83-12.085.42-9.367 3.059-4.883-5.793-29.86 5.614-6.42 2.038-12.569 11.595-5.184 12.763 5.263 8.598 11.277 11.456-.398z" id="133161"/>
    <path d="M586.5 508.321l-20.94 7.106 4.908 19.993-4.138 1.413-19.34 6.58-3.237-8.65-9.13 7.495-6.005-7.34-4.551-15.779-10.511-5.98 3.101-12.472 7.34-15.599-1.046-3.224 9.33-2.174 3.703 6.224 9.812 3.38 7.058-2.76 6.567-8.467 7.276-.911 6.008-9.322 10.216 2.245.708 12.073 5.332 7.688-.055 7.206-4.039 3.816 1.634 7.46z" id="131620"/>
    <path d="M373.177 473.144l-1.646 4.623 9.016 18.465-8.49 4.852 5.002 6.25-3.326 9.679-19.018 19.849-2.893 22.77-.02.186-49.356-38.48 9.535-3.51 14.113-23.621.893-9.767 4.742 1.006 4.79-13.208 1.582 2.301 11.438-2.851 4.002-8.673 15.078-5.326 4.558 15.455z" id="130847"/>
    <path d="M239.464 452.566l14.948 23.538-1.06 6.278 31.054 24.697-37.85 9.941-4.576-16.527-3.89 6.007-7.966.172-17.411.14-.542-7.764-4.861-9.272 16.26-3.047-2.476-11.734 5.3-.958-3.438-14.765 16.465-6.746.043.04z" id="133330"/>
    <path d="M346.798 434.332l10.036 10.928-5.78 6.603 5.05 4.536 12.1-2.954.415 4.244-15.078 5.326-4.002 8.673-11.438 2.851-1.581-2.301 3.19-10.97-3.418-10.082-.723-2.29 6.477-16.024 4.752 1.46z" id="131443"/>
    <path d="M662.938 504.582l1.863 5.636-7.927 2.652-11.473 4.452-1.938-6.3-6.329 2.09-2.96-8.116-11.39-7.338.595-7.317-7.96-11.586 4.236-3.28-6.007-19.422-6.992-11.423.375-3.306 10.59 6.1 10.535 19.753 8.425 10.113 5.21 8.977 21.147 18.315z" id="133278"/>
    <path d="M522.95 481.864l1.047 3.224-7.34 15.599-5.055 9.978-11.485-1.873-13.8 2.472-4.817-4.965-5.733 3.936-9.815-7.464-6.49-8.794-9.774 5.306-2.292-2.183-3.487-16.132 3.817-.8-6.056-17.843 12.068-8.86 14.526 3.591 3.55-7.218-.453-11.5 8.754-3.296.64-.227 5.707 16.192 4.383 3.064-.463 7.034 2.296 14.32 17.988-2.32 8.677 8.513 3.608.246z" id="134390"/>
    <path d="M605.962 433.622l-.235 5.11 1.304 2.592-.375 3.306 6.992 11.423 6.007 19.422-4.236 3.28 7.96 11.586-.595 7.317 11.39 7.338 2.96 8.117 6.328-2.09 1.939 6.3-20.202 8.286-1.475-8.206-32.835 10.983-4.388-20.065-1.634-7.459 4.039-3.816.055-7.206-5.332-7.688-.708-12.073-10.216-2.245-6.537-21.616 9.151-5.616 9.652.231 3.531-7.25 14.04-2.57 3.42 2.609z" id="132510"/>
    <path d="M292.96 445.379l23.31.025 3.458 3.347 13.434-1.4 3.13 3.835 3.418 10.081-3.19 10.971-4.791 13.208-4.742-1.006-.893 9.767-14.113 23.62-9.534 3.51-18.041-14.258-31.055-24.697 1.06-6.279-14.947-23.537 16.938-8.988-3.742-8.513-7.778-9.346 10.019-.01 7.34 6.059 4.882 7.93 25.758 9.031.078-3.35z" id="130981"/>
    <path d="M680.615 426.97l13.628 5.195 10.631 21.632-.4 12.935 3.352 6.211-.181 6.26-16.095 9.635-8.82-15.284-5.407 2.245-2.408 9.493-12.846-8.384-12.568-11.774-3.47-10.47 4.126-5.292.998-8.557 4.556-12.333.813-6.417 24.091 4.905z" id="133688"/>
    <path d="M566.168 446.218l6.537 21.616-6.008 9.322-7.275.911-6.567 8.467-7.06 2.76-9.811-3.38-3.704-6.224-9.33 2.174-3.607-.246-8.677-8.512-17.988 2.32-2.296-14.321.463-7.034-4.383-3.064-5.708-16.192 8.501-4.737 3.276 2.195 8.078-3.389-1.26-8.632 12.033-2.608 5.257 5.057 4.116-3.13 6.798 2.244 7.853-10.875 2.667.315-1.963 14.596 8.405 5.674-.702 5.689 15.299 5.028 7.056 3.976z" id="133722"/>
    <path d="M562.652 394.678l-1.61 5.752 17.037 4.928 8.65 1.171 2.047 7.48 10.858 6.456-1.995 4.921-9.137 8.198-3.531 7.25-9.652-.232-9.15 5.616-7.057-3.976-15.299-5.028.702-5.69-8.405-5.673 1.963-14.596-2.667-.315 3.083-8.607.83-2.993 23.333-4.662z" id="133615"/>
    <path d="M645.187 396.246l-.74 6.454 11.264 25.782-4.556 12.333-8.357-.513-3.874 4.056-5.95-8.233-11.95 5.89-3.168-4.813-12.13 1.53.236-5.11-.941-7.884 7.587-5.852 7.235-1.11 4.948-9.615-2.812-3.838 3.986-6.173-2.033-8.98 5.136 2.06.032 7.035 8.363 5.454 7.724-8.473z" id="132459"/>
    <path d="M243.552 423.748l1.33 1.971 7.778 9.346 3.742 8.513-16.938 8.988-.043-.04-9.442-14.973-2.993 4.587-6.702 1.793-2.947-9.37-9.109-6.304-.728-4.734-1.416-13.965 5.652-11.371 1.515-12.222 11.186 6.79 5.34 6.319 2.823 8.898 10.952 15.774z" id="132315"/>
    <path d="M309.276 385.826l12.02 8.839 10.295 1.47 3.421 7.903 7.754 7.582 11.33 3.358 4.11 5.796-5.757 12.481-5.65 1.077-4.753-1.46-6.477 16.024.723 2.29-3.13-3.834-13.434 1.399-3.457-3.347-23.312-.025-1.206-11.929 15.056.01-.528-8.968-8.585-4.963.897-11.637-8.538-10.451 1.053-3.903 18.168-7.712z" id="132716"/>
    <path d="M623.932 390.17l2.033 8.98-3.986 6.173 2.812 3.838-4.949 9.616-7.234 1.11-7.587 5.851.94 7.884-3.42-2.61-14.039 2.572 9.137-8.198 1.995-4.92-10.858-6.457-2.047-7.48-8.65-1.171-17.036-4.928 1.609-5.752 17.43-.227 1.58-5.884 7.402-7.49 16.227 5.964 6.28 4.438 12.361-1.31z" id="135681"/>
    <path d="M482.334 386.358l-2.793 7.103-2.79 25.697 3.364 15.884-8.754 3.297.452 11.5-3.549 7.217-14.526-3.591-5.187-1.694-24.224-.244 8.234-9.01-7.62-16.635 11.212-5.709 2.77-12.676 2.592-2.519 9.442 1.355-3.463-21.52-3.293-5.637 14.508-2.88 4.913 5.617 1.707 6.755 5.225 1.6 11.78-3.91z" id="132271"/>
    <path d="M684 378.11l.174 10.61 4.596 22.448-4.422 12.279-3.732 3.523-24.092-4.905-.813 6.417-11.263-25.782.739-6.454-.04-10.078 3.832-5.466-1.332-5.908 9.695-4.212 19.515-3.922 7.392.04-.25 11.41z" id="133866"/>
    <path d="M301.957 360.488l-.471 10.325 7.77 11.516.02 3.497-18.168 7.712-1.053 3.903 8.538 10.451-.897 11.637 8.585 4.963.528 8.968-15.056-.01 1.206 11.929-.078 3.35-25.758-9.03-4.882-7.931-7.34-6.058-10.019.01-1.33-1.972 6.151-6.05 3.013-8.558-3.888-6.26 1.425-4.602 8.217-1.235-2.679-6.485 7.897-1.358 3.297-10.171 3.31-1.989 10.409 6.374 7.691-11.837-6.28-10.013 19.842-1.076z" id="135164"/>
    <path d="M533.798 356.356l3.728 15.49-1.43 9.19 2.934 9.303-.54 11.994-3.084 8.607-7.853 10.875-6.798-2.243-4.116 3.129-5.257-5.057-12.033 2.608 1.26 8.632-8.078 3.389-3.276-2.195-8.5 4.737-.64.227-3.364-15.884 2.79-25.697 2.793-7.103 2.57-4.73 11.705-1.1 17.899-.108.298-6.164 9.002-10.942 9.99-6.958z" id="134443"/>
    <path d="M580.565 365.101l-.418 10.512 8.917 5.464-7.402 7.49-1.58 5.884-17.43.227-23.333 4.662-.83 2.993.541-11.994-2.934-9.303 1.43-9.19-3.728-15.49.78-2.112 3.202-1.115 4.434 14.844 15.292-2.25 2.823-4.95 11.478 3.752 8.758.576z" id="132011"/>
    <path d="M355.988 387.124l-1.043 7.835-6.169 6.731 5.32 13.288-11.33-3.358-7.754-7.582-3.421-7.902-10.295-1.471-12.02-8.84-.02-3.496-7.77-11.516.47-10.325 5.854-2.614 12.98 4.024 7.799-4.202-1.92-6.106 11.736-4.93 13.201 8.622 6.697 19.468-9.615 3.67 7.3 8.704z" id="136198"/>
    <path d="M116.242 346.765l7.186 1.397 5.18 4.449 2.658 8.017 11.454 11.474 8.066 3.536-12.951 3.408-4.497 10.415.472 6.795-7.44 4.271-7.68-.169-3.068-8.01-9.533-9.61-8.06-13.983 2.982-5.238 2.082-12.648 6.443-4.602 6.706.498z" id="134899"/>
    <path d="M446.058 345.1l6.137 4.078 1.911 6.433-6.024 5.142-3.88 18.423 3.292 5.637 3.462 21.52-9.441-1.355-2.593 2.519-5.251 1.936-4.676-4.52-8.158 1.548.445-12.616-6.277-8.589-4.54-10.255 1.623-8.818 22.008-11.628 11.962-9.454z" id="133562"/>
    <path d="M485.49 341.617l8.765 6.733 2.34 4.886-1.46 10.672 3.577 2.166-2.103 14.453-11.704 1.1-2.571 4.73-11.78 3.912-5.225-1.601-1.707-6.755-4.913-5.617-14.508 2.88 3.881-18.423 6.024-5.142-1.911-6.433-6.137-4.077 20.14-9.447 9.649.537 9.643 5.426z" id="134336"/>
    <path d="M260.452 337.785l4.811 3.824 1.502 7.231-2.313 5.145 8.073 7.05 9.59.53 6.28 10.012-7.691 11.837-10.409-6.374-3.31 1.988-3.297 10.172-7.897 1.358 2.679 6.485-8.217 1.235-1.425 4.602 3.888 6.26-3.013 8.558-6.151 6.05-10.952-15.774-2.823-8.898-5.34-6.319-11.186-6.79 3.897-6.808 1.395-13.93 5.774.402 7.162-4.797 3.973-13.408 9.479-4.753 5.776-6.333 9.745 1.445z" id="135789"/>
    <path d="M209.2 335.547l4.574 11.247 3.991 3.176-1.349 12.117 2.127 3.143-1.395 13.93-3.897 6.807-1.515 12.222-5.652 11.37-8.194-6.748-10.04-12.957-8.618-16.796 1.46-5.008 11.068-6.514-3.514-13.744.139-7.698 3.07-4.561 9.519-2.305 8.226 2.32z" id="131256"/>
    <path d="M663.42 331.075l-8.708 4.726-7.909 13.145-12.817 4.195 3.957 9.262 9.704 12.391 1.332 5.908-3.832 5.466.04 10.078-7.724 8.473-8.363-5.454-.032-7.035-5.136-2.06-12.36 1.309-6.281-4.438-16.227-5.964-8.917-5.464.418-10.512 7.238-5.142.61-11.089 6.562-5.632 8.962-3.673 2.347 2.752 10.872-.053 5.649-.116 10.148 5.731 8.823-14.387 5.55-5.44 16.093 3.023z" id="135244"/>
    <path d="M306.257 323.7l6.154 8.32 6.155.657 1.26 11.641 6.842 7.272 1.92 6.106-7.798 4.202-12.98-4.024-5.853 2.614-19.842 1.076-9.59-.53-8.073-7.049 2.313-5.145-1.502-7.231-4.811-3.824 2.713-6.278 32.238-8.51 10.854.702z" id="132841"/>
    <path d="M427.15 338.599l6.947 15.956-22.009 11.628-1.622 8.818-6.509-.156-8.406 5.69 2.789 15.203-.349 11.23-14.792-3.28-2.969-21.397-2.18-15.207 3.11-19.557-3.071-19.833-8.076-2.071-1.202-4.873 12.995-11.25 5.158 6.334 2.841 12.924 3.96 2.33-2.119 7.086 23.253 2.655 12.252-2.23z" id="131835"/>
    <path d="M684 378.11l.249-11.41-7.392-.04-19.515 3.922-9.695 4.212-9.704-12.391-3.957-9.262 12.817-4.195 7.909-13.145 8.707-4.726 9.115-8.908 17.652-13.786.605 29.814 1.186 8.403 5.428 18.797-8.889 2.932.213 6.976-4.73 2.807z" id="133919"/>
    <path d="M325.574 308.564l2.272 8.51 3.757 1.642 11.735-6.058 3.955 2.201 6.537-3.88 5.402 8.081 9.58 1.69 1.201 4.873 8.076 2.071 3.072 19.833-3.111 19.557 2.18 15.207-15.41 8.88-5.588-7.498-3.244 3.451-7.3-8.704 9.615-3.67-6.697-19.468-13.2-8.621-11.738 4.929-6.842-7.272-1.26-11.641-6.154-.657-6.154-8.32 3.83-3.488.056-7.596 10.022-.92 5.408-3.132z" id="136134"/>
    <path d="M99.587 308.73l15.766 11.092-2.959 13.069 3.986 5.667-.138 8.207-6.706-.498-6.443 4.602-2.082 12.647-6.375-4.488-16.263-17.385-3.787-9.822-1.231-10.05-3.161-6.058 5.844-10.981 8.602-1.78 4.482 4.69 10.465 1.089z" id="131899"/>
    <path d="M504.398 301.524l4.104 5.75 10.029 2.022-1.465 6.096-20.358 12.286-11.218 13.94-9.643-5.427-9.649-.537 5.983-23.047-3.034-6.53 3.785 1.297 17.276-4.242 14.19-1.608z" id="135404"/>
    <path d="M582.464 306.392l-5.023 17.87 5.825 7.556 5.147 17.053-.61 11.088-7.238 5.142-8.759-.575-11.477-3.754-2.823 4.952-15.292 2.25-4.434-14.845-3.202 1.115 1.327-7.114 6.573-.845 3.83-13.015 2.955-2.328-3.285-19.974.34-1.399 4.437-1.886-.445-6.98 8.076 2.267 12.533-1.596 11.545 5.018z" id="132645"/>
    <path d="M545.978 310.968l3.285 19.974-2.956 2.328-3.83 13.015-6.572.845-1.327 7.114-.78 2.112-9.99 6.958-9.002 10.942-.298 6.164-17.899.107 2.103-14.453-3.577-2.166 1.46-10.672-2.34-4.886-8.765-6.733 11.218-13.94 20.358-12.285 1.465-6.096-.472-4.164 15.862-8.024 7.137 6.09 4.92 7.77z" id="135501"/>
    <path d="M430.217 304.302l5.199 3.701 1.017 14.093-8.195 6.222-1.087 10.28-12.252 2.231-23.253-2.655 2.12-7.085-3.961-2.33-2.84-12.925-5.16-6.335 9.306-4.666 7.224 2.167-.148-7.923 9.29-3.287-.194 6.798 22.934 1.714z" id="131817"/>
    <path d="M617.156 342.264l-10.872.053-2.347-2.752-8.962 3.673-6.562 5.632-5.147-17.052-5.824-7.556 5.022-17.87 3.158-6.5 4.696-.066 12.714-8.96 16.089 4.094-6.06 10.578-1.091 6.652 3.8 8.672 2.011 12.51-.625 8.892z" id="135128"/>
    <path d="M460.152 287.596l3.177 10.527 5.818 7.954 3.034 6.53-5.983 23.047-20.14 9.447-11.962 9.454-6.945-15.956 1.087-10.281 8.195-6.222-1.017-14.093-5.2-3.701 17.038-11.211 5.165-7.71 7.733 2.215z" id="134755"/>
    <path d="M309.81 289.89l.334 22.726-.055 7.596-3.832 3.487-10.854-.702-32.238 8.51-2.994-12.755-10.15.995-1.794-9.905 3.932-3.347.981-9.996-3.395-2.484 7.489-12.848 12.42 8.001 7.302-1.62 4.645 7.625 11.947 1.659 16.262-6.942z" id="131988"/>
    <path d="M191.944 265.677l2.914 3.242-4.369 8.998 1.055 12.593 5.716 6.569 1.139 8.915 4.33 6.558-.48 7.715 3.738 3.95 3.213 11.33-8.226-2.319-9.519 2.305-3.07 4.56-10.188-9.809-4.27-10.055-8.453-3.855-7.467-15.473-2.193-18.4 12.675-7.03 3.973-7.256 8.015 1.596 11.466-4.134z" id="135547"/>
    <path d="M477.307 263.997l5.436.13 3.108 6.656 10.514.348 8.563 11.79 2.249 10.243-2.779 8.36-14.19 1.608-17.276 4.242-3.785-1.297-5.818-7.954-3.177-10.527-.35-20.939 4.46-2.818 13.045.158z" id="132137"/>
    <path d="M103.82 287.488l2.63 11.052-6.863 10.19-10.465-1.088-4.482-4.69-8.602 1.78-5.844 10.98 3.16 6.058-15.366 4.323-3.402-6.32 6.46-8.677-4.068-12.186-15.57-5.302 11.663-15.81 1.321-11.235 7.133-10.06 2.607 9.794 6.825 8.844 12.402 4.605 6.658 5.34 13.804 2.402z" id="135654"/>
    <path d="M529.503 263.778l5.126 12.452 8.077 11.572 3.938 14.478-.326 7.29-.34 1.398-4.92-7.77-7.137-6.09-15.862 8.024.472 4.164-10.029-2.022-4.104-5.75 2.779-8.36-2.249-10.243-8.563-11.79-10.514-.348-3.108-6.656-5.436-.13.31-4.497 7.546-2.057 13.708 7.416 16.08 1.42 3.83-2.48 10.722-.02z" id="132486"/>
    <path d="M225.871 261.939l-2.254 7.022 10.534 10.258 13.664 4.095 9.419-2.147-7.49 12.848 3.396 2.484-.981 9.996-3.932 3.347 1.794 9.905 10.15-.995 2.994 12.755-2.713 6.278-9.745-1.445-5.776 6.333-9.479 4.753-3.973 13.408-7.162 4.797-5.774-.401-2.127-3.143 1.35-12.117-3.992-3.176-4.574-11.247-3.213-11.33-3.737-3.95.478-7.715-4.33-6.558-1.138-8.915-5.716-6.569-1.055-12.594 4.37-8.997 1.165-6.816 18.112-7.301 11.735 7.137z" id="132404"/>
    <path d="M401.102 264.269l3.237 17.302-.882 7.526 4.02 6.693-9.29 3.287.148 7.923-7.224-2.167-9.305 4.666-12.995 11.25-9.579-1.689-5.402-8.081 7.312-3.837-3.305-15.02 1.655-20.66-6.304-4.028 3.3-8.982 8.207-.563 9.897 2.572 1.706-6.509 18.213 12.079 6.591-1.762z" id="135725"/>
    <path d="M356.488 258.452l-3.3 8.982 6.304 4.028-1.655 20.66 3.305 15.02-7.312 3.837-6.537 3.88-3.955-2.201-11.736 6.058-3.756-1.642-2.272-8.51-6.792-14.534-.425-14.598 2.333-5.238-2.682-19.502-4.901-4.849-4.725 4.063-4-5.122 2.94-9.52-.153-8.531 10.336.58 12.349 5.702 15.47 4.393 7.505 6.255-.57 7.835 4.229 2.954z" id="131577"/>
    <path d="M428.89 200.833l-.58 9.905-4.35 5.01 4.655 3.821.72 6.573 6.446.713 6.186 13.618 13.997-.261 3.355 10.043-3.062 10.59 3.546 5.812.35 20.939-7.734-2.215-5.165 7.71-17.037 11.21-22.934-1.713.193-6.798-4.02-6.692.883-7.527-3.237-17.302 3.91-12.091-9.725-18.484-1.938-8.212 4.062-3.603 3.311-1.022 28.167-20.024z" id="132896"/>
    <path d="M172.462 268.215l-3.973 7.257-12.675 7.029-11.892 4.281-8.444 10.853-4.244-5.962-7.592-2.542-19.821-1.643-13.804-2.402-6.658-5.34-12.402-4.605-6.825-8.844-2.607-9.795 7.837-5.887 1.388-4.51-3.554-9.274-11.75-13.005 1.701-3.847 4.301 1.206 10.097-3.437 11.295-6.852 2.426-3.64 13.987-6.472 4.51-4.585 7.464-.714 1.802 7.311 8.61 7.453 15.56 3.316 6.924 11.427-1.81 8.065 8.822 21.44 6.83.585 10.936 7.683 3.56 5.45z" id="131336"/>
    <path d="M430.294 185.993l1.781 9.7 34.531 15.579 12.334 7.193 14.608-8.691 7.919 2.193 4.864 15.974-3.912 7.843 10.79 2.298 9.71-3.904 4.168 3.804 4.69 12.626.89 8.503-3.164 4.667-10.723.02-3.829 2.48-16.08-1.419-13.708-7.416-7.545 2.057-.311 4.497-13.045-.158-4.46 2.818-3.545-5.811 3.062-10.591-3.355-10.043-13.997.26-6.186-13.617-6.445-.713-.72-6.573-4.656-3.821 4.35-5.01.58-9.905-3.68-4.786 5.084-10.054z" id="134648"/>
    <path d="M309.81 289.89l-16.262 6.942-11.947-1.66-4.645-7.624-7.302 1.62-12.42-8.001-9.42 2.147-13.663-4.095-10.534-10.258 2.254-7.022 9.601-21.23-2.972-8.493 6.845-9.247-3.38-6.458 1.684-10.32-11.414-13.688 4.886-10.405 19.48 25.625 2.09 12.65 5.609 11.805 9.89 4.737 8.8 10.638 12.41 5.585 9.566 16.47 4.1.67 2.586 14.536 4.158 5.076z" id="132342"/>
    <path d="M307.169 230.733l.153 8.53-2.94 9.521 4 5.121 4.725-4.061 4.9 4.848 2.683 19.502-2.333 5.238.425 14.598 6.792 14.534-5.408 3.132-10.022.92-.334-22.726-4.158-5.076-2.586-14.537-4.1-.67-9.566-16.47-12.41-5.584-8.8-10.638-9.89-4.737-5.61-11.805-2.09-12.65-19.479-25.625 9.142-2.613 5.205 4.407 9.08-4.727 6.612 4.116 10.447 19.306.798 5.75 22.15 7.66 9.897 13.952 2.717.784z" id="135618"/>
    <path d="M394.165 220.283l3.246 1.596-4.062 3.603 1.938 8.212 9.724 18.484-3.909 12.09-6.591 1.763-18.213-12.079-1.707 6.509-9.896-2.572-8.207.563-4.23-2.954.57-7.835-7.503-6.255-15.471-4.393-12.35-5.702-10.335-.58-2.717-.784-9.896-13.953-22.151-7.659-.798-5.75-10.447-19.306-6.611-4.117 7.328-19.519 4.512-2.841.603-10.074 3.455-2.632 3.704 7.236 10.039 10.378 2.5 8.746 11.628 9.08 10.372-2.19 12.228 10.204-3.495 5.73 1.418 5.771 16.161 4.861 11.89 8.7 2.229 4.652 12.757 6.602 16.372 3.192 9.413 4.452 6.502-11.229z" id="133795"/>
    <path d="M191.944 265.677l-11.467 4.134-8.015-1.596-3.561-5.45-10.936-7.683-6.83-.584-8.821-21.44 1.81-8.066-6.925-11.427-15.56-3.316-8.61-7.453-1.802-7.31 3.658-10.751-2.36-20.808 6.846-9.224-1.938-15.754 6.851 2.88 6.978 8.164 3.083 14.545 8.988 16.072 1.086 11.318 4.514 4.995 4.054 11.403 4.726 4.714 12.46 3.525 1.464 6.054 7.634 15.708 1.14 13.396 10.929 9.696.603 4.258z" id="135226"/>
    <path d="M114.262 134.667l3.171 4.282 1.938 15.754-6.847 9.224 2.361 20.808-3.658 10.75-7.463.714-4.51 4.584-13.988 6.474-2.426 3.639-11.295 6.852-10.097 3.437-4.3-1.206-9.568-11.235-12.365-8.24-10.682 3.324-9.213-12.654 1.905-9.268-6.358-8.765 4.041-10.47-2.233-13.182 2.145-8.507 4.828-4.456L34 146.44l12.495-2.107 10.108 7.29 14.395-12.74 4.673-.205 7.02-6.335 12.593-.559 10.456 2.927 8.522-.043z" id="131540"/>
    <path d="M493.548 209.774l-14.608 8.691-12.334-7.193-34.53-15.579-1.782-9.7-2.588-3.958 3.985-7.305-4.51-7.175 3.887-6.252-3.205-11.16.299-10.467-7.724-13.874 17.413-7.51-1.172-9.648-3.908-8.225 6.395-7.71-3.984-5.687 1.563-4.566 4.199-2.537 4.28 6.13 2.307 18.063 8.944 6.55-5.258 13.909-6.053 10.672 3.73 6.254-1.54 6.901 7.138 4.17 16.924 29.736 11.52 10.288 4.652 6.24 1.564 8.855 4.396 2.087z" id="136278"/>
    <path d="M282.665 96.752l-1.959 18.583-6.636 10.083.212 5.782-3.834 12.898-3.456 2.632-.603 10.074-4.512 2.841-7.328 19.52-9.081 4.727-5.205-4.407-9.142 2.613-4.886 10.405 11.414 13.688-1.683 10.32 3.379 6.458-6.845 9.247 2.972 8.493-9.601 21.23-11.735-7.137-18.112 7.301-1.166 6.816-2.915-3.242-.603-4.258-10.929-9.696-1.14-13.397-7.634-15.707-1.464-6.054-12.46-3.525-4.726-4.714-4.054-11.403-4.514-4.995-1.087-11.318-8.987-16.072-3.083-14.545-6.978-8.164-6.85-2.88-3.172-4.282 2.39-7.96-6.664-22.298 8.44.46 9.361-2.242 16.587 5.405 10.574-2.586 4.595-13.612-3.986-6.157 2.063-6.268-1.344-14.083 8.084-10.729 11.706-7.564 10.292 9.766 11.07-2.495 15.617 2.076 8.452-11.607 7.968-1.173 4.78 7 7.272 2.23 11.503 24.726 3.633 13.325 9.22-.2 16.79 6.07z" id="136107"/>
    <path d="M176.068 47.033l-11.706 7.564-8.084 10.73 1.344 14.082-2.063 6.268 3.986 6.157-4.595 13.612-10.574 2.586-16.587-5.405-9.36 2.243-8.44-.46-9.177 6.943-14.015-7.424-12.313-.755-4.876-3.76-11.012-15.187-4.835-20.274 12.953-5.708 18.084-2.768 7.944 6.26 9.522-2.305 2.614-12.254 11.86-8.847 3.583-10.636 9.624 3.312 16.465-3.25 8.576-4.75 12.643 9.291.492 6.96 7.947 7.775z" id="130954"/>
    <path d="M434.193 34.526l-4.55 31.92-4.776 3.843 3.358 6.804 8.52 5.363-1.563 4.566 3.984 5.686-6.395 7.711 3.908 8.225 1.172 9.648-17.413 7.51 7.724 13.874-.3 10.467 3.206 11.16-3.888 6.252 4.511 7.175-3.985 7.305 2.588 3.958-5.083 10.054 3.678 4.786-28.167 20.024-3.31 1.022-3.247-1.596-6.388-16.858 1.72-4.584-9.011-20.856-3.089-3.1 7.46-11.474 4.61-11.71-4.792-3.426 3.203-12.264-6.498-11.057-2.59-9.067-10.805-9.149-6.57-10.573-.247-4.441 5.93-16.63 7.684-4.787 6.708-9.01 1.435-9.72 5.838-7.34 2.617-9.792 8.72 7.424 8.811-6.349 7.676-.554.779-16.645 3.881-3.232 9.651 9.983 3.295 9.454z" id="132574"/>
    <path d="M391.38 34.445l-2.617 9.792-5.838 7.34-1.435 9.72-6.708 9.01-7.684 4.787-5.93 16.63.247 4.44 6.57 10.574 10.806 9.149 2.59 9.067 6.497 11.057-3.203 12.264 4.792 3.426-4.61 11.71-7.46 11.473 3.089 3.101 9.01 20.856-1.719 4.584 6.388 16.858-6.502 11.229-9.413-4.452-16.372-3.192-12.757-6.602-2.228-4.653-11.89-8.699-16.161-4.86-1.42-5.772 3.496-5.73-12.228-10.204-10.372 2.19-11.627-9.08-2.501-8.746-10.04-10.377-3.702-7.237 3.834-12.898-.212-5.782 6.636-10.083 1.96-18.583.8-12.054 13.261-10.074 2.328-13.412-3.351-6.887 6.587-11.052-4.407-9.372 6.229-11.114 5.003-1.684 7.717-18.015L321.943 1l7.515 8.723 24.3 1.015 14.986-3.147 7.12 6.476 4.63 9.766.813 6.94 10.073 3.672z" id="134096"/>
    <path d="M353.859 757.02l2.816 6.666 5.894 4.384-2.705 6.891 1.363 9.978-11.532 3.095-1.708-8.704-12.504 20.964-3.508-3.253-1.308-10.336-7.786-6.387-4.895-17.119 7.199-.664 3.074-8.55 12.087-10.386 10.013 4.951 3.5 8.47zm36.237-43.822l9.145 3.166 7.076 1.935 8.975 13.805 7.776-1.605 9.774 15.848-9.776 1.08 1.544 5.511-7.724 7.333-5.903-8.669-6.59 3.341-6.792-3.65-9.396 3.81-7.11 5.496-6.304-7.898-17.127 5.638.755-11.195-1.233-8.873-9.659-.327-.555-6.886 19.975-.383-2.225-10.067 21.02-8.552 4.354 1.142z" id="134559"/>
    <path d="M53.76 63.953l4.836 20.274 11.012 15.186 4.876 3.761 12.313.755 14.015 7.424 9.176-6.944 6.664 22.298-2.39 7.96-8.522.043-10.456-2.927-12.593.559-7.02 6.335-4.673.206-14.395 12.739-10.108-7.29L34 146.439l-14.352-9.913 2.297-10.463-8.103-12.255-2.039-6.936 1.356-11.313L1 86.85l.392-11.895 4.763-5.728 12.508-.967 3.61-6.06 17.691-9.109 8.86 4.592 4.937 6.27z" id="131210"/>
    <path d="M742.951 559.376l-.825-3.877 6.136-6.127-13.369-6.977-5.166 8.33L672.62 564l-9.901-21.43-21.25 8.336-.657-12.85 14.062-5.721L660.2 525l-3.325-12.131 7.927-2.652 17.768-3.17 6.56 11.72 10.18-4.673 1.86-6.76 9.348-5.142 11.666-2.356 7.923-4.467-2.614-8.554 13.363-2.193 3.665 11.4 8.72 5.466 5.295-2.258 15.832 26.652 1.64 10.11 9.176-3.055 5.06 7.808-46.614 17.048-.678 1.582z" id="132164"/>
    <path d="M651.155 440.815l-.998 8.557-4.126 5.291 3.47 10.471 12.568 11.774-4.496 2.422 5.95 11.519 10.75 9.666-11.335 4.067-21.146-18.315-5.211-8.977-8.425-10.113-10.536-19.754-10.589-6.1-1.304-2.59 12.129-1.53 3.167 4.812 11.95-5.89 5.95 8.233 3.875-4.056 8.357.513z" id="136269"/>
    <path d="M420.358 538.578l8.222 5.813 12.825.841 7.218 15.786-17.868 6.059-8.683 6.338.833 3.766 10.042 8.797-12.691 7.776-19.737 5.405-11.95-7.97-1.258 7.038-15.627 6.994-5.871-7.088-4.276-5.142 8.825-7.088-4.648-7.353-8.668-7.454-16.126 5.219-17.215 1.606-1.063-12.416 14.362-4.652 14.798-1.035.02-.187 10.524 3.8 6.467-17.31 11.853-9.62 12.34-.666 7.12 4.623 1.041 8.43 19.19-10.31z" id="130534"/>
    <path d="M410.466 375l4.54 10.257 6.276 8.588-.445 12.616 8.158-1.548 4.676 4.52 5.251-1.936-2.77 12.676-11.21 5.709 7.62 16.635-22.313-7.282-28.785-2.524-4.063-3.13 2.455-4.318 10.255-7.825 6.233-1.709 1.647-8.762.349-11.228-2.79-15.204 8.407-5.69 6.509.156z" id="134014"/>
    <path d="M424.327 451.527l24.224.244 5.187 1.693-12.068 8.86 6.056 17.843-3.817.801-8.324 1.14-7.924-1.964-6.616 5.143.726 5.48-12.02 7.65.312 5.1-19.94 5.498-9.576-12.783-9.016-18.465 1.646-4.623 9.735-3.328 11.17 6.569-.594-18.383 5.838.221.384-7.127 7.035.592 11.011-4.556 6.57 4.395z" id="131069"/>
    <path d="M432.561 442.517l-8.234 9.01-6.57-4.395-11.012 4.556-7.035-.592-.384 7.127-5.838-.221.595 18.383-11.17-6.57-9.736 3.329-4.558-15.455-.416-4.244 5.552-7.807 3.646-16.057 4.063 3.13 28.785 2.524 22.312 7.282z" id="133964"/>
    <path d="M207.5 423.525l.728 4.734 9.11 6.305 2.946 9.369 6.702-1.793 2.993-4.587 9.442 14.973-16.465 6.746 3.439 14.765-5.301.958 2.476 11.734-16.26 3.047-11.456.398-8.599-11.277-12.762-5.263-1.819-10.58-9.429-12.149-9.223-19.445.414-2.527 11.723-5.51 17.327-10.26 5.96 9.502 8.13 3.28 9.924-2.42z" id="134050"/>
    <path d="M158.497 373.128l5.564 5.712 2.164 17.81 4.486 5.99 8.816 1.858 3.96 8.665-17.328 10.26-11.723 5.51-4.937-1.411-9.074-8.301-10.329-.898-3.915-12.102-7.49-5.863 7.679.17 7.44-4.272-.472-6.795 4.497-10.415 12.95-3.408 7.712-2.51z" id="134853"/>
    <path d="M722.183 499.837l-11.666 2.356-9.348 5.142-1.86 6.76-10.18 4.673-6.56-11.72-17.768 3.17-1.863-5.636 11.335-4.067-10.75-9.666-5.95-11.52 4.496-2.421 12.846 8.383 2.408-9.492 5.406-2.245 8.82 15.284 16.096-9.635.18-6.26 7.442 21.36 6.916 5.534z" id="131407"/>
    <path d="M506.331 227.94l-4.864-15.973-7.92-2.193-4.395-2.087-1.564-8.855-4.653-6.24-11.52-10.288-16.923-29.737-7.137-4.169 1.54-6.901-3.731-6.254 6.053-10.672 5.258-13.91-8.944-6.549-2.307-18.063-4.28-6.13-4.199 2.537-8.52-5.363-3.358-6.805 4.777-3.841 4.55-31.92 10.865 8.309 6.838-.157 14.904 10.744 6.541 7.82 1.675 13.766-1.983 21.169-3.074 6.21 1.55 6.177 13.905 6.63.765 4.97-5.284 5.701-2.984 12.962 9.258 12.949 13.192 5.753 14.329 21.313 3.524 8.06 7.007.187 8.247 11.235-2.196 8.287-6.236.946-18.706 20.383z" id="135315"/>
    <path d="M390.123 509.015l4.841 15.866 7.023 7.64 18.37 6.057-19.19 10.31-1.041-8.43-7.12-4.623-12.34.666-11.853 9.62-6.467 17.31-10.524-3.8 2.893-22.77 19.019-19.848 3.325-9.68-5.002-6.249 8.49-4.852 9.576 12.783z" id="130678"/>
    <path d="M188.385 340.094l-.139 7.698 3.514 13.744-11.067 6.514-1.46 5.008-9.816-4.296-2.956-7.209-.69-9.531-3.71-13.544-8.366-12.644 11.779-9.46 8.452 3.855 4.27 10.055 10.189 9.81z" id="132805"/>
    <path d="M179.232 373.058l8.618 16.796 10.04 12.957 8.194 6.749 1.416 13.965-9.923 2.42-8.131-3.28-5.96-9.502-3.959-8.666-8.816-1.857-4.486-5.99-2.164-17.81-5.564-5.712 7.35 1.19 3.57-5.556 9.815 4.296z" id="131274"/>
    <path d="M397.991 406.967l-1.647 8.762-6.233 1.71-10.255 7.824-2.455 4.318-3.646 16.057-5.552 7.807-12.099 2.954-5.05-4.536 5.78-6.603-10.036-10.928 5.651-1.077 5.757-12.48-4.11-5.797-5.32-13.288 6.17-6.73 1.042-7.836 3.244-3.45 5.588 7.497 15.41-8.88 2.969 21.397 14.792 3.28z" id="131461"/>
    <path d="M155.814 282.5l2.193 18.4 7.467 15.474-11.779 9.46 8.367 12.644 3.708 13.544.691 9.531 2.956 7.21-3.57 5.555-7.35-1.19-7.711 2.51-8.066-3.536-11.454-11.474-2.657-8.017-5.181-4.45-7.186-1.396.138-8.207-3.986-5.667 2.96-13.069-15.767-11.091 6.862-10.19-2.628-11.053 19.82 1.643 7.593 2.542 4.244 5.962 8.444-10.853 11.892-4.281z" id="131103"/>
  </g>
</svg>
