<svg xmlns="http://www.w3.org/2000/svg" version="1.2" baseProfile="tiny" stroke-linecap="round" stroke-linejoin="round" viewBox="0 0 800 652">
  <g id="SB" fill="none" stroke="#aaa">
    <path d="M404.896 526.615l-3.752 14.177-7.693 1.698-2.322 13.643 1.067 13.8-5.936 12.36-1.534 12.063 8.724 10.182-5.173 10.388-16.903-3.539-14.323 19.656-14.206 2.08-4.475 5.196-14.306 1.391-6.604-2.157-9.962 2.489-20.113-.693-4.206-10.881 3.213-16.153 10.08-7.198 5.367-10.688 16.853-3.718 10.84 2.466 26.222-9.685 6.349-6.399 5.342-14.06-4.175-6.25 8.885-6.323.489-8.238 4.956-7.87 15.177-3.51 7.2-8.397 4.92 4.17z" id="146021"/>
    <path d="M243.687 564.973l-15.502.282-10.84 8.773-7.315-4.561 17.93-19.726 15.343-7.853-1.997-9.406 28.513-5.434 7.277-6.634 9.95-2.374 1.839 16.723-8.32 7.261-7.53 14.249-9.754 1.697-6.018-2.726-13.576 9.73z" id="145382"/>
    <path d="M464.131 581.846l-16.958 6.126-19.704-.251-9.4 8.01-24.62 8.807-8.723-10.182 1.534-12.062 5.936-12.36-1.067-13.801 2.322-13.643 7.693-1.698 3.752-14.177 17.546-15.641 10.924 3.059 5.397 8.058 4.636 22.97 10.407 9.941 7.754 13.273 2.571 13.57z" id="145934"/>
    <path d="M243.687 564.973l-4.743 12.02L226.5 599.68l2.924 13.242-2.214 8.901-8.553 1.899-25.725-5.022-10.378 5.76-21.812 2.363-5.361-7.85-17.14 2.943 4.651-10.793-1.423-9.158 3.892-8.594 17.053-9.602 13.179-4.329 6.728-8.156 20.132-3.941 7.577 2.125 7.315 4.561 10.84-8.774 15.502-.28zm165.003-76.925l4.516 12.367 7.466 4.758 1.77 5.8-17.546 15.642-4.918-4.17-7.201 8.398-15.177 3.51-4.956 7.869-.489 8.238-8.885 6.323 4.175 6.25-5.342 14.06-6.35 6.4-26.222 9.683-10.84-2.465-16.852 3.718-5.366 10.688-10.081 7.198-3.213 16.153 4.206 10.88-24.495-8.32-1.124-12.893 6.025-7.877 10.403-4.414 10.734-23.43 5.61-3.525 3.599-9.258 8.595-7.432 19.76-5.32 8.555-13.76 4.864-15.133 9.614.259 1.092-10.112 11.28-1.427 2.902-12.075 16.06-10.879 19.094-5.605 8.737-.099z" id="145827"/>
    <path d="M491.288 583.196l-27.157-1.35-2.571-13.571-7.754-13.273-10.407-9.94-4.636-22.97-5.397-8.06-10.924-3.058-1.77-5.801-1.178-6.523 13.042-8.995 16.416-3.37 13.01 7.743-1.798 12.74 5.72 4.523 10.436 1.167 8.083 4.612 2.979 6.112-12.186 11.051-1.54 9.413 6.265 18.657 2.966 15.517 8.401 5.376z" id="145355"/>
    <path d="M359.388 486.543l7.582 6.384-2.171 11.704-2.902 12.075-11.28 1.427-1.092 10.112-9.614-.259-4.864 15.133-8.554 13.76-19.76 5.32-8.596 7.432-3.599 9.258-12.221 1.699-3.239-11.007 8.948.822 3.561-5.199 15.187-5.523 4.296-8.37.53-16.647-6.285-5.425 4.882-7.688 18.332-5.746 3.648-7.49-4.461-5.503-2.052-10.447 6.88-12.221 7.554-1.63L354.73 488.6l4.658-2.057z" id="145471"/>
    <path d="M589.518 439.412l2.705 4.81-3.675 8.076 5.251 16.497.602 25.664 11.861 38.395 2.238 3.55 2.662 23.553 2.696 6.252-27.795 6.207-15.41 11.78 2.955-19.87-1.288-20.154-12.684-28.215 1.277-11.238-1.838-11.127 3.347-13.449-1.229-6.726 3.501-20.182-2.848-16.57 6.637-1.037 21.035 3.784z" id="144535"/>
    <path d="M359.388 486.543l-4.658 2.057-14.632-10.087-7.554 1.63-6.88 12.222 2.052 10.447 4.46 5.503-3.647 7.49-18.332 5.746-4.882 7.688 6.284 5.425-.529 16.646-4.296 8.371-15.187 5.523-3.561 5.2-8.948-.823 3.239 11.007 12.221-1.7-5.61 3.526-10.734 23.43-10.403 4.414-6.025 7.877 1.124 12.893-18.05-8.293-6.157 4.304-11.473-5.217 2.214-8.901-2.924-13.242 12.444-22.686 4.743-12.02 13.576-9.729 6.018 2.726 9.754-1.697 7.53-14.249 8.32-7.26-1.839-16.724-4.896-14.491 2.124-10.18 10.24-17.662 7.863-2.538 1.571-14.778 15.067-9.802 4.232-20.521 4.614-3.557.86 10.782 4.389 7.028 13.496 11.14 13.596 24.013-.814 9.07z" id="143735"/>
    <path d="M243.986 427.656l-3.289 1.76-4.757 14.4-9.306 2.158-16.843 14.877-16.418 4.253-6.426 3.876-14.762.9-13.09-1.502-4.572 7.37 8.142 2.839-3.8 8.177-14.987 10.817-7.72 7.832-.636 8.511-8.98 8.25-.634 6-12.83 7.415-13.67 2.286-2.348-3.359 2.918-13.179 5.653-9.908 13.73-10.197 5.583-19.352-1.816-6.003 21.804 1.58 12.662-12.213 9.888-1.372 7.594-7.94 11.175 5.497 7.088-5.028 9.558-13.19.203-11.312 6.417-3.874 4.143-9.893 4.983-.052 10.022-2.886 9.023 10.158 6.298 2.304z" id="145202"/>
    <path d="M518.954 399.144l1.466 12.252-2.793 11.14-12.38 6.125-5.78-3.741-7.472 4.162-5.092 7.803-9.405 6.888 8.707 11.593 11.152 20.936 5.26 25.172 1.131 15.527 4.928 12.105 9.48 11.593 2 15.663 12.456 20.397.583 4.38-14.27 10.52-3.794-8.534-9.79.393-6.882-7.196-7.17 6.874-8.402-5.376-2.966-15.517-6.265-18.657 1.54-9.413 12.186-11.051-2.979-6.112-8.083-4.612-10.436-1.167-5.72-4.523 1.799-12.74-13.01-7.744-16.417 3.371-13.042 8.995 1.178 6.523-7.466-4.758-4.516-12.367 3.084-1.555-10.085-23.622 10.802-13.166 20.07-8.131 11.877-10.736 10.574-6.766 7.041-8.516 8.32 4.888 12.136-6.923 10.1-1.466 2.448-6.725 10.548-6.571 9.279 4.047 4.07-3.661z" id="144054"/>
    <path d="M561.846 436.665l2.848 16.57-3.5 20.182 1.229 6.726-3.348 13.45 1.838 11.126-1.277 11.238 12.684 28.215 1.288 20.155-2.954 19.869-9.692-4.911-16.987 6.143-10.78-4.288-.583-4.38-12.457-20.398-2-15.663-9.479-11.593-4.928-12.105-1.13-15.527-5.26-25.172-11.153-20.936-8.707-11.593 9.405-6.888 5.092-7.803 7.472-4.162 5.78 3.741 12.38-6.125 2.793-11.14-1.466-12.252 15.465.012 9.694-6.611 7.215 10.763-8.843 10.163 3.751 12.8 7.427-6.156 8.673 12.406-.49 4.144z" id="145293"/>
    <path d="M204.912 497.479l-3.551 5.999 1.83 5.828-17.273-3.115-10.254 14.12 1.087 6.728-3.262 15.545-1.803 10.85-10.388 4.091-8.159 6.634-6.418-1.027 7.655-17.498-7.629-25.268 5.321-2.587 5.025-10.894 8.923-3.113 13.057 2.274 5.885-10.645-1.12-12.446 10.536 4.645 1.016 5.448 9.522 4.43zm37.24-28.3l2.594 3.092-6.052 16.477-13.553 7.438-4.475-1.943 10.927-9.79 4.177-9.809 6.382-5.466zm41.34-78.387l2.584 19.376-1.44 8.343-7.418 11.701-9.857 16.103-9.989-3.653 9.077-12.142-6.591-5.055-15.872 2.19-6.298-2.303-9.023-10.158-10.022 2.886 3.942-5.87 4.627-21.55 9.288 4.02 15.156-1.305 26.587 4.65 5.249-7.233z" id="143487"/>
    <path d="M110.593 580.284l4.262 17.104-1.972 3.582-16.672 12.516-8.41-3.045 4.587-10.916-2.224-4.308 15.032-12.132 2.272-4.682 3.125 1.88zM87.718 411.497l-3.987 9.807-2.52-7.47 6.507-2.337zm64.375-25.964l-1.519 5.954 4.794 16.4-15.312 22.897-16.73-2.368-17.151 5.971-1.39 4.945-16.185-2.759 4.112-14.797 9.75-7.51 8.79 3.212 6.69-4.226-1.774-10.839-12.605 2.244-7.172 5.223-5.448-8.245 4.869-12.127 12.999-5.834 15.028-1.803 7.444 10.06 9.478.161 11.332-6.56z" id="145907"/>
    <path d="M602.631 382.026l13.077 14.709-.551 3.774-3.516 7.098 3.949 25.27 10.785 22.204 4.176 14.726 5.004 7.358-2.376 15.833 3.377 18.005-3.293 6.088.57 13.756-5.146 5.025 3.02 20.214 5.81 9.99-8.103 7.872-7.547-7.064-8.01-.675-2.695-6.252-2.662-23.553-2.238-3.55-11.861-38.395-.602-25.664-5.25-16.498 3.674-8.075-2.705-4.81-1.966-16.87.706-14.094-8.984 1.803-5.53-7.765-13.042-2.582 9.036-8.41-6.592-17.782 8.444.599 6.911 6.7 24.13 1.014z" id="143959"/>
    <path d="M563.146 373.712l6.592 17.782-9.036 8.41 13.042 2.582 5.53 7.765 8.984-1.803-.706 14.095 1.966 16.87-21.035-3.785-6.637 1.037.49-4.144-8.673-12.406-7.427 6.156-3.751-12.8 8.843-10.163-7.215-10.763 14.154-19.948 4.879 1.115z" id="144508"/>
    <path d="M87.408 372.738l8.92-1.422 8.475 12.12 4.008.238-13 5.834-4.868 12.127 5.448 8.245-8.673 1.617-6.508 2.338-6.659 1.874-9.767-5.846-4.995-14.28 4.749-4.95L64.012 377l11.95 1.08 4.969-6.746 6.477 1.404z" id="145275"/>
    <path d="M297.92 357.21l.546 8.561-5.403 6.286-9.571 18.735-5.25 7.234-26.586-4.65-15.156 1.305-9.287-4.02-7.656-1.484.875-10.455 5.045-4.996 3.402-15.64 22.46-9.81 19.652 3.698 4.393 3.127 22.536 2.108z" id="145792"/>
    <path d="M145.36 593.37l-3.89 8.594 1.422 9.158-4.65 10.793-13.605-.866-8.365 3.104-11.705 14.234-14.482 4.006-2.964 3.604-11.695-1.18-13.91 2.897L58.835 626l5.299-8.044 10.808-6.497 12.86-1.018 8.41 3.045 16.672-12.516 1.972-3.582-4.262-17.104 12.759 1.83 5.863 7.219 16.145 4.037zm83.52-235.283l-3.403 15.639-5.045 4.996-.875 10.455 7.656 1.483-4.628 21.55-3.942 5.87-4.983.052-4.143 9.893-6.417 3.874-.203 11.313-9.558 13.19-7.088 5.027-11.175-5.497-7.594 7.94-9.888 1.372-12.662 12.213-21.804-1.58-4.81-8.431-33.466-19.677-.865-9.729 2.983-11.854-3.24-4.882 3.988-9.807 8.673-1.617 7.172-5.223 12.605-2.244 1.773 10.839-6.689 4.226-8.79-3.212-9.75 7.51-4.112 14.797 16.184 2.759 1.391-4.945 17.15-5.97 16.731 2.367 15.312-22.897-4.794-16.4 1.52-5.954 6.195-5.075 2.687-19.374-3.897-7.196 8.89-1.678 8.469-20.05 11.131-.547 5.53-6.995 11.078-2.881-3.65 21.589 2.443 11.963 9.06 5.008 7.394-4.989 11.455 2.779z" id="145499"/>
    <path d="M455.416 347.463l9.101 7.532-5.512 23.357 5.57 6.904 11.49 5.297 6.444 22.968-12.137 6.923-8.319-4.888-7.04 8.516-10.575 6.766-11.877 10.736-20.07 8.131-10.802 13.166-8.885-1.593-6.74-19.764 2.87-5.617-5.79-15.97-11.08-11.442 9.966-17.244.93-6.542-8.236-13.04-.625-9.818 9.07-16.463-3.369-11.174 3.573-6.936 16.249-11.57.209-3.084 13.934 20.814 1.834 8.936 10.297 8.736 10.731 2.602 3.409-5.565 15.38-.674z" id="145408"/>
    <path d="M540.119 314.35l9.021 12.188 13.928-1.089-.845 13.393-3.697 6.18 8.884 4.57-4.264 24.12-4.879-1.115-16.385-7.506-16.558-1.333-6.646-6.354-9.938 1.526-9.082-4.739 2.746-9.35 12.34-5.056 1.085-6.961 9.76-9.526-8.042-3.559 17.762-11.09 4.81 5.7z" id="144893"/>
    <path d="M286.19 307.94l15.055.468 6.418 10.002-7.776 20.947 1.174 10.765 4.435 3.697-7.576 3.39-22.536-2.108-4.393-3.127-19.653-3.698-22.459 9.81-11.455-2.778-7.393 4.989-9.06-5.008-2.445-11.963 3.65-21.59.81-1.273 6.282-5.922 11.848-17.81 6.54 4.076 8.828 12.195 25.633.715 2.195-8.638 9.568-2.088 12.31 4.95z" id="143851"/>
    <path d="M129.205 296.297l7.625 7.853 3.426 8.352-6.36 14.506 5.35 9.1 8.569 5.919 9.264 11.86 3.897 7.197-2.687 19.374-6.196 5.075-11.332 6.56-9.478-.161-7.444-10.061-15.028 1.803-4.008-.238-8.476-12.12-8.919 1.422-4.189-7.807 12.206-17.829 15.12-15.521-4.28-6.493-9.268 2.635-3.13-6.213-7.951-3.919 3.082-11.91 8.254-8.301 5.397 1.489 19.312-6.129 7.244 3.557z" id="144928"/>
    <path d="M406.737 284.796l1.323 13.693-2.212 10.243-6.017 3.882-.21 3.084-16.248 11.57-3.573 6.936 3.369 11.174-9.07 16.463-13.897-2.692-13.424 10.894-9.686-3.819-12.862.276-2.3-4.443-16.434-8.238-4.435-3.697-1.174-10.765 7.776-20.947 9.353-.585 10.77 8.574 7.985-6.947 22.281-6.53 9.053.867 11.231 5.45.804-14.191 10.411-4.725 6.266-9.025 10.92-6.502z" id="145765"/>
    <path d="M517.547 319.74l8.042 3.558-9.76 9.526-1.085 6.961-12.34 5.056-2.746 9.35 9.082 4.74 9.938-1.527 6.646 6.354 16.558 1.333 16.385 7.506-14.154 19.948-9.694 6.61-15.465-.01-4.07 3.661-9.279-4.047-10.548 6.571-2.448 6.725-10.1 1.466-6.444-22.969-11.49-5.296-5.57-6.904 5.512-23.357-9.1-7.532.925-8.837 11.058-1.957 13.53-16.702-5.653-6.531-6.758.385-9.325-8.95-.134-7.663-10.057-12.057 18.07-2.032 15.288 1.53.499 8.032 11.34 12.915 14.22 5.048 9.127 9.095z" id="145140"/>
    <path d="M422.986 273.75l19.667 5.08 6.35 6.32 10.057 12.058.134 7.663 9.325 8.95 6.758-.385 5.654 6.531-13.53 16.702-11.059 1.957-.926 8.837-15.38.674-3.409 5.565-10.73-2.602-10.298-8.736-1.834-8.936-13.934-20.814 6.017-3.882 2.212-10.243-1.323-13.693 1.185-6.66 15.064-4.385z" id="145998"/>
    <path d="M167.359 276.11l-5.775 18.11 6.228 13.623 5.399 5.05 17.496-1.03 9.88 3.795 2.4 4.805-.81 1.274-11.079 2.88-5.529 6.996-11.131.547-8.47 20.05-8.889 1.678-9.264-11.861-8.57-5.92-5.349-9.099 6.36-14.506-3.426-8.352-7.625-7.853 6.773.474 6.572-13.951 11.346-14.187 13.463 7.477z" id="143922"/>
    <path d="M571.303 273.17l3.913-2.968 17.393-.73 10.82 3.828-1.333 12.772 6.675 2.748 9.869-3.778 21.699-.68 8.702 3.11-1.857 6.89-14.98 5.481-4.052 8.227-22.988 9.452-2.81 28.54 4.86 15.126-4.583 20.838-24.13-1.014-6.911-6.701-8.444-.599 4.264-24.12-8.884-4.57 3.697-6.18.845-13.393-13.928 1.09-9.021-12.19 16.596-11.34 13.005.076 1.593-18.214-9.237-.446-12.52-4.301-2.687-8.14 2.803-6.638 8.632 7.864 12.999-.04z" id="144456"/>
    <path d="M203.311 262.164l1.022 7.598 14.602 18.035 2.181 8.935-11.849 17.809-6.28 5.922-2.4-4.805-9.88-3.794-17.496 1.029-5.4-5.05-6.227-13.624 5.775-18.109 1.74-10.622 8.65.193 14.86-8.362 10.702 4.845z" id="144866"/>
    <path d="M407.922 278.137l-1.185 6.659-10.92 6.502-6.266 9.025-10.41 4.725-.805 14.191-11.231-5.45-9.053-.867-22.28 6.53-7.987 6.947-10.77-8.574-9.352.585-6.418-10.002-15.055-.467-1.157-14.73 12.772-13.651 6.236-23.708 8.814-8.4 8.031-3.9 8.9 2.59 12.166-6.071 28.184 6.574-2.06 13.322-7.536 4.178-2.643 9.27 5.707 4.51 10.416-1.57 9.058 3.595 15.57 1.214 9.274-3.027z" id="145603"/>
    <path d="M491.09 239.935l2.65 22.93 16.282.62 6.368-3.65 14.302 1.172 8.222-2.93 10.758 7.269-2.803 6.637 2.687 8.14 12.52 4.302 9.237.446-1.593 18.214-13.005-.076-16.596 11.34-4.81-5.7-17.762 11.09-9.128-9.095-14.219-5.048-11.34-12.915-.499-8.031-15.288-1.53-6.042-13.964 8.53-6.36 1.923-8.323 7.556-11.705 12.05-2.833z" id="143888"/>
    <path d="M312.855 247.451l-8.814 8.401-6.236 23.708-12.772 13.651 1.157 14.73-12.31-4.95-9.568 2.088-2.195 8.638-25.633-.715-8.829-12.195-6.539-4.075-2.18-8.935-14.603-18.035-1.022-7.598 6.755-.709 17.523-19.442 14.858-5.806 6.826 5.099 21.194 4.906 1.43-9.168 8.634 4.495 12.348-12.085 4.202 6.568 7.132 1.934 8.642 9.495z" id="144795"/>
    <path d="M707.133 258.002l-6.244 2.365-13.594-2.1 1.292 11.405-11.714 16.62-1.273 5.547-16.115-9.03-10.444 4.664-8.702-3.112 2.936-13.75-7.178-5.195-.952-12.394-6.634-5.776 4.755-12.167 6.809-4.967 11.58-7.564 5.943-7.804 11.38-.722 12.083 7.93 6.885.292 10.651 12.243 8.536 23.515z" id="144964"/>
    <path d="M495.587 213.31l2.737 6.117 12.688 7.288-6.823 14.428-13.099-1.208-12.05 2.833-7.556 11.705-1.924 8.323-8.53 6.36 6.043 13.963-18.07 2.032-6.35-6.322-19.667-5.078 4.977-6.892-3.92-5.798-2.101-17.234-4.642-9.042 3.815-11.729 8.835-8.959.845-6.946 14.582.587 16.548 6.574 5.103-5.23 9.364-5.936 7.632 9.378 11.563.787z" id="145042"/>
    <path d="M340.454 187.973l30.293 14.02 10.895-.49 10.158 4.142 14.649 11.725 14.666 5.686-3.815 11.73 4.642 9.04 2.101 17.235 3.92 5.798-4.977 6.892-15.064 4.386-9.274 3.027-15.57-1.214-9.058-3.596-10.416 1.571-5.707-4.51 2.643-9.27 7.536-4.178 2.06-13.322-28.184-6.574-12.165 6.071-8.9-2.59-8.032 3.9-8.642-9.496-7.132-1.934-4.202-6.568 8.324-11.114 13.706-8.773 13.28-2.818 5.583-5.627 6.682-13.149z" id="145667"/>
    <path d="M612.309 181.32l-.291 7.896 8.069 14.775 1.376 8.678 18.612 17.443-6.81 4.967-4.754 12.167 6.634 5.776.952 12.394 7.178 5.195-2.936 13.75-21.699.68-9.869 3.779-6.675-2.748 1.332-12.772-10.819-3.828-17.393.73-3.913 2.968-6.195-22.815-5.065-3.488 7.713-19.216 8.247 1.178-1.634-12.391 2.8-13.258 7.391-10.673 10.871.277 5.972-7.803 10.906-3.661z" id="143682"/>
    <path d="M577.168 203.18l-2.799 13.258 1.634 12.39-8.247-1.177-7.713 19.216 5.065 3.488 6.195 22.815-12.999.04-8.632-7.864-10.758-7.27-8.222 2.931-14.302-1.171-6.368 3.649-16.283-.62-2.649-22.93 13.099 1.208 6.822-14.428-12.687-7.288-2.738-6.116 7.39-9.473 15.99-14.03 4.653-6.26 4.058-3.973 11.551-1.353 15.304 1.661 4.507 10.365 18.13 12.932z" id="144232"/>
    <path d="M687.966 166.023l5.126-1.382 16.57 20.402 9.181-5.053 3.597 11.564-9.622 8.213 9.677 16.897 9.93 6.333 4.124 6.612-19.97 3.887 3.468 8.24 7.571 7.419-1.838 7.352-18.647 1.495-8.536-23.515-10.651-12.243-6.885-.291-12.082-7.93-11.381.721-5.943 7.804-11.58 7.564-18.612-17.443-1.376-8.678-8.069-14.775.29-7.896 12.309-.564 8.315 2.37 16.79-12.53 7.446 4.01 3.19-6.075 14.7-4.833 12.908 2.325z" id="144651"/>
    <path d="M340.454 187.973l-6.682 13.15-5.584 5.626-13.279 2.818-13.706 8.773-8.324 11.114-12.348 12.085-8.634-4.495-1.43 9.168-21.194-4.906-6.826-5.099.524-.257 3.602-1.483.889-13.589 11.423-9.795-4.14-7.394 7.403-2.658 8.396-4.236 16.991 3.842 3.948-7.032 6.435 5.38 5.858-6.298 4.915-13.2 1.598-14.734 13.442-.635 14.569-14.616-1.733 16.407 5.356 12.925-1.47 9.139z" id="145738"/>
    <path d="M431.472 161.561l7.223 9.589 14.402 9.8 4.337-3.26 5.824 4.451 2.812 9.966-4.376 11.604 5.334 5.372-5.103 5.23-16.548-6.575-14.582-.587-15.33-23.657-11.95 1.86-2.56-8.47-7.74-.202-4.026-8.623-.88-15.404 20.263-4.673-.026 6.812 22.926 6.767z" id="145961"/>
    <path d="M359.043 137.773l10.073.677 19.193 14.205.88 15.404 4.026 8.623 7.74.202 2.56 8.47 11.95-1.86 15.33 23.657-.845 6.946-8.835 8.96-14.666-5.687-14.649-11.726-10.158-4.14-10.895.49-30.293-14.021 1.47-9.14-5.357-12.924 1.733-16.407-2.268-5.21 8.603-4.514 14.408-2.005z" id="144116"/>
    <path d="M470.897 130.49l5.918 9.125 9.58 4.772 7.958-5.996 8.943 9.67-10.168.791 3.312 10.342 11.468 10.113 5.385 8.664 6.105-.925 4.22 6.501-4.653 6.262-15.99 14.029-7.389 9.473-11.562-.787-7.632-9.378-9.364 5.937-5.334-5.372 4.376-11.604-2.812-9.966-5.824-4.45-2.34-8.387 3.84-12.358 5.98-8.909-7.929-2.3-3.99-11.827 15.015-5.45 2.887 2.03z" id="145104"/>
    <path d="M379.717 117.45l6.501 7.5 11.48 5.72 10.452 1.007 13.054 8.966 5.882 7.743 4.386 13.175-22.926-6.767.026-6.812-20.263 4.673-19.193-14.205-10.073-.677 10.11-22.242 10.564 1.918z" id="143771"/>
    <path d="M367.528 108.093l1.626 7.438-10.111 22.242-14.408 2.005-8.603 4.513 2.268 5.21-14.57 14.617-13.44.635-1.599 14.733-4.915 13.201-5.858 6.297-6.435-5.38-3.948 7.033-16.991-3.842-8.396 4.236-2.91-18.36 10.096-14.326 8.322-3.677 9.906-13.76 5.43-3.305 3.829-9.495 7.15-4.197 11.759-11.682 15.446 1.557 13.649-6.916 9.95-7.766 12.753-1.011z" id="144991"/>
    <path d="M421.99 93.89l6.755 15.916-7.882 7.043 4.903 9.376 7.42 5.785.554 9.691-6.654 6.685-5.882-7.743-13.054-8.966-10.452-1.006-11.48-5.721-6.5-7.5 12.859-10.177 4.675-14.993 11.029 2.083 13.71-.472z" id="143646"/>
    <path d="M494.353 138.391l-7.958 5.996-9.58-4.772-5.918-9.125-6.527-13.98 6.383-5.64-.233-14.873 2.57-8.398 13.213 4.034 2.453-9.427 11.83-5.15 3.34-4.7 3.193-.435 6.15 11.95-8.355 19.556 1.845 8.798-6.16 17.531-6.246 8.635z" id="144349"/>
    <path d="M453.157 72.948l9.974 13.298 9.96 1.353-2.57 8.398.232 14.873-6.383 5.64 6.527 13.98-2.887-2.03-15.016 5.45 3.991 11.827 7.929 2.3-5.98 8.91-3.84 12.357 2.34 8.386-4.337 3.26-14.402-9.8-7.223-9.589-4.386-13.175 6.654-6.685-.554-9.691-7.42-5.784-4.904-9.377 7.883-7.043-6.755-15.915 3.863-10.25 6.58 1.586 4.108-10.203 13.49-7.975 3.126 5.899z" id="143619"/>
    <path d="M529.418 66.9l5.99 21.286 8.69 6.694-1.656 13.037-5.2 8.479 1.697 5.581-14.461 10.83-9.322 4.373.254 6.78-12.113 4.102-8.944-9.67 6.247-8.636 6.159-17.531-1.845-8.798 8.355-19.557-6.15-11.95 13.245-5.97 9.054.95z" id="143995"/>
    <path d="M454.632 31.904l4.83 31.475-6.305 9.569-3.125-5.899-13.49 7.975-4.11 10.203-6.579-1.587-5.685-6.807-4.14-19.046 2.735-9.216-.866-23.695 8.291 2.714 9.102-2.185 4.604 3.987 8.99-3.486 5.748 5.998z" id="144303"/>
    <path d="M531.813 36.158l2.09 8.356 11.803 10.38-2.372 4.079-13.916 7.927-9.053-.95-13.246 5.97-3.193.435-13.019-9.3-4.465-13.858 9.58-26.203 17.163-2.482 13.933 2.497 4.695 13.15z" id="146012"/>
    <path d="M496.022 22.994l-9.58 26.203 4.465 13.858 13.02 9.3-3.341 4.701-11.83 5.15-2.453 9.427-13.212-4.034-9.96-1.353-9.974-13.298 6.305-9.569-4.83-31.475 8.917 2.88 5.634-8.008 6.7 1.097 5.275-7.637 7.83-1.923 7.034 4.681z" id="144553"/>
    <path d="M592.127 27.2l-12.701 5.143-.891 9.532 4.16 3.368 3.597 11.32-1.056 8.306-16.953 17.124 1.54 17.683-23.52-9.293-10.895-2.197-5.99-21.286 13.916-7.927 2.372-4.078-11.803-10.381-2.09-8.356 10.4-9.337 11.34 2.88 1.877-7.668 13.937 1.817 3.621-7.611 13.193-4.345 5.946 15.305z" id="143806"/>
    <path d="M619.79 45.419l-5.958 9.442-9.025 4.964-5.751 10.441.647 10.464-7.784 10.395-7.4 15.145.422 11.684-5.784 2.248-9.593-12.456.26-8.07-1.541-17.683 16.953-17.124 1.056-8.306-3.597-11.32-4.16-3.368.89-9.532 12.702-5.144 12.914 1.15-.515-7.046L616.68 6.652l12.824-1.603-.473 5.187 5.787 20.168-4.185 18.151-10.843-3.136z" id="144615"/>
    <path d="M417.897 24.876l.866 23.695-2.735 9.216 4.14 19.046 5.685 6.807-3.863 10.25-13.71.473-11.028-2.084-4.675 14.994-12.86 10.177-10.563-1.92-1.626-7.438 2.086-6.167-4.626-11.254-10.72-4.506-.383-9.183 5.759-17.917-4.127-7.993 10.072-8.25 11.915 1.297 11.413-8.182-8.434-4.515 17.205-5.314.578-10.889 4.538-8.08L412.344 1l5.553 23.876z" id="144152"/>
    <path d="M569.824 99.676l-.26 8.07 9.593 12.456 5.784-2.248-7.082 21.658 3.518 9.978-3.222 11.753 5.37 12.762 6.645 8.128-5.61 10.274-7.392 10.673-18.13-12.931-4.506-10.366-15.304-1.661-11.551 1.353-4.058 3.972-4.22-6.501-6.106.925-5.385-8.665-11.468-10.112-3.313-10.342 10.17-.79 12.113-4.103-.254-6.78 9.322-4.373 14.46-10.829-1.695-5.581 5.199-8.48 1.656-13.036-8.69-6.694 10.895 2.197 23.52 9.293z" id="144198"/>
    <path d="M619.79 45.419l9.333 5.69 5.974 8.62 3.19 12.69-.266 13.523-4.82 12.566 3.185 16.396-6.539 8.779 4.946 7.517-2.804 19.488 11.145 9.236 6.587 10.672-16.79 12.53-8.314-2.37-12.308.564-10.906 3.661-5.972 7.803-10.871-.276 5.61-10.275-6.644-8.128-5.37-12.762 3.221-11.752-3.518-9.98 7.082-21.657-.423-11.684 7.401-15.144 7.784-10.396-.647-10.464 5.75-10.44 9.025-4.965 5.959-9.442z" id="144731"/>
    <path d="M736.55 229.609l-4.124-6.612-9.93-6.334-9.678-16.897 9.622-8.212-3.597-11.564-9.182 5.053-16.569-20.402-5.126 1.382 3.645-12.502 17.42 7.68 6.943-1.261 13.723-10.508 12.271-3.267 21.45 3.988.179 12.375 10.072 9.718 12.729-.423L799 183.556l-18.938 17.658-12.214 5.252-6.23-2.708-12.917 10.248-5.56 16.133-6.592-.53z" id="144376"/>
    <path d="M615.157 400.51l.551-3.775-13.077-14.71 4.584-20.837-4.861-15.126 2.81-28.54 22.988-9.452 4.053-8.227 14.98-5.48 4.324 3.379 4.484 26.632 20.567 15.818 11.53 7.019 3.11 5.842-1.832 17.593-11.018-1.978-15.771 4.22-2.424 13.806-7.753 3.303-6.35-11.054-21.71 10.098-9.185 11.468z" id="144410"/>
    <path d="M206.37 522.707l-.034 11.237-9.45 3.241 2.066-7.904-3.724-13.18 7.963-6.795-1.83-5.828 4.216 4.533-2.247 3.79-1.188 11.238 4.229-.332zM374.1 361.841l.625 9.819 8.236 13.04-.93 6.54-9.966 17.245-7.657 3.657-10.272-.97-3.602 3.666-12.515 2.3-10.157 7.373-4.614 3.557-4.232 20.521-15.067 9.802-1.571 14.778-7.862 2.538 4.408-11.111-2.707-3.62-14.656.302-4.546-15.593.204-15.473 7.418-11.701 1.44-8.343-2.584-19.376 9.571-18.735 5.403-6.286-.546-8.562 7.576-3.39 16.435 8.238 2.3 4.443 12.861-.276 9.686 3.82 13.424-10.894 13.897 2.691z" id="143450"/>
    <path d="M203.19 509.306l-7.962 6.794 3.724 13.181-2.066 7.904-11.855.49-4.932 6.048-6.61-1.139 3.262-15.545-1.087-6.727 10.254-14.12 17.273 3.114zm11.869-13.005l-2.84 4.065-5.848 22.341-4.23.332 1.189-11.237 2.247-3.791-4.216-4.533 3.551-6 10.147-1.177zm66.5-35.023l-7.204 7.956-14.475 2.354-11.744-7.7-3.39 8.383-2.594-3.093 6.884-21.837 8.336-4.679 9.99 3.653 9.856-16.103-.204 15.473 4.546 15.593z" id="143502"/>
    <path d="M294.515 475.707l-10.24 17.661-2.125 10.18 4.896 14.492-9.95 2.374-7.277 6.634-28.513 5.434 1.997 9.406-15.344 7.853-17.93 19.726-7.576-2.125-20.132 3.941-6.728 8.156-13.18 4.329-17.053 9.602-16.145-4.037-5.863-7.22 5.095-7.402 7.871-1.048 10.403-10.53 6.418 1.026 8.159-6.634 10.388-4.09 1.803-10.85 6.61 1.137 4.932-6.047 11.855-.49 9.45-3.241.035-11.237 5.848-22.341 2.84-4.065 5.607-2.058 4.475 1.943 13.553-7.438 6.052-16.477 3.39-8.383 11.744 7.7 14.475-2.354 7.205-7.956 14.656-.302 2.707 3.62-4.408 11.111z" id="143520"/>
    <path d="M242.971 235.95l-.524.257-14.858 5.806-17.523 19.442-6.755.71-10.702-4.846-14.86 8.362-8.65-.193-5.335-1.3-1.317-14.442-4.862-4.278 2.765-12.768-3.827-8.963 23.93-26.636 12.792 2.743 5.47-6.113 5.436 7.688 20.65 4.775 13.104 13.124-1.975 3.067 7.041 13.565z" id="145220"/>
    <path d="M59.79 395.583l4.994 14.28 9.767 5.846 6.66-1.874 2.52 7.47 3.239 4.88-2.983 11.855.865 9.729 33.466 19.677 4.81 8.431 1.816 6.003-5.582 19.352-13.73 10.197-5.654 9.908-2.918 13.18 2.349 3.358 9.474 14.914-2.5 17.685 1.085 7.93-2.272 4.68-15.032 12.133 2.224 4.308-4.586 10.916-12.861 1.018-10.808 6.497-5.3 8.044 2.684 21.714-19.255 3.195-7.498-13.952-1.831-13.09-21.18-30.903 4.529-14.258 6.74-6.179 9.31-.6 1.883-7.132-6.733-11.93-1.65-13.432 6.652-1.213-.561-8.884-10.235-15.205-16.122-9.686L2 498.908l11.4-11.176L1 478.757l9.5-12.513-1.447-5.634 10.283-9.872-1.79-5.895 6.825-8.516 12.88 3.145 5.614-9.799-11.896-14.337-9.462-4.372 1.524-9.326-4.428-6.084 5.917-4.65 13.48.242 21.79 4.437z" id="144713"/>
    <path d="M257.372 442.662l-8.336 4.679-6.884 21.837-6.382 5.466-4.177 9.808-10.927 9.79-5.607 2.06-10.147 1.177-9.522-4.431-1.016-5.448-10.536-4.645 1.12 12.446-5.885 10.645-13.058-2.274-8.922 3.113-5.025 10.894-5.32 2.587 7.628 25.268-7.655 17.498-10.403 10.53-7.87 1.049-5.096 7.402-12.759-1.83-3.125-1.88-1.085-7.93 2.5-17.684-9.474-14.913 13.669-2.287 12.83-7.415.635-6 8.98-8.25.635-8.51 7.72-7.833 14.988-10.817 3.799-8.177-8.142-2.839 4.572-7.37 13.09 1.502 14.762-.9 6.426-3.876 16.418-4.253 16.843-14.877 9.306-2.158 4.757-14.4 3.289-1.76 15.872-2.191 6.59 5.055-9.076 12.142z" id="144599"/>
    <path d="M372.064 408.485l11.08 11.442 5.79 15.97-2.87 5.618 6.74 19.763 8.885 1.593 10.085 23.622-3.084 1.555-8.737.099-19.093 5.605-16.061 10.879 2.171-11.704-7.582-6.384.814-9.07-13.596-24.013-13.496-11.139-4.388-7.028-.86-10.782 10.156-7.373 12.515-2.3 3.602-3.665 10.272.969 7.657-3.657z" id="143557"/>
  </g>
</svg>
