<svg xmlns="http://www.w3.org/2000/svg" version="1.2" baseProfile="tiny" stroke-linecap="round" stroke-linejoin="round" viewBox="0 0 800 522">
  <g id="SJ" fill="none" stroke="#aaa">
    <path d="M332.574 476.107l-3.279 6.67-8.007 5.238-3.029 7.641-10.64-12.384-11.192-7.934-16.046-1.077-.763-4.26-22.21-5.81-11.703-15.395-8.575-4.313-2.353-28.243.596-4.462 12.794-5.982-1.684 6.406 14.49 6.559 10.086 10.173 4.18 11.572 28.697 3.822 3.498-3.874 16.162 9.112 18.108-3.767 3.368 11.029-5.07 12.303-7.428 6.976z" id="141081"/>
    <path d="M355.031 390.674l19.834 8.428 18.242 31.395-5.092 14.127 7.173 3.085-3.23 17.914 5.773 8.416-10.251 12.679 2.343 12.675-17.87 17.278-17.677 3.88-11.597-12.1.34-9.505 5.379-10.16-15.825-12.68 7.43-6.975 5.069-12.303-3.368-11.03-18.108 3.768-16.163-9.112-3.497 3.874-28.697-3.822-4.18-11.572-10.086-10.173-14.49-6.559 1.684-6.406 3.012-2.916 7.516 3.302 4.046-8.906 8.543-7.906 7.908-2.615 5.95 7.705 4.792-3.255 7.374 10.696 6.354-1.874 2.815-14.006 10.22 8.275 8.386-4.896 9.534 3.121 8.922-2.865 11.492 1.018z" id="139982"/>
    <path d="M416.203 389.901l8.363 9.649.27 6.996 13.802 14.029 3.927 8.654 8.95-.915 11.403 13.094 14.627-.109 5.915 4.045 16.615 5.484 8.065 6.529-9.335 4.994 5.129 5.54-9.802 8.687-7.579-5.402-7.474 2.97-12.319 10.56-8.815-3.224-11.583-14.148.031-18.743-10.301-7.082-1.044-10.08-8.415 5.31-3.676 11.207 5.89 6.44-13.164 6.834 3.533 18.977 5.61 7.413-12.491 9.931-1.378 8.803-6.144-.448-6.752-6.522-8.238.02-2.343-12.676 10.251-12.68-5.772-8.415 3.23-17.914-7.174-3.085 5.092-14.127-18.242-31.395-19.834-8.428 3.766-10.05 8.813-1.613 14.694 8.988 8.224 1.881 8.07-4.025 17.605 4.046z" id="140869"/>
    <path d="M473.705 380.368l8.005 4.521 8.29 13.207 5.851-.566 13.682 7.027 3.89 6.636-10.884 13.67 13.666 5.528 8.36 7.675-5.178 9.8-11.247 9.49-8.065-6.528-16.615-5.484-5.914-4.045-14.628.11-11.403-13.095-8.95.915-3.927-8.654-13.801-14.029-.27-6.996-8.364-9.649 6.043-12.075 16.197 3.482 13.09-.71 8.959 4.28 13.213-4.51z" id="143147"/>
    <path d="M473.705 380.368l-13.213 4.51-8.959-4.28-13.09.71-16.197-3.482-6.043 12.075-17.604-4.046-8.07 4.025-8.225-1.88-14.694-8.99 5.668-11.236 16.992-2.176 5.953-7.632-7.232-4.876.32-8.424 13.468-9.985 11.738 3.785 13.385-10.054 6.902 1.506 21.416 15.536 9.688 10.049.202 5.679 11.714 4.201-8.78 9.474 4.66 5.51z" id="142676"/>
    <path d="M516.205 430.39l-13.666-5.528 10.883-13.669-3.89-6.636-13.68-7.027.383-6.365 7.677-6.144 3.493-13.436-14.962-22.274.059-8.685 6.245-1.583 25.908 11.584 7.993-7.091 6.575-14.518 6.295 1.179 7.681-5.774 8.874 7.645 2.598 13.799 9.48 1.918 11.408 21.12-11.885 11.814 3.457 6.382-7.254 3.673.802 6.78-18.15 5.906-1.902 4.509-14.626-1.512-1.226 11.093-11.026-.15 1.053 9.462-8.597 3.529z" id="141027"/>
    <path d="M371.353 331.641l4.495-.434 13.463 13.459-.32 8.424 7.232 4.877-5.953 7.63-16.992 2.177-5.668 11.237-8.813 1.613-.847-11.395 8.257-12.8-10.725-1.313-2.84-4.783-20.891-23.163-9.608-1.069-10.41-13.456-8.571-1.837 5.15-7.843 8.794 6.702 11.403 1.714 10.875 10.856 20.087 8.73 11.882.674z" id="139937"/>
    <path d="M169.022 291.511l-.15 11.602 7.221 17.129 24.198-1.43-3.06 12.608-7.807 15.437 2.347 13.731-4.4 5.896 7.076 7.536-2.766 14.003 4.223 7.015-6.172 9.274-15.75 4.67-8.494-10.567-15.638-12.293-9.564-4.534-16.538-3.538-9.587-19.221 5.767-5.38 13.302-3.336 8.004-8.582-6.934-9.623 8.436-8.599.103-11.784 6.27-1.52 6.741-8.469 5.49-14.6 7.682 4.575z" id="142612"/>
    <path d="M371.353 331.641l-11.882-.673-20.087-8.73-10.875-10.857-11.403-1.714-8.794-6.702 14.935-13.375 8.338-.876 9.004-5.238 4.119-8.464 10.734 4.666 11.881 15.071 8.308.317 7.353 10.335 1.745 11.27-14.112 2.318.736 12.652z" id="179631"/>
    <path d="M226.445 280.576l-2.814 11.688 1.444 14.641-16.456 5.26-8.328 6.648-24.197 1.429-7.223-17.129.151-11.602 12.483-4.898 8.22 2.327 4.249-8.262 10.722-7.838 14.184-1.46 7.565 9.196z" id="140208"/>
    <path d="M429.803 276.058l-8.535 20.288-.989 7.314 8.026 4.07 3.399 6.43-3.803 14.252-13.385 10.054-11.737-3.785-13.468 9.985-13.463-13.46-4.495.435-.736-12.652 14.112-2.318-1.745-11.27-7.353-10.334-8.308-.318-11.881-15.071-10.734-4.666 5.576-6.618 10.544-1.683 11.286 9.536 13.973 2.947 10.15-2.707-1.646-16.872-3.738-4.323 3.98-1.174 21.826 9.134 10.44 2.712 2.704 10.094z" id="142426"/>
    <path d="M113.585 250.362l5.163 17.277 13.088 1.778 6.352-2.384-7.145 8.329-.015 6.078-26.323 18.483-16.163 31.711 1.677 6.168-11.099.6-6.574-4.498-15.856-3.515-14.13-16.57-13.671-5.188-4.415-10.32-9.551-6.48 27.564-12.095 13.372-1.354 21.118-5.73 16.208-10.323 12.023-10.356 7.313-2.928 1.064 1.317z" id="142337"/>
    <path d="M293.694 230.686l6.738 3.076 12.684 4.669 5.31 10.627-4.49 13.908 7.773 11.363 1.538 15.261-14.935 13.375-5.15 7.843-2.107 4.136-4.36-2.506-9.683-13.628-11.151-11.42-16.718-4.602-.09-5.23-10.063-5.85.23-11.14 8.611-22.304 23.755 4.014 12.108-11.592z" id="142079"/>
    <path d="M583.552 241.49l4.918 7.25-2.27 6.475 7.457 9.504-.48 17.331 3.4 15.42-8.314-.16-4.209 11.214.998 11.488-18.886-1.497-4.338 3.998-7.025-4.899-6.21-7.69-8.51.255-6.506-10.026-5.83.25-19.805-14.465 5.49-13.044-3.802-13.7 6.794-6.111-5.171-6.88 4.913-4.898.123-14.142 15.49-4.688 18.422 11.508 18.586 3.335 6.802 6.422 7.963-2.25z" id="141232"/>
    <path d="M87.418 219.228l.666 5.68-9.81 6.98 4.006 5.796 25.162 2.04 5.079 9.32-7.313 2.93-12.023 10.355-16.208 10.323-21.118 5.73-13.372 1.354-7.595-5.127-2.34-19.336-5.568 2.035-3.163-16.742-14.706.083-4.072-10.957 17.025-1.23 5.25-5.083 10.329-.064 11.66-8.51 6.813 16.613 19.572-10.105 11.726-2.085z" id="141312"/>
    <path d="M641.413 202.574l-3.905 16.059 5.457 8.532-.195 9.81-9.99 7.72-5.876 1.499-10.37 13.67-9.841 4.704-13.036.15-7.457-9.503 2.27-6.474-4.918-7.251 7.106-28.348 7.014-8.199-2.997-10.603 14.339-1.316 9.745 5.32 4.79-1.884 17.864 6.114z" id="143067"/>
    <path d="M353.292 193.492l11.082 11.739 6.511-1.797 7.925 10.709-4.66 7.893 2.912 11.53-6.94 8.22 11.748 5.946 8.983 7.56 3.738 4.323 1.647 16.872-10.15 2.707-13.974-2.947-11.286-9.536-10.544 1.683-5.576 6.618-4.119 8.464-9.004 5.238-8.338.876-1.538-15.26-7.772-11.364 4.488-13.908-5.31-10.627-12.683-4.67 4.256-2.803 2.666-31.124-2.52-6.46 13.975 1.869 7.223 8.936 9.213-.39 3.447 2.486 3.698-9.125 3.33.14 1.951-5.82 5.62 2.022z" id="139704"/>
    <path d="M293.694 230.686l-12.108 11.592-23.755-4.014.38-7.241-16.15-8.818-8.909-1.489 13.449-14.978-2.148-5.816 13.984-10.587 9.665-4.22 11.057 13.779 7.191 18.981 6.48 4.927.864 7.884z" id="143021"/>
    <path d="M473.237 209.24l-1.467 16.256-10.144 6.172-2.29 6.349-16.54 9.566 2.507 5.206-7.315 9.621 6.76 5.532-1.646 5.55-13.299 2.566-2.703-10.094-10.441-2.712-21.827-9.134-3.98 1.174-8.982-7.56 2.46-6.536 13.283-4.048 8.013-6.228-8.752-18.006 8.843-14.189 10.475-4.352 12.301 1.338 6.745-.425 13.307-11.88 13.435 8.647 11.257 17.187z" id="140672"/>
    <path d="M594.675 194.34l2.997 10.603-7.014 8.199-7.106 28.348-7.963 2.25-6.802-6.422-18.586-3.335-18.422-11.508-6.679-28.64 16.085-1.86 8.816 5.383 12.331-9.886 6.61.67 12.066-12.972 4.216 9.525-.911 8.4 10.362 1.245z" id="140770"/>
    <path d="M671.746 173.682l5.699 2.632 3.79 9.727 6.035-.272.879 11.187-6.455 9.625-5.93 19.317-5.391 6.204 4.045 10.093-10.85 10.872-8.192 4.581-16.164-14.121-6.432 1.169 9.99-7.722.195-9.808-5.457-8.533 3.905-16.059-.047-10.225 12.384-15.81 8.488.604 9.508-3.461z" id="179695"/>
    <path d="M428.493 195.71l-12.3-1.337-10.476 4.352-8.843 14.189 8.752 18.006-8.013 6.228-13.282 4.048-2.462 6.536-11.747-5.947 6.94-8.22-2.912-11.53 4.66-7.892-7.925-10.71-6.511 1.798-11.082-11.74-.04-2.626-6.917.152-2.656-8.061 9.484-4.01 5.485 2.471 7.85-3.66 4.22-14.66 9.464.467 8.342-2.032 35.593 18.425 4.376 15.754z" id="142122"/>
    <path d="M91.007 159.511l13.2 4.013 5.903-.172 7.41 6.992-1.356 7.147 5.408 6.38-22.45 30.973-11.704 4.384-11.726 2.085-19.572 10.105-6.813-16.612 3.106-6.073-.942-14.572-5.08-.041.494-16.044 4.966-6.993 15.533-5.88 2.266-10.534 10.188 5.728 11.17-.886z" id="141722"/>
    <path d="M189.95 150.446l6.707 17.215 10.063 15.124-2.06 20.35 1.588 5.536-7.015 13.686-3.993 5.186-27.943-7.159-6.767 2.173-8.637-6.879-5.406-12.575-1.549-14.428 7.452-3.268-4.196-9.753-17.64 4.422-6.447-4.843 6.643-.884 21.758-10.559-1.669-5.028 12.995-9.52 18.272 11.633 5.433-9.314 2.41-1.115z" id="139884"/>
    <path d="M334.097 152.05l5.384-2.538 7.978 3.54 5.414 7.588 5.156-6.376 13.7 5.133-1.011 3.7-4.22 14.66-7.85 3.66-5.485-2.471-9.484 4.01 2.656 8.061 6.917-.152.04 2.627-5.62-2.023-1.952 5.822-3.33-.14-3.698 9.124-3.447-2.487-9.213.39-7.223-8.935-13.976-1.87 10.726-13.1 7.405-3.81-2.252-23.652 8.815-8.133 4.57 7.372z" id="140823"/>
    <path d="M222.745 136.545l15.053 15.556 12.713 5.144-2.623 8.443 12.18 14.615 4.35 1.061-5.981 7.971-13.984 10.587 2.148 5.816-13.449 14.978-16.559 6.858-17.36-5.217 7.015-13.686-1.588-5.536 2.06-20.35-10.063-15.124-6.707-17.215 11.894-2.847 6.41 7.247 5.457-2.466 9.034-15.835z" id="142284"/>
    <path d="M55.465 124.56l.278 8.54 4.923 4.88 8.984 16.69-2.266 10.534-15.533 5.879-4.966 6.993-.493 16.044 5.079.04.942 14.573-3.106 6.073-11.66 8.509-10.33.064-5.25 5.084-17.024 1.23L1 223.377l11.024-9.428-2.205-11.58 6.202-19.652 13.648-.575 10.35-14.706-1.092-28.768-1.92-10.324 7.034-9.283 11.424 5.497z" id="141946"/>
    <path d="M658.918 155.667l10.19 10.8 2.638 7.215-9.508 3.461-8.489-.605-12.383 15.81.047 10.226-17.865-6.114-4.79 1.883-9.744-5.32-6.17-11.187 8.897-11.683-3.35-6.256 1.939-12.688 4.75-1.827 1.87-10.609 13.82-9.201 4.051-8.694 19.48 10.019-3.112 9.532 1.075 12.731 6.654 2.507z" id="142499"/>
    <path d="M556.532 121.31l-5.941 4.273 20.278 15.124 4.378 9.194 5.097 24.991-9.27-4.32-1.103-6.238-11.16-1.933-5.906 2.722-15.63-14.224-15.786 3.065-10.128 5.862-7.55.196-5.239 10.662-11.965-4.238 4.898-8.488-1.632-10.393 6.384-17.918 9.461-10.013 9.703-6.558 9.782 1.645 11.514-3.788 5.353 8.683 14.462 1.693z" id="140084"/>
    <path d="M337.168 108.541l7.912 4.069-7.02 12.888.101 15.82-5.65 3.655 1.586 7.077-4.57-7.372-8.815 8.133 2.252 23.652-7.405 3.81-10.726 13.1 2.52 6.461-2.665 31.124-4.256 2.804-6.738-3.076-.865-7.884-6.479-4.927-7.191-18.981-11.057-13.78-9.665 4.221 5.981-7.97 18.072-14.824-7.21-6.916 5.274-13.4-7.018-11.484 5.629-13.723 20.81 13.88 5.407-8.875 10.374-3.153 6.188 2.096 5.274-9.23 9.95-7.195z" id="141376"/>
    <path d="M720.815 113.012l-8.886 11.082-2.235 13.398 13.075-4.728 9.776 14.363 8.346 5.748 10.659 3.119-3.455 13.078-2.634 22.835-10.243-4.11-22.96 1.895-8.68 5.908-15.43 1.356-.878-11.187-6.035.272-3.79-9.727-5.699-2.632-2.638-7.215-10.19-10.8 6.018-3.42-2.182-9.983 17.681-12.288 8.792-3.316 9.146-9.984 1.953-9.695 9.328 5.523 11.161.508z" id="141134"/>
    <path d="M751.55 155.994l-10.659-3.119-8.346-5.748-9.776-14.363-13.075 4.728 2.236-13.397 8.885-11.083.22-.064 4.758.337 5.841 9.915 10.576.487 8.706-4.373.039-8.265 14.79-.283 23.627-7.212 9.628 4.235-.003 10.868-8.044 7.216-1.846 9.084-6.73 1.034-.418 13.24-8.737 8.845 8.032 11.991.68 9.066-10.904-1.508-19.48-21.631z" id="142373"/>
    <path d="M382.734 109.999l-2.088 8.39 12.58 4.486 1.055 3.67-7.5 15.979 2.856 2.278-5.032 5.283-4.423 13.48-9.464-.468 1.01-3.7-13.7-5.133-5.155 6.376-5.414-7.588-7.978-3.54-5.384 2.538-1.587-7.077 5.651-3.655-.1-15.82 7.019-12.889 24.477-10.034 5.029-.437 8.148 7.86z" id="140958"/>
    <path d="M273.536 134.74l7.018 11.486-5.274 13.399 7.21 6.916-18.072 14.823-4.35-1.06-12.18-14.616 2.623-8.443-12.713-5.144-15.053-15.556-3.977-5.773 9.08-9.381 2.74-10.389-8.98-4.716 2.91-8.749 10.523 3.838 17.083-5.908 5.117 13.17-.744 7.873 17.039 18.23z" id="140324"/>
    <path d="M616.95 138.773l-1.87 10.609-4.75 1.827-1.94 12.688 3.35 6.257-8.896 11.682 6.17 11.188-14.339 1.316-10.362-1.246.91-8.399-4.215-9.525-.664-.278-5.097-24.99-4.378-9.195-20.278-15.124 5.941-4.274 9.811 1.806 1.169-6.483 11.055-2.818 10.05-6.256 1.07-6.696 10.984-7.42 17.351-5.326 6.033 9.438-10.201 11.552-1.695 15.258 4.792 14.41z" id="141884"/>
    <path d="M135.385 86.412l9.283 1.18 10.793 6.13 27.68 1.78 11.274 2.82 4.82 8.528-10.705 29.575-.991 15.136-5.433 9.314-18.272-11.633-12.995 9.52 1.669 5.028-21.758 10.559-6.643.884-6.588-4.89-7.41-6.991-5.903.172 6.479-3.76 3.81-14.006 12.548-6.022 19.398-18.513 7.596-5.214-.172-6.008-11.683.225-15.66 6.566-14.36-8.987 12.182-4.65-.28-10.158 9.921-3.761 1.4-2.824z" id="142006"/>
    <path d="M97.656 87.849l2.86 4.989-3.149 9.667 3.45 5.479-7.94 8.011 5.38 7.534-.045 16.803-4.475 6.93-2.73 12.25-11.17.885-10.187-5.728-8.984-16.688-4.923-4.881-.278-8.54-2.474-4.78 11.465-16.138 24.402-11.526-3.15-8.741 11.948 4.474z" id="140440"/>
    <path d="M133.985 89.236l-9.922 3.761.281 10.158-12.181 4.65 14.36 8.987 15.66-6.566 11.682-.225.172 6.008-7.596 5.214-19.398 18.513-12.548 6.022-3.81 14.005-6.479 3.761-13.199-4.013 2.73-12.249 4.475-6.93.046-16.803-5.382-7.534 7.94-8.011-3.449-5.479 3.15-9.667-2.86-4.99 9.334-6.329 4.224 3.622 22.77 4.095z" id="140477"/>
    <path d="M335.623 89.56l7.25 5.533-5.705 13.448-9.95 7.195-5.274 9.23-6.188-2.096-10.374 3.153-5.407 8.874-20.81-13.88 8.407-8.373-4.118-6.369 9.515-9.41-2.95-9.79 11.847-7.704 3.941-6.544 8.673 4.733 1.37 5.953 10.19-1.915 9.583 7.962z" id="140583"/>
    <path d="M264.637 61.17l13.042 17.942 12.34 7.963 2.95 9.79-9.515 9.41 4.118 6.37-8.407 8.373-5.629 13.722-17.04-18.23.745-7.873-5.117-13.17 7.75-19.652-7.712-10.085 3.367-5.817 9.108 1.257z" id="142854"/>
    <path d="M600.786 84.522l-.115 8.92-10.983 7.42-1.071 6.696-10.05 6.256-11.055 2.818-1.168 6.483-9.812-1.806-14.462-1.693-5.353-8.683-11.514 3.788-9.782-1.645.744-22.502L526.438 76.3l.331-15.004 11.558-2.955 13.397 3.383 10.175 6.492 24.717 3.295 7.502 10.275 6.668 2.735z" id="141786"/>
    <path d="M224.517 97.537l-2.91 8.749 8.981 4.716-2.74 10.389-9.08 9.38 3.977 5.774-9.034 15.835-5.457 2.466-6.41-7.247-11.894 2.847-2.411 1.115.99-15.136 10.707-29.575-4.821-8.529-11.274-2.82-27.68-1.779-10.793-6.13-9.283-1.18 11.024-11.353 4.477 5.648 9.588-1.642 5.64-4.772 14.069-5.08 3.801 2.768 17.347-9.332 14.09-4.86 2.345 8.803 8.054 6.418-7.816 14.67 6.513 9.857z" id="142881"/>
    <path d="M721.035 112.948l-.22.064-11.161-.508-9.328-5.523-1.953 9.695-9.146 9.984-8.792 3.316-17.681 12.288 2.182 9.983-6.018 3.42-6.654-2.507-1.075-12.731 3.112-9.532-19.48-10.018-4.05 8.693-13.82 9.201-4.792-14.41 1.695-15.257 10.2-11.552-6.032-9.438-17.351 5.326.115-8.92 7.904-4.607 12.527-.73 23.346 4.772 4.112-6.796 15.284-3.785.207-8.824 12.047-7.278 8.127 2.8 11.415 16.047 1.494 8.243 11.942 11.782 7.36 2.894 4.484 13.908z" id="141580"/>
    <path d="M439.914 60.431l4.174 4.41 2.031 21.067-4.41 8.035-15.646 6.163-7.183-3.807-12.5-.017-4.356-7.644-13.187 18.438-6.103 2.923-8.148-7.861-5.029.437-24.477 10.034-7.912-4.067 5.706-13.449-7.25-5.533 5.139-8.326 8.351-4.475 6.185 2.1 9.507-8.946 6.616-5.743 17.246.35 9.07 6.153 2.265 9.036 19.994-1.778-2.572-16.53 4.553-6.375 17.936 5.405z" id="142550"/>
    <path d="M526.769 61.297l-.332 15.004-10.272 14.273-.744 22.502-9.703 6.558-9.461 10.013-6.384 17.918-22.831-11.912 3.213-15.304-3.658-10.572 3.053-12.38 4.765-5.034-1.847-9.372 2.463-11.101 8.184-23.142 8.123-15.41 11.477 6.841 12.63-3.216 2.374 13.741 8.95 10.593z" id="142177"/>
    <path d="M203.029 32.129l8.61 6.189 3.782 19.472-14.09 4.859-17.347 9.332-3.801-2.768-14.07 5.08-5.639 4.772-9.588 1.642-4.477-5.648-11.024 11.353-1.4 2.824-22.77-4.095-4.224-3.622-9.335 6.33-11.948-4.474 6.91-8.413 2.973-12.519 11.571-4.156 6.097 2.089 11.516-7.672 16.678-4.891 6.714-10.496 13.764-2.853 7.003-8.38 19.632 6.718 4.996 10.168 9.467-10.841z" id="140280"/>
    <path d="M264.637 61.17l-9.108-1.257-3.367 5.817 7.712 10.085-7.75 19.652-17.083 5.908-10.524-3.838-6.513-9.858 7.816-14.67-8.054-6.417-2.345-8.802-3.782-19.472-8.61-6.19 12.92-5.323 39.859 6.078 2.203 16.465 7.257 1.886-.631 9.936z" id="140501"/>
    <path d="M491.338 33.338l-8.123 15.41-8.184 23.142-12.996-1.113-11.524 3.053.885-9.432-7.308.443-4.174-4.41 2.35-4.295 14.109-5.475-3.083-10.438-6.22-.66-12.527-8.393.673-10.884 19.824.366 2.788 4.687 16.794 4.82 13.746-.679 2.97 3.858z" id="140244"/>
    <path d="M358.797 380.624l-3.766 10.05-11.492-1.018-8.922 2.865-9.534-3.121-8.386 4.896-10.22-8.275-2.815 14.006-6.354 1.874-7.374-10.696-4.793 3.255-5.95-7.705-7.907 2.615-8.543 7.906-4.046 8.906-7.516-3.302-3.286-4.392-.432-9.726-1.24-2.538 15.377-6.095 4.225-9.714 2.624-24.18 10.41-4.444 15.847 3.086 2.892-7.427-7.812-8.267 1.173-7.189 10.098-7.05 2.107-4.136 8.572 1.837 10.409 13.456 9.608 1.069 20.892 23.163 2.839 4.783 10.725 1.314-8.257 12.799.847 11.395z" id="140379"/>
    <path d="M249.22 260.567l-.23 11.14 10.063 5.85.09 5.231 16.718 4.602 11.151 11.42 9.683 13.628 4.36 2.506-10.098 7.05-1.173 7.19 7.812 8.266-2.892 7.427-15.846-3.086-10.411 4.445-2.624 24.179-4.225 9.714-15.377 6.095 1.24 2.538.432 9.726 3.286 4.392-3.012 2.916-12.794 5.982-7.92-10.304 15.291-.693 4.698-11.983-4.652-4.366 3.869-9.445-7.155-11.761 1.567-6.012-8.207-32.037 6.572-2.726-.945-12.984-13.416-2.562-1.444-14.641 2.814-11.688 1.32-9.898 10.966-8.571 10.49-1.54z" id="141535"/>
    <path d="M225.075 306.905l13.416 2.562.945 12.984-6.572 2.726 8.207 32.037-1.567 6.012 7.155 11.76-3.87 9.446 4.653 4.366-4.698 11.983-15.29.693 7.92 10.304-.597 4.462-3.51-4.284-17.05-6.48-18.313-10.438-4.223-7.015 2.766-14.003-7.076-7.536 4.4-5.896-2.347-13.731 7.806-15.437 3.061-12.607 8.328-6.649 16.456-5.259z" id="140547"/>
    <path d="M475.031 71.89l-2.463 11.1 1.847 9.373-4.765 5.033-3.053 12.381 3.658 10.572-3.213 15.304-2.541 5.036-15.772 3.779-22.563.488-3.982 3.95-18.278.723-14.27-4.827-2.855-2.278 7.5-15.979-1.055-3.67-12.58-4.485 2.088-8.391 6.103-2.923 13.187-18.438 4.356 7.644 12.5.017 7.183 3.807 15.646-6.163 4.41-8.035-2.03-21.067 7.307-.443-.885 9.432 11.524-3.053 12.996 1.113z" id="142710"/>
    <path d="M489.873 147.565l1.632 10.393-4.898 8.488-19.702 12.946 17.588 11.546 2.915 4.317-12.232 13.877-1.939.108-11.257-17.187-13.435-8.647-13.307 11.88-6.745.425-4.376-15.754-35.593-18.425-8.342 2.032 4.423-13.479 5.032-5.283 14.269 4.827 18.278-.722 3.982-3.951 22.563-.488 15.772-3.78 2.541-5.035 22.83 11.912z" id="139811"/>
    <path d="M580.344 174.892l.664.278-12.066 12.972-6.61-.67-12.33 9.886-8.817-5.384-16.085 1.862 6.68 28.639-15.491 4.688-5.582-8.785-7.84-.14-9.228-5.147-18.463-3.96 12.232-13.876-2.915-4.317-17.588-11.546 19.702-12.946 11.965 4.238 5.24-10.662 7.55-.196 10.127-5.862 15.786-3.065 15.63 14.224 5.906-2.722 11.16 1.933 1.102 6.239 9.271 4.319z" id="142774"/>
    <path d="M177.613 262.874l-16.274 24.063-5.489 14.6-6.74 8.467-6.271 1.52-.103 11.785-8.436 8.599 6.934 9.623-8.004 8.582-13.302 3.335-5.766 5.38-2.456-15.97-11.568.815-9.919-5.871-1.677-6.168 16.162-31.71 26.324-18.484.015-6.078 7.145-8.33 30.867-.499 8.558-3.659z" id="142952"/>
    <path d="M199.233 222.357l17.36 5.217 16.56-6.858 8.908 1.489 16.15 8.818-.38 7.24-8.61 22.304-10.49 1.54-10.966 8.571-1.32 9.898-7.565-9.196-14.184 1.46-10.722 7.838-4.25 8.262-8.219-2.327-12.483 4.898-7.683-4.574 16.274-24.063-.129-8.74 6.164-1.363-5.485-10.71-17.618-10.29-.015-9.214 6.767-2.173 27.943 7.16 3.993-5.187z" id="140627"/>
    <path d="M435.216 20.286l-.673 10.884 12.528 8.393 6.22.66 3.082 10.438-14.108 5.475-2.351 4.295-17.936-5.405-4.553 6.374 2.572 16.53-19.994 1.78-2.266-9.037-9.07-6.152-17.245-.351-6.616 5.743-7.512-9.059 12.004-10.216 5.49.75-1.12-31.09-3.959-10.904 18.53.338 9.554 2.457L414.71 1l12.024 6.328-.23 5.105 8.712 7.853z" id="139740"/>
    <path d="M160.545 231.77l17.618 10.29 5.485 10.711-6.164 1.364.129 8.74-8.558 3.658-30.867.5-6.352 2.384-13.088-1.778-5.163-17.277 4.038-6.029 12.03-7.04 13.256.633 3.85-4.836 13.786-1.32z" id="180037"/>
    <path d="M124.107 175.233l6.448 4.843 17.639-4.422 4.196 9.753-7.452 3.268 1.549 14.428 5.406 12.575 8.637 6.88.015 9.212-13.786 1.32-3.85 4.836-13.255-.632-12.031 7.04-4.038 6.028-1.064-1.317-5.079-9.32-25.162-2.041-4.006-5.797 9.81-6.979-.666-5.68 11.705-4.384 22.449-30.973-5.408-6.38 1.355-7.148 6.588 4.89z" id="142239"/>
    <path d="M554.803 317.614l-1.604 6.809-7.681 5.774-6.295-1.18-6.575 14.519-7.993 7.091-25.908-11.584-6.245 1.583-.06 8.685 14.963 22.274-3.493 13.436-7.677 6.143-.384 6.366-5.85.566-8.291-13.207-8.005-4.521-4.66-5.511 8.779-9.474-11.714-4.201-.202-5.68-9.688-10.048-21.416-15.536-6.902-1.506 3.802-14.251-3.399-6.43 19.953-.632 4.119-6.372 7.257.641 27.794-4.446 13.285-9.29 7.229-1.694 19.805 14.466 5.83-.25 6.506 10.025 8.51-.255 6.21 7.69z" id="141447"/>
    <path d="M516.289 227.163l-.123 14.142-4.913 4.897 5.17 6.88-6.793 6.112 3.802 13.7-5.49 13.044-7.229 1.695-13.285 9.29-27.794 4.445-7.257-.64-4.12 6.371-19.952.631-8.026-4.07.989-7.314 8.535-20.288 13.3-2.566 1.645-5.55-6.76-5.532 7.315-9.621-2.507-5.206 16.54-9.566 2.29-6.349 10.144-6.172 1.467-16.256 1.939-.108 18.463 3.959 9.229 5.147 7.84.14 5.58 8.785z" id="140146"/>
  </g>
</svg>
