<svg xmlns="http://www.w3.org/2000/svg" version="1.2" baseProfile="tiny" stroke-linecap="round" stroke-linejoin="round" viewBox="0 0 800 522">
  <g id="SJ" fill="none" stroke="#aaa">
    <path d="M331.347 476.644l-11.315 11.939-24.927-12.71-39.123-11.178-11.732-15.435-12.114-10.314 1.157-22.327.598-4.473 12.827-5.999-1.688 6.424 14.528 6.576 10.112 10.2 4.192 11.602 28.772 3.832 3.507-3.885 16.204 9.137 18.156-3.778 3.377 11.059-12.531 19.33z" data-name="Fildu de Jos" class="comuna" id="141081"/>
    <path d="M353.864 390.986l19.885 8.45 18.29 31.477-5.105 14.164 7.192 3.094-3.238 17.96 5.788 8.439-10.278 12.712 2.35 12.71-17.918 17.323-17.723 3.889-7.699-7.836-3.588-13.825 5.393-10.186-15.866-12.714 12.531-19.33-3.377-11.058-18.155 3.778-16.205-9.137-3.507 3.885-28.772-3.832-4.192-11.603-10.112-10.2-14.528-6.575 1.688-6.424 3.02-2.923 28.086-16.167 10.771 4.461 7.394 10.725 6.37-1.88 2.823-14.042 10.247 8.296 8.408-4.909 9.559 3.13 20.468-1.852z" data-name="Almașu" class="comuna" id="139982"/>
    <path d="M415.196 390.211l8.657 16.689 13.838 14.066 3.936 8.676 8.974-.917 11.433 13.128 14.666-.109 22.589 9.554 8.086 6.546-13.062 18.997-8.582-5.142-11.864 9.395-16.819.94-11.614-14.186.032-18.793-19.812-11.882-3.686 11.235 5.905 6.457-13.198 6.853 3.543 19.027 5.625 7.432-12.525 9.957-3.32 10.76-10.992-8.922-8.259.02-2.35-12.71 10.28-12.712-5.789-8.438 3.238-17.961-7.192-3.094 5.106-14.164-18.29-31.477-19.886-8.45 3.776-10.077 8.835-1.617 14.733 9.012 16.338-2.15 17.65 4.057z" data-name="Cuzăplac" class="comuna" id="140869"/>
    <path d="M472.85 380.653l8.025 4.533 8.313 13.242 5.866-.568 13.718 7.046 3.9 6.653-10.913 13.705 13.702 5.543 9.302 10.187-17.388 16.85-8.086-6.546-22.589-9.554-14.666.11-11.433-13.13-8.974.918-3.936-8.676-13.838-14.066-8.657-16.689 6.059-12.107 29.364 2.779 8.982 4.292 13.248-4.522z" data-name="Zimbor" class="comuna" id="143147"/>
    <path d="M472.85 380.653l-13.249 4.522-8.982-4.292-29.364-2.78-6.059 12.108-17.65-4.057-16.338 2.15-14.733-9.012 5.683-11.267 17.037-2.181-.961-20.987 13.503-10.012 11.768 3.795 13.42-10.08 6.921 1.51 21.472 15.577 9.916 15.77 11.745 4.212-8.802 9.498 4.672 5.526z" data-name="Sînmihaiu Almașului" class="comuna" id="142676"/>
    <path d="M515.461 430.807l-13.702-5.543 10.912-13.705-3.9-6.653-13.717-7.046 8.082-12.542 3.502-13.47-15.002-22.334 6.32-10.295 25.978 11.615 14.606-21.666 14.013-4.608 8.897 7.666 2.605 13.835 9.505 1.923 6.044 26.2-6.523 6.82-3.003 16.88-34.769 8.926-1.229 11.123-18.619 12.874z" data-name="Dragu" class="comuna" id="141027"/>
    <path d="M370.228 331.798l18.006 13.059.96 20.987-17.036 2.181-5.683 11.267-8.835 1.617-.85-11.424 8.278-12.833-10.753-1.317-23.793-28.02-9.633-1.072-10.437-13.49-8.594-1.843 5.163-7.864 8.818 6.72 11.433 1.718 10.904 10.885 20.14 8.754 11.912.675z" data-name="Agrij" class="comuna" id="139937"/>
    <path d="M167.366 291.562l-.152 11.633 7.241 17.174 24.261-1.433-10.895 28.118 5.036 27.234-2.774 14.04 4.235 7.034-6.189 9.297-15.791 4.683-8.516-10.594-15.679-12.326-14.766-4.585-11.405-3.508-9.612-19.272 19.119-8.738 8.025-8.606-6.952-9.648 8.458-8.621.103-11.815 13.046-10.015 5.504-14.638 7.703 4.586z" data-name="Sîg" class="comuna" id="142612"/>
    <path d="M370.228 331.798l-11.913-.675-20.14-8.754-10.904-10.885-11.432-1.718-8.818-6.72 14.975-13.41 17.388-6.13 4.13-8.486 10.761 4.678 11.913 15.11 8.33.319 7.372 10.361 1.75 11.3-14.15 2.325.738 12.685z" data-name="Treznea" class="comuna" id="179631"/>
    <path d="M224.94 280.599l-1.375 26.398-16.498 5.273-8.35 6.666-24.262 1.433-7.241-17.174.152-11.633 25.017-10.862 10.75-7.858 14.221-1.464 7.585 9.22z" data-name="Bănișor" class="comuna" id="140208"/>
    <path d="M428.832 276.069l-9.549 27.674 8.047 4.081 3.408 6.447-3.813 14.289-13.42 10.08-11.768-3.794-13.503 10.01-18.006-13.058-.738-12.685 14.15-2.325-1.75-11.3-7.372-10.361-8.33-.318-11.913-15.111-10.762-4.678 16.163-8.323 11.315 9.56 14.01 2.955 10.177-2.713-5.399-21.252 3.99-1.176 32.353 11.878 2.71 10.12z" data-name="Românași" class="comuna" id="142426"/>
    <path d="M111.783 250.305l5.176 17.323 19.491-.608-7.18 14.445-26.391 18.531-16.205 31.795 1.681 6.184-11.128.602-22.489-8.034-10.677-10.556-3.49-6.058-13.707-5.202-4.427-10.348-13.334-8.636 25.4-5.35 5.994-4.637 34.581-7.102 35.638-23.67 1.067 1.32z" data-name="Plopiș" class="comuna" id="142337"/>
    <path d="M292.365 230.577l6.756 3.084 12.717 4.681 5.324 10.655-4.501 13.945 7.792 11.393 1.543 15.301-14.975 13.41-5.163 7.864-2.113 4.147-25.26-27.626-16.762-4.614-10.18-11.11.231-11.17 8.634-22.362 23.817 4.024 12.14-11.622z" data-name="Meseșenii de Jos" class="comuna" id="142079"/>
    <path d="M582.986 241.41l2.654 13.76 7.477 9.53-.482 17.376 3.41 15.46-8.336-.16-3.46 23.029-30.088-2.671-14.76-7.455-32.225-24.304 5.505-13.078-3.812-13.737 6.812-6.127-.136-25.988 15.531-4.7 18.471 11.538 33.439 7.527z" data-name="Gîrbou" class="comuna" id="141232"/>
    <path d="M85.546 219.089L76.38 231.78l4.016 5.813 25.228 2.045 5.093 9.345-35.638 23.67-34.58 7.102-7.615-5.14-2.346-19.387-8.755-14.746-15.196-4.941-3.631-5.961 17.07-1.233 15.62-5.162 11.69-8.53 6.83 16.655L73.79 221.18l11.756-2.091z" data-name="Halmășd" class="comuna" id="141312"/>
    <path d="M640.999 202.392l-3.915 16.1 5.276 18.39-10.017 7.742-5.892 1.502-10.397 13.706-22.937 4.868-7.477-9.53-2.654-13.76 7.124-28.423 7.033-8.22-3.005-10.631 14.376-1.32 32.485 9.576z" data-name="Zalha" class="comuna" id="143067"/>
    <path d="M352.12 193.285l11.11 11.77 6.53-1.802 7.945 10.737-4.672 7.914 2.92 11.56-6.959 8.242 11.778 5.962 9.007 7.58 5.4 21.25L385 279.213l-14.01-2.954-11.315-9.561-16.163 8.323-4.13 8.486-17.387 6.13-1.543-15.3-7.792-11.394 4.5-13.945-5.323-10.655-12.717-4.681 4.267-2.81 2.673-31.207-2.527-6.478 14.012 1.875 7.242 8.96 9.237-.392 12.46-12.352 5.635 2.028z" data-name="Zalău" class="municipiu resedinta" id="139704"/>
    <path d="M292.365 230.577l-12.14 11.623-23.817-4.025.381-7.26-25.125-10.334 13.484-15.018-2.154-5.83 14.02-10.615 9.692-4.232 11.086 13.815 14.573 31.876z" data-name="Vîrșolț" class="comuna" id="143021"/>
    <path d="M472.38 209.075l-1.47 16.299-12.468 12.554-16.582 9.59-4.821 14.867 5.127 11.11-13.334 2.574-2.71-10.12-32.353-11.878-3.99 1.177-9.007-7.58 2.468-6.553 21.351-10.303-8.775-18.054 8.867-14.226 10.502-4.363 12.334 1.34 6.762-.425 13.342-11.911 13.47 8.67 11.287 17.232z" data-name="Creaca" class="comuna" id="140672"/>
    <path d="M594.138 194.136l3.005 10.63-7.033 8.22-7.124 28.424-33.439-7.527-18.47-11.538-6.697-28.715 16.127-1.867 8.84 5.399 12.363-9.913 6.627.672 12.097-13.006 3.314 17.972 10.39 1.249z" data-name="Cristolț" class="comuna" id="140770"/>
    <path d="M671.411 173.423l16.446 23.335-6.471 9.65-5.946 19.369-5.406 6.22 4.057 10.12-9.76 8.146-12.312 7.166-13.228-13.977-6.448 1.172 10.017-7.742-5.276-18.39 3.915-16.1-.047-10.253 12.415-15.852 18.044-2.864z" data-name="Șimișna" class="comuna" id="179695"/>
    <path d="M427.519 195.51l-12.334-1.341-10.502 4.363-8.867 14.226 8.775 18.054-21.35 10.303-2.469 6.552-11.778-5.961 6.958-8.242-2.92-11.56 4.673-7.914-7.945-10.737-6.53 1.802-11.11-11.77-9.639-10.564 22.88-5.212 4.23-14.699 9.49.469 8.363-2.037 31.428 14.302 8.647 19.966z" data-name="Mirșid" class="comuna" id="142122"/>
    <path d="M89.146 159.215l13.233 4.024 13.348 6.837 4.063 13.563-22.508 31.055-11.736 4.395-11.756 2.09-19.624 10.132-6.83-16.656 3.113-6.089-6.036-14.651.494-16.086 4.98-7.012 15.573-5.894 2.272-10.563 10.214 5.743 11.2-.888z" data-name="Ip" class="comuna" id="141722"/>
    <path d="M188.348 150.126l6.725 17.261 10.09 15.163-.474 25.954-7.033 13.723-4.003 5.2-28.018-7.179-6.784 2.179-8.66-6.897-6.973-27.074 3.264-13.056-17.685 4.434-6.465-4.856 28.476-11.473-1.673-5.041 13.029-9.545 18.32 11.664 5.447-9.339 2.417-1.118z" data-name="Șimleu Silvaniei" class="oras" id="139884"/>
    <path d="M332.874 151.735l23.995 2.22 12.722 8.855-4.23 14.7-22.88 5.211 9.639 10.564-5.636-2.028-12.459 12.352-9.237.391-7.242-8.96-14.012-1.874 18.178-16.954-2.258-23.715 13.42-.762z" data-name="Crișeni" class="comuna" id="140823"/>
    <path d="M221.23 136.189l15.093 15.597 12.746 5.157-2.63 8.465 16.573 15.718-5.997 7.992-14.02 10.614 2.153 5.831-13.484 15.018-16.602 6.876-17.406-5.23 7.033-13.723.473-25.954-10.089-15.163-6.725-17.261 11.926-2.854 11.898 4.793 9.058-15.876z" data-name="Pericei" class="comuna" id="142284"/>
    <path d="M53.51 124.171l14.222 30.19-2.272 10.562-15.573 5.894-4.98 7.012-.494 16.086 6.036 14.651-3.114 6.09-11.69 8.53-15.62 5.162-17.07 1.233L1 220.782l8.954-6.985-2.21-11.611 6.218-19.703 13.683-.576 10.378-14.745-5.295-15.913 4.2-12.93-1.925-10.352 7.052-9.307 11.455 5.511z" data-name="Marca" class="comuna" id="141946"/>
    <path d="M658.55 155.361l12.861 18.062-18.043 2.864-12.416 15.852.047 10.253-32.485-9.576-6.186-11.217 8.92-11.713-1.414-18.995 6.638-12.468 13.856-9.226 4.061-8.716 19.53 10.045-2.04 22.321 6.67 2.514z" data-name="Rus" class="comuna" id="142499"/>
    <path d="M555.894 120.913l-5.956 4.284 20.331 15.165 4.39 9.218 5.11 25.056-10.4-10.585-17.111.791-15.671-14.261-33.552 9.146-5.253 10.69-11.997-4.25 4.91-8.509-1.635-10.42 6.4-17.965 19.216-16.615 21.351-2.149 5.367 8.706 14.5 1.698z" data-name="Băbeni" class="comuna" id="140084"/>
    <path d="M335.953 108.112l7.933 4.078-7.038 12.922.101 15.862-4.075 10.76-13.42.763 2.258 23.714-18.178 16.955 2.526 6.478-2.672 31.206-4.267 2.81-6.756-3.083-14.573-31.876-11.086-13.815-9.691 4.232 5.997-7.992 18.12-14.863-7.23-6.934 5.288-13.434-7.036-11.516 5.644-13.759 20.865 13.917 5.421-8.898 16.605-1.06 15.264-16.467z" data-name="Hereclean" class="comuna" id="141376"/>
    <path d="M720.61 112.594l-8.91 11.111-2.241 13.433 13.11-4.74 9.801 14.4 19.055 8.89-4.883 29.036-34.512 4.752-8.702 5.923-15.47 1.36-16.447-23.336-12.862-18.062 3.846-13.438 26.544-15.645 9.169-10.011 22.502-3.673z" data-name="Gîlgău" class="comuna" id="141134"/>
    <path d="M751.425 155.688l-19.055-8.89-9.801-14.4-13.11 4.74 2.242-13.433 8.909-11.111.22-.064 10.627 10.278 19.333-3.896.038-8.287 14.829-.283 23.69-7.231 9.653 4.246-.003 10.896-12.472 16.567-4.611 14.089-8.76 8.867 8.054 12.023.432 13.292-10.683-5.715-19.532-21.688z" data-name="Poiana Blenchii" class="comuna" id="142373"/>
    <path d="M381.64 109.573l-2.094 8.413 13.67 8.176-4.656 18.305-9.48 18.812-9.488-.469-12.723-8.855-23.995-2.22 4.075-10.76-.1-15.862 7.037-12.923 24.542-10.06 13.211 7.443z" data-name="Dobrin" class="comuna" id="140958"/>
    <path d="M272.154 134.38l7.036 11.515-5.287 13.434 7.229 6.934-18.12 14.863-16.573-15.718 2.63-8.465-12.746-5.157-15.093-15.597-3.988-5.789 9.104-9.406 2.747-10.415-9.004-4.73 2.917-8.77 10.552 3.847 17.128-5.924 4.384 21.1 17.084 18.277z" data-name="Bocșa" class="comuna" id="140324"/>
    <path d="M616.472 138.423l-6.638 12.468 1.414 18.995-8.92 11.713 6.186 11.217-14.376 1.32-10.39-1.25-3.314-17.97-.665-.28-5.11-25.056-4.39-9.219-20.331-15.164 5.956-4.284 22.094-7.515 11.15-12.986 11.011-7.44 17.397-5.34 6.049 9.463-10.228 11.583-1.7 15.297 4.805 14.448z" data-name="Lozna" class="comuna" id="141884"/>
    <path d="M133.64 85.924l20.129 7.33 39.056 4.61 4.833 8.551-10.734 29.653-.993 15.176-5.448 9.339-18.32-11.664-13.028 9.545 1.673 5.041-28.476 11.474-6.605-4.903-13.348-6.837 6.496-3.77 3.82-14.043 12.58-6.038 19.45-18.562-4.27-11.026-15.7 6.584-14.399-9.01 12.214-4.663-.282-10.185 9.948-3.771 1.404-2.831z" data-name="Măeriște" class="comuna" id="142006"/>
    <path d="M95.812 87.364l-.29 14.695-4.503 13.526 5.396 7.553-.046 16.848-7.223 19.23-11.2.887-10.214-5.743-14.222-30.189-2.48-4.79L62.523 103.2l10.845-7.603 13.622-3.954-3.159-8.764 11.98 4.485z" data-name="Camăr" class="comuna" id="140440"/>
    <path d="M132.236 88.755l-9.948 3.771.282 10.185-12.214 4.662 14.398 9.011 15.701-6.584 4.27 11.026-19.45 18.562-12.58 6.038-3.82 14.042-6.496 3.77-13.233-4.023 7.223-19.23.046-16.847-5.396-7.553 4.503-13.526.29-14.695 12.636-6.128 23.788 7.519z" data-name="Carastelec" class="comuna" id="140477"/>
    <path d="M334.405 89.08l7.27 5.548-5.722 13.484-15.264 16.467-16.605 1.06-5.42 8.898-20.866-13.917 8.43-8.395-4.13-6.386 9.54-9.435-2.957-9.815 15.82-14.272 20.295 8.78 9.609 7.983z" data-name="Coșeiu" class="comuna" id="140583"/>
    <path d="M263.232 60.615l13.076 17.99 12.373 7.984 2.957 9.815-9.54 9.435 4.13 6.386-8.43 8.395-5.644 13.76L255.07 116.1l-4.384-21.099 7.77-19.703-7.732-10.112 12.508-4.572z" data-name="Șamșud" class="comuna" id="142854"/>
    <path d="M600.264 84.03l-.115 8.942-11.012 7.44-11.15 12.986-22.093 7.515-14.5-1.698-5.367-8.706-21.351 2.15.745-22.563 10.3-14.31.332-15.043 11.588-2.963 23.635 9.901 24.781 3.304 14.207 13.044z" data-name="Letca" class="comuna" id="141786"/>
    <path d="M223.006 97.078l-2.917 8.772 9.004 4.729-2.747 10.415-9.104 9.406 3.988 5.789-9.058 15.876-11.898-4.793-11.926 2.854-2.417 1.118.993-15.176 10.734-29.653-4.833-8.55-39.056-4.612-20.129-7.33 11.053-11.382 4.489 5.662 29.374-11.523 3.81 2.775 31.52-14.229 10.426 15.26-7.836 14.708 6.53 9.884z" data-name="Șărmășag" class="comuna" id="142881"/>
    <path d="M720.83 112.53l-.22.064-22.502 3.673-9.17 10.011-26.543 15.645-3.846 13.438-6.67-2.514 2.04-22.321-19.53-10.045-4.06 8.716-13.857 9.226-4.804-14.448 1.7-15.297 10.227-11.583-6.049-9.463-17.397 5.34.115-8.943 7.925-4.619 23.489 2.061 12.48 1.992 4.122-6.815 15.324-3.795.207-8.846 12.08-7.298 8.935 3.984 10.658 14.912 1.497 8.266 11.974 11.813 14.078-.028-6.698 2.93 4.495 13.944z" data-name="Ileanda" class="comuna" id="141580"/>
    <path d="M438.97 59.875l4.185 4.421 2.036 21.122-4.422 8.057-15.687 6.18-19.734-3.836-4.368-7.664-13.222 18.487-6.119 2.93-13.211-7.443-24.542 10.061-7.933-4.078 5.721-13.484-7.27-5.548 5.154-8.348 14.574-2.382 9.532-8.969 6.633-5.758 17.292.352 9.093 6.169 2.272 9.06L419 77.42l-2.579-16.574 4.566-6.39 17.983 5.419z" data-name="Sălățig" class="comuna" id="142550"/>
    <path d="M526.053 60.743l-.332 15.043-10.3 14.31-.745 22.562-19.216 16.615-6.4 17.965-22.891-11.944 3.221-15.344-3.667-10.6 7.838-17.46.618-20.527 8.205-23.202 8.145-15.45 11.508 6.858 11.09-3.07 3.953 13.623 8.973 10.621z" data-name="Năpradea" class="comuna" id="142177"/>
    <path d="M201.462 31.497l8.632 6.206 3.792 19.523-31.52 14.23-3.81-2.776-29.374 11.523-4.489-5.662-11.053 11.383-1.404 2.83-23.788-7.518-12.636 6.128-11.98-4.485 6.928-8.436 2.76-12.253 14.13-4.687 32.073-10.28 6.673-10.468 13.86-2.916 7.02-8.403 19.684 6.737 5.01 10.194 9.492-10.87z" data-name="Bobota" class="comuna" id="140280"/>
    <path d="M263.232 60.615l-12.508 4.572 7.732 10.112-7.77 19.703-17.128 5.924-10.552-3.848-6.53-9.884 7.836-14.708-10.426-15.26-3.792-19.523-8.632-6.206 12.79-7.822.164 2.485 39.964 6.094 2.209 16.508 6.643 11.853z" data-name="Chieșd" class="comuna" id="140501"/>
    <path d="M490.529 32.71l-8.145 15.45-8.205 23.203-24.585 1.946-6.44-9.013-4.184-4.421 16.502-9.797-3.091-10.465-18.797-9.076.675-10.913 19.876.367 2.796 4.7 33.598 8.02z" data-name="Benesat" class="comuna" id="140244"/>
    <path d="M357.64 380.91l-3.776 10.076-20.468 1.852-9.56-3.13-8.407 4.91-10.247-8.297-2.823 14.043-6.37 1.879-7.394-10.725-10.77-4.461-28.086 16.167-3.295-4.404-.433-9.75-1.244-2.546 15.417-6.11 4.237-9.74 2.63-24.243 10.439-4.456 15.888 3.093 2.9-7.446-6.657-15.496 10.124-7.07 2.113-4.146 8.594 1.842 10.437 13.491 9.633 1.072 23.793 28.02 10.753 1.317-8.278 12.833.85 11.424z" data-name="Buciumi" class="comuna" id="140379"/>
    <path d="M247.774 260.537l-.23 11.17 10.18 11.11 16.761 4.614 25.26 27.626-10.124 7.069 6.657 15.496-2.9 7.446-15.888-3.093-10.439 4.456-2.63 24.243-4.237 9.74-15.417 6.11 1.244 2.545.433 9.751 3.295 4.404-3.02 2.923-12.828 5.999-7.94-10.332 15.33-.694 4.71-12.014-4.664-4.378 3.879-9.47-13.83-49.941 6.589-2.733-.948-13.018-13.452-2.57 1.374-26.397 1.324-9.924 10.995-8.594 10.516-1.544z" data-name="Horoatu Crasnei" class="comuna" id="141535"/>
    <path d="M223.565 306.997l13.452 2.569.948 13.018-6.59 2.733 13.831 49.94-3.879 9.47 4.665 4.379-4.71 12.014-15.332.694 7.94 10.332-.597 4.473-38.975-21.257-4.235-7.034 2.774-14.04-5.036-27.234 10.895-28.118 8.35-6.666 16.5-5.273z" data-name="Cizer" class="comuna" id="140547"/>
    <path d="M474.18 71.363l-.619 20.527-7.838 17.46 3.667 10.6-3.221 15.344-2.548 5.05-15.813 3.788-22.623.49-3.992 3.96-18.326.725-14.307-4.84 4.656-18.305-13.67-8.176 2.093-8.413 6.12-2.93 13.221-18.488 4.368 7.664 19.734 3.835 15.687-6.18 4.422-8.056-2.036-21.122 6.44 9.013 24.584-1.946z" data-name="Someș-Odorhei" class="comuna" id="142710"/>
    <path d="M489.06 147.238l1.636 10.42-4.91 8.51-19.755 12.98 20.558 15.905-12.265 13.913-1.944.109-11.286-17.232-13.471-8.67-13.342 11.911-6.762.426-8.647-19.966-31.428-14.302-8.363 2.037 9.48-18.812 14.306 4.84 18.326-.724 3.992-3.961 22.623-.49 15.813-3.789 2.548-5.05 22.89 11.945z" data-name="Jibou" class="oras" id="139811"/>
    <path d="M579.77 174.637l.664.278-12.097 13.006-6.627-.672-12.364 9.913-8.84-5.399-16.126 1.867 6.696 28.715-15.53 4.7-5.597-8.808-35.625-9.27 12.265-13.914-20.558-15.905 19.754-12.98 11.997 4.25 5.253-10.69 33.552-9.147 15.67 14.261 17.112-.79 10.4 10.585z" data-name="Surduc" class="comuna" id="142774"/>
    <path d="M175.978 262.85l-16.316 24.126-5.503 14.638-13.046 10.015-.103 11.815-8.458 8.621 6.952 9.648-8.025 8.606-19.119 8.738-2.461-16.012-11.599.817-9.944-5.887-1.682-6.184 16.205-31.795 26.392-18.531 7.18-14.445 30.948-.502 8.58-3.668z" data-name="Valcău de Jos" class="comuna" id="142952"/>
    <path d="M197.656 222.227l17.406 5.23 16.602-6.876 25.125 10.334-.381 7.26-8.634 22.362-10.516 1.544-10.995 8.594-1.324 9.924-7.584-9.221-14.222 1.464-10.75 7.858-25.017 10.862-7.704-4.586 16.316-24.126.552-20.868-17.664-10.317-.015-9.238 6.784-2.179 28.018 7.178 4.003-5.2z" data-name="Crasna" class="comuna" id="140627"/>
    <path d="M434.26 19.624l-.676 10.913 18.797 9.077 3.09 10.465-16.501 9.796-17.983-5.42-4.566 6.391 2.58 16.574-20.047 1.783-2.272-9.06-9.093-6.168-17.292-.352-6.633 5.758-7.531-9.082 17.54-9.491-1.124-31.171-5.574-9.6 10.619-1.842 19.144 3.31L407.85 1l10.22 1.18 16.188 17.444z" data-name="Cehu Silvaniei" class="oras" id="139740"/>
    <path d="M158.866 231.665l17.664 10.317-.552 20.868-8.58 3.668-30.948.502-19.491.608-5.176-17.323 16.11-13.103 13.29.634 17.683-6.172z" data-name="Boghiș" class="comuna" id="180037"/>
    <path d="M122.332 174.978l6.465 4.856 17.685-4.434-3.264 13.056 6.974 27.074 8.659 6.897.015 9.238-17.683 6.171-13.29-.634-16.11 13.103-1.067-1.32-5.093-9.346-25.228-2.045-4.016-5.813 9.167-12.692 11.736-4.395 22.508-31.055-4.063-13.563 6.605 4.903z" data-name="Nușfalău" class="comuna" id="142239"/>
    <path d="M554.16 317.734l-1.607 6.826-14.013 4.608-14.606 21.666-25.977-11.615-6.32 10.295 15.001 22.333-3.502 13.471-8.082 12.542-5.866.568-8.313-13.242-8.026-4.533-4.672-5.526 8.802-9.498-11.745-4.213-9.916-15.769-21.471-15.577-6.921-1.51 3.812-14.289-3.408-6.447 20.006-.632 11.405-5.747 27.868-4.457 20.567-11.013 32.226 24.304 14.759 7.455z" data-name="Hida" class="comuna" id="141447"/>
    <path d="M515.545 227.045l.136 25.988-6.812 6.127 3.812 13.737-5.505 13.078-20.567 11.013-27.868 4.457-11.405 5.747-20.006.632-8.047-4.081 9.55-27.674 13.333-2.573-5.127-11.11 4.82-14.867 16.583-9.591 12.467-12.554 1.471-16.3 1.944-.108 35.625 9.27 5.596 8.81z" data-name="Bălan" class="comuna" id="140146"/>
  </g>
</svg>
