<svg xmlns="http://www.w3.org/2000/svg" version="1.2" baseProfile="tiny" stroke-linecap="round" stroke-linejoin="round" viewBox="0 0 800 622">
  <g id="SM" fill="none" stroke="#aaa">
    <path d="M443.782 603.118l-7.113-14.278-8.994-5.235-.137-20.644 14.754-9.698 6.689-2.316 16.153 10.358 4.657-11.982 17.216-6.315 19.829 11.295 1.041 28.884-16.253 8.795 7.6 8.826-9.454 7.9-13.504 2.207-6.02 7.967-7.659-7.628-18.805-8.136z" id="137844"/>
    <path d="M406.251 506.289l18.329 1.68 10.467 21.079-9.974 3.763-.945 13.018 18.164 7.434-14.754 9.698.137 20.644 8.994 5.235 7.113 14.278-14.68 13.23-11.445-7.404-18.272-27.652-2.047-15.297-37.032-5.647-.151-2.302-4.163-18.05 10.147-4.716 29.295 3.712 3.246-13.854-2.177-17.151 9.748-1.698z" id="137130"/>
    <path d="M133.242 517.59l-7.42 18.424 1.462 6.983-21.633 3.316-15.961-6.183-5.408-17.485.963-28.018 15.26-.268 6.297-9.183 8.388 12.402 15.329 3.67 2.723 16.342z" id="138538"/>
    <path d="M294.427 522.407l-5.59 11.533-.178 16.677 8.619 19.548-6.183 9.7-29.72 9.526-12.21-9.311-1.196-17.997 5.942-20.757-6.405-22.075 1.052-21.37-7.25-12.85 13.758-4.504 16.902-.475 11.481 3.58 9.623 18.627 1.355 20.148z" id="138770"/>
    <path d="M398.032 490.902l-5.52 4.207 13.739 11.18-9.748 1.698 2.177 17.15-3.246 13.855-29.295-3.712-10.147 4.717 4.162 18.049-8.16 3.043-12.486 14.277-4.642-9.447-18.24-6.242-6.505 7.786-12.843 2.702-8.619-19.548.177-16.677 5.591-11.533 5.325-.336 12.727-22.843 13.601-5.608 12.452 1.353 6.608-14.891 30.091 3.092 7.043 5.139 15.758 2.589z" id="138921"/>
    <path d="M208.564 462.869l2.287 15.63-6.105.942-14.538 13.505-4.292 4.741-27.322 2.404-10.494 16.243-14.858 1.256-2.723-16.342-15.329-3.67-8.388-12.402 9.852-3.251 10.432-11.898 9.669-18.157 9.7-2.76 20.456 14.457 11.519-5.83-2.992-14.78 10.632-4.24 18.336 15.202 4.158 8.95z" id="138734"/>
    <path d="M309.94 436.433l13.242 13.022 16.495 2.027-.584 19.567 6.047 9.033-6.608 14.891-12.452-1.353-13.601 5.608-12.727 22.844-5.325.335-1.356-20.148-9.622-18.627-11.481-3.58 4.764-7.013 15.68-20.51 7.081-17.868 10.447 1.772z" id="136713"/>
    <path d="M136.755 451.87l-9.67 18.157-10.43 11.898-9.853 3.251-6.297 9.183-15.26.268-7.773-7.427-20.53-6.447 1.398-27.517L79.6 442.624l2.953-6.887 7.197 2.764 12.653-3.96 3.847-7.107 30.504 24.436z" id="136768"/>
    <path d="M553.671 400.935l11.84 3.994 33.915 5.509 4.67 19.455-4.337 9.437-11.193-3.455-1.931 24.114-15.55-2.993-9.428-13.449-23.924-19.074-12.683-25.011 3.515-3.023 25.106 4.496z" id="137103"/>
    <path d="M132.145 408.087l-14.326 12.858-11.568 6.49-3.847 7.107L89.75 438.5l-7.197-2.763 6.985-12.446-6.067-19.215 19.338-11.18 9.577-10.844 3.926 2.278 15.832 23.756z" id="138501"/>
    <path d="M175.345 386.057l9.687 24.358-10.251 12.436L146 444.32l.454 4.789-9.7 2.76-30.504-24.436 11.568-6.49 14.326-12.857 9.195-3.002-3.593-13.454 13.792-12.604 6.312 7.78 17.494-.75z" id="139107"/>
    <path d="M211.332 377.209l5.295 28.404 7.513-.768 6.657 9.775 14.37-.36 7.299 8.443-7.392 10.22-8.528-1.644 3.928 16.427-9.224 5.924-1.28 8.495-21.406.744-4.158-8.95-18.337-15.202-10.63 4.24 2.99 14.78-11.518 5.83-20.456-14.457-.455-4.79 28.78-21.47 10.252-12.435-9.687-24.358 8.861-.64-.568-18.075 16.155-7.896 2.421 11.76 9.118 6.003z" id="137292"/>
    <path d="M591.867 347.878l4.939 3.372-4.39 14.116 10.048 35.313-3.038 9.759-33.914-5.509-11.841-3.994 10.447-3.106-7.765-16.124 10.759-4.308 2.2-38.99 22.555 9.471z" id="137504"/>
    <path d="M498.822 344.375l.295 10.184 16.111 12.277 9.329 14.858 4.008 14.745-3.515 3.023-11.408 7.609-12.059 17.97-19.63 16.04-7.228 13.762-16.741-11.707-8.11-13.918 8.61-33.006-5.137-12.423 2.049-13.242 10.59-6.911-1.51-13.356 11.168-12.274-9.291-11.807 16.175 9.162 8.252-1.237 8.042 10.25z" id="137899"/>
    <path d="M119.132 372.331l-13.347-6.898 12.34-10.003 2.866-2.305 3.04 13.538-4.9 5.668zm-5.38 5.224l-1.365 4.498-9.577 10.844-19.338 11.18-17.344-9.313-18.887-4.531-35.264-15.634 2.842-14.912 9.673-4.179 1.684-17.752 4.772-8.464 15.24-3.385 6.039 1.805-.73 18.435L71.394 357.9l42.359 19.655z" id="138663"/>
    <path d="M602.464 400.679l-10.048-35.313 4.39-14.116-4.939-3.372 4.632-20.672-8.543-9.256 9.323 4.456 10.78-4.302 6.061 11.85 21.333 5.423 10.68 5.907 1.546 11.71 9.146 2.034-10.945 13.99-15.995 10.134 2.917 7.015-13.835 4.352-6.274 8.574-10.229 1.586z" id="138618"/>
    <path d="M578.446 312.636l9.51 5.314 8.543 9.256-4.632 20.672-22.555-9.472-2.2 38.99-10.76 4.309 7.766 16.124-10.447 3.106-25.106-4.496-4.008-14.745-9.329-14.858-16.11-12.277-.296-10.185 11.624-4.966 21.695-1.556 2.84-25.578 27.78-3.32 15.685 3.682z" id="139287"/>
    <path d="M206.095 283.508l-12.182 11.346-4.235 9.087-25.771 10.775-17.14-6.25-2.274-16.543 16.66 6.485 19.318-5.892 17.28-17.593 8.344 8.585z" id="179677"/>
    <path d="M140.418 294.608l4.075-2.685 2.274 16.543 1.019 4.548-13.809 12.259-11.178-5.8-13.235-1.337-10.604-5.803-4.802-12.595-17.989-8.27 10.756-18.105 14.025 13.483 28.902 2.809 10.566 4.953z" id="139250"/>
    <path d="M487.031 274.781l5.432 11.257 16.057 2.074-.071 15.332 15.99-.22 10.541 9.05-2.84 25.578-21.694 1.556-11.624 4.966-8.042-10.25-8.252 1.237-16.175-9.162-4.248-2.28 3.291-5.421-23.387-6.422-5.853-19.963 8.546-20.675 19.377 5.71 22.952-2.367z" id="137540"/>
    <path d="M213.413 271.437l13.958 9.136-4.71 4.743-5.127 19.782-8.622 15.827-22.865 10.632-14.77-.499-7.37-16.342 25.77-10.775 4.236-9.087 12.182-11.346-.047-12.337 7.365.266z" id="136553"/>
    <path d="M273.888 260.828l-1.322 6.32 17.72 3.089 2.79 15.907 13.12 1.453 3.676 8.171 10.25-.368 1.627 23.959 13.627 10.566-8.377 5.19-14.71-9.111-16.914 1.691-22.402-7.501-7.738-12.344-23.012-4.954 1.809-6.584-13.064-5.978-3.597-9.76-13.958-9.137 26.274 1.31 19.224-5.107 14.977-6.812z" id="137611"/>
    <path d="M328.264 243.207l6.762.888 9.989 20.367-8.27 4.255 3.998 14-.44 13.614-14.342 2.26-5.84-3.191-10.25.368-3.675-8.171-13.12-1.453-2.79-15.907-17.72-3.09 1.322-6.32 7.816-5.814 12.656-26.166 4.218 10.106 14.76 7.036 14.926-2.782z" id="139358"/>
    <path d="M341.799 178.606l11.861 15.906-4.09 8.26 8.053 21.239-5.607 6.337-22.228-4.067-1.524 16.926-14.926 2.782-14.76-7.036-4.218-10.106.708-4.788 24.582.368 9.874-6.122-.138-16.316-4.62-24.017 17.033.633z" id="137675"/>
    <path d="M479.651 192.17l-8.946 8.854 3.033 9.626-12.111 3.97-16.666 9.56-5.742-26.74-.995-1.599 2.28-15.055 12.151-6.299 7.701-8.104 7.356 4.398 4.345-16.47 5.904-1.59-4.892 25.878 6.582 13.571z" id="179873"/>
    <path d="M453.882 141.973l5.85 9.626-7.077 22.888-12.15 6.299-2.281 15.055-16.273-13.118-10.945-3.858 4.087-15.071-3.868-15.822 4.129-19.335 6.638 7.078 15.452.207 4.802 7.659 11.636-1.608z" id="138164"/>
    <path d="M416.027 126.822l-.673 1.815-4.129 19.335 3.868 15.822-4.087 15.071-5.058 17.946-3.587 22.351-1.936 2.2-2.798 5.416-17.822-3.014-3.691-16.655-19.26-16.866-3.194 4.269-11.861-15.906 20.851-12.919 7.81 1.201 9.085-11.133 13.343-23.217 23.139-5.716z" id="137960"/>
    <path d="M778.2 221.483l-4.825-11.553-22.044-4.667-21.528-.054-13.359-10.04-17.706-3.854-16.573-8.022 1.914-8.638 12.436-3.823 10.135-28.116 5.781-4.827-1.251-16.15 11.243 5.89 25.177 21.176 11.111-1.895 14.008 36.645 9.817 1.01 10.43 10.44L799 211.872l-14.814 14.31-5.986-4.7z" id="137407"/>
    <path d="M711.18 121.74l1.251 16.149-5.78 4.827-10.136 28.116-12.436 3.823-1.914 8.638-22.259-7.465-23.093 5.636-10.452.395 4.1-28.112 16.364-1.51 3.8-18.049 10.101-17.073-3.584-15.558 2.622-4.28 13.379 3.644 7.36 10.074 8.792-2.936 8.6 11.376 13.285 2.305z" id="137069"/>
    <path d="M453.308 98.257l-3.248 21.96 5.599 8.022-1.777 13.734-11.636 1.608-4.802-7.659-15.452-.207-6.638-7.078.673-1.815 8.485-7.734-4.174-24.104-6.67-2.721 2.45-13.632 17.677 9.326 9.558-1.157 9.955 11.457z" id="180028"/>
    <path d="M659.764 97.277l-2.622 4.28-11.385 5.595-7.435 8.668-9.136.834-7.028 8.094-20.256-.744-5.755 7.51-3.86-12.182 10.368-15.094-4.352-10.165 4.704-5.161-1.943-19.576L611.59 61.1l13.358 1.765 10.34 9.498-2.173 5.868 23.964 13.6 2.684 5.446z" id="137274"/>
    <path d="M605.76 52.23l5.83 8.87-10.526 8.236 1.943 19.576-4.704 5.161 4.352 10.165-10.367 15.094-6.193 8.1-13.305 6.81-13.249.526-14.284 8.843-4.036-10.902-12.178.158-6.446-9.375-.111-10.566-14.31 2.636 5.917-12.465 4.524 4.548 17.37-2.479 4.805-18.28 7.423-3.824 15.715 1.773 10.843-3.74 7.77-26.291 11.06 1.947 12.156-4.52z" id="139170"/>
    <path d="M522.011 35.44l24.717 9.738 31.848 5.535 3.968 4.09-7.771 26.293-10.843 3.739-15.714-1.773-7.424 3.825-4.806 18.28-17.369 2.478-4.524-4.548-8.305-4.473 12.316-12.449-9.146-9.404 5.963-11.054-.902-20.357 7.992-9.92z" id="136919"/>
    <path d="M605.76 52.23l-12.157 4.52-11.06-1.946-3.967-4.09-31.848-5.536-24.717-9.738-3.59-8.25 17.732-10.482 2.652-9.54L553.093 1l6.112 17.878 30.763 5.395 11.962 4.248 9.816 9.485-5.987 14.225z" id="139009"/>
    <path d="M588.531 253.314l4.5 8.311-20.638 24.45 5.794 9.29.259 17.27-15.685-3.682-27.78 3.32-10.542-9.048 26.645-39.208 29.576-12.608 7.871 1.905z" id="136802"/>
    <path d="M650.114 226.273l9.36 23.785 3.344 27.426-43.396 2.778-1.175-8.992-14.98-9.162 2.866-8.728 13.789-4.599-.568-15.067 18.914-2.452 11.846-4.989z" id="180091"/>
    <path d="M583.08 226.6l8.566 9.117-3.115 17.596-7.87-1.904-29.577 12.608-26.645 39.208-15.99.22.071-15.333-16.057-2.074-5.432-11.257-11-9.229-7.67-24.456 30.316-8.255 3.448 7.603 17.652-7.098 6.361 2.815 12.75-10.404 20.707-6.52 7.354 5.397 16.131 1.966z" id="138084"/>
    <path d="M626.36 181.86l10.453-.396 5.72 16.707-1.427 8.043 6.457 8.075 2.55 11.984-11.845 4.989-18.914 2.452.568 15.067-13.789 4.6-2.867 8.727-10.234-.483-4.5-8.311 3.114-17.597-8.566-9.117 4.953-10.707-6.554-11.336 7.364-23.08 23.291 7.916 14.226-7.534z" id="138351"/>
    <path d="M405.05 425.736l1.424 22.533 17.192 27.554-12.77.508-2.438 9.775-10.426 4.796-15.758-2.59-7.043-5.138-30.091-3.092-6.047-9.032.584-19.568-16.495-2.027-13.242-13.022 6.875-11.552-13.023-2.725 3.983-10.57 10.678-3.157 3.67-9.48 21.533 2.06 9.164 3.47.13 12.39 22.881 9.047 5.838-15.243 17.214 6.9 6.168 8.163z" id="136964"/>
    <path d="M206.048 271.17l.047 12.338-8.344-8.585-17.28 17.593-19.319 5.892-16.659-6.485-4.075 2.685-2.099-7.417 13.408-42.292 22.057-1.528 27.288 20.113 4.976 7.687z" id="137032"/>
    <path d="M468.36 241.096l7.67 24.456 11.001 9.229-22.952 2.367-19.377-5.71-14.733-1.492-6.317 3.622-17.43-5.908 4.284-15.983 22.926-7.11 14.806-13.811-3.277-6.575 16.666-9.56 6.733 26.475z" id="138280"/>
    <path d="M444.961 224.18l3.277 6.576-14.806 13.81-22.926 7.11-1.144-9.078-11.3-14.794 3.125-5.491 1.287-3.191.46-3.215 14.513-8.779 11.375-1.122 10.397-8.567 5.742 26.742z" id="137185"/>
    <path d="M51.344 299.628l4.52 5.788 37.22 21.247 1.873 13.611 23.168 15.156-12.34 10.003 13.347 6.898-5.38 5.224-42.36-19.655-19.894-11.753.729-18.435-6.039-1.805.824-15.446 4.332-10.833z" id="179882"/>
    <path d="M295.375 327.695l1.37 2.423-19.668 24.049-.444 14.006-16.726 18.127 6.06 6.55.121 12.44-16.117 2.792-4.804 6.178-14.37.36-6.657-9.775-7.513.768-5.295-28.404 8.174-7.558-6.675-6.828 1.508-15.797 10.589-22.083-16.016-4.018 8.622-15.827 5.126-19.782 4.711-4.743 3.597 9.762 13.064 5.977-1.81 6.584 23.013 4.954 7.738 12.344 22.401 7.501z" id="138208"/>
    <path d="M76.17 291.468l17.988 8.27 4.802 12.595 10.604 5.803 13.235 1.338 11.178 5.799 2.71 15.17-15.696 12.682-2.866 2.305-23.168-15.156-1.873-13.611-37.22-21.247-4.52-5.788 10.161 1.683 14.664-9.843z" id="137728"/>
    <path d="M163.907 314.716l7.37 16.342 14.77.499 22.865-10.632 16.016 4.018-10.59 22.083-1.507 15.797 6.675 6.828-8.174 7.558-9.118-6.004-2.42-11.759-16.156 7.896.568 18.075-8.861.64-17.494.75-6.312-7.78-13.792 12.604 3.593 13.454-9.195 3.002-15.832-23.756-3.926-2.278 1.365-4.498 5.38-5.224 4.9-5.668-3.04-13.538 15.694-12.682-2.709-15.17 13.809-12.26-1.019-4.546 17.14 6.249z" id="136526"/>
    <path d="M596.147 131.513l4.525 9.567-.712 9.496-15.276 17.073-11.304 5.85-11.745-3.58-10.726 12.136-.565-14.79-12.454-7.549 7.368-16.106 14.283-8.842 13.25-.526 13.304-6.81 6.193-8.1 3.859 12.181z" id="137746"/>
    <path d="M514.093 103.097l-5.917 12.465 14.31-2.636.111 10.566-31.804 4.45 1.13 9.817-7.108 6.48-13.514-9.516-1.73 18.163-9.84-1.287-5.849-9.626 1.777-13.734-5.6-8.023 3.25-21.959 14.702 3.863 3.643-6.862 23.962-6.114 8.843 2.85 4.499-15.223 9.146 9.404-12.316 12.449 8.305 4.473z" id="137764"/>
    <path d="M682.165 183.293l16.573 8.022 17.706 3.854 13.359 10.04 21.528.054 22.044 4.667 4.825 11.553-4.184 2.048-19.608 36.154-12.34 1.579-35.302 17.743-5.669-4.93-4.685-30.992-17.957-22.198-16.246-7.21-14.646.612-6.457-8.075 1.427-8.043-5.72-16.707 23.093-5.636 22.259 7.465z" id="136599"/>
    <path d="M706.766 279.007l-11.753 13.364-10.863-7.027-8.61 1.494-12.722-9.354-3.344-27.426-9.36-23.785-2.55-11.984 14.645-.612 16.246 7.21 17.957 22.198 4.685 30.992 5.669 4.93z" id="139330"/>
    <path d="M406.222 267.66l17.43 5.908 6.317-3.622 14.733 1.492-8.546 20.675 5.853 19.963 23.387 6.422-3.29 5.42-9.258 6.765-8.1-2.751-15.681 3.936-7.796 6.471-16.914-1.948-12.973-16.803-2.054-11.316 9.755-16.73-3.864-11.393 1.537-12.872 9.464.383z" id="138431"/>
    <path d="M83.472 404.077l6.067 19.215-6.985 12.446-2.953 6.886-21.261 10.612-2.234 4.558-16.043-4.495 3.661-12.033-16.429-22.43-8.887-3.401-3.093-8.629L1 403.338l10.976-28.74 35.265 15.635 18.887 4.53 17.344 9.314z" id="138574"/>
    <path d="M438.224 195.841l.995 1.598-10.397 8.567-11.375 1.122-14.514 8.779-.46 3.214-1.286 3.192-3.125 5.49 11.3 14.795 1.144 9.079-4.284 15.983-9.464-.383-1.537 12.872 3.864 11.394-9.755 16.729 2.054 11.317-11.6 6.28-3.246-10.627-15.318-.757-14.183 16.4-11.66-.96-13.628-10.567-1.627-23.958 5.84 3.191 14.342-2.26.439-13.613-3.998-14.001 8.27-4.255-9.989-20.367-6.762-.888 1.524-16.926 22.228 4.067 5.607-6.338-8.053-21.238 4.09-8.26 3.193-4.27 19.26 16.868 3.692 16.654 17.822 3.014 2.798-5.415 1.936-2.2 3.587-22.352 5.058-17.946 10.945 3.858 16.272 13.118z" id="136483"/>
    <path d="M657.142 101.557l3.584 15.558-10.102 17.073-3.799 18.048-16.365 1.51-14.953-4.817.237-9.505-15.072 1.656-4.525-9.567 5.755-7.509 20.256.744 7.028-8.094 9.136-.834 7.435-8.668 11.385-5.595z" id="139143"/>
    <path d="M630.46 153.747l-4.1 28.112-14.226 7.534-23.291-7.915-7.364 23.079-21.71-25.573-8.86 3.07 10.726-12.135 11.745 3.58 11.304-5.85 15.276-17.072.712-9.497 15.072-1.656-.237 9.505 14.953 4.818z" id="137229"/>
    <path d="M253.91 541.326l-5.941 20.757 1.196 17.997 12.21 9.31-12.888 4.068-2.763 11.63-16.328 15.422-19.507-18.212-7.306-14.23 2.911-10.117-7.982-7.645-9.463 1.3-1.893-15.811 5.13-20.03 5.26 7.098 12.53-4.676 7.266 8.775 18.442 14.563 19.127-20.199z" id="137363"/>
    <path d="M190.208 492.946l3.432 19.454-4.2 11.05 1.846 12.314-5.13 20.03-20.738-5.9-9.526 2.848-7.658-8.884-16.647 6.948-4.303-7.809-1.461-6.983 7.42-18.424 14.857-1.256 10.494-16.243 27.322-2.404 4.292-4.74z" id="138805"/>
    <path d="M276.732 473.039l-4.764 7.013-16.902.475-13.758 4.504 7.25 12.85-1.052 21.37 6.405 22.075-19.127 20.199-18.442-14.563-7.267-8.775-12.53 4.676-5.26-7.099-1.844-12.315 4.2-11.049-3.433-19.454 14.538-13.505 6.105-.941-2.287-15.631 21.405-.744 1.281-8.495 9.224-5.924 21.17 20.677 15.088 4.656z" id="136642"/>
    <path d="M335.377 329.925l11.66.96 3.026 13.224-2.775 16.044-16.329-2.649-2.52 11.142-6.624 2.53-6.32 12.427-29.667-4.098-9.195-11.332.444-14.006 19.668-24.048-1.37-2.424 16.914-1.691 14.71 9.111 8.377-5.19z" id="139054"/>
    <path d="M537.89 159.716l12.454 7.549.565 14.79 8.86-3.07 21.71 25.572 6.554 11.336-4.953 10.707-16.13-1.966-7.355-5.398-20.706 6.521-12.75 10.404-6.362-2.815-17.652 7.098-3.448-7.603-30.317 8.255-6.733-26.476 12.11-3.97-3.032-9.626 8.946-8.854 10.942-3.27 13.008-13.356 10.724-16.484 11.446 3.495 12.12-2.839z" id="138039"/>
    <path d="M522.597 123.492l6.446 9.375 12.178-.158 4.037 10.901-7.368 16.106-12.12 2.839-11.445-3.495-10.724 16.484-13.008 13.356-10.942 3.27-6.582-13.571 4.892-25.877-5.904 1.588-4.345 16.471-7.356-4.398-7.7 8.104 7.076-22.888 9.84 1.287 1.729-18.163 13.514 9.517 7.108-6.481-1.13-9.816 31.804-4.45z" id="139214"/>
    <path d="M435.936 427.33l13.938 1.888 8.11 13.918 16.741 11.707-.936 19.534-5.767 17.71 1.605 16.263-7.838 1.183-17.327-4.44-6.998 5.642-12.884-2.766-18.329-1.68-13.739-11.18 5.52-4.207 10.426-4.796 2.437-9.775 12.771-.508-17.192-27.554-1.423-22.533 6.733 3.514 24.152-1.92z" id="138869"/>
    <path d="M391.384 319.589l12.973 16.802 16.914 1.948 7.796-6.471 15.682-3.936 8.099 2.75 9.257-6.763 4.248 2.28 9.291 11.807-11.169 12.274 1.51 13.356-10.59 6.911-2.048 13.242 5.138 12.423-8.611 33.006-13.938-1.887-.466-29.82-22.514-30.434-12.323-9.036-20.848-32.173 11.599-6.28z" id="139394"/>
    <path d="M379.785 325.868l20.848 32.173 12.323 9.036 22.514 30.434.466 29.82-24.152 1.919-6.733-3.514-6.168-8.162-17.214-6.901-5.838 15.243-22.88-9.048-.13-12.39-9.165-3.468-21.532-2.062 5.361-11.788-5.67-15.984 6.624-2.53 2.52-11.142 16.33 2.649 2.774-16.044-3.026-13.224 14.183-16.4 15.317.757 3.248 10.626z" id="136848"/>
    <path d="M276.633 368.173l9.195 11.332 29.668 4.098 6.32-12.427 5.67 15.984-5.362 11.788-3.671 9.48-10.678 3.159-3.983 10.57 13.023 2.724-6.875 11.553-10.447-1.773-7.08 17.868-15.68 20.51-15.09-4.656-21.169-20.677-3.927-16.427 8.527 1.645 7.392-10.22-7.299-8.444 4.804-6.178 16.117-2.792-.12-12.44-6.06-6.55 16.725-18.127z" id="137443"/>
  </g>
</svg>
