<svg xmlns="http://www.w3.org/2000/svg" version="1.2" baseProfile="tiny" stroke-linecap="round" stroke-linejoin="round" viewBox="0 0 800 616">
  <g id="SV" fill="none" stroke="#aaa">
    <path d="M251.575 580.587l-17.433-11.203-14.418-17.246-.164-8.438-33.404 6.347-16.306 6.643 12.881-10.005-2.226-10.683 14.964-20.585-9.276-17.459 6.7-11.998 16.978 1.93 7.253-5.35 3.846 4.457 8.251 24.213 12.077-4.552 15.651 1.296 18.584 15.593-4.367 10.378-16.598 5.283 2.186 6.65 14.026 7.014-7.768 15.795 1.112 8.157-12.549 3.763z" id="149682"/>
    <path d="M215.79 479.024l1.334 3.516-7.253 5.35-16.977-1.93-6.701 11.998 9.275 17.459-14.963 20.585 2.226 10.683-12.881 10.005-10.06 6.07-3.232 15.212 4.174 11.737-7.707 8.112-21.076 3.678-3.794-6.912-11.516-3.28-12.242-11.35.48-7.166-7.091-12.071 6.827-20.373 9.458-6.174 8.041-19.06 13.244-10.504-1.504-20.259 10.994-11.493 17.733-6.03 10.127-2.909 6.004-9.845 8.942 2.636 11.79-4.624 10.279 10.734-2.049 6.893 8.117 9.312z" id="150445"/>
    <path d="M115.92 427.526l4.203 20.314-9.82 10.089-15.836 11.219 2.315 33.041-5.676 7.931.245 9.668 13.262 20.559-6.827 20.373 7.092 12.07-.48 7.167-13.48 11.612-9.943-5.784-13.01.848-6.802-3.783-9.757-16.123 4.096-9.865-3.5-22.9-6.786-11.385 13.975-20.212 2.155-8.367-12.918-7.774-10.64-11.116 8.934-11.377 13.117-4.818.012-20.363 11.213-7.237 11.616.96 4.188-6.08 17.137-2.648 11.914 3.981z" id="149851"/>
    <path d="M638.634 409.935l20.1 12.165 7.677 11.35-7.012 5.44-51.08 25.95.742 5.974-11.998 4.558-30.534-18.151 7.485-9.477 12.67-.2 7.946-4.954 8.71-2.576 21.96-15.767.78-15.396 12.554 1.084z" id="147072"/>
    <path d="M626.08 408.851l-.78 15.396-21.96 15.767-8.71 2.576 3.294-8.133-3.407-19.772 6.208-10.74 4.587-5.822 20.767 10.728z" id="147054"/>
    <path d="M600.725 403.945l-6.208 10.74 3.407 19.772-3.294 8.133-7.946 4.954-12.67.2-7.485 9.477-6 7.39-16.23 5.508-5.189-5.758-31.714 15.714-17.197-9.48-4.433 3.803L472 471.043l-5.132-21.199 9.369-7.007 5.606-9.963 21.171-25.015 9.388-5.806 17.66-8.776 7.97 3.072 8.1-4.03 19.57 10.449 16.405-9.792 12.141 4.106 6.476 6.863z" id="150114"/>
    <path d="M393.887 453.57l-20.068-.973-7.213-2.392-9.144 11.453-18.184-12.778-6.962-10.935-.388-16.515-4.767-12.288 37.663-25.319 9.532 3.35 5.777 11.557 9.857.381-.612 12.698 12.425 26.315-7.916 15.447z" id="149655"/>
    <path d="M215.303 393.552l-7.595 28.314-.351 20.696-7.916 9.523-11.789 4.624-8.942-2.636-6.004 9.845-10.127 2.91-3.7-17.34-5.632-9.19 8.258-23.027-7.833-8.944-10.6 2.34-4.564-11.466 10.423 2.05 23.843-5.63 15.294-7.406 4.605-8.015 22.63 13.352z" id="146744"/>
    <path d="M668.826 381.708l5.2 12.112 9.454 2.454 5.102 7.936 1.12 15.823-11.492-.381-7.66-5.99-8.746 9.067 4.607 10.72-7.677-11.35-20.1-12.164-13.377-6.034 4.526-14.793 14.505-4.382 14.24 4.897.348-15.786 9.95 7.87z" id="150766"/>
    <path d="M266.626 394.105l5.02 21.11-5.847 6.182 1.407 24.81-19.338 13.749-8.358 8.903-2.542 6.239-21.179 3.926-8.117-9.312 2.049-6.893-10.28-10.734 7.916-9.523.35-20.696 7.596-28.314 5.074.071 14.908-14.124 7.706-1.69 15.943-11.297 2.816 7.113-2.577 12.458 7.453 8.022z" id="148131"/>
    <path d="M629.994 368.49l14.294 16.236-14.505 4.382-4.526 14.793 13.377 6.034-12.555-1.084-20.766-10.728-7.366-17.92 12.002-11.528 20.045-.185z" id="151488"/>
    <path d="M524.055 349.231l12.09 6.484 6.18 7.828-17.722 3.28-12.532 19.924.332 15.306-9.388 5.806-21.17 25.015-5.607 9.963-9.37 7.007 5.133 21.199-4.844 4.443-16.114 3.579-3.912 12.13-10.594-1.782-15.21-21.698 3.494-28.387 9.185-4.496 6.104 3.28 14.06-17.455-1.304-10.061 23.379-20.65 8.753-3.56 9.233-12.07-2.56-8.328 8.725-5.508 10.298-19.798 13.361 8.55z" id="149316"/>
    <path d="M510.694 340.682l-10.298 19.798-8.725 5.508 2.56 8.329-9.233 12.068-8.753 3.561-23.38 20.65 1.305 10.061-14.06 17.454-6.104-3.28-3.158-10.9-16.375-23.11-5.247-12.707.354-19.835 9.88-10.679 21.352 1.517 14.856-5.112 17.673 3.065 15.358-1.98 21.995-14.408z" id="150258"/>
    <path d="M620.48 329.433l9.485 8.954 10.54 13.495-3.445 4 .311 10.421-7.377 2.187-20.045.185-7.461-6.542 2.376-22.326 12.02-.328 3.595-10.046z" id="146539"/>
    <path d="M355.948 330.747l15.26-3.08 3.16 13.37 9.677 14.746 18.528 16.857 7.007-4.361-.354 19.836 5.247 12.706 16.375 23.11 3.158 10.9-9.185 4.497-3.494 28.387-14.648-11.321-12.792-2.823 7.916-15.447-12.425-26.315.612-12.698-9.857-.381-5.777-11.557-9.531-3.35-37.664 25.319-18.535-2.226-1.4-14.492 4.929-6.799-5.916-10.624-6.861-15.202 13.324-7.16 22.532-21.587 7.194 4.693 8.19-9.146 5.33 4.148z" id="150356"/>
    <path d="M696.309 338.233l2.654 15.709-1.099 14.683-29.038 13.083-9.95-7.87-.348 15.785-14.24-4.897-14.294-16.236 7.377-2.187-.311-10.422 10.564.643 9.647-11.542 4.349-19.655 10.193 6.702 9.198-.06 15.298 6.264z" id="149968"/>
    <path d="M76.902 357.521l7.794 2.476 18.519-8.858 17.163 5.743 7.974 12.604 1.88 12.622 8.276 17.093-11.331 9.523-7.617-.847-.04 15.724-3.6 3.925-11.915-3.981-17.137 2.648-4.188 6.08-11.616-.96-11.213 7.237-6.515-5.058.197-20.43-5.488 1.143-21.529-23.92 5.122-13.63 17.19 1.614 11.647-5.001-9.976-18.995-1.818-9.427 18.958-15.582-.116-4.266 6.448 9.145-1.292 10.368 4.223 13.01z" id="151497"/>
    <path d="M500.56 329.338l19.978 11.883 3.517 8.01-13.361-8.549-21.995 14.408-15.358 1.98-17.673-3.065-.035-5.207 26.48-17.515 5.007-8.215 13.44 6.27z" id="150891"/>
    <path d="M661.62 325.327l-4.349 19.655-9.647 11.542-10.564-.643 3.446-4-10.54-13.494 6.466-5.311 1.389-9.961 13.803-1.012 9.995 3.224z" id="151549"/>
    <path d="M592.123 310.169l14.948 13.436 9.808-6.607 3.6 12.435-3.595 10.046-12.02.328-2.376 22.326-4.464 6.876-12.8-10.212-8.951-1.647-4.144-17.93 8.587-17.177 6.508-2.586-1.843-13.404 6.742 4.116z" id="150070"/>
    <path d="M172.097 339.807l6.558 12.902-5.698 4.881-12.337-.567-17.548 11.955-14.72.508-7.974-12.604-17.163-5.743-18.519 8.858-7.794-2.476 10.024-5.936 10.19-19.513 3.19-12.892 8.289-10.426 9.391-2.255 11.178-8.226 14.325 4.267 4.483 11.865 13.828 9.272 4.773 13.647 5.524 2.483z" id="151451"/>
    <path d="M448.095 303.316l8.754 2.597 29.449 16.046.822 1.11-5.006 8.214-26.481 17.515.035 5.207-14.856 5.112-.136-12.086-8.234-23.972-1.998-23.199 11.213-2.394 6.438 5.85z" id="151503"/>
    <path d="M624.58 300.043l13.663 17.866-.423 5.206-1.388 9.96-6.467 5.312-9.486-8.954-3.6-12.435-9.808 6.607-14.948-13.436 10.19-13.045 22.267 2.92z" id="147465"/>
    <path d="M496.385 290.848l12.097 16.277 3.539 11.91-11.461 10.303-13.44-6.27-.822-1.11 3.269-23.573-6.378-8.16 13.196.623z" id="151576"/>
    <path d="M694.678 296.822l-2.42 13.746 1.555 14.725 5.444 12.72-2.948.22-15.298-6.265-9.198.06-10.193-6.7-9.996-3.225-13.803 1.012.422-5.206-13.663-17.866 8.367-.025 20.538 3.094 11.262-16.086 12.24 10.693 17.69-.897z" id="151157"/>
    <path d="M735.414 287.005l8.636 13.892 10.255 1.637.592 8.13-22.765 7.757 16.523 14.575-.902 6.105-17.564 12.51-8.863-9.633-4.973 3.854-17.096-7.818-5.444-12.721-1.555-14.725 2.42-13.746 3.964 2.272 15.63-10.843 21.142-1.246z" id="149227"/>
    <path d="M586.367 303.83l-.986 2.223 1.843 13.404-6.508 2.586-8.587 17.177-7.475 7.315-10.212-4.634-12.84-17.357-11.439-6.928 15.978-16.859-.71-6.74 15.365-2.282 6.23-7.574 17.956 10.07 1.385 9.598z" id="149049"/>
    <path d="M298.377 291.25l11.74 17.743 12.7 3.862 12.417 18.197-22.532 21.587-13.324 7.16 6.861 15.202-15.271-12.513-12.033 6.193-6.476 8.07 4.36 8.088-2.307 10.04-7.886-.774-7.453-8.022 2.577-12.458-2.816-7.113-9.533-20.1 9.663-6.31 6.133-18.982-9.456-8.745 8.721-9.75 1.536-16.893-2.762-10.272.332-.306 9.982 6.875 8.75-1.089 16.077 10.31z" id="146502"/>
    <path d="M387.026 275.234l12.058 8.655 11.738 7.395-4.132 15.07 1.309 26.16-3.04 10.986 14.5 14.1-9.879 10.678-7.007 4.362-18.528-16.857-9.676-14.746-3.16-13.37-15.26 3.08 1.25-10.286 7.138-14.337 14.879-11.582-1.83-6.77 9.64-12.538z" id="148612"/>
    <path d="M444.233 278.987l12.617 16.171-8.755 8.158-6.438-5.85-11.213 2.394 1.998 23.2 8.234 23.97.136 12.087-21.352-1.517-14.502-14.1 3.04-10.986-1.308-26.16 4.132-15.07-11.738-7.395 7.956-7.355 14.115 2.741 13.995-5.033 9.083 4.745z" id="146584"/>
    <path d="M470.527 272.812l8.807 3.423 3.855 13.99 6.378 8.16-3.27 23.574-29.448-16.046-8.754-2.597 8.755-8.157-12.617-16.172 12.531-7.949 5.708 9.405 8.055-7.63z" id="149753"/>
    <path d="M664.468 255.042l3.414 3.532 20.683 3.27 6.654 15.306 7.504-5.832 11.55 16.933-15.631 10.843-3.965-2.272-17.69.897-12.24-10.693-11.262 16.086-20.538-3.094-2.905-17.178 5.967-27.874 16.711-2.244 11.748 2.32z" id="150588"/>
    <path d="M198.633 268.12l14.073 22.463 16.036 5.412 3.196 9.74-13.614 15.293-9.374-.465-8.044 7.226-28.81 12.018-5.523-2.483-4.773-13.647-13.828-9.272-4.483-11.865-14.325-4.267-12.71-8.753-.586-19.25 5.335-5.319 31.058-12.496 7.934 11.412 19.318 3.109 12.051 8.327 7.07-7.183z" id="148765"/>
    <path d="M220.3 245.656l14.067 15.4 20.117 14.171 8.752.233 2.762 10.272-1.536 16.894-8.721 9.749-26.999-16.38-16.036-5.412-14.073-22.463-5.678-5.109 23.706-20.594 3.638 3.24z" id="150178"/>
    <path d="M527.743 261.042l-11.092 5.597-27.899.056-9.418 9.54-8.807-3.423 8.4-22.507 30.664-8.384 8.151-9.064 10.001 28.185z" id="147660"/>
    <path d="M387.026 275.234l-9.64 12.537 1.83 6.77-14.879 11.583-7.138 14.337-1.25 10.286-5.332-4.148-8.189 9.146-7.194-4.693-12.417-18.197-12.7-3.862-11.74-17.743 6.401.713 13.147-21.358 21.844-23.436 2.082-14.114 11.47-.328 11.559 5.952 22.45 26.869-.304 9.686z" id="150935"/>
    <path d="M735.414 287.005l-21.141 1.246-11.55-16.933-7.504 5.832-6.654-15.306.322-3.105 31.917-27.969-5.43-4.975 6.606-.453.364 19.614 4.536.756 1.22 18.046 7.314 23.247z" id="148453"/>
    <path d="M472.834 241.148l6.092 9.157-8.399 22.507-8.055 7.631-5.708-9.405-12.531 7.95-9.083-4.746-7.33-18.052 22.418-16.477-4.384-12.151 6.097-6.428 5.23-2.39 18.327 14.992-2.674 7.412z" id="149780"/>
    <path d="M216.661 242.417l-23.706 20.594 5.678 5.109-7.069 7.183-12.051-8.327-19.318-3.11-7.934-11.41-31.058 12.495 13.427-19.48 8.226-2.204 2.551-8.133 9.464-9.4 4.25-10.843 11.705-11.684 28.224 19.587 3.669 5.326 15.975 5.827-2.033 8.47z" id="147205"/>
    <path d="M521.245 220.152l-3.503 12.705-8.15 9.064-30.666 8.384-6.092-9.157 8.89-1.518 13.36-19.68-2.56-6.11 13.448-1.887 15.273 8.2z" id="151530"/>
    <path d="M478.477 205.203l14.047 8.637 2.56 6.11-13.36 19.68-8.89 1.518 2.674-7.412-18.328-14.992 8.471-15.471 12.826 1.93z" id="151433"/>
    <path d="M363.984 193.805l21.311 14.903-.489 20.918 15.512 11.428 16.29.028 11.213 15.108 7.33 18.052-13.996 5.033-14.115-2.74-7.956 7.354-12.058-8.655.303-9.686-22.45-26.869-11.558-5.952-2.747-18.131-12.488-9.653-1.537-11.56 15.438-10.83 11.997 11.252z" id="149370"/>
    <path d="M336.55 193.382l1.536 11.561 12.488 9.653 2.747 18.13-11.47.329-2.082 14.114-21.844 23.436-13.147 21.358-6.401-.713-16.077-10.31-8.75 1.09-9.983-6.876 27.04-21.53 13.146-3.512 5.648-40.895-3.39-5.276 6.317-18.245 8.115-3.33 16.106 11.016z" id="148729"/>
    <path d="M504.533 172.915l14.305 1.42 2.028 7.288 11.058 4.447 8.148 10.062 9.205 2.713-16.93 27.7-11.102-6.393-15.273-8.2-13.448 1.888-14.047-8.637 6.948-26.183 13.41-7.485 5.698 1.38z" id="150524"/>
    <path d="M94.614 194.58l-1.552 19.495-5.242 5.431 17.643 24.804 1.63 7.692 14.11 12.95-5.335 5.319.587 19.249 12.71 8.753-11.179 8.226-9.391 2.255-8.29 10.426-3.19 12.892-10.19 19.513-10.023 5.936-4.223-13.01 1.292-10.368-6.448-9.145.675-3.71-15.495-14.151-4.123-15.78-20.08-5.621-7.99-11.305-11.845-6.636 4.6-12.169L29.39 242.69l19.66-5.694 1.091-8.754-15.125-8.014-33.652-34.116L1 178.086l16.456-.225 10.656-3.278 15.024 6.006 4.56-9.594 19.534 15.879 7.469 1.15-3.355 12.04 23.27-5.483z" id="147713"/>
    <path d="M428.349 190.21l-9.919 3.467-19.157 15.122-13.978-.091-21.31-14.903 10.253-7.753.07-12.87 8.566-2.71 22.284-.055 16.392 2.401 6.799 17.392z" id="146708"/>
    <path d="M320.443 182.367l-8.115 3.329-6.316 18.245 3.389 5.276-5.648 40.895-13.146 3.513-27.04 21.53-.33.305-8.753-.233-20.117-14.17-14.068-15.4 13.121-11.955 1.893-6.29 16.292-18.01 10.77-.795 7.675 10.94 14.815-10.5 1.234-18.033 5.142-3.525 7.82-22.805 6.664-5.944 13.348 14.687 1.37 8.94z" id="150980"/>
    <path d="M416.643 141.686l13.06 5.176 10.55 8.197 7.475-2.067 3.964 11.49 25.073 4.35 6.27-5.88 6.287 2.771.612-.46-7.904 9.35-2.643-3.812-14.634 4.15-12.407 12.551-14.283 5.867-9.714-3.16-6.8-17.39-16.39-2.402-22.285.054-4.508-4.887 4.61-16.096 12.81 2.03 7.163-9.246 13.694-.586z" id="146860"/>
    <path d="M459.14 139.675l26.13 18.1 4.052 7.948-6.288-2.77-6.269 5.88-25.073-4.35-3.964-11.491 11.413-13.317z" id="151442"/>
    <path d="M632.241 129.281l15.417 13.448 13.102-3.077.847 16.474-6.27 9.217-20.899 12.596-9.525-4.187-9.532-29.25 1.542-6.266 15.318-8.955z" id="151512"/>
    <path d="M554.798 132.6l-9.247 16.185 6.996 31.401-3.736 13.443 3.489 4.296-3.023.92-9.205-2.713-8.148-10.062-11.058-4.447-2.028-7.288-14.305-1.42 12.142-18.578 12.365-6.274-2.878-19.254 19.042 5.877 9.594-2.087z" id="147937"/>
    <path d="M453.449 120.217l7.428 7.99-1.736 11.468-11.413 13.317-7.475 2.067-10.55-8.197-1.335-8.986 14.934-7.474 10.147-10.185z" id="151521"/>
    <path d="M298.1 145.052l1.138 10.251 6.487 3.438-6.663 5.943-7.821 22.805-5.142 3.525-1.234 18.034-14.815 10.5-7.675-10.94-10.77.794-16.292 18.01-1.893 6.29-13.12 11.954-3.639-3.239 2.033-8.47-15.975-5.827-3.669-5.326-28.224-19.588-12.745-22.653 2.228-20.422 19.941-6.693 10.871-6.601 29.728-13.199 6.37-12.771 10.67 2.487 10.832-7.693 13.713 12.182 5.696 12.16 19.46-5.894 10.51 10.943z" id="149539"/>
    <path d="M453.005 115.356l.444 4.861-10.147 10.185-14.934 7.474 1.334 8.986-13.059-5.176-.286-18.646 4.497-11.707 4.364-1.888 10.875-1.297 16.912 7.208z" id="151120"/>
    <path d="M346.077 110.763l5.129 7.826 20.648 9.22-.433 6.254-17.068 22.155-10.59 5.63 8.224 20.704-15.438 10.83-16.106-11.015-1.37-8.94-13.348-14.686-6.487-3.438-1.138-10.251 10.331-4.69 9.836-20.745 10.897-14.277 6.18 7.743 10.733-2.32z" id="150418"/>
    <path d="M543.996 93.159l7.925 14 10.256 7.328 6.115 6.543-12.77 9.61-.724 1.96-9.594 2.086-19.042-5.877-9.233-11.731 3.46-11.384 23.607-12.535z" id="151460"/>
    <path d="M500.05 89.333l16.734 17.63 3.605-1.269-3.46 11.384 9.233 11.73 2.878 19.255-12.365 6.274-12.142 18.578-5.697-1.38-4.36-7.392-1.263-9.22 10.448-12.17-7.998-14.77-1.986-10.478 1.874-24.693 1.237-1.941 3.262-1.538z" id="148970"/>
    <path d="M495.551 92.812l-1.874 24.694 1.986 10.476-24.036-8.221-7.196-8.35-1.149-13.103 5.986-9.904 26.283 4.408z" id="150196"/>
    <path d="M632.241 129.281l-15.318 8.955-1.542 6.267-13.849-9.36-11.19 8.565-8.154-18.632-13.896-4.046-6.115-6.543 34.197-34.19 8.242 7.654 9.083.35 7.628 27.382 10.914 13.598z" id="151344"/>
    <path d="M527.633 67.078l6.293 13.013 10.07 13.068-23.607 12.535-3.605 1.27-16.734-17.63 9.443-4.003 2.119-11.887 16.02-6.366z" id="147580"/>
    <path d="M596.374 80.297l-34.197 34.19-10.256-7.327-7.925-14.001-10.07-13.068 9.001-10.962 5.618 5.619 9.75-2.401 6.594-7.278 16.842-3.728 12.755 7.692 1.888 11.264z" id="151246"/>
    <path d="M384.499 72.561l-5.34 8.111-20.342 4.048-14.252 19.227 1.512 6.816-10.733 2.32-6.18-7.743-2.275-3.61 20.396-7.016 9.634-12.363.099-11.867 8.452-6.063 11.61.16 3.506-7.317 3.913 15.297z" id="151558"/>
    <path d="M394.406 45.534l13.193.383 3.454 3.975.348 20.151-14.305-3.43-2.828 7.228-9.77-1.28-3.912-15.297-2.75-5.193 16.57-6.537z" id="148872"/>
    <path d="M258.445 87.6l-3.366 9.483 5.987 8.086-12.345 10.492-10.832 7.694-10.67-2.488-6.37 12.771-29.728 13.199-10.87 6.601-10.238-16.573-5.743-16.087-7.56-7.125 10.42-16.893 2.194-10.817 16.026-10.38-20.023-22.12 6.794.454 58.338-9.75L246 62.509 258.445 87.6z" id="147241"/>
    <path d="M463.163 66.8l7.495 7.955-10.52 8.774-15.08-7.02-16.469 3.6-.547-4.768-16.64-5.298-.35-20.151-3.453-3.975 17.254-1.454 7.725 6.624 21.945 7.822 8.64 7.891z" id="148694"/>
    <path d="M295.098 50.896l-15.366 3.132.796 7.025-10.85 23.06-11.233 3.488-12.446-25.092-15.54-18.362 20.781-3.558 35.87-3.536 7.988 13.843z" id="150294"/>
    <path d="M394.406 45.534l-16.57 6.537-24.324 4.646-8.442-2.755 5.017-14.733 3.55-5.895 4.956.48 15.939 1.359 15.586-7.661 4.288 18.022z" id="147036"/>
    <path d="M380.586 57.264l-3.506 7.316-11.61-.159-8.453 6.063-.098 11.867-9.634 12.363-20.396 7.016-2.377-23.352-15.307-18.559 11.567 6.075 24.298-11.932 8.442 2.755 24.324-4.646 2.75 5.193z" id="151077"/>
    <path d="M156.71 113.653l-24.706 20.66-7.138.277-1.068-19.537-7.525-13.601 9.005-10.488.212-13.978 6.89-10.66 14.452 1.936 18.495-14.82 20.023 22.12-16.026 10.381-2.194 10.817-10.42 16.893z" id="150702"/>
    <path d="M192.673 380.2l-4.605 8.015-15.294 7.405-23.843 5.631-10.423-2.05-8.276-17.093-1.88-12.622 14.72-.508 17.548-11.955 12.337.567 5.698-4.881 11.24 17.883 2.778 9.608z" id="149138"/>
    <path d="M255.74 312.375l9.457 8.745-6.133 18.982-9.663 6.31 9.533 20.1-15.943 11.297-7.706 1.69-14.908 14.124-5.075-.071-22.63-13.352-2.778-9.608-11.24-17.883-6.557-12.902 28.809-12.018 8.044-7.226 9.374.466 13.614-15.294-3.196-9.74 26.999 16.38z" id="149931"/>
    <path d="M474.734 46.128l10.476 4.237 10.853 22.752-4.648 12.564 5.373 5.19-1.237 1.941-26.283-4.408-9.13-4.875 10.52-8.774-7.495-7.955.982-26.287 10.59 5.615z" id="148293"/>
    <path d="M428.349 190.21l9.714 3.16 4.03 12.573-4.792 7.944-16.517-.365-10.093-7.492-11.418 2.769 19.157-15.122 9.919-3.467z" id="151585"/>
    <path d="M715.374 225.795l5.43 4.975-31.917 27.97-.322 3.104-20.683-3.27-3.414-3.532 2.23-10.285 18.611-18.055-1.557-6.013 12.997-5.18 2.753-12.004 15.872 22.29z" id="151022"/>
    <path d="M699.502 203.505l-2.753 12.005-12.997 5.179 1.557 6.013-18.611 18.055-3.558-17.195-27.519-29.786 7.66 2.05 18.108 7.019 23.726-22.468-1.362-11.38 2.473 9.236 13.276 21.272z" id="148426"/>
    <path d="M683.753 172.997l1.362 11.38-23.726 22.468-18.109-7.02-8.434-12.477-.408-9.41 20.898-12.595 12.967-5.93 15.45 13.584z" id="150221"/>
    <path d="M615.381 144.503l9.532 29.249 9.525 4.187.408 9.409 8.434 12.477-7.659-2.05-13.73.973.922-5.265-16.254-13.449.206-6.268-12.198-11.074-4.226-18.984 11.191-8.564 13.85 9.359z" id="146799"/>
    <path d="M420.854 111.333l-4.497 11.707.286 18.646-13.694.586-7.163 9.246-12.81-2.03-4.61 16.096 4.508 4.887-8.567 2.71-.069 12.87-10.254 7.754-11.997-11.253-8.224-20.703 10.59-5.631 17.068-22.155.433-6.253 8.035-12.482 17.972-7.228 22.993 3.233z" id="149290"/>
    <path d="M532.807 32.688l-7.637 9.299-9.375 4.164 1.454-13.53-11.844 3.096-20.195 14.648-10.476-4.237-.45-9.411 11.572-17.3 6.887 2.95 5.137-12.586-9.532-5.187L503.369 1l26.476 10.19 2.962 21.498z" id="146655"/>
    <path d="M156.71 113.653l7.56 7.125 5.743 16.087 10.237 16.573-19.941 6.693-11.266-3.79-13.106 10.68-17.47 9.808-13.83 15.122-10.023 2.63-23.27 5.483 3.355-12.04-7.47-1.15-19.533-15.879 29.62-10.198.207-8.622 14.793-16.388 7.673.87.462-12.242 15.823-22.963 7.524 13.602 1.068 19.536 7.138-.278 24.706-20.659z" id="149183"/>
    <path d="M721.218 389.233l18.311-22.177-9.34-15.445 17.564-12.51 5.296 12.507 10.626-5.381L799 342.711l-8.884 9.9 3.73 14.06-.781 14.926-18.66 10.493 15.171 12.985 1.844 12.052-32.452 4.055-4.478-7.57-13.28-5.9.008-8.654-17.315.093-2.685-9.918z" id="148006"/>
    <path d="M730.19 351.61l9.34 15.446-18.312 22.177-11.707 7.145-4.726-16.868-6.92-10.885 1.098-14.683-2.654-15.709 2.948-.22 17.096 7.82 4.973-3.855 8.863 9.633z" id="148097"/>
    <path d="M709.511 396.378l-2.96 6.879 5.659 7.781-3.508 7.174 6.906 16.68-.556 3.965-23.349 16.006-11.013-12.941-14.279-8.472-4.607-10.721 8.746-9.068 7.66 5.99 11.492.382-1.12-15.823-5.102-7.936-9.454-2.454-5.2-12.112 29.038-13.083 6.92 10.885 4.727 16.868z" id="148514"/>
    <path d="M691.703 454.863l23.349-16.006.556-3.966 4.333.196 12.212 23.186-18.184 20.375-3.355-7.328-18.911-16.457z" id="148382"/>
    <path d="M138.508 399.201l4.565 11.465 10.599-2.339 7.834 8.944-8.259 23.028 5.632 9.19 3.7 17.338-17.733 6.03-10.994 11.493 1.504 20.26-13.244 10.503-8.04 19.06-9.459 6.174-13.262-20.559-.245-9.668 5.676-7.93-2.315-33.042 15.836-11.22 9.82-10.088-4.204-20.314 3.601-3.925.04-15.724 7.617.847 11.331-9.523z" id="148202"/>
    <path d="M532.807 32.688l10.26 10.542 6.87-2.763 8.953 4.924.578 18.401 5.421 1.277-6.593 7.278-9.751 2.4-5.618-5.618-9.001 10.962-6.293-13.013-11.838-20.927 9.375-4.164 7.637-9.299z" id="148916"/>
    <path d="M515.795 46.151l11.838 20.927-16.021 6.366-2.12 11.887-9.442 4.002-3.262 1.538-5.373-5.19 4.648-12.564-10.853-22.752 20.196-14.648 11.843-3.096-1.454 13.53z" id="146995"/>
    <path d="M532.347 226.546l16.456 14.865 1.257 7.093 12.814 15.693-10.635 15.386-12.61-1.01-11.886-17.53-10-28.186 3.502-12.705 11.102 6.394z" id="150310"/>
    <path d="M527.743 261.042l11.885 17.532-9.998 7.661-13.7-3.163-19.545 7.776-13.196-.622-3.855-13.99 9.418-9.541 27.9-.056 11.091-5.597z" id="151567"/>
    <path d="M529.63 286.235l15.802 7.781.71 6.741-15.979 16.86-1.399 7.053-16.743-5.635-3.54-11.91-12.096-16.277 19.544-7.776 13.701 3.163z" id="148328"/>
    <path d="M629.611 249.888l6.398 5.077-5.967 27.875 2.905 17.178-8.367.025-22.267-2.919-10.19 13.045-6.742-4.116.986-2.224 7.776-4.517-6.672-34.475 12.72-8.718 5.635 8.19 23.785-14.42z" id="147134"/>
    <path d="M590.424 252.52l-2.953 12.317 6.672 34.475-7.776 4.517-1.385-9.597-17.956-10.07-6.23 7.573-15.364 2.281-15.802-7.78 9.999-7.662 12.61 1.009 10.635-15.386 14.563-22.6 8.166 1.367 4.821 9.556z" id="149414"/>
    <path d="M577.526 211.819l10.214 10.331-2.368 11.285-7.935 8.162-14.563 22.6-12.814-15.693-1.257-7.093-16.456-14.865 16.93-27.7 3.023-.921 12.16 4.364 13.066 9.53z" id="146432"/>
    <path d="M571.668 188.204l5.83 6.688.028 16.927-13.066-9.53-12.16-4.364-3.489-4.296 3.736-13.442-6.996-31.403 9.247-16.185.723-1.959 9.51 9.623 6.206 26.726.43 21.215z" id="149833"/>
    <path d="M590.341 143.708l4.226 18.984 12.198 11.074-.206 6.268-9.457 20.286-15.618-9.792-9.816-2.324-.431-21.215-6.206-26.726-9.51-9.623 12.771-9.61 13.896 4.046 8.153 18.632z" id="146325"/>
    <path d="M635.621 197.776l27.519 29.786 3.558 17.195-2.23 10.285-11.748-2.32-16.71 2.243-6.399-5.077-5.277-12.255-11.145-11.862 8.701-27.023 13.731-.972z" id="146370"/>
    <path d="M629.611 249.888l-23.785 14.42-5.635-8.189-12.72 8.718 2.953-12.316 10.284-12.998 7.473-.939 5.007-12.813 11.146 11.862 5.277 12.255z" id="146281"/>
    <path d="M606.56 180.034l16.253 13.449-.923 5.265-8.702 27.023-5.007 12.813-7.473.94-10.284 12.996-4.82-9.556-8.167-1.367 7.935-8.162 2.368-11.285-10.214-10.331-.028-16.927-5.83-6.688 9.816 2.324 15.617 9.792 9.458-20.286z" id="146263"/>
    <path d="M602.488 362.133l7.461 6.542-12.002 11.527 7.365 17.92-4.587 5.823-6.476-6.863-12.141-4.106-16.404 9.792-19.57-10.45 11.471-8.434 18.668-26.734 8.95 1.647 12.802 10.212 4.463-6.876z" id="146904"/>
    <path d="M512.021 319.035l16.743 5.635 1.4-7.054 11.438 6.928 12.84 17.357 10.212 4.634 7.475-7.315 4.144 17.93-18.668 26.734-11.472 8.434-8.1 4.03-7.97-3.071-17.66 8.776-.332-15.306 12.532-19.924 17.723-3.28-6.182-7.828-12.089-6.484-3.517-8.01-19.978-11.883 11.461-10.303z" id="147786"/>
    <path d="M160.309 160.131l-2.228 20.422 12.745 22.654-11.705 11.684-4.25 10.843-9.464 9.4-2.551 8.133-8.226 2.203-13.427 19.481-14.11-12.95-1.63-7.69-17.643-24.805 5.242-5.43 1.552-19.495 10.023-2.63 13.83-15.122 17.47-9.808 13.106-10.68 11.266 3.79z" id="149502"/>
    <path d="M411.401 70.043l16.641 5.298.547 4.768-2.345 11.274-10.497-3.516-18.457 9.513-9.762-3.268-8.37-13.44 5.34-8.11 9.77 1.28 2.828-7.229 14.305 3.43z" id="149101"/>
    <path d="M426.244 91.383l-1.026 18.062-4.364 1.888-22.993-3.233-17.972 7.228-8.035 12.482-20.648-9.22-5.129-7.827-1.512-6.816 14.252-19.227 20.341-4.048 8.37 13.44 9.762 3.268 18.457-9.513 10.497 3.516z" id="151479"/>
    <path d="M431.226 18.534l32.919 21.98-.982 26.286-8.64-7.891-21.945-7.822-7.725-6.624-17.254 1.454-13.193-.383-4.288-18.022 7.394-9.033 15.886-4.416 17.828 4.471z" id="148667"/>
    <path d="M474.734 46.128l-10.59-5.615-32.918-21.979 6.195-9.566 16.879 4.19 34.048-8.564 9.532 5.187-5.137 12.586-6.887-2.95-11.573 17.3.451 9.41z" id="149584"/>
    <path d="M358.593 33.814l-4.957-.48-3.55 5.895-5.016 14.733-24.298 11.932-11.567-6.075 2.17-8.353-16.277-.57-7.989-13.843 20.089-7.596 13.818-.521 27.553 5.5 7.285-3.307 2.74 2.685z" id="151095"/>
    <path d="M309.205 59.82l15.308 18.558 2.376 23.352 2.275 3.61-10.897 14.277-9.836 20.744-10.331 4.69-10.51-10.942-19.46 5.894-5.696-12.16-13.713-12.182 12.345-10.492-5.987-8.086 3.366-9.482 11.233-3.488 10.85-23.06-.796-7.025 15.366-3.132 16.277.57-2.17 8.353z" id="150043"/>
    <path d="M460.138 83.53l9.13 4.874-5.986 9.904 1.149 13.104-11.426 3.944-16.912-7.208-10.875 1.297 1.026-18.062 2.345-11.274 16.469-3.6 15.08 7.02z" id="146628"/>
    <path d="M452.346 187.502l4.578 11.368 8.727 4.403-8.47 15.471-5.23 2.39-14.65-7.247 4.791-7.944-4.03-12.574 14.284-5.867z" id="147161"/>
    <path d="M437.301 213.887l14.65 7.247-6.097 6.428 4.384 12.151-22.417 16.477-11.213-15.108-16.29-.028-15.512-11.428.49-20.918 13.977.09 11.418-2.768 10.093 7.492 16.517.365z" id="147526"/>
    <path d="M373.82 452.597l11.777 20.01 6.975 5.002 3.969 13.439-12.303 15.272-19.181 7.782-6.638 6.271-5.806 13.496 2.474 14.822-9.556 3.056-4.326 10.675 3.377 7.535-15.028 15.859.597 8.284-6.15 13.764-14.199-4.25-8.932 11.072-12.501-4.848-10.104 2.39-9.369-3.63-2.446-12.442-14.875-15.569 12.549-3.763-1.112-8.157 7.769-15.795-14.027-7.015-2.186-6.649 16.598-5.283 4.367-10.378-18.584-15.593-15.651-1.296-12.077 4.552-8.25-24.213-3.847-4.457-1.335-3.516 21.18-3.926 2.54-6.24 7.065 5.94 13.813-4.075 12.803 3.482 21.181-11.704 3.045-7.376 27.723.39 14.139-6.635 18.184 12.778 9.144-11.453 7.213 2.392z" id="147358"/>
    <path d="M306.24 375l5.915 10.625-4.93 6.8 1.4 14.49 18.536 2.227 4.767 12.288.388 16.514 6.962 10.936-14.139 6.635-27.723-.39-3.045 7.376-21.18 11.704-12.804-3.482-13.813 4.076-7.064-5.94 8.358-8.903 19.338-13.748-1.407-24.811 5.846-6.182-5.019-21.11 7.886.774 2.308-10.04-4.361-8.088 6.476-8.07 12.033-6.193L306.239 375z" id="147884"/>
    <path d="M494.476 164.143l4.36 7.392-13.411 7.486-6.948 26.182-12.826-1.93-8.727-4.403-4.578-11.368 12.407-12.55 14.634-4.15 2.643 3.811 7.904-9.35 4.542-1.12z" id="147633"/>
    <path d="M464.43 111.412l7.197 8.349 24.036 8.221 7.998 14.772-10.448 12.17 1.263 9.22-4.542 1.118-.612.461-4.052-7.947-26.13-18.101 1.737-11.468-7.428-7.99-.444-4.861 11.426-3.944z" id="146931"/>
  </g>
</svg>
