<svg xmlns="http://www.w3.org/2000/svg" version="1.2" baseProfile="tiny" stroke-linecap="round" stroke-linejoin="round" viewBox="0 0 800 613">
  <g id="SV" fill="none" stroke="#aaa">
    <path d="M250.665 578.481l-17.37-11.163-14.366-17.183-.163-8.408-33.283 6.325-16.247 6.618 12.835-9.968-2.218-10.644 14.909-20.51-9.242-17.396 6.676-11.954 6.073-2.055 10.843 3.977 7.227-5.33 3.832 4.441 4.779 18.433 3.442 5.692 12.033-4.536 15.594 1.292 18.516 15.536-4.351 10.34-16.537 5.264 2.178 6.625 13.975 6.99-7.74 15.737 1.108 8.127-12.503 3.75z" data-name="Panaci" class="comuna" id="149682"/>
    <path d="M215.009 477.287l1.33 3.502-7.227 5.331-10.843-3.977-6.073 2.055-6.676 11.954 9.242 17.395-14.91 20.51 2.219 10.645-12.835 9.968-10.024 6.049-3.22 15.156 4.497 8.388-8.017 11.388-14.896 3.9-9.883-7.121-11.475-3.267-12.196-11.31.478-7.14-7.066-12.027 6.803-20.3 9.423-6.15 8.012-18.992 13.195-10.465-2.723-11.774 1.225-8.411 10.955-11.452 7.582-4.627 10.086-1.38 10.09-2.9 5.983-9.809 8.909 2.627 11.746-4.607 10.242 10.694-2.041 6.869 8.088 9.278z" data-name="Șaru Dornei" class="comuna" id="150445"/>
    <path d="M115.501 425.976l4.19 20.24-7.534 1.998-2.252 8.054-15.778 11.178 2.307 32.922-5.655 7.902.243 9.633 5.282 5.274 7.933 15.21-6.803 20.299 7.066 12.027-.478 7.14-4.136.577-9.052 10.943-10.15-5.713-12.962.845-13.909-10.623-2.59-9.21 3.507-13.01-2.914-19.636-6.761-11.344 13.925-20.139 2.147-8.337-12.871-7.746-10.602-10.989 8.901-11.422 13.07-4.8.012-20.29 11.172-7.21 11.574.957 4.173-6.058 17.075-2.639 11.87 3.967z" data-name="Poiana Stampei" class="comuna" id="149851"/>
    <path d="M636.317 408.449l7.471 2.6 7.62 10.104 4.935-.584 7.65 11.309-17.484 12.98-3.86-.584-36.537 18.88.74 5.952-13.624 4.401-28.755-17.944 7.458-9.442 12.624-.2 7.917-4.936 8.679-2.567 21.88-15.71.776-15.34 12.51 1.08z" data-name="Boroaia" class="comuna" id="147072"/>
    <path d="M623.807 407.369l-.776 15.34-21.88 15.709-8.679 2.567 3.283-8.104-3.395-19.7 6.185-10.7 4.571-5.802 10.375 7.348 10.316 3.342z" data-name="Bogdănești" class="comuna" id="147054"/>
    <path d="M598.545 402.48l-6.185 10.702 3.395 19.7-3.283 8.103-7.917 4.936-12.624.2-7.458 9.442-5.978 7.363-16.17 5.488-5.17-5.737-24.342 13.187-7.257 2.47-17.135-9.446-4.417 3.789-13.715-3.343-5.113-21.121 9.335-6.982 5.586-9.927 14.193-14.54 6.9-10.384 9.354-5.784 7.862-1.62 9.735-7.125 7.94 3.061 8.071-4.016 9.279-2.017 1.476 7.156 8.744 5.272 16.345-9.756 12.097 4.091 6.452 6.838z" data-name="Rîșca" class="comuna" id="150114"/>
    <path d="M392.46 451.926l-15.758-3.16-4.238 2.19-7.186-2.384-9.112 11.412-18.118-12.732-6.936-10.896-.386-16.454-4.75-12.244 17.593-13.084 19.933-12.142L373 385.77l5.756 11.515 9.821.38-.61 12.652 6.909 10.677 5.471 15.543-7.887 15.39z" data-name="Ostra" class="comuna" id="149655"/>
    <path d="M214.524 392.125l-3.589 19.414-3.979 8.798 1.978 11.252-2.327 9.368-7.887 9.489-11.746 4.607-8.91-2.627-5.982 9.81-10.09 2.898-3.686-17.276-5.612-9.156 8.228-22.944-7.805-8.911-10.56 2.33-4.549-11.423 10.385 2.043 23.756-5.61 15.24-7.38 4.587-7.985 22.548 13.303z" data-name="Vatra Dornei" class="municipiu" id="146744"/>
    <path d="M666.398 380.324l5.182 12.068 9.42 2.446 5.083 7.907 1.116 15.765-11.45-.38-7.633-5.969-8.714 9.035 4.59 10.682-7.649-11.309-4.934.584-7.62-10.105-7.472-2.6-13.33-6.012 4.511-14.739 14.452-4.366 14.188 4.88.347-15.729 9.913 7.842z" data-name="Vadu Moldovei" class="comuna" id="150766"/>
    <path d="M265.66 392.676l5.002 21.034-5.826 6.159 1.402 24.72-19.267 13.699-8.328 8.87-2.532 6.217-21.102 3.912-8.088-9.278 2.041-6.869-10.242-10.694 7.887-9.49 2.327-9.367-1.978-11.252 3.98-8.798 3.588-19.414 5.056.071 14.853-14.072 7.678-1.685 15.885-11.256 2.807 7.088-2.568 12.412 7.426 7.993z" data-name="Dorna-Arini" class="comuna" id="148131"/>
    <path d="M627.708 367.154l14.242 16.177-14.452 4.366-4.51 14.74 13.329 6.012-12.51-1.08-10.316-3.342-10.375-7.348-7.339-17.855 11.96-11.486 9.606-2.612 10.365 2.428z" data-name="Fântâna Mare" class="comuna" id="151488"/>
    <path d="M522.154 347.966l12.045 6.46 6.16 7.8-17.659 3.268-12.487 19.851.33 15.25-9.352 5.785-6.9 10.384-14.194 14.54-5.586 9.927-9.336 6.982 5.114 21.121-4.826 4.428-16.055 3.565-3.898 12.086-10.556-1.775-15.154-21.62 3.48-28.283 9.152-4.48 6.082 3.268 14.008-17.391-1.298-10.025 11.567-8.408 11.726-12.166 8.722-3.548 9.2-12.025-2.55-8.299 8.692-5.488 10.26-19.726 13.313 8.519z" data-name="Mălini" class="comuna" id="149316"/>
    <path d="M508.841 339.447l-10.26 19.726-8.693 5.488 2.55 8.299-9.199 12.025-8.721 3.548-11.727 12.166-11.567 8.408 1.298 10.025-14.008 17.39-6.082-3.267-3.146-10.862-6.305-6.57-10.01-16.455 1.797-7.705-7.026-4.955.353-19.764 9.844-10.64 21.275 1.511 14.801-5.093 17.61 3.054 15.301-1.973 21.915-14.356z" data-name="Slatina" class="comuna" id="150258"/>
    <path d="M618.228 328.24l9.451 8.92 10.502 13.446-3.433 3.986.31 10.384-7.35 2.178-10.365-2.428-9.607 2.612-7.434-6.517-1.019-8.892 3.386-13.353 11.976-.328 3.583-10.009z" data-name="Fălticeni" class="municipiu" id="146539"/>
    <path d="M354.658 329.549l15.205-3.069 3.149 13.32 9.64 14.694 18.462 16.796 6.981-4.346-.353 19.764 7.026 4.955-1.798 7.705 10.01 16.456 6.306 6.57 3.146 10.861-9.151 4.48-3.481 28.284-4.566-.006-10.03-11.274-12.745-2.813 7.887-15.39-5.471-15.543-6.909-10.677.61-12.652-9.821-.38-5.756-11.515-9.497-3.337-19.933 12.142-17.594 13.084-18.467-2.217-1.395-14.44 4.911-6.773-5.894-10.587-6.837-15.146 13.276-7.134 11.408-12.894 11.042-8.615 7.168 4.677 8.16-9.114 5.311 4.134z" data-name="Stulpicani" class="comuna" id="150356"/>
    <path d="M693.782 337.008l2.644 15.651-1.095 14.63-18.71 10.118-10.223 2.917-9.913-7.842-.347 15.728-14.188-4.879-14.242-16.177 7.35-2.178-.31-10.384 10.526.64 1.869-6.553 7.743-4.947 4.333-19.584 10.156 6.677 9.165-.06 9.105 6.197 6.137.046z" data-name="Preutești" class="comuna" id="149968"/>
    <path d="M76.626 356.226l7.766 2.466 18.451-8.826 17.102 5.723 7.944 12.558 1.874 12.576 8.245 17.03-5.828.357-5.462 9.133-7.59-.845-.039 15.667-3.588 3.911-11.87-3.967-17.075 2.639-4.173 6.058-11.574-.957-11.172 7.21-6.491-5.04.196-20.355-5.468 1.14-6.748-9.373-24.04-21.753 7.548 2.556 6.892-8.844 17.128 1.608 11.604-4.983-9.939-18.926-1.811-9.393 18.889-15.525-.115-4.25 6.424 9.111-1.288 10.33 4.208 12.964z" data-name="Coșna" class="comuna" id="151497"/>
    <path d="M498.744 328.145l19.905 11.84 3.505 7.98-13.313-8.517-21.915 14.355-15.302 1.973-17.609-3.054-.035-5.188 26.385-17.451 4.988-8.186 1.19 4.303 12.201 1.945z" data-name="Valea Moldovei" class="comuna" id="150891"/>
    <path d="M659.219 324.148l-4.333 19.584-7.743 4.947-1.87 6.553-10.525-.64 3.433-3.986-10.502-13.445 6.443-5.292 1.384-9.925 13.754-1.008 9.959 3.212z" data-name="Hârtop" class="comuna" id="151549"/>
    <path d="M589.975 309.045l14.893 13.388 9.773-6.584 3.587 12.39-3.582 10.01-11.976.327-3.387 13.353 1.019 8.892-4.447 6.85-12.755-10.174-8.918-1.641.54-10.37-4.669-7.496 8.556-17.114 6.485-2.576-1.837-13.356 6.718 4.101z" data-name="Rădășeni" class="comuna" id="150070"/>
    <path d="M171.475 338.576l6.534 12.854-5.677 4.864-12.292-.565-6.694 7.14-10.79 4.772-14.667.506-7.944-12.558-17.102-5.723-18.45 8.826-7.767-2.466 9.987-5.915 1.102-6.447 9.051-12.995 3.179-12.845 8.259-10.389 9.357-2.246 11.138-8.196 4.175 4.832 10.097-.58 4.467 11.82 13.778 9.239 4.755 13.597 5.504 2.475z" data-name="Ciocănești" class="comuna" id="151451"/>
    <path d="M446.47 302.218l8.723 2.586 17.83 10.955 11.51 5.033.82 1.106-4.988 8.185-26.385 17.45.035 5.19-14.801 5.092-.136-12.042-8.204-23.884.548-15.217-2.54-7.898 11.173-2.385 6.415 5.829z" data-name="Capu Câmpului" class="comuna" id="151503"/>
    <path d="M622.313 298.956l13.614 17.801-.421 5.187-1.384 9.925-6.443 5.292-9.451-8.922-3.587-12.39-9.773 6.584-14.893-13.388 7.479-5.042 2.674-7.955 9.33 2.561 3.772-6.089 9.083 6.436z" data-name="Bunești" class="comuna" id="147465"/>
    <path d="M494.584 289.794l12.053 16.219 3.527 11.866-10.197 4.188-1.223 6.078-12.2-1.945-1.19-4.303-.82-1.105 3.257-23.488-6.354-8.13 13.147.62z" data-name="Berchișești" class="comuna" id="151576"/>
    <path d="M692.156 295.747l-2.41 13.696 1.55 14.671 5.423 12.675-2.937.219-6.137-.046-9.105-6.197-9.165.06-10.156-6.677-9.96-3.212-13.753 1.008.42-5.187-13.613-17.8 8.337-.026 20.463 3.083 11.222-16.027 12.196 10.653 17.625-.893z" data-name="Vulturești" class="comuna" id="151157"/>
    <path d="M732.745 285.966l9.03 11.47 8.317 3.797 2.065 8.305-22.682 7.73 16.463 14.52-.899 6.084-17.5 12.464-8.83-9.597-4.956 3.84-17.034-7.79-5.424-12.675-1.55-14.67 2.411-13.697 3.95 2.263 15.574-10.803 21.065-1.241z" data-name="Liteni" class="oras" id="149227"/>
    <path d="M584.24 302.728l-.983 2.216 1.837 13.356-6.485 2.576-8.556 17.114-7.447 7.29-10.175-4.618 4.042-8.016-11.033-1.442-5.803-7.836-7.928-1.03-3.469-5.872 15.92-16.798-.707-6.717 7.64-4.533 7.669 2.26 6.207-7.546 7.661 2.078 10.23 7.956 1.38 9.563z" data-name="Horodniceni" class="comuna" id="149049"/>
    <path d="M297.296 290.195l11.697 17.679 12.654 3.847 12.372 18.131-11.042 8.615-11.408 12.894-13.276 7.134 6.837 15.146-15.216-12.467-11.989 6.171-6.453 8.04 4.345 8.06-2.299 10.002-7.857-.77-7.426-7.994 2.568-12.412-2.807-7.088-9.497-20.027 9.627-6.286 6.11-18.914-9.421-8.713 1.113-7.15 7.577-2.564 1.53-16.832-2.752-10.234.33-.305 9.946 6.85 8.718-1.085 16.019 10.272z" data-name="Câmpulung Moldovenesc" class="municipiu" id="146502"/>
    <path d="M385.623 274.237l12.014 8.624 11.696 7.368-4.118 15.015-.804 12.818 2.108 13.247-3.029 10.946 7.505 10.182 6.944 3.867-9.844 10.64-6.982 4.346-18.46-16.796-9.641-14.693-3.149-13.32-15.205 3.068 1.246-10.25 7.113-14.284 7.416-2.6 7.408-8.94-1.823-6.746 9.605-12.492z" data-name="Frasin" class="oras" id="148612"/>
    <path d="M442.622 277.977l12.571 16.112-8.723 8.129-6.415-5.83-11.172 2.386 2.539 7.898-.548 15.217 8.204 23.884.136 12.042-21.275-1.511-6.944-3.867-7.505-10.182 3.03-10.946-2.109-13.247.804-12.818 4.118-15.015-11.696-7.368 7.928-7.328 14.063 2.73 13.944-5.014 9.05 4.728z" data-name="Gura Humorului" class="oras" id="146584"/>
    <path d="M468.82 271.824l8.776 3.41 3.84 13.94 6.355 8.13-3.257 23.488-11.512-5.033-17.83-10.955-8.722-2.586 8.723-8.129-12.571-16.112 12.486-7.92 5.686 9.37 8.027-7.603z" data-name="Păltinoasa" class="comuna" id="149753"/>
    <path d="M662.057 254.119l3.4 3.518 20.61 3.259 6.629 15.25 7.476-5.81 11.508 16.87-15.573 10.804-3.95-2.263-17.626.893-12.196-10.653-11.222 16.027-20.463-3.083-2.894-17.116 5.945-27.773 9.175 1.092 7.476-3.327 11.705 2.312z" data-name="Udești" class="comuna" id="150588"/>
    <path d="M197.915 267.149l6.668 10.772 5.036.294 2.318 11.316 4.916 4.195 11.061 1.197 3.185 9.705-13.565 15.237-9.34-.463-8.015 7.2-28.704 11.974-5.504-2.475-4.755-13.597-13.778-9.238-4.467-11.822-10.097.58-4.175-4.831-8.927-2.823-3.737-5.899-.584-19.179 5.315-5.3 30.945-12.45 7.906 11.37 9.702 3.87 9.545-.773 12.007 8.298 7.044-7.158z" data-name="Fundu Moldovei" class="comuna" id="148765"/>
    <path d="M219.502 244.767l12.175 10.14 1.842 5.204 20.044 14.12 8.72.232 2.752 10.234-1.53 16.832-7.577 2.564-1.113 7.15-26.9-16.32-11.062-1.197-4.916-4.195-2.318-11.316-5.036-.294-6.668-10.772-5.658-5.09 4.619-7.784 8.025-2.66 10.976-10.075 3.625 3.227z" data-name="Sadova" class="comuna" id="150178"/>
    <path d="M525.829 260.097l-11.052 5.577-27.798.055-9.383 9.506-8.775-3.41 5.38-10.058 9.212-7.751-6.224-4.617 30.554-8.354 8.121-9.03 2.138.753 7.827 27.329z" data-name="Ilișești" class="comuna" id="147660"/>
    <path d="M385.623 274.237l-9.605 12.492 1.823 6.746-7.408 8.94-7.416 2.6-7.113 14.285-1.246 10.249-5.311-4.134-8.16 9.113-7.168-4.676-12.372-18.13-12.654-3.848-11.697-17.68 6.378.711 12.145-20.326 7.348-3.517 2.393-7.805 12.978-12.983 2.074-14.062 11.429-.328 11.516 5.931 22.368 26.771-.302 9.65z" data-name="Vama" class="comuna" id="150935"/>
    <path d="M732.745 285.966l-21.065 1.24-11.507-16.87-7.477 5.81-6.63-15.25.32-3.094 31.802-27.867-5.41-4.957 6.581-.45.363 19.541 5.617 11.067-1.605 14.485 5.66 3.906 3.351 12.439z" data-name="Fîntînele" class="comuna" id="148453"/>
    <path d="M471.12 240.275l6.07 9.124 6.223 4.617-9.213 7.75-5.38 10.058-8.026 7.604-5.686-9.371-12.486 7.92-9.05-4.728-7.303-17.986 22.336-16.418-4.368-12.107 6.075-6.404 5.21-2.381 18.261 14.937-2.664 7.385z" data-name="Pîrteștii de Jos" class="comuna" id="149780"/>
    <path d="M215.877 241.54l-10.976 10.074-8.025 2.661-4.619 7.784 5.658 5.09-7.043 7.158-12.008-8.298-9.545.773-9.702-3.87-7.905-11.37-30.946 12.45 13.379-19.41 8.195-2.196 2.542-8.103 9.43-9.366 4.234-10.803 7.927-11.489 3.735-.153 28.122 19.516 3.656 5.306 15.916 5.807-2.025 8.439z" data-name="Breaza" class="comuna" id="147205"/>
    <path d="M519.354 219.356l-3.49 12.658-8.121 9.031-30.553 8.354-6.07-9.124 8.857-1.513 13.31-19.607-2.55-6.088 13.4-1.88 15.217 8.169z" data-name="Bălăceana" class="comuna" id="151530"/>
    <path d="M476.742 204.461l13.995 8.606 2.55 6.088-13.31 19.607-8.858 1.513 2.664-7.385-18.26-14.937 3.612-.98 4.828-14.436 12.779 1.924z" data-name="Comănești" class="comuna" id="151433"/>
    <path d="M362.665 193.105l9.61 8.882 11.623 5.966-.487 20.842 15.455 11.386 16.231.028 11.172 15.054 7.303 17.986-13.944 5.015-14.063-2.731-7.928 7.328-12.014-8.624.302-9.65-22.368-26.772-11.516-5.93-3.596-8.242.859-9.823-12.443-9.618-1.531-11.52 15.382-10.79 11.953 11.213z" data-name="Mănăstirea Humorului" class="comuna" id="149370"/>
    <path d="M335.33 192.683l1.531 11.519 12.443 9.618-.859 9.823 3.596 8.241-11.429.328-2.074 14.062-12.978 12.983-2.393 7.805-7.348 3.517-12.145 20.326-6.378-.71-16.019-10.272-8.718 1.085-9.946-6.85 13.234-11.5 7.004-2.205 6.703-7.746 13.1-3.5 3.787-21.986-1.285-7.628 3.124-11.133-3.377-5.256 4.426-6.95 1.868-11.23 8.085-3.316 9.994 4.553 6.054 6.422z" data-name="Frumosu" class="comuna" id="148729"/>
    <path d="M502.702 172.29l14.254 1.415 2.02 7.262 11.019 4.43 8.118 10.026 9.171 2.703-11.634 16.326-5.234 11.274-11.062-6.37-15.217-8.17-13.4 1.88-13.995-8.605 6.922-26.088 13.362-7.457 5.676 1.374z" data-name="Todirești" class="comuna" id="150524"/>
    <path d="M94.274 193.877l-1.546 19.424-5.223 5.411 9.22 11.394.986 6.358 7.372 6.962 1.625 7.663 14.058 12.903-5.316 5.3.585 19.18 3.737 5.898 8.927 2.823-11.138 8.196-9.357 2.246-8.26 10.389-3.178 12.845-9.05 12.995-1.103 6.447-9.987 5.915-4.208-12.964 1.288-10.33-6.424-9.111.672-3.698-15.44-14.099-4.107-15.722-20.008-5.601-7.96-11.264-13.282-7.491-1.025-12.261 7.089 1.016 16.064-12.89 19.588-5.673 1.089-8.722-15.07-7.985-33.53-33.992L1 177.443l16.396-.225 10.618-3.266 14.969 5.984 4.543-9.559 19.463 15.82 7.442 1.147-3.343 11.996 4.856 5.845 5.772-7.588 12.558-3.72z" data-name="Cîrlibaba" class="comuna" id="147713"/>
    <path d="M426.796 189.522l-9.883 3.454-19.088 15.067-13.927-.09-11.623-5.966-9.61-8.882 10.217-7.726.068-12.823 8.536-2.7 22.204-.055 16.331 2.393 6.775 17.328z" data-name="Solca" class="oras" id="146708"/>
    <path d="M319.282 181.708l-8.085 3.316-1.868 11.23-4.426 6.95 3.377 5.256-3.124 11.133 1.285 7.628-3.788 21.986-13.099 3.5-6.703 7.746-7.004 2.206-13.234 11.499-.33.305-8.72-.233-20.044-14.119-1.842-5.204-12.175-10.14 13.073-11.91 1.886-6.267 16.233-17.946 10.73-.791 7.649 10.9 4.804-6.333 9.957-4.128 1.23-17.969 5.122-3.512 7.792-22.722 6.64-5.922 13.299 14.634 1.365 8.907z" data-name="Vatra Moldoviței" class="comuna" id="150980"/>
    <path d="M415.132 141.175l13.012 5.157 10.513 8.167 7.447-2.06 3.95 11.449 16.274 1.355 8.708 2.98 6.247-5.86 6.264 2.761.61-.458-7.875 9.316-2.634-3.798-14.58 4.135-12.363 12.505-14.23 5.846-9.68-3.148-6.774-17.328-16.331-2.393-22.204.054-4.492-4.869.273-9.69 4.32-6.348 12.764 2.023 7.137-9.212 13.644-.584z" data-name="Arbore" class="comuna" id="146860"/>
    <path d="M457.476 139.171l26.034 18.035 4.037 7.918-6.264-2.76-6.247 5.859-8.708-2.98-16.274-1.355-3.95-11.448 11.372-13.269z" data-name="Iaslovăț" class="comuna" id="151442"/>
    <path d="M629.947 128.815l15.36 13.399 11.23-6.627 2.669 19.975-6.248 9.184-20.822 12.55-9.49-4.172-5.956-13.495 1.103-7.128-4.644-8.52 1.535-6.244 15.263-8.922z" data-name="Hănțești" class="comuna" id="151512"/>
    <path d="M552.785 132.12l-9.214 16.127 6.972 31.288-3.723 13.394 3.476 4.28-3.012.917-9.171-2.703-8.118-10.025-11.018-4.431-2.021-7.262-14.254-1.415 12.099-18.51 12.32-6.251-2.868-19.185 18.973 5.856 9.56-2.08z" data-name="Dărmănești" class="comuna" id="147937"/>
    <path d="M451.805 119.784l7.4 7.96-1.73 11.427-11.371 13.269-7.447 2.059-10.513-8.167-1.329-8.953 5.083-5.827 9.797-1.62 6.005-11.153 4.105 1.005z" data-name="Burla" class="comuna" id="151521"/>
    <path d="M297.02 144.528l1.134 10.214 6.464 3.425-6.64 5.922-7.792 22.722-5.123 3.512-1.23 17.969-9.956 4.128-4.804 6.333-7.648-10.9-10.731.791-16.233 17.946-1.886 6.266-13.073 11.911-3.625-3.227 2.025-8.44-15.916-5.805-3.656-5.307-28.122-19.516 1.144-6.005-6.822-4.59-7.02-11.977 2.22-20.347 19.869-6.669 10.831-6.577 18.004-6.927 1.904-5.4 9.712-.824 6.347-12.725 10.631 2.479 10.793-7.666 3.827 6.83 9.835 5.308 5.676 12.116 8.055-4.885 11.334-.988 10.472 10.903z" data-name="Moldovița" class="comuna" id="149539"/>
    <path d="M451.362 114.94l.443 4.844-4.105-1.005-6.005 11.152-9.797 1.62-5.083 5.828 1.33 8.953-13.012-5.157-.285-18.579 4.48-11.664 4.348-1.881 10.836-1.293 16.85 7.182z" data-name="Volovăț" class="comuna" id="151120"/>
    <path d="M344.823 110.364l5.11 7.798 20.574 9.187-.432 6.23-17.006 22.075-10.551 5.61 8.194 20.628-15.382 10.79-6.054-6.421-9.994-4.553-1.365-8.907-13.3-14.634-6.463-3.425-1.134-10.214 10.294-4.673 8.416-13.227 1.384-7.442 10.857-14.225 6.158 7.715 10.694-2.312z" data-name="Sucevița" class="comuna" id="150418"/>
    <path d="M542.023 92.824l7.896 13.95 10.219 7.3 6.092 6.52-12.724 9.575-.72 1.952-9.56 2.079-18.973-5.856-9.2-11.688 3.448-11.343L536.1 93.877l5.924-1.052z" data-name="Șerbăuți" class="comuna" id="151460"/>
    <path d="M498.236 89.012l16.673 17.567 3.592-1.265-3.447 11.342 9.2 11.688 2.867 19.185-12.32 6.251-12.099 18.51-5.676-1.374-4.343-7.366-1.259-9.186 10.41-12.126-7.968-14.717-1.98-10.439 1.868-24.604 1.232-1.934 3.25-1.532z" data-name="Grănicești" class="comuna" id="148970"/>
    <path d="M493.754 92.478l-1.868 24.604 1.98 10.439-11.698-3.461-4.443-5.16-7.809.43-7.17-8.32-1.144-13.056 5.964-9.867 10.497.605 8.478 4.662 7.213-.876z" data-name="Satu Mare" class="comuna" id="150196"/>
    <path d="M629.947 128.815l-15.263 8.922-1.535 6.244-13.8-9.325-11.15 8.534-8.123-18.565-13.846-4.032-6.092-6.519L594.21 80.01l8.212 7.626 9.05.35-1.065 11.743 6.205 1.454 2.46 14.084 10.875 13.549z" data-name="Zvoriștea" class="comuna" id="151344"/>
    <path d="M525.718 66.838l6.271 12.966 10.034 13.02-5.924 1.052-17.598 11.438-3.592 1.265-16.673-17.567 9.409-3.988 2.111-11.843 15.962-6.343z" data-name="Calafindești" class="comuna" id="147580"/>
    <path d="M594.21 80.009l-34.072 34.065-10.219-7.3-7.896-13.95-10.034-13.02 8.969-10.923 5.597 5.599 9.715-2.392 6.57-7.251 6.925.988 9.855-4.703 4.437 3.656 8.272 4.008 1.881 11.223z" data-name="Zamostea" class="comuna" id="151246"/>
    <path d="M383.105 72.301l-5.321 8.082-10.44.268-9.827 3.765-14.201 19.157 1.507 6.79-10.694 2.313-6.158-7.715-2.266-3.597 20.321-6.991 9.6-12.318.098-11.823 8.42-6.041 11.57.158 3.492-7.29 4.862 6.268-.963 8.974z" data-name="Voitinel" class="comuna" id="151558"/>
    <path d="M392.976 45.372l13.145.381 3.441 3.961.348 20.078-14.254-3.417-2.817 7.201-9.734-1.275.963-8.974-4.862-6.267-2.74-5.175 16.51-6.513z" data-name="Gălănești" class="comuna" id="148872"/>
    <path d="M257.51 87.286l-3.354 9.448 5.965 8.057-12.3 10.453-10.793 7.666-10.63-2.479-6.348 12.725-9.712.824-1.904 5.4-18.004 6.927-10.831 6.577-2.495-7.725-7.705-8.788-5.722-16.028-7.533-7.099 10.382-16.832 2.186-10.778 7.422-1.771 8.546-8.572-19.95-22.04 6.77.453 58.125-9.714-.282 2.721 15.765 15.574-2.424 5.42 8.597 7.24-.939 7.68 7.167 4.661z" data-name="Brodina" class="comuna" id="147241"/>
    <path d="M461.483 66.561l7.468 7.926-10.482 8.742-15.025-6.995-16.409 3.588-.545-4.751-16.58-5.279-.348-20.078-3.44-3.96 17.19-1.449 7.697 6.6 9.591 2.139 5.496 6.339 6.779-.685 8.608 7.863z" data-name="Frătăuții Vechi" class="comuna" id="148694"/>
    <path d="M294.03 50.714l-15.31 3.121.792 7L268.7 83.81l-7.217-2.302-3.975 5.777-7.167-4.66.94-7.682-8.598-7.24 2.424-5.419-15.765-15.574.282-2.72 20.706-3.546 35.739-3.523 3.604 11.39 4.355 2.402z" data-name="Straja" class="comuna" id="150294"/>
    <path d="M392.976 45.372l-16.51 6.513-7.03 3.312-17.205 1.317-8.411-2.744 4.998-14.68 3.537-5.874 4.939.479 15.88 1.353 15.53-7.633 5.458 13.434-1.185 4.523z" data-name="Bilca" class="comuna" id="147036"/>
    <path d="M379.206 57.06l-3.493 7.29-11.568-.159-8.421 6.04-.099 11.824-9.599 12.318-20.321 6.991-2.368-23.267-15.252-18.491 11.525 6.052 24.21-11.888 8.41 2.744 17.205-1.317 7.031-3.312 2.74 5.175z" data-name="Vicovu de Jos" class="comuna" id="151077"/>
    <path d="M156.144 113.244l-24.616 20.584-7.112.276-1.064-19.465-7.497-13.552 2.124-7.149 6.847-3.301.212-13.928 6.865-10.62 14.4 1.929 18.427-14.767 19.95 22.04-8.546 8.572-7.421 1.771-2.187 10.778-10.382 16.832z" data-name="Ulma" class="comuna" id="150702"/>
    <path d="M191.976 378.822l-4.588 7.986-15.239 7.378-23.756 5.61-10.385-2.042-8.245-17.03-1.874-12.577 14.667-.506 10.79-4.771 6.694-7.14 12.292.564 5.677-4.864 11.199 17.819 2.768 9.573z" data-name="Iacobeni" class="comuna" id="149138"/>
    <path d="M254.815 311.243l9.422 8.713-6.111 18.914-9.627 6.286 9.497 20.027-15.885 11.257-7.678 1.684-14.853 14.072-5.056-.071-22.548-13.303-2.768-9.573-11.199-17.819-6.534-12.854 28.704-11.975 8.015-7.199 9.34.463 13.565-15.237-3.184-9.705 26.9 16.32z" data-name="Pojorîta" class="comuna" id="149931"/>
    <path d="M473.012 45.964l10.438 4.222 10.813 22.669-4.63 12.519 5.353 5.17-1.232 1.934-7.213.876-8.478-4.662-10.497-.605-9.097-4.858 10.482-8.742-7.468-7.926 4.325-5.786-3.707-7.173.36-13.232 10.551 5.594z" data-name="Dornești" class="comuna" id="148293"/>
    <path d="M426.796 189.522l9.678 3.148 4.015 12.528-4.773 7.915-16.457-.363-10.057-7.465-11.377 2.758 19.088-15.067 9.883-3.454z" data-name="Poieni-Solca" class="comuna" id="151585"/>
    <path d="M712.778 224.978l5.41 4.957-31.801 27.868-.32 3.093-20.61-3.259-3.4-3.518 2.222-10.248 9.428-1.515 8.371 4.427 3.24-7.934-9.802-4.172 7.306-8.796-1.552-5.99 12.95-5.16 2.743-11.962 9.211 12.047-1.585 5.97 8.189 4.192z" data-name="Verești" class="comuna" id="151022"/>
    <path d="M696.963 202.769l-2.742 11.961-12.95 5.16 1.551 5.991-7.306 8.796 9.803 4.172-3.24 7.934-8.372-4.427-9.428 1.515-3.546-17.133-27.418-29.677 7.63 2.041 3.01 3.305 15.034 3.69 23.64-22.386-10.292-5.53 8.935-5.809 2.464 9.202 13.227 21.195z" data-name="Dumbrăveni" class="comuna" id="148426"/>
    <path d="M681.272 172.372l-8.935 5.809 10.292 5.53-23.64 22.386-15.034-3.69-3.01-3.305-8.402-12.431-.407-9.375 20.822-12.55 12.92-5.91 8.79 3.397 3.624 6.911 2.98 3.228z" data-name="Siminicea" class="comuna" id="150221"/>
    <path d="M613.149 143.981l4.644 8.52-1.103 7.128 5.955 13.495 9.491 4.172.407 9.375 8.403 12.431-7.631-2.041-13.681.968.92-5.246-16.196-13.4.206-6.245-12.154-11.033-4.19-10.082-.02-8.833 11.15-8.534 13.799 9.325z" data-name="Adâncata" class="comuna" id="146799"/>
    <path d="M419.328 110.932l-4.48 11.664.284 18.579-13.644.584-7.137 9.212-12.764-2.023-4.32 6.349-.273 9.69 4.492 4.868-8.536 2.7-.068 12.824-10.217 7.726-11.954-11.213-8.193-20.628 10.55-5.61 17.007-22.075.432-6.23 7.774-5.43.231-7.007 17.907-7.201 9.123 3.415 13.786-.194z" data-name="Marginea" class="comuna" id="149290"/>
    <path d="M530.875 32.573l-7.61 9.265-9.34 4.15 1.448-13.482-11.8 3.085-9.265 7.037-6.44-1.462-4.418 9.02-10.438-4.222-.449-9.377 11.531-17.236 6.861 2.939 6.19-7.043-1.07-5.498-9.499-5.169L501.543 1l17.019 5.923 9.36 4.23-3.738 7.58 7.098 2.643-.407 11.197z" data-name="Siret" class="oras" id="146655"/>
    <path d="M156.144 113.244l7.533 7.099 5.722 16.028 7.705 8.788 2.495 7.725-19.87 6.669-11.224-3.776-13.059 10.641-17.406 9.772-2.56 5.97-11.22 9.097-9.986 2.62-12.558 3.72-5.772 7.588-4.856-5.845 3.343-11.996-7.442-1.146-19.463-15.82 5.786-.563 23.727-9.598.206-8.592 14.739-16.328 7.645.866.46-12.197 5.886-10.982 9.88-11.897 7.497 13.552 1.063 19.465 7.113-.276 24.616-20.584z" data-name="Izvoarele Sucevei" class="comuna" id="149183"/>
    <path d="M718.6 387.822l8.513-8.058 9.732-14.039-3.147-9.172-6.159-6.217 17.5-12.464 5.277 12.462 10.588-5.362 35.35-3.64-9.006 10.001 3.716 14.01L799 381.326l-3.817 7.487-4.997-8.6-18.592 10.455 15.116 12.937 1.837 12.009-31.955 4.451-4.84-7.954-13.232-5.879.008-8.622-17.252.093-2.676-9.882z" data-name="Dolhasca" class="oras" id="148006"/>
    <path d="M727.54 350.336l6.158 6.217 3.147 9.172-9.732 14.04-8.513 8.057-11.664 7.12-4.71-16.808-6.894-10.845 1.094-14.63-2.644-15.651 2.937-.22 17.034 7.791 4.955-3.84 8.831 9.597z" data-name="Dolhești" class="comuna" id="148097"/>
    <path d="M706.936 394.941l-2.95 6.854 5.639 7.753-3.495 7.148 6.88 16.618-.554 3.952-13.287 7.451-9.976 8.497-10.974-12.895-14.226-8.441-4.59-10.682 8.713-9.035 7.633 5.97 11.45.38-1.116-15.766-5.083-7.907-9.42-2.446-5.182-12.068 10.222-2.917 18.712-10.118 6.895 10.846 4.71 16.806z" data-name="Forăști" class="comuna" id="148514"/>
    <path d="M689.193 453.214l9.976-8.497 13.287-7.451.555-3.952 4.317.195 8.714 13.89 10.13.01 3.143 12.128-9.82-2.926-18.117 20.301-3.343-7.301-8.426-3.734-5.657-7.476-4.76-5.187z" data-name="Drăgușeni" class="comuna" id="148382"/>
    <path d="M138.008 397.754l4.548 11.423 10.56-2.33 7.806 8.911-8.228 22.944 5.612 9.156 3.686 17.276-10.086 1.381-7.582 4.627-10.955 11.452-1.225 8.411 2.723 11.774-13.195 10.465-8.012 18.991-9.423 6.151-7.933-15.209-5.282-5.274-.243-9.633 5.655-7.902-2.307-32.922 15.778-11.178 2.252-8.054 7.533-1.998-4.189-20.24 3.588-3.91.04-15.668 7.59.845 5.46-9.133 5.83-.356z" data-name="Dorna Candrenilor" class="comuna" id="148202"/>
    <path d="M530.875 32.573l1.06 5.452 9.162 5.052 8.328.295 7.437 1.858.576 18.334 5.402 1.273-6.57 7.25-9.715 2.393-5.597-5.599-8.969 10.923-6.27-12.966-11.794-20.85 9.34-4.15 7.61-9.265z" data-name="Grămești" class="comuna" id="148916"/>
    <path d="M513.925 45.987l11.793 20.85-15.962 6.344-2.111 11.843-9.409 3.988-3.25 1.532-5.354-5.17 4.631-12.52-10.813-22.668 4.418-9.02 6.44 1.462 9.264-7.037 11.801-3.085-1.448 13.481z" data-name="Bălcăuți" class="comuna" id="146995"/>
    <path d="M530.416 225.726l.57 3.64 15.826 11.17 1.253 7.068 12.767 15.636-7.076 5.488-3.52 9.842-12.565-1.005-8.147-8.778-3.695-8.69-7.827-27.33-2.138-.753 3.49-12.658 11.062 6.37z" data-name="Stroiești" class="comuna" id="150310"/>
    <path d="M525.829 260.097l3.695 8.69 8.147 8.778-9.962 7.634-13.651-3.152-19.474 7.747-13.147-.62-3.841-13.94 9.383-9.505 27.798-.055 11.052-5.577z" data-name="Ciprian Porumbescu" class="comuna" id="151567"/>
    <path d="M527.709 285.199l15.744 7.752.707 6.717-15.92 16.798-1.394 7.027-16.682-5.614-3.527-11.866-12.053-16.219 19.474-7.747 13.65 3.152z" data-name="Drăgoiești" class="comuna" id="148328"/>
    <path d="M627.327 248.984l6.374 5.058-5.945 27.773 2.894 17.116-8.337.025-9.083-6.436-3.772 6.09-9.33-2.562-2.674 7.955-7.48 5.042-6.717-4.1.983-2.216 7.747-4.5-3.247-23.737-3.4-10.614 12.673-8.686 5.615 8.16 23.699-14.368z" data-name="Bosanci" class="comuna" id="147134"/>
    <path d="M588.282 251.606l-2.942 12.272 3.4 10.614 3.247 23.736-7.747 4.5-1.38-9.562-10.23-7.956-7.661-2.078-6.207 7.546-7.67-2.26-7.639 4.533-15.744-7.752 9.962-7.634 12.565 1.005 3.52-9.842 7.076-5.488 14.51-22.518 8.137 1.363 4.803 9.521z" data-name="Moara" class="comuna" id="149414"/>
    <path d="M575.43 211.053l5.701-.324 4.476 10.617-2.359 11.244-7.906 8.132-14.51 22.518-12.767-15.636-1.253-7.067-15.826-11.171-.57-3.64 5.234-11.274 11.634-16.326 3.012-.917 12.116 4.349 13.019 9.495z" data-name="Șcheia" class="comuna" id="146432"/>
    <path d="M569.594 187.523l5.809 6.664.028 16.865-13.019-9.494-12.116-4.349-3.476-4.28 3.723-13.394-6.972-31.288 9.214-16.126.721-1.952 9.475 9.588 6.183 26.629-1.544 15.535 1.974 5.602z" data-name="Pătrăuți" class="comuna" id="149833"/>
    <path d="M588.2 143.19l.02 8.833 4.19 10.082 12.154 11.033-.206 6.246-9.423 20.212-15.561-9.757-9.78-2.316-1.974-5.602 1.544-15.535-6.183-26.629-9.475-9.588 12.724-9.576 13.846 4.032 8.123 18.565z" data-name="Mitocu Dragomirnei" class="comuna" id="146325"/>
    <path d="M633.315 197.06l27.418 29.678 3.546 17.133-2.222 10.248-11.706-2.312-7.475 3.327-9.175-1.091-6.374-5.06-5.258-12.21-11.105-11.819 8.67-26.925 13.68-.968z" data-name="Salcea" class="oras" id="146370"/>
    <path d="M627.327 248.984l-23.699 14.367-5.615-8.159-12.673 8.686 2.942-12.272 3.48.838 6.766-13.788 7.447-.936-1.685-11.278 6.674-1.488 11.105 11.819 5.258 12.21z" data-name="Ipotești" class="comuna" id="146281"/>
    <path d="M604.358 179.384l16.195 13.4-.92 5.245-8.67 26.925-6.673 1.488 1.685 11.278-7.447.936-6.766 13.788-3.48-.838-4.803-9.521-8.137-1.363 7.906-8.132 2.359-11.244-4.476-10.617-5.7.323-.028-16.865-5.81-6.664 9.781 2.316 15.561 9.757 9.423-20.212z" data-name="Suceava" class="municipiu resedinta" id="146263"/>
    <path d="M600.302 360.82l7.434 6.518-11.959 11.486 7.34 17.855-4.572 5.801-6.452-6.838-12.097-4.09-16.345 9.755-8.744-5.272-1.476-7.156-9.279 2.017-1.109-4.455 12.54-3.949 18.599-26.636 8.918 1.64 12.755 10.176 4.447-6.851z" data-name="Baia" class="comuna" id="146904"/>
    <path d="M510.164 317.88l16.682 5.613 1.394-7.027 3.47 5.872 7.927 1.03 5.803 7.836 11.033 1.442-4.042 8.016 10.175 4.617 7.447-7.289 4.67 7.497-.541 10.369-18.6 26.636-12.539 3.949 1.109 4.455-8.07 4.016-7.941-3.06-9.735 7.125-7.862 1.619-.33-15.251 12.486-19.851 17.658-3.269-6.159-7.8-12.045-6.46-3.505-7.98-19.905-11.84 1.223-6.078 10.197-4.188z" data-name="Cornu Luncii" class="comuna" id="147786"/>
    <path d="M159.73 159.553l-2.22 20.347 7.02 11.977 6.822 4.59-1.144 6.005-3.735.153-7.927 11.489-4.234 10.803-9.43 9.366-2.542 8.103-8.195 2.196-13.379 19.41-14.058-12.903-1.625-7.663-7.372-6.962-.985-6.358-9.221-11.394 5.223-5.41 1.546-19.425 9.986-2.62 11.22-9.097 2.56-5.97 17.406-9.772 13.06-10.641 11.224 3.776z" data-name="Moldova-Sulița" class="comuna" id="149502"/>
    <path d="M409.91 69.792l16.58 5.279.545 4.75-2.337 11.234-10.458-3.504-6.89 5.637-11.5 3.841-9.727-3.256-8.339-13.39 5.32-8.082 9.735 1.275 2.817-7.201 14.254 3.417z" data-name="Horodnic de Jos" class="comuna" id="149101"/>
    <path d="M424.698 91.055l-1.022 17.996-4.348 1.88-13.786.195-9.123-3.415-17.907 7.201-.231 7.006-7.774 5.431-20.574-9.187-5.11-7.798-1.507-6.791 14.2-19.157 9.829-3.765 10.439-.268 8.34 13.39 9.726 3.256 11.5-3.841 6.89-5.637 10.458 3.504z" data-name="Horodnic de Sus" class="comuna" id="151479"/>
    <path d="M429.662 18.47l32.8 21.9-.36 13.232 3.706 7.173-4.325 5.786-8.608-7.863-6.78.685-5.495-6.34-9.59-2.138-7.698-6.6-17.19 1.448-13.146-.38 1.186-4.524-5.458-13.434 7.367-9 15.828-4.4 8.483 4.683 9.28-.228z" data-name="Frătăuții Noi" class="comuna" id="148667"/>
    <path d="M473.012 45.964l-10.55-5.594-32.8-21.9 6.173-9.53 16.817 4.175 33.924-8.534 9.498 5.168 1.072 5.497-6.19 7.044-6.862-2.94-11.53 17.237.448 9.377z" data-name="Mușenița" class="comuna" id="149584"/>
    <path d="M357.294 33.695l-4.94-.479-3.536 5.874-4.998 14.68-24.21 11.888-11.525-6.052 2.162-8.323-16.218-.569-4.355-2.401-3.604-11.391 20.015-7.568 13.768-.52 27.453 5.48 7.259-3.295 2.729 2.676z" data-name="Vicovu de Sus" class="oras" id="151095"/>
    <path d="M308.085 59.606l15.252 18.49 2.368 23.268 2.266 3.597-10.857 14.225-1.384 7.442-8.416 13.227-10.294 4.673-10.472-10.903-11.334.988-8.055 4.885-5.675-12.116-9.836-5.308-3.827-6.83 12.3-10.453-5.965-8.057 3.353-9.448 3.975-5.776 7.217 2.3 10.81-22.975-.792-7 15.31-3.12 16.218.568-2.162 8.323z" data-name="Putna" class="comuna" id="150043"/>
    <path d="M458.47 83.23l9.096 4.857-5.964 9.867 1.145 13.056-11.385 3.93-16.85-7.182-10.836 1.293 1.022-17.996 2.337-11.233 16.409-3.588 15.025 6.995z" data-name="Rădăuți" class="municipiu" id="146628"/>
    <path d="M450.705 186.824l4.562 11.326 8.696 4.387-4.828 14.437-3.613.979-5.21 2.381-14.596-7.221 4.773-7.915-4.015-12.528 14.231-5.846z" data-name="Botoșana" class="comuna" id="147161"/>
    <path d="M435.716 213.113l14.596 7.221-6.075 6.404 4.368 12.107-22.336 16.418-11.172-15.054-16.23-.028-15.456-11.386.487-20.842 13.927.09 11.377-2.758 10.057 7.465 16.457.363z" data-name="Cacica" class="comuna" id="147526"/>
    <path d="M372.464 450.955l5.262 4.987 6.474 14.95 6.95 4.985 3.953 13.39-12.258 15.216-19.111 7.754-6.614 6.249.33 8.928-6.115 4.518 2.465 14.769-9.521 3.045-4.31 10.635 3.364 7.508-14.973 15.801-1.242 18.965-4.29 3.003-14.148-4.234-8.9 11.031-12.456-4.83-10.066 2.381-9.335-3.616-2.438-12.397-14.82-15.512 12.503-3.75-1.108-8.127 7.74-15.738-13.975-6.989-2.178-6.625 16.537-5.264 4.351-10.34-18.516-15.536-15.594-1.292-12.034 4.536-3.441-5.692-4.78-18.433-3.831-4.442-1.33-3.502 21.102-3.912 2.532-6.217 7.039 5.919 13.762-4.061 12.757 3.47 21.104-11.662 3.034-7.35 11.685.863 8.141-3.083 7.796 2.61 14.087-6.612 18.118 12.732 9.112-11.412 7.186 2.383z" data-name="Broșteni" class="oras" id="147358"/>
    <path d="M305.13 373.641l5.894 10.587-4.911 6.774 1.395 14.439 18.467 2.217 4.75 12.244.387 16.454 6.936 10.896-14.087 6.611-7.796-2.609-8.14 3.083-11.686-.863-3.034 7.35-21.104 11.661-12.757-3.47-13.762 4.062-7.039-5.919 8.328-8.87 19.267-13.698-1.402-24.721 5.826-6.16-5.001-21.033 7.857.771 2.3-10.003-4.346-8.058 6.453-8.041 11.989-6.171 15.216 12.467z" data-name="Crucea" class="comuna" id="147884"/>
    <path d="M492.683 163.55l4.343 7.366-13.362 7.458-6.922 26.087-12.78-1.924-8.695-4.387-4.562-11.326 12.362-12.505 14.581-4.135 2.634 3.798 7.875-9.316 4.526-1.116z" data-name="Cajvana" class="oras" id="147633"/>
    <path d="M462.747 111.01l7.17 8.32 7.808-.43 4.443 5.16 11.698 3.46 7.968 14.718-10.41 12.126 1.259 9.186-4.526 1.115-.61.46-4.037-7.92-26.034-18.034 1.73-11.426-7.401-7.961-.443-4.844 11.385-3.93z" data-name="Milișăuți" class="oras" id="146931"/>
  </g>
</svg>
