<svg xmlns="http://www.w3.org/2000/svg" version="1.2" baseProfile="tiny" stroke-linecap="round" stroke-linejoin="round" viewBox="0 0 800 568">
  <g id="TL" fill="none" stroke="#aaa">
    <path d="M419.391 106.555l-12.668 11.8 11.785 24.702-28.791 10.125-8.432 14.067-9.882 1.395-13.732-.812-7.037-8.353 20.131-5.95 5.013-8.31-14.569-9.957-3.2-15.647 16.995-3.364 5.217-10.754-12.257-8.88 16.868-9.35 13.585 11.317 20.974 7.971z" id="160047"/>
    <path d="M148.107 79.688l-11.358-1.76-10.682-6.022-7.315 12.002-11.261-7.207L67.665 49.27l5.457-8.048 16.956 6.247-.377-28.422 6.235-6.459 23.887 6.005 13.979 15.25.3 22.135 14.005 23.71z" id="160458"/>
    <path d="M583.405 154.85l-.3 42.665 16.35 8.431-30.08 14.219-26.217 1.203-25.393-9.66-16.664-2.403-20.527 2.862-3.598-13.897-31.012-.242-16.619-3.48-9.385-12.985 3.186-15.187 48.748-20.723 23.599-6.671 46.349 12.092 18.052 8.042 23.511-4.267z" id="160779"/>
    <path d="M606.008 135.638l-22.603 19.211-23.51 4.267-18.053-8.042-46.35-12.093-23.598 6.672-48.748 20.723-8.412-10.583 3.774-12.736-11.785-24.702 12.668-11.8 12.261 10.606 16.476 2.34-1.083-17.323 7.03-15.607 25.133-12.117 23.482 2.137 7.134-6.128 30.38.152 19.047 12.937-14.36 8.898-5.906 10.968 21.504 2.984.34 8.454 20.124 3.122 22.434-7.341-2.43 15.831 5.051 9.17z" id="161133"/>
    <path d="M720.862 20.099l-4.873 6.122-16.358 47.165-8.612 18.242-24.235 62.69-9.341 8.8-13.823-13.624-15.583-6.56 2.227-12.384-24.256 5.088-5.052-9.17 2.43-15.831-22.433 7.341-20.124-3.122-.34-8.453-21.504-2.985 5.906-10.968 14.36-8.898-19.046-12.937-30.38-.152-7.135 6.128-23.482-2.136 59.939-29.823 44.878-33.302 22.89 2.037L620.572 1l13.725 6.388 33.38-5.639 23.741 12.547 29.444 5.803z" id="160172"/>
    <path d="M666.784 154.318l26.634-11.432 7.813 8.104 3.201 5.535-5.92 23.29-12.88.168-14.579 37.716-6.71 4.15 8.105 22.124 9.868 11.858 15.582 2.871 3.826-10.398 11.674-.49 6.144 14.26-21.017 32.63-.478 17.684-13.634-.977-17.81 21.114-19.53-14.124-17.996-.4 1.218-8.525-13.954-16.753 8.256-7.493 14.744-.584-1.218-13.937-12.734-3.83-7.185-25.997 12.31-30.442-31.06-4.494-16.35-8.431.301-42.666 22.603-19.21 24.256-5.089-2.227 12.385 15.582 6.56 13.824 13.623 9.34-8.8z" id="160261"/>
    <path d="M786.42 241.112l-2.01 56.624-4.952 42.742.727 25.888-8.497 5.698 3.94 13.267-7.957 17.203-9.434-3.6-9.479 10.82-13.851-.263-62.811 15.959-55.704 7.035-23.12-22.137-5.602-15.318 15.262-11.259 9.248-19.32-.73-22.77 16.226-11.943 1.401-11.737 17.996.4 19.53 14.124 17.81-21.114 13.634.977.478-17.685 21.017-32.628 9.165 4.386 30.68-5.466 27.033-19.883z" id="161231"/>
    <path d="M629.077 318l-1.401 11.738-16.225 11.942.73 22.77-9.25 19.321-15.26 11.26 5.6 15.317 23.12 22.137-52.425 15.812-33.96 22.368-25.054 27.71-4.52-26.702-5.96-58.09-18.196-48.352-3.582-42.385 2.714-29.04-5.9-28.976 18.057 6.502 15.892-3.274 20.638 3.788 21.136-18.06-6.764-11.578 4.137-11.402 20.235-1.886 6.536-8.755 30.08-14.219 31.06 4.494-12.31 30.442 7.184 25.997 12.734 3.83 1.218 13.937-14.744.584-8.256 7.493 13.954 16.753-1.218 8.525z" id="160911"/>
    <path d="M458.428 245.806l.06 12 11.02 7.024 5.9 28.976-2.714 29.04 3.582 42.385-43.058-53.583-23.997-1.576 3.264-21.482-16.99 2.887-5.094-17.013 8.548-7.712 25.31-9.981 3.63-9.324 14.77-8.773 15.77 7.132z" id="161482"/>
    <path d="M423.146 166.376l-3.186 15.187 9.385 12.985-13.607 21.045 12.152 31.854-3.63 9.324-25.311 9.98-8.548 7.713-11.954-1.378-3.485-10.292-12.461-22.159-.079-15.64-32.252 2.12 17.692-24.994 11.103-4.648 1.36-17.147 11.079-11.682 9.881-1.395 8.432-14.067 28.79-10.125-3.773 12.736 8.412 10.583z" id="159614"/>
    <path d="M480.574 212.167l-8.588 24.747-13.558 8.892-15.77-7.132-14.768 8.773-12.152-31.854 13.607-21.045 16.619 3.48 31.012.242 3.598 13.897z" id="161053"/>
    <path d="M350.634 159.48l7.037 8.352 13.733.812-11.079 11.682-1.36 17.147-11.102 4.648-17.693 24.994-17.36-7.708-15.46 1.213-23.103-30.698-10.81-18.432 7.673-20.562 30.118 1.124 30.507 10.711 18.899-3.284z" id="161302"/>
    <path d="M569.375 220.165l-6.536 8.756-20.235 1.885-4.137 11.402 6.764 11.578-21.136 18.06-20.638-3.788-1.482-27.574 15.79-28.777 25.393 9.661 26.217-1.203z" id="160724"/>
    <path d="M517.765 211.707l-15.79 28.777 1.482 27.574-15.892 3.274-18.057-6.502-11.02-7.024-.06-12 13.558-8.892 8.588-24.747 20.527-2.862 16.664 2.402z" id="161552"/>
    <path d="M271.11 150.928l-7.673 20.562-22.488-1.724-30.985-7.47-11.558 20.73-23.439-15.552-2.546-13.281 6.128-9.097 7.149-29.398 31.127 11.383 54.285 23.847z" id="159687"/>
    <path d="M263.437 171.49l10.81 18.432-16.434 7.884 2.478 15.73-7.931-6.35-21.132 13.425-9.386-4.642-13.855 7.15-9.368-14.71-.213-25.383 11.558-20.73 30.985 7.47 22.488 1.724z" id="161035"/>
    <path d="M260.29 213.536l7.53 3.592-5.309 10.508-12.128 3.826-3.254 25.995-20.587 18.798-8.179-31.207-10.376-21.928 13.855-7.15 9.386 4.641 21.132-13.426 7.93 6.35z" id="161561"/>
    <path d="M330.17 227.115l32.252-2.12.079 15.64 12.46 22.159-10.885-6.34-43.934 9.443-13.774-13.38-11.806 6.07-11.572-2.465-6.565-12.113 3.281-17.983-11.885-8.898-7.53-3.592-2.478-15.73 16.434-7.884 23.104 30.698 15.459-1.213 17.36 7.708z" id="160387"/>
    <path d="M198.406 183.026l.213 25.384 9.368 14.71 10.376 21.928-15.262 11.999 12.079 21.644-11.77 16.64-3.262-16.157-11.65 2.567-7.68-10.673.39-25.728-15.342-25.597-11.403-14.243-11.505-.879-8.471-12.401 22.967-18.88 17.513-5.866 23.44 15.552z" id="160476"/>
    <path d="M165.866 219.743l15.341 25.596-.389 25.729 7.68 10.673 11.65-2.567 3.262 16.156-3.75 15.984-5.114 14.95-10.956 8.348-20.454-14.797-14.003 6.69-29.947 5.24-1.202 6.625-14.205-.509 5.573-28.514-12.099-5.334-5.845-25.29 17.357-12.6 17.943-26.015 31.993-8.515 7.165-11.85z" id="160127"/>
    <path d="M73.122 41.221l-5.457 8.048L107.491 76.7 93.363 87.688l-8.981 18.523 1.7 18.737 26.076 29.012 1.025 9.433-11.169-1.515-13.316-15.853-18.145-6.58-32.01-3.691 2.144-4.733 30.594-16.776L62.3 80.732l-6.161-3.558L43.127 50.48l3.679-18.486 26.316 9.228z" id="160617"/>
    <path d="M62.3 80.732l-9.881 5.4-39.285 1.452.116-22.615 5.179-15.07 28.377-17.906-3.679 18.487L56.14 77.174l6.161 3.558z" id="161525"/>
    <path d="M62.3 80.732l8.98 33.513-30.593 16.776-2.145 4.733L36.214 158l-24.029-10.719L1 136.395l1.518-14.3 10.616-34.511 39.285-1.451 9.881-5.401z" id="161286"/>
    <path d="M38.542 135.754l32.011 3.691 18.145 6.58 13.316 15.853 1.115 13.745-14.94 9.163-31.54.623 9.016-15.279-7.11-16.822L36.215 158l2.328-22.246z" id="159730"/>
    <path d="M81.757 220.04l-31.942-20.05 6.834-14.581 31.54-.623 9.015 27.337-15.447 7.916z" id="159945"/>
    <path d="M194.546 326.264l-4.716 21.068 6.701 29.611-13.673 4.172-11.185-4.794-19.968 14.03-24.034-7.293-6.043-12.476-12.077-1.462 11.395-21.534-2.962-9.216 1.203-6.625 29.946-5.24 14.003-6.69 20.454 14.797 10.956-8.348z" id="160323"/>
    <path d="M125.242 437.842l-4.299 21.668-10.046 12.593-9.17-6.253-13.685-9.392-20.353 5.311-17.248-6.242.669-10.681 13.96-33.753 13.465-9.778 29.078 6.946.935-11.548 9.987 13.725 6.707 27.404z" id="160305"/>
    <path d="M196.531 376.943l18.613 14.586-6.394 13.816 16.323 13.377 7.414 21.438-.989 16.696-17.005-1.154-8.81 7.08-8.326-10.693-21.6-3.754-11.04-15.301-13.433-1.099-26.042 5.907-6.707-27.404-9.987-13.725 1.003-27.593 12.077 1.462 6.043 12.476 24.034 7.293 19.968-14.03 11.185 4.794 13.673-4.172z" id="161384"/>
    <path d="M218.363 245.048l8.179 31.207.17 24.888 21.736 6.641-3.38 9.19-21.734 1.826-23.674-7.486 3.75-15.984 11.77-16.64-12.08-21.643 15.263-11.999z" id="160528"/>
    <path d="M276.425 244.01l-8.46 20.425 13 34.869-14.663 21.41-21.142-3.382-.093-.358 3.381-9.19-21.737-6.641-.17-24.888 20.588-18.798 3.254-25.995 12.128-3.826 5.31-10.508 11.885 8.898-3.281 17.983z" id="160564"/>
    <path d="M245.067 316.974l.093.358-8.673 26.92 14.44 9.112-6.635 14.45 9.168 25.041-1.305 19.125 15.715 14.66 11.126 1.755-9.411.045-3.956 13.252-24.906-8.418-8.236 6.886-7.414-21.438-16.323-13.377 6.394-13.816-18.613-14.586-6.7-29.61 4.715-21.07 5.114-14.95 23.674 7.487 21.733-1.827z" id="160225"/>
    <path d="M366.769 435.928l-24.867.048-15.56-23.52-14.659-33.495 7.665-2.963 9.568-19.125 8.665 1.885 16.007-10.253 15.94.339 18.041 20.204-2.274 10.074-13.084 8.615 4.546 21.528-18.714 2.776 8.726 23.887z" id="159650"/>
    <path d="M476.276 365.23l18.195 48.352-46.024-.598-15.595-16.159-19.16 8.667-29.93 25.346 1.731 6.285-18.724-1.195-8.726-23.887 18.714-2.776-4.546-21.528 13.084-8.615 2.274-10.074-18.04-20.204-15.941-.34-3.745-24.66 2.939 6.331 38.638 1.392-.817-14.177 4.892-25.913 16.99-2.887-3.264 21.482 23.997 1.576 43.058 53.583z" id="161179"/>
    <path d="M341.902 435.976l-.192 31.628 13.99 32.411-.807 14.481 14.066 2.407 19.014 23.254-18.497 6.127-29.53-8.956-45.647 5.063 2.517-12.63 9.986-4.778-5.376-28.615-12.86.682-2.001-16.79.843-27.47-21.78-11.098 3.957-13.252 9.41-.045 11.551-13.486 13.863 6.967 4.846 9.947 17.087-19.367 15.56 23.52z" id="159785"/>
    <path d="M265.629 441.692l21.78 11.099-.844 27.47-17.677 7.01-8.202-15.45-1.6-6.111-27.588-8.854.989-16.696 8.236-6.886 24.906 8.418z" id="161348"/>
    <path d="M231.498 456.856l27.588 8.854 1.6 6.111-16.681-1.98-8.188 35.317-11.248 29.822-2.884 10.608 10.384 9.388-5.685 12.351-23.537-8.627-5.225-15.88 3.226-10.941-9.578-7.33-24.257-1.977-1.292-10.183-15.873.29-8.638-9.494-1.988-13.967-18.21-10.014-18.697 2.785-.588-16.14 9.17 6.254 10.046-12.593 4.3-21.668 26.041-5.907 13.432 1.099 11.04 15.3 21.601 3.755 8.326 10.694 8.81-7.08 17.005 1.153z" id="159963"/>
    <path d="M260.686 471.821l8.202 15.45 17.677-7.01 2 16.788 12.861-.68 5.375 28.614-9.985 4.778-2.517 12.63-21.445-1.997-6.39 19.123-26.03-8.698-15.865-15.84 11.248-29.821 8.188-35.317 16.681 1.98z" id="159847"/>
    <path d="M301.182 367.037l10.501 11.924 14.659 33.495-17.087 19.367-4.846-9.947-13.863-6.967-11.55 13.486-11.126-1.754-15.715-14.66 1.305-19.126-9.168-25.041 10.516-5.492 38.29-3.994 8.084 8.71z" id="161259"/>
    <path d="M349.843 323.843l3.745 24.662-16.007 10.253-8.665-1.885-9.568 19.125-7.665 2.963-10.501-11.924-3.651-20.464-8.398-12.45 14.185-17.963 19.778 6.04 7.45-4.181 19.297 5.824z" id="160831"/>
    <path d="M136.749 77.928l-8.415 2.734-11.382 18.326-5.957 34.24 1.163 20.732-26.077-29.012-1.7-18.737 8.982-18.523L107.491 76.7l11.261 7.208 7.315-12.003 10.682 6.022z" id="161543"/>
    <path d="M148.107 79.688l18.379 28.101 19.212 7.91-7.15 29.397-6.127 9.096 2.546 13.282-17.513 5.867-22.967 18.879-11.012-24.04-10.292-4.787-1.025-9.433-1.163-20.731 5.957-34.24 11.382-18.327 8.415-2.734 11.358 1.76z" id="160680"/>
    <path d="M366.769 435.928l18.724 1.195 10.677 1.31 6.893 47.836L426.1 535.66l-15.727 18.518-16.653-1.468-5.747-12.554-19.014-23.254-14.066-2.407.807-14.481-13.99-32.411.192-31.628 24.867-.048z" id="160092"/>
    <path d="M374.962 262.794l3.485 10.292 11.954 1.378 5.094 17.013-4.892 25.913.817 14.177-38.638-1.392-2.939-6.332-19.297-5.824-7.45 4.18-19.778-6.039.244-18.686 16.58-31.577 43.934-9.443 10.886 6.34z" id="160877"/>
    <path d="M494.471 413.582l5.962 58.091 4.52 26.703-18.59 21.479-12.218-9.004-16.044-2.44-32.001 27.25-23.037-49.392-6.893-47.835-10.677-1.311-1.73-6.285 29.928-25.346 19.161-8.667 15.596 16.159 46.023.598z" id="160644"/>
    <path d="M117.984 338.37l2.962 9.216-14.374 10.767-12.166-3.643-12.082-11.218-11.622-28.187 10.605-16.754-5.762-13.2 15.863-6.627 5.845 25.289 12.1 5.334-5.574 28.514 14.205.509z" id="161151"/>
    <path d="M120.946 347.586L109.55 369.12l-1.003 27.593-.936 11.548-29.077-6.946-5.546-13.28.11-25.029 9.225-19.514 12.082 11.218 12.166 3.644 14.374-10.768z" id="161106"/>
    <path d="M771.706 143.254l-2.221 6.143 7.187 28.03L799 187.44l-8.172 19.516-4.408 34.155-27.034 19.883-30.679 5.466-9.165-4.386-6.144-14.26-11.674.489-3.826 10.398-15.582-2.871-9.868-11.858-8.105-22.124 6.71-4.15 14.58-37.716 12.879-.169 5.92-23.289-3.2-5.535 9.172-7.51 34.096-5.712 7.852-4.513 17.042 2.455 2.312 7.543z" id="159767"/>
    <path d="M771.706 143.254l-2.312-7.544-17.042-2.455-7.852 4.513-34.096 5.712-9.173 7.51-7.813-8.104-26.634 11.432 24.235-62.69 8.612-18.242 16.358-47.165 4.873-6.122 23.4 12.372 30.679 31.688 10.17 22.731 5.038 23.33-7.662 12.132 7.559 28.067-18.34-7.166z" id="159883"/>
    <path d="M320.142 265.897l-16.58 31.577-.244 18.686-14.185 17.964 8.398 12.449 3.65 20.464-8.083-8.709-38.29 3.994-10.516 5.492 6.635-14.45-14.44-9.112 8.673-26.92 21.142 3.381 14.662-21.41-13-34.868 8.46-20.426 6.566 12.113 11.572 2.466 11.806-6.07 13.774 13.38z" id="160993"/>
    <path d="M126.708 240.108l-17.943 26.015-17.357 12.6-15.863 6.628-4.05-26.645 15.86-1.463 1.088-31.485 13.87-11.199 13.98 21.157 10.415 4.392z" id="161464"/>
    <path d="M113.183 163.393l10.292 4.788 11.012 24.039 8.471 12.401 11.506.88 11.402 14.242-7.165 11.85-31.993 8.515-10.414-4.392-13.982-21.157-13.869 11.199-6.686-5.719 15.447-7.916-9.014-27.337 14.939-9.163-1.115-13.745 11.169 1.515z" id="160430"/>
  </g>
</svg>
