<svg xmlns="http://www.w3.org/2000/svg" version="1.2" baseProfile="tiny" stroke-linecap="round" stroke-linejoin="round" viewBox="0 0 800 523">
  <g id="TM" fill="none" stroke="#aaa">
    <path d="M360.982 468.416l-4.773 1.484 5.144 19.681-3.037 8.106-16.65-4.02-6.407 6.19-25.075-19.26-6.999-24.228 6.346-1.72 16.245 9.16 18.627-6.129 5.703-6.038 10.876 16.774z" id="157781"/>
    <path d="M346.036 413.5l17.05 23.567-12.98 14.575-5.703 6.038-18.627 6.13-16.245-9.16-6.346 1.719-1.245-6.545-.346-8.896 6.48-2.264 8.07-15.572 7.42-.043 11.94-7.873 10.532-1.677z" id="156669"/>
    <path d="M323.89 399.435l4.784 3.777 13.722-2.966 11.275 7.536-7.635 5.717-10.532 1.677-11.94 7.873-7.42.043-8.688-13.102 4.629-2.712-4.451-9.904 16.257 2.06z" id="155458"/>
    <path d="M255.336 385.469l-.938 21.476-6.54-.226-4.405 32.144-16.993-13.751-8.158-13.546-4.792-12.637-7.036-.185-12.333-8.172 6.19-6.967 10.48-2.527 4.802-7.452 10.493 1.703 4.636 12.37 24.594-2.23z" id="157273"/>
    <path d="M371.021 371.233l3.478 9.866 2.38 24.947-5.134 2.478 3.524 11.71-2.637 8.682-9.547 8.151-17.05-23.568 7.636-5.717-11.275-7.536 2.224-9.8 13.407-10.574 4.738-8.879 8.256.24z" id="159366"/>
    <path d="M406.403 380.059l1.407 14.129 7.798 13.622-17.395 5.056 1.243 8.512 14.651 19.48 1.67 5.266-8.133 3.07-9.67-3.62-7.802 12.267-6.794-2.574-6.936 8.174-15.46 4.975-10.876-16.774 12.98-14.575 9.546-8.151 2.637-8.681-3.524-11.711 5.135-2.478-2.381-24.947-3.478-9.866 15.108-1.286 14.585 11.94 5.69-1.828z" id="157086"/>
    <path d="M313.17 371.883l-.65 9.795 13.213 5.431-1.842 12.326-16.257-2.061-4.837-1.24-16.124 7.211-9.34 1.208-5.137-3.976-6.515-17.866-10.345 2.758-24.595 2.23-4.635-12.37-10.493-1.703 4.224-.785 14.427.92 13.162-10.128 5.657 2.8 12.844-3.111 21.346 1.99 12.707 7.477 7.05-7.058 6.14 6.152z" id="159400"/>
    <path d="M362.765 370.993l-4.738 8.879-13.407 10.575-2.224 9.8-13.723 2.965-4.782-3.777 1.842-12.326-13.213-5.431.65-9.795 8.505.296 6.032-7.83 16.476-.492-1.582-8.547 15.614-3.057 6.841-1.368 1.626 12.021-3.917 8.087z" id="159339"/>
    <path d="M204.528 346.244l5.783 3.954 9.526 22.643-4.224.785-4.803 7.452-10.48 2.527-7.03-10.588-9.165-7.35-21.974-1.131-.286-10.234 13.001-6.688 12.308.883 5.712-15.339 11.632 13.086z" id="157004"/>
    <path d="M446.974 357.742l2.629 7.813-11.906 7.956-12.33-3.187-18.964 9.735-5.689 1.828-14.585-11.94-15.108 1.286-8.256-.24 3.917-8.087-1.626-12.021 4.886-4.589 20.666-5.563 11.636-8.103 4.897-3.435 6.412 4.247 14.279 3.175 5.827 11.592 6.583 1.715 6.732 7.818z" id="159035"/>
    <path d="M358.215 352.253l-15.613 3.057 1.581 8.547-16.476.492-6.43-7.208-2.678-10.972-12.51-19.874.718-1.77 20.276.183 3.087-5.642 11.04 14.007 12.02-5.704 4.985 24.884z" id="157424"/>
    <path d="M306.089 326.295l12.51 19.874 2.677 10.972 6.431 7.208-6.032 7.83-8.505-.296-6.14-6.152-7.05 7.058-12.707-7.477-21.346-1.99-12.844 3.112-5.657-2.801 9.036-3.877-5.42-9.27 9.335-9.616-14.551-15.015 20.68 1.838 10.58-12.441 11.272-3.53 4.073 11.794 13.658 2.78z" id="156357"/>
    <path d="M415.452 312.283l9.2 3.33 12.25-1.055 6.875-.514 14.612 18.52-1.065 7.265-7.355 5.888-2.995 12.025-6.732-7.818-6.583-1.715-5.827-11.592-14.28-3.175-6.411-4.247 8.31-16.912z" id="157923"/>
    <path d="M245.826 325.855l14.55 15.015-9.335 9.615 5.421 9.271-9.036 3.877-13.162 10.128-14.427-.92-9.526-22.643-5.783-3.954 9.521-4.859 6.81-11.873-1.897-8.894-9.811-12.175 4.107-2.145 4.918-1.024 11.5 12.969 10.463-3.75 5.687 11.362z" id="157317"/>
    <path d="M402.244 332.63l-11.636 8.103-20.666 5.563-4.886 4.589-6.84 1.368-4.986-24.884-12.02 5.703-11.04-14.006 19.163-3.793 5.105-6.121-6.192-6.7 1.59-5.332 18.974-5.448 8.748 7.981-7.604 6.354 3.821 16.036 26.876 8.298 1.593 2.289z" id="157497"/>
    <path d="M209.15 308.443l9.812 12.175 1.898 8.894-6.811 11.873-9.521 4.859-11.632-13.086-5.712 15.34-12.308-.884 10.65-10.155-5.993-16.608-5.869-10.13 4.691-4.351-1.754-9.731 13.64-2.029 17.448-6.708 3.39 5.16-5.554 10.122 3.626 5.26z" id="159525"/>
    <path d="M602.734 298.09l15.084 17.34 20.49 11.962-11.79 11.39-8.79-1.328-1.632 10.874-8.814.796-4.385-22.675-5.127-.269-8.156-10.645-.97-5.91-10.909 1.555-5.468-8.766 4-6.741 11.435-8.85 15.032 11.268z" id="157031"/>
    <path d="M349.837 297.12l-1.591 5.332 6.192 6.7-5.105 6.12-19.163 3.794-3.087 5.642-20.276-.183 7.167-28.966 11.962-6.419 16.12 1.15 4.44-5.331 3.34 12.161z" id="159446"/>
    <path d="M510.103 348.086l-7.654-9.344-8.74-1.053-11.135-11.204 4.6-14.367 8.049-5.468.113-9.541 28.173-3.43-3.203-10.177 18.437-2.105-3.855 28.208 1.575 17.219-15.172 8.691-5.477 9.405-5.71 3.166z" id="156623"/>
    <path d="M632.543 299.614l11.519 14.234 9.507 3.626-3.769 9.593-11.492.325-20.49-11.963-15.084-17.338 10.629-20.026 7.818 7.26 1.686 10.084 9.676 4.205z" id="156534"/>
    <path d="M700.045 285.21l18.755 11.526-4.829.679-6.97 11.383-2.988 15.844-7.54 9.862-6.289-1.324-5.191-8.5-10.475-1.23-7.238-6.125-7.04 6.369-6.67-6.22-9.509-3.626-11.518-14.234 10.198-18.467 8.51-1.983 5.252 7.884 5.582.747 14.612-10.808 8.89-1.495 4.824 8.495 9.634 1.223z" id="157898"/>
    <path d="M480.332 295.976l6.843 16.142-4.601 14.367-14.462 8.006-9.723-1.927-14.612-18.52-6.874.514 4.85-11.868-6.978-8.522-9.867-18.86 7.338-6.013 22.746 14.845 23.968-2.781 1.372 14.618z" id="155403"/>
    <path d="M415.452 312.283l-8.311 16.912-4.897 3.435-1.593-2.29-26.876-8.297-3.821-16.036 7.604-6.354-8.748-7.98-18.973 5.447-3.34-12.161 3.248-6.84 14.137-8.148 4.114 3.825 21.513-6.91 3.583 5.09 14.502 2.119 2.232 30.767 5.626 7.421z" id="158449"/>
    <path d="M272.682 281.355l7.702 5.422 5.168 12.49-8.466 15.985-10.58 12.44-20.68-1.837-5.688-11.363-10.462 3.75-11.5-12.969-4.918 1.025-3.3-5.224 15.99-14.464-3.301-9.67 19.564-4.419 9.072-6.905 13.534 14.36 7.865 1.379z" id="158065"/>
    <path d="M309.77 266.295l15.273 8.997-3.952 11.46 4.845 2.388-11.962 6.419-17.775-8.238-6.738-13.087 11.48-9.86 4.643-.018 4.186 1.94z" id="158779"/>
    <path d="M429.684 253.075l2.562 16.22-7.338 6.012 9.867 18.861 6.979 8.522-4.851 11.868-12.25 1.055-9.201-3.33-5.626-7.42-2.232-30.768-14.502-2.12-3.583-5.09 4.666-10.515 11.476-1.266 17.66.629 6.373-2.658z" id="156311"/>
    <path d="M530.08 257.39l6.73-.902 9.173 11.744-5.53 13.001-1.71.164-18.437 2.105 3.203 10.178-28.173 3.428-.113 9.542-8.048 5.468-6.843-16.142 6.925-2.343 12.17-15.092-3.57-9.237 9.087-9.217-1.653-10.02 21.908 3.407 4.881 3.916z" id="156106"/>
    <path d="M348.033 254.917l-1.459 12.848 3.171 10.354-3.249 6.84-4.44 5.33-16.12-1.149-4.845-2.387 3.952-11.461-15.273-8.997 7.107-11.04 5.857.494 11.407-6.51 13.892 5.678z" id="155314"/>
    <path d="M248.616 247.45l5.932 14.187-3.265 3.979-9.072 6.905-19.564 4.418 3.3 9.67-15.99 14.465 3.3 5.224-4.106 2.145-3.626-5.259 5.554-10.121-3.39-5.16-17.447 6.707-13.641 2.029 1.754 9.73-4.69 4.353-8.422 1.898-1.423-15.145 5.117-4.794 3.932-11.397 5.998-5.632 17.488-16.01 25.698 7.514 2.469-12.45 11.1-1.171 6.479-7.519 6.515 1.434z" id="159142"/>
    <path d="M611.036 249.464l-9.304 13.663 11.63 14.938-10.628 20.026-15.032-11.269-11.435 8.85-17.811-3.573-5.599-10.123-12.404-.743 5.53-13.001 23.189-12.175 11.843 10.645 8.132-12.647 6.979-.55 6.338-5.868 8.572 1.827z" id="155350"/>
    <path d="M450.69 241.058l1.745 3.376 14.27 3.471 30.515 2.17 6.07-.009 1.654 10.021-9.086 9.217 3.57 9.237-12.171 15.092-6.925 2.344-1.372-14.618-23.968 2.78-22.746-14.844-2.562-16.22 10.74-1.428 10.266-10.59z" id="158243"/>
    <path d="M305.584 264.356l-4.643.018-11.48 9.86-11.39 2.541-5.39 4.58-7.864-1.38-13.534-14.36 3.265-3.978-5.932-14.187 19.78-5.246 7.743 3.984 14.2-.347 4.433-3.66 8.77-3.076-.56 13.445 2.601 11.806z" id="158699"/>
    <path d="M642.42 250.416l1.889 12.493 6.773 7.77.169 8.485-8.51 1.983-10.198 18.467-9.676-4.205-1.686-10.084-7.818-7.26-11.63-14.938 9.303-13.663 24.315-1.905 7.07 2.857z" id="155957"/>
    <path d="M702.393 244.047l6.746 8.246.843 7.608-10.72 15.768.783 9.541-9.634-1.223-4.824-8.495-8.89 1.495-14.612 10.808-5.582-.747-5.252-7.885-.169-8.483-6.773-7.772-1.889-12.492 6.443-13.255 30.207-8.43 14.28.994 2.86 13.648 6.183.674z" id="156927"/>
    <path d="M374.782 229.029l6.4 19.662 6.812-2.348 6.181 10.027-4.666 10.516-21.513 6.91-4.114-3.825-14.137 8.148-3.17-10.354 1.458-12.848 7.387-17.764 19.362-8.124z" id="157834"/>
    <path d="M566.113 228.118l7.443 10.45 22.389 1.476 6.52 7.593-6.339 5.868-6.98.55-8.131 12.647-11.843-10.645-23.19 12.175-9.171-11.745-6.73.903 5.525-3.208 7.269-17.715-4.246-5.793 9.134-6.898 13.377.436 4.973 3.906z" id="156473"/>
    <path d="M405.651 255.104l-11.476 1.266-6.18-10.027-6.812 2.349-6.401-19.663.481-3.713 23.641 2.027 5.438-3.418 2.802 6.772-5.26 22.16 3.767 2.247z" id="159516"/>
    <path d="M224.326 215.956l8.899 13.003 2.447 10.583 6.429 6.474-6.479 7.519-11.1 1.172-2.47 12.45-25.697-7.515 3.211-17.233 13.067-26.755 11.693.302z" id="156277"/>
    <path d="M731.634 216.134l-1.947 8.91 9.908 35.888 10.072 6.392 6.9 20.24-6.11 9.093-8.181-2.536-23.476 2.615-18.755-11.526-.784-9.54 10.721-15.77-.843-7.607-6.746-8.246-.007-21.367 14.685-9.316 7.505 6.787 7.058-4.017z" id="158895"/>
    <path d="M192.612 209.016l15.676 2.766 4.345 3.871-13.067 26.756-3.21 17.233-17.489 16.01-2.303-15.176 3.628-25.49 5.647-6.932 2.572-11.51 4.2-7.528z" id="159375"/>
    <path d="M617.103 207.004l2.305 8.064 11.124 1.646 9.05 14.13 9.28 6.317-6.442 13.255-7.07-2.857-24.314 1.905-8.572-1.827-6.52-7.593 7.436-7.292-9.339-19.836 13.436-4.935 9.626-.977z" id="159071"/>
    <path d="M539.225 202.772l-2.927 6.009 1.867 13.541 9.598 1.454-9.134 6.898 4.246 5.792-7.27 17.715-5.525 3.209-4.88-3.916-21.91-3.408-6.07.009 7.463-20.514 19.719-1.753-.784-15.886 11.202-10.106 4.405.956z" id="155797"/>
    <path d="M374.337 206.4l2.156 5.05-1.23 13.866-.481 3.713-19.362 8.124-7.385-7.878 5.456-15.226-1.455-8.275 15.137-3.657 7.164 4.283z" id="155289"/>
    <path d="M747.639 197.026l11.738 2.857 13.542 14.82 1.364 16.608 6.729 4.96 12.264-7.857L799 240.111l-4.003 6.414-12.515 10.96-13.3 5.793-.822 18.796-11.793 5.49-6.9-20.24-10.072-6.392-9.908-35.888 1.947-8.91 4.902-4.418 1.059-8.788 9.66-6.301.384.399z" id="158136"/>
    <path d="M273.536 212.555l.048 8.96 7.701 1.976 10.173-4.17.507-5.206 12.442 4.501-.618 12.248-9.017 11.317-4.433 3.66-14.2.347-7.743-3.984-19.78 5.246-6.515-1.434-6.43-6.474-2.446-10.583-8.9-13.004 6.309-3.063 10.587-14.77 18.167-3.572 6.01 9.533-.812 6.049 8.95 2.423z" id="158564"/>
    <path d="M314.247 195.347l17.804 3.535-10.91 8.076 16.414 14.06 7.068-12.142 8.868 5.173-5.456 15.226 7.385 7.878-7.387 17.764-13.892-5.678-11.407 6.51-5.857-.494-7.107 11.04-4.186-1.94-2.601-11.805.559-13.445-8.77 3.076 9.017-11.317.618-12.248-12.442-4.501 4.714-17.636 17.568-1.132z" id="155243"/>
    <path d="M474.264 191.932l7.45 8.868 2.87 8.528 10.746.37 4.89 15.587 4.463 4.276-7.463 20.514-30.514-2.17-14.27-3.47-1.746-3.377-3.955-9.44 4.93-15.447 14.087-5.067 1.327-18.473 7.185-.699z" id="158966"/>
    <path d="M679.07 228.73l-30.207 8.43-9.28-6.316-9.051-14.13 4.107-9.784-3.97-16.595 3.966-.826 9.534-.887 10.61 25.697 10.14 2.177 14.15 12.235z" id="156767"/>
    <path d="M736.164 185.059l11.09 11.568-9.659 6.301-1.059 8.788-4.902 4.418-7.058 4.017-7.505-6.787-14.685 9.316-6.318-7.33 9.36-1.982 1.257-10.536 7.523-9.713 12.8-6.97 8.911-1.847.245.757z" id="156589"/>
    <path d="M573.713 196.786l-1.817 15.432 4.92 9.195-10.276 1.888-.427 4.817-4.973-3.906-13.377-.436-9.598-1.454-1.867-13.541 2.927-6.009 10.146-3.342.616-8.624 8.527-7.176 15.2 13.156z" id="155546"/>
    <path d="M241.614 190.578l-.393 7.545-10.588 14.77-6.307 3.063-11.693-.302-4.345-3.873-15.676-2.765 13.503-14.948 8.717-1.852 16.184-11.85 10.598 10.212z" id="156213"/>
    <path d="M613.014 183.47l4.089 23.534-9.625.977-13.437 4.935 9.34 19.836-7.436 7.292-22.389-1.477-7.443-10.45.427-4.816 10.276-1.888-4.92-9.195 1.817-15.432 7.197-3.974 6.517-20.617 14.49 7.57 3.116 12.543 7.98-8.837z" id="155840"/>
    <path d="M510.538 169.557l.055 6.838 11.966-.77 14.163 11.76 12.253-7.244 1.012 10.665-.615 8.624-10.147 3.342-4.404-.956-11.203 10.106.784 15.886-19.719 1.753-4.463-4.276-4.89-15.587 7.069-5.106-10.33-13.612 9.66-19.932 8.81-1.49z" id="157193"/>
    <path d="M428.573 172.456l-1.384 16.7-23.766 11.578-5.572 6.781 6.49 16.41-5.437 3.418-23.64-2.027 1.229-13.866-2.156-5.05 12.428-4.142-4.594-6.667 11.535-15.461 8.769-.018 10.58-10.571 9.34 4.333 6.178-1.418z" id="158396"/>
    <path d="M393.706 180.13l-11.535 15.461 4.594 6.667-12.428 4.142-7.164-4.283-15.137 3.657-11.206-3.297 1.954-10.227-6.905-8.338 4.147-12.141 3.204 5.555 8.805 2.47 11.761-10.434 8.931 2.702 4.094-3.634 8.157 8.881 8.728 2.819z" id="157246"/>
    <path d="M631.22 166.616l3.415 22.893-3.965.826 3.97 16.595-4.108 9.784-11.124-1.646-2.305-8.064-4.09-23.533.883-17.12 17.323.265z" id="157736"/>
    <path d="M231.016 180.366l-16.184 11.85-8.717 1.851-11.045-10.81 7.87-11.77-.07-9.524 10.224-2.351 3.068 8.747 9.148 2.442 5.706 9.565z" id="159428"/>
    <path d="M690.945 173.66l-3.73 13.335-5.216 8.885 14.069 19.47 6.318 7.33.007 21.367-6.183-.674-2.86-13.648-14.28-.994-14.15-12.235-10.142-2.177-10.609-25.697-9.534.887-3.416-22.893 3.922-8.38 7.672-6.297 9.528 5.022 2.24 5.428 13.712-2.336 10.021 3.761 6.293 9.607 6.338.24z" id="156801"/>
    <path d="M470.05 152.277l1.13 14.605 7.388 17.392-4.304 7.658-7.185.7-1.327 18.472-14.086 5.066-4.93 15.449 3.954 9.439-10.266 10.59-10.74 1.427-6.373 2.658-17.66-.629-3.766-2.248 5.259-22.159-2.802-6.772-6.49-16.41 5.57-6.781 23.767-11.578 1.384-16.7 4.936-9.401 6.92-3.264 3.95-8.216 13.364-3.401 12.307 4.103z" id="158314"/>
    <path d="M264.015 165.98l-1.747 3.774-20.654 20.824-10.598-10.212-5.706-9.565-9.148-2.442-3.068-8.748 9.695 1.649 17.225-13.095 6.785-2.996 10.044 9.356 7.172 11.455z" id="155911"/>
    <path d="M587.427 172.195l-6.517 20.617-7.197 3.974-15.2-13.156-8.526 7.176-1.012-10.665 8.036-15.38-1.966-18.422 7.647-5.497 10.014 2.217 5.324-3.75-2.085 9.094 2.686 10.36 9.573-3.243 5.904 2.367-6.681 14.308z" id="155662"/>
    <path d="M747.639 197.026l-.384-.4-11.09-11.567 5.138-.844 6.336 12.81zm-11.72-12.724l-8.91 1.847-12.8 6.97-7.524 9.713-1.256 10.536-9.361 1.983-14.069-19.471 5.216-8.885 3.73-13.334 2.452-10.915 7.057-4.816 13.157 1.896 7.83-19.84 7.942-.94 12.242 6.416 13.15 13.272-3.486 14.91-15.37 10.658z" id="157585"/>
    <path d="M340.658 160.087l-.632 11.684-4.147 12.14 6.905 8.339-1.954 10.227-8.78-3.595-17.803-3.535-11.017-5.644-5.483-14.31-4.433-3.82 8.713-12.234-7.938-3.327-.355-8.536 21.946-8.718 8.65 2 1.936 21.624 14.392-2.295z" id="158653"/>
    <path d="M379.056 141.065l6.671-.323 6.44 7.973 22.765 2.796 3.794 3.006 11.89.646 13.763-3.589-3.95 8.217-6.92 3.264-4.936 9.401-6.177 1.418-9.341-4.333-10.58 10.57-8.77.019-8.727-2.819-8.157-8.881-4.094 3.634-8.93-2.702-11.762 10.435-8.805-2.471-3.204-5.555.632-11.684.971-4.188 12.38-11.103 5.446-9.194 19.6 5.463z" id="158181"/>
    <path d="M555.045 146.339l1.966 18.422-8.036 15.38-12.253 7.244-14.163-11.76-11.966.77-.055-6.838 1.335-5.62 13.796-3.448 10.643-3.81.962-9.148 6.103-4.534 11.668 3.342z" id="158608"/>
    <path d="M145.675 149.82l7.67 36.193-9.236-3.298-12.652 5.741.986-2.262-16.187-18.484-10.508-3.359-3.148-20.778-5.379 1.093 13.86-5.733-5.184-10.594 14.69-1.62 8.127 2.016-1.249 6.762 15.172-.174 3.038 14.497z" id="156437"/>
    <path d="M642.813 151.939l-7.672 6.297-3.922 8.38-17.323-.265-.882 17.12-7.981 8.837-3.116-12.543-14.49-7.57 6.68-14.308-5.903-2.367-9.573 3.244-2.686-10.361 2.085-9.093 1.789-8.313 17.02-6.875 6.831 3.237 7.401 9.159 21.166 6.736 10.576 8.685z" id="157969"/>
    <path d="M525.67 160.489l-13.797 3.448-1.335 5.62-8.81 1.491-9.66 19.932 10.33 13.612-7.068 5.106-10.747-.37-2.868-8.529-7.451-8.867 4.304-7.658-7.388-17.392-1.13-14.605 6.951-6.89 6.567-2.125 6.34 11.222 8.517 5.166 4.547-14.142 7.893-11.685 6.481-4.71 6.617 11.303 1.706 20.073z" id="156151"/>
    <path d="M240.42 134.61l-.406 13.555-17.225 13.095-9.695-1.648-10.224 2.35-3.66-27.752 13.092-1.806 5.878-10.864 6.028 5.721 16.212 7.348z" id="159464"/>
    <path d="M477.001 145.387l-6.951 6.89-12.307-4.103-13.364 3.4-13.764 3.589-11.89-.646-.73-6.113 7.125-9.209 12.114-4.901-5.635-8.57.752-6.154 18.344-1.793 3.155-3.58 28.01 15.595-4.859 15.595z" id="156035"/>
    <path d="M169.668 135.363l1.073 9.437-25.066 5.02-3.038-14.497-15.172.174 1.25-6.762-8.128-2.016 3.247-4.907 15.169-5.737 17.149-3.45 2.591 20.932 10.925 1.806z" id="159419"/>
    <path d="M299.313 118.588l-4.327 10.129-14.011 11.43 12.759 7.33.355 8.535 7.938 3.327-8.713 12.234-5.723 3.527-10.848-11.59-12.728 2.47-7.172-11.455-10.044-9.356-6.785 2.996.406-13.556 16.892-13.082 16.663 3.674 12.568-15.776 8.253 10.302 4.517-1.139z" id="158528"/>
    <path d="M417.994 148.404l.732 6.113-3.794-3.006-22.765-2.796-6.44-7.973-6.671.323 6.376-11.853-2.004-7.898 5.28-7.486 16.364-6.364 11.227 22.786-6.908 10.018 8.603 8.136z" id="159393"/>
    <path d="M383.428 121.314l2.004 7.898-6.376 11.853-19.6-5.463-5.446 9.194-12.38 11.103-.972 4.188-14.392 2.295-1.937-21.624-8.65-2-21.945 8.718-12.76-7.329 14.012-11.43 4.327-10.129 17.77-8.743 6.814 7.49 15.78 7.354.409-7.507 8.606-3.916 8.495-12.342 17.904 7.247 8.266 6.453.071 6.69z" id="158010"/>
    <path d="M89.292 103.824l7.111 3.16 23.534-1.306 3.897 16.134-3.247 4.907-14.69 1.62 5.184 10.594-13.86 5.733-13.986 6.938-4.42-9.643-5.413-21.955-11.973-9.136 9.482-1.26-1.93-7.081 8.738-2.448 11.573 3.743z" id="158859"/>
    <path d="M184.398 111.54l6.79 7.356.944 8.448-.164 4.386-22.3 3.633-10.925-1.806-2.591-20.932.97-5.204 10.923-2.7-1.924-5.475 2.177-.064.271 3.269 15.829 9.088z" id="157530"/>
    <path d="M201.962 95.277l6.28 12.352 9.938 13.91-5.878 10.865-13.092 1.805-7.078-6.865-.944-8.448-6.79-7.357 17.564-16.262z" id="159507"/>
    <path d="M166.121 99.246l1.924 5.475-10.924 2.7-.97 5.204-17.148 3.45-15.169 5.737-3.897-16.134-1.035-5.25 29.301-5.085 9.822 4.165 8.096-.262z" id="159473"/>
    <path d="M286.543 109.424l-12.568 15.777-16.663-3.674-16.892 13.082-16.212-7.348-6.028-5.721-9.937-13.91 19.153-4.689 9.291-16.685 38.401 2.488 6.68-1.379 1.329 13.836 3.446 8.224z" id="159213"/>
    <path d="M450.695 117.777l-18.344 1.793-.752 6.155 5.635 8.569-12.114 4.901-7.126 9.209-8.603-8.136 6.908-10.018-11.227-22.786 10.34-8.494-5.254-7.802 15.715-8.872 13.738-1.606 6.368 17.72-4.743 11.27 9.459 8.097z" id="157683"/>
    <path d="M77.72 100.08l-8.739 2.449 1.93 7.08-9.482 1.26-14.944 1.611-19.094-18.52L30.847 91l-5.26-17.196 18.781-.338 6.412-2.477 13.388 17.337 13.551 11.755z" id="159482"/>
    <path d="M236.687 86.256l-9.291 16.685-19.153 4.688-6.281-12.352 2.26-14.383-.888-15.104 6.948-6.068 9.492 2.03 7.466 6.173 9.447 18.331z" id="158109"/>
    <path d="M131.59 35.365l2.313 17.57 12.784 2.917 1.516 39.491-29.301 5.085 1.035 5.25-23.534 1.306-7.11-3.16 4.9-3.929 2.553-20.527-7.695-18.065 3.26-7.436 22.684-2.442 8.497-3.85 2.632-5.987-6.739-5.507 6.12-7.61 6.084 6.894z" id="155528"/>
    <path d="M152.082 25.11l7.866 1.78 8.547 23.53 11.009 16.54-8.254 27.912-2.952 4.31-2.177.064-8.096.262-9.822-4.165-1.516-39.49-12.784-2.917-2.314-17.57 7.472-10.595 13.02.34z" id="159455"/>
    <path d="M89.05 61.303l7.696 18.065-2.553 20.527-4.9 3.929-11.574-3.743-13.55-11.755L50.78 70.989l-6.412 2.477-18.78.338-3.14-9.984 5.31-3.27 20.96-.39-1.75-14.654 8.926-25.23 9.78 3.92 9.91-4.81 8.254 9.527-6.34 16.952L89.05 61.303z" id="156712"/>
    <path d="M210.282 59.722l-6.948 6.068.888 15.104-2.26 14.383-17.564 16.262-15.829-9.088-.27-3.27 2.951-4.31 8.254-27.91-11.01-16.541-8.546-23.53-7.866-1.78 28.459 4.046 2.646 9.706 17.06 18.651 10.035 2.209z" id="158733"/>
    <path d="M55.894 20.276l-8.927 25.23 1.75 14.655-20.96.389-5.31 3.27-8.68-14.699-9.827-6.509L1 32.05l12.847-16.153 5.477 1.37 15.652-8.956 4.009 8.713 10.312-1.659 6.597 4.911z" id="155724"/>
    <path d="M125.506 28.47l-6.12 7.61 6.738 5.508-2.632 5.988-8.497 3.849-22.684 2.442-3.26 7.436-11.554-15.438 6.34-16.953-8.252-9.525 7.63-8.095L86.608 1 100.4 7.028l25.106 21.443z" id="156259"/>
    <path d="M576.267 295.673l-4 6.74 5.468 8.767-5.558 18.61.873 9.542-15.53 2.132-2.034 12.447-12.972-.275-2.703 3.329-15.767-2.404-13.94-6.475 5.71-3.166 5.477-9.405 15.172-8.691-1.575-17.22 3.855-28.207 1.71-.164 12.404.743 5.599 10.123 17.811 3.574z" id="159259"/>
    <path d="M616.096 348.328l7.314 8.894-.88 10.47-12.838 8.14-19.477-8.322-10.605 2.705-1.357-12.8-6.557-11.153 1.354-6.93-.873-9.542 5.558-18.61 10.91-1.555.969 5.91 8.156 10.645 5.127.269 4.385 22.675 8.814-.796z" id="158804"/>
    <path d="M415.778 446.124l11.107 6.2 5.338 16.472-4.265 3.908 8.42 9.938-7.797 4.537-3.455 15.207-11.38 18.048-6.54 1.095-14.197-5.57-9.3-9.893-18.332-1.096-7.061-7.283 3.037-8.106-5.144-19.681 4.773-1.484 15.46-4.975 6.936-8.174 6.794 2.575 7.802-12.268 9.67 3.62 8.134-3.07z" id="157362"/>
    <path d="M307.634 397.374l4.45 9.904-4.628 2.712 8.689 13.102-8.071 15.572-6.48 2.264.346 8.897-4.874-.175-6.587 9.973-17.285 3.682-10.911-18.786-15.409 2.727 14.81-4.157 6.576-11.431-4.447-6.162 9.116-9.206-3.124-7.637 2.391-8.076 5.137 3.976 9.34-1.208 16.124-7.212 4.837 1.24z" id="155591"/>
    <path d="M272.196 400.577l-2.391 8.076 3.124 7.637-9.116 9.206 4.447 6.162-6.575 11.431-14.811 4.157-3.42-8.382 4.404-32.145 6.54.226.938-21.476 10.345-2.758 6.515 17.866z" id="159491"/>
    <path d="M289.46 274.234l6.739 13.087 17.775 8.238-7.167 28.966-.718 1.77-13.658-2.779-4.073-11.795-11.272 3.531 8.466-15.986-5.168-12.49-7.702-5.421 5.388-4.58 11.39-2.541z" id="159437"/>
    <path d="M276.743 163.51l-8.188 6.996 8.884 10.318 3.787 15.347-7.69 16.384-8.95-2.423.811-6.049-6.01-9.532-18.166 3.572.393-7.545 20.654-20.824 1.747-3.774 12.728-2.47z" id="155760"/>
    <path d="M293.314 171.573l4.433 3.82 5.483 14.31 11.017 5.644-17.569 1.132-4.713 17.636-.507 5.206-10.173 4.17-7.7-1.976-.05-8.96 7.691-16.384-3.787-15.347-8.884-10.318 8.188-6.995 10.848 11.589 5.723-3.527z" id="159384"/>
    <path d="M340.83 202.477l11.206 3.297 1.455 8.275-8.868-5.173-7.068 12.141-16.415-14.059 10.91-8.076 8.78 3.595z" id="155261"/>
    <path d="M195.07 183.258l11.045 10.81-13.503 14.948-4.201 7.529-13.663-6.178-4.177 15.647-14.588-1.431-11.601 1.97-5.399-23.888-6.63 1.236-3.835-9.055 2.94-6.39 12.651-5.741 9.235 3.298 10.616 5.273 8.97-11.178 22.14 3.15z" id="155494"/>
    <path d="M199.21 134.21l3.66 27.753.07 9.523-7.87 11.772-22.14-3.15-8.97 11.178-10.616-5.273-7.669-36.193 25.066-5.02-1.073-9.437 22.3-3.633.164-4.386 7.078 6.865z" id="157451"/>
  </g>
</svg>
