<svg xmlns="http://www.w3.org/2000/svg" version="1.2" baseProfile="tiny" stroke-linecap="round" stroke-linejoin="round" viewBox="0 0 800 908">
  <g id="TR" fill="none" stroke="#aaa">
    <path d="M652.19 822.927l26.785 5.864-6.696 3.842 4.149 36.696.282 4.717.514 8.273-36.44 4.788-18.767 12.285-32.636 7.978-10.033-48.943 38.767-18.065 9.478-21.656 24.598 4.221z" id="153400"/>
    <path d="M723.732 781.477l17.775 31.686-31.923 11.808-17.596-9.567-12.637 12.754.306-28.67 19.99-31.49 24.085 13.479z" id="152314"/>
    <path d="M615.634 789.917l-1.646 17.929 13.605 10.86-9.478 21.656-38.767 18.065 10.033 48.943-28.063-.918-59.2-34.289-14.645-18.451 23.408-36.005 16.828 1.186 8.613-24.758 17.398-20.149 20.117-7.157 27.624 5.002 14.173 18.086z" id="151978"/>
    <path d="M253.188 754.211l34.6 15.573 2.571 24.33-19.578 5.57-15.7-1.45-24.993-10.348-.15-32.536 23.25-1.139zm-5.392-19.918l-19.403 14.682-16.614-15.92 25.664-11.73 9.872-21.564 16.379 22.106-15.898 12.426z" id="151709"/>
    <path d="M537.039 756.48l16.681 17.506-17.398 20.15-8.613 24.757-16.828-1.186-23.408 36.005-33.295-13.82 27.948-26.61 20.598-35.057 10.183 4.478 13.688-30.737 10.444 4.515z" id="155118"/>
    <path d="M122.799 740.554l5.38 30.525 4.401 13.045 24.241 14.075-5.272 18.302-41.799 24.258-34.938-6.876-34.856-30.296 21.858-36.366 5.686-22.288 38.337-10.174 16.962 5.795z" id="151736"/>
    <path d="M757.548 721.49l.195 24.728-22.419.564-11.592 34.695-24.084-13.478-19.99 31.49-.307 28.669-.376.633-26.784-5.864-24.598-4.22-13.605-10.861 1.646-17.93 10.867.137 18.787-39.45 50.93-17.55 5.193-10.784 56.137-.78z" id="152234"/>
    <path d="M677.224 882.32l-.514-8.274-.282-4.717-4.149-36.696 6.696-3.842.376-.633 12.637-12.754 17.596 9.567 31.923-11.808-17.775-31.686 11.592-34.695 22.419-.564-.195-24.728.084-17.045 16.113-.112.475 42.248-6.42 29.192 22.614 52.237-29.194 21.805-51.286 30.143-32.71 2.361z" id="153589"/>
    <path d="M526.595 751.966l-13.688 30.737-10.183-4.478-20.598 35.057-27.948 26.61-24.242-7.359 5.06-21.064-5.864-33.65-16.694-21.176 47.264 22.208 17.391-11.879 18.98-28.882 16.16-35.184 17.338 8.899-13.312 35.578 10.336 4.583z" id="154460"/>
    <path d="M740.595 680.316l-5.753 14.53-50.476.32-14.133 23.536-36.91 5.989-10.252-23.427-6.526-32.205 67.751 3.477-.085-13.871 50.378-1.28 6.006 22.931z" id="152500"/>
    <path d="M476.976 646.647l11.228 14.398 5.56 28.907-3.538 18.184-20.94 35.546-42.655-17.463-24.006 4.436-23.785-11.327.058-14.383 19.143-1.29 16.472-21.583 34.745-23.44 8.524-20.165 19.194 8.18z" id="153561"/>
    <path d="M363.576 657.122l-2.283 36.12-18.554 25.099-34.477-1.92-6.42-22.898 24.569-9.977-4.224-35.837-12.175-26.794 13.803-6.119 11.836 26.1 27.925 16.226z" id="152662"/>
    <path d="M134.39 563.043l-2.621 17.986-41.799 14.503-2.696 21.843-33.11 10.102-13.638-2.407-21.189-35.93 15.103-4.892 95.27-35.832 4.68 14.627z" id="154344"/>
    <path d="M523.187 509.199l3.63 17.108-14.414 24.012-.807 20.736-26.768 21.61-38.441 32.24-23.466-24.298 16.658-14.02-9.875-11.777 41.585-26.021-1.195-24.015 15.96-4.131 37.133-11.445z" id="151816"/>
    <path d="M724.07 509.661l-1.703 29.408 15.12 31.894-9.284-13.582-26.72 1.116-17.746-6.317-.62-23.991 8.37-14.133 32.582-4.395z" id="153909"/>
    <path d="M452.98 497.128l33.074 23.515-15.96 4.131 1.195 24.015-41.585 26.02 9.875 11.778-16.658 14.02-20.915-2.207-9.792-12.116 22.1-18.72 22.194-18.578 16.473-51.858z" id="152332"/>
    <path d="M540.306 485l16.53-2.326 7.786 25.04 21.038 3.19-5.21 10.067 23.168 39.774 16.08 10.526.494 28.958-16.039 1.714-22.088-10.919-13.847 3.515-8.5-25.309-19.923 6.455-43.015 31.091-11.952-14.11 26.768-21.61.807-20.737 14.413-24.012-3.629-17.108-5.232-25.125 22.351.927z" id="151790"/>
    <path d="M691.486 514.056l-8.37 14.133.621 23.99 17.747 6.318-34.712 7.264-16.88-18.474-23.005-6.51-23.27 19.968-23.167-39.774 5.21-10.068 39.348-28.435 30.413-10.352 36.065 41.94z" id="153776"/>
    <path d="M447.18 459.633l-18.493 19.706 24.294 17.79-16.473 51.857-22.195 18.578-14.44-28.278 20.879-16.929-4.675-27.656-18.32-14.768 22.716-23.913 26.707 3.613z" id="154996"/>
    <path d="M517.955 484.074l5.232 25.125-37.133 11.444-33.073-23.515-24.294-17.79 18.493-19.705 41.291-13.136 5.915-21.434 9.278.892-2.811 37.976 17.102 20.143z" id="153204"/>
    <path d="M614.994 363.481l5.155 31.906 10.685 14.344 6.309 28.547-30.192 4.312-4.983-17.015-29.826-4.561-11.997-26.142-4.801-44.723 59.65 13.332z" id="152038"/>
    <path d="M444.712 364.983l-8.562 24.647-47.312 23.17-25.527-26.578-4.177-7.493 41.048-34.9 28.693 7.146 15.837 14.008z" id="153865"/>
    <path d="M555.344 350.149l4.801 44.723 11.997 26.142 29.826 4.56 4.984 17.016-26.674-.274-39.583 19.692-.389 22.993-22.35-.927-17.103-20.143 2.81-37.976-9.277-.892 3.218-4.695-25.746-56.323 14.419-9.473 14.223 5.736 39.737-24.418 15.107 14.259z" id="153507"/>
    <path d="M659.142 448.525l-6.385-9.065-1.953-8.644 39.406-6.894-2.428 12.407-28.64 12.196zm35.129-122.264l13.254 20.198 20.384-11.71 21.039-.939 12.586 20.762-7.638 16.355-23.642 3.11 1.933 16.07-20.554 16.002-18.455 2.19-7.801 14.86-22.316-14.116-32.227.688-10.685-14.344-5.155-31.906 3.457-7.697 24.601 9.154 36.504-33.864.601-18.509 14.114 13.696z" id="152172"/>
    <path d="M209.093 318.894l18.332 5.731 10.57 39.204-14.404-13.651-49.49 37.09-23.297-24.789-9.662-30.83 23.655-26.502 31.94 3.728 12.356 10.019z" id="154415"/>
    <path d="M392.29 312.378l7.892 31.45-41.048 34.901-30.88-25.618-1.002-1.303 4.532-15.255 23.388-19.607 34.425-13.738 2.693 9.17z" id="154166"/>
    <path d="M545.19 329.307l-4.953 6.583-39.737 24.418-14.223-5.736-23.005-47.958 47.765-12.38 20.448 9.051 13.706 26.022z" id="153473"/>
    <path d="M463.272 306.614l23.005 47.958-14.419 9.473-27.146.938-15.837-14.008-28.693-7.146-7.892-31.45 36.104-32.332 23.06 24.156 11.817 2.41z" id="154932"/>
    <path d="M238.393 276.657l15.439 15.178-8.002 12.112-36.737 14.947-12.356-10.02-31.94-3.727 6.47-9.967 67.126-18.523z" id="152724"/>
    <path d="M309.017 244.658l-18.624 18.634-36.561 28.543-15.44-15.178 6.365-13.15 23.353-13.079-.507-18.616 15.732-.324 25.683 13.17z" id="155092"/>
    <path d="M428.394 280.047l-36.104 32.331-2.693-9.17-6.356-21.726-19.032-27.26-17.47-5.797 63.957-28.41-.84 36.783 18.538 23.25z" id="153437"/>
    <path d="M636.579 303.081l-3.267-.653 7.576-6.378-4.31 7.031zm122.328-59.364l-30.014 5.913-5.305 9.841-9.315 8.59-24.96-5.617-20.42 26.558.97 14.853-28.598-8.412-8.777-21.224 17.466-14.426 6.51-30.402 16.293-23.434 18.215-4.116 14.311 10.416 23.937-11.333 19.906 12.377-10.09 16.486 19.87 13.93z" id="151905"/>
    <path d="M488.732 210.138l.518 29.637 16.858 36.16 4.93 18.298-47.767 12.38-11.817-2.41-23.06-24.156-18.538-23.249.84-36.782.689-10.805 37.719.772 20.828-12.387 18.8 12.542z" id="154754"/>
    <path d="M339.56 230.847l-30.543 13.811-25.682-13.17-15.732.324-1.058-23.12 18.502-14.811 17.375-5.994 26.399 22.162 10.74 20.798z" id="154978"/>
    <path d="M263.16 144.365l2.634 34.459-19.96-1.64-1.874 25.532-12.438 4.7-17.464-14.193-9.566 12.214-26.338 2.152-19.349-47.599 45.562-7.55 2.902-13.927 55.89 5.852z" id="151996"/>
    <path d="M603.22 114.578l-3.856 8.91-32.877 21.74-1.93 8.523-19.95 15.224-6.678 24.544-31.217-19.82 31.26-33.105 8.686-24.217 28.89-5.534 27.672 3.735z" id="154228"/>
    <path d="M339.051 123.231l15.026 11.993-29.298 17.648-26.068 22.918 3.71 12.097-17.374 5.994-19.253-15.057-2.634-34.459 35.609-34.297 25.867 13.657 14.415-.494z" id="154282"/>
    <path d="M491.767 105.2l30.245 14.792 15.96 20.602-31.26 33.106.501 21.004-18.48 15.434-18.801-12.542-22.218-63.17 24.147-18.735 19.906-10.492z" id="154068"/>
    <path d="M368.655 159.457l-14.578-24.233-15.026-11.993 82.716-50.39 9.33 11.805-15.934 14.347 10.297 14.404-25.818 26.807-30.987 19.253z" id="154665"/>
    <path d="M570.945 60.716l-7.9 36.352 12.502 13.775-28.889 5.534-8.687 24.217-15.96-20.602-30.244-14.793 32.67-25.92 29.103-45.937 17.405 27.374z" id="153696"/>
    <path d="M112.049 708.946l-8.242-4.564 25.313-37.011-12.608-19.972 31.372-10.699 4.802-12.37 16.732 43.118-18.282 5.923-16.612 21.238-22.475 14.337z" id="153151"/>
    <path d="M265.794 178.824l19.253 15.057-18.502 14.81 1.058 23.12.507 18.617-23.353 13.08-6.364 13.149-67.125 18.523-7.564-16.847 4.895-66.032 9.555-4.712 26.338-2.152 9.566-12.214 17.464 14.193 12.438-4.7 1.873-25.532 19.961 1.64z" id="152760"/>
    <path d="M353.796 558.782l13.756 22.763 24.661 4.739 9.793 12.116-21.19 19.282-17.24 39.44-27.925-16.226-11.836-26.1-8.452-18.767-10.968-24.355 24.72-20.03 20.697-1.208 3.984 8.346z" id="152127"/>
    <path d="M397.757 479.933l18.32 14.768 4.675 27.656-20.88 16.929 14.441 28.278-22.1 18.72-24.66-4.739-13.757-22.763 22.24-40.3 4.587-50.948 17.134 12.4z" id="153605"/>
    <path d="M422.92 600.607l23.467 24.298 11.394 13.562-8.523 20.165-34.745 23.44-16.472 21.582-19.143 1.291-17.605-11.702 2.283-36.121 17.24-39.44 21.19-19.282 20.915 2.207z" id="152948"/>
    <path d="M138.937 601.024l-12.473 15.163-21.024 7.453 4.89 14.669-36.568 36.58-6.532-19.765-18.431 4.026 5.365-31.673 33.11-10.102 2.696-21.843 41.799-14.503 7.168 19.995z" id="155154"/>
    <path d="M297.827 448.557l16.6 26.354 35.385 75.525-20.697 1.209-24.72 20.03-17.243-19.17-19.745 1.721-13.393-23.417 27.37-12.024-2.141-29.975-10.886-17.9 29.47-22.353z" id="154790"/>
    <path d="M388.838 412.8l20.008 28.161-30.371 24.671-28.744-12.046-16.286-21.512-44.246-32.008 16.844-7.23 25.531 18.3 31.737-24.914 25.527 26.577z" id="154852"/>
    <path d="M629.773 324.579l2.548 13.784-13.87 17.421-3.457 7.697-59.65-13.332-15.107-14.26 4.954-6.582 19.375-14.675 27.114-10.036 9.177 18.972 28.916 1.01z" id="155127"/>
    <path d="M637.143 438.278l15.614 1.182 6.385 9.065-3.721 23.591-30.413 10.352-39.348 28.435-21.038-3.188-7.786-25.041-16.53 2.327.39-22.993 39.582-19.692 26.673.274 30.192-4.312z" id="153240"/>
    <path d="M568.678 252.614l-25.836 6.014-9.489 16.858-27.245.449-16.858-36.16-.518-29.637 18.481-15.434 15.878-4.125 14.05 47.019 15.34 14.45 16.197.566z" id="154521"/>
    <path d="M579.615 248.637l22.082 41.265 19.71.013 11.905 12.513 3.267.653-6.806 21.498-28.916-1.011-9.177-18.972-27.114 10.036-19.375 14.675-13.706-26.022-20.448-9.052-4.929-18.298 27.245-.45 9.489-16.857 25.836-6.014 10.937-3.977z" id="153026"/>
    <path d="M569.348 164.515l30.61 35.997 6.959 20.161-27.302 27.964-10.937 3.977-16.196-.565-15.341-14.451-14.05-47.019-15.878 4.125-.501-21.004 31.217 19.82 6.679-24.545 19.949-15.224 4.791 10.764z" id="152582"/>
    <path d="M368.655 159.457l12.412 23.847 30.318 25.907-.69 10.805-63.955 28.409-7.18-17.578-10.74-20.798-26.398-22.162-3.711-12.097 26.068-22.918 29.298-17.648 14.578 24.233z" id="152528"/>
    <path d="M471.861 115.69l-24.147 18.737 22.218 63.169-20.828 12.387-37.72-.772-30.317-25.907-12.412-23.847 30.987-19.253 25.818-26.808-10.297-14.403 15.933-14.347-9.33-11.806 16.169-9.014 33.926 51.865z" id="154585"/>
    <path d="M237.994 363.83l-1.118 16.824 17.478 19.714 13.311-1.111-2.152 24.13-12.63 22.647-32.148 27.18-17.004-14.51-2.489-21.114-15.277-5.472-11.864-44.85 49.49-37.09 14.403 13.651z" id="153277"/>
    <path d="M220.735 473.214l-1.17 1.074-32.803 21.755-35.276 13.381-21.092-40.12-33.55 8.103-7.92-14.721 57.058-22.958 39.983-7.61 15.277 5.472 2.489 21.115 17.004 14.51z" id="152467"/>
    <path d="M378.898 704.945l-.058 14.383 23.785 11.327 9.813 25.988 16.694 21.175 5.863 33.651-5.059 21.064-38.194 2.726-7.964-31.49-16.61-15.61-7.33-23.556-15.34-18.237-1.76-28.025 18.555-25.098 17.605 11.702z" id="153124"/>
    <path d="M408.846 440.961l11.627 15.059-22.716 23.913-17.134-12.399-4.587 50.949-22.24 40.299-3.984-8.346-35.385-75.525-16.6-26.354 35.618-16.483 16.286 21.512 28.744 12.046 30.371-24.671z" id="153543"/>
    <path d="M767.525 352.6l-5.99 1.972-12.587-20.762-21.04.94-20.383 11.709-13.254-20.198 22.981-38.783 20.277-9.464-13.941-18.543 5.305-9.841 30.014-5.913L799 263.08l-23.115 44.94-8.36 44.581z" id="153295"/>
    <path d="M723.588 259.471l13.94 18.543-20.276 9.464-22.981 38.783-14.114-13.696-10.295-8.71-.968-14.853 20.419-26.558 24.96 5.617 9.315-8.59z" id="151932"/>
    <path d="M669.862 303.855l10.295 8.71-.6 18.51-36.505 33.863-24.601-9.154 13.87-17.421-2.548-13.784 6.806-21.498 4.309-7.031.377-.607 28.597 8.412z" id="153384"/>
    <path d="M757.632 704.445l-.084 17.045-56.137.779-5.193 10.783-50.93 17.551-11.965-25.912 36.91-5.989 14.133-23.535 50.476-.321 5.753-14.53 17.037 24.129z" id="152564"/>
    <path d="M620.192 600.23l-10.93 7.232 5.91 21.306 29.784-2.294 17.129-9.343 55.773.531 22.112 2.793-5.38 36.93-50.379 1.28.085 13.87-67.751-3.476-17.291-8.664-15.362-28.783 5.5-32.75-7.327-7.838 22.088 10.92 16.038-1.715z" id="154497"/>
    <path d="M701.484 558.497l26.72-1.116 9.284 13.582-19.545 15.527-.085 31.172-55.773-.531-17.13 9.343-29.784 2.294-5.91-21.306 10.93-7.233-.493-28.958-16.08-10.526 23.269-19.968 23.005 6.51 16.88 18.473 34.712-7.263z" id="153339"/>
    <path d="M633.323 724.69l11.965 25.913-18.787 39.45-10.867-.136-14.173-18.086-27.624-5.002 6.44-38.346 29.752-14.008 13.042-13.211 10.252 23.427z" id="152993"/>
    <path d="M568.218 594.539l-16.966 22.502-29.931-7.402-44.345 37.008-19.195-8.18-11.394-13.562 38.44-32.24 11.953 14.111 43.015-31.09 19.922-6.456 8.501 25.309z" id="151834"/>
    <path d="M512.234 702.906l-16.16 35.184-18.98 28.882-17.392 11.88-47.264-22.209-9.813-25.988 24.006-4.436 42.656 17.463 20.939-35.546 8.164-5.696 13.844.466z" id="154914"/>
    <path d="M318.418 344.206l-25.336 2.727-20.945-6.462-1.515-33.504-24.793-3.02 8.003-12.112 36.56-28.543 8.042 27.237 19.405 27.243.579 26.434z" id="152797"/>
    <path d="M339.56 230.847l7.18 17.578 17.469 5.796 19.032 27.26 6.356 21.728-34.425 13.737-23.388 19.607-4.532 15.255-8.834-7.602-.579-26.434-19.405-27.243-8.041-27.237 18.625-18.634 30.543-13.81z" id="153972"/>
    <path d="M245.83 303.947l24.792 3.02 1.515 33.504 20.945 6.462 25.336-2.727 8.834 7.602 1.003 1.303-38.422 22.389-5.368 14.775-16.8 8.982-13.311 1.11-17.478-19.713 1.118-16.825-10.57-39.204-18.331-5.731 36.737-14.947z" id="154013"/>
    <path d="M342.739 718.34l1.759 28.026 15.34 18.237 7.33 23.557 16.61 15.608 7.964 31.491-19.055 8.26-42.312-7.678-35.202-33.21 14.95-5.962 12.068-23.32-14.985-12.576-5.556-28.505-33.237-13.588 20.601-15.621 12.827-9.535 6.42 22.898 34.478 1.918z" id="154139"/>
    <path d="M359.134 378.73l4.177 7.492-31.737 24.914-25.53-18.3-16.845 7.23-4.734-9.791 5.368-14.775 38.422-22.39 30.88 25.62z" id="152868"/>
    <path d="M232.248 515.64l-13.766 12.436-1.767 34.986-15.767 28.22-19.53 21.615-28.732 11.434-13.749-23.307-7.168-19.995 2.621-17.986 22.525-13.103 15.023 2.04 2.79-28.606 19.448-20.159 36.186-4.505 1.886 16.93z" id="152412"/>
    <path d="M758.307 419.764l-6.921-16.103-19.199-13.553-1.933-16.071 23.642-3.11 7.638-16.355 5.991-1.972 15.7 11.58 1.857 30.834-26.775 24.75z" id="152270"/>
    <path d="M633.983 146.623l-30.435 26.246-13.116-11.393-21.084 3.04-4.791-10.764 1.93-8.525 32.878-21.738 34.618 23.134z" id="155136"/>
    <path d="M672.757 205.957l-16.292 23.434-6.511 30.402-17.466 14.426 8.777 21.224-.377.607-7.576 6.378-11.904-12.513-19.712-.013-22.081-41.265 27.302-27.964-6.959-20.161-30.61-35.997 21.084-3.039 13.116 11.393 30.435-26.246 3.508 19.752-6.97 29.158 42.236 10.424z" id="152083"/>
    <path d="M583.892 631.612l15.362 28.783-16.93 16.182-32.33 20.208-14.28-17.087-37.324 22.742-8.164 5.696 3.537-18.184 22.915-8.685 49.238-40.994 17.976-8.661z" id="152252"/>
    <path d="M616.545 669.06l6.526 32.204-13.042 13.211-29.752 14.008-6.44 38.346-20.117 7.157-16.681-17.505 44.515-35.433 12.263-31.14-11.493-13.331 16.93-16.182 17.29 8.664z" id="154380"/>
    <path d="M582.324 676.577l11.493 13.331-12.263 31.14-44.515 35.433-10.444-4.515-10.336-4.583 13.312-35.578-17.337-8.899-13.844-.466 37.324-22.742 14.28 17.087 32.33-20.208z" id="153106"/>
    <path d="M129.71 548.416l-95.27 35.832-11.602-21.1L1 562.55l3.699-23.105 89.653-19.354 35.358 28.324z" id="153623"/>
    <path d="M94.352 520.092L4.699 539.446l4.448-29.418 33.964-14.15 44.17-9.687 7.07 33.901z" id="155083"/>
    <path d="M219.566 474.288l10.796 24.421-36.186 4.506-19.449 20.16-2.79 28.605-15.023-2.04-22.524 13.103-4.68-14.627-35.358-28.324-7.07-33.901 1.642-23.505 7.92 14.721 33.55-8.103 21.091 40.12 35.277-13.38 32.804-21.756z" id="152617"/>
    <path d="M152.686 624.33l-4.802 12.37-31.372 10.7 12.608 19.97-25.313 37.012-20.79-2.881-1.065-3.889-8.19-22.724 36.569-36.58-4.89-14.668 21.023-7.453 12.473-15.163 13.749 23.307z" id="155145"/>
    <path d="M181.419 612.897l32.424 18.015-7.759 14.907 3.464 16.422-21.625 40.597-38.855 17.391-26.27 20.325-16.961-5.795 6.212-25.813 22.475-14.337 16.612-21.238 18.282-5.923-16.732-43.117 28.733-11.434z" id="154184"/>
    <path d="M284.465 390.275l4.734 9.791 44.246 32.008-35.618 16.483-29.47 22.353 10.886 17.9 2.14 29.975-27.369 12.024-21.766-15.17-1.886-16.93-10.796-24.421 1.17-1.074 32.147-27.18 12.63-22.648 2.153-24.129 16.8-8.982z" id="151870"/>
    <path d="M254.014 530.809l13.392 23.417-.302 43.28-42.647 13.189-10.614 20.217-32.424-18.015 19.529-21.614 15.767-28.22 1.767-34.987 13.766-12.436 21.766 15.169z" id="153936"/>
    <path d="M206.084 645.819l34.218 18.335-5.9 10.816-32.616 48.094-30.751 10.31 2.975 17.445-36.751 13.68-5.445 3.932-3.634 2.648-5.381-30.525 26.27-20.325 38.854-17.39 21.625-40.598-3.464-16.422z" id="151763"/>
    <path d="M289.014 703.058l-20.6 15.622 33.236 13.589 5.556 28.504 14.985 12.577-12.067 23.319-14.95 5.961-24.393-2.947 19.578-5.569-2.572-24.33-34.6-15.573-5.391-19.918 15.898-12.426-16.379-22.106 16.611-12.596 25.089 15.894z" id="154736"/>
    <path d="M263.926 687.164l-16.61 12.597-9.873 21.564-25.665 11.73 16.615 15.92 19.403-14.682 5.392 19.918-23.25 1.139.15 32.536 24.993 10.348-19.946 13.504-32.606 9.3-50.98-4.537 5.272-18.302-24.24-14.075-4.401-13.045 3.634-2.648 5.445-3.931 36.751-13.681-2.975-17.445 30.751-10.31 32.617-48.094 19.66-1.308 9.863 13.502z" id="151683"/>
    <path d="M732.187 390.108l19.199 13.553 6.92 16.103-12.39 16.813-18.558 48.742-3.289 24.342-32.583 4.395-36.065-41.94 3.72-23.59 28.64-12.197 2.43-12.407-39.407 6.894 1.953 8.644-15.614-1.182-6.31-28.548 32.228-.687 22.316 14.116 7.801-14.86 18.455-2.19 20.554-16.001z" id="152902"/>
    <path d="M583.892 631.612l-17.976 8.661-49.238 40.994-22.915 8.685-5.56-28.907-11.227-14.398 44.345-37.008 29.93 7.402 16.967-22.502 13.847-3.515 7.327 7.838-5.5 32.75z" id="154834"/>
    <path d="M323.815 614.796l-13.803 6.119 12.175 26.794 4.224 35.837-24.57 9.977-12.827 9.535-25.088-15.894-9.862-13.502 17.186-22.246 28.478-1.698-6.646-29.536 22.28-24.153 8.453 18.767z" id="155109"/>
    <path d="M304.395 571.674l10.968 24.355-22.281 24.153 6.646 29.536-28.478 1.698-17.186 22.245-19.661 1.309 5.9-10.816-34.219-18.335 7.759-14.907 10.614-20.217 42.647-13.19.303-43.279 19.745-1.72 17.243 19.168z" id="153829"/>
    <path d="M603.22 114.578l-27.673-3.735-12.502-13.775 7.9-36.352 39.618-.806 20.031-25.821 20.435 19.694-29.868 47.561-17.941 13.234z" id="153062"/>
    <path d="M630.594 34.089L610.563 59.91l-39.618.806-17.405-27.374L576.597 1l33.88 16.649 20.117 16.44z" id="154308"/>
    <path d="M471.858 364.045l25.746 56.322-3.218 4.696-5.915 21.434-41.291 13.136-26.707-3.613-11.627-15.059-20.008-28.162 47.312-23.17 8.562-24.646 27.146-.938z" id="152350"/>
  </g>
</svg>
