<svg xmlns="http://www.w3.org/2000/svg" version="1.2" baseProfile="tiny" stroke-linecap="round" stroke-linejoin="round" viewBox="0 0 800 1291">
  <g id="VL" fill="none" stroke="#aaa">
    <path d="M437.098 1234.53l-1.338 16.12-17.861 9.803-14.704 29.813-12.736-6.422-19.208-32.93-11.514-7.987-25.694-5.448 1.382-5.168 18.99-23.222 27.18-7.365 13.349-7.89 17.407 25.193 20.423 2.8 4.324 12.704z" id="170612" data-name="Laloșu" class="comuna"/>
    <path d="M394.944 1193.835l-13.35 7.889-27.178 7.365-18.99 23.222-5.657-3.667-7.706-27.2-14.633-12.769 18.264-10.813 40.699-14.697 16.562-9.942 7.727 14.07 4.262 26.542z" id="169583" data-name="Făurești" class="comuna"/>
    <path d="M575.886 1163.056l-8.894-9.31.852-15.03 36.936-11.36 7.083 20.991-.13 18.576-.234 42.522-31.054-6.649-4.56-39.74z" id="174218" data-name="Voicești" class="comuna"/>
    <path d="M384.698 1123.347l-6.964 13.077 5.221 16.799-16.562 9.942-40.699 14.697-18.264 10.813 2.476-18.095-6.495-15.214 5.541-21.826 17.764-8.326 23.939-6.36 7.968-9.421 15.003.372 11.072 13.542z" id="174502" data-name="Diculești" class="comuna"/>
    <path d="M508.897 1110.106l15.854 21.218 24.254 6.49 17.987 15.931 8.894 9.311-18.794-.225-.46 28.478-25.219-.818-31.694-14.056-7.422-8.416-.28-39.763-3.709-11.379 20.59-6.77z" id="173748" data-name="Ștefănești" class="comuna"/>
    <path d="M443.025 1119.116l8.702 28.775 12.028 8.85-15.114 22.075 7.54 17.857 13.061 14.194-10.413 3.487-10.798 16.388-10.933 3.789-4.324-12.705-20.423-2.8-17.407-25.191-4.262-26.542-7.727-14.07-5.221-16.8 6.964-13.076-2.173-6.451 24.816-19.022 12.931 16.81 15.6-6.876 7.153 11.308z" id="173793" data-name="Șușani" class="comuna"/>
    <path d="M472.818 1092.915l12.768 12.357 2.722 11.606 3.71 11.378.28 39.763 7.42 8.416 31.695 14.056 25.218.818-.64 31.655-9.905-4.61-40.868-1.897-11.282 9.275-10.75-12.126-13.944-2.74-13.061-14.193-7.54-17.857 15.114-22.076-12.028-8.85-8.702-28.774 10.658-27.385 19.135 1.184z" id="170952" data-name="Lungești" class="comuna"/>
    <path d="M604.78 1127.356l-36.936 11.36-.852 15.03-17.987-15.932-24.254-6.49-15.854-21.218 24.455-6.122-3.579-11.556 10.014-33.588 7.174 6.064 27.599-4.511 7.622-6.232 8.591 20.77 1.68 39.356 12.327 13.069z" id="167981" data-name="Drăgășani" class="municipiu"/>
    <path d="M531.109 1036.894l8.678 21.946-10.014 33.588 3.579 11.556-24.455 6.122-20.589 6.772-2.722-11.606-12.768-12.357 30.51-25.78 11.408-15.48-.318-12.616 16.69-2.145z" id="173597" data-name="Sutești" class="comuna"/>
    <path d="M303.748 1054.146l7.173 41.307 17.89 3.165-6.428 18.403 4.333 8.193-17.764 8.326-5.541 21.826 6.495 15.214-2.476 18.095 14.633 12.77 7.706 27.2 5.656 3.666-1.382 5.168-3.783-4.492-51.513 11.285-6.317-35.625-8.14-23.717-10.842 4.339-12.782-47.48 14.18-12.538 11.867-18.453-18.886-13.044-3.12-28.649 15.537-6.017 9.987-21.14 21.43-7.97 1.336 12.91 10.75 7.258z" id="168452" data-name="Bălcești" class="oras"/>
    <path d="M466.551 1067.19l-12.868 24.54-10.658 27.386-7.153-11.308-15.6 6.876-12.931-16.81-3.77-16.824-13.253-19.28 2.084-16.14 13.435-13.476 9.163-3.479 13.383 17.053 32.543 9.025 5.625 12.437z" id="171209" data-name="Mădulari" class="comuna"/>
    <path d="M497.916 992.2l16.502 46.839.318 12.616-11.409 15.48-30.509 25.78-19.135-1.184 12.868-24.542 15.714-12.487-1.915-22.442-10.798-22.79 21.341-7.967 7.024-9.304z" id="169306" data-name="Crețeni" class="comuna"/>
    <path d="M270.23 1041.948l-9.986 21.14-15.537 6.017-19.374-12.95-4.33-20.55-17.443-3.302-9.509-19.891 18.86-1.744 28.167-8.46 16.095-15.864 8.43 14.087 4.628 41.517z" id="174511" data-name="Lăcusteni" class="comuna"/>
    <path d="M194.051 1012.412l9.509 19.89 17.444 3.304 4.33 20.55 19.373 12.949 3.12 28.65 18.886 13.043-11.866 18.453-36.74-6.694-31.77-19.82-8.766 5.905-15.19 5.785 1.48-25.262 1.614-25.799-8.183-39.06-.75-32.722 16.188 4.512 18.259-12.277 3.062 28.593z" id="170097" data-name="Ghioroiu" class="comuna"/>
    <path d="M574.257 974.98l-1.75 25.639 2.626 36.142 7.01 17.301.04.099-7.623 6.232-27.6 4.511-7.173-6.064-8.678-21.946-8.326-24.753-5.036-28.313-8.859-12.348 55.189-1.056 10.18 4.556z" id="172457" data-name="Prundeni" class="comuna"/>
    <path d="M428.984 958.272l14.518 24.244 26.05 26.953 10.798 22.79 1.915 22.443-15.714 12.487-5.625-12.436-32.543-9.025L415 1028.675l-9.163 3.479 2.958-8.085 8.977-7.298-3.882-18.005 13.558-6.477-11.593-16.735 1.99-19.892 11.14 2.61z" id="170444" data-name="Gușoeni" class="comuna"/>
    <path d="M417.845 955.662l-1.99 19.892 11.593 16.735-13.558 6.477 3.882 18.005-8.977 7.298-11.432-8.917-25.836 1.734-33.037-10.644-2.212-20.98 11.205-24.04.92-12.342 46.52-.95 18.172-7.52 4.75 15.252z" id="171101" data-name="Măciuca" class="comuna"/>
    <path d="M244.69 897.074l16.881 10.488-14.597 28.16-3.088 24.392 13.287 26.23-16.095 15.865-28.166 8.459-18.86 1.744-3.063-28.593-18.26 12.277-16.187-4.512 1.833-20.54-8.203-22.881 4.908-21.282 8.835-1.18 24.65 6.083 34.016-4.653 5.23-30.317 16.878.26z" id="174290" data-name="Zătreni" class="comuna"/>
    <path d="M570.563 921.49l.932 43.483 2.762 10.007-10.18-4.556-55.189 1.056-13.466-30.27-3.542-21.288 37.52-21.74 2.284-6.167 10.11 11.604-1.615 17.772 30.384.1z" id="171879" data-name="Orlești" class="comuna"/>
    <path d="M301.814 876.686l-8.648 19.508 3.41 21.976-5.474 18.163 10.216 23.758 3.508 20.82-5.263 23.23 3.013 19.704-10.914 10.133-21.431 7.97-4.628-41.517-8.43-14.087-13.287-26.23 3.088-24.392 14.597-28.16-16.882-10.488 2.524-23.42 46.842.054 7.759 2.978z" id="173855" data-name="Tetoiu" class="comuna"/>
    <path d="M405.721 876.134l-.316 33.662 8.388 18.18-.698 12.435-18.172 7.519-46.52.95 6.555-16.67-.343-16.351 6.956-18.975 10.36-8.54 2.33-15.616 31.46 3.406z" id="173132" data-name="Stănești" class="comuna"/>
    <path d="M610.135 881.494l6.767 10.388-9.738 43.688-14.96 16.163-2.51 11.523-18.199 1.717-.932-43.482-1.589-38.496 30.766-15.236 10.395 13.735z" id="169547" data-name="Drăgoești" class="comuna"/>
    <path d="M465.74 864.153l9.984 21.22 6.886 26.64 9.27 7.91 3.542 21.287-15.52-1.977-30.25-2.296-12.854 7.182-7.814 14.153-11.139-2.61-4.75-15.251.698-12.434-8.388-18.18.316-33.663 15.631-4.815 10.13-12.054 7.663 12.175 26.595-7.288z" id="170168" data-name="Glăvile" class="comuna"/>
    <path d="M247.213 873.655l-2.524 23.419-16.877-.26-5.23 30.317-34.018 4.653-24.649-6.084 8.08-21.774-11.482-25.418 3.045-13.746-7.245-18.15 14.554 1.33 60.294-16.067 15.014-8.574-8.504 17.517 7.103 7.909 2.439 24.928z" id="170872" data-name="Livezi" class="comuna"/>
    <path d="M621.43 847.837l7.184 18.195-18.48 15.462-10.394-13.736-30.766 15.237-13.27-10.817-5.898-18.604 5.297-29.81 26.634-8.532 7.292-9.733 16.976 21.195-3.655 18.539 19.08 2.605z" id="171806" data-name="Olanu" class="comuna"/>
    <path d="M483.484 810.025l7.946 37.825 15.697 14.383 3.647 14.14 20.91 15.642-2.284 6.167-37.52 21.74-9.27-7.91-6.886-26.64-9.984-21.22-2.538-52.475-3.021-8.618 9.315-4.365 13.988 11.331z" id="172947" data-name="Scundu" class="comuna"/>
    <path d="M389.46 795.48l1.144 25.558 5.9 13.345 23.175 1.896 13.386 14.875-1.583 8.11-10.13 12.055-15.63 4.815-31.462-3.406-2.328 15.617-34.293-10.671-8.245-18.28-9.901 1.425 2.847-24.163 30.914-15.375 11.496-12.3 24.71-13.5z" id="170685" data-name="Lădești" class="comuna"/>
    <path d="M548.074 787.575l7.029 36.19-5.297 29.81 5.898 18.603 13.27 10.817 1.589 38.496-30.384-.1 1.615-17.772-10.11-11.604-20.91-15.641-3.647-14.141-15.697-14.383-7.946-37.825 28.255 9.233 23.84-34.155 12.495 2.472z" id="170514" data-name="Ionești" class="comuna"/>
    <path d="M439.543 770.97l12.105 13.154 8.533 18.935 3.022 8.618 2.537 52.476-26.595 7.287-7.663-12.175 1.583-8.111-13.386-14.875 5.083-15.382.783-36.132 5.714-17.209 8.284 3.414z" id="172279" data-name="Pesceana" class="comuna"/>
    <path d="M377.91 754.857l.066.113 11.558 25.84-.074 14.67-24.71 13.5-11.496 12.301-30.914 15.375-15.458-8.304-.763-29.419 4.709-17.156-3.278-30.914 44.081-1.136 26.28 5.13z" id="170792" data-name="Lăpușata" class="comuna"/>
    <path d="M252.895 793.892l-6.72 29.41-15.014 8.573-60.294 16.068-14.554-1.33-8.92-7.434-3.741-32.671 7.955-10.209-3.744-20.016 6.811-28.468 6.129 16.75 19.122 26.735 15.814 7.746 57.156-5.154z" id="170346" data-name="Grădiștea" class="comuna"/>
    <path d="M307.55 750.863l3.278 30.913-4.71 17.157.764 29.419 15.458 8.304-2.847 24.163-17.666.507-.013 15.36-7.76-2.978-46.841-.053-2.44-24.928-7.101-7.909 8.503-17.517 6.72-29.41-6.926-32.716-8.373-9.177 14.331-3.042 35.519 1.125 20.104.782z" id="172698" data-name="Roșiile" class="comuna"/>
    <path d="M431.259 767.556l-5.714 17.209-.783 36.132-5.083 15.382-23.175-1.896-5.9-13.345-1.144-25.558.074-14.67-11.558-25.84 13.067 7.896 6.228-10.918 20.404-9.225 13.584 24.833z" id="172581" data-name="Roești" class="comuna"/>
    <path d="M700.978 737.025l11.035 7.69-19.283 24.99-5.401 21.69-19.042 18.604-7.825 22.48-10.034 12.525-28.997 2.833-19.081-2.604 3.655-18.539L589.03 805.5l5.077-30.017 20.459-.741 16.847-12.295 22.755-3.756 13.447-8.631 33.364-13.034z" id="173374" data-name="Stoilești" class="comuna"/>
    <path d="M237.596 751.998l8.373 9.177 6.926 32.717-57.156 5.154-15.814-7.746-19.122-26.735-6.129-16.75-3.467-9.08 23.386 1.114 27.5-8.837 8.18-1.175 27.323 22.16z" id="172992" data-name="Sinești" class="comuna"/>
    <path d="M535.578 785.103l-23.839 34.155-28.255-9.233-13.988-11.33-9.315 4.364-8.533-18.935-12.105-13.154 33.856-37.028 11.88-6.544 7.276-3.303 16.565 19.49 18.74 5.725 7.718 35.793z" id="173686" data-name="Șirineasa" class="comuna"/>
    <path d="M742.971 728.443l6.802 21.386 11.287 9.193-24.696 24.5-2.793 26.527 10.723 3.23-10.3 21.33-4.122 21.76-21.009 19.774-17.979-11.423 6.303-41.96-28.9-12.761 19.042-18.604 5.4-21.69 19.284-24.99-11.035-7.69 28.81-13.921 13.183 5.339z" id="169404" data-name="Dănicei" class="comuna"/>
    <path d="M542.036 702.683l4.268 4.655 32.917 8.969-5.446 22.477-25.7 48.79-12.497-2.471-7.718-35.793-18.74-5.725-16.565-19.49-7.276 3.303-1.855-15.54 20.65 8.761 16.363-13.102 21.599-4.834z" id="168372" data-name="Băbeni" class="oras"/>
    <path d="M632.509 693.91l-2.164 29.375-16.467 11.36 17.534 27.801-16.847 12.295-20.459.741-5.077 30.017-7.292 9.733-26.634 8.533-7.029-36.19 25.701-48.79 5.446-22.478 5.493-27.18 24.56 7.426 23.235-2.643z" id="169994" data-name="Galicea" class="comuna"/>
    <path d="M752.068 681.185l17.036 16.27-14.835 12.642-11.298 18.346-13.183-5.339-28.81 13.921-33.364 13.034-13.447 8.631-22.755 3.756-17.534-27.801 16.467-11.36 2.164-29.375 26.197-8.543 12.913-9.246 22.078-7.475 39.457-2.476 9.202 19.187 9.712-4.172z" id="171628" data-name="Nicolae Bălcescu" class="comuna"/>
    <path d="M483.424 711.857l1.855 15.54-11.88 6.545-33.856 37.028-8.284-3.414-13.584-24.833-22.966-33.703-10.705-9.485-7.754-29.754 28.901.643 14.167-11.015 9.372 4.625 9.944 24.528 29.071 19.428 15.719 3.867z" id="172377" data-name="Popești" class="comuna"/>
    <path d="M275.88 657.39l6.4 11.88-3.679 51.472 8.56 15.614.285 13.725-35.519-1.125-14.33 3.042-27.324-22.16-8.18 1.174 16.488-17.05-3.918-23.415 3.323-37.359 16.852 9.447 29.365-6.129 7.328-5.944 4.35 6.829z" id="168602" data-name="Berbești" class="oras"/>
    <path d="M377.91 754.857l-26.279-5.13-44.08 1.136-20.105-.782-.286-13.725-8.559-15.614 3.679-51.472-6.4-11.88 22.167-2.128 9.614-11.75 28.896 18.974 9.25 25.026 7.456 2.141.127 23.26 7.532 18.855 10.038 6.642 6.95 16.447z" id="169182" data-name="Copăceni" class="comuna"/>
    <path d="M752.068 681.185l-9.712 4.172-9.202-19.187-39.457 2.476-22.078 7.475-7.359-13.388 13.902-4.259 6.635-14.878 14.996 4.002 10.87-14.333 16.541 4.785 19.394-14.737 25.463 7.112 6.993 7.133-1.87 9.388-27.732 28.54 2.616 5.699z" id="171469" data-name="Milcoiu" class="comuna"/>
    <path d="M505.602 625.157l-1.614 6.796 18.31 23.935-7.597 12.5 9.67 21.415 17.665 12.88-21.599 4.834-16.363 13.102-20.65-8.762-15.719-3.867-29.071-19.428-9.944-24.528-9.372-4.625-18.78-23.532 10.917 3.151 22.662-12.793 6.846 11.312 15.005-.147 13.584 9.193 25.208-27.856 10.842 6.42z" id="169896" data-name="Frîncești" class="comuna"/>
    <path d="M696.071 590.923l.55 20.343 14.042 22-10.87 14.332-14.996-4.002-6.635 14.878-13.902 4.259 7.359 13.388-12.913 9.246-26.197 8.543-23.234 2.643-24.561-7.427 8.572-6.394 11.489-15.638 4.71-21.827 12.109-8.616 20.142-23.838 21.308-14.962 33.027-6.928z" id="168791" data-name="Budești" class="comuna"/>
    <path d="M548.124 605.431l17.954 4.41 5.8 25.217-6.672 15.133 12.116 7.389 15.964 25.152-8.572 6.394-5.493 27.18-32.917-8.968-4.268-4.655-17.664-12.88-9.671-21.415 7.596-12.5-18.309-23.935 1.614-6.796 6.26-4.236 13.499-30.817 22.763 15.327z" id="171325" data-name="Mihăești" class="comuna"/>
    <path d="M333.955 586.084l8.117 25.173 12.144 15.402 10.263 1.452-4.354 26.503 16.125 15.167 7.754 29.754 10.705 9.485 22.966 33.703-20.404 9.225-6.228 10.918-13.067-7.896-.066-.113-6.95-16.447-10.038-6.642-7.532-18.856-.127-23.259-7.456-2.14-9.25-25.027-28.896-18.975-14.277-21.108 23.587-17.549-2.517-12.552 19.5-6.218z" id="169039" data-name="Cernișoara" class="comuna"/>
    <path d="M477.749 590.926l17.01 27.811-25.207 27.856-13.584-9.193-15.005.147-6.846-11.312-4.701-26.96-9.709-5.457 11.168-8.706 10.306 4.638 15.759-8.07 20.809 9.246z" id="171995" data-name="Păușești" class="comuna"/>
    <path d="M525.36 590.104l-13.498 30.817-6.26 4.236-10.842-6.42-17.011-27.811 1.125-1.745 8.853-11.865 15.399 4.977 10.142-9.324 12.093 17.135z" id="167641" data-name="Băile Govora" class="oras"/>
    <path d="M244.237 587.018l3.268 22.815 12.69 11.139 11.336 29.59-7.328 5.944-29.365 6.129-16.852-9.447-6.644-25.39-8.594-10.604.892-15.703-2.668-35.76 12.943 4.573 25.329-4.85 4.993 21.564z" id="171067" data-name="Mateești" class="comuna"/>
    <path d="M297.513 560.04l14.948-.212 7.389 15.882-5.396 16.592 2.517 12.552-23.587 17.55 14.277 21.107-9.614 11.75-22.166 2.13-4.35-6.829-11.337-29.59-12.69-11.14-3.267-22.814 18.728-4.672 22.534-22.314 12.014.007z" id="173533" data-name="Stroești" class="comuna"/>
    <path d="M456.501 557.066l6.814 18.96 15.56 13.156-1.126 1.744-20.81-9.246-15.758 8.07-10.306-4.638-11.168 8.706-5.69-1.194-10.18-28.167 2.722-19.88 19.66-2.669 30.282 15.158z" id="172340" data-name="Pietrari" class="comuna"/>
    <path d="M363.708 533.03l1.708 15.257 11.076 18.312-1.209 12.933-26.404 7.054-14.924-.502-19.5 6.219 5.395-16.593-7.389-15.882-14.948.211 6.257-18.496-7.41-7.66 12.737-6.527 18.92 6.782 35.69-1.108z" id="171272" data-name="Măldărești" class="comuna"/>
    <path d="M367.753 502.485l17.976 11.327-2.57 24.875 24.211 1.897-.811 3.993-2.722 19.88 10.18 28.167 5.69 1.194 9.709 5.457 4.7 26.96-22.661 12.793-10.916-3.15-10.76-16.135-14.496-40.21 1.209-12.934-11.076-18.312-1.708-15.257-6.343-14.614 10.388-15.931z" id="173935" data-name="Tomșani" class="comuna"/>
    <path d="M296.36 533.882l7.41 7.661-6.257 18.496-12.014-.007-22.534 22.314-18.728 4.672-4.993-21.564-25.329 4.85-12.943-4.573-10.174-24.102 36.607-29.144-1.181-15.751 9.552-3.606 32.424 30.85 14.26-1.419 13.9 11.323z" id="173061" data-name="Slătioara" class="comuna"/>
    <path d="M761.156 500.516l17.81 36.384-6.159 31-16.436-2.837 11.848 30.074-12.794 9.858-8.827 18.318-19.394 14.737-16.541-4.785-14.041-22-.55-20.342 14.509-2.545 10.547-37.622-9.566-15.947-1.309-8.172 11.156-8.014 15.64-26.005 24.107 7.898z" id="170220" data-name="Golești" class="comuna"/>
    <path d="M583.456 513.433l-10.61 39.516-22.287 11.584-24.363-13.786-7.26-23.588-.096-20.84 22.684-15.242 32.657 10.188 9.275 12.168z" id="172082" data-name="Păusești-Măglași" class="comuna"/>
    <path d="M675.32 538.995l-15.35 7.9-8.24-15.61-31.526-2.102 2.897-10.665-22.36-10.887 16.325-30.227 21.84-1.654-11.644-23.666 27.579-5.043 9.848 16.83-2.665 18.066-11.638 6.515 24.934 50.543z" id="168880" data-name="Bujoreni" class="comuna"/>
    <path d="M695.828 425.167l14.67 3.728-7.23 44.302-19.59 18.779 26.575 34.66 1.31 8.173-36.243 4.186-24.934-50.543 11.638-6.515 2.665-18.067-9.848-16.83 23.349-16.732 17.638-5.141z" id="169351" data-name="Dăești" class="comuna"/>
    <path d="M735.79 422.721l4.787 23.304 19.768 4.766-7.64 13.976 21.386 8.457 7.13 10.766-20.065 16.526-24.107-7.898-15.64 26.005-11.156 8.014-26.575-34.661 19.59-18.78 7.23-44.3 18.334-16.047 6.957 9.872z" id="172812" data-name="Runcu" class="comuna"/>
    <path d="M460.935 460.41l-9.427 33.962.92 25.957 8.08 4.397 2.625 23.412-6.632 8.928-30.282-15.158-19.66 2.67.811-3.994 10.346-15.434 3.757-50.136 7.995-18.683-16.403-12.398-6.353-14.226 19.356-22.231 14.52 16.245 2.893 12.648 13.219 6.752 4.235 17.289z" id="168559" data-name="Bărbătești" class="comuna"/>
    <path d="M627.262 452.084l11.644 23.666-21.84 1.654-16.324 30.227-7.82-2.096-10.499-30.607-13.532-10.827-6.485-26.596-16.078-20.39-9.299-24.502-13.925-11.883.18-13.538 31.296 8.186 11.664 15.019 3.313 16.874 21.02 21.755 6.007 13.968 17.913 9.348 12.765-.257z" id="171539" data-name="Muereasca" class="comuna"/>
    <path d="M327.478 324.546l15.803 32.669 1.94 25.268 15.434 54.572-2.003 7.446 9.737 33.063-.636 24.92-10.388 15.932 6.343 14.614-35.691 1.108-18.92-6.782-7.19-5.594 14.268-16.136-8.659-9.911-26.508-47.268 2.457-15.02-5.619-20.364 11.15-9.04 2.674-54.783-4.774-32.5 40.582 7.806z" id="168041" data-name="Horezu" class="oras"/>
    <path d="M628.058 315.932l-8.467 6.516 13.912 21.085.803 27.56 11.119 14.565 16.853 8.983-3.853 21.265 21.357 5.252-1.592 9.15-23.35 16.733-27.578 5.043-12.765.258-17.913-9.348-6.006-13.968-21.02-21.755-3.314-16.874-11.664-15.02-31.295-8.185-10.063-17.674 8.17-18.475 15.9 3.928 10.4-6.134 24.075 8.48 11.708-16.227 12.342 3.822 12.415-7.841 19.826-1.14z" id="167909" data-name="Călimănești" class="oras"/>
    <path d="M756.817 314.683l-1.326 19.434-7.151 5.425 8.666 29.165-10.256 11.122 3.342 11.48-8.001 24.141-6.302 7.271-6.957-9.872-18.333 16.046-14.67-3.728-9.567-18.278 6.516-26.864-8.006-27.555-23.727-25.027-4.07-15.667 25.001 6.943 25.383-8.766 5.558 4.18 34.598 5.113 9.302-4.563z" id="168675" data-name="Berislăvești" class="comuna"/>
    <path d="M286.896 316.74l4.774 32.5-2.674 54.784-11.15 9.04 5.619 20.362-2.457 15.02 26.508 47.269 8.66 9.91-14.269 16.137 7.19 5.594-12.738 6.526-13.9-11.323-14.259 1.42-32.424-30.851-9.552 3.606-12.9-36.11-11.846-8.735-9.95-24.603-11.423-44.96 32.393-56.13 8.239-6.781 27.505 2.034 17.285-9.569 21.369 4.86z" id="174021" data-name="Vaideeni" class="comuna"/>
    <path d="M656.976 311.776l4.069 15.667 23.727 25.027 8.006 27.555-6.516 26.864 9.566 18.278-17.638 5.14 1.592-9.149-21.357-5.252 3.853-21.265-16.853-8.983-11.119-14.565-.803-27.56-13.912-21.085 8.467-6.516 20.23-8.79 8.688 4.634z" id="172894" data-name="Sălătrucel" class="comuna"/>
    <path d="M725.234 171.56l-4.597 14.499 8.673 11.391-7.356 19.199-10.752 7.69-19.887-1.526-16.088 10.573-17.24 3.162-11.879-5.83-3.178-23.193 17.31-13.704 32.652-6.693 32.342-15.568z" id="174496" data-name="Titești" class="comuna"/>
    <path d="M623.167 174.687l17.656 14.194 2.107 18.644 3.178 23.192 11.88 5.831-9.657 9.816-9.618 25.236 2.251 10.174-10.287 13.72-12.299-7.775-8.387-25.592-16.59-10.566-10.889-29.483-9.377-5.733-29.276-39.81 20.617-4.318 10.088 4.347 48.603-1.877z" id="172509" data-name="Racovița" class="comuna"/>
    <path d="M725.234 171.56l-32.342 15.568-32.653 6.693-17.31 13.704-2.106-18.644-17.656-14.194 11.849-23.286 21.48-15.76 5.38-30.735 22.55 6.83 12.19-1.213 17.718-31.941 26.824-24.406 14.882-28.3 5.783 16.343-3.482 28.93-18.965 17.205-3.375 24.599-8.755 21.729-14.72 6.307 12.508 17.679.2 12.892z" id="168755" data-name="Boișoara" class="comuna"/>
    <path d="M756.817 314.683l-9.302 4.563-34.598-5.113-5.558-4.18-25.383 8.766-25-6.943-8.688-4.635-2.807-10.805-14.804-.842 10.287-13.72-2.251-10.174 9.618-25.236 9.656-9.816 17.24-3.162 16.088-10.573 19.887 1.525 10.752-7.69 7.356-19.198-8.673-11.391 4.597-14.499-.2-12.892-12.507-17.68 14.72-6.306 8.754-21.73 3.375-24.598 18.965-17.206 3.481-28.929-5.782-16.343-2.826-4.125 17.55-13.93 14.231 5.656L799 66.327 778.878 81.64l-2.137 13.825 10.933 15.108-2.005 26.826-11.446 13.491-21.075.898-5.604 29.09 10.005 46.056 9.096 11.207-6.96 13.988 5.017 16.504-22.945 6.262.353 32.551 14.707 7.236z" id="172153" data-name="Perișani" class="comuna"/>
    <path d="M518.84 506.32l.096 20.839-20.016 7.404-9.956 24.918-1.237 17.835-8.853 11.865-15.56-13.154-6.813-18.961 6.632-8.928-2.625-23.412-8.08-4.397-.92-25.956 9.427-33.963 12.29 7.161 29.823 8.532 15.792 30.216z" id="173230" data-name="Stoenești" class="comuna"/>
    <path d="M518.936 527.159l7.26 23.588 24.363 13.786 1.737 25.856-4.172 15.042-22.763-15.327-12.093-17.135-10.142 9.324-15.4-4.977 1.238-17.835 9.957-24.918 20.015-7.404z" id="168960" data-name="Bunești" class="comuna"/>
    <path d="M753.214 21.751l2.826 4.125-14.882 28.3-26.824 24.406-17.718 31.94-12.19 1.214-22.55-6.83-5.38 30.735-21.48 15.76-11.849 23.286-48.603 1.877-10.088-4.347-20.617 4.319-20.025-12.852-17.428-22.546-15.238-1.272-19.763-11.676-20.5-33.299 14.362-7.183 29.61 1.084 6.336-7.358 20.117-2.945 20.283-27.834 23.936 5.011 7.325-14.71 34.862-12.472 13.311-11.342 27.902.355 24.015-8.675 38.456 1.912L721.574 1l9.745 10.19 13.864-.556 8.031 11.117z" id="169119" data-name="Cîineni" class="comuna"/>
    <path d="M410.328 87.066l11.95 30.603 19.76 16.344 1.442 34.016 6.105 10.654.509 42.147 23.78 35.55 4.653 27.446-4.538 31.756-24.272 16.22-15.932-13.407-16.154.05-37.252 13.088-7.737-6.378-16.31 5.15-28.854-5.759-40.582-7.806-21.37-4.86-17.284 9.569-27.505-2.034-1.829-19.985-10.845-3.447-25.819-22.527-18.512 7.26L151 292.766l-27.337 10.682-15.804-8.017-18.298 6.659-13.404-15.752-19.834-10.456 8.562-49.12 31.634-2.372 24.939 15.264 25.925-16.696 20.861-5.293 9.045-8.559 27.282-2.044 29.69-12.817 11.516 5.494 26.63-2.912 26.217 9.155 17.882 21.275 42.073 11.25 9.089-9.132 25.774-8.19-4.75-11.737 3.318-15.907-8.372-7.097-5.664-25.52 10.906-10.876-4.135-15.82 18.16-24.922.893-25.031 6.53 2.79z" id="171021" data-name="Malaia" class="comuna"/>
    <path d="M403.798 84.276l-.893 25.03-18.16 24.923 4.135 15.82-10.906 10.876 5.664 25.52 8.373 7.097-3.318 15.907 4.75 11.737-25.775 8.19-9.09 9.131-42.072-11.25-17.882-21.274-26.216-9.155-26.63 2.912-11.516-5.494-29.69 12.817-27.283 2.044-9.044 8.56-20.862 5.292-25.925 16.696-24.94-15.264-31.633 2.373-8.562 49.119-13.271 17.212-22.794-9.126-6.994-8.893-1.731-3.604-4.084-19.16 12.598-8.712-7.072-28.413.84-24.127L1 187.491l17.04-35.05 1.458-22.215 26.541 17.894 40.718-6.586 21.018-37.18 14.752-6.36 41.267-9.106 16.575-20.156 31.111-3.169 24.27-4.169 7.592 11.118 30.887-3.348 14.696-8.155 36.429 7.111 12.112-2.689 16.247 7.388 8.718-6.094 25.56 11.742 15.807 5.809z" id="174254" data-name="Voineasa" class="comuna"/>
    <path d="M495.422 941.21l13.466 30.27 8.859 12.348 5.036 28.313 8.326 24.753-16.691 2.145-16.502-46.84.896-11.976-17.92-20.161-.99-20.829 15.52 1.977z" id="174520" data-name="Mitrofani" class="comuna"/>
    <path d="M479.902 939.233l.99 20.829 17.92 20.16-.896 11.977-7.022 9.304-21.341 7.966-26.051-26.953-14.518-24.244 7.814-14.153 12.855-7.182 30.249 2.296z" id="168309" data-name="Amărăști" class="comuna"/>
    <path d="M217.986 653.188l-3.323 37.36 3.918 23.413-16.488 17.051-27.5 8.837-23.386-1.114-1.92-8.612-5.473-48.513 11.873-4.094 20.436-21.238-10.877-42.08 38.394-12.707-.892 15.703 8.594 10.605 6.644 25.39z" id="168229" data-name="Alunu" class="comuna"/>
    <path d="M380.379 331.533l19.093 25.194 12.76 5.27 5.474 13.346 18.925 20.779-10.563 11.354-19.356 22.23 6.353 14.227 16.403 12.398-7.995 18.683-3.757 50.136-10.346 15.434-24.212-1.897 2.571-24.875-17.976-11.327.636-24.921-9.738-33.063 2.004-7.446-15.434-54.572-1.94-25.268-15.803-32.669 28.855 5.759 16.309-5.15 7.737 6.378z" id="169253" data-name="Costești" class="comuna"/>
    <path d="M375.283 579.533l14.495 40.21 10.76 16.134 18.78 23.532-14.167 11.015-28.9-.643-16.126-15.167 4.354-26.503-10.263-1.452-12.144-15.402-8.117-25.173 14.924.503 26.404-7.054z" id="171931" data-name="Oteșani" class="comuna"/>
    <path d="M600.742 507.631l22.359 10.887-2.897 10.665-1.806 23.774-13.407 14.851-27.428-2.724-4.718-12.135 10.61-39.515 9.467-7.899 7.82 2.096z" id="174156" data-name="Vlădești" class="comuna"/>
    <path d="M604.99 567.808l12.316 16.492-7.745 24.998-10.958-3.353-19.002 7.242-13.523-3.346-17.954-4.41 4.172-15.043-1.737-25.855 22.286-11.584 4.718 12.135 27.428 2.724z" id="168130" data-name="Ocnele Mari" class="oras"/>
    <path d="M675.32 538.995l36.242-4.186 9.566 15.947-10.547 37.622-14.51 2.545-33.027 6.928-21.308 14.962-20.142 23.838-12.109 8.616-4.71 21.827-11.489 15.638-15.964-25.152-12.116-7.39 6.673-15.132-5.8-25.217 13.522 3.346 19.002-7.242 10.959 3.353 7.744-24.998-12.315-16.492 13.407-14.851 1.806-23.774 31.525 2.103 8.24 15.61 15.351-7.901z" id="167473" data-name="Râmnicu Vâlcea" class="municipiu resedinta"/>
    <path d="M450.905 94.891l20.5 33.3 19.763 11.675 15.238 1.272 17.428 22.546 20.025 12.852 29.276 39.809 9.377 5.733 10.889 29.483 16.59 10.566 8.387 25.592 12.3 7.775 14.803.842 2.807 10.805-20.23 8.79-19.826 1.14-12.414 7.84-12.343-3.82-11.708 16.225-24.075-8.479-10.4 6.134-15.9-3.928-8.17 18.475-21.06-6.609-3.118-13.41-15.055-13.917 4.538-31.756-4.653-27.446-23.78-35.55-.51-42.148-6.104-10.653-1.443-34.016-19.759-16.344-11.95-30.603 12.35 3.184 28.227 4.641z" id="167794" data-name="Brezoi" class="oras"/>
    <path d="M513.222 349.518l10.063 17.674-.18 13.538 13.924 11.883 9.299 24.502 16.078 20.39 6.485 26.596 13.532 10.827 10.499 30.607-9.466 7.898-9.275-12.168-32.657-10.188-22.684 15.242-15.792-30.216-29.822-8.532-12.291-7.161-4.236-17.29-13.218-6.75-2.892-12.649-14.52-16.245 10.562-11.354-18.925-20.78-5.474-13.345-12.76-5.27-19.093-25.194 37.252-13.088 16.154-.05 15.932 13.408 24.272-16.221 15.055 13.916 3.118 13.411 21.06 6.61z" id="167696" data-name="Băile Olănești" class="oras"/>
    <path d="M408.795 1024.07l-2.958 8.084-13.435 13.476-2.084 16.14 13.254 19.28 3.769 16.824-24.816 19.022 2.173 6.451-11.072-13.542-15.003-.372-7.968 9.421-23.939 6.36-4.333-8.193 6.428-18.403-17.89-3.165-7.173-41.307 26.424-12.26 8.318-35.644 33.037 10.644 25.836-1.734 11.432 8.917z" id="174085" data-name="Valea Mare" class="comuna"/>
    <path d="M371.932 888.345l-10.361 8.539-6.956 18.975.343 16.35-6.555 16.671-.92 12.342-11.205 24.04 2.212 20.98-8.318 35.643-26.425 12.261-10.75-7.258-1.335-12.91 10.914-10.133-3.013-19.704 5.263-23.23-3.508-20.82-10.216-23.758 5.474-18.163-3.41-21.976 8.648-19.508.013-15.36 17.666-.507 9.901-1.425 8.245 18.28 34.293 10.67z" id="169681" data-name="Fîrtățești" class="comuna"/>
  </g>
</svg>
