<svg xmlns="http://www.w3.org/2000/svg" version="1.2" baseProfile="tiny" stroke-linecap="round" stroke-linejoin="round" viewBox="0 0 800 1291">
  <g id="VL" fill="none" stroke="#aaa">
    <path d="M437.098 1234.53l-1.292 16.011-6.773-.536-11.134 10.448-12.044 21.303-2.742 8.528-6.497-6.373-6.157-.067-9.17-17.312-11.085 6.682-1.55-5.617 6.257-7.038-3.66-9.645-11.514-7.987-12.279-1.519-7.376-4.756-6.04.827 1.384-5.168 13.139-14.073 5.85-9.149 27.18-7.365 13.349-7.89 3.858 9.383 13.549 15.81 9.315-3.975 3.397 7.066 7.711-.292 4.324 12.705z" id="170612"/>
    <path d="M394.944 1193.835l-13.35 7.889-27.178 7.365-5.851 9.15-13.14 14.072-5.656-3.667-3.166-17.665-4.54-9.535-12.256-5.185-2.377-7.584 18.264-10.813 8.807-2.05 31.892-12.647 16.562-9.942 7.727 14.07-.134 20.889 4.396 5.653z" id="169583"/>
    <path d="M575.886 1163.056l-8.894-9.31.852-15.03 10.348 3.204 2.574-6.883 24.014-7.681 7.083 20.991-.364 61.098-10.442-.33-20.612-6.319-3.565-5.448 3.574-18.15-4.568-16.142z" id="174218"/>
    <path d="M384.698 1123.347l-6.964 13.077 5.221 16.799-16.562 9.942-31.892 12.646-8.807 2.05-18.264 10.814-1.1-5.877 3.576-12.218-6.495-15.214 6.513-15.05-.972-6.776 9.12-8.13 8.644-.196 23.939-6.36 7.968-9.421 15.003.372 11.072 13.542z" id="174502"/>
    <path d="M508.897 1110.106l2.85 10.656 13.004 10.563 24.254 6.489 7.973-.736.994 12.502 9.02 4.165 8.894 9.311-14.622-2.148-4.172 1.923-.46 28.478-9.582.175-8.712-4.386-6.925 3.393-9.085-2.757-4.306-5.723-18.303-5.576-7.422-8.416-1.932-7.536 2.257-10.067-2.042-8.811 1.438-13.349-3.71-11.379 7.819-6.361 12.77-.41z" id="173748"/>
    <path d="M443.025 1119.116l-2.358 2.822 11.06 25.953 12.028 8.85 5.412 13.452-14.13.416-6.396 8.207 4.728 6.793 2.812 11.064 13.061 14.194-10.413 3.487-10.798 16.388-10.933 3.789-4.324-12.705-7.71.292-3.398-7.066-9.315 3.975-13.548-15.81-3.859-9.382-4.396-5.653.134-20.889-7.727-14.07-5.221-16.8 6.964-13.076-2.173-6.451 11.89-6.679 7.224-11.01 5.702-1.333 12.931 16.81 15.6-6.876 7.153 11.308z" id="173793"/>
    <path d="M472.818 1092.915l-.191 8.098 7.673-1.188 5.286 5.447 2.722 11.606 3.71 11.378-1.438 13.349 2.042 8.811-2.257 10.067 1.932 7.536 7.422 8.416 18.303 5.576 4.306 5.723 9.085 2.757 6.925-3.393 8.712 4.386 9.581-.175-.218 11.763-3.138 4.004 2.715 15.888-9.904-4.61-18.66-1.766-22.208-.131-11.282 9.275-10.75-12.126-8.309 4.465-5.635-7.204-13.061-14.194-2.812-11.063-4.728-6.794 6.397-8.207 14.13-.416-5.413-13.453-12.028-8.85-11.06-25.952 2.358-2.822 9.918-3.611-6.036-6.815 1.894-14.903 4.882-2.056 3.695 2.866 15.44-1.682z" id="170952"/>
    <path d="M604.78 1127.356l-24.014 7.681-2.574 6.883-10.348-3.205-.852 15.03-9.02-4.165-.994-12.502-7.973.736-24.254-6.49-13.004-10.562-2.85-10.656 11.043.55 13.412-6.672-3.579-11.556 6.217-5.005-2.727-6.192 4.564-5.099-3.264-13.54 5.224-3.752 7.174 6.064 27.599-4.511 7.622-6.232 8.591 20.77 2.22 15.592-.54 23.764 4.636 8.639 7.69 4.43z" id="167981"/>
    <path d="M531.109 1036.894l5.717 6.724 2.961 15.222-5.224 3.753 3.264 13.539-4.564 5.099 2.727 6.192-6.217 5.005 3.579 11.556-13.412 6.673-11.043-.55-12.77.409-7.819 6.361-2.722-11.605-5.286-5.447-7.673 1.188.191-8.098 5.227-9.714 5.758-1.885 19.524-14.181 11.409-15.48-.318-12.616 16.69-2.145z" id="173597"/>
    <path d="M303.748 1054.146l2.997 19.557 4.276 8.498-.1 13.252 17.89 3.165-6.428 18.403 4.333 8.193-8.644.197-9.12 8.13.972 6.776-6.513 15.049 6.495 15.214-3.575 12.218 1.1 5.877 2.376 7.584 12.256 5.185 4.54 9.535 3.166 17.665 5.656 3.667-1.382 5.168-3.783-4.492-18.935 6.103-15.043 1.748-8.48-3.77-9.055 7.204-3.953-16.247-2.364-19.379-8.14-23.716-10.842 4.339-6.714-17.58 1.049-6.669-5.088-5.28 1.263-6.454-3.292-11.496 14.18-12.539 11.867-18.453 16.086-7.167 1.257-11.572-17.09 9.67-11.912 1.733-7.227-5.708-3.12-28.649 17.807.854-2.27-6.871 6.231-3.577-2.614-6.776 6.37-10.787 21.43-7.97 1.336 12.91 10.75 7.258z" id="168452"/>
    <path d="M466.551 1067.19l-4.975.526-6.59 13.433-1.303 10.582-4.882 2.056-1.894 14.903 6.036 6.814-9.918 3.612-7.153-11.308-15.6 6.876-12.931-16.81-3.77-16.824-13.253-19.28-1.924-9.804 4.008-6.336 12.631-8.058.804-5.418 9.163-3.479 5.67 10.317 7.713 6.736 32.543 9.025 5.625 12.437z" id="171209"/>
    <path d="M497.916 992.2l5.001 8.413.458 10.222 6.034 12.876-.572 5.376 5.58 9.952.319 12.616-11.409 15.48-19.524 14.181-5.758 1.885-5.227 9.714-15.44 1.682-3.695-2.866 1.303-10.582 6.59-13.433 4.975-.526 15.714-12.488-1.915-22.442-10.798-22.79 21.341-7.967 7.024-9.304z" id="169306"/>
    <path d="M270.23 1041.948l-6.369 10.787 2.614 6.776-6.231 3.577 2.27 6.87-17.807-.853-7.634-.453-11.74-12.497-4.33-20.55-17.443-3.302-9.509-19.891 18.86-1.744 14.106-8.115 14.06-.344 4.441-8 11.655-7.865 8.43 14.087-6.647 6.197 7.63 9.34-5.62 7.859 8.512 7.882.753 10.24z" id="174511"/>
    <path d="M194.051 1012.412l9.509 19.89 17.444 3.304 4.33 20.55 11.739 12.496 7.634.453 3.12 28.65 7.227 5.707 11.911-1.732 17.091-9.671-1.257 11.572-16.086 7.167-11.866 18.453-18.54-5.628-14.917 6.692-3.283-7.758-15.613-9.349-6.454 3.274-9.704-13.745-16.112 9.67-9.044-3.66 2.639-13.128-1.935-11.329 3.565-7.366.026-13.558-4.583-.36-3.793-8.952 3.946-4.292-.108-12.156-4.683-15.16-1.742-19.363 2.03-11.5 9.218 5.22 6.97-.707 5.293-7.451 12.966-4.826 3.55 17.81-.488 10.783z" id="170097"/>
    <path d="M574.257 974.98l3.67 12.481-5.389 10.433-.146 14.106 2.741 24.761 7.05 17.4-7.623 6.232-27.6 4.511-7.173-6.064-2.96-15.222-5.718-6.724 1.273-7.04-4.105-11.49-5.494-6.223-5.036-28.313-6.697.467-2.162-12.815 8.496-1.46 46.693.404 10.18 4.556z" id="172457"/>
    <path d="M428.984 958.272l3.96 9.263 10.558 14.98 18.104 20.756 7.947 6.198 10.797 22.79 1.915 22.443-15.714 12.487-5.625-12.436-32.543-9.025-7.713-6.736-5.67-10.317-9.163 3.479 2.958-8.085 7.77-1.892 1.207-5.406-6.544-8.577 2.662-9.428 13.558-6.477-11.593-16.735-1.534-16.405 3.524-3.487 2.544 5.072 8.595-2.462z" id="170444"/>
    <path d="M417.845 955.662l-3.524 3.487 1.534 16.405 11.593 16.735-13.558 6.477-2.662 9.428 6.544 8.577-1.208 5.406-7.769 1.892-11.432-8.917-7.54 2.525-18.296-.791-13.358-7.172-7.85 3.218-11.829-6.69-2.36-6.559.148-14.421 7.019-6.06-1.978-5.574 6.164-12.406-3.572-6.77 4.493-5.572 16.861 1.891 29.658-2.841 18.172-7.52-.512 7.677 5.262 7.575z" id="171101"/>
    <path d="M244.69 897.074l16.881 10.488-5.419 7.546-.73 7.37-8.448 13.244 2.32 11.248-1.001 9.726-4.407 3.418 13.287 26.23-11.655 7.864-4.44 8-14.061.346-14.105 8.114-18.86 1.744.488-10.782-3.551-17.811-12.966 4.826-5.293 7.451-6.97.706-9.218-5.218 1.994-8.898-3.721-4.719 3.56-6.923-5.804-8.555-2.399-14.326 1.76-14.42 3.148-6.862 8.835-1.18 12.749-1.564 11.9 7.647 10.28.579 23.737-5.232 5.401-22.154-.17-8.163 16.877.26z" id="174290"/>
    <path d="M570.563 921.49l.932 43.483 2.762 10.007-10.18-4.556-46.693-.403-8.496 1.459-3.962-10.058 2.51-9.465-5.822-.795-6.192-9.952 1.474-12.052-5.016-9.236 13.973-9.938 23.547-11.802 2.284-6.167 10.11 11.604-1.615 17.772 7.543 1.138 22.84-1.038z" id="171879"/>
    <path d="M301.814 876.686l-3.349 9.95-7.857 2.929 2.558 6.629.048 16.441 3.362 5.535-3.66 6.58-1.814 11.583 10.216 23.758-4.133 9.245 7.64 11.574-.934 12.573-4.328 10.658.134 11.66 2.879 8.044-7.464 4.022-3.45 6.11-21.431 7.971-.753-10.239-8.511-7.882 5.618-7.86-7.629-9.339 6.647-6.197-8.43-14.087-13.287-26.23 4.407-3.418 1.001-9.726-2.32-11.248 8.448-13.243.73-7.371 5.42-7.546-16.883-10.488 2.524-23.42 8.468 1.77 20.325-2.037 18.049.321 7.759 2.978z" id="173855"/>
    <path d="M405.721 876.134l2.094 19.218-2.41 14.444 8.388 18.18 6.934 7.067-7.632 5.368-18.172 7.519-29.658 2.841-16.861-1.89 6.554-16.672-.343-16.35 7.69-.453 2.549-7.825-3.283-10.697 8.299-1.067 2.062-7.472 2.328-15.617 29.519-.498 1.942 3.904z" id="173132"/>
    <path d="M610.135 881.494l6.767 10.388-.371 6.457-5.48 12.84.165 9.228-3.64 11.813 4.715 8.648-12.98 9.786-7.106 1.08-2.51 11.522-18.2 1.717-.932-43.482-1.589-38.496 14.811-.86 1.147-4.188 14.808-10.188 10.395 13.735z" id="169547"/>
    <path d="M465.74 864.153l5.564 8.095 11.306 39.764 9.27 7.91 5.017 9.236-1.475 12.052-15.52-1.977-20.195-2.332-2.747-12.811-7.307 12.847-12.855 7.182-.111 4.654-7.703 9.499-8.595 2.462-2.544-5.072-5.262-7.575.512-7.676 7.632-5.368-6.934-7.067-8.388-18.18 2.41-14.444-2.094-19.218 15.631-4.815-1.203-7.178 11.333-4.876 7.663 12.175 11.953-6.91 5.851 5.212 8.791-5.59z" id="170168"/>
    <path d="M247.213 873.655l-2.524 23.419-16.877-.26.17 8.163-5.4 22.154-23.738 5.232-10.28-.579-11.9-7.647-12.749 1.563.838-10.185 7.241-11.59-4.476-13.922-7.005-11.495 3.045-13.746-7.245-18.15 14.554 1.33 7.92-7.642 14.005 1.176 38.37-9.6 15.013-8.575-.413 8.847-8.09 8.67 7.102 7.909 2.439 24.928z" id="170872"/>
    <path d="M621.43 847.837l-.443 4.89 7.627 13.305-18.48 15.462-10.394-13.736-14.808 10.19-1.147 4.186-14.811.86-13.27-10.816-5.714-11.111-.09-8.11 3.91-10.469 1.293-18.723 26.634-8.533 7.292-9.733 10.52 6.757 6.456 14.438-7.284 6.633 3.629 11.906 13.361-2.537 5.72 5.141z" id="171806"/>
    <path d="M483.484 810.025l4.76 14.145-1.477 10.537 4.663 13.143 6.086 7.894 9.611 6.489 3.647 14.14 9.574 11.493 11.336 4.149-2.284 6.167-23.547 11.802-13.973 9.938-9.27-7.91-11.306-39.764-5.564-8.096 2.36-13.012-3.978-11.458-.92-28.005-3.021-8.618 9.315-4.365 8.781 3.136 5.207 8.195z" id="172947"/>
    <path d="M389.46 795.48l1.875 9.616-.73 15.942-3.906 6.705 9.805 6.64 23.175 1.896 6.643 1.546 6.743 13.329-1.583 8.11-11.333 4.877 1.203 7.178-15.63 4.815-1.943-3.904-29.519.498-2.328 15.617-7.86-4.386-26.433-6.285-9.839 2.365 1.594-20.645-9.901 1.425 2.651-11.141.196-13.022 12.737-7.875 18.177-7.5 11.496-12.3 24.71-13.5z" id="170685"/>
    <path d="M548.074 787.575l2.076 22.327 4.953 13.863-1.292 18.723-3.91 10.47.089 8.109 5.714 11.111 13.27 10.817 1.589 38.496-22.84 1.038-7.544-1.138 1.615-17.772-10.11-11.604-11.336-4.15-9.574-11.491-3.647-14.141-9.611-6.488-6.086-7.895-4.663-13.143 1.476-10.537-4.76-14.145 14.78 4.12 5.543-1.626 7.933 6.739 11.635-15.314 5.68-15.876 6.524-2.965 12.496 2.472z" id="170514"/>
    <path d="M439.543 770.97l12.105 13.154 8.533 18.935 3.022 8.618.92 28.005 3.978 11.458-2.36 13.013-8.792 5.589-5.851-5.212-11.953 6.91-7.663-12.175 1.583-8.111-6.743-13.33-6.643-1.545-.447-9.792 5.53-5.59 1.137-9.528-.354-26.604 7.584-8.866-1.87-8.343 8.284 3.414z" id="172279"/>
    <path d="M377.91 754.857l.066.113.58 8.827 10.978 17.013-.074 14.67-24.71 13.5-11.496 12.301-18.177 7.5-12.737 7.875-10.194.833-5.264-9.137-.763-29.419 4.709-17.156-.152-22.772-3.126-8.142 29.023.717 15.058-1.853 13.67 4.608 12.61.522z" id="170792"/>
    <path d="M252.895 793.892l-.771 10.232-7.319 14.629 1.37 4.548-15.014 8.574-38.369 9.6-14.004-1.175-7.922 7.643-14.553-1.33-4.522-5.942-12.826-1.114 7.134-16.489-2.332-15.574 6.722-5.136 1.118-6.059-3.744-20.016 2.676-17.453 4.135-11.015 6.129 16.75 8.107 7.765 11.015 18.97 10.673 2.225 5.141 5.521 16.818-3.256 21.601.708.447-8.391 9.7.625 8.59 5.16z" id="170346"/>
    <path d="M307.55 750.863l3.125 8.142.153 22.772-4.71 17.156.764 29.419 5.264 9.137 10.194-.833-.196 13.022-2.651 11.141-17.666.507-.013 15.36-7.76-2.978-18.048-.321-20.325 2.038-8.468-1.77-2.44-24.928-7.101-7.909 8.09-8.67.413-8.847-1.37-4.548 7.319-14.629.77-10.232 1.024-8.219-6.225-6.985-1.724-17.513-8.373-9.177 14.331-3.042 4.569 4.624 8.26-4.683 7.846 2.943 14.844-1.76 8.226.768 9.241-4.066 2.637 4.081z" id="172698"/>
    <path d="M431.259 767.556l1.87 8.343-7.584 8.866.354 26.604-1.137 9.528-5.53 5.59.447 9.792-23.175-1.896-9.805-6.64 3.905-6.705.731-15.942-1.875-9.616.074-14.67-10.978-17.013-.58-8.827 13.067 7.896 9.777-1.747-3.55-9.171 8.554-3.703 9.373.617 2.478-6.14 5.845 9.67 3.673 11.653 4.066 3.511z" id="172581"/>
    <path d="M700.978 737.025l11.035 7.69-10.373 17.938-8.91 7.053-5.401 21.689-7.29 9.357-7.572 2.69-4.18 6.557-7.825 22.48-10.034 12.525-9.947 2.987-9.098-1.939-9.952 1.785-5.72-5.141-13.361 2.537-3.63-11.906 7.285-6.633-6.456-14.438-10.52-6.757 1.273-17.29 5.684-3.793-1.88-8.934 12.736 1.22 7.723-1.961 10.133-12.348 6.714.053 22.755-3.756 13.447-8.631 10.84.529 2.624-4.626 14.906-4.872 4.994-4.065z" id="173374"/>
    <path d="M237.596 751.998l8.373 9.177 1.724 17.513 6.225 6.986-1.023 8.218-8.59-5.16-9.7-.625-.447 8.391-21.6-.708-16.819 3.256-5.141-5.52-10.673-2.226-11.015-18.97-8.107-7.765-6.129-16.75-3.467-9.08 23.386 1.114 8.498-5.57 19.002-3.267 8.18-1.175 13.626 8.344 13.697 13.817z" id="172992"/>
    <path d="M535.578 785.103l-6.523 2.965-5.681 15.876-11.635 15.314-7.933-6.739-5.542 1.626-14.78-4.12-5.207-8.195-8.781-3.136-9.315 4.365-8.533-18.935-12.105-13.154 10.593-12.68 7.39-5.703 15.873-18.645 11.88-6.544 7.276-3.303 7.81 6.958 8.755 12.532 18.74 5.725 1.862 15.129-10.411 1.242 16.267 19.422z" id="173686"/>
    <path d="M742.971 728.443l1.115 9.077-8.903 18.076 14.59-5.767 11.287 9.193-2.695 4.936-8.677 4.136-6.37 10.316-6.954 5.111-5.18 11.695 2.387 14.833 10.56 3.136-3.123 10.551-7.015 10.872-.53 11.862-3.591 9.899-9.258 9.946-5.774.92-5.977 8.908-17.943-11.391 1.188-10.04 4.449-8.522-3.55-3.46 4.18-19.97-28.9-12.761 4.18-6.557 7.572-2.69 7.29-9.357 5.4-21.69 8.911-7.053 10.373-17.937-11.035-7.69 10.138-7.852 9.504 1.389 9.168-7.458 7.491.163 5.692 5.176z" id="169404"/>
    <path d="M542.036 702.683l4.268 4.655 23.835 4.332 9.082 4.637-3.218 5.676-2.228 16.801-5.836 10.913-.115 6.542-5.176 7.53-7.632 4.715-6.942 19.09-12.496-2.471-16.267-19.422 10.41-1.242-1.861-15.13-18.74-5.724-8.755-12.532-7.81-6.958-7.276 3.303 1.666-11.753-3.521-3.788 4.743-2.366 15.907 11.128 5.25-6.426 11.113-6.676 13.06-.674 8.539-4.16z" id="168372"/>
    <path d="M632.509 693.91l.742 16.086-2.906 13.289-14.255 4.574-2.212 6.786 9.151 19.7 8.383 8.101-6.714-.053-10.133 12.348-7.723 1.961-12.736-1.22 1.88 8.934-5.684 3.793-1.273 17.29-7.292 9.733-26.634 8.533-4.953-13.863-2.076-22.327 6.942-19.091 7.632-4.716 5.176-7.53.115-6.541 5.836-10.913 2.228-16.801 3.218-5.676.077-13.234 5.416-13.947 8.696 4.494 7.126-1.16 8.739 4.093 15.782-4.726 7.452 2.083z" id="169994"/>
    <path d="M752.068 681.185l4.064 1.7 12.645 13.91-14.508 13.302-2.814 8.595-8.484 9.75-5.692-5.175-7.491-.163-9.168 7.458-9.504-1.389-10.138 7.852-4.994 4.065-14.907 4.872-2.622 4.626-10.84-.53-13.448 8.632-22.755 3.756-8.383-8.101-9.151-19.7 2.212-6.786 14.255-4.574 2.906-13.289-.742-16.086 9.21-5.142 9.425.151 7.562-3.552 4.408-9.633 8.505.387 6.437.582 15.641-8.057 25.819-.645 5.3-4.516 8.338 2.685 3.507 12.42 5.695 6.767 9.712-4.172z" id="171628"/>
    <path d="M483.424 711.857l3.52 3.788-1.665 11.753-11.88 6.544-15.873 18.645-7.39 5.703-10.593 12.68-8.284-3.414-4.066-3.51-3.673-11.654-5.845-9.67-6.67-7.482-5.44-10.579-10.856-15.64-10.705-9.486-6.854-22.414-.9-7.34 15.004 3.33 13.897-2.687 11.545-6.634 2.622-4.381 9.372 4.625 4.658 15.36 5.286 9.168 29.071 19.428 13.198-.319 2.52 4.186z" id="172377"/>
    <path d="M275.88 657.39l5.585 5.04.815 6.84-4.716 11.373 3.565 4.745.095 10.01-3.269 7.038 3.095 10.676-2.449 7.63 8.56 15.614.285 13.725-14.844 1.76-7.846-2.944-8.26 4.683-4.569-4.624-14.33 3.042-13.698-13.817-13.626-8.344-8.18 1.175.748-5.274 10.912-4.976 4.828-6.8-3.918-23.415 4.166-10.973-3.984-10.377 3.14-16.009 16.853 9.447 29.365-6.129 7.328-5.944 4.35 6.829z" id="168602"/>
    <path d="M377.91 754.857l-12.61-.522-13.669-4.608-15.058 1.853-29.023-.717-2.637-4.081-9.241 4.066-8.226-.767-.286-13.725-8.559-15.614 2.449-7.63-3.095-10.676 3.269-7.039-.095-10.01-3.565-4.744 4.716-11.373-.815-6.84-5.584-5.04 22.166-2.128 5.534-3.225 4.08-8.526 12.109 10.546 8.286.11 8.501 8.319 9.25 25.026 7.456 2.141 1.591 8.708-1.464 14.551 6.08 6.537 1.452 12.32 10.038 6.641 3.335 12.803 3.615 3.644z" id="169182"/>
    <path d="M752.068 681.185l-9.712 4.172-5.695-6.766-3.507-12.42-8.338-2.686-5.3 4.516-25.818.645-15.642 8.057-6.437-.582-7.359-13.388.603-5.814 13.299 1.555.257-7.766 6.378-7.112 14.996 4.002 10.862-3.454.008-10.879 5.674 5.44 10.867-.655 19.394-14.737 14.21 5.94 11.253 1.172 6.993 7.133-1.87 9.388-8.046 6.842-9.904 13.547-9.782 8.15 2.616 5.7z" id="171469"/>
    <path d="M505.602 625.157l-1.614 6.796 9.466 9.717.611 6.787 8.232 7.43-5.699 5.19-1.897 7.311 1.917 9.076 7.754 12.339 17.664 12.88-8.539 4.16-13.06.674-11.114 6.676-5.25 6.426-15.906-11.128-4.743 2.366-2.521-4.186-13.198.318-29.071-19.427-5.286-9.168-4.658-15.36-9.372-4.625-18.78-23.532 10.917 3.151 22.662-12.793 6.846 11.312 15.005-.147 13.584 9.193 5.69-9.104 4.786-2.017 7.956-12.506 6.776-4.229 10.842 6.42z" id="169896"/>
    <path d="M696.071 590.923l-4.095 3.044 11.25 11.792-6.604 5.507 1.961 9.269 6.082 1.31 5.998 11.42-.008 10.88-10.862 3.453-14.996-4.002-6.378 7.112-.257 7.766-13.299-1.555-.603 5.814 7.359 13.388-8.505-.387-4.408 9.633-7.562 3.552-9.424-.151-9.211 5.142-7.452-2.083-15.782 4.726-8.74-4.093-7.125 1.16-8.696-4.494 8.572-6.394 11.489-15.638 4.71-21.827 12.109-8.616 20.142-23.838 7.772-3.358 13.536-11.604.346-3.35 15.11-1.063 13.799-5.604 3.772 3.089z" id="168791"/>
    <path d="M548.124 605.431l7.55 9.202 10.404-4.792 5.8 25.217-1.494 5.627-8.418 4.06 3.24 5.446 12.116 7.389-4.098 6.95 6.598 2.513 13.464 15.69-8.572 6.393-5.416 13.947-.077 13.234-9.082-4.637-23.835-4.332-4.268-4.655-17.664-12.88-7.754-12.339-1.917-9.076 1.897-7.312 5.7-5.188-8.233-7.431-.611-6.787-9.466-9.717 1.614-6.796 6.26-4.236 7.399-16.66-6.266-3.527 12.366-10.63 9.14 8.609 13.623 6.718z" id="171325"/>
    <path d="M333.955 586.084l5.211 11.426 2.906 13.747 9.762 8.61 2.382 6.792 10.263 1.452.37 8.385-4.724 18.118 2.905 7.197 13.22 7.97.9 7.34 6.854 22.414 10.705 9.485 10.856 15.641 5.44 10.579 6.67 7.483-2.478 6.14-9.373-.618-8.553 3.703 3.55 9.171-9.778 1.747-13.067-7.896-.066-.113-3.615-3.644-3.335-12.803-10.038-6.642-1.452-12.319-6.08-6.537 1.464-14.55-1.59-8.709-7.457-2.14-9.25-25.027-8.501-8.32-8.286-.11-12.109-10.545-5.79-4.454-8.427-18.814-.684-7.204 5.68-4.833 5.623 2.393 12.908-5.745-2.517-12.552 12.709-8.668 6.792 2.45z" id="169039"/>
    <path d="M477.749 590.926l11.6 14.91-3.062 9.32 8.473 3.581-6.776 4.23-7.956 12.505-4.787 2.017-5.69 9.104-13.583-9.193-15.005.147-6.846-11.312-4.544-13.376-.157-13.584-9.709-5.457 11.168-8.706 10.306 4.638 15.759-8.07 20.809 9.246z" id="171995"/>
    <path d="M525.36 590.104l-12.365 10.63 6.266 3.528-7.399 16.659-6.26 4.236-10.842-6.42-8.473-3.58 3.062-9.322-11.6-14.91 1.125-1.743-.871-4.844 5.393-9.941 4.33 2.92 5.04 4.186 10.36.79 10.142-9.324 10.017 8.74 2.076 8.395z" id="167641"/>
    <path d="M244.237 587.018l5.235 14.016-1.968 8.799 4.548 6.995 8.142 4.144 11.337 29.59-7.328 5.944-29.365 6.129-16.852-9.447-5.463-7.298-1.18-18.091-8.595-10.605.892-15.703-2.153-5.518 2.525-10.4-2.583-8.154-6.704-8.232 6.247-3.456 12.943 4.573 14.134-5.407 11.195.557.845 18.154 4.148 3.41z" id="171067"/>
    <path d="M297.513 560.04l14.948-.212 6.276 6.597 1.113 9.285-7.924 9.353 2.528 7.24 2.517 12.551-12.908 5.745-5.623-2.393-5.68 4.833.684 7.204 8.426 18.814 5.791 4.454-4.08 8.526-5.534 3.225-22.166 2.129-4.35-6.829-11.337-29.59-8.142-4.144-4.547-6.995 1.967-8.799-5.235-14.016 18.728-4.672 17.428-15.126 5.106-7.188 12.014.007z" id="173533"/>
    <path d="M456.501 557.066l8.19 8.602-1.376 10.359 2.61 5.514 7.535 1.298 5.414 6.342-1.125 1.745-20.81-9.246-15.758 8.07-10.306-4.638-11.168 8.706-5.69-1.194-6.041-14.899 2.16-4.105-6.3-9.163 4.149-9.624-1.426-10.256 19.66-2.669 9.671 6.464 10.382 1.823 10.23 6.87z" id="172340"/>
    <path d="M363.708 533.03l1.708 15.257 11.076 18.312-1.209 12.933-5.32 2.672-21.084 4.383-14.924-.503-6.792-2.45-12.709 8.668-2.528-7.239 7.924-9.353-1.113-9.285-6.276-6.597-14.948.211 6.257-18.496-7.41-7.66 4.828-4.959 7.909-1.568 10.723-3.64 8.197 10.422 16.475-.75 6.696 1.687 12.52-2.045z" id="171272"/>
    <path d="M367.753 502.485l2.258 8.216 11.54-1.482 4.178 4.593-2.707 13.83.137 11.045 18.511 3.027 5.7-1.13-.811 3.993 1.426 10.256-4.148 9.624 6.298 9.163-2.16 4.105 6.041 14.899 5.691 1.194 9.709 5.457.157 13.584 4.544 13.376-22.662 12.793-10.916-3.15-10.76-16.135-3.247-12.226-3.732-4.249-4-20.545-3.517-3.19 1.209-12.934-11.076-18.312-1.708-15.257-6.343-14.614 7.978-6.78 2.41-9.151z" id="173935"/>
    <path d="M296.36 533.882l7.41 7.661-6.257 18.496-12.014-.007-5.106 7.188-17.428 15.126-18.728 4.672-4.148-3.41-.845-18.154-11.195-.557-14.134 5.407-12.943-4.573-.957-12.927-9.096-10.875 12.484-12.616 17.021-7.384 6.98-9.444-1.18-15.751 9.552-3.606 5.573 13.326 7.896-.368 18.955 17.893 7.62 1.702 6.64-3.122.801 11.298 13.098.025z" id="173061"/>
    <path d="M761.156 500.516l2.62 10.723 12.148 15.15 2.239 9.206-5.356 32.305-8.442-8.365-7.994 5.528-1.321 9.33 5.937 2.723 7.052 18.655-3.57 5.27-9.044 3.954-8.827 18.318-19.394 14.737-10.867.656-5.674-5.44-5.998-11.42-6.082-1.312-1.961-9.268 6.605-5.507-11.251-11.792 4.095-3.044 4.378-4.934 10.132 2.389 9.458-27.298 1.089-10.324-9.566-15.947-1.309-8.172 11.472-.958-.316-7.056 6.516-8.084 1.321-7.347 7.803-10.574 7.336 5.477 16.771 2.42z" id="170220"/>
    <path d="M583.456 513.433l-5.433 11.6 1.528 12.906-6.706 15.01-13.476 2.552-8.81 9.032-15.848-6.595-8.515-7.191-2.679-16.447-4.58-7.141 4.718-7.322-4.815-13.518 9.837-4.986 12.847-10.256 7.79.7 13.762 7.264 11.105 2.224 7.162 5.416 2.113 6.752z" id="172082"/>
    <path d="M675.32 538.995l-15.35 7.9-8.24-15.61-13.214 1.277-18.312-3.379-2.949-4.466 5.846-6.199-2.668-6.543-6.637 2.017-13.054-6.361 6.932-18.18 9.392-12.047 17.711.781 4.13-2.435-11.645-23.666 10.138-1.507 18.817.647-1.376-4.183 9.848 16.83-2.665 18.066-9.528 1.162-2.11 5.353 6.984 10.054 5.637 17.702 11.178 12.09 1.135 10.697z" id="168880"/>
    <path d="M695.828 425.167l7.745 7.009 6.926-3.28-2.839 15.37 1.096 7.938-4.12 4.11-1.367 16.883-8.712 6.77-10.879 12.009 6.373 4.106.315 6.06 13.75 13.086 6.137 11.409 1.31 8.172-6.327-1.375-22.231 7.087-7.685-1.526-1.135-10.697-11.178-12.09-5.637-17.702-6.984-10.054 2.11-5.353 9.528-1.162 2.665-18.067-9.848-16.83 7.94-1.32 5.445-10.459 9.964-4.953 9.142 1.71-.717-8.694 9.213 1.843z" id="169351"/>
    <path d="M735.79 422.721l4.787 23.304 10.02.643 9.748 4.123-2.328 8.277-5.311 5.7 10.395 8.057 10.99.399 7.13 10.766-9.623 5.577 1.976 10.78-12.418.169-16.77-2.421-7.337-5.477-7.803 10.574-1.321 7.347-6.516 8.084.316 7.056-11.472.958-6.137-11.409-13.75-13.086-.315-6.06-6.373-4.106 10.879-12.01 8.712-6.77 1.367-16.883 4.12-4.11-1.096-7.937 2.839-15.37 5.705-2.556 12.628-13.491 6.957 9.872z" id="172812"/>
    <path d="M460.935 460.41l-6.512 5.92 4.019 12.811-6.934 15.231 2.877 11.149-1.956 14.808 8.079 4.397-.805 7.03 4.255 9.51-.825 6.872-6.632 8.928-10.23-6.871-10.38-1.823-9.672-6.464-19.66 2.67.811-3.994 3.746-4.245-2.156-10.155 8.756-1.034 4.261-29.764 4.325-7.903-4.83-12.469 1.832-10.981 6.164-7.702-7.606-6.04-2.91-7.89-5.887 1.532-6.079-8.308-.274-5.918 15.605-13.585 3.751-8.646 3.415 7.685 11.106 8.56 2.892 12.648 5.773-.323 7.445 7.075-1.747 6.77 5.983 10.519z" id="168559"/>
    <path d="M627.262 452.084l11.644 23.666-4.129 2.435-17.711-.781-9.392 12.047-6.932 18.18-7.82-2.096.04-3.821-10.31-17.033-.229-9.753-13.532-10.827-1.644-11.13-4.806-4.153-.035-11.313-16.078-20.39-.532-6.33-8.767-18.172-13.925-11.883.18-13.538 21.51 3.735 9.786 4.45 11.664 15.02 3.313 16.874 11.664 10.016.337 7.14 9.02 4.599 6.006 13.968 17.913 9.348 12.765-.257z" id="171539"/>
    <path d="M327.478 324.546l10.31 17.023 5.493 15.646 1.94 25.268 4.756 19.196 4.819 12.2.639 12.026 5.22 11.15-2.003 7.446 2.965 12.826 5.84 4.433-2.6 7.673 3.532 8.13.765 20.365-1.401 4.557-2.41 9.15-7.978 6.78 6.343 14.615-12.52 2.045-6.696-1.687-16.475.75-8.197-10.423-10.723 3.64-7.19-5.593 14.268-16.136-8.659-9.911-4.69-14.131-6.68-5.132-6.169-13.804-8.969-14.201 2.457-15.02-5.619-20.364 5.009-7.247 6.14-1.792-1.182-12.632 2.431-19.348 4.558-6.08-5.578-5.708 2.446-11.016-1.41-19.503-3.364-12.997 22.7 4.956 10.452-4.147 7.43 6.997z" id="168041"/>
    <path d="M628.058 315.932l-8.467 6.516 2.779 7.046 11.133 14.038-3.26 5.845 5.38 5.895 1.57 9.813-2.887 6.008 11.119 14.565 8.458-2.022 8.395 11.005-5.067 10.04 1.214 11.225 21.357 5.252-1.592 9.15-9.964 4.954-5.446 10.457-7.94 1.322 1.377 4.183-18.817-.647-10.138 1.507-12.765.258-17.913-9.348-6.006-13.968-9.02-4.6-.337-7.139-11.664-10.016-3.313-16.874-11.664-15.02-9.786-4.45-21.51-3.735-2.6-8.745-7.462-8.929 8.17-18.475 15.9 3.928 10.4-6.134 12.154 5.565 11.921 2.914 1.863-8.233 9.845-7.993 12.342 3.822 12.415-7.841 19.826-1.14z" id="167909"/>
    <path d="M756.817 314.683l-1.326 19.434-7.151 5.425 8.68 29.224-10.27 11.063 3.342 11.48-8.001 24.141-6.302 7.271-6.957-9.872-12.628 13.491-5.705 2.555-6.926 3.28-7.745-7.008-9.566-18.278 1.736-15.686 4.78-11.178-2.02-13.537-5.986-14.018-11.687-7.725-3.275-9.081-8.765-8.221-4.07-15.667 17.525 1.003 7.476 5.94 25.383-8.766 5.558 4.18 20.598 1.165 14 3.948 9.302-4.563z" id="168675"/>
    <path d="M286.896 316.74l3.363 12.997 1.411 19.503-2.446 11.016 5.578 5.708-4.558 6.08-2.431 19.348 1.183 12.632-6.141 1.792-5.009 7.247 5.619 20.363-2.457 15.02 8.97 14.202 6.168 13.804 6.68 5.132 4.69 14.131 8.66 9.91-14.269 16.137 7.19 5.594-7.91 1.568-4.828 4.958-13.098-.025-.802-11.298-6.64 3.123-7.619-1.703-18.955-17.893-7.895.368-5.575-13.326-9.551 3.606-6.352-18.47-3.629-2.898-2.919-14.742-11.846-8.735-9.95-24.603-.492-18.935-3.958-2.449-6.973-23.575 3.11-7.974 11.784-16.047 2.821-8.556 14.678-23.554 8.239-6.781 9.515 4.08 11.526-5.256 6.464 3.21 13.436-4.968 3.849-4.6 16.98-1.032 4.389 5.891z" id="174021"/>
    <path d="M656.976 311.776l4.069 15.667 8.765 8.22 3.275 9.082 11.687 7.725 5.986 14.018 2.02 13.537-4.78 11.178-1.736 15.686 9.566 18.278-9.213-1.843.717 8.693-9.142-1.71 1.592-9.149-21.357-5.252-1.214-11.226 5.067-10.039-8.395-11.005-8.458 2.022-11.119-14.565 2.888-6.008-1.57-9.813-5.382-5.895 3.26-5.844-11.132-14.04-2.779-7.045 8.467-6.516 10.16-2.539 10.07-6.251 8.688 4.634z" id="172894"/>
    <path d="M725.234 171.56l-4.597 14.499 1.055 6.264 7.617 5.127-5.047 5.806-2.308 13.393-10.752 7.69-9.1 1.043-10.787-2.569-13.834 6.603-2.254 3.97-17.24 3.162-12.847-.343.968-5.488-4.789-15.498 1.61-7.694 12.426-5.195 4.884-8.51 10.204-4.607 18.006-4.545 4.443 2.46 16.53-6.894 15.812-8.674z" id="174496"/>
    <path d="M623.167 174.687l4.881 9.337 5.84-.901 6.935 5.758-2.341 9.267 4.448 9.377-1.611 7.694 4.79 15.499-.97 5.488 12.848.342-9.656 9.816 2.953 11.618-5.933 1.423-6.638 12.195 2.251 10.174-10.287 13.72-12.299-7.775-2.278-15.975-6.109-9.617-16.59-10.566-2.172-12.583-8.717-16.9-9.377-5.733-7.508-11.963-8.815-9.644-3.64-9.208-9.313-8.994 11.555-4.314 9.062-.005 10.088 4.347 10.587-2.326 16.47 2.598 3.314-8.26 9.313 1.343 8.92 4.768z" id="172509"/>
    <path d="M725.234 171.56l-15.812 8.674-16.53 6.894-4.443-2.46-18.006 4.545-10.204 4.608-4.885 8.509-12.424 5.195-4.448-9.377 2.341-9.267-6.936-5.758-5.839.901-4.88-9.337 6.563-6.644 5.285-16.642 6.65-4.7 4.164-8.08 10.666-2.98 4.844-12.25-5.772-12.752 6.308-5.733 22.55 6.83 12.19-1.213 13.24-18.112 4.478-13.83 26.824-24.405 6.404-15 6.845-4.26 1.633-9.04 5.783 16.343-.535 13.586-3.266 4.897.319 10.446-4.7 9.133-14.265 8.073-3.375 24.599-7.196 12.432-1.558 9.297-14.72 6.307 5.826 11.218 6.681 6.46.2 12.893z" id="168755"/>
    <path d="M756.817 314.683l-9.302 4.563-14-3.948-20.598-1.165-5.558-4.18-25.383 8.766-7.476-5.94-17.524-1.003-8.688-4.635-2.807-10.805-14.804-.842 10.287-13.72-2.251-10.174 6.638-12.195 5.933-1.423-2.953-11.618 9.656-9.816 17.24-3.162 2.254-3.97 13.834-6.603 10.788 2.569 9.1-1.044 10.751-7.69 2.308-13.392 5.048-5.806-7.618-5.127-1.055-6.264 4.597-14.499-.2-12.892-6.681-6.46-5.826-11.22 14.72-6.306 1.558-9.296L736 112.952l3.375-24.599 14.265-8.073 4.7-9.133-.319-10.446 3.266-4.897.534-13.586-5.782-16.343-2.826-4.125L776.92 6.208l8.075 7.269 6.57 12.83-1.126 9.66L795.41 57.3 799 66.326l-7.62 7.907-12.502 7.408-3.602 5.798 1.466 8.027 10.932 15.108-2.696 18.403.691 8.423-11.446 13.491-12.437-1.43-8.638 2.328L749 167.482l-1.456 13.397 4.681 12.035-1.116 14.01 5.149 6.852 1.291 13.16 9.096 11.206 1.39 11.479-8.35 2.508 5.017 16.505 3.331 3.236-3.024 8.567-11.757-6.447-11.495.906-2.818 11.483 3.007 9.144.164 11.924 7.86-2.145 6.847 9.38z" id="172153"/>
    <path d="M518.84 506.32l4.815 13.517-4.719 7.322-20.016 7.404.614 8.917-10.57 16.001 2.886 3.606-.59 13.038-3.533 1.191-4.331-2.919-5.393 9.941.871 4.844-5.414-6.343-7.535-1.298-2.61-5.514 1.376-10.36-8.19-8.601 6.632-8.928.825-6.872-4.255-9.51.805-7.03-8.08-4.397 1.957-14.808-2.877-11.149 6.934-15.23-4.02-12.812 6.513-5.92 12.29 7.161 4.28-.687 13.82 6.688 11.723 2.53 6.837 12.826 3.591 13.05 5.364 4.341z" id="173230"/>
    <path d="M518.936 527.159l4.581 7.14 2.679 16.448 8.514 7.19 15.85 6.596 1.103 12.432-4.901 4.6 5.534 8.823-4.172 15.043-13.622-6.718-9.141-8.61-2.076-8.394-10.017-8.74-10.142 9.324-10.36-.79-5.04-4.187 3.534-1.191.59-13.038-2.886-3.606 10.57-16.001-.613-8.917 20.015-7.404z" id="168960"/>
    <path d="M753.214 21.751l2.826 4.125-1.633 9.04-6.845 4.26-6.404 15-26.824 24.406-4.477 13.829-13.24 18.112-12.191 1.213-22.55-6.83-6.308 5.733 5.772 12.752-4.844 12.25-10.666 2.98-4.165 8.08-6.65 4.7-5.284 16.642-6.564 6.644-8.92-4.768-9.312-1.343-3.314 8.26-16.47-2.598-10.587 2.326-10.088-4.347-9.062.005-11.555 4.314-6.758-2.583-13.267-10.27-1.962-6.958-5.684-3.374-9.782-12.213-5.949-3.076-9.29 1.804-19.762-11.676-9.18-12.491-4.447-10.106-.069-8.06-6.804-2.642.255-3.66 14.107-3.523 9.352 3.054 4.077-4.659 6.447 3.295 9.734-.606 6.336-7.358 20.117-2.945 16.488-19.37 3.795-8.464 10.611 4.7 13.325.311 22.215-20.987 19.972-6.195 13.311-11.342 27.902.355 12.298-6.847 11.892-1.774 4.431 2.11 15.138-2.193 18.188 2.902 3.399-7.134L721.575 1l9.744 10.19 13.864-.556 8.031 11.117z" id="169119"/>
    <path d="M410.328 87.066l5.572 11.707.675 7.886 5.703 11.01 7.27 7.129 5.22.235 7.27 8.98 3.399 20.698-1.957 13.318 6.105 10.654 2.623 28.209-2.114 13.938 6.899 9.96 3.871 10.254 7.32 3.928 5.69 11.408 3.085 12.659-1.368 7.86 2.936 6.927-.644 14.4-3.822 7.54-.072 9.816-24.272 16.22-6.01-7.155-9.922-6.252-16.154.05-12.324 6.354-9.593.832-15.335 5.902-7.737-6.378-16.31 5.15-12.763-3.871-16.09-1.888-7.431-6.997-10.452 4.147-22.7-4.956-4.389-5.891-16.98 1.031-3.85 4.6-13.435 4.969-6.464-3.21-11.526 5.256-9.515-4.08 1.205-10.251-3.034-9.734-10.845-3.447-11.986-11.75-13.833-10.777-9.006 5.272-7.254.525L151 292.767l-19.335 3.726-8.002 6.956-9.242-6.738-16.112.487-8.68 4.972-7.71-6.824-5.762-9.007-14.423-9.591-5.41-.865 4.754-20.495 3.807-28.624 10.2-3.88 3.874 2.613 9.781-2.987 7.779 1.881 17.526 14.088 7.413 1.176 20.745-10.36 5.18-6.336 9.521-3.857 11.34-1.436 9.045-8.559 8.476.482 18.806-2.526 4.459-5.065 10.708-4.818 5.045 2.636 9.479-5.57 11.515 5.494 26.63-2.912 8.697 4.812 6.441-.416 11.079 4.759 5.19 9.287 12.692 11.988 11.344 4.84 10.72-.605 5.246 4.671 14.763 2.343 9.089-9.13 25.774-8.19-4.75-11.738 5.01-4.475-1.692-11.432-8.372-7.097-5.664-25.52 10.906-10.876-4.587-6.452.452-9.368 10.794-13.16 7.366-11.762 1.914-18.56-1.021-6.471 6.53 2.79z" id="171021"/>
    <path d="M403.798 84.276l1.02 6.47-1.913 18.56-7.366 11.763-10.794 13.16-.452 9.368 4.587 6.452-10.906 10.876 5.664 25.52 8.373 7.097 1.691 11.432-5.01 4.475 4.75 11.737-25.774 8.19-9.09 9.131-14.762-2.343-5.246-4.671-10.72.605-11.344-4.84-12.693-11.988-5.19-9.287-11.078-4.759-6.44.416-8.697-4.812-26.63 2.912-11.516-5.494-9.479 5.57-5.045-2.636-10.708 4.818-4.459 5.065-18.806 2.526-8.476-.482-9.044 8.56-11.34 1.435-9.522 3.857-5.18 6.336-20.745 10.36-7.413-1.176L96.52 224.39l-7.779-1.881-9.781 2.987-3.874-2.613-10.2 3.88-3.807 28.624-4.755 20.495-9.865 7.75-3.406 9.462-4.578 1.438-5.969-6.97-12.247-3.594-12.601-17.295-.208-14.363 12.598-8.71.262-12.876-7.334-15.538.84-24.127L1 187.491l7.293-11.392 2.595-11.974 7.152-11.684-1.825-8.593 3.152-7 10.147-.537 6.305 3.183 6.954-3.147 4.54 3.652-1.274 8.121 8.622 3.891 5.929-5.255 26.167-5.222.505-6.067 8.267-9.315.095-6.171 7.185-5.296 4.95-10.274 14.768-6.418 16.562 1.672 4.197-5.103 20.508-5.674 16.575-20.156 11.846-4.395 12.033 3.265 12.284-3.822 19.218-2.386 7.592 11.118 6.776 3.33 4.522-4.701 19.589-1.977 14.696-8.155 8.454.715 14.697 4.767 13.278 1.629 6.857-3.924 15.393 2.562 6.109 6.06 8.718-6.093 10.64 3.944 9.868 7.052 7.37.786 13.489 5.769z" id="174254"/>
    <path d="M495.422 941.21l6.192 9.952 5.821.795-2.51 9.465 3.963 10.058 2.162 12.815 6.697-.467 5.036 28.313 5.494 6.223 4.105 11.49-1.273 7.04-16.691 2.145-5.581-9.952.572-5.376-6.034-12.876-.458-10.222-5-8.414.895-11.976-8.562-2.617-.567-6.233-8.791-11.311-.99-20.829 15.52 1.977z" id="174520"/>
    <path d="M479.902 939.233l.99 20.829 8.79 11.31.568 6.234 8.562 2.617-.896 11.976-7.022 9.304-21.341 7.966-7.947-6.198-18.104-20.755-10.559-14.98-3.959-9.264 7.703-9.5.111-4.653 12.855-7.182 7.307-12.847 2.747 12.81 20.195 2.333z" id="168309"/>
    <path d="M217.986 653.188l-3.141 16.009 3.984 10.377-4.166 10.973 3.918 23.414-4.828 6.8-10.912 4.977-.748 5.274-19.002 3.267-8.498 5.57-23.386-1.114.475-5.843-5.821-10.965-.044-18.92-4.819-9.331 2.816-12.066 11.873-4.094 19.19-15.686 1.246-5.553-11.666-36.67.782-5.406 17.976-4.144 6.8-4.816 13.625-3.75-.892 15.703 8.594 10.605 1.181 18.09 5.463 7.3z" id="168229"/>
    <path d="M380.379 331.533l3.985 9.068 11.014 7.446 4.094 8.68 12.76 5.27 5.474 13.346 11.89 9.286 7.035 11.493-10.563 11.354-3.75 8.646-15.606 13.585.274 5.918 6.08 8.308 5.887-1.532 2.909 7.89 7.606 6.04-6.164 7.702-1.831 10.981 4.83 12.469-4.326 7.903-4.261 29.764-8.757 1.034 2.157 10.155-3.746 4.245-5.7 1.13-18.512-3.027-.136-11.045 2.707-13.83-4.177-4.593-11.54 1.482-2.259-8.216 1.401-4.557-.765-20.364-3.533-8.13 2.6-7.674-5.839-4.433-2.966-12.826 2.004-7.446-5.22-11.15-.64-12.026-4.818-12.2-4.756-19.196-1.94-25.268-5.493-15.646-10.31-17.023 16.09 1.888 12.765 3.87 16.309-5.15 7.737 6.38z" id="169253"/>
    <path d="M375.283 579.533l3.518 3.19 3.999 20.545 3.732 4.25 3.246 12.226 10.76 16.133 18.78 23.532-2.622 4.381-11.545 6.634-13.897 2.688-15.004-3.33-13.22-7.971-2.905-7.197 4.724-18.118-.37-8.385-10.263-1.452-2.382-6.793-9.762-8.609-2.906-13.747-5.211-11.426 14.924.503 21.084-4.383 5.32-2.671z" id="171931"/>
    <path d="M600.742 507.631l13.054 6.361 6.637-2.016 2.668 6.542-5.846 6.2 2.949 4.465 2.24 9.405-4.046 14.369-5.312 3.26-8.095 11.591-3.954 3.775-10.04-8.593-6.332 5.005-7.101-2.91-4.719-12.136 6.706-15.01-1.528-12.906 5.433-11.6 8.332 2.737 1.134-10.635 7.82 2.096z" id="174156"/>
    <path d="M604.99 567.808l3.627 12.833 8.689 3.659-7.745 24.998-10.958-3.353-19.002 7.242-13.523-3.346-10.404 4.792-7.55-9.202 4.172-15.043-5.534-8.823 4.9-4.6-1.103-12.432 8.81-9.032 13.476-2.552 4.718 12.135 7.101 2.911 6.332-5.005 10.04 8.593 3.955-3.775z" id="168130"/>
    <path d="M675.32 538.995l7.685 1.526 22.231-7.087 6.326 1.375 9.566 15.947-1.089 10.324-9.458 27.298-10.132-2.389-4.378 4.934-3.772-3.09-13.8 5.606-15.109 1.063-.346 3.35-13.536 11.603-7.772 3.358-20.142 23.838-12.109 8.616-4.71 21.827-11.489 15.638-13.464-15.69-6.598-2.512 4.098-6.95-12.116-7.39-3.24-5.446 8.418-4.059 1.495-5.627-5.8-25.217 13.522 3.346 19.002-7.242 10.959 3.353 7.744-24.998-8.69-3.659-3.625-12.833 8.095-11.59 5.312-3.261 4.046-14.37-2.24-9.404 18.312 3.38 13.213-1.277 8.24 15.61 15.351-7.901z" id="167473"/>
    <path d="M450.905 94.891l6.804 2.643.069 8.059 4.448 10.106 9.179 12.491 19.763 11.676 9.289-1.804 5.949 3.076 9.782 12.213 5.684 3.374 1.962 6.959 13.267 10.27 6.758 2.582 9.313 8.994 3.64 9.208 8.815 9.644 7.508 11.963 9.377 5.733 8.717 16.9 2.172 12.583 16.59 10.566 6.109 9.617 2.278 15.975 12.3 7.775 14.803.842 2.807 10.805-10.07 6.252-10.16 2.539-19.826 1.139-12.414 7.84-12.343-3.82-9.845 7.992-1.863 8.233-11.92-2.914-12.155-5.565-10.4 6.134-15.9-3.928-8.17 18.475-16.418-2.875-4.642-3.734-3.118-13.41-3.882-2.04-5.426-11.606-5.747-.271.072-9.815 3.822-7.541.644-14.4-2.936-6.928 1.368-7.86-3.085-12.658-5.69-11.407-7.32-3.929-3.871-10.254-6.9-9.96 2.115-13.939-2.623-28.208-6.105-10.654 1.957-13.318-3.4-20.698-7.27-8.98-5.218-.235-7.27-7.129-5.704-11.01-.675-7.886-5.572-11.707 10.268 3.474 10.097-1.288 6.797 2.666 9.337-1.3 4.078 4.273z" id="167794"/>
    <path d="M513.222 349.518l7.462 8.929 2.6 8.745-.18 13.538 13.925 11.883 8.767 18.173.532 6.329 16.078 20.39.035 11.313 4.806 4.153 1.644 11.13 13.532 10.827.229 9.753 10.31 17.033-.04 3.821-1.134 10.635-8.332-2.736-2.113-6.753-7.162-5.416-11.105-2.224-13.762-7.263-7.79-.7-12.847 10.255-9.837 4.986-5.364-4.342-3.59-13.05-6.838-12.824-11.723-2.531-13.82-6.688-4.28.687-12.29-7.161-5.983-10.52 1.748-6.77-7.446-7.074-5.773.323-2.892-12.648-11.106-8.56-3.415-7.685 10.563-11.354-7.035-11.493-11.89-9.286-5.474-13.346-12.76-5.27-4.094-8.68-11.014-7.446-3.985-9.068 15.335-5.902 9.593-.832 12.325-6.354 16.153-.05 9.923 6.252 6.009 7.156 24.272-16.221 5.747.271 5.426 11.606 3.882 2.04 3.118 13.41 4.642 3.734 16.418 2.875z" id="167696"/>
    <path d="M408.795 1024.07l-2.958 8.084-.804 5.418-12.631 8.058-4.008 6.336 1.924 9.804 13.254 19.28 3.769 16.824-5.702 1.332-7.224 11.011-11.89 6.679 2.173 6.451-11.072-13.542-15.003-.372-7.968 9.421-23.939 6.36-4.333-8.193 6.428-18.403-17.89-3.165.1-13.252-4.276-8.498-2.998-19.557 26.425-12.26-4.165-12.876 9.027-4.417-1.443-11.027 4.9-7.324 11.827 6.69 7.851-3.218 13.358 7.172 18.296.79 7.54-2.524 11.432 8.917z" id="174085"/>
    <path d="M371.932 888.345l-2.062 7.472-8.3 1.067 3.284 10.697-2.55 7.825-7.688.453.342 16.35-6.555 16.671-4.492 5.572 3.572 6.77-6.164 12.406 1.978 5.575-7.02 6.059-.147 14.421 2.36 6.559-4.9 7.324 1.444 11.027-9.027 4.417 4.165 12.875-26.425 12.261-10.75-7.258-1.335-12.91 3.45-6.11 7.464-4.023-2.88-8.043-.133-11.661 4.328-10.658.935-12.573-7.641-11.574 4.133-9.245-10.216-23.758 1.813-11.583 3.661-6.58-3.362-5.535-.048-16.441-2.558-6.63 7.857-2.928 3.349-9.95.013-15.36 17.666-.507 9.901-1.425-1.594 20.645 9.84-2.365 26.432 6.285 7.86 4.386z" id="169681"/>
  </g>
</svg>
