<svg xmlns="http://www.w3.org/2000/svg" version="1.2" baseProfile="tiny" stroke-linecap="round" stroke-linejoin="round" viewBox="0 0 800 793">
  <g id="VN" fill="none" stroke="#aaa">
    <path d="M646.045 695.637l25.776-2.736 10.568 13.092-8.647 9.925 11.542 27.823 15.662 18.977 14.24-4.813 3.87 10.232-21.762 17.465-43.223 6.68 1.71-11.505-46.774-5.13-4.256-26.806 10.442-14.453-3.67-19.37 7.535-26.515 12.875 7.881 14.112-.747z" data-name="Ciorăști" class="comuna" id="175590"/>
    <path d="M619.058 688.503l-7.536 26.515-12.998 4.675-12.072 15.974-9.597 5.375-13.46-23.619-5.623-8.184 9.595-19.003-.545-16.365 12.11-18.641 11.82.125 3.583 20.582 24.723 12.566z" data-name="Bălești" class="comuna" id="175206"/>
    <path d="M732.017 630.485l2.972 13.441 14.91-.48 13.751 5.42 17.413 12.076L799 676.636l-46.596 47.455-30.154 24.859-7.064 8.955-14.24 4.813-15.662-18.977-11.542-27.823 8.647-9.925-10.568-13.093-25.776 2.737 2.076-26.836 18.092-3.446 2.343-26.708 20.631-8.793 12.76 7.298 8.713-10.815 21.357 4.148z" data-name="Măicănești" class="comuna" id="176613"/>
    <path d="M588.266 626.854l-9.415 5.17.08 23.206-12.11 18.64.546 16.366-9.595 19.003 5.623 8.184-6.617-.325-17.772 28.38-15.19 13.365-18.339 1.561 2.382-11.078-10.282-4.72 9.913-20.784 14.959-3.855 9.89-13.447-15.322.069-17.651-8.39-3.638 4.186 6.077-35.485 1.63-8.912 8.507-.543 3.894-13.61 4.501-4.532 45.643-3.532 3.456-12.405 3.999 6.097 14.831-2.61z" data-name="Sihlea" class="comuna" id="177600"/>
    <path d="M466.367 617.226l-7.346 12.658 1.374 11.559-11.433 6.67-4.834-7.659-22.505-3.995-10.098-19.337 11.019 2.3 30.085-5.056 13.738 2.86z" data-name="Bordești" class="comuna" id="175439"/>
    <path d="M505.135 601.374l-.941 16.317 8.422 12.354 3.22 13.79-3.894 13.61-8.507.543-34.096-8.032-8.944-8.513-1.373-11.559 7.345-12.658 1.364-4.458-.576-11.857 11.37-5.299 6.486 7.411 20.124-1.65z" data-name="Dumbrăveni" class="comuna" id="175938"/>
    <path d="M653.597 594.78l-.832 11.857 37.26 12.434-.837 10.783-20.632 8.793-2.343 26.708-18.092 3.446-2.076 26.836-14.112.747-12.875-7.881-24.723-12.566-3.584-20.582-11.82-.125-.08-23.206 9.415-5.17 8.868-16.58-.483-11.066 17.374-.162-.572-7.683 21.879 8.744 18.265-5.327z" data-name="Tătăranu" class="comuna" id="177986"/>
    <path d="M508.678 592.237l-3.543 9.137-20.124 1.65-6.487-7.412-11.369 5.299.576 11.857-11.232-4.065-18.684-25.649 7.024 3.988 41.085-5.467 8.986 7.874 13.768 2.788z" data-name="Popești" class="comuna" id="178901"/>
    <path d="M569.436 623.365l-3.456 12.406-45.643 3.532-4.5 4.532-3.221-13.79-8.422-12.354.94-16.317 3.544-9.137 7.087-6.427 2.729-16.01 24.094 21.736-11.775 6.415 3.086 10.733 36.585-.004-1.048 14.686z" data-name="Gugești" class="comuna" id="176301"/>
    <path d="M294.334 633.893l-25.902-2.4-11.845 2.276-1.107-12.943-6.851-7.807-10.793.239-12.515-15.252 6.236-11.774 20.589-11.746 10.873-1.317 1.615-10.12 22.108-9.576-3.458 15.868 8.854 7.428-2.178 30.441 4.374 26.683z" data-name="Jitia" class="comuna" id="176551"/>
    <path d="M781.063 660.942l-17.413-12.076-13.75-5.42-14.91.48-2.973-13.44 2.823-17.607-3.497-6.2-.604-33.124 8.576-12.727 16.076-15.196 10.255 9.885 3.757 25.272 11.942 8.313-17.347 4.765-3.474 12.932 13.503 8.887 3.224 13.873-2.616 13.74 6.428 17.643z" data-name="Nănești" class="comuna" id="176855"/>
    <path d="M286.742 553.473l-22.108 9.575-1.615 10.121-10.874 1.317-20.589 11.746-6.235 11.774-16.048-20.875-20.774.95-7.934-5.878-14.088-11.721 10.532-21.841 27.664-.735 10.628-6.356 18.119 1.522 26.88-9.871.56 7.42 25.882 22.852z" data-name="Vintileasca" class="comuna" id="178475"/>
    <path d="M557.756 529.127l.368-.211 11.962 1.15.529 31.616 23.08 3.105-4.806 3.186 13.535 18.832 11.029 4.558.572 7.683-17.374.162.483 11.067-8.868 16.579-14.831 2.61-3.999-6.099 1.048-14.685-36.586.004-3.085-10.733 11.775-6.415-24.094-21.736-13.056-15.923 4.391-7.477 13.629-4.427 13.29 2.283 2.738-15.795 18.27.666z" data-name="Slobozia Ciorăști" class="comuna" id="177726"/>
    <path d="M755.39 545.632l-16.075 15.196-8.576 12.727.604 33.123 3.497 6.201-2.823 17.606-21.357-4.148-8.713 10.815-12.76-7.298.838-10.783-37.26-12.434.832-11.857 3.348-43.372 1.507-20.302 22.965 13.178 40.1-31.237 1.762 10.178 12.303 14.614 13.566-3.292 6.243 11.085z" data-name="Vulturu" class="comuna" id="178821"/>
    <path d="M303.077 521.914l4.118 6.949-8.407-.845-4.262 22.02 6.232 22.018 13.208 9.71 2.52 14.457 32.191 20.087 11.714 24.807-1.763 14.477-9.91 6.95-21.6-8.016-12.602 7.434-11.012-10.248-9.17-17.821-4.374-26.683 2.178-30.44-8.854-7.43 3.458-15.867-25.882-22.852-.56-7.42 3.017-11.223 24.26-3.367 4.055 10.15 11.445 3.153z" data-name="Chiojdeni" class="comuna" id="175509"/>
    <path d="M588.238 510.764l23.517 12.812 9.724 10.279-11.083 6.368 3.536 6.934-18.26 11.348-1.977 6.282-23.08-3.105-.529-31.615-11.962-1.151 2.429-15.71 27.685-2.442z" data-name="Milcovul" class="comuna" id="176748"/>
    <path d="M557.756 529.127l-18.27-.666-2.737 15.795-13.291-2.283-9.918-17.63 5.152-18.894.415-3.822 26.903 13.478 11.746 14.022z" data-name="Golești" class="comuna" id="174824"/>
    <path d="M487.42 488.64l6.126 10.462 10.257-5.379 12.322 9.59-36.21 20.46-3.197-7.075-20.31 9.92-12.538-3.032-19.605-27.846-11.266-7.297-3.77-9.73 8.278-7.384 22.633 10.992 14.804-3.686 7.585 5.616 13.392-.997 11.5 5.385z" data-name="Cîrligele" class="comuna" id="175732"/>
    <path d="M409.229 478.713l3.77 9.73.658 15.396 14.162 19.051 6.03 15.644-11.433 13.915-10.52-15.308-8.332 5.153-16.786-20.352-1.569-8.472-11.374-4.036-18.097-14.147-17.778-4.313-3.8-13.349 11.626-9.817 12.336-7.548 17.065 8.351 8.777-3.164 15.769 5.352 9.496 7.914z" data-name="Poiana Cristei" class="comuna" id="177263"/>
    <path d="M257.63 474.668l-2.213 9.5-14.697 7.72-14.144 25.8L215.3 531.55l-10.628 6.356-27.664.735-10.532 21.84-14.358 7.57-13.16-13.047-13.53 4.159-8.359-10.75-7.575 1.033-15.132-24.666-10.315-9.094-6.904-21-10.704-5.08-.428-13.763-19.102-17.105 11.363 5.917 13.731-3.818 28.425 1.539 24.167-5.234 7.046 8.025 21.874 10.06 18.138-16.975 7.304 14.152 19.25-3.657 7.373-10.97 37.847-.75 14.202 17.641z" data-name="Nereju" class="comuna" id="176944"/>
    <path d="M530.405 471.333l-4.174 17.467-7.124 12.827-.415 3.822-2.567-2.136-12.322-9.59-10.257 5.379-6.126-10.463-1.124-16.978 13.091-11.88 18.76-21.516 19.115-.362-6.857 33.43z" data-name="Cîmpineanca" class="comuna" id="174780"/>
    <path d="M599.146 500.224l-10.908 10.54-27.685 2.442-2.43 15.71-.367.211-11.746-14.022-26.903-13.478 7.124-12.827 4.174-17.467 10.33-9.304 3.864-22.3 9.555-2.239 7.094 1.676-.925 19.378 11.683 4.618 2.153 16.13 12.848-.212 12.139 21.144z" data-name="Focșani" class="municipiu resedinta" id="174744"/>
    <path d="M657.07 438.309l11.832 25.533-2.792 9.034-19.581 6.896-10.703 7.388-16.487-29.424 18.905-6.621 6.54-13.32 12.286.514z" data-name="Biliești" class="comuna" id="178929"/>
    <path d="M499.387 459.782l-13.09 11.88 1.123 16.977-11.5-5.385-13.39.997-7.586-5.616-14.804 3.686-22.633-10.992-1.36-4.49 10.805-12.252 6.605-14.944 26.106-4.364 39.724 24.503z" data-name="Vîrteșcoiu" class="comuna" id="178689"/>
    <path d="M281.467 440.193l-14.451 7.625 2.46 18.114-11.846 8.736-14.202-17.64-37.847.748-7.373 10.97-19.25 3.658 1.313-14.82 11.635 6.01 10.338-15.32 11.431-.902 23.742-11.648 12.328-13.237 14.984.936 16.738 16.77z" data-name="Spulber" class="comuna" id="178965"/>
    <path d="M334.507 417.426l-8.302 13.471 4.084 12.32 14.084 10.867 1.413 13.724-11.625 9.817 3.8 13.349-11.408 8.593-1.997 8.975-19.294 4.381-2.185 8.991-11.445-3.152-4.055-10.151-24.26 3.367-3.016 11.223-26.881 9.87-18.12-1.521 11.276-13.862 14.144-25.8 14.697-7.72 2.213-9.5 11.847-8.736-2.461-18.114 14.451-7.625.07-13.853 8.826-10.428 10.178.553 11.722 8.098 22.244-7.137z" data-name="Andreiașu de Jos" class="comuna" id="175126"/>
    <path d="M492.281 398.39l5.141 11.872 10.574 1.415 2.118-11.996 11.822 2.125 22.42 11.22-2.62 16.501 12.871-1.252-.453 9.215-9.555 2.238-3.865 22.3-10.329 9.305 6.857-33.43-19.116.362-18.758 21.517-39.725-24.503-13.397-8.333-.36-6.898 7.783 5.64 18.91-21.756 19.682-5.543z" data-name="Odobești" class="oras" id="175019"/>
    <path d="M235.845 391.292l4.71 9.977L262 398.573l17.887 5.735 1.651 22.032-.07 13.853-16.738-16.77-14.984-.936-12.328 13.237-23.742 11.648-11.431.902-10.338 15.32-11.635-6.01 11.598-32.87 14.907-14.558 4.028-12.447 25.04-6.417z" data-name="Paltin" class="comuna" id="177101"/>
    <path d="M445.907 420.048l.36 6.898 13.396 8.333-26.106 4.364-6.605 14.944-10.805 12.252-8.543-22.198 2.076-16.559-7.22-17.81 6.72-9.406-1.31-14.984 4.554-12.224 2.13 10.04 13.06 19.326 18.293 17.024z" data-name="Broșteni" class="comuna" id="175466"/>
    <path d="M492.281 398.39l-19.682 5.542-18.91 21.756-7.782-5.64-18.294-17.024-13.059-19.326-2.13-10.04 19.061-7.17 9.077 3.147 34.886-2.932 16.833 31.686z" data-name="Jariștea" class="comuna" id="176506"/>
    <path d="M173.798 359.872l12.135 9.283 12.88 2.531 13.725-8.356 22.883-4.486 9.235 6.019-9.877 13.858 1.066 12.57-25.04 6.418-4.029 12.447-14.907 14.557-11.598 32.871-1.313 14.82-7.304-14.152-18.138 16.975-21.874-10.06-7.046-8.025-24.167 5.234-28.425-1.54-13.732 3.82-11.361-5.918 3.105-18.22-2.549-19.12-7.84-9.738-13.196-3.117-11.493-10.802-11.711-17.379 1.242-14.698 26.629-6.775 8.447 8.48 16.745-6.08 17.061-12.65 19.503 9.96 29.23-.122 19.59 7.123 18.965-17.05 13.159 11.322z" data-name="Nistorești" class="comuna" id="177003"/>
    <path d="M290.192 375.431l3.753 11.806-14.06 17.071L262 398.573l-21.443 2.696-4.711-9.977-1.066-12.57 9.877-13.86 2.835-9.115 18.302-5.803-1.01-10.473 9.475 13.34 13.622 6.742 2.312 15.878z" data-name="Năruja" class="comuna" id="176891"/>
    <path d="M407.87 385.882l1.31 14.984-6.72 9.405 7.22 17.811-2.076 16.559 8.543 22.198 1.36 4.49-8.278 7.384-9.496-7.914-15.769-5.352-8.777 3.164-17.065-8.35-12.336 7.547-1.413-13.724-14.084-10.866-4.084-12.32 8.302-13.472 15.818-1.215 12.376-8.2 2.003-8.847-9.272-38.605L365.7 340.01l16.15-4.716 10.458 19.627 4.46 23.607 11.101 7.353z" data-name="Mera" class="comuna" id="176686"/>
    <path d="M413.43 297.071l5.128-1.033 14.122 15.72 18.397 11.192 13.668 23.71 26.615 16.872 7.763-.19 21.555 12.969 21.52 16.263 2.158 20.451-22.42-11.22-11.823-2.124-2.117 11.996-10.574-1.415-5.14-11.873-16.834-31.686-34.886 2.932-9.077-3.146-19.061 7.17-4.555 12.223-11.101-7.354-4.46-23.607-10.458-19.627-3.417-12.21 6.37-23.79 15.508-4.852 13.12 2.629z" data-name="Bolotești" class="comuna" id="175368"/>
    <path d="M224.183 292.372l14.61 9.613 11.89 2.331 7.412 12.1 12.847-2.952-6.16 26.007 1.01 10.473-18.301 5.803-2.835 9.116-9.235-6.02-22.883 4.486-13.724 8.357-12.88-2.53-12.136-9.284 5.9-16.558 33.25-13.994 5.846-13.608-7.836-17.292 8.974-7.295 4.251 1.247z" data-name="Vrîncioaia" class="comuna" id="178750"/>
    <path d="M335.499 342.37l-13.526.996-11.772 12.67-4.51 12.668-15.5 6.727-2.311-15.878-13.622-6.743-9.475-13.339 6.159-26.007 2.412-19.456-3.647-13.077 23.395.242 28.038 22.108 4.335 14.657-4.478 8.217 14.502 16.216z" data-name="Valea Sării" class="comuna" id="178313"/>
    <path d="M448.093 292.05l23.548 18.968 25.585 16.215 17.88 1.995 19.317 7.382 23.056 10.941.86 20.735-8.535 12.243 21.535-.548-.39 12.31-22.033-3.089-6.719 3.372-21.519-16.264-21.555-12.967-7.763.19-26.615-16.873-13.668-23.71-18.397-11.192-14.122-15.72-5.128 1.033-5.872-14.726 9.628-13.898 19.311 17.204 11.596 6.399z" data-name="Țifești" class="comuna" id="178180"/>
    <path d="M218.614 289.22l1.318 1.905-8.974 7.295 7.836 17.292-5.846 13.608-33.25 13.994-5.9 16.558-13.16-11.323-18.964 17.05-19.59-7.122-29.23.122-19.503-9.96-17.061 12.65-16.745 6.08-8.447-8.48-26.63 6.775L1 353.212l29.57-15.049 19.216-27.261.485-21.813 4.094-15.122 33.555-18.774 23.422 2.602 17.011-3.693 1.182 30.162-9.154 9.369 3.553 18.874 17.442-11.502 18.876 15.952 10.787-3.413 10.112 6.267 15.942-12.137 4.73-8.466 16.791-9.989z" data-name="Păulești" class="comuna" id="178910"/>
    <path d="M269.567 259.597l.14 21.334 3.647 13.077-2.412 19.456-12.847 2.952-7.412-12.1-11.89-2.331-14.61-9.613 4.858-1.576 14.75-36.184 5.53-2.063 20.246 7.048z" data-name="Bârsești" class="comuna" id="175224"/>
    <path d="M392.782 238.438l16.844 16.6 7.56 13.41-9.628 13.897 5.872 14.726-13.119-2.629-15.507 4.852-6.37 23.79 3.416 12.21-16.15 4.716-23.9 5.703-6.301-3.342-14.502-16.216 4.478-8.217-4.335-14.657-28.038-22.108-23.395-.242-.14-21.334 22.39-1.176 11.949 10.692 18.381 3.427 18.522-4.52-1.69-26.506 3.931-12.647 24.829-1.928 8.624-6.43 16.279 17.929z" data-name="Vidra" class="comuna" id="178377"/>
    <path d="M249.321 252.55l-5.53 2.062-14.75 36.184-4.858 1.576-4.251-1.247-1.318-1.906-9.254-29.124-9.526-4.071-22.657 5.143-9.378-10.022 13.953-12.932 24.194-8.211 16.845-10.48 1.821 10.714 24.71 22.313z" data-name="Negrilești" class="comuna" id="178885"/>
    <path d="M298.495 215.771l18.673 5.944 4.434 5.87 21.448 1.282-3.93 12.647 1.69 26.506-18.523 4.52-18.381-3.427-11.949-10.692-22.39 1.176-20.246-7.048-24.709-22.313-1.82-10.714 1.988-16.863 23.55-5.469 21.021 11.872 7.863-2.566 21.281 9.275z" data-name="Vizantea-Livezi" class="comuna" id="178545"/>
    <path d="M462.053 254.708l-3.517 37.241-10.443.1-11.596-6.398-19.311-17.204-7.56-13.409-16.844-16.6 8.157-18.174-22.578-36.07-11.983-14.373 25.037 6.494 39.905 44.517 9.842 18.815 20.891 15.061z" data-name="Străoane" class="comuna" id="177799"/>
    <path d="M135.431 187.302l4.998 22.001 10.563 7.262 2.79 12.834 14.017 21.745 9.378 10.023 22.657-5.143 9.526 4.071 9.254 29.124-16.791 9.989-4.73 8.466-15.942 12.137-10.112-6.267-10.786 3.413-18.877-15.952-17.442 11.502-3.553-18.874 9.154-9.369-1.182-30.162-17.01 3.693-23.423-2.603-33.555 18.775-4.094 15.122-.485 21.813-19.216 27.261L1 353.212l2.919-10.123 7.102-12.897-7.544-14.914L2.32 298.54l12.121-13.147-5.035-19.063 6.253-23.301 26.389-23.328-2.393-16.326 6.918-9.725-3.89-21.01 10.691 3.325 23.392-9.968 16.15 17.077 13.16-1.197 24.617 10.02 4.738-4.596z" data-name="Tulnici" class="comuna" id="178117"/>
    <path d="M309.514 136.322l13.784 12.248 18.73 4.316 24.35 16.935 11.983 14.372 22.578 36.071-8.157 18.174-16.279-17.929-8.624 6.43-24.829 1.928-21.448-1.281-4.434-5.871-18.673-5.944 5.618-11.295-7.7-26.002-8.402-10.502-6.488-19.388 2.5-6.872 12.517-5.975 12.974.585z" data-name="Răcoasa" class="comuna" id="177405"/>
    <path d="M224.78 202.66l-1.989 16.862-16.845 10.48-24.194 8.21-13.953 12.933-14.016-21.746-2.79-12.834-10.564-7.262-4.998-22.001 4.2-18.101 30.947-16.69 7.672-16.211 18.196 4.404 3.682 10.97 28.426 2.46-.204 31.083-6.921 9.331 3.351 8.111z" data-name="Soveja" class="comuna" id="177762"/>
    <path d="M569.402 153.538l-.566 21.004-4.973 14.355 7.727 38.548-32.249 7.055-21.771-9.901 4.794-11.276-5.352-14.876 14.686-36.713 19.39-19.398-4.775-12.331 3.348 7.078 19.741 16.455z" data-name="Pufești" class="comuna" id="177352"/>
    <path d="M531.697 161.734l-14.685 36.713 5.352 14.876-4.794 11.276-10.095.456-9.134-19.826-17.006.127L444 175.665l-8.785-16.964-25.521-16.018-15.868 7.303-12.613-2.785-10.34-8.188 6.894-13.413 22.515 1.967 21.977 6.809 25.952 11.516 21.69-14.5 10.027.998 11.796 15.66 15.306-.233 1.073 7.746 23.594 6.17z" data-name="Păunești" class="comuna" id="177236"/>
    <path d="M370.872 139.013l10.341 8.188 12.613 2.785 16.188 4.426 64.218 60.644 4.444 11.599-7.354 11.71 9.114 11.413-18.383 4.93-20.891-15.061-9.842-18.815-39.905-44.517-25.037-6.494-24.35-16.935-18.73-4.316-13.784-12.248 2.28-7.132 14.267-6.376 10.815 3.879 24.814 13.915 9.182-1.595z" data-name="Fitionești" class="comuna" id="176150"/>
    <path d="M284.024 141.712l-2.501 6.872 6.488 19.387 8.403 10.503 7.699 26.002-5.618 11.295-21.281-9.275-7.863 2.566-21.022-11.872-23.549 5.47-3.351-8.112 6.92-9.331.205-31.082-28.426-2.462-3.682-10.97-18.196-4.403 16.323-2.92 21.954-16.412 9.752 4.23 9.245-6.09 19.73 7.68 9.657-6.566 19.113 25.49z" data-name="Cîmpuri" class="comuna" id="175670"/>
    <path d="M599.045 103.168l8.576 12.91-7.242 5.079 3.673 17.124-7.888 2.05-5.52 15.161-17.211.106-.197-14.549-7.389-5.26 9.033-17.645-12.905-11.392 15.399.496-.846-14.979 17.894-5.197 4.623 16.096z" data-name="Ploscuțeni" class="comuna" id="178894"/>
    <path d="M546.313 130.005l4.774 12.331-19.39 19.398-23.594-6.171-1.073-7.745-15.306.232-11.796-15.66-10.026-.998-21.69 14.5-25.953-11.516-21.977-6.809-22.515-1.967.021-17.467 7.889-9.151 12.332-3.794 6.583-.716 56.068 22.71 8.28-5.73 12.615 4.095-.707-15.487 11.761.57 8.705-14.478 13.064 1.21-5.037 22.726 32.746 20.394 4.226-.477z" data-name="Ruginești" class="comuna" id="177557"/>
    <path d="M688.383 67.13l3.649 41.854-36.603 8.877-30.226 2.81-17.582-4.593-8.576-12.91 23.424-6.224-4.841-11.077 33.159-21.152 21.284 4.132 16.312-1.718z" data-name="Tănăsoaia" class="comuna" id="177879"/>
    <path d="M533.54 31.285l5.914 32.677 5.231 7.816 16.869 9.684.421 25.29 12.905 11.392-9.033 17.645 7.39 5.26.196 14.55-4.03-2.061-19.742-16.455-3.348-7.078-4.226.477-32.746-20.394 5.037-22.725-13.064-1.211 1.849-14.404-8.584-3.206 2.068-11.415 25.437-19.535 1.723-11.139 9.733 4.832z" data-name="Adjud" class="municipiu" id="174860"/>
    <path d="M587.487 22.83l-3.604 7.06 4.923 32.472 6.251 13.516-.635 11.194-17.894 5.197.846 14.98-15.399-.497-.421-25.29-16.869-9.684-5.23-7.816-5.915-32.678 21.944-15.288 10.929 8.63 21.074-1.796z" data-name="Homocea" class="comuna" id="176445"/>
    <path d="M649.838 46.542l.949 18.173-33.16 21.152 4.842 11.077-23.424 6.224-4.623-16.096.635-11.194-6.251-13.516-4.923-32.472 3.604-7.06L582.503 6.6 612.936 1l5.711 2.357 3.166 17.717 8.299 14.523 10.871-.714 8.855 11.659z" data-name="Corbița" class="comuna" id="175787"/>
    <path d="M688.383 67.13l-16.312 1.717-21.284-4.132-.949-18.173 11.411-8.632-3.65-11.894 7.38-15.539 21.044-.633 18.91 8.556 8.128 25.198 22.164-2.393-4.81 13.454 12.147 4.933-12.543.278-1.631 13.25-21.204.09-14.976-11.965-3.825 5.884z" data-name="Boghești" class="comuna" id="175260"/>
    <path d="M480.436 249.778l-2.074 14.086 4.77 12.117 12.19 8.156 23.286-3.315 20.044-9.416 8.936.157-23.558 8.6 9.384 23.734 7.826-2.23 4.697 16.911-11.859 6.641.345 11.39-19.316-7.38-17.88-1.996-25.586-16.215-23.548-18.968 10.443-.1 3.517-37.242 18.383-4.93z" data-name="Panciu" class="oras" id="175055"/>
    <path d="M365.7 340.01l-10.268 20.549 9.272 38.605-2.003 8.847-12.376 8.2-15.818 1.215-22.244 7.137-11.722-8.098-10.178-.553-8.825 10.428-1.652-22.032 14.06-17.071-3.754-11.806 15.5-6.727 4.51-12.668 11.771-12.67 13.526-.995 6.301 3.342 23.9-5.703z" data-name="Reghiu" class="comuna" id="177469"/>
    <path d="M721.518 513.047l-40.1 31.237-22.966-13.178-4.387-7.429-14.13-3.823-4.611-14.139.502-18.555 10.703-7.388 19.58-6.896 2.793-9.034 10.297 14.13 10.822 17.79 23 2.148 8.316 7.812.18 7.325z" data-name="Suraia" class="comuna" id="177842"/>
    <path d="M655.063 423.56l2.007 14.749-12.285-.514-6.541 13.32-18.905 6.621 16.487 29.424-.502 18.555 4.61 14.139-26.106-20.725-14.682 1.095-12.139-21.144-12.848.213-2.153-16.13-11.683-4.62.925-19.377-7.094-1.676.453-9.215.74-13.388 14.617-3.521 13.544 2.327 14.392-8.152 9.88 10.435 21.975-5.17 3.67 14.588 21.638-1.834z" data-name="Vînători" class="comuna" id="178607"/>
    <path d="M622.326 353.684l8.434 26.802 13.17 20.236 11.133 22.839-21.637 1.833-3.67-14.589-21.976 5.171-9.88-10.435-14.392 8.152-13.544-2.327-14.616 3.52-.74 13.39-12.872 1.251 2.62-16.502-2.159-20.451 6.72-3.372 22.033 3.09.39-12.31-21.536.547 8.536-12.243-.861-20.735 15.702 6.51 21.675-1.157 9.245-6.262 18.225 7.042z" data-name="Garoafa" class="comuna" id="176212"/>
    <path d="M460.395 641.443l8.944 8.513 34.096 8.032-1.63 8.912-22.848-.13-7.184 15.478-8.645-10.766-47.916-10.678-6.818-14.47 7.053-5.683 6.176-4.192 22.505 3.995 4.834 7.66 11.433-6.671z" data-name="Tâmboești" class="comuna" id="178046"/>
    <path d="M501.805 666.9l-6.077 35.485-8.563 23.678-13.066-1.956 8.239-6.715-11.026-27.964.461-7.18 7.184-15.479 22.848.13z" data-name="Obrejița" class="comuna" id="178947"/>
    <path d="M471.773 682.248l-.46 7.18 11.025 27.964-8.239 6.715-17.989-4.981-17.647-22.43-10.362-5.717-12.889-30.175 47.916 10.678 8.645 10.766z" data-name="Slobozia Bradului" class="comuna" id="177655"/>
    <path d="M505.438 553.877l13.056 15.923-2.73 16.01-7.086 6.427-13.768-2.788-8.986-7.874-41.085 5.467-7.024-3.988-4.039-13.913-11.36-16.692 11.432-13.915 14.13 19.095 18.308 10.114 15.647-3.224 5.583-6.509 17.922-4.133z" data-name="Urechești" class="comuna" id="178279"/>
    <path d="M516.125 503.313l2.567 2.136-5.152 18.895 9.918 17.63-13.629 4.426-4.39 7.477-17.923 4.133-5.583 6.509-15.647 3.224-18.309-10.114-14.129-19.095-6.029-15.644-14.162-19.051-.658-15.396 11.266 7.297 19.605 27.846 12.538 3.033 20.31-9.92 3.198 7.074 36.21-20.46z" data-name="Cotești" class="comuna" id="175885"/>
    <path d="M307.195 528.863l17.896 22.213 4.99 15.446 23.06-3.244 24.798 10.784 13.26 17.923 15.131 4.547 5.195 20.59 10.098 19.337-6.176 4.192-20.22 8.946-4.47 6.733-4.466-8.117-25.9-7.096-11.714-24.807-32.192-20.087-2.519-14.456-13.208-9.71-6.232-22.02 4.262-22.019 8.407.845z" data-name="Dumitrești" class="comuna" id="175983"/>
    <path d="M422.416 552.45l11.36 16.691 4.04 13.913 18.683 25.649 11.232 4.065-1.364 4.458-13.738-2.86-30.085 5.057-11.02-2.302-5.194-20.589-15.131-4.547-13.26-17.923-24.797-10.784-23.062 3.244-4.99-15.446-17.894-22.213-4.119-6.949 2.185-8.99 19.294-4.382 1.997-8.975 11.407-8.594 17.778 4.314 18.097 14.147 11.374 4.036 1.569 8.472 16.786 20.352 8.333-5.153 10.52 15.308z" data-name="Gura Caliței" class="comuna" id="176338"/>
    <path d="M622.326 353.684l-18.225-7.042-9.245 6.262-21.675 1.156-15.702-6.509-23.056-10.941-.345-11.391 11.86-6.64-4.698-16.913-7.826 2.23-9.384-23.733 23.558-8.6.042-27.878-8.289-9.185 32.25-7.055 4.044 20.782 16.113 28.329 12.338 27.893-7.493 11.905 7.861 16.826 14.325 10.005 3.547 10.5z" data-name="Mărășești" class="oras" id="174922"/>
    <path d="M517.57 224.599l21.771 9.901 8.289 9.185-.042 27.878-8.936-.157-20.044 9.416-23.287 3.315-12.19-8.156-4.769-12.117 2.074-14.086-9.114-11.414 7.354-11.71-4.444-11.598-64.218-60.644-16.188-4.426 15.868-7.303 25.521 16.018L444 175.665l37.335 29.69 17.006-.125 9.134 19.825 10.095-.456z" data-name="Movilița" class="comuna" id="176793"/>
    <path d="M656.945 551.408l-3.348 43.372-18.265 5.327-21.88-8.744-11.028-4.558-13.535-18.832 4.806-3.186 1.976-6.282 18.26-11.348-3.535-6.934 16.598.365 3.42 7.661 16.65-4.616 9.881 7.775z" data-name="Gologanu" class="comuna" id="178938"/>
    <path d="M639.934 519.854l14.131 3.823 4.387 7.429-1.507 20.302-9.882-7.775-16.65 4.616-3.42-7.66-16.597-.366 11.083-6.368-9.724-10.28-23.517-12.811 10.908-10.54 14.682-1.095 26.106 20.725z" data-name="Răstoaca" class="comuna" id="178956"/>
  </g>
</svg>
