<svg xmlns="http://www.w3.org/2000/svg" version="1.2" baseProfile="tiny" stroke-linecap="round" stroke-linejoin="round" viewBox="0 0 800 1048">
  <g id="VS" fill="none" stroke="#aaa">
    <path d="M318.723 976.426l20.162-1.227 10.085 12.27-20.207 6.566 4.662 38.655-12.574 12.888-18.293 1.584-15.804-13.878-20.31-37.54 11.767-11.97 26.577-21.514 13.935 14.166z" id="167311"/>
    <path d="M315.748 865.121l18.496 1.784 9.385 17.882-15.212 15.238-15.679-2.279 10.408 26.019-5.016 11.717 14.184 20.838 3.898 15.32-17.49 4.786-13.934-14.166-26.577 21.513-11.498-18.993 13.168-10.184-18.14-33.491 17.335 2.816 3.221-14.346 14.989-9.562 11.852-38.9 6.61 4.008z" id="166529"/>
    <path d="M677.743 916.174l-25.118 12.732-23.833 2.51-18.397-5.21-8.615-11.356-7.098-20.935 11.338-8.814-6.535-14.893 17.343-.274 19.4-14.397 21.499-6.11 5.997 5.007-4.14 18.67 8.883 27.625 9.276 15.445z" id="162559"/>
    <path d="M514.679 873.853l-7.405 5.934.005 33.379-11.17-.497-24.789 31.924-7.197-15.156-16.722-2.844-1.265-13.18-26.594-.86 3.887-14.73-6.489-19.196 1.59-20.09 48.808 5.991 12.158-10.925-.281-19.884 24.77-6.41 14.284 21.25 2.152 20.095-5.742 5.199z" id="166770"/>
    <path d="M312.818 824.821l9.13 33.712-6.2 6.588-6.61-4.008-25.327 1.928-5.023 10.322-23.632-11.595.021-23.798 4.7-20.705 13.337.087 1.496-13.85 22.655-1.278 15.453 22.597z" id="164543"/>
    <path d="M479.215 833.719l.28 19.884-12.157 10.925-48.808-5.99-7.386-22.221-11.353-.718 13.647-2.026 6.815-41.534L436 800.364l20.238 18.525 10.292-.617 12.685 15.447z" id="167231"/>
    <path d="M389.464 825.154l-26.35 20.904-8.618-1.31 6.901-20.646-2.236-23.508 29.772-17.619 9.823 25.572-9.292 16.606z" id="161794"/>
    <path d="M307.795 754.958l6.816 15.37 11.49 1.65 23.295 18.047 5.42 24.618-20.453 9.066-21.545 1.112-15.453-22.597-22.655 1.279.112-19.144 7.883-6.75-1.668-23.195 5.479-5.354 21.28 5.898z" id="167268"/>
    <path d="M588.887 764.669l12.308 13.212-12.225 18.551.413 9.082-15.38 6.436-13.396 19.64-27.046-10.699-13.554 7.005-15.707-.838 5.716-7.842-15.492-19.902 15.587-12.477 5.298-21.866-1.402-19.23 33.19.147 8.62 14.563 11.572-1.046 13.306 11.525 8.192-6.261z" id="163789"/>
    <path d="M709.668 835.344l13.361.885 2.014 28.632-13.452 17.938 2.029 38.25-14.95-4.933-20.927.058-9.277-15.445-8.883-27.624 4.141-18.67-5.997-5.009-21.498 6.11-20.556 9.7-22.928-20.61-9.951 1.31-22.187-14.346 13.396-19.64 15.38-6.436-.413-9.082 12.225-18.55 6.525-4.566-.048-20.32 21.388-5.344 11.86-13.632 19.361 37.26 6.162 37.418 20.689 23.234 2.522 15.131 14.308-1.1 5.706-10.62z" id="164981"/>
    <path d="M417.186 700.409l23.699 4.682-5.285 10.08 6.34 13.994 15.335 6.046-2.567 10.287 25.836 14.93 2.189-16.367 11.458.244 12.95-10.26 6.866 11.696 1.402 19.23-5.298 21.866-15.587 12.477 15.492 19.902-5.716 7.842-.315.251-24.77 6.41-12.685-15.447-10.292.617L436 800.364l-15.747-8.325-6.815 41.534-13.647 2.026-10.327-10.446 9.292-16.606-9.823-25.572-29.772 17.619-1.761-32.459 4.028-12.847 23.28-2.68 4.395-17.912 9.496-7.4-5.637-19.09 24.224-7.797z" id="167179"/>
    <path d="M361.428 755.288l-4.028 12.847 1.76 32.459 2.237 23.508-6.9 20.646-20.253 22.157-18.496-1.784 6.2-6.588-9.13-33.712 21.545-1.112 20.452-9.066-5.42-24.618-23.294-18.048-11.49-1.649-6.816-15.37-4.565-27.285 7.166-5.084 1.443-18.737 10.477-11.094 15.1-4.904 22.399 18.27 4.478 11.392-9.084 11.054 6.219 26.718z" id="165274"/>
    <path d="M586.896 687.257l13.1 43.31-7.486 12.092-13.57 5.352 9.947 16.658-8.192 6.26-13.306-11.524-11.572 1.046-8.62-14.563-33.19-.147-6.866-11.695-1.922-11.39 11.039-15.332 38.153-2.669 12.273-8.943-10.03-8.866 7.698.372 17.176 17.086 5.368-17.047z" id="166137"/>
    <path d="M236.287 661.303l9.357 1.39 7.925 39.351 13.847 39.428 19.1 7.588-5.48 5.354 1.67 23.194-7.884 6.751-.112 19.144-1.496 13.849-13.338-.087-4.699 20.705-.838-15.09-20.346-.737-19.331-105.182 13.658-10.642-13.586-32.005 3.654-10.927 17.899-2.084z" id="163057"/>
    <path d="M400.038 661.247l11.332 25.577 5.816 13.585-24.224 7.796 5.637 19.09-9.496 7.401-4.396 17.911-23.28 2.681-6.218-26.718 9.084-11.054-4.478-11.393-22.399-18.27-1.844-7.825 25.099-23.036 12.139-2.959 3.48 7.255 23.748-.041z" id="162327"/>
    <path d="M747.428 663.025l9.238 13.66-5.816 15.029 15.007 8.348-8.46 16.08-15.385 14.108-25.752 9.108-2.777 28.248-14.132 24.263-2.1 20.431 13.593 6.963-1.176 16.08-5.706 10.62-14.308 1.1-2.522-15.131-20.689-23.234-6.162-37.417-19.36-37.261-5.152-32.942 5.995-30.943-4.217-16.853-.644-7.016 26.401-6.43 5.627 1.616 9.457 26.095 31.226.003 37.814-4.525z" id="163832"/>
    <path d="M584.56 637.095l10.223 23.274-10.003 12.869 2.116 14.019-5.368 17.047-17.176-17.086-7.698-.372-24.123-3.629-12.607 3.13-10.278-27.909 26.998-4.71 20.21 1.033 1.965-8.681 25.742-8.986z" id="167286"/>
    <path d="M335.572 680.028l1.844 7.826-15.1 4.904-10.477 11.094-1.443 18.737-7.166 5.083 4.565 27.286-21.28-5.898-19.1-7.588-13.846-39.428-7.925-39.35-9.357-1.39 6.92-13.985 6.905 10.018 17.968-4.327 14.803 20.259 34.239-5.164-2.75-32.683 11.976 18.043 9.224 26.563z" id="165416"/>
    <path d="M592.55 616.094l18.989 24.563 20.596 4.507 5.412 8.118 4.217 16.853-5.995 30.943 5.152 32.942-11.86 13.632-21.39 5.344.049 20.32-6.525 4.565-12.308-13.212-9.947-16.658 13.57-5.351 7.486-12.092-13.1-43.311-2.116-14.02 10.003-12.868-10.222-23.274-5.966-26.89 13.956 5.89z" id="163903"/>
    <path d="M578.595 610.205l5.966 26.89-25.742 8.985-1.966 8.68-20.21-1.033-26.997 4.711-43.143-7.432 9.286-7.374 1.621-29.195 10.634 2.428 20.903-11.106 27.854 5.652 41.794-1.206z" id="166707"/>
    <path d="M480.257 606.16l-2.847 8.277-1.62 29.195-9.287 7.374 43.143 7.432 10.277 27.909 12.608-3.13 24.123 3.63 10.03 8.865-12.273 8.943-38.153 2.67-11.039 15.33 1.922 11.39-12.95 10.26-11.458-.244-2.19 16.367-25.835-14.93 2.567-10.288-15.334-6.045-6.341-13.995 5.284-10.079-23.698-4.682-5.815-13.585-1.112-12.883 18.748-7.395 6.795-14.708.07-23.066 12.523-7.996 16.09.96 4.891-21.311 10.882 5.735z" id="162194"/>
    <path d="M293.197 573.399l9.308 38.865 11.867 23.158 2.75 32.683-34.239 5.164-14.803-20.259-17.968 4.327-6.905-10.018 19.46-13.789 5.147-11.473-5.937-36.316 31.32-12.342z" id="164339"/>
    <path d="M689.635 557.28l25.518 19.905 2.229 13.971 10.426 11.15 24.918-3.706 21.18 20.506 1.164 5.562-17.887 20.516 4.105 13.502-13.86 4.34-37.814 4.524-31.226-.003-9.457-26.095-5.627-1.616-22.487-33.08 5.716-20.617 17.178-14.646-15.27-12.837 11.464-18.202 14.65-7.6 15.08 24.426z" id="162498"/>
    <path d="M360.67 656.992l-25.098 23.036-9.224-26.563-11.976-18.043-11.867-23.158-9.308-38.865-6.51-35.206 8.434-14.631.266-.022 17.903 43.65 21.496 39.688 6.945 4.635 18.94 45.479z" id="167222"/>
    <path d="M543.481 521.366l1.66 18.89 13.822 12.6 22.84 37.076 12.435 6.422-1.687 19.74-13.956-5.889-41.794 1.206-27.854-5.652-20.903 11.106-10.634-2.428 2.847-8.277-5.497-7.289-2.935-26.18 6.67-11.57 23.293-4.068-5.062-18.028 46.755-17.66z" id="165817"/>
    <path d="M402.616 512.347l1.8 26.645 11.609 25.83 10.198 6.92 12.293 18.51 9.879 30.524-12.523 7.996-.07 23.066-6.795 14.708-18.748 7.395 1.111 12.883-11.332-25.577 2.68-11.146-15.745-22.91 1.118-26.874-4.322-34.932-16.01-51.679 17.901-4.668 16.956 3.31z" id="162693"/>
    <path d="M773.906 619.106l-21.18-20.506-24.918 3.707-10.426-11.15-2.23-13.972-25.517-19.905 22.425-14.512-2.507-10.191 4.76-2.08 47.367-22.625 8.4 3.023 17.486 19.548 9.212 17.466L799 582.47l-6.945 12.943-11.908-.965-6.241 24.659z" id="166672"/>
    <path d="M367.758 513.706l16.011 51.68 4.322 34.931-1.118 26.875 15.745 22.91-2.68 11.145-23.748.04-3.48-7.254-11.203-34.933.55-11.335-11.689-37.057-1.801-15.143-13.636-7.029 9.554-19.543 17.572-6.5-2.528-18.882 8.13 10.095z" id="162791"/>
    <path d="M261.877 585.74l5.937 36.317-5.148 11.473-19.459 13.79-6.92 13.983-17.9 2.084-9.319-8.31-2.387-20.78-12.9-14.608-10.357-20.885-7.839-31.087-7.925-7.175-14.169-34.561.865-17.075 17.271-2.655L188 522.57l12.111 5.256 35.698-1.113-1.589-27.497 15.004 38.149 6.233 5.565 6.42 42.81z" id="165470"/>
    <path d="M312.53 503.942l4.22 17.133 18.28 27.461 13.637 7.03 1.801 15.142 11.688 37.057-.55 11.335 11.204 34.933-12.14 2.959-18.939-45.48-6.945-4.634-21.496-39.689-17.903-43.649.097-7.521 17.046-12.077z" id="162069"/>
    <path d="M612.101 562.34l18.513 7.281 15.919 16.518-5.716 20.617 22.487 33.08-26.401 6.43.644 7.016-5.412-8.118-20.596-4.507-18.988-24.563 1.687-19.74-12.434-6.423-22.841-37.075-13.822-12.6-1.66-18.89-8.778-11.86 15.992-8.735-.144-8.95 8.533 3.795L598.9 563.88l13.202-1.54z" id="167035"/>
    <path d="M478.495 561.121l-6.67 11.57 2.935 26.18 5.498 7.29-10.882-5.736-4.89 21.312-16.091-.96-9.88-30.525-12.292-18.51-10.198-6.92-11.608-25.83-1.8-26.645 54.091-18.517 9.95-11.976 2.013 23.164 16.334 26.397-8.355 18.536 1.845 11.17z" id="163137"/>
    <path d="M442.796 443.534l15.304 15.743 8.812 16.47-.254 6.107-9.95 11.976-54.092 18.517-16.956-3.31-6.601-26.829 15.97-14.542 27.884-14.21 10.944-13.398 8.94 3.476z" id="163324"/>
    <path d="M320.355 424.389l30.928 42.014 8.346 37.208 2.528 18.881-17.572 6.501-9.554 19.543-18.282-27.46-4.22-17.134-15.226-56.647-3.916-7.577 11.69-20.528 15.278 5.199z" id="162595"/>
    <path d="M295.121 523.562l-8.434 14.631 6.51 35.206-31.32 12.342-6.42-42.811-6.233-5.565-15.004-38.15-18.513-28.666-5.323-38.662 10.205-14.182 14.1-1.133 15.628 29.904 4.532 23.184 13.627-2.376 15.131 36.58 11.514 19.698z" id="163967"/>
    <path d="M220.59 417.705l-10.206 14.182 5.323 38.662 18.513 28.667 1.589 27.497-35.698 1.113L188 522.57l-16.373-16.319-17.271 2.655-17.055-17.926-6.96-16.414L118.081 460l-5.556-19.402 16.738 3.192 22.052-4.379 20.872 8.474 5.541-10.445-3.86-23.91 31.385-5.42 15.336 9.595z" id="166869"/>
    <path d="M442.796 443.534l-8.94-3.476-10.943 13.397-27.885 14.21-15.97 14.543 6.602 26.83-17.902 4.668-8.13-10.095-8.345-37.208-30.928-42.014 16.256-9.05 14.439 1.959 6.509-10.81 30.189-.387 16.495-2.958 9.354-.6 16.436 29.737 12.763 11.254z" id="164687"/>
    <path d="M783.896 394.028l-7.184 9.069-2.402 35.632-11.128 26.31 9.653 16.206-13.455 18.985 2.3 7.642-47.367 22.625 5.785-25.015-1.58-33.355-9.35-4.617-3.457-28.212-9.382-29.55 2.268-13.91 22.891-6.92 4.443 10.707 19.311-8.584 38.654 2.987z" id="164749"/>
    <path d="M275.21 363.267l-8.806 3.632 6.823 19.821 17.981 10.331 13.869 22.139-11.69 20.528 3.916 7.577 15.227 56.647-17.046 12.077-.097 7.521-.266.022-11.514-19.698-15.132-36.58-13.626 2.376-4.532-23.185-15.627-29.903 2.191-26.97 12.617-34.258 25.712 7.923z" id="165336"/>
    <path d="M354.21 361.591l-5.285 6.569 38.823 37.94-30.189.388-6.509 10.81-14.44-1.959-16.255 9.05-15.278-5.2-13.869-22.138 20.63-.916 12.965-8.318 13.182-.28 1.857-19.733 14.368-6.213z" id="167320"/>
    <path d="M523.376 338.52l26.398 30.54-7.968 10.77 9.854 18.506 14.382 14.553 8.656-7.199 12.817 29.038-19.34 17.287-24.757 13.747-11.043 6.285-22.038.5-10.895-7.632-8.927 6.612-9.095-11.681-3.732-21.99 17.072-8.49 17.843-21.883-7.65-5.35-2.386-19.288 6.188-39.994 14.62-4.331z" id="165069"/>
    <path d="M339.842 367.804l-1.857 19.732-13.182.28-12.965 8.319-20.63.916-17.98-10.33-6.825-19.822 8.807-3.632 11.958-28.807 20.86 7.546 6.493 17.717 14.52 10.214 10.801-2.133z" id="164598"/>
    <path d="M137.585 361.3l13.727 19.066 7.827 23.022 14.73 10.143 3.86 23.91-5.542 10.444-20.872-8.474-22.052 4.379-16.738-3.192-8.16-12.496-15.48-11.107-16.308-19.774 28.182-29.116-10.532-16.742 22.583-27.838 13.17 13.506.69 11.676 10.915 12.594z" id="163486"/>
    <path d="M602.716 318.843l10.343 6.333 6.565 18.139 14.312 12.086-11.395 10.004 7.7 19.243-10.641 4.426 12.393 30.455-21.552-34.93-11.978 10.536-11.99-6.06-11.775 16.615-8.656 7.2-14.382-14.554-9.854-18.506 7.968-10.77 18.643-21.646 5.54-16.323 28.76-12.248z" id="163208"/>
    <path d="M367 318.668l8.857 7.961 1.274 7.856-22.385 20.738-.536 6.368-14.368 6.213-10.8 2.133-14.521-10.214-6.493-17.717-20.86-7.546 21.85-28.08 30.8 3.895 19.504 31.442 7.678-23.05z" id="162452"/>
    <path d="M442.033 348.635l8.808-.974 27.483 16.223.106 11.773-24.666 13.16-16.623-14.666-16.86 1.801 2.853 18.128-18.891 9.063-16.495 2.958-38.823-37.941 5.285-6.569.536-6.368 22.385-20.738-1.274-7.856 18.612-3.132-5.664-16.845 25.326 18.074 21.388 10.632 6.514 13.277z" id="161945"/>
    <path d="M223.036 311.701l-4.118 10.654 30.58 32.99-12.617 34.257-2.191 26.97-14.1 1.133-15.337-9.594-31.385 5.42-14.728-10.143-7.828-23.022-13.727-19.065 18.78-15.637 18.768 12.099 1.575-13.61 13.565-5.026-5.359-29.429 6.132-7.226 31.99 9.229z" id="164393"/>
    <path d="M432.68 301.22l11.482 2.474 7.193 20.542-9.322 24.4-6.514-13.278-21.388-10.632-25.326-18.074-4.843-9.191 18.208-14.108 30.51 17.867z" id="167302"/>
    <path d="M502.27 292.956l12.026 16.38 9.08 29.184-14.621 4.331-6.188 39.994 2.385 19.288-21.628-13.596-4.894-12.88-.106-11.773-27.483-16.223-8.808.974 9.322-24.399-7.193-20.542-11.481-2.474 3.618-19.884 8.509-1.427 28.712 14.714 28.75-1.667z" id="166182"/>
    <path d="M309.018 306.38l-21.85 28.08-11.958 28.807-25.712-7.923-30.58-32.989 4.118-10.654 29.994 7.261 2.293-13.462 15.621-32.843 20.977 15.793 17.097 17.93z" id="163379"/>
    <path d="M733.473 267.907l16.83 13.203-2.142 15.119 20.05 20.76 5.619 28.447 11.398 31.33-1.332 17.262-38.654-2.987-19.31 8.584-4.444-10.707-22.89 6.92-13.463-7.753-9.292-17.388-5.187-20.477 17.627 8.005 6.077 14.253 15.219-5.214-5.501-14.507 11.658-19.418-2.426-31.968-5.77-4.189-17.157-21.457 17.364 1.288 25.726-9.106z" id="165979"/>
    <path d="M270.944 272.657L255.323 305.5l-2.293 13.462-29.994-7.261-31.99-9.229-17.21-10.73-10.46-16.008 28.685-7.575 8.123 6.366 16.808-.118 23.48-17.107 5.614-3.386 24.858 18.743z" id="167277"/>
    <path d="M139.358 249.373l24.019 26.36 10.458 16.01 17.211 10.73-6.132 7.225 5.359 29.429-13.565 5.026-1.575 13.61-18.768-12.099-18.78 15.637-10.914-12.594-.691-11.676-13.17-13.506-22.583 27.838-6.02-6.274 12.418-19.114 10.355-6.727-30.243-19.198 11.355-1.642 7.068-16.593 11.907 11.674 15.898 1.514 6.186-12.765.202-31.097 10.005-1.768z" id="165611"/>
    <path d="M595.732 265.545l6.312 19.405-4.093 13.512 4.765 20.381-28.759 12.248-5.54 16.323-18.643 21.647-26.398-30.541-9.08-29.183-12.027-16.38 17.127-6.966 6.777-13.131 26.652-8.954.915-18.486 30.547.19 11.445 19.935z" id="166315"/>
    <path d="M93.593 225.319l15.443 9.713 9.687-4.838 10.63 20.947-.202 31.097-6.186 12.765-15.898-1.514-11.907-11.674-7.068 16.593-11.355 1.642L42.2 281.44l-2.143-12.852-19.078-13.54 12.858-10.46 5.79 6.45 27.132-8.693 7.05-14.601 19.784-2.425z" id="164062"/>
    <path d="M658.99 228.631l12.503 21.123 27.578 5.537 23.385-5.854 7.235 8.127 3.782 10.343-25.726 9.106-17.364-1.288 17.156 21.457-18.892 5.605-5.185-7.846-27.05 8.176-21.646.747-32.722-18.914-6.312-19.405 10.274-16.68 1.069-15.344 46.88-10.721 5.035 5.831z" id="163681"/>
    <path d="M367 318.668l-7.678 23.05-19.503-31.443-30.8-3.895-17.098-17.93-20.977-15.793-24.858-18.742-5.614 3.385 2.319-10.597 35.304-13.47 18.89 1.116 14.008 21.913 7.344-14.039 11.916 37.465 17.575 16.81 17.92-1.87 1.252 24.04z" id="166057"/>
    <path d="M215.28 214.177l5.557 14.506 21.954 18.02-2.319 10.597-23.48 17.107-16.808.118-8.123-6.366-28.684 7.575-24.019-26.361L151.453 236l19.278-12.326-3.727-21.182 25.809 8.805 22.468 2.879z" id="165130"/>
    <path d="M444.808 279.909l-8.509 1.427-3.618 19.884-30.51-17.868-11.904-35.86 8.692-7.533-3.357-22.138 15.742-11.435 1.89-11.635 8.138 2.665 18.554 34.227-6.521 9.27 7.928 13.21 3.475 25.786z" id="166636"/>
    <path d="M167.004 202.493l3.727 21.182-19.278 12.326-12.095 13.372-10.005 1.768-10.63-20.947-9.687 4.838-15.444-9.714 29.983-22.077.816-6.816 5.029 5.505 22.496-5.986 15.088 6.549z" id="167240"/>
    <path d="M405.378 184.296l7.855 10.455-1.89 11.635-15.74 11.435 3.356 22.138-8.692 7.533-14.602-16.548-23.313-7.81.375-12.3 18.918-20.019 13.299-3.63 7.103-13.42 13.33 10.531z" id="167295"/>
    <path d="M288.987 177.452l-14.002 7.247.235 18.124 8.761 19.374-5.886 11.036-35.304 13.47-21.954-18.02-5.556-14.506 9.368-12.294 6.869-20.581 31.263-8.663 1.734 6.23 24.472-1.417z" id="166985"/>
    <path d="M307.895 170.833l9.187 8.956 23.227 6.407 3.814 23.917 8.604.72-.375 12.302 23.313 7.809 14.602 16.548 11.903 35.86-18.208 14.109 4.843 9.19 5.664 16.846-18.612 3.132-8.857-7.962-1.252-24.038-17.92 1.87-17.575-16.811-11.916-37.465-7.344 14.039-14.009-21.913-18.889-1.116 5.886-11.036-8.761-19.374-.235-18.124 14.002-7.247 18.908-6.619z" id="167071"/>
    <path d="M482.17 222.912l22.305 33.175 1.242 14.38 16.354-7.316 4.102 9.709-6.777 13.13-17.127 6.966-28.75 1.666-28.711-14.713-3.475-25.785-7.928-13.21 6.521-9.271-18.554-34.227-8.139-2.665-7.855-10.455 6.86-9.553 25.046-10.781 7.533 11.662-2.632 22.12 10.643-.337 29.341 25.505z" id="165899"/>
    <path d="M618.076 150.12l10.663 22.203 8.32 2.946 11.097 16.752 18.904 13.354 4.463 12.545-12.533 10.711-5.035-5.831-46.88 10.721-4.226-8.21 5.049-31.46-14.004-16.936-8.212-22.89 18.19 4.252 14.204-8.156z" id="162149"/>
    <path d="M729.69 257.564l-7.234-8.127-23.385 5.854-27.578-5.537-12.503-21.123 12.533-10.711-4.463-12.545-18.904-13.354-11.097-16.752-8.32-2.946-10.663-22.203 14.049-10.823 27.49 1.681 16.705 10.392.152 16.312 14.947 20.058 8.15.338 17.82 33.09 12.302 36.396z" id="163618"/>
    <path d="M108.848 138.974l19.042 16.072-3.499 41.38-.816 6.815-29.983 22.077-19.782 2.426-10.82-27.347-3.176-20.634-12.926-38.873 19.43-4.684 12.385 4.016 30.145-1.248z" id="163734"/>
    <path d="M239.09 127l2.287 11.483 21.404 34.156-31.263 8.663-6.869 20.58-9.368 12.295-22.468-2.879-25.81-8.805-3.324-13.761 9.563-17.682-7.648-14.29 5.007-19.882 2.566 5.682 49.043-16.678L239.09 127z" id="161856"/>
    <path d="M707.54 297.182l5.77 4.19 2.426 31.967-11.658 19.418 5.5 14.507-15.218 5.214-6.077-14.253-17.627-8.005-18.104 4.607-10.329-10.346-8.287 10.92-14.312-12.086-6.565-18.139-10.342-6.333-4.766-20.38 4.093-13.513 32.722 18.914 21.646-.747 27.05-8.176 5.185 7.846 18.892-5.605z" id="161829"/>
    <path d="M670.656 350.22l5.187 20.477 9.292 17.388 13.462 7.754-2.268 13.91 9.382 29.55 3.457 28.211 9.35 4.618 1.58 33.353-5.785 25.016-4.76 2.08-11.61-5.255-1.378-19.459-12.953-27.94-29.743-48.064-21.876-12.33-12.393-30.455 10.64-4.426-7.7-19.243 11.396-10.004 8.287-10.92 10.33 10.346 18.103-4.607z" id="165185"/>
    <path d="M309.138 861.113l-11.852 38.9-14.989 9.562-3.22 14.346-17.336-2.816-7.91-17.468-12.914-1.601 10.8-21.234 3.439-19.034 23.632 11.595 5.023-10.322 25.327-1.928z" id="167259"/>
    <path d="M481.42 459.846l9.095 11.681 8.927-6.612 10.895 7.631 22.038-.499 11.043-6.285 7.134 26.06.143 8.95-15.992 8.733 8.778 11.86-46.755 17.66 5.062 18.028-23.293 4.068-1.845-11.17 8.355-18.536-16.334-26.397-2.013-23.164.254-6.107-4.509-11.23 19.017-4.671z" id="162014"/>
    <path d="M478.43 375.657l4.894 12.88 21.628 13.596 7.65 5.35-17.842 21.883-17.072 8.49 3.732 21.99-19.017 4.671 4.509 11.23-8.812-16.47-15.304-15.743-12.763-11.254-16.436-29.737-9.354.6 18.89-9.063-2.852-18.128 16.86-1.801 16.623 14.666 24.666-13.16z" id="164936"/>
    <path d="M560.607 831.59l22.187 14.346 9.95-1.31 22.929 20.61 20.556-9.7-19.4 14.398-17.344.274 6.535 14.893-11.338 8.814-18.22 7.401-10.517-18.04-11.488-1.023-28.285 9.806-2.62-16.594-8.873-1.612 5.742-5.2-2.152-20.095-14.284-21.249.315-.251 15.707.838 13.554-7.005 27.046 10.7z" id="164829"/>
    <path d="M399.791 835.599l11.353.718 7.386 22.22-1.59 20.09 6.489 19.197-3.887 14.73-40.549-1.812-15.857-7.482-17.326 6.993-17.393-10.228 15.212-15.238-9.385-17.882 20.252-22.157 8.619 1.31 26.35-20.904 10.326 10.445z" id="164133"/>
    <path d="M170.601 136.878l-5.007 19.883 7.648 14.289-9.563 17.682 3.325 13.76-15.088-6.548-22.496 5.986-5.029-5.505 3.499-41.38-19.042-16.071 10.31-14.836 33.745-14.002 3.45 18.72 14.248 8.022z" id="166413"/>
    <path d="M510.328 172.249l-19.128 2.448 2.777 12.85-9.044 13.602 4.519 11.192-7.283 10.57-29.34-25.504-10.644.337 2.632-22.12-7.533-11.662-3.541-11.352 10.509-16.508 17.875 5.915 10.467-11.812 22.637 8.524 2.645 17.203 12.452 16.317z" id="164892"/>
    <path d="M541.554 175.87l4.728 9.05-5.649 23.874 4.014 20.454 9.093 16.172-.915 18.486-26.652 8.954-4.102-9.709-16.354 7.316-1.242-14.38-22.306-33.175 7.283-10.57-4.519-11.193 9.044-13.603-2.777-12.849 19.128-2.448 7.39 17.413 10 1.133 13.836-14.925z" id="162871"/>
    <path d="M585.682 154.026l8.212 22.889 14.004 16.936-5.05 31.46 4.227 8.21-1.07 15.344-10.273 16.68-11.445-19.935-30.547-.19-9.093-16.172-4.014-20.454 5.649-23.875-4.728-9.05 10.988-3.707-12.102-17.948 9.486-16.655 27.232-3.652 8.524 20.119z" id="162924"/>
    <path d="M361.546 111.96l25.603 4.207 5.803 7.262-26.072 18.373 25.167 31.964-7.103 13.419-13.3 3.63-18.917 20.018-8.604-.72-3.814-23.917-23.227-6.407-9.187-8.956 5.5-15.122 18.269-25.956-.65-27.403.637-2.206 10.817 8.85 19.078 2.963z" id="163253"/>
    <path d="M331.013 102.352l.651 27.404-18.268 25.955-5.501 15.122-18.908 6.619-24.472 1.417-1.734-6.23-21.404-34.156L239.09 127l5.386-16.816-3.67-24.982 19.878-.409 10.71 20.961 17.246 5.105.505 11.924 26.838-16.534 15.03-3.897z" id="165719"/>
    <path d="M444.252 136.102l-10.51 16.507 3.542 11.352-25.046 10.782-6.86 9.553-13.331-10.53-25.167-31.964 26.072-18.373-5.803-7.262-25.603-4.208 9.822-19.778 15.074-3.256 11.368 14.827 15.572 1.8 9.535 14.2 16.917 1.475-1.284-12.33-16.743-64.413 14.837 5.56.728 11.2 14.474 13.042-.161 25.093 4.09 10.801-11.523 25.922z" id="163002"/>
    <path d="M46.888 140.89l12.926 38.873 3.176 20.634 10.82 27.347-7.05 14.601-27.132 8.692-5.791-6.45 3.113-7.53-14.019-11.643 1.365-63.696-14.162-7.752L1 138.056l9.87-11.756 17.86 14.622 18.158-.032z" id="162381"/>
    <path d="M413.382 105.552l-15.572-1.8-11.368-14.827-15.074 3.256-9.822 19.778-19.078-2.962-10.817-8.851-10.943-25.663-10.045-2.251-.766-26.97-7.797-7.4L311.63 1l13.732 15.584 12.323.132 20.31 21.285 8.256 19.05 8.404-3.412 14.772 20.833 5.926-2.62 18.03 33.7z" id="166235"/>
    <path d="M598.463 395.135l4.011 23.435 11.722 28.15 26.083 43.463-9.413 4.336 11.185 25.666-7.197 24.563-17.366-.795-5.387 18.387-13.202 1.54-39.815-68.264-8.532-3.794-7.134-26.06 24.756-13.747 19.34-17.287-12.816-29.038 11.774-16.615 11.99 6.06z" id="164197"/>
    <path d="M631.993 419.53l21.876 12.33 29.743 48.063 12.953 27.94 1.377 19.46 11.61 5.254 2.508 10.191-22.425 14.512-15.08-24.425-14.65 7.599-11.465 18.202 15.271 12.837-17.178 14.646-15.919-16.518-18.513-7.281 5.387-18.387 17.366.795 7.197-24.563-11.185-25.666 9.413-4.336-26.083-43.463-11.722-28.15-4.011-23.435 11.978-10.536 21.552 34.93z" id="164277"/>
  </g>
</svg>
