<svg xmlns="http://www.w3.org/2000/svg" version="1.2" baseProfile="tiny" stroke-linecap="round" stroke-linejoin="round" viewBox="0 0 800 1048">
  <g id="VS" fill="none" stroke="#aaa">
    <path d="M318.373 972.051l20.178-1.228 10.239 12.372-20.369 6.478 4.665 38.683-12.583 12.897-17.834 5.608-8.882-8.26-27.73-47.217 11.774-11.98 26.597-21.529 13.945 14.176z" data-name="Pochidia" class="comuna" id="167311"/>
    <path d="M315.396 860.665l18.51 1.786 9.391 17.895-15.222 15.248-15.69-2.28 10.415 26.038-5.02 11.726 14.194 20.853 3.901 15.332-17.502 4.788-13.945-14.176-26.596 21.529-11.506-19.007 13.177-10.192-18.152-33.515 17.347 2.818 3.223-14.356 15-9.57 11.86-38.928 6.615 4.011z" data-name="Tutova" class="comuna" id="166529"/>
    <path d="M677.655 911.755l-25.137 12.741-23.85 2.513-.095-11.055-18.315 5.84-2.805-6.894-12.92-25.42 11.346-8.82-6.539-14.904 17.356-.274 19.414-14.408 21.514-6.115 6.002 5.012-4.144 18.684 8.89 27.644 9.283 15.457z" data-name="Blăgești" class="comuna" id="162559"/>
    <path d="M514.472 869.403l-7.41 5.939.42 30.177-11.594 2.729-15.668 17.01 5.657 7.102-20.16 10.51-1.838-17.842-16.734-2.846-1.266-13.189-26.613-.86 3.89-14.741-6.494-19.21 8.303-2.219-6.712-17.886 48.844 5.995 12.166-10.934-.28-19.898 24.787-6.414 14.294 21.264 2.154 20.11-5.746 5.203z" data-name="Vinderei" class="comuna" id="166770"/>
    <path d="M312.465 820.336l9.136 33.736-6.205 6.593-6.614-4.01-25.346 1.928-5.026 10.33-15.398-3.245-8.252-8.358.021-23.815 4.703-20.72 13.347.086 1.498-13.859 3.67 6.27 19.001-7.55 15.465 22.614z" data-name="Ivești" class="comuna" id="164543"/>
    <path d="M478.982 829.24l.281 19.898-12.166 10.934-48.844-5.995-7.39-22.237-11.363-.718 13.657-2.027 6.82-41.565 15.758 8.33 20.254 18.54 10.299-.617 12.694 15.457z" data-name="Fruntișeni" class="comuna" id="167231"/>
    <path d="M389.166 820.669l-26.368 20.92-8.625-1.312 6.906-20.661-2.238-23.525 20.593-15.504 9.2-2.127 9.83 25.59-9.298 16.619z" data-name="Bîrlad" class="municipiu" id="161794"/>
    <path d="M307.438 750.422l6.821 15.382 11.498 1.65 23.312 18.06 5.423 24.636-20.468 9.073-21.56 1.113L297 797.723 278 805.273l-3.67-6.271.112-19.158 7.888-6.755-1.669-23.211 5.483-5.358 21.295 5.902z" data-name="Ciocani" class="comuna" id="167268"/>
    <path d="M588.735 760.14l12.316 13.222-12.234 18.564.414 9.089-15.392 6.44-13.406 19.655-27.065-10.707-13.564 7.01-15.719-.839 5.72-7.847-15.503-19.917 15.599-12.486 5.301-21.882-7.22-10.301 5.818-8.942 33.213.147 8.627 14.573 11.581-1.047 13.315 11.534 8.199-6.266z" data-name="Epureni" class="comuna" id="163789"/>
    <path d="M709.603 830.866l13.37.886 2.016 28.653-13.462 17.951 2.03 38.278-5.882 4.464-9.077-9.4-20.943.058-9.284-15.457-8.889-27.644 4.144-18.684-6.002-5.012-21.514 6.115-20.57 9.706-22.945-20.625-9.959 1.312-22.203-14.357 13.406-19.654 15.392-6.441-.414-9.089 12.234-18.564 6.53-4.569-.049-20.335 21.404-5.348-1.069-11.315 12.939-2.326 19.374 37.287 6.167 37.445 20.703 23.25 2.525 15.143 14.318-1.102 5.71-10.626z" data-name="Murgeni" class="oras" id="164981"/>
    <path d="M416.908 695.833l23.716 4.686-5.289 10.086 6.346 14.005 15.346 6.05-2.57 10.295 25.855 14.94 2.19-16.378 11.467.245 12.96-10.267 6.87 11.704-5.816 8.942 7.22 10.301-5.302 21.882-15.599 12.486 15.504 19.917-5.72 7.847-.316.252-24.788 6.414-12.694-15.457-10.3.617-20.253-18.54-15.757-8.33-6.821 41.565-13.656 2.027-10.335-10.453 9.299-16.619-9.83-25.59-9.2 2.127-20.594 15.504-3.337-4.384 1.574-28.098 4.031-12.856 23.297-2.683 4.4-17.925 9.502-7.406-5.641-19.104 24.241-7.802z" data-name="Zorleni" class="comuna" id="167179"/>
    <path d="M361.11 750.753l-4.032 12.856-1.574 28.098 3.337 4.384 2.238 23.525-6.906 20.661-20.268 22.174-18.509-1.786 6.205-6.593-9.136-33.736 21.56-1.113 20.467-9.073-5.423-24.635-23.312-18.062-11.498-1.65-6.821-15.38-4.569-27.306 7.172-5.087 1.444-18.751 10.484-11.102 15.112-4.908 22.414 18.283 4.482 11.4-9.091 11.063 6.223 26.738z" data-name="Perieni" class="comuna" id="165274"/>
    <path d="M586.742 682.672l13.11 43.342-7.493 12.1-13.58 5.356 9.956 16.67-8.2 6.266-13.314-11.534-11.581 1.047-8.627-14.573-33.213-.147-6.871-11.704-1.924-11.399 11.047-15.342 38.181-2.671 12.282-8.95-10.038-8.872 7.704.372 17.189 17.098 5.372-17.06z" data-name="Șuletea" class="comuna" id="166137"/>
    <path d="M235.877 656.7l9.364 1.39 7.931 39.38 9.862 21.412 3.995 18.044 15.823-.363 3.29 7.957-5.482 5.358 1.67 23.21-7.89 6.756-.111 19.158-1.498 13.86-13.347-.088-4.703 20.72-.838-15.101-20.362-.737-4.246-16.914-1.404-14.031-13.694-74.313 13.668-10.65-13.596-32.028 3.656-10.936 17.912-2.085z" data-name="Coroiești" class="comuna" id="163057"/>
    <path d="M399.747 656.643l11.341 25.596 5.82 13.594-24.241 7.802 5.64 19.104-9.502 7.406-4.4 17.925-23.296 2.683-6.223-26.738 9.09-11.062-4.48-11.401-22.415-18.283-1.846-7.832 25.117-23.053 12.148-2.96 3.483 7.26 23.764-.041z" data-name="Băcani" class="comuna" id="162327"/>
    <path d="M747.39 658.422l9.245 13.67-5.82 15.04 15.018 8.355-8.467 16.09-15.395 14.119-25.77 9.114-2.78 28.269-14.143 24.28-2.1 20.447 13.602 6.968-1.177 16.092-5.71 10.626-14.318 1.102-2.525-15.142-20.703-23.251-6.167-37.445-19.374-37.287-5.156-32.966 6-30.965-4.221-16.866-.644-7.021 26.42-6.435 5.631 1.617 9.464 26.115 31.25.003 37.84-4.529z" data-name="Fălciu" class="comuna" id="163832"/>
    <path d="M584.404 632.473l10.23 23.29-10.01 12.88 2.118 14.029-5.372 17.06-17.189-17.1-7.704-.371-24.14-3.632-12.617 3.132-10.285-27.929 27.018-4.714 5.795 6.348 14.429-5.314 1.968-8.687 25.76-8.992z" data-name="Dodești" class="comuna" id="167286"/>
    <path d="M335.235 675.437l1.846 7.832-15.112 4.908-10.484 11.102-1.444 18.75-7.172 5.088 4.569 27.305-21.295-5.902-3.291-7.957-15.823.363-3.995-18.044-9.862-21.412-7.93-39.38-9.364-1.39 6.925-13.995 6.91 10.024 17.98-4.329 14.815 20.273 34.263-5.167-2.751-32.707 11.985 18.056 9.23 26.582z" data-name="Pogana" class="comuna" id="165416"/>
    <path d="M592.4 611.457l19.002 24.58 20.611 4.51 5.416 8.125 4.22 16.866-6 30.965 5.157 32.966-12.939 2.326 1.07 11.315-21.405 5.348.049 20.335-6.53 4.569-12.317-13.222-9.955-16.67 13.58-5.355 7.492-12.1-13.109-43.343-2.118-14.03 10.01-12.878-10.23-23.291 6.984-1.502-12.953-25.407 13.966 5.893z" data-name="Găgești" class="comuna" id="163903"/>
    <path d="M578.435 605.564l12.953 25.407-6.984 1.502-25.76 8.992-1.967 8.687-14.429 5.314-5.795-6.348-27.018 4.714-43.174-7.438 9.293-7.379 1.622-29.217 10.642 2.43 20.918-11.113 27.874 5.655 41.825-1.206z" data-name="Viișoara" class="comuna" id="166707"/>
    <path d="M480.026 601.516l-2.85 8.282-1.622 29.217-9.293 7.38 43.174 7.437 10.285 27.929 12.617-3.132 24.14 3.632 10.038 8.872-12.282 8.95-38.181 2.67-11.047 15.343 1.924 11.399-12.96 10.267-11.466-.245-2.191 16.379-25.854-14.941 2.569-10.295-15.346-6.05-6.346-14.005 5.289-10.086-23.716-4.686-5.82-13.594-1.112-12.893 18.762-7.4 6.8-14.719.07-23.083 12.532-8.001 16.102.96 4.894-21.327 10.89 5.74z" data-name="Banca" class="comuna" id="162194"/>
    <path d="M292.83 568.73l9.313 38.895 11.877 23.174 2.751 32.707-34.263 5.167-14.814-20.273-17.982 4.33-6.91-10.025-5.123-7.2 24.597-6.6 5.151-11.481-5.94-36.342 31.342-12.351z" data-name="Iana" class="comuna" id="164339"/>
    <path d="M689.555 552.6l25.537 19.92 2.23 13.98 10.434 11.16 24.936-3.71 21.195 20.52 1.165 5.567-17.9 20.531 4.109 13.512-13.87 4.342-37.842 4.529-31.249-.003-9.464-26.115-5.63-1.617-22.504-33.104 5.72-20.632 17.19-14.656-15.281-12.847 11.472-18.215 14.66-7.605 15.092 24.443z" data-name="Berezeni" class="comuna" id="162498"/>
    <path d="M360.352 652.384l-25.117 23.053-9.23-26.582-11.985-18.056-11.877-23.174-9.313-38.894-6.516-35.232 8.44-14.642.267-.021 17.915 43.68 21.512 39.719 6.95 4.637 18.954 45.512z" data-name="Ibănești" class="comuna" id="167222"/>
    <path d="M543.295 516.66l1.661 18.904 13.832 12.61 22.858 37.101 12.443 6.427 6.158 14.457-7.846 5.298-13.966-5.893-41.825 1.206-27.874-5.655-20.918 11.113-10.642-2.43 2.85-8.282-5.502-7.294-2.937-26.2 6.675-11.578 23.31-4.071-5.066-18.041 46.79-17.672z" data-name="Roșiești" class="comuna" id="165817"/>
    <path d="M402.328 507.635l1.802 26.664 11.616 25.85 10.206 6.923 12.301 18.524 9.887 30.547-12.532 8-.07 23.084-6.8 14.719-18.762 7.4 1.113 12.893-11.342-25.596 2.683-11.154-15.757-22.926 1.12-26.894-5.963-27.247 1.637-7.71-16.023-51.717 17.916-4.672 16.968 3.312z" data-name="Bogdănești" class="comuna" id="162693"/>
    <path d="M773.887 614.47l-21.195-20.52-24.936 3.71-10.433-11.16-2.231-13.98-25.537-19.92 22.442-14.522-2.51-10.199 4.764-2.081 47.402-22.642 8.406 3.026 17.498 19.561 9.22 17.48L799 577.806l-6.95 12.953-11.917-.965-6.246 24.676z" data-name="Vetrișoaia" class="comuna" id="166672"/>
    <path d="M367.444 508.995l16.023 51.717-1.637 7.71 5.962 27.247-1.119 26.894 15.757 22.926-2.683 11.154-23.764.04-3.483-7.26-11.212-34.958.55-11.344-11.696-37.083-1.803-15.154-13.646-7.034 9.561-19.557 17.585-6.506-2.53-18.895 8.135 10.103z" data-name="Bogdănița" class="comuna" id="162791"/>
    <path d="M261.486 581.082l5.941 36.342-5.15 11.482-24.598 6.6 5.124 7.199-6.925 13.994-17.913 2.085-9.326-8.315-2.389-20.796-12.91-14.619-13.112-30.73-5.096-21.28-7.932-7.18-14.178-34.586.865-17.087 17.284-2.657 16.384 16.33 12.12 5.26 35.724-1.113-5.168-23.153 3.578-4.365 15.015 38.177 6.237 5.57 6.425 42.841z" data-name="Puiești" class="comuna" id="165470"/>
    <path d="M312.176 499.224l4.222 17.145 13.76 26.583 4.535.898 13.646 7.034 1.803 15.154 11.697 37.083-.55 11.344 11.21 34.959-12.147 2.96-18.954-45.512-6.95-4.637-21.512-39.718-17.915-43.681.097-7.527 17.058-12.086z" data-name="Alexandru Vlahuță" class="comuna" id="162069"/>
    <path d="M611.965 557.663l3.022 8.613 15.505-1.326 15.93 16.53-5.72 20.632 22.503 33.104-26.42 6.435.644 7.02-5.416-8.123-20.61-4.51-19.002-24.58 7.846-5.299-6.158-14.457-12.443-6.427-22.858-37.102-13.832-12.609-1.66-18.904-8.785-11.87 16.003-8.74-.143-8.956 8.539 3.797 39.843 68.314 13.212-1.542z" data-name="Vutcani" class="comuna" id="167035"/>
    <path d="M478.262 556.444l-6.675 11.578 2.937 26.2 5.502 7.294-10.89-5.74-4.894 21.328-16.102-.961-9.887-30.547-12.3-18.524-10.207-6.924L404.13 534.3l-1.802-26.664 54.131-18.53 9.957-11.985 2.014 23.18 16.347 26.416-8.362 18.55 1.846 11.178z" data-name="Costești" class="comuna" id="163137"/>
    <path d="M442.537 438.771l15.315 15.755 8.818 16.482-.254 6.112-9.957 11.984-54.131 18.53-16.968-3.311-6.607-26.85 15.982-14.552 27.904-14.221 10.952-13.407 8.946 3.478z" data-name="Deleni" class="comuna" id="163324"/>
    <path d="M320.007 419.612l30.95 42.045 8.352 37.235 2.53 18.895-17.585 6.506-9.56 19.557-4.536-.898-13.76-26.583-4.222-17.146-15.238-56.688-3.918-7.582 11.697-20.544 15.29 5.203z" data-name="Bogdana" class="comuna" id="162595"/>
    <path d="M294.755 518.857l-8.441 14.642 6.515 35.231-31.343 12.351-6.425-42.841-6.237-5.57-15.015-38.176-18.527-28.688-5.327-38.69 10.213-14.192 14.111-1.134 15.64 29.925 4.534 23.201 13.636-2.378 15.143 36.608 11.523 19.711z" data-name="Gherghești" class="comuna" id="163967"/>
    <path d="M220.168 412.924l-10.213 14.192 5.327 38.69 18.527 28.688-3.578 4.364 5.168 23.153-35.724 1.114-12.12-5.26-16.384-16.33-17.284 2.656-17.067-17.94-6.965-16.425-12.27-14.577-4.896-17.531-.664-1.885 16.75 3.194 22.07-4.381 20.886 8.48 5.545-10.453-3.863-23.927 31.408-5.424 15.347 9.602z" data-name="Voinești" class="comuna" id="166869"/>
    <path d="M442.537 438.771l-8.946-3.478-10.952 13.407-27.904 14.22-15.982 14.554 6.607 26.849-17.916 4.672-8.135-10.103-8.352-37.235-30.95-42.045 16.267-9.056 14.45 1.96 6.514-10.818 30.21-.387 16.507-2.96 9.362-.6 16.447 29.759 12.773 11.261z" data-name="Lipovăț" class="comuna" id="164687"/>
    <path d="M783.885 389.23l-7.19 9.075-2.403 35.658-11.136 26.33 9.66 16.217-13.465 19 2.302 7.646-47.402 22.642 5.79-25.034-1.581-33.378-9.357-4.62-3.46-28.233-9.389-29.572 2.27-13.92 22.908-6.925 4.446 10.714 19.325-8.59 38.683 2.99z" data-name="Lunca Banului" class="comuna" id="164749"/>
    <path d="M274.83 358.446l-8.814 3.634 6.829 19.836 15.5 2.51 2.494 7.829 13.878 22.154-11.697 20.544 3.918 7.582 15.238 56.688-17.058 12.086-.097 7.527-.266.021-11.523-19.711-15.143-36.608-13.636 2.378-4.535-23.2-15.639-29.926 2.193-26.99 12.626-34.283 25.731 7.929z" data-name="Poienești" class="comuna" id="165336"/>
    <path d="M353.886 356.769l-5.288 6.574 38.85 37.968-30.21.387-6.514 10.818-14.45-1.96-16.267 9.056-15.29-5.203-13.878-22.154 20.645-.917 12.974-8.325 13.192-.28 1.858-19.747-5.852-14.301 11.433-2.833 8.797 10.917z" data-name="Pușcași" class="comuna" id="167320"/>
    <path d="M523.175 333.68l26.418 30.564-7.974 10.777 9.861 18.52 14.392 14.563 8.663-7.204 12.826 29.06-19.355 17.298-24.774 13.757-11.051 6.29-22.054.5-10.903-7.637-8.934 6.617-9.101-11.69-3.735-22.005 17.085-8.496 17.856-21.9-7.656-5.353-2.388-19.303 6.192-40.022 14.632-4.335z" data-name="Oltenești" class="comuna" id="165069"/>
    <path d="M339.508 362.986l-1.858 19.747-13.192.28-12.974 8.325-20.645.917-2.493-7.83-15.501-2.509-6.829-19.836 8.813-3.634 11.966-28.828 20.876 7.552 6.497 17.73 14.532 10.22 10.808-2.134z" data-name="Laza" class="comuna" id="164598"/>
    <path d="M137.104 356.478l13.737 19.08 7.833 23.038 10.703-2.986 4.036 13.136 3.863 23.927-5.545 10.452-20.887-8.48-22.068 4.382-16.75-3.193-8.167-12.506-15.49-11.115-16.33-19.58 28.212-29.345 1.009-9.426-11.548-7.328 17.376-17.363 5.223-10.496 13.18 13.516.69 11.685 10.923 12.602z" data-name="Dragomirești" class="comuna" id="163486"/>
    <path d="M602.574 313.99l10.35 6.338 6.57 18.151 14.322 12.096-11.404 10.01 7.706 19.258-10.649 4.428 12.403 30.478-21.568-34.956-11.987 10.544-12-6.064-11.782 16.627-8.663 7.204-14.392-14.564-9.861-18.52 7.974-10.776 18.657-21.662 5.543-16.335 28.78-12.257z" data-name="Crețești" class="comuna" id="163208"/>
    <path d="M366.686 313.814l8.863 7.968 1.275 7.86-22.401 20.754-.537 6.373-8.797-10.917-11.433 2.833 5.852 14.301-10.808 2.135-14.532-10.221-6.497-17.73-20.875-7.552 21.866-28.1 30.823 3.898 19.517 31.465 7.684-23.067z" data-name="Bălteni" class="comuna" id="162452"/>
    <path d="M441.773 343.804l8.815-.975 12.937 11.173 14.566 5.061.106 11.782-24.684 13.17-16.635-14.677-16.873 1.802 2.855 18.142-18.905 9.069-16.507 2.96-38.85-37.968 5.288-6.574.537-6.373 22.401-20.753-1.275-7.861 18.626-3.135-5.668-16.857 25.344 18.087 21.404 10.64 6.518 13.287z" data-name="Vaslui" class="municipiu resedinta" id="161945"/>
    <path d="M222.617 306.843l-4.121 10.662 30.602 33.012-12.626 34.284-2.193 26.989-14.11 1.134-15.348-9.602-31.407 5.424-4.037-13.135-10.703 2.985-7.833-23.039-13.737-19.079 18.793-15.648 18.782 12.108 1.577-13.62 13.574-5.03-5.363-29.45 6.137-7.231 32.012 9.236z" data-name="Ivănești" class="comuna" id="164393"/>
    <path d="M432.414 296.354l11.49 2.476 7.198 20.557-9.329 24.417-6.518-13.287-21.404-10.64-25.344-18.087-4.847-9.198 18.221-14.119 30.533 17.88z" data-name="Muntenii de Sus" class="comuna" id="167302"/>
    <path d="M502.053 288.084l12.036 16.392 9.086 29.205-14.632 4.335-6.192 40.022 2.387 19.303-21.644-13.606-4.897-12.89-.106-11.782-14.566-5.061-12.937-11.173-8.815.975 9.329-24.417-7.198-20.557-11.49-2.476 3.621-19.899 8.515-1.428 28.733 14.725 28.77-1.668z" data-name="Tanacu" class="comuna" id="166182"/>
    <path d="M308.662 301.517l-21.866 28.1-11.967 28.829-25.731-7.929-30.602-33.012 4.12-10.662 30.016 7.266 2.295-13.472 15.633-32.867 20.992 15.805 17.11 17.942z" data-name="Delești" class="comuna" id="163379"/>
    <path d="M733.425 263.017l16.842 13.213-2.143 15.129 20.064 20.776 5.624 28.467 11.406 31.353-1.332 17.275-38.683-2.99-19.325 8.59-4.446-10.714-22.908 6.925-13.472-7.759-9.299-17.4-5.19-20.493 17.64 8.011 6.081 14.264 15.23-5.218-5.505-14.518 11.666-19.432-2.428-31.99-5.774-4.193-17.17-21.473 17.378 1.29 25.744-9.113z" data-name="Stănilești" class="comuna" id="165979"/>
    <path d="M270.56 267.77l-15.633 32.867-2.294 13.472-30.017-7.266-32.012-9.236-17.224-10.737-10.466-16.02 28.705-7.581 8.129 6.37 16.82-.118 23.498-17.119 5.618-3.388 24.876 18.756z" data-name="Cozmești" class="comuna" id="167277"/>
    <path d="M138.878 244.469l24.036 26.38 10.466 16.02 17.224 10.738-6.137 7.231 5.363 29.45-13.575 5.03-1.576 13.62-18.782-12.108-18.793 15.648-10.923-12.602-.69-11.685-13.18-13.516-5.223 10.496-17.376 17.363-7.12-9.054 23.885-23.085-30.266-19.212 11.363-1.643 7.074-16.605 11.916 11.682 15.909 1.515 6.19-12.774.203-31.12 10.012-1.769z" data-name="Pungești" class="comuna" id="165611"/>
    <path d="M595.584 260.653l6.316 19.42-4.096 13.521 4.77 20.396-28.78 12.257-5.544 16.335-18.657 21.662-26.418-30.563-9.086-29.204-12.036-16.393 17.14-6.97 6.782-13.141 26.671-8.96.916-18.5 11.444-3.117 19.125 3.307 11.453 19.95z" data-name="Tătărăni" class="comuna" id="166315"/>
    <path d="M93.08 220.397l15.454 9.72 9.694-4.84 10.638 20.96-.202 31.121-6.191 12.774-15.91-1.515-11.915-11.682-7.074 16.605-11.363 1.643L41.65 276.56l-2.144-12.861-19.092-13.55-3.95-9.553 4.203-.666 12.614-.25 5.795 6.456 27.151-8.698 7.056-14.613 19.797-2.427z" data-name="Gîrceni" class="comuna" id="164062"/>
    <path d="M658.889 223.712l12.512 21.139 27.597 5.54 23.402-5.858 7.24 8.134 3.785 10.35-25.744 9.112-17.377-1.289 17.169 21.473-18.906 5.61-5.19-7.853-27.069 8.182-21.661.748-32.747-18.928-6.316-19.419 10.281-16.693 1.07-15.354 46.915-10.73 5.039 5.836z" data-name="Duda-Epureni" class="comuna" id="163681"/>
    <path d="M366.686 313.814l-7.684 23.067-19.517-31.465-30.823-3.899-17.11-17.942-20.992-15.805-24.876-18.756-5.618 3.388 2.32-10.605 35.33-13.48 18.903 1.117 14.02 21.929 7.348-14.049 11.925 37.492L347.5 291.63l17.933-1.871 1.253 24.056z" data-name="Ștefan cel Mare" class="comuna" id="166057"/>
    <path d="M214.856 209.247l5.56 14.517 21.97 18.033-2.32 10.605-23.497 17.12-16.821.117-8.129-6.37-28.705 7.58-24.036-26.38 12.104-13.382 19.292-12.334-3.73-21.198 25.828 8.812 22.484 2.88z" data-name="Oșești" class="comuna" id="165130"/>
    <path d="M444.55 275.027l-8.515 1.428-3.62 19.899-30.534-17.88-11.912-35.887 8.7-7.538-3.36-22.155 15.753-11.444 1.89-11.642 8.145 2.666 18.568 34.252-6.526 9.278 7.933 13.22 3.478 25.803z" data-name="Văleni" class="comuna" id="166636"/>
    <path d="M166.544 197.555l3.73 21.198-19.292 12.334-12.104 13.382-10.012 1.769-10.638-20.962-9.694 4.841-15.455-9.72 30.004-22.094.817-6.82 5.033 5.508 22.512-5.99 15.099 6.554z" data-name="Rafaila" class="comuna" id="167240"/>
    <path d="M405.091 179.345l7.862 10.463-1.891 11.643-15.753 11.443 3.36 22.155-8.7 7.538-14.612-16.56-23.33-7.815.375-12.31 18.932-20.033 13.309-3.633 7.108-13.43 13.34 10.539z" data-name="Ferești" class="comuna" id="167295"/>
    <path d="M288.616 172.495l-14.013 7.253.236 18.138 8.768 19.387-5.89 11.044-35.33 13.48-21.971-18.033-5.56-14.517 9.376-12.303-.286-14.402 7.159-6.194 31.285-8.669 1.736 6.235 24.49-1.418z" data-name="Vulturești" class="comuna" id="166985"/>
    <path d="M307.538 165.872l9.193 8.962 23.244 6.412 3.817 23.935 8.61.72-.375 12.31 23.33 7.815 14.612 16.56 11.913 35.887-18.222 14.12 4.847 9.197 5.668 16.857-18.626 3.135-8.863-7.968-1.253-24.056-17.933 1.871-17.588-16.823-11.925-37.492-7.349 14.049-14.02-21.929-18.902-1.117 5.89-11.044-8.767-19.387-.236-18.138 14.013-7.252 18.922-6.624z" data-name="Zăpodeni" class="comuna" id="167071"/>
    <path d="M481.939 217.989l22.322 33.2 1.243 14.39 16.365-7.322 4.106 9.716-6.782 13.14-17.14 6.971-28.77 1.668-28.733-14.725-3.478-25.804-7.933-13.22 6.526-9.277-18.568-34.252-8.144-2.666-7.861-10.463 6.865-9.56 25.064-10.79 7.539 11.672-2.635 22.136 10.651-.338 29.363 25.524z" data-name="Solești" class="comuna" id="165899"/>
    <path d="M617.944 145.144l10.672 22.219 8.325 2.948 11.105 16.765 18.918 13.363 4.466 12.554-12.541 10.72-5.04-5.837-46.914 10.73-4.229-8.216 5.053-31.483-14.014-16.949-8.218-22.905 18.203 4.254 14.214-8.162z" data-name="Arsura" class="comuna" id="162149"/>
    <path d="M729.64 252.667l-7.24-8.134-23.402 5.859-27.597-5.541-12.512-21.139 12.54-10.719-4.465-12.554-18.918-13.363-11.105-16.765-8.326-2.948-10.671-22.219 14.06-10.83 9.775-.458 17.735 2.14 16.716 10.399.153 16.324 14.957 20.072 8.157.339 17.832 33.113 8.42.552-3.248 20.365 7.14 15.507z" data-name="Drînceni" class="comuna" id="163618"/>
    <path d="M108.346 133.99l19.055 16.083-3.5 41.41-.818 6.82-30.004 22.094-19.797 2.427-10.827-27.367-3.18-20.649-12.934-38.9 19.445-4.688 32.26 3.702 10.3-.933z" data-name="Dumești" class="comuna" id="163734"/>
    <path d="M238.683 122.007l2.288 11.491 21.42 34.181-31.286 8.67-7.16 6.193.287 14.402-9.376 12.303-22.484-2.88-25.828-8.812-3.327-13.771 9.57-17.695-7.654-14.3 5.011-19.897 2.568 5.686 24.216-4.014 24.862-12.675 16.893 1.118z" data-name="Negrești" class="oras" id="161856"/>
    <path d="M707.473 292.313l5.774 4.192 2.428 31.991-11.666 19.432 5.505 14.518-15.23 5.218-6.082-14.264-17.64-8.01-18.116 4.61-10.337-10.353-8.293 10.928-14.322-12.096-6.57-18.151-10.35-6.338-4.77-20.396 4.096-13.522L634.647 299l21.661-.748 27.07-8.182 5.19 7.852 18.905-5.609z" data-name="Huși" class="municipiu" id="161829"/>
    <path d="M670.563 345.39l5.19 20.492 9.3 17.4 13.471 7.76-2.27 13.919 9.389 29.572 3.46 28.232 9.357 4.62 1.58 33.379-5.789 25.034-4.763 2.081-11.62-5.258-1.377-19.474-12.963-27.96-29.765-48.099-21.891-12.339-12.403-30.478 10.649-4.428-7.706-19.257 11.404-10.011 8.293-10.928L652.446 350l18.117-4.61z" data-name="Pădureni" class="comuna" id="165185"/>
    <path d="M308.782 856.654l-11.861 38.929-15 9.569-3.223 14.356-17.347-2.818-7.258-13.568-13.582-5.515 5.378-15.043 8.871-25.254 8.252 8.358 15.398 3.245 5.026-10.33 25.346-1.929z" data-name="Pogonești" class="comuna" id="167259"/>
    <path d="M481.189 455.095l9.101 11.69 8.934-6.617 10.903 7.637 22.054-.5 11.051-6.29 7.139 26.08.143 8.955-16.003 8.74 8.784 11.87-46.789 17.672 5.065 18.04-23.31 4.072-1.846-11.178 8.362-18.55-16.347-26.415-2.014-23.181.254-6.112-4.512-11.238 19.03-4.675z" data-name="Albești" class="comuna" id="162014"/>
    <path d="M478.197 370.845l4.897 12.89 21.644 13.606 7.656 5.353-17.855 21.9-17.085 8.496 3.735 22.005-19.03 4.675 4.511 11.238-8.818-16.482-15.315-15.755-12.773-11.262-16.447-29.758-9.362.6 18.905-9.07-2.855-18.14 16.873-1.803 16.635 14.676 24.684-13.17z" data-name="Muntenii de Jos" class="comuna" id="164936"/>
    <path d="M560.433 827.11l22.203 14.357 9.959-1.312 22.944 20.625 20.571-9.706-19.414 14.408-17.356.274 6.54 14.903-11.346 8.821-18.233 7.407-10.525-18.054-11.497-1.023-18.381 9.65-9.925.163-2.621-16.607-8.88-1.613 5.746-5.202-2.154-20.11-14.294-21.265.315-.252 15.72.84 13.563-7.01 27.065 10.706z" data-name="Mălușteni" class="comuna" id="164829"/>
    <path d="M399.5 831.122l11.362.718 7.39 22.237 6.713 17.886-8.303 2.219 6.494 19.21-3.89 14.74-24.609-1.67-13.1-9.362-5.867 9.065-12.871-7.333-17.339 6.998-17.405-10.236 15.222-15.248-9.392-17.895 20.268-22.174 8.625 1.312 26.368-20.92 10.334 10.453z" data-name="Grivița" class="comuna" id="164133"/>
    <path d="M170.144 131.892l-5.01 19.897 7.653 14.3-9.57 17.695 3.327 13.771-15.099-6.554-22.512 5.99-5.033-5.508 3.501-41.41-19.055-16.084 10.318-14.846 33.872-13.47 3.35 18.192 14.258 8.027z" data-name="Todirești" class="comuna" id="166413"/>
    <path d="M510.118 167.289l-19.142 2.45 2.78 12.858-9.052 13.613 4.522 11.2-7.287 10.579-29.363-25.524-10.65.338 2.634-22.136-7.539-11.672-3.544-11.36 10.517-16.519 17.888 5.92 10.474-11.822 25.406 5.12-.105 20.626 12.461 16.329z" data-name="Miclești" class="comuna" id="164892"/>
    <path d="M541.367 170.912l4.731 9.057-5.653 23.892 4.017 20.469 9.1 16.183-.916 18.5-26.671 8.96-4.106-9.716-16.365 7.321-1.243-14.39-22.322-33.2 7.287-10.578-4.522-11.2 9.051-13.613-2.779-12.858 19.142-2.45 7.396 17.426 10.007 1.133 13.846-14.936z" data-name="Boțești" class="comuna" id="162871"/>
    <path d="M585.527 149.053l8.218 22.905 14.014 16.949-5.053 31.482 4.229 8.217-1.07 15.354-10.28 16.693-11.454-19.95-19.125-3.307-11.444 3.118-9.1-16.185-4.017-20.468 5.653-23.892-4.731-9.057 10.996-3.71-12.111-17.961 9.493-16.668 10.275-2.22 16.977-1.434 8.53 20.134z" data-name="Bunești-Averești" class="comuna" id="162924"/>
    <path d="M361.228 106.956l25.62 4.21 5.808 7.267-26.09 18.387 25.185 31.987-7.108 13.429-13.31 3.633-18.931 20.032-8.61-.72-3.817-23.935-23.244-6.412-9.193-8.962 5.504-15.133 18.282-25.974-.651-27.424.638-2.208 10.825 8.858 19.092 2.965z" data-name="Dănești" class="comuna" id="163253"/>
    <path d="M330.673 97.341l.651 27.424-18.282 25.974-5.504 15.133-18.922 6.623-24.49 1.419-1.736-6.235-21.419-34.18-2.288-11.492 12.358-7.714-6.968-9.114 3.237-26.41 12.982 1.001 13.161 30.577 15.321 7.44 26.858-16.546 15.04-3.9z" data-name="Rebricea" class="comuna" id="165719"/>
    <path d="M443.993 131.116l-10.516 16.52 3.544 11.36-25.064 10.79-6.865 9.559-13.341-10.538-25.185-31.987 26.09-18.386-5.807-7.268-25.621-4.21 9.829-19.793 15.085-3.258 11.377 14.837 15.583 1.802 9.541 14.21 16.93 1.476-1.285-12.339-16.755-64.46 14.559 4.842 1.017 11.93 14.484 13.052-.16 25.11 4.092 10.81-11.531 25.941z" data-name="Codăești" class="comuna" id="163002"/>
    <path d="M46.34 135.908l12.936 38.9 3.179 20.65 10.827 27.366-7.055 14.613-27.152 8.697-5.795-6.454 3.115-7.536-14.029-11.652-.807-30.778 8.607-3.81-7.514-14.664 1.08-14.49L1 129.026l9.341-7.854 11.945 5.254 5.884 9.514 18.17-.032z" data-name="Băcești" class="comuna" id="162381"/>
    <path d="M413.102 100.544l-15.583-1.802-11.377-14.837-15.085 3.258-9.83 19.793-19.091-2.965-10.825-8.858-10.951-25.68-10.052-2.254-.767-26.99-7.803-7.404 1.255-14.334L309.376 1l15.641 10.51 12.333.133 20.325 21.3 8.262 19.064 8.41-3.414 14.782 20.847 5.93-2.621 18.043 33.725z" data-name="Tăcuta" class="comuna" id="166235"/>
    <path d="M598.317 390.337l4.014 23.452 11.73 28.17 26.103 43.495-9.42 4.34 11.193 25.684-7.202 24.581-17.38-.796-5.39 18.4-13.212 1.542-39.843-68.314-8.54-3.797-7.138-26.079 24.774-13.757 19.355-17.299-12.826-29.06 11.783-16.626 11.999 6.064z" data-name="Hoceni" class="comuna" id="164197"/>
    <path d="M631.872 414.75l21.891 12.338 29.765 48.1 12.963 27.96 1.378 19.473 11.619 5.258 2.509 10.199-22.442 14.522-15.091-24.443-14.66 7.605-11.473 18.215 15.282 12.847-17.191 14.656-15.93-16.53-15.505 1.326-3.022-8.613 5.39-18.4 17.38.796 7.202-24.581-11.193-25.684 9.42-4.34-26.102-43.494-11.731-28.171-4.014-23.452 11.987-10.543 21.568 34.955z" data-name="Dimitrie Cantemir" class="comuna" id="164277"/>
  </g>
</svg>
