<svg xmlns="http://www.w3.org/2000/svg" version="1.2" baseProfile="tiny" stroke-linecap="round" stroke-linejoin="round" viewBox="0 0 800 565">
  <g id="judete" fill="none" stroke="#aaa">
    <path d="M216.353 203.86l5.828 4.153 9.006-2.026 1.648 6.228 7.09 4.11 3.963-3.823 10.501.914 6.24-4.131 9.172.867 5.072 4.243 6.777.853.553 8.807 6.181-4.136 19.5-1.38 6.259 4.008.79 7.17 11.55 4.5 2.063 7.07 6 2.236-3.58 9.55-18.91 17.533-6.478-1.329-2.638 8.179-7.573 11.464-12.587 15.3-2.747 9.95 3.85 3.635-2.946 9.294 4.456 8.464 3.323-.234-5.452 4.905-3.654-2.236-5-9.336-9.873-5.28.418-9.468-4.887-6.475-3.037-14.036.778-5.042-12.044-18.107-8.168-5.107-2.575-17.768-5.728-.576-4.485-13.889-9.46.35-5.225-3.195-5.855-6.788.202-12.203 7.6-8.087 4.082.87z" id="AB" data-name="Alba" data-countycode="10"/>
    <path d="M204.469 223.28l5.855 6.789-5.688 4.872-3.108 9.709-17.07.884 1.466 8.706-3.517 7.983-.385 8.001-6.42 4.65-11.382 8.04-7.2-2.645-13.846-9.176-14.514 7.807-4.983-8.051-4.102 8.763-3.972-7.16-9.742-4.822-.39-6.952-12.206 7.946-7.558-3.094-4.199 5.699-5.418-3.56-5.344 2.37-4.726-7.43-9.209-.596-8.738-6.893-4.725-6.8-5.562-2.338 4.238-10.607 10.69-3.902 3.937 3.317 8.653-.135 3.303 3.044 4.508-6.92 4.552.656 3.65-12.587 6.444.313 3.127-5.649-4.478-6.398 6.536-15.42 9.415-1.98 9.747 4.3 7.863-4.9 13.103 1.363 5.097-2.82 6.61 7.994 6.478-3.11 11.5 5.379.302 8.19 7.949 4.594 3.608-1.609 4.853 11.16 6.143 4.966 18.855-1.94z" id="AR" data-name="Arad" data-countycode="29"/>
    <path d="M426.566 350.177l-2.37 17.984-5.416 7.9-6.917 3.95 4.168 14.102-2.593 11.163 3.899 19.512-2.104 6.321 2.157 11.76 6.012 17.064-3.908 6.14-2.77-3.891-11.948 7.18-15.726 1.773-11.24-1.081-.984-17.741-5.031-24.212-7.653-1.653-2.008-8.01-11.418-3.5 3.498-6.212 1.266-24.914 2.385-4.002-4.276-11.65 2.095-5.558-.978-19.38 3.933-4.484-.07-12.783 13.77-2.783 35.56 2.338 16.865 19.57 1.802 5.097z" id="AG" data-name="Argeș" data-countycode="38"/>
    <path d="M582.729 179.477l8.464 7.43 2.325 14.589 10.86 22.365 4.522 28.849-15.597-5.128-7.327 1.912-7.505 5.246-4.59 7.66-7.15-2.897-5.472 5.885-9.906.14-8.609-3.155-10.947 9.557-11.225-2.457-8.346-11.733-1.673-11.332-5.27-1.806.435-11.945-9.531 3.76.624-8.451-13.395-3.203.974-9.667 4.555-4.068-7.157-10.884-1.399-9.821 7.651-1.92 2.899 7.886 8.677-.706 4.976-6.315 3.038 5.98 7.467.166 9.567-5.421 5.334 1.789 7.767-7.145 14.697-2.14.484-6.477 5.315-2.067 2.889 7.491 8.187-1.911 9.879 2.508 3.513-2.564z" id="BC" data-name="Bacău" data-countycode="47"/>
    <path d="M202.514 110.626l-5.35 4.514-4.432 12.948 7.184 15.302 7.692 1.743 3.274 5.41-4.53 4.341 8.356 9.172-6.093 16.102 6.441 15.099 1.297 8.603-4.082-.869-7.6 8.087-.202 12.203-18.855 1.94-6.143-4.966-4.853-11.16-3.608 1.609-7.949-4.594-.301-8.19-11.501-5.379-6.477 3.11-6.61-7.994-5.098 2.82-13.103-1.363-7.863 4.9-9.747-4.3 7.564-10.315-.112-11.731L116.98 164l11.353-27.387 5.388-.68 5.67-15.93 7.795-15.924 6.057-.113 2.163-6.18-.509-11.23 8.969-9.048 4.242-.196 12.635 13.786 1.557 7.629 7.966-.267 12.247 12.166z" id="BH" data-name="Bihor" data-countycode="56"/>
    <path d="M395.911 81.847l7.47 4.411 3.44 6.84-6.496 8.552 5.088 14.843-2.638 11.487 1.586 9.635-3.68 2.932-11.96.775-6.602 6.641-7.152 18.016-5.822-5.253-8.81 4.61-.505 6.394-10.876 12.293-8.015-.219-10.056-6.342 3.07-12.286-8.77-9.65 2.287-10.733-9.663-12.781-4.646.723-2.446-15.08 7.957-7.845 6.66-7.129 4.298-9.817 6.855.545 12.761-12.675 21.337 5.736 12.731-.983 1.278-3.37 11.32-.27z" id="BN" data-name="Bistrița-Năsăud" data-countycode="65"/>
    <path d="M595.123 79.76l-10.41 2.525-4.726 6.46-8.606-3.267-1.202 10.103-3.221 3.306-4.388-6.47-16.657-.485-7.095 3.568-9.141 1.355-.725-9.305-11.625-23.357-10.596-9.634-1.377-4.941-16.826-14.68 7.229-2.126 6.251-9.92 5.272-13.146 9.924-3.844 5.863.434L532.323 1l16.73 1.849 9.718 12.444 5.952 2.603 4.306 11.654 3.762 2.129 5.582 10.698 1.474 9.761 6.54 8.129-1.971 4.863 4.212 8.26 6.495 6.37z" id="BT" data-name="Botoșani" data-countycode="74"/>
    <path d="M437.136 262.565l7.672 14.537-.03 5.395 6.134 13.324 5.512 7.336 13.342 2.329 2.365 4.775 9.628 2.708 4.152 8.399 5.885 4.857.407 6.996-1.738 1.298-6.612-.957-15.9 5.684-6.943.496-3.895-4.232-19.414 7.317-4.185 6.554-6.95.796-1.802-5.097-16.866-19.57-35.559-2.338-.235-12.377-3.545-10.77 5.954-2.572.525-9.585 8.85-13.274 10.728-8.896 6.151-7.61 8.947-.059 3.987-2.81 6.427 2.903 6.73-4.49 10.278 8.933z" id="BV" data-name="Brașov" data-countycode="83"/>
    <path d="M657.612 342.524l-2.512 14.349 10.495 3.084-1.594 8.512 6.91 4.603-2.957 6.104 1.975 15.46-5.814 20.43-3.01 5.318-7.98-2.068-5.475 2.307-4.947-6.726-8.386 2.507-.53 4.238-15.589-1.503-11.404 1.622-5.851-3.413-7.017 6.614-4.795-4.398 5.957-25.372-7.258-3.782.452-7.84-5.01-9.315 5.043-6.613 10.695 1.296-1.547-6.093 9.375-16.42 10.196-11.67 15.865 8.463 20.72 2.117 3.993-1.811z" id="BR" data-name="Brăila" data-countycode="92"/>
    <path d="M494.46 451.34l1.307 6.459 9.46 7.246-9.52 8.028-12.721-9.467 1.76-6.245 9.714-6.022z" id="B" data-name="București" data-countycode="403"/>
    <path d="M606.838 345.424l-9.375 16.42 1.547 6.094-10.695-1.296-5.044 6.613 5.011 9.315-.452 7.84 7.257 3.782-5.956 25.372-4.707 2.45-12.265-6.535-2.875 4.456-8.284-3.662-21.3 1.256-2.293-5.21-10.115-17.777-6.374-20.488-6.337-4.338-8.47.08-1.59-12.327-6.958-7.452-.573-9.717-6.525-5.781 1.738-1.298 4.509-8.373 15.388-6.679.093-5.587 4.84-14.399 4.149 3.017 7.911 16.332 12.726 3.53 6.035 7.225 7.388 3.596 11.63-2.315 2.857 6.015 12.208 8.656 4.204-5.324 6.661 7.467 11.26 1.27 2.776-2.228z" id="BZ" data-name="Buzău" data-countycode="109"/>
    <path d="M180.635 311.86l7.213 9.22 9.967 3.147 4.627 9.875 1.613 9.16-4.943 5.225 2.793 5.406-.659 8.394-11.124 11.104 8.062 6.958-14.15 15.214-.355 6.617-7.318 20.073-13.244-3.818-8.49 4.976-2.736 9.729-10.902 6.998-2.14-4.261-16.545-4.192-13.443-.098-3.795-11.83-17.04-4.062-1.733-9.98 10.222.019 5.594-7.32-11.77-6.337 3.937-9.412 3.427-16.282 6.993-9.32-2.276-7.27-6.578-7.42 1.625-10.404 10.4-2.982 2.107-7.911 6.387-1.528 13.088 7.481 7.696-2.668 1.898 5.743 7.213 1.348 4.035-8.885 8.784-4.043 7.865 3.093 4.322-8.97 9.373-.786z" id="CS" data-name="Caraș-Severin" data-countycode="118"/>
    <path d="M318.672 109.81l-7.957 7.846 2.446 15.08 4.646-.724 9.663 12.781-2.288 10.733 8.77 9.65-3.069 12.286-9.41 8.438 3.652 6.545-5.783 16.341-7.107 3.177 1.908 10.584-6.26-4.008-19.499 1.38-6.181 4.136-.553-8.807-6.777-.853-5.072-4.243-9.172-.867-6.24 4.13-10.501-.913-3.963 3.823-7.09-4.11-1.648-6.228-9.006 2.026-5.828-4.153-1.297-8.604-6.441-15.097 6.093-16.103-8.356-9.172 4.53-4.34 14.03 4.995 3.069 6.559 13.544 7.88 7.925-1.986 2.765-9.714 4.368 6.75 15.2-12.247 3.212-18.573 8.63-.989 4.338-8.419 8.258-.773 7.486-11.762 14.965-2.455z" id="CJ" data-name="Cluj" data-countycode="127"/>
    <path d="M744.222 426.689l-9.868 19.753-18.894 24.646-1.054 8.99 2.749 4.569.377 20.21 2.16 7.13-5.732 17.703-.623 12.504-11.634 1.111-18.531-2.241-21.63-9.401-5.002-17.02-20.372 3.79-3.463-8.419-5.322 2.306-18.57.555-9.673-7.33-1.903-6.146 2.913-1.793 12.97 1.482 15.03-10.198 9.042.415 8.134-5.994 10.497-1.653 5.505-10.282 7.17-10.983-8.594-18.563 1.374-5.006-13.456-9.699-.172-6.502 5.476-2.307 7.98 2.068 3.009-5.318 6.856.17 2.603 4.655 16.221 7.761 5.276 8.96 3.689-4.17 18.566-3.232 12.422 3.845 8.782-8.284 5.692 1.918z" id="CT" data-name="Constanța" data-countycode="136"/>
    <path d="M505.283 244.602l5.27 1.806 1.673 11.332 8.346 11.733-5.148 16.058 1.61 12.652-4.84 14.4-.094 5.586-15.388 6.679-4.509 8.373-.407-6.996-5.885-4.857-4.152-8.4-9.628-2.707-2.365-4.775-13.342-2.33-5.512-7.335-6.134-13.324.03-5.395-7.672-14.536 4.522-9.867 16.145-11.144 13.51 18.846 13.659-1.174 3.56-4.002 8.597-.125 8.154-10.498z" id="CV" data-name="Covasna" data-countycode="145"/>
    <path d="M661.328 471.376l-5.505 10.282-10.497 1.653-8.134 5.994-9.042-.415-15.03 10.198-12.97-1.482-2.913 1.793-7.497.914-12.568-2.594-12.473 1.923-10.382 6.147-29.859 6.572-4.795-1.11-1.982-7.772 5.853-6.17-14.827-16.407 4.121-11.788 7.882-5.782 1.091-10.105 5.403-6.737 10.472 6.272 6.96-4.907 18.471 5.222 6.808-1.74 20.455 4.934 27.021-2.404 10.554 2.867 1.515 5.984 6.69-.011 3 8.554 7.904-4.197 14.274 4.312z" id="CL" data-name="Călărași" data-countycode="519"/>
    <path d="M293.823 430.22l12.457 22.433-3.903 5.836 1.245 6.878 5.003 5.3 7.566 1.733 5.654 12.344 9.96 4.571-.56 19.45 3.517 8.635-5.615 18.282-6.426 8.674-1.56 9.083-12.751-5.6-8.18-1.13-15.062-6.418-7.22 1.429-17.708-7.77-12.936.461-18.903 5.776-16.289-5.585-2.318-5.923 5.012-12.603 10.407-2.358 1.474-9.163-5.251-1.242 3.855-7.111 9.032 1.17-1.55-11.28 3.868-8.793 7.684-8.35-1.302-9.886 5.853-7.364 16.511-4.474 11.674-5.303 9.261 2.46 1.668-13.937 5.833-.225z" id="DJ" data-name="Dolj" data-countycode="163"/>
    <path d="M437.7 342.827l1.365 11.372 7.326 9.82-1.552 6.049 9.159 14.957 5.333 5.603-1.05 11.874 8.9.242 6.293 13.73 9.474 14.47-2.622 7.867 4.596 4.01-8.656 8.723-8.78 1.385-13.331-2.155-8.33 1.269-5.025 10.576-7.45-7.97-8.042 11.514-5.814-.09 3.908-6.14-6.012-17.065-2.157-11.759 2.104-6.32-3.9-19.513 2.594-11.163-4.168-14.103 6.917-3.949 5.417-7.9 2.369-17.984 6.95-.796 4.185-6.554z" id="DB" data-name="Dâmbovița" data-countycode="154"/>
    <path d="M661.579 257.105L659.5 269.13l4.539 15.978-1.718 5.62 6.375 22.076-1.497 8.855 5.477 12.658-2.192 6.614-9.23-2.24-3.643 3.833-3.993 1.81-20.72-2.116-15.865-8.464-3.015-3.685-1.734-12.66-9.15-6.724-4.27-7.156-10.32-24.415-1.064-11.24 4.22-4.967 12.119-2.12 6.016-5.732 1.365 10.068 7.646 4.218-1.03-14.488 13.897.871 2.875 3.56 6.262-5.997 9.615 3.898 11.113-.08z" id="GL" data-name="Galați" data-countycode="172"/>
    <path d="M476.266 451.544l2.62 2.953-6.172 10.48.862 7.002 11.856 6.58 13.413 9.816 9.862-7.473 14.827 16.407-5.853 6.17 1.981 7.772-16.327 7.498-6.99 1.43-5.907 8.704-8.945 6.063-4.779 8.334-9.07 8.956-9.48 2.38-1.174-15.632-4.674-2.868-2.017-11.262 1.128-12.132 6.691-9.172-1.874-6.742 3.177-10.554-10.64-6.274-8.965-2.006-3.46-9.52 4.444-5.835 5.025-10.576 8.33-1.269 13.331 2.155 8.78-1.385z" id="GR" data-name="Giurgiu" data-countycode="528"/>
    <path d="M278.788 352.567l8.056 3.166 9.553-2.962-.22 11.23 4.77 11.82-2.548 10.573-5.966 8.478.04 13.165 2.867 9.766-1.517 12.417-5.833.225-1.668 13.936-9.261-2.459-11.674 5.303-6.405-7.23-8.96-5.103-13.643-1.957-10.115-11.645-5.104-3.434-5.63-22.704-7.947-8.834-9.399-5.969-8.062-6.958 11.124-11.104 12.884-2.651 14.583 3.943 24.248-6.274 7.814-3.343 6.089 5.001 11.924-6.396z" id="GJ" data-name="Gorj" data-countycode="181"/>
    <path d="M453.857 142.826l6.04 2.105 6.058 13.13-3.435 14.44 3.888 6.402-.266 10.435 14.247.985 1.399 9.82 7.157 10.885-4.555 4.068-.974 9.667 13.395 3.203-.624 8.452 9.531-3.761-.435 11.945-8.154 10.498-8.598.125-3.56 4.002-13.658 1.174-13.51-18.846-16.145 11.144-4.522 9.866-10.279-8.933-6.73 4.49-6.426-2.904-5.984-8.109-13.84-1.984-5.685-6.249-.793-6.619L396 221.15l5.213-3.812-.216-7.518 13.086-7.123 8.433-8.801-1.658-9.466 2.013-5.783-2.406-7.289 2.625-13.719-3.56-15.375 3.918-7.033 10.785-3.44 2.631 4.635 12.04 8.175 4.952-1.775z" id="HR" data-name="Harghita" data-countycode="190"/>
    <path d="M279.61 337.998l-.822 14.569-11.924 6.396-6.089-5-7.814 3.342-24.248 6.274-14.583-3.943-12.884 2.651.659-8.394-2.793-5.406 4.943-5.225-1.613-9.16-4.627-9.875-9.967-3.146-7.213-9.22 3.669-2.892 1.093-16.156-7.581-7.31 3.147-6.303-5.361-4.325 6.42-4.65.385-8.002 3.517-7.983-1.465-8.706 17.069-.884 3.108-9.709 5.688-4.872 5.225 3.194 9.46-.349 4.486 13.889 5.727.576 2.575 17.768 8.168 5.107 12.044 18.107-.778 5.042 3.037 14.036 4.887 6.475-.418 9.467 9.872 5.28 5.001 9.337z" id="HD" data-name="Hunedoara" data-countycode="207"/>
    <path d="M537.407 412.318l2.292 5.212 21.3-1.257 8.284 3.662 2.876-4.456 12.265 6.535 4.707-2.45 4.795 4.398 7.017-6.614 5.85 3.413 11.405-1.623 15.59 1.505.53-4.24 8.385-2.506 4.947 6.726.172 6.502 13.456 9.7-1.374 5.005 8.595 18.563-7.171 10.983-14.274-4.312-7.904 4.197-3-8.554-6.69.01-1.515-5.983-10.554-2.867-27.02 2.404-20.456-4.935-6.808 1.741-18.47-5.222-6.961 4.907-10.472-6.272-5.402 6.737-6.376-3.237 4.906-7.53-4.802-7.03 1.987-6.266-6.096-5.703 7.97.164 4.99-5.477 3.526 2.367 9.5-8.197z" id="IL" data-name="Ialomița" data-countycode="216"/>
    <path d="M657.992 168.731l-8.27.788-20.658-4.398-5.51-7.547-4.982 5.561-18.02 4.59-18.522-1.871-4.777-9.053 7.457-6.66-7.205-8.415-7.907-.082-2.311 5.804-10.683 1.35-5.63-1.615-6.298-6.499-10.18.873-1.92-11.03-9.129-10.473 1.793-14.345 6.327 3.975 5.19-1.115 2.061-13.07 7.095-3.567 16.657.485 4.388 6.47 3.22-3.306 1.203-10.103 8.606 3.267 4.727-6.46 10.409-2.525 7.37 12.443 8.126 3.06.347 10.857 5.226 7.781 7.661.569 5.243 9.23 1.243 9.227 10.12 8.628 13.5 8.619 3.465 8.318.568 10.239z" id="IS" data-name="Iași" data-countycode="225"/>
    <path d="M511.42 423.461l6.097 5.703-1.987 6.265 4.802 7.03-4.906 7.53 6.375 3.238-1.091 10.105-7.882 5.782-4.121 11.788-9.862 7.473-13.413-9.817-11.856-6.58-.862-7 6.172-10.481-2.62-2.953 8.656-8.724-4.596-4.009 2.622-7.866 11.232-6.99 12.684 3.316 4.557-3.81zm-16.96 27.878l-9.714 6.022-1.76 6.245 12.721 9.467 9.52-8.028-9.46-7.246-1.307-6.46z" id="IF" data-name="Ilfov" data-countycode="234"/>
    <path d="M394.796 65.819l6.138 7.604-5.023 8.424-11.319.27-1.278 3.37-12.731.983-21.337-5.736-12.76 12.675-6.856-.545-4.298 9.817-6.66 7.129-14.965 2.455-9.42 2.155-7.748-9.218-5.042 4.13-6.437-.702-11-6.268-14.188-5.54-6.413 1.872-6.002-5.4 3.034-10.301 6.531-6.242 7.235 9.108 4.616-4.55 6.327-13.336-4.017-9.18 11.373 1.819 9.024-4.944 2.866-5.416-2.303-11.532-5.616-3.002 2.695-4.429 11.258 2.754 8.738-1.216 6.337 7.13 12.918-3.502 8.361 6.458 9.394 2.32 12.524-3.537 4.46-5.29 11.993.759 7.33 8.335 2.583 6.827 9.944 2.41 4.504 11.654 5.23-.572z" id="MM" data-name="Maramureș" data-countycode="243"/>
    <path d="M265.387 447.225l-16.51 4.474-5.854 7.364 1.302 9.886-7.684 8.35-3.867 8.794 1.55 11.28-9.033-1.171-3.855 7.111-24.932-15.005.1-8.089-9.334-2.931-3.329-4.196-3.807-17.244 6.443.072 3.19-8.1 8.739 3.834 6.384-4.954-7.436-7.126-8.524-2.415-8.773-9.684-16.725 10.28-8.126 16.747-9.531-2.802-4.786-11.562 10.902-6.998 2.736-9.729 8.49-4.976 13.244 3.818 7.318-20.073.355-6.617 14.15-15.214 9.399 5.97 7.948 8.833 5.63 22.704 5.103 3.434 10.115 11.645 13.643 1.957 8.96 5.104 6.405 7.23z" id="MH" data-name="Mehedinți" data-countycode="252"/>
    <path d="M419.53 142.264l3.561 15.375-2.625 13.72 2.406 7.288-2.013 5.783 1.659 9.466-8.434 8.802-13.086 7.122.216 7.518L396 221.15l-8.602 11.107.793 6.619 5.685 6.249 13.84 1.984 5.984 8.11-3.987 2.81-8.947.058-6.15 7.61-7.021-3.86-12.387 4.155-3.677-3.494-.363-21.273-14.346 4.488-6.423-2.743-15.854.553-6-2.236-2.062-7.07-11.552-4.5-.789-7.17-1.908-10.584 7.107-3.177 5.783-16.341-3.653-6.545 9.411-8.438 10.056 6.342 8.015.22 10.876-12.294.505-6.395 8.81-4.609 5.822 5.253 7.152-18.016 6.603-6.641 11.959-.775 3.68-2.932 8.344.824 6.825 3.825z" id="MS" data-name="Mureș" data-countycode="261"/>
    <path d="M523.447 120.054l9.13 10.474 1.919 11.03 10.18-.874 6.297 6.499 5.631 1.615 10.683-1.35 2.31-5.804 7.908.082 7.205 8.416-7.457 6.66 4.777 9.052.699 13.623-3.513 2.564-9.88-2.508-8.186 1.911-2.89-7.49-5.314 2.066-.484 6.477-14.697 2.14-7.767 7.145-5.334-1.79-9.567 5.422-7.467-.165-3.038-5.981-4.976 6.315-8.677.706-2.899-7.885-7.65 1.919-14.248-.985.266-10.435-3.888-6.402 3.435-14.44-6.057-13.13-6.041-2.105 6.631-16.375 5.681-4.16 13.615-3.61 6.388 1.63 10.845-4.048 5.335 3.2 12.514-7.565 8.581 8.156z" id="NT" data-name="Neamț" data-countycode="270"/>
    <path d="M350.716 414.937l11.418 3.501 2.008 8.01 7.653 1.653 5.031 24.212.983 17.741 11.24 1.081-5.796 2.577.588 14.19-2.706 6.394 5.282 11.65-12.542 4.329-8.567 5.41-.977 6.298 7.941 11.1.033 10.77-3.303 7.032-12.656-4.772-9.155 3.04-5.307 4.75-15.417 1.644-5.306-2.108 1.56-9.083 6.426-8.674 5.615-18.282-3.517-8.634.56-19.451-9.96-4.57-5.654-12.345-7.566-1.734-5.003-5.3-1.245-6.877 3.903-5.836 5.384-.908 7.515 5.91 5.747-7.832 15.748-.507-3.751-17.812 5.516-17.61 4.215-5.77 4.062 6.813z" id="OT" data-name="Olt" data-countycode="289"/>
    <path d="M490.465 334.519l6.525 5.78.573 9.718 6.958 7.452 1.59 12.328 8.47-.081 6.337 4.338 6.374 20.488 10.115 17.776-9.5 8.197-3.526-2.367-4.99 5.477-7.97-.164-4.557 3.81-12.684-3.317-11.232 6.99-9.474-14.47-6.294-13.73-8.898-.242 1.049-11.874-5.333-5.603-9.159-14.957 1.552-6.049-7.326-9.82-1.364-11.372 19.414-7.317 3.895 4.232 6.944-.496 15.899-5.684 6.612.957z" id="PH" data-name="Prahova" data-countycode="298"/>
    <path d="M276.527 35.718l5.616 3.002 2.303 11.532-2.866 5.416-9.024 4.944-11.373-1.819 4.017 9.18-6.327 13.336-4.616 4.55-7.235-9.108-6.53 6.242-3.035 10.302 6.002 5.399.934 5.685-5.663 5.372-6.193-.38-4.78-7.58-12.147-.95-10.255 5.084-2.841 4.7-12.247-12.165-7.966.267-1.557-7.63-12.635-13.785 7.411-15.632 13.255-1.848 4.788-7.224 5.405 4.813 10.728-1.502 7.151-12.522 6.865-1.67 3.375-5.17 15.46-6.53 6.5-12.338 9.5 3.214 5.484 8.454 12.496 6.361z" id="SM" data-name="Satu Mare" data-countycode="305"/>
    <path d="M394.616 265.698l-10.729 8.896-8.85 13.274-.524 9.585-5.954 2.572 3.545 10.77.235 12.377-13.77 2.783-12.764-.291-12.34 4.126-4.82 3.934-12.78-2.144-19.661.075-7.488 3.674-3.323.234-4.456-8.464 2.946-9.294-3.85-3.635 2.747-9.95 12.587-15.3 7.573-11.464 2.638-8.179 6.478 1.329 18.91-17.532 3.58-9.551 15.854-.553 6.423 2.743 14.346-4.488.363 21.273 3.678 3.494 12.386-4.155 7.02 3.86z" id="SB" data-name="Sibiu" data-countycode="323"/>
    <path d="M488.528 34.937l16.826 14.68 1.377 4.942 10.596 9.634 11.625 23.357.725 9.305 9.141-1.355-2.06 13.07-5.191 1.114-6.327-3.975-1.793 14.345-8.581-8.156-12.514 7.564-5.335-3.2-10.845 4.049-6.388-1.63-13.615 3.61-5.68 4.16-6.632 16.375-4.951 1.775-12.04-8.175-2.632-4.634-10.785 3.439-3.919 7.033-6.825-3.825-8.344-.824-1.586-9.635 2.638-11.487-5.088-14.843 6.496-8.552-3.44-6.84-7.47-4.411 5.023-8.424-6.138-7.604 7.603.451 6.205-5.127 8.618-11.045 1.359-4.52 7.093-2.168 26.867-4.504 9.657 1.125 7.013-3.81 16.235-2.356 3.082 1.072z" id="SV" data-name="Suceava" data-countycode="332"/>
    <path d="M303.707 112.265l-7.486 11.762-8.258.773-4.338 8.419-8.63.989-3.212 18.573-15.2 12.247-4.368-6.75-2.765 9.714-7.925 1.986-13.544-7.88-3.07-6.559-14.029-4.996-3.274-5.41-7.692-1.743-7.184-15.302 4.432-12.948 5.35-4.514 2.841-4.7 10.255-5.085 12.147.95 4.78 7.58 6.192.38 5.664-5.372-.934-5.685 6.413-1.871 14.188 5.54 11 6.267 6.437.703 5.042-4.13 7.749 9.217 9.419-2.155z" id="SJ" data-name="Sălaj" data-countycode="314"/>
    <path d="M440.8 462.619l-4.445 5.835 3.46 9.52 8.966 2.006 10.64 6.274-3.177 10.554 1.874 6.742-6.69 9.172-1.13 12.132 2.018 11.262 4.674 2.868 1.175 15.632-8.827 5.427-15.889 3.493-12.155-7.66-7.477-2.052-9.991.929-4.836-4.247-21.619 4.836-8.369-4.457 3.303-7.033-.033-10.769-7.941-11.1.977-6.298 8.567-5.41 12.542-4.33-5.282-11.65 2.706-6.392-.588-14.19 5.797-2.578 15.726-1.773 11.947-7.18 2.771 3.891 5.814.09 8.042-11.515 7.45 7.97z" id="TR" data-name="Teleorman" data-countycode="341"/>
    <path d="M37.786 245.982l5.562 2.338 4.725 6.8 8.738 6.893 9.209.596 4.726 7.43 5.344-2.37 5.418 3.56 4.199-5.7 7.558 3.095 12.206-7.946.39 6.952 9.742 4.822 3.972 7.16 4.102-8.763 4.983 8.05 14.514-7.806 13.846 9.176 7.2 2.645 11.382-8.04 5.36 4.326-3.146 6.303 7.581 7.31-1.093 16.156-3.669 2.892-9.373.786-4.322 8.97-7.865-3.093-8.784 4.043-4.035 8.885-7.213-1.348-1.898-5.743-7.696 2.668-13.088-7.481-6.387 1.528-2.106 7.91-10.401 2.983-1.624 10.404 6.577 7.42 2.276 7.27-6.993 9.32-23.267-9.81-1.977-7.379-6.893 3.233-6.665-3.816-7.647-11.621-4.645-2.004-2.472-12.53-4.799-9.794 3.615-5.223.311-9.762-8.587-2.022-2.863-9.678-11.8-8.294-2.357-7.577-11.034-6.246.132-5.795L1 251.547l2.376-6.406 5.066-1.82 8.523 3.746 3.465-5.36 11.22 8.127 6.136-3.852z" id="TM" data-name="Timiș" data-countycode="350"/>
    <path d="M744.222 426.689l-5.692-1.918-8.782 8.284-12.422-3.845-18.566 3.232-3.69 4.17-5.275-8.96-16.22-7.76-2.604-4.656-6.856-.17 5.814-20.43-1.975-15.46 2.957-6.103-6.91-4.604 1.594-8.512-10.495-3.084 2.512-14.35 3.643-3.831 9.23 2.239 2.192-6.614 12.599 17.34 18.4 7.732 13.643 2.441 5.207-1.833 2.565-12.083 9.546 6.03 9.645-9.967 17.131-9.91 15.255-1.747 13.965 5.602 5.594 5.778 2.773 8.4-3.104 5.63 2.639 14.705-1.352 26.373-2.282 6.595-29.817 5.929-13.52 6.494-7.342 8.863z" id="TL" data-name="Tulcea" data-countycode="369"/>
    <path d="M657.992 168.731l10.819 19.243 1.736 7.554-2.64 9.01 4.234 12.128-4.918 8.438.024 8.1-7.024 10.113 3.1 3.596-1.744 10.192-11.113.08-9.615-3.898-6.262 5.997-2.875-3.56-13.898-.87 1.031 14.487-7.646-4.218-1.365-10.068-.936-2.345-4.521-28.849-10.86-22.365-2.326-14.59-8.464-7.43-.699-13.622 18.523 1.871 18.019-4.59 4.982-5.56 5.51 7.547 20.657 4.397 8.27-.788z" id="VS" data-name="Vaslui" data-countycode="378"/>
    <path d="M608.9 252.71l.936 2.345-6.016 5.732-12.118 2.12-4.22 4.967 1.064 11.24 10.318 24.415 4.27 7.156 9.15 6.724 1.735 12.66 3.015 3.685-10.196 11.67-2.775 2.228-11.26-1.27-6.662-7.467-4.204 5.324-12.208-8.656-2.856-6.015-11.63 2.315-7.39-3.596-6.034-7.224-12.726-3.531-7.911-16.332-4.149-3.017-1.61-12.652 5.149-16.058 11.225 2.457 10.947-9.557 8.61 3.156 9.905-.141 5.472-5.885 7.15 2.897 4.59-7.66 7.505-5.246 7.327-1.912 15.597 5.128z" id="VN" data-name="Vrancea" data-countycode="396"/>
    <path d="M358.57 325.955l.069 12.783-3.933 4.484.978 19.38-2.095 5.558 4.276 11.65-2.385 4.002-1.266 24.914-3.498 6.211-4.062-6.812-4.215 5.77-5.517 17.61 3.751 17.811-15.747.507-5.747 7.832-7.515-5.91-5.384.908-12.457-22.433 1.517-12.417-2.867-9.766-.04-13.165 5.966-8.478 2.549-10.573-4.772-11.82.22-11.23-9.552 2.962-8.056-3.166.822-14.57 3.654 2.237 5.452-4.905 7.488-3.674 19.661-.075 12.78 2.144 4.82-3.934 12.34-4.126 12.764.291z" id="VL" data-name="Vâlcea" data-countycode="387"/>
  </g>
</svg>
