<svg xmlns="http://www.w3.org/2000/svg" version="1.2" baseProfile="tiny" stroke-linecap="round" stroke-linejoin="round" viewBox="0 0 800 565">
  <g id="regiuni" fill="none" stroke="#aaa">
    <path d="M404.36 137.615l8.345.824 6.825 3.825 3.919-7.033 10.785-3.44 2.631 4.635 12.04 8.175 4.952-1.775 6.04 2.105 6.058 13.13-3.435 14.44 3.888 6.402-.266 10.435 14.247.985 1.399 9.82 7.157 10.885-4.555 4.068-.974 9.667 13.395 3.203-.624 8.452 9.531-3.761-.435 11.945 5.27 1.806 1.673 11.332 8.346 11.733-5.148 16.058 1.61 12.652-4.84 14.4-.094 5.586-15.388 6.679-4.509 8.373-1.738 1.298-6.612-.957-15.9 5.684-6.943.496-3.895-4.232-19.414 7.317-4.185 6.554-6.95.796-1.802-5.097-16.866-19.57-35.559-2.338-13.77 2.783-12.764-.291-12.34 4.126-4.82 3.934-12.78-2.144-19.661.075-7.488 3.674-5.452 4.905-3.654-2.236-5-9.336-9.873-5.28.418-9.468-4.887-6.475-3.037-14.036.778-5.042-12.044-18.107-8.168-5.107-2.575-17.768-5.728-.576-4.485-13.889-9.46.35-5.225-3.195-5.855-6.788.202-12.203 7.6-8.087 4.082.87 5.828 4.152 9.006-2.026 1.648 6.228 7.09 4.11 3.963-3.823 10.501.914 6.24-4.131 9.172.867 5.072 4.243 6.777.853.553 8.807 6.181-4.136 19.5-1.38 6.259 4.008-1.908-10.584 7.107-3.177 5.783-16.341-3.653-6.545 9.411-8.438 10.056 6.342 8.015.22 10.876-12.294.505-6.395 8.81-4.609 5.822 5.253 7.152-18.016 6.603-6.641 11.959-.775 3.68-2.932z" id="Centru" data-regionid="7"/>
    <path d="M204.469 223.28l5.855 6.789 5.225 3.194 9.46-.349 4.486 13.889 5.727.576 2.575 17.768 8.168 5.107 12.044 18.107-.778 5.042 3.037 14.036 4.887 6.475-.418 9.467 9.872 5.28 5.001 9.337-.822 14.569-11.924 6.396-6.089-5-7.814 3.342-24.248 6.274-14.583-3.943-12.884 2.651-11.124 11.104 8.062 6.958-14.15 15.214-.355 6.617-7.318 20.073-13.244-3.818-8.49 4.976-2.736 9.729-10.902 6.998-2.14-4.261-16.545-4.192-13.443-.098-3.795-11.83-17.04-4.062-1.733-9.98 10.222.019 5.594-7.32-11.77-6.337 3.937-9.412 3.427-16.282-23.267-9.81-1.977-7.379-6.893 3.233-6.665-3.816-7.647-11.621-4.645-2.004-2.472-12.53-4.799-9.794 3.615-5.223.311-9.762-8.587-2.022-2.863-9.678-11.8-8.294-2.357-7.577-11.034-6.246.132-5.795L1 251.547l2.376-6.406 5.066-1.82 8.523 3.746 3.465-5.36 11.22 8.127 6.136-3.852 4.238-10.607 10.69-3.902 3.937 3.317 8.653-.135 3.303 3.044 4.508-6.92 4.552.656 3.65-12.587 6.444.313 3.127-5.649-4.478-6.398 6.536-15.42 9.415-1.98 9.747 4.3 7.863-4.9 13.103 1.363 5.097-2.82 6.61 7.994 6.478-3.11 11.5 5.379.302 8.19 7.949 4.594 3.608-1.609 4.853 11.16 6.143 4.966 18.855-1.94z" id="Vest" data-regionid="5"/>
    <path d="M358.57 325.955l13.77-2.783 35.558 2.338 16.866 19.57 1.802 5.097 6.95-.796 4.185-6.554 19.414-7.317 3.895 4.232 6.944-.496 15.899-5.684 6.612.957 6.525 5.78.573 9.718 6.958 7.452 1.59 12.328 8.47-.081 6.337 4.338 6.374 20.488 10.115 17.776 2.292 5.212 21.3-1.257 8.284 3.662 2.876-4.456 12.265 6.535 4.707-2.45 4.795 4.398 7.017-6.614 5.85 3.413 11.405-1.623 15.59 1.505.53-4.24 8.385-2.506 4.947 6.726.172 6.502 13.456 9.7-1.374 5.005 8.595 18.563-7.171 10.983-5.505 10.282-10.497 1.653-8.134 5.994-9.042-.415-15.03 10.198-12.97-1.482-2.913 1.793-7.497.914-12.568-2.594-12.473 1.923-10.382 6.147-29.859 6.572-4.795-1.11-16.328 7.498-6.99 1.43-5.907 8.704-8.945 6.063-4.779 8.334-9.07 8.956-9.48 2.38-8.826 5.427-15.889 3.493-12.155-7.66-7.477-2.052-9.991.929-4.836-4.247-21.619 4.836-8.369-4.457 3.303-7.033-.033-10.769-7.941-11.1.977-6.298 8.567-5.41 12.542-4.33-5.282-11.65 2.706-6.392-.588-14.19 5.797-2.578-11.24-1.081-.984-17.741-5.031-24.212-7.653-1.653-2.008-8.01-11.418-3.5 3.498-6.212 1.266-24.914 2.385-4.002-4.276-11.65 2.095-5.558-.978-19.38 3.933-4.484-.07-12.783zm150.137 154.947l4.121-11.788 7.882-5.782 1.091-10.105-6.375-3.237 4.906-7.53-4.802-7.03 1.987-6.266-6.096-5.703-4.557 3.81-12.684-3.317-11.232 6.99-2.622 7.867 4.596 4.01-8.656 8.723 2.62 2.953-6.172 10.48.862 7.002 11.856 6.58 13.413 9.816 9.862-7.473z" id="Sud" data-regionid="3"/>
    <path d="M520.572 269.473l-8.346-11.733-1.673-11.332-5.27-1.806.435-11.945-9.531 3.76.624-8.451-13.395-3.203.974-9.667 4.555-4.068-7.157-10.884-1.399-9.821-14.247-.985.266-10.435-3.888-6.402 3.435-14.44-6.057-13.13-6.041-2.105-4.951 1.775-12.04-8.175-2.632-4.634-10.785 3.439-3.919 7.033-6.825-3.825-8.344-.824-1.586-9.635 2.638-11.487-5.088-14.843 6.496-8.552-3.44-6.84-7.47-4.411 5.023-8.424-6.138-7.604 7.603.451 6.205-5.127 8.618-11.045 1.359-4.52 7.093-2.168 26.867-4.504 9.657 1.125 7.013-3.81 16.235-2.356 3.082 1.072 7.229-2.125 6.251-9.92 5.272-13.146 9.924-3.844 5.863.434L532.323 1l16.73 1.849 9.718 12.444 5.952 2.603 4.306 11.654 3.762 2.129 5.582 10.698 1.474 9.761 6.54 8.129-1.971 4.863 4.212 8.26 6.495 6.37 7.37 12.443 8.126 3.06.347 10.857 5.226 7.781 7.661.569 5.243 9.23 1.243 9.227 10.12 8.628 13.5 8.619 3.465 8.318.568 10.239 10.819 19.243 1.736 7.554-2.64 9.01 4.234 12.128-4.918 8.438.024 8.1-7.024 10.113 3.1 3.596-1.744 10.192-11.113.08-9.615-3.898-6.262 5.997-2.875-3.56-13.898-.87 1.031 14.487-7.646-4.218-1.365-10.068-.936-2.345-15.597-5.128-7.327 1.912-7.505 5.246-4.59 7.66-7.15-2.897-5.472 5.885-9.906.14-8.609-3.155-10.947 9.557-11.225-2.457z" id="Nord-Est" data-regionid="1"/>
    <path d="M204.469 223.28l-18.855 1.941-6.143-4.966-4.853-11.16-3.608 1.609-7.949-4.594-.301-8.19-11.501-5.379-6.477 3.11-6.61-7.994-5.098 2.82-13.103-1.363-7.863 4.9-9.747-4.3 7.564-10.315-.112-11.731L116.98 164l11.353-27.387 5.388-.68 5.67-15.93 7.795-15.924 6.057-.113 2.163-6.18-.509-11.23 8.969-9.048 4.242-.196 7.411-15.632 13.255-1.848 4.788-7.224 5.405 4.813 10.728-1.502 7.151-12.522 6.865-1.67 3.375-5.17 15.46-6.53 6.5-12.338 9.5 3.214 5.484 8.454 12.496 6.361 2.695-4.429 11.258 2.754 8.738-1.216 6.337 7.13 12.918-3.502 8.361 6.458 9.394 2.32 12.524-3.537 4.46-5.29 11.993.759 7.33 8.335 2.583 6.827 9.944 2.41 4.504 11.654 5.23-.572 6.138 7.604-5.023 8.424 7.47 4.411 3.44 6.84-6.496 8.552 5.088 14.843-2.638 11.487 1.586 9.635-3.68 2.932-11.96.775-6.602 6.641-7.152 18.016-5.822-5.253-8.81 4.61-.505 6.394-10.876 12.293-8.015-.219-10.056-6.342-9.41 8.438 3.652 6.545-5.783 16.341-7.107 3.177 1.908 10.584-6.26-4.008-19.499 1.38-6.181 4.136-.553-8.807-6.777-.853-5.072-4.243-9.172-.867-6.24 4.13-10.501-.913-3.963 3.823-7.09-4.11-1.648-6.228-9.006 2.026-5.828-4.153-4.082-.869-7.6 8.087-.202 12.203z" id="Nord-Vest" data-regionid="6"/>
    <path d="M490.465 334.519l1.738-1.298 4.509-8.373 15.388-6.679.093-5.587 4.84-14.399-1.61-12.652 5.149-16.058 11.225 2.457 10.947-9.557 8.61 3.156 9.905-.141 5.472-5.885 7.15 2.897 4.59-7.66 7.505-5.246 7.327-1.912 15.597 5.128.936 2.345 1.365 10.068 7.646 4.218-1.03-14.488 13.897.871 2.875 3.56 6.262-5.997 9.615 3.898 11.113-.08-2.078 12.025 4.539 15.978-1.718 5.62 6.375 22.076-1.497 8.855 5.477 12.658 12.599 17.34 18.4 7.732 13.643 2.441 5.207-1.833 2.565-12.083 9.546 6.03 9.645-9.967 17.131-9.91 15.255-1.747 13.965 5.602 5.594 5.778 2.773 8.4-3.104 5.63 2.639 14.705-1.352 26.373-2.282 6.595-29.817 5.929-13.52 6.494-7.342 8.863-9.868 19.753-18.894 24.646-1.054 8.99 2.749 4.569.377 20.21 2.16 7.13-5.732 17.703-.623 12.504-11.634 1.111-18.531-2.241-21.63-9.401-5.002-17.02-20.372 3.79-3.463-8.419-5.322 2.306-18.57.555-9.673-7.33-1.903-6.146 2.913-1.793 12.97 1.482 15.03-10.198 9.042.415 8.134-5.994 10.497-1.653 5.505-10.282 7.17-10.983-8.594-18.563 1.374-5.006-13.456-9.699-.172-6.502-4.947-6.726-8.386 2.507-.53 4.238-15.589-1.503-11.404 1.622-5.851-3.413-7.017 6.614-4.795-4.398-4.707 2.45-12.265-6.535-2.875 4.456-8.284-3.662-21.3 1.256-2.293-5.21-10.115-17.777-6.374-20.488-6.337-4.338-8.47.08-1.59-12.327-6.958-7.452-.573-9.717-6.525-5.781z" id="Sud-Est" data-regionid="2"/>
    <path d="M508.707 480.902l-9.862 7.473-13.413-9.817-11.856-6.58-.862-7 6.172-10.481-2.62-2.953 8.656-8.724-4.596-4.009 2.622-7.866 11.232-6.99 12.684 3.316 4.557-3.81 6.096 5.703-1.987 6.265 4.802 7.03-4.906 7.53 6.375 3.238-1.091 10.105-7.882 5.782-4.121 11.788z" id="București-Ilfov" data-regionid="8"/>
    <path d="M140.989 440.138l10.902-6.998 2.736-9.729 8.49-4.976 13.244 3.818 7.318-20.073.355-6.617 14.15-15.214-8.062-6.958 11.124-11.104 12.884-2.651 14.583 3.943 24.248-6.274 7.814-3.343 6.089 5.001 11.924-6.396.822-14.57 3.654 2.237 5.452-4.905 7.488-3.674 19.661-.075 12.78 2.144 4.82-3.934 12.34-4.126 12.764.291.07 12.783-3.933 4.484.978 19.38-2.095 5.558 4.276 11.65-2.385 4.002-1.266 24.914-3.498 6.211 11.418 3.501 2.008 8.01 7.653 1.653 5.031 24.212.983 17.741 11.24 1.081-5.796 2.577.588 14.19-2.706 6.394 5.282 11.65-12.542 4.329-8.567 5.41-.977 6.298 7.941 11.1.033 10.77-3.303 7.032-12.656-4.772-9.155 3.04-5.307 4.75-15.417 1.644-5.306-2.108-12.751-5.6-8.18-1.13-15.062-6.418-7.22 1.429-17.708-7.77-12.936.461-18.903 5.776-16.289-5.585-2.318-5.923 5.012-12.603 10.407-2.358 1.474-9.163-5.251-1.242-24.932-15.005.1-8.089-9.334-2.931-3.329-4.196-3.807-17.244 6.443.072 3.19-8.1 8.739 3.834 6.384-4.954-7.436-7.126-8.524-2.415-8.773-9.684-16.725 10.28-8.126 16.747-9.531-2.802-4.786-11.562z" id="Sud-Vest" data-regionid="4"/>
  </g>
</svg>
