<svg xmlns="http://www.w3.org/2000/svg" version="1.2" baseProfile="tiny" stroke-linecap="round" stroke-linejoin="round" viewBox="0 0 800 442">
  <g id="AR" fill="none" stroke="#aaa">
    <path d="M570.096 385.237l5.634 3.499 9.458-5.379 5.507 17.52 8.953-.512 1.872 5.803 9.83 6.98 8.284 10.165-1.7 2.642-14.592-2.103-7.826 5.341.865 10.94-3.585 1.165-7.029-.265-6.979-10.655-11.115-4.172-6.533 3.63-8.674-1.038-2.484-6.021-10.567-5.57-5.58-3.774 8.747-7.84 5.56-13.475-1.637-12.033 5.538-.567 10.378 7.95 7.675-2.231z" id="10006" data-name="Birchiș" class="comuna"/>
    <path d="M524.603 365.687l8.35 1.959 1.717 7.465 5.763.153 6.072 4.821 1.638 12.033-5.56 13.475-8.748 7.84-6.15-5.858-23.474-7.47-4.278 1.495-3.93-11.654-7.996-3.557-.305-8.274 6.445-10.717 7.091.334 14.329-10.957 8.25 2.54.786 6.372z" id="9887" data-name="Bata" class="comuna"/>
    <path d="M427.772 359.754l-1.71 16.226 6.712 8.723-2.597 14.254-1.043 8.333-6.77 5.03-1.066 10.144-11.803 4.226.067-12.399 2.244-6.705-4.203-3.159-7.339-12.536-7.189 5.225-8.753 12.959-5.043 15.685-9.74 5.204.293-10.934-7.03-12.446-7.283 2.357 5.39-17.296-3.734-.925 23.583-11.953 10.594-27.17 4.228-1.752 12.384 2.83 8.079 5.653 11.73.426z" id="12402" data-name="Șiștarovăț" class="comuna"/>
    <path d="M422.34 331.935l9.797.204.252 4.37 11.464 1.066 3.4 8.654 15.523-1.928 3.072 7.046-1.098 7.908 7.543 4.639 8.994-4.222 12.86 7.726-6.445 10.717.305 8.274-3.658 3.484-7.815-.324-6.984 4.433-1.984 9.219-5.905 4.158-11.106-2.459-8.481 6.097-11.897-12.04 2.596-14.254-6.71-8.723 1.71-16.226-9.456-4.34.539-8.766-7.58-5.97 6.232-10.47 4.833 1.727z" id="10765" data-name="Ususău" class="comuna"/>
    <path d="M196.404 318.719l.63 16.42 10.675-.5-8.71 5.833 8.98 10.224 13.61 3.48 1.703 6.82-4.417 1.29-5.66 12.03-9.544 4.344-.453 8.326-17.501-8.158-7.558-8.305-19.708 9.696-5.01 1.263-9.153-11.426-3.822-9.12-1.474-15.345-7.49-.244-.156-7.146 20.126-.45-.084-12.124 13.273-2.277.27 5.258 17.029-3.117-.897-5.987 8.143-.979 7.198.194z" id="12643" data-name="Vinga" class="comuna"/>
    <path d="M252.401 325.497l.983 14.143-3.524 5.954 3.171 5.396 23.003-4.907 5.388 3.69 5.79 8.688-13.158 6.506 1.69 2.914-18.148 7.06-5.856 8.302-.079-7.42-9.168-7.156-8.421-1.291-10.78-6.38-1.703-6.82-13.61-3.48-8.98-10.224 8.71-5.833 7.187-4.352 6.036-17.203 18.224 5.777 4.949 4.51 8.296 2.126z" id="12144" data-name="Șagu" class="comuna"/>
    <path d="M357.675 323.79l4.29 6.13-1.792 7.79 7.83 12.253-1.257 18.729-11.388 4.708-8.581 11.882-4.929-4.997-12.006-4.936-3.499 3.97-1.31-6.001-9.18-2.978 5.26-12.5-7.063-19.652-7.404-.988-7.832 2.769 4.569-8.975 5.948-3.392.298-11.917 4.586-3.918 5.439 6.179 6.2-4.32 9.166-.752 1.415 13.734 9.402-6.937 8.01-1.15 3.828 5.269z" id="12778" data-name="Zăbrani" class="comuna"/>
    <path d="M589.404 315.83l1.628 8.055 5.952.951-3.187 11.452.424 12.321-5.153 7.831-11.067 5.817-4.904 6.451 2.37 11.556-5.371 4.973-7.675 2.231-10.378-7.95-5.538.567-6.072-4.821-5.763-.153-1.716-7.465-8.351-1.96 7.683-8.667-2.67-12.775 7.237.232 4.115-5.072 8.57 5.389 5.387-6.048 11.285-23.753 5.979 11.21 10.768-16.651 6.447 6.279z" id="12572" data-name="Vărădia de Mureș" class="comuna"/>
    <path d="M308.234 315.439l1.395.246-.298 11.917-5.948 3.392-4.569 8.975-10.766 7.82-6.626 1.985-5.388-3.691-.413-9.898-3.81-15.22 5.343-16.307 31.08 10.78z" id="12920" data-name="Frumușeni" class="comuna"/>
    <path d="M642.986 299.45l-.871 7.108-9.168 16.487 5.103 11.663-9.457 3.016.57 12.9 9.731-.496 3.64 11.123-7.96 8.336-2.015 13.868 3.78 5.878-3.405 1.96.412 8.983 5.06 3.572-11.789.103-6.983 19.362-8.285-10.166-9.829-6.979-1.872-5.803-8.953.512-5.507-17.52-9.458 5.379-5.634-3.5 5.37-4.971-2.37-11.557 4.905-6.451 11.067-5.817 5.153-7.83-.424-12.322 3.187-11.452-5.952-.95-1.628-8.056 11.854-11.34 7.29-1.756 5.47-7.125 17.05-2.669 7.75 2.057 4.168 4.453z" id="11842" data-name="Săvîrșin" class="comuna"/>
    <path d="M277.154 304.658l-5.343 16.307 3.81 15.22.413 9.898-23.002 4.907-3.172-5.396 3.524-5.954-.983-14.143 5.264-33.405-.82-1.2 7.386 2.458 1.697 6.363 11.226 4.945z" id="9280" data-name="Fântânele" class="comuna"/>
    <path d="M150.66 282.249l-3.172 12.54 4.055 9.976-.155 20.862.084 12.124-20.126.45.156 7.146-13.459 1.095-14.825-2.069-14.223-.012-6.678-12.628-2.05-8.734-.418-8.535 9.408-5.204 2.52-7.238 10.405-12.207 7.545-5.171 9.105-3.573 4.894 2.37 12.704.513 14.23-1.705z" id="11940" data-name="Secusigiu" class="comuna"/>
    <path d="M578.27 276.244l9.358 2.95 1.663.085 2.29 13.15 9.677 12.06-11.854 11.341-6.447-6.279-10.768 16.651-5.979-11.21-11.285 23.753-5.387 6.048-8.57-5.389-4.115 5.072-7.236-.232 2.67 12.775-7.684 8.668-.785-6.371-8.251-2.54-14.329 10.956-7.09-.334-12.861-7.726 7.58-2.785.453-6.732 5.22-12.92-1.524-5.582-9.81-2.377-5.596 3.072-4.401-17.619 7.227-13.36 6.388-.204 5.004-12.337 8.08 1.629 8.165-3.406.417-4.07 15.055-4.816 2.227 3.595 9.616-3.368 9.908 8.76 15.838-.67 6.745-8.288 10.39-1.95z" id="10104" data-name="Bîrzava" class="comuna"/>
    <path d="M322.262 263.128l4.392 3.74 27.097 4.78 4.897 4.04-1.514 10.416 4.906 4.52-.499 7.344-5.863 10.53-10.417-2.953-10.186-7.615-5.719-.78 2.641-11.293-14.079-2.61-1.402-6.084-.648-15.114 6.394 1.08z" id="10872" data-name="Ghioroc" class="comuna"/>
    <path d="M673.673 291.032l-5.682 3.266-4.147 7.079-9.157 2.393-11.7-4.32-4.169-4.453-7.75-2.057-17.05 2.669-5.47 7.125-7.29 1.755-9.678-12.06-2.29-13.15 3.775-9.188 4.975-1.567 15.07-10.949 13.42-5.265 3.717-4.798 7.766.947 2.71 6.105 9.963 6.56 4.934 6.882 14.619 8.197 3.434 14.829z" id="10239" data-name="Brazii" class="comuna"/>
    <path d="M371.521 259.428l-.064 9.326-12.809 6.934-4.897-4.04-27.097-4.78-4.392-3.74 1.417-15.846 5.52-1.302 23.862 1.707 7.052 11.288 11.408.453z" id="10514" data-name="Covăsinț" class="comuna"/>
    <path d="M88.52 241.71l2.686 19.25 5.946 13.724 12.575 9.96-7.545 5.17-10.405 12.208-2.52 7.238-9.409 5.204.42 8.535-14.05-6.035-1.183-23.05 3.092-27.731-1.511-7.568 5.573-6.845.806-10.537 15.525.478z" id="12037" data-name="Semlac" class="comuna"/>
    <path d="M283.633 240.872l-1.183 5.964-8.886 15.73-18.857-4.53 7.366-14.354 2.62-7.59 18.94 4.78z" id="9333" data-name="Livada" class="comuna"/>
    <path d="M71.773 234.194l1.222 7.04-.806 10.536-5.573 6.845 1.51 7.568-3.09 27.732 1.183 23.049-6.509-2.031-11.13-2.45-10.8-9.755-1.687-7.893-6.433-3.038-1.462-7.367 4.947-9.602 14.245 3.614 10.954-23.565.21-17.147 13.219-3.536z" id="12206" data-name="Șeitin" class="comuna"/>
    <path d="M315.37 233.321l-6.634 6.344 3.316 12.087 11.627-4.47-1.417 15.846-6.394-1.08.648 15.115-6.006 4.762 2.264 12.912-7.182 14.315 2.642 6.287-31.08-10.781-11.226-4.945-1.697-6.363-7.387-2.459 12.618-23.37 4.102-4.955 8.886-15.73 1.183-5.964 5.246-5.28 5.063 7.026 5.108-9.033 12.393-5.698 3.927 5.434z" id="9397" data-name="Vladimirescu" class="comuna"/>
    <path d="M247.81 237.332l14.263 6.35-7.366 14.353 18.857 4.531-4.102 4.956-12.618 23.37.821 1.2-5.264 33.405-8.296-2.125-4.949-4.511-18.224-5.777-6.036 17.203-7.187 4.352-10.675.5-.63-16.42 15.443-3.114-1.95-19.477-2.405-6.354-21.351 1.23 5.069-3.36-8.524-17.552 3.145-3.163-5.473-12.903 1.685-6.839 9.077-13.503 7.37-9.624 15.278 4.261 26.69 7.887 7.351 1.124z" id="9262" data-name="Arad" class="municipiu resedinta"/>
    <path d="M618.788 216.846l6.392 13.372-11.177 14.504-1.355 5.885-15.542 3.838-7.782 15.043-1.696 9.707-9.358-2.951-2.22-11.215 3.838-11.671-5.006-3.38-3.005-16.705-2.65-1.195 2.479-4.14-2.914-7.41 6.52-4.164 20.717-2.703 12.036 3.63 4.534-3.932 6.19 3.487z" id="9743" data-name="Almaș" class="comuna"/>
    <path d="M114.64 221.051l-11.898 13.56-14.222 7.1-15.525-.478-1.222-7.04 4.457-21.758 12.02 6.02 1.52-8.024 8.472-1.23 1.85 8.132 14.548 3.718z" id="11637" data-name="Peregu Mare" class="comuna"/>
    <path d="M569.226 232.078l2.65 1.195 3.006 16.706 5.006 3.379-3.839 11.67 2.22 11.216-10.39 1.95-6.745 8.288-15.838.67-9.908-8.76-9.616 3.368-2.227-3.595-7.141-10.504-1.345-7.207 8.036-18.064-1.984-5.134 5.059-4.334-1.61-8.3 10.194-8.043 7.413-2.01 3.498-6.001 8.927 4.526-2.695 5.77 2.454 7.601 8.4 9.36 6.475-3.747z" id="10417" data-name="Chisindia" class="comuna"/>
    <path d="M707.289 235.13l.297 4.405-10.073 6.816 1.158 7.702-13.892 10.799-7.05-2.46.282-5.267-20.262-14.101-1.358-7.019-5.59-5.009.159-11.14 10.463-6.37 5.216-6.439 6.897 1.11 8.719-2.501 1.717 4.635 10.96 14.868 12.357 9.97z" id="11762" data-name="Pleșcuța" class="comuna"/>
    <path d="M246.862 207.01l-1.168 3.035 2.115 27.287-7.35-1.124-26.69-7.887 2.793-17.17-6.707-2.347 11.92-4.443 25.087 2.649z" id="9360" data-name="Șofronea" class="comuna"/>
    <path d="M76.23 212.435l-4.457 21.759-13.22 3.536-.209 17.147-10.954 23.565-14.245-3.614-4.947 9.602-1.473-3.397-20.933-3.42L1 270.22l3.498-2.385 6.465-22.937 13.314 2.38-3.674-26.117 11.14-13.6 5.212 1.864 33.089-6.31 6.186 9.321z" id="9627" data-name="Nădlac" class="oras"/>
    <path d="M503.692 212.567l2.77 5.591 18.098 6.464 1.61 8.3-5.059 4.334 1.984 5.134-8.036 18.064 1.345 7.207 7.141 10.504-15.055 4.816-.417 4.07-8.166 3.406-8.079-1.63-5.004 12.338-6.388.203L467.941 296l-.936-7.355-11.42-3.114-6.353-4.101-9.07 3.41-6.301-4.3-2.445-12.472 19.2-4.52 12.487-10.448.502-21.649-2.79-3.988.313-25.683 12.23 6.351 8.643 1.271 1.248 5.007 12.461 3.881 7.982-5.722z" id="12457" data-name="Tauț" class="comuna"/>
    <path d="M178.26 202.864l3.996 6.375-4.79 17.904 6.687-.908 6.967 7.45-9.077 13.502-1.685 6.84 5.474 12.902-3.146 3.163 8.524 17.553-5.07 3.36-2.595 2.62-28.166-3.681-4.719-7.695-14.23 1.705-12.704-.512-4.894-2.371-9.105 3.573-12.575-9.96-5.946-13.724-2.686-19.25 14.222-7.099 11.898-13.56 13.632-3.221 4.027 10.645 11.251 3.436 11.58-10.434 3.395.043 5.874-21.62 11.66-1.15 2.2 4.114z" id="11584" data-name="Pecica" class="oras"/>
    <path d="M284.025 207.955l.072 4.693 14.34-1.754 7.64.942 2.23 9.02-11.031 6.323 1.774 6.406-5.108 9.033-5.063-7.026-5.246 5.28-18.94-4.78-2.62 7.59-14.264-6.35-2.115-27.287 1.168-3.035 5.978-12.517 19.515 13.904 1.763-4.465 9.907 4.023z" id="12876" data-name="Zimandu Nou" class="comuna"/>
    <path d="M388.36 228.367l-8.901 1.796 5.231 10.687-.279 9.856-12.89 8.722-11.408-.452-7.052-11.289-23.862-1.707-3.518-9.873-8.162-21.916 7.804-13.427 19.9-2.816 6.85-3.27 3.751-13.03 18.135 15.089 15.875 4.94-1.355 10.823-5.36 8.407 5.24 7.46z" id="12368" data-name="Șiria" class="comuna"/>
    <path d="M550.68 182.842l8.626 3.653 16.308-2.564 2.425 4.225-5.074 12.168 3.831 8.404-1.485 7.636-6.52 4.163 2.914 7.41-2.479 4.141-6.475 3.748-8.4-9.36-2.454-7.602 2.695-5.77-8.927-4.526-3.498 6.001-7.413 2.01-10.194 8.043-18.097-6.464-2.771-5.59-2.817-10.57 2.239-14.692 3.987-7.276 3.165 7.878 9.262.867 4.64 6.276 4.262-3.74 11.604-1.206 10.647-7.263z" id="10293" data-name="Buteni" class="comuna"/>
    <path d="M203.107 190.542l6.748 18.262 6.707 2.346-2.794 17.171-15.278-4.261-7.37 9.624-6.967-7.45-6.688.909 4.791-17.904-3.996-6.375 11.43-3.127-2.492-8.136 1.64-9.554 7.631-4.287 6.638 12.782z" id="11352" data-name="Iratoșu" class="comuna"/>
    <path d="M430.63 177.444l26.761 8.513 4.332 9.477-.595 6.346-.313 25.683 2.79 3.988-.502 21.649-12.486 10.447-19.2 4.521-9.181 2.581-9.456 5.98-11.324-2.882-7.001-11.845.677-11.66-10.72.464.278-9.856-5.231-10.687 8.9-1.796 4.323-.685 11.113-9.204 6.01-8.592 7.542-22.682 13.282-9.76z" id="12509" data-name="Tîrnova" class="comuna"/>
    <path d="M766.953 183.164l-10.215 7.319-5.72 7.8-4.832 22.132.863 12.597-4.662 5.56-1.582 9.53 1.593 6.587 8.448 8.308-6.234 4.965-8.054-.546-3.53-6.747-13.828 4.068-16.84-1.806-3.689-8.878-1.158-7.702 10.073-6.816-.297-4.405 11.428-11.825 5.447.892 9.319-4.053-.142-29.737 4.627-4.82 1.483-9.427 27.502 7.004z" id="11058" data-name="Hălmagiu" class="comuna"/>
    <path d="M750.846 262.997l-8.448-8.308-1.593-6.588 1.582-9.529 4.663-5.56-.864-12.597 4.831-22.133 5.721-7.8 10.215-7.318 6.26-7.737 6.855 5.225.005 7.388 11.02 1.395 7.907 7.183-8.083 8.376-20.41 9.19 2.187 4.971-4.49 14.253-6.937 14.594 2.309 4.89-5.26 11.165-7.47-1.06z" id="11174" data-name="Hălmăgel" class="comuna"/>
    <path d="M417.347 187.204l-7.541 22.682-6.011 8.592-11.113 9.204-4.322.685-5.241-7.46 5.36-8.407 1.356-10.823-15.876-4.94-18.135-15.09 1.272-.994 5.837 2.468 6.775-9.312-.116 1.806 31.135-1.728 16.62 13.317z" id="9654" data-name="Pîncota" class="oras"/>
    <path d="M503.584 170.972l3.517 9.058-3.987 7.276-2.24 14.691 2.818 10.57-7.982 5.723-12.461-3.88-1.248-5.008-8.643-1.27-12.23-6.352.595-6.346-4.332-9.477 4.51-12.233 4.098-2.896 16.511 3.21 6.754-6.239 3.582 3.789 7.954-4.003 2.784 3.387z" id="12288" data-name="Șilindia" class="comuna"/>
    <path d="M773.213 175.427l-6.26 7.737-27.502-7.004-1.483 9.428-4.627 4.82.142 29.736-9.32 4.053-5.446-.892-11.428 11.825-12.357-9.971-10.96-14.868-1.717-4.635-8.72 2.5-6.896-1.109-2.327-5.378 8.405-9.026 3.53-12.344.136-10.277 8.33 4.178 19.908-.029 5.72-.255 21.638-5.372 23.397 5.231 5.74-.828 10.803-7.724 1.294 10.204z" id="12689" data-name="Vîrfurile" class="comuna"/>
    <path d="M203.107 190.542l-6.638-12.782 3.346-23.398 16.071 4.156-1.901 7.417 16.008 18.495-3.074 2.005-23.812 4.107z" id="12912" data-name="Dorobanți" class="comuna"/>
    <path d="M534.239 151.575l3.899 3.195.301 9.794 10.326 6.5 1.916 11.778-10.647 7.263-11.604 1.206-4.262 3.74-4.64-6.276-9.262-.867-3.165-7.878-3.517-9.058 3.12 1.718 4.677-17.985 10.096-2.224 5.687 6 7.075-6.906z" id="10051" data-name="Bîrsa" class="comuna"/>
    <path d="M650.89 151.229l1.55 9.142-8.944 4.3-7.785 7.047 1.325 13.565 3.364 1.67-3.671 13.268-11.496 12.282-6.444 4.343-6.19-3.487-4.534 3.931-12.036-3.629-20.718 2.703 1.485-7.636-3.831-8.404 5.074-12.168 13.535 1.085 2.467-4.163 3.265 4.755 8.93-3.715 12.208-8.922 12.144-6.8 4.45.553 4.386-11.559 7.472-7.895 3.994-.266z" id="10701" data-name="Dieci" class="comuna"/>
    <path d="M676.383 170.022l-.136 10.277-3.53 12.344-8.405 9.026 2.327 5.378-5.216 6.439-10.463 6.37-.159 11.14 5.59 5.009 1.358 7.019 20.262 14.101-.282 5.267 7.05 2.46-9.33 8.327 4.322 8.655.488 8.128-6.586 1.07-3.434-14.829-14.619-8.197-4.934-6.881-9.962-6.561-2.711-6.105-7.766-.947-3.717 4.798-13.42 5.265-15.07 10.949-4.975 1.567-3.774 9.188-1.663-.084 1.696-9.707 7.782-15.043 15.542-3.838 1.355-5.885 11.177-14.504-6.391-13.372 6.444-4.343 11.496-12.282 3.671-13.268-3.364-1.67-1.325-13.565 7.785-7.046 8.943-4.3-1.55-9.143 2.346-1.95 23.148 20.743z" id="10943" data-name="Gurahonț" class="comuna"/>
    <path d="M343.278 171.48l6.387.981 7.431 8.192-1.272.995-3.751 13.03-6.85 3.27-19.9 2.816-7.804 13.427-9.213 6.664-2.23-9.019-7.639-.942-14.34 1.754-.072-4.693 3.881-15.964-7.72-3.095 6.176-14.892 2.35-9.612 9.077 1.623 7.505-15.382 4.318-2.286 14.32 27.405 12.621.881 6.725-5.152z" id="12091" data-name="Sântana" class="oras"/>
    <path d="M424.63 152.49l6.992 2.889-3.773 12.533 5.036 2.79-2.256 6.742-13.282 9.76-16.62-13.317-31.135 1.728.116-1.806 2.346-8.81 10.39-7.588 3.573-8.721 6.462-4.33 6.059-1.584 4.585 10.081 21.507-.367z" id="11995" data-name="Seleuș" class="comuna"/>
    <path d="M220.488 141.96l10.612 26.696 13.924 4.155 5.921 4.297 8.752-.13-6.857 17.515-5.978 12.517-25.086-2.649-11.92 4.443-6.749-18.262 23.812-4.107 3.074-2.005-16.008-18.495 1.901-7.417-16.07-4.156 2.517-9.637 7.656-5.412 10.499 2.647z" id="9495" data-name="Curtici" class="oras"/>
    <path d="M363.465 136.68l-3.326 4.768 1.575 6.274-3.171 5.667-14.536 13.306-.73 4.786-6.724 5.152-12.62-.881-14.321-27.405 2.834-.257 2.345-2.913 19.281 1.978 24.26-17.211 5.133 6.736z" id="11502" data-name="Olari" class="comuna"/>
    <path d="M392.479 144.36l-6.462 4.33-3.572 8.721-10.391 7.587-2.346 8.81-6.775 9.313-5.837-2.468-7.43-8.192-6.388-.98.729-4.786 14.536-13.306 3.17-5.667-1.574-6.274 3.326-4.768 4.43-2.493 9.415 2.153 3.989-6.483 6.315-3.505 5.403 6.785-.538 11.223zm-47.262-27.93l6.329 9.63 6.786 3.884-24.26 17.21-19.281-1.977 1.756-13.634 7.835-5.197 20.835-9.916z" id="12812" data-name="Zărand" class="comuna"/>
    <path d="M505.55 128.428l3.623 3.119 8.611-.511 2.409 5.462 7.168 2.886 2.696 9.066 4.182 3.125-7.075 6.906-5.687-6-10.096 2.224-4.677 17.984-3.12-1.717-2.784-3.387-7.954 4.003-3.582-3.789-6.754 6.239-16.51-3.21 11.344-26.011 2.89-10.714-12.984-.513 6.711-11.145 5.012-1.587 12.74 2.405 13.837 5.165z" id="10195" data-name="Bocsig" class="comuna"/>
    <path d="M270.293 135.06l-3.294 10.59 1.08 17.304 3.402 4.153-5.254 12.728-6.53-2.858-8.752.131-5.92-4.297-13.925-4.155-10.612-26.696 11.65 4.208 14.48-25.965 6.033-1.66 17.642 16.516z" id="11398" data-name="Macea" class="comuna"/>
    <path d="M294.29 118.932l.932 3.168 11.955 3.973 1.23 11.108 4.039 10.909-2.834.257-4.318 2.286-7.505 15.382-9.078-1.623-2.349 9.612-6.177 14.892 7.721 3.095-3.881 15.964-9.907-4.023-1.763 4.465-19.515-13.904 6.857-17.516 6.53 2.858 5.254-12.728-3.402-4.153L267 145.65l3.294-10.59 14.425-17.872 9.572 1.745z" id="12340" data-name="Șimand" class="comuna"/>
    <path d="M644.443 136.659l5.478 6.203 7.249 2.926-3.935 3.49-2.345 1.95-3.994.267-7.472 7.895-4.385 11.56-4.45-.553-12.145 6.799-12.207 8.922-8.931 3.715-3.265-4.755 1.435-8.445-10.423-2.387-.434-6.09-6.658-7.115 8.168-6.304 2.803-14.934 5.737-11.738 4.992-5.77-2.24-10.974 5.532-5.14.52 36.38 2.803 10.587 10.313 3.523 1.664-3.367 18.058-4.293-1.683-5.38 9.815-6.972z" id="10649" data-name="Dezna" class="comuna"/>
    <path d="M603.714 104.096l-.761 2.084-5.533 5.141 2.241 10.974-4.992 5.77-5.737 11.738-2.803 14.934-8.168 6.304-19.22 3.912 1.453-8.767 4.863-1.77-.784-11.252 7.444-13.497-5.51-10.228 6.5-5.185 7.778-.514 9.857-11.453 3.895 2.882 9.477-1.073z" id="11307" data-name="Ignești" class="comuna"/>
    <path d="M644.443 136.659l-9.815 6.973 1.683 5.379-18.058 4.293-1.664 3.367-10.313-3.523-2.803-10.587-.52-36.38.761-2.085 1.427-.374 3.762 1.326 2.337-1.713 5.929 3.72 16.69-7.439 3.976.457.786 13.536-2.085 3.823 6.016 5.765 2.452 11.462-.56 2z" id="11478" data-name="Moneasa" class="comuna"/>
    <path d="M474.55 115.29l4.423 5.568-5.012 1.587-6.71 11.145 12.983.513-2.89 10.714-11.345 26.011-4.099 2.896-4.509 12.233-26.762-8.513 2.255-6.743-5.035-2.79 3.773-12.532-6.992-2.89 4.447-12.433 4.937-1.538 1.412-7.76 7.772-8.226 6.327-16.738 2.983-7.564 15.963.388.22 11.241 5.859 5.431z" id="9538" data-name="Ineu" class="oras"/>
    <path d="M605.141 103.722l-1.427.374-9.477 1.073-3.895-2.882-9.857 11.453-7.777.514-6.502 5.185-7.022 7.09-10.885-2.407-9.005 4.044-10.571-6.73-7.215-.542-2.474-7.14-6.238 1.825 11.064-10.46 7.257 4.523 8.834 1.023 13.411-8.268 10.803-15.557 9.97-9.456 6.626-1.085 1.347 7.843 1.391 7.627 7.166 8.105 5.881-4.953 8.595 8.801z" id="9832" data-name="Archiș" class="comuna"/>
    <path d="M410.14 90.347l5.568 4.478 9.975-1.008 20.631 3.957 3.21 8.02-6.326 16.738-7.772 8.227-1.412 7.759-4.937 1.538-4.447 12.434-21.507.367-4.585-10.08-6.06 1.583.539-11.223-5.403-6.785-.986-11.939-10.121-12.624 2.485-4.993-.234-10.665 5.364-8.236 4.99-2.636 21.027 15.088z" id="12242" data-name="Șicula" class="comuna"/>
    <path d="M270.746 66.539l4.224 7.472-5.308 8.859 7.008 10.895-5.1 15.222.202 6.082-8.042 7.252-3.945-7.531-7.134 3.753-6.034 1.66-7.51-14.635-8.495-.601-4.72-14.513 8.86-23.714 3.574.521 6.29-9.165.46 10.373 23.73 5.633 1.94-7.563z" id="10916" data-name="Grăniceri" class="comuna"/>
    <path d="M345.883 48.926l-9.063 14.469 3.594 1.742 1.868 22.235 10.585 1.404 3.812 12.203-.522 10.133-10.94 5.318-20.835 9.916-7.835 5.197-1.756 13.634-2.345 2.913-4.04-10.91-1.229-11.108-11.955-3.972-.932-3.168-.155-4.403 8.395-10.853 9.942-3.385-4.33-14.135-2.408-14.636 8.198-10.894 6.732-5.927 8.24.46 15.164-6.357 1.815.124z" id="9459" data-name="Chișineu-Criș" class="oras"/>
    <path d="M485.004 79.268L471.44 81.19l-3.942 5.166 11.736 9.921 3.233 13.215-7.916 5.797-5.858-5.43-.22-11.242-15.964-.388-2.983 7.564-3.21-8.02-20.632-3.957-9.975 1.008-5.569-4.478-.108-4.303 8.48-5.901 15.12-20.423-.22-4.818 2.37-7.917 25.73-1.262 14.93 1.432 2.259 8.974-3.296 2.455 9.424 15.9.176 4.784z" id="10373" data-name="Cermei" class="comuna"/>
    <path d="M423.572 50.025l9.84 4.877.218 4.818-15.119 20.423-8.48 5.901.108 4.303-21.027-15.088-4.99 2.636-3.91-7.241 2.276-9.209 4.27-4.343 17.574-12.973 9-2.9 10.24 8.796z" id="12224" data-name="Șepreuș" class="comuna"/>
    <path d="M320.664 54.699l-6.732 5.927-8.198 10.894 2.409 14.636 4.33 14.135-9.943 3.385-8.395 10.853.155 4.403-9.572-1.745-14.425 17.872-17.642-16.516 7.134-3.753 3.945 7.531 8.042-7.252-.202-6.082 5.1-15.221-7.008-10.896 5.308-8.859-4.224-7.472-.98-3.87 5.438-15.03 12-4.168 9.823-8.09 8.481-.654 15.156 19.972z" id="12126" data-name="Socodor" class="comuna"/>
    <path d="M558.01 46.877l-8.775 5.883-2.115-3.927-21.369 10.419-10.388.655-4.206 8.597-3.848 15.564-3.793 2.943-11.783-7.18-6.729-.563-.176-4.785-9.424-15.9 3.296-2.454-2.258-8.974-14.93-1.432 4.68-7.87 1.013-8.132 3.84-4.98 15.034 9.184 9.784 3.51 18.162-3.246 4.394-7.164 7.401-3.972 19.02 7.68 3.184-1.349.341 8.969 7.716 2.19 1.93 6.334z" id="10532" data-name="Craiva" class="comuna"/>
    <path d="M288.621 18.92l6.465 7.223 1.94 9.237-9.823 8.09-12 4.169-5.438 15.03.98 3.87-1.94 7.563-23.73-5.633-.459-10.373 6.701-11.812-7.34-4.821 5.695-14.764 6.448-7.562 8.935 1.144 5.004-4.039 5.91 5.661 10.546 3.941 2.106-6.925z" id="11735" data-name="Pilu" class="comuna"/>
    <path d="M404.903 10.58l2.737 2.063.349 13.097 5.856 3.964.987 7.165 8.74 13.156-10.24-8.797-9 2.9-17.575 12.974-6.405-3.44-9.098 4.487-8.466-1.363-16.905-7.86-1.815-.124 3.026-8.105-2.35-10.833 5.102-16.973 18.662 3.047 4.09-3.17 8.514-5.569 14.198-.748 6.454 3.52 3.139.609z" id="11423" data-name="Mișca" class="comuna"/>
    <path d="M347.094 40.697l-3.026 8.105-15.163 6.357-8.24-.46-15.157-19.972-8.481.653-1.94-9.237-6.466-7.224 3.28-6.497 7.762-2.449 26.543-.166.1 9.67 10.52 4.596 2.22 15.758 8.048.866z" id="12849" data-name="Zerind" class="comuna"/>
    <path d="M471.044 24.741l-3.839 4.98-1.014 8.132-4.68 7.87-25.73 1.262-2.37 7.917-9.84-4.877-8.739-13.156-.987-7.165-5.856-3.964-.349-13.097-2.737-2.063 16.014-2.043 10.777 5.575 10.019-.609 11.643-6.492 5.14-.157L467.157 1l11.756 6.886.525 6.273-8.393 10.582z" id="9798" data-name="Apateu" class="comuna"/>
    <path d="M559.184 126.53l-4.978 5.565-.57 7.436-5.916 3.644-2.767 7.395-6.815 4.2-3.9-3.195-4.181-3.125-2.696-9.066-7.168-2.886-2.409-5.462-8.61.51-3.624-3.118 7.246-12.85 6.238-1.824 2.474 7.14 7.215.543 10.57 6.729 9.006-4.044 10.885 2.407z" id="10346" data-name="Cărand" class="comuna"/>
    <path d="M577.962 161.041l6.657 7.116.434 6.09 10.423 2.386-1.435 8.445-2.467 4.163-13.535-1.085-2.425-4.225-16.308 2.564-8.625-3.653-1.917-11.779-10.325-6.499-.301-9.794 6.815-4.2 2.767-7.395 5.917-3.644.57-7.436 4.977-5.566 7.022-7.09 5.511 10.228-7.444 13.497.784 11.252-4.863 1.77-1.453 8.767 19.22-3.912z" id="9690" data-name="Sebiș" class="oras"/>
    <path d="M422.34 331.935l-4.832-1.728-6.233 10.472 7.58 5.97-.538 8.765 9.455 4.34-11.73-.426-8.078-5.654-12.384-2.829-4.228 1.751-10.594 27.171-23.583 11.953-10.398-6.438 8.58-11.882 11.39-4.708 1.255-18.73-7.829-12.253 1.792-7.788-4.29-6.131 14.627-7.502 5.685-12.422 8.93-7.428 5.489 1.057-3.013 12.15 6.245-1.9 4.603 6.622 11.79 2.38 8.432 4.973-2.97 4.315 4.848 5.9zM329.2 245.98l-5.521 1.302-11.627 4.47-3.316-12.087 6.634-6.344 10.311 2.786 3.518 9.873z" id="9574" data-name="Lipova" class="oras"/>
    <path d="M636.34 389.333l-3.78-5.878 2.015-13.868 7.958-8.336-3.639-11.123-9.731.497-.57-12.901 9.457-3.016-5.103-11.663 9.168-16.487.871-7.108 11.7 4.32 9.158-2.393 4.147-7.079 5.682-3.266 6.586-1.07.728 8.564 5.062 8.504-1.77 3.397-7.129 14.4-16.062 11.144 4.622 8.026 4.173 1.338 2.124 16.733-2.993 7.707 2.376 10.52-20.051 10.922-15-1.884z" id="11664" data-name="Petriș" class="comuna"/>
    <path d="M549.235 52.76l-10.771 14.61-15.045 15.412-1.583 10.743 2.024 11.594-11.064 10.46-7.246 12.85-13.838-5.166-12.74-2.405-4.422-5.568 7.916-5.797-3.233-13.215-11.736-9.92 3.942-5.167 13.565-1.923 6.729.563 11.783 7.18 3.793-2.942 3.848-15.565 4.206-8.597 10.388-.655 21.369-10.42 2.115 3.928z" id="9930" data-name="Beliu" class="comuna"/>
    <path d="M580.76 76.299l-6.624 1.085-9.97 9.456-10.804 15.557-13.41 8.268-8.835-1.023-7.257-4.523-2.024-11.594 1.583-10.743 15.045-15.413 10.771-14.61 8.775-5.882 16.38.243 7.136 5.15-4.691 13.901 3.926 10.128z" id="11236" data-name="Hășmaș" class="comuna"/>
    <path d="M386.757 57.102l-4.269 4.343-2.277 9.209 3.91 7.241-5.363 8.236.234 10.665-2.486 4.993 10.122 12.624.986 11.94-6.315 3.504-3.989 6.483-9.415-2.153-4.43 2.493-5.133-6.736-6.786-3.884-6.329-9.63 10.94-5.318.522-10.133-3.812-12.203-10.585-1.404-1.868-22.235-3.594-1.742 9.063-14.47 16.905 7.861 8.466 1.363 9.098-4.486 6.405 3.44z" id="12055" data-name="Sintea Mare" class="comuna"/>
    <path d="M196.404 318.719l-7.198-.194-1.994-17.57-3.667-7.33 2.596-2.62 21.351-1.231 2.405 6.354 1.95 19.477-15.443 3.114z" id="12938" data-name="Zădăreni" class="comuna"/>
    <path d="M183.545 293.625l3.667 7.33 1.994 17.57-8.143.98.897 5.986-17.028 3.117-.271-5.258-13.273 2.277.155-20.862-4.055-9.975 3.172-12.541 4.72 7.695 28.165 3.681z" id="10827" data-name="Felnac" class="comuna"/>
    <path d="M480.436 301.368l-7.227 13.361 4.4 17.62 5.597-3.073 9.81 2.377 1.523 5.582-5.219 12.92-.453 6.732-7.58 2.785-8.994 4.221-7.543-4.638 1.099-7.908-3.073-7.046-15.523 1.928-3.4-8.654-11.464-1.065-.252-4.37-9.796-.205-4.849-5.9 2.971-4.315-8.432-4.974-11.79-2.379-4.603-6.622-6.245 1.9 3.013-12.15 8.416-12.478.634-11.27 11.324 2.883 9.456-5.98 9.18-2.582 2.445 12.472 6.301 4.3 9.07-3.41 6.352 4.1 11.421 3.115.936 7.355 12.495 5.368z" id="10453" data-name="Conop" class="comuna"/>
    <path d="M401.456 273.747l-.634 11.27-8.416 12.478-5.489-1.057-8.93 7.428-5.685 12.422-14.627 7.502-3.829-5.269-8.009 1.15-9.402 6.937-1.415-13.734-9.165.751-6.201 4.321-5.44-6.18-4.585 3.92-1.395-.247-2.642-6.287 7.182-14.315-2.264-12.912 6.006-4.762 1.402 6.085 14.08 2.61-2.642 11.292 5.72.78 10.185 7.615 10.417 2.953 5.863-10.53.499-7.344-4.906-4.52 1.514-10.416 12.809-6.934.064-9.326 12.89-8.722 10.721-.465-.677 11.661 7 11.845zm-75.775-37.64l-10.311-2.786-3.927-5.434-12.393 5.698-1.774-6.406 11.03-6.324 9.213-6.664 8.162 21.916z" id="11539" data-name="Păuliș" class="comuna"/>
  </g>
</svg>
