<svg xmlns="http://www.w3.org/2000/svg" version="1.2" baseProfile="tiny" stroke-linecap="round" stroke-linejoin="round" viewBox="0 0 800 868">
  <g id="B" fill="none" stroke="#aaa">
    <path d="M454.594 224.809l216.135 32.503-87.589 103.032 57.733 36.056 66.245 4.595 4.856 12.916-36.8 32.132-165.138 15.935-86.498-15.327-9.885-94.175 14.15-83.257 26.791-44.41z" id="179150" data-name="București Sectorul 2" class="sector"/>
    <path d="M319.583 438.158l-31.326 16.45-20.324 93.382-106.653 5.91-67.535 22.737-61.232 1.91-29.03-109.426L1 431.301l140.515-11.279-12.566-64.18-89.618-52.78 41.372-38.1 78.558 20.765 138.715 98.646 21.607 53.785z" id="179196" data-name="București Sectorul 6" class="sector"/>
    <path d="M454.594 224.809l-26.791 44.41-14.15 83.257 9.885 94.175-17.578 4.528-86.377-13.02-21.607-53.786-138.715-98.646-78.558-20.765-41.372 38.1 1.569-5.231 22.599-88.225 32.64-30.205 29.951-68.184 63.073-56.203L337.441 12.55 419.648 1l-2.939 133.185 37.885 90.624z" id="179141" data-name="București Sectorul 1" class="sector"/>
    <path d="M405.96 451.18l-4.11 23.082-26.859 43.633 27.88 83.875-23.577 132.096-6.264-.466-93.17-42.515-71.277-14.712-69.555-96.237-45.283-3.299 67.535-22.736 106.653-5.91 20.325-93.383 31.325-16.45 86.377 13.021z" id="179187" data-name="București Sectorul 5" class="sector"/>
    <path d="M605.047 605.722l-114.826-39.466-49.808-70.848-38.562-21.146 4.109-23.083 17.578-4.528 86.498 15.327 165.137-15.935 36.8-32.132 32.098 35.615L799 456.232l-21.578 85.233-17.654 73.438-92.009 9.374-62.712-18.555z" id="179169" data-name="București Sectorul 3" class="sector"/>
    <path d="M605.047 605.722l-55.492 111.339 65.294 131.67-54.557 18.224-107.622-99.51-73.376-33.58 23.577-132.095-27.88-83.875 26.86-43.633 38.562 21.146 49.808 70.848 114.826 39.466z" id="179178" data-name="București Sectorul 4" class="sector"/>
  </g>
</svg>
