<svg xmlns="http://www.w3.org/2000/svg" version="1.2" baseProfile="tiny" stroke-linecap="round" stroke-linejoin="round" viewBox="0 0 800 745">
  <g id="BT" fill="none" stroke="#aaa">
    <path d="M576.468 629.859l7.864-3.13 9.119 8.739-.279 5.644 16.48 26.525-2.982 12.02 3.83 20.542-28.153-21.684-7.765-10.027-11.877.394-18.153 10.652-27.588-16.003-7.856-10.482-37.58-5.357-20.587 11.088-10.099-6.466 2.648-18.202-4.128-13.444 3.646-8.731 19.7-2.942 15.53 7.584 13.656-13.001 13.499 5.37 9.433-1.64 15.055 4.462 19.525 17.84 13.884 3.506 18.47 20.344 6.386-10.182-11.678-13.42z" id="37280" data-name="Flămânzi" class="oras"/>
    <path d="M383.084 654.27l-5.031 6.23-12.736-2.473-6.54 7.13-12.021.02-25.378-7.053-6.474 6.397-11.276-5.148-12.242-15.551-4.543-16.865-7.674-5.295 2.176-19.639 18.678-5.822 12.035 2.689 18.165-13.98 14.765-5.73 8.836 22.834 7.796 4.297-1.112 10.753 6.519 5.975 16.057 31.231z" id="39872" data-name="Vorona" class="comuna"/>
    <path d="M464.125 560.552l6.849 8.32 11.859 1.647 9.36 15.06 11.748 7.596 7.033 11.062 11.38-6.371 21.285 12.978 14.977.214 17.852 18.8 11.678 13.42-6.385 10.182-18.471-20.344-13.884-3.506-19.525-17.84-15.055-4.462-9.433 1.64-13.499-5.37-13.655 13.001-15.531-7.584-19.7 2.942-12.453-22.795 22.19-8.648 11.38-19.942z" id="36569" data-name="Copălău" class="comuna"/>
    <path d="M407.098 548.925l4.123 9.235-16.086 31.642L406.4 602.86l-1.353 14.364 11.28 27.914 4.249 3.616-15.83 9.243-12.923-.346-8.739-3.38-16.057-31.232-6.52-5.975 1.113-10.753-7.796-4.297-8.836-22.835 10.908-19.533 10.127-15.478 9.264-5.678 8.763 9.617 15.726-3.3 7.322 4.118z" id="36907" data-name="Cristești" class="comuna"/>
    <path d="M760.378 617.115l-9.822-3.447-10.12 9.58-8.422-1.08-9.86-10.416-9.002 3.982-8.89-8.143-9.337-18.546-9.908 7.43-6.499-28.118 5.226-10.655 3.96 6.02 15.566-6.306 12.047 1.728 15.997-23.942 10.112 5.509-13.847 15.137 25.423 20.64-6.044 9.562 12.825 10.198.595 20.867z" id="36499" data-name="Călărași" class="comuna"/>
    <path d="M593.472 552.807l-10.55 6.16 2.47 13.065 12.044 8.944-4.785 7.37 2.316 12.417 14.793 8.6-16.68 18.208.37 7.897-9.118-8.74-7.864 3.13-17.852-18.8-14.977-.214-21.284-12.978 8.005-11.565 11.907-30.015 8.08-4.26-4.5-10.448 13.795-8.826 9.386-5.831 11.919 5.46 12.525 20.426z" id="37912" data-name="Lunca" class="comuna"/>
    <path d="M666.984 536.156l6.146 6.918-7.952 9.854-10.671 2.586-11.71 10.66 6.455 12.078-4.23 7.751-13.247 2.308 7.56 27.786-16.034 15.77-7.507-23.952-6.034 1.447-14.793-8.599-2.316-12.417 4.786-7.37-12.044-8.944-2.47-13.065 10.55-6.16 8.581.487 7.417 10.548 13.096-4.181 29.824-23.691 14.593.186z" id="39266" data-name="Todireni" class="comuna"/>
    <path d="M355.896 559.646l-10.908 19.534-14.765 5.73-18.165 13.98-12.035-2.69-18.678 5.823-7.615-15.004-.493-26.495-8.922.611-11.103-5.684 2.15-8.092 50.09-34.094 16.93 15.048 13.605 17.013-9.895 10.642 12.303 10.114 11.423-12.508 6.078 6.072z" id="36756" data-name="Corni" class="comuna"/>
    <path d="M724.009 512.363l14.47 8.511 11.898 32.495 10.69 12.804 17.005 7.016 8.093 18.94L799 601.054l-27.296 13.87-10.886 2.917-.44-.726-.595-20.867-12.825-10.198 6.044-9.562-25.423-20.64 13.847-15.137-10.112-5.51-15.997 23.943-12.047-1.728-15.565 6.306-3.961-6.02-10.614-14.628-6.146-6.918 10.392-9.952-3.053-9.98 8.34 3.952 9.78-10.027 14.004 10.637 17.562-8.423z" id="38893" data-name="Santa Mare" class="comuna"/>
    <path d="M367.768 507.07l11.435 17.666-3.915 13.755-9.265 5.677-10.127 15.478-6.078-6.072-11.423 12.508-12.303-10.114 9.895-10.642-13.605-17.013-16.93-15.048-7.706-10.609 26.114-28.884 21.066 11.168 22.842 22.13z" id="35759" data-name="Curtești" class="comuna"/>
    <path d="M662.195 496.375l-2.089 11.635 14.217 8.215 3.053 9.979-10.392 9.952-14.593-.186-29.824 23.691-13.096 4.18-7.417-10.547-8.582-.487-12.525-20.425-11.919-5.461-9.386 5.83-1.2-12.325-7-13.002 22.48-23.84 15.273-11.154 9.35-7.07 8.575 10.511 20.203 15.856 22.486 7.664 12.386-3.016z" id="36131" data-name="Albești" class="comuna"/>
    <path d="M265.327 466.21l32.419 36.446 7.706 10.61-50.09 34.093-12.488-16.334-17.934-28.735-3.34-12.476-4.04-4.377 29.82-22.001 17.947 2.774z" id="39738" data-name="Vlădeni" class="comuna"/>
    <path d="M533.713 529.465l-13.327 1.121-8.65-7.261-23.57 17.978-12.873-9.593-21.934-27.909 4.132-10.223 17.942-6.712 3.276 7.248 18.108-6.806 3.021-21.521 20.407-11.096.933 14.603 6.387 11.06-2.487 7.944-15.475 10.9 13.237 11.789 10.873 18.478z" id="39983" data-name="Blândești" class="comuna"/>
    <path d="M450.74 480.612l6.751 12.966-4.132 10.223-15.966 10.028-16.99 4.297-22.791-23.435-15.664-8.892.608-10.789 8.952-8.44 28.796-21.898 14.763 22.976 5.669 13.243 10.003-.28z" id="35884" data-name="Stăuceni" class="comuna"/>
    <path d="M724.009 512.363l-17.562 8.423-14.004-10.637-9.78 10.027-8.34-3.951-14.216-8.215 2.088-11.635 6.008-6.842 11.464-1.418 11.794-15.399 27.008-24.25 11.014 2.067-2.67 26.875-12.127-1.916-5.777 10.187 9.935 5.852 5.165 20.832z" id="38848" data-name="Românești" class="comuna"/>
    <path d="M335.287 419.558l13.905 6.8-7.835 22.21 10.76 7.212 27.888 9.824 11.502.965-8.951 8.441-.608 10.789 15.664 8.892-12.93 13.549-16.914-1.17-22.842-22.13-21.066-11.168 4.835-6.887 9.4-27.207-7.69-11.994 3.982-8.352.9.226z" id="35731" data-name="Botoșani" class="municipiu resedinta"/>
    <path d="M237.65 426.47l1.342 13.514 22.31 17.704 4.025 8.522-17.948-2.774-29.82 22.001-4.912-9.37-11.918-4.604-17.517 8.01 8.47-12.45-3.617-27.082.58-12.997 14.59-11.934 9.343 4.814 11.893 13.893 13.179-7.248z" id="36453" data-name="Bucecea" class="oras"/>
    <path d="M633.556 408.595l2.231 14.147 9.885 6.064 5.136 21.29 17.395 39.437-6.008 6.842-12.386 3.016-22.486-7.664-20.203-15.856-8.576-10.511-9.349 7.07-12.839-35.796 14.332 1.49-17.049-19.501 1.9-9.974 21.58 13.794 16.766-11.464 19.67-2.384z" id="37217" data-name="Durnești" class="comuna"/>
    <path d="M334.387 419.332l-3.982 8.352 7.69 11.994-9.4 27.207-4.835 6.887-26.114 28.884-32.419-36.446-4.026-8.522-22.309-17.703-1.342-13.516 45.218-31.787 14.19 2.553-10.272 11.114 27.976 9.802 19.625 1.181z" id="38063" data-name="Mihai Eminescu" class="comuna"/>
    <path d="M514.19 412.255l9.2 16.336-3.145 26.1-20.407 11.096-3.021 21.521-18.108 6.806-3.276-7.248-17.942 6.712-6.752-12.966 11.23-10.415-8.622-29.181-1.848-19.425-13.809-21.58-2.458-3.135 16.394.98 16.85-7.203 4.59 9.775 17.228-1.763 3.221 11.412 11.286 5.248 9.388-3.07z" id="37459" data-name="Gorbănești" class="comuna"/>
    <path d="M263.598 384.582l7.828-2.638 11.442 12.738-45.218 31.787-13.18 7.248-11.892-13.893-9.343-4.814-23.176-11.6 39.223-16.546.667-5.288 17.301-7.44 7.35 17.785 18.998-7.339z" id="37850" data-name="Leorda" class="comuna"/>
    <path d="M420.304 444.672l-28.796 21.897-11.503-.965-27.888-9.824-10.76-7.213 7.835-22.21-13.905-6.799 1.863-17.682 10.356-16.545 10.295-2.227 10.166 5.275 5.412-16.417 32.613 25.892-7.886 8.125 3.803 20 18.395 18.693z" id="35839" data-name="Răchiți" class="comuna"/>
    <path d="M655.621 365.384l10.259 8.729 14.584-5.524 22.965 17.394-18.787 8.286 31.851 35.413 1.976 18.784-27.008 24.25-11.794 15.4-11.464 1.417-17.395-39.436-5.136-21.291-9.885-6.064-2.231-14.147 8.188-5.762-.94-10.147-9-13.543 15.65-13.425 8.167-.334z" id="39168" data-name="Ștefănești" class="oras"/>
    <path d="M430.738 386.06l2.007 3.282-10.105 6.043 5.105 6.818 9.945-2.192 13.809 21.58 1.848 19.425 8.622 29.181-11.23 10.415-10.003.279-5.67-13.243-14.762-22.976-18.395-18.693-3.803-20 7.886-8.125-32.613-25.892-2.61-8.803 19.311-6.813 17.596 10.731 8.418 10.296 14.644 8.687z" id="39532" data-name="Unțeni" class="comuna"/>
    <path d="M337.15 401.876l-1.863 17.682-.9-.226-19.625-1.18-27.976-9.803 10.272-11.114-14.19-2.553-11.442-12.738-7.828 2.638-5.157-11.576 21.949-13.083 24.177-13.14 15.248 27.433 9.084 4.993 8.25 22.667z" id="38811" data-name="Roma" class="comuna"/>
    <path d="M573.663 347.644l8.757 10.776 14.875 2.306 30.732 22.809 3.776-4.392 9.001 13.543.94 10.147-8.188 5.762-19.67 2.384-16.767 11.464-21.58-13.794 4.26-13.11-3.701-16.344-10.72 11.329-12.798-9.812-15.718-21.357 7.347-4.816-2.272-14.458 19.09 10.514 12.636-2.95z" id="37100" data-name="Dobârceni" class="comuna"/>
    <path d="M280.39 359.923l-21.95 13.083 5.158 11.576-18.998 7.34-7.35-17.787-17.3 7.44-.668 5.29-39.223 16.544-12.128-4.666 7.814-9.547-12.157-6.737 51.418-23.297 15.543-14.028 21.454-11.094 11.287 5.327 17.1 20.556z" id="36373" data-name="Brăești" class="comuna"/>
    <path d="M541.937 340.081l2.272 14.458-7.347 4.816 15.718 21.357-15.546 7.969 1.27 10.871 9.376 6.233-15.106 11.411-18.385-4.941-9.388 3.07-11.286-5.248-3.221-11.412-17.227 1.763-4.591-9.775-16.85 7.203-16.394-.98-2.487-7.534-2.007-3.282 5.006-3.605 30.89-7.594.907-14.938 5.928-5.395 24.364-5.696 3.079-13.749 10.073-11.612 30.952 16.61z" id="37057" data-name="Dîngeni" class="comuna"/>
    <path d="M142.542 349.884l17.303 17.686 3.743 14.89 12.157 6.736-7.814 9.547 12.128 4.666 23.176 11.6-14.59 11.935-.58 12.998-15.225 8.984-20.826-18.166-14.743-18.37-3.336-19.095-8.413-1.971 1.444-15.922-12.27-.473-11.133-10.34-2.551-15.216-11.215-5.433 8.54-13.318 22.288-11.886 5.6 22.028 16.317 9.12z" id="39694" data-name="Vârfu Câmpului" class="comuna"/>
    <path d="M370.77 363.159l2.609 8.803-5.412 16.417-10.166-5.275-10.295 2.227-10.356 16.545-8.251-22.667-9.084-4.993-15.248-27.432 10.767-11.55-.11-10.971 20.373-6.664 3.1 14.98 19.745 16.058 12.328 14.522z" id="38456" data-name="Nicșeni" class="comuna"/>
    <path d="M252.003 334.04l-21.454 11.094-15.543 14.028-51.418 23.297-3.743-14.89-17.303-17.685 14.222-7.355 6.572-11.048 23.354-13.62 12.896 5.309 10.752-9.086 24.308 2.31 8.829-12.032-3.067 15.896 11.595 13.782z" id="39612" data-name="Văculești" class="comuna"/>
    <path d="M249.088 302.273l18.088 10.58 16.93-4.962 23.837 4.656 7.28 11.716.11 10.97-10.766 11.55-24.177 13.14-17.1-20.556-11.287-5.327-11.595-13.782 3.067-15.896 5.613-2.09z" id="39959" data-name="Dimăcheni" class="comuna"/>
    <path d="M597.295 283.136l17.128 18.731-2.144 9.166 15.985 15.926 27.357 38.425-8.167.334-15.65 13.425-3.777 4.392-30.732-22.809-14.875-2.306-8.757-10.776 13.374-27.817-17.317-13.625 17.065-17.826 10.51-5.24z" id="38241" data-name="Mihălășeni" class="comuna"/>
    <path d="M120.625 318.736l-22.287 11.886-9.749-11.52.05-17.272 22.89-26.836 22.472 18.99 6.246 10.025-19.622 14.727z" id="39942" data-name="Lozna" class="comuna"/>
    <path d="M88.64 301.83l-.05 17.273 9.748 11.519-8.54 13.318-6.016-4.957-13.361 6.376-9.39-1.34-7.324-1.725-.78-24.858-10.084-2.519L48.9 308.3l-3.686-13.771 14.008-15.902 6.89-3.94 14.746 26.519 7.783.624z" id="39967" data-name="Cândești" class="comuna"/>
    <path d="M680.464 368.589l-14.584 5.524-10.259-8.73-27.357-38.424-15.985-15.926 2.144-9.166-17.128-18.73 23.223-1.746 23.608-12.988 15.063 12.332-16.017 23.627 30.434 16.833 6.858 47.394z" id="38731" data-name="Ripiceni" class="comuna"/>
    <path d="M435.232 396.876l2.458 3.135-9.945 2.192-5.105-6.818 10.105-6.043 2.487 7.534zm-51.657-124.711l16.212-1.434 12.757 15.507 23.894 17.875 16.526 4.856-.41 7.341 15.017 9.944-1.084 17.805 6.982 10.469-5.928 5.394-.907 14.939-30.89 7.594-5.006 3.605-14.644-8.687-8.418-10.296-17.596-10.73-19.31 6.812-12.328-14.522-19.745-16.058-3.1-14.98 24.452-8.547 4.316-14.043 12.384-6.315 6.826-16.53z" id="39417" data-name="Ungureni" class="comuna"/>
    <path d="M314.888 278.426l21.428 20.639 17.162.263 10.887-4.319-4.317 14.043-24.451 8.547-20.373 6.664-7.28-11.716-23.838-4.656-16.93 4.962-18.088-10.58-6.415-9.517 13.736-7.256 9.983-13.293 18.97-9.317 22.541 24.857 6.985-9.32z" id="36676" data-name="Corlăteni" class="comuna"/>
    <path d="M59.22 278.627l-14.007 15.902 3.686 13.77-6.056 6.618-11.29-.4-12.422-6.85-1.438-7.39.552-15.181-9.623-3.583 5.07-10.277L1 265.5l43.776-11.517 14.445 24.644z" id="38161" data-name="Mihăileni" class="comuna"/>
    <path d="M155.387 254.173L170 270.686l5.852 28.606 10.838 18.568-23.354 13.62-6.572 11.049-14.222 7.355-16.317-9.12-5.6-22.028 19.622-14.727L134 293.983l-22.471-18.989-6.53-9.069 24.274-13.927 9.507 2.51 8.366 11.82 8.24-12.155z" id="39122" data-name="Șendriceni" class="comuna"/>
    <path d="M545.29 273.84l3.623 16.815-21.372 9.12-.37 10.157-16.186 13.539-10.073 11.612-3.08 13.749-24.363 5.696-6.982-10.47 1.084-17.804-15.018-9.944.41-7.341 17.766-15.844 21.603-1.236 4.974-20.748 16.674-1.47 2.14-18.24 10.34 2.06 7.43 15.247 11.4 5.102z" id="39792" data-name="Vlăsinești" class="comuna"/>
    <path d="M586.785 288.376l-17.065 17.826 17.317 13.625-13.374 27.817-12.635 2.95-19.09-10.513-30.953-16.61 16.186-13.54.37-10.156 21.372-9.12-3.623-16.815.703-18.36 9.126-8.469 19.637 20.371 12.029 20.994z" id="37618" data-name="Hănești" class="comuna"/>
    <path d="M266.392 272.207L256.41 285.5l-13.736 7.256 6.415 9.517-5.613 2.089-8.83 12.032-24.307-2.31-5.732-5.536-8.436-19.609 17.542-20.162 17.648-7.478 14.375-15.397 20.657 26.305z" id="36426" data-name="Broscăuți" class="comuna"/>
    <path d="M516.12 251.432l-2.14 18.24-16.674 1.469-4.974 20.748-21.603 1.236-17.765 15.844-16.526-4.856-8.515-13.177 8.325-3.031 4.226-29.862-11.646-11.277 12.66-7.248 9.568 2.707 21.095-11.776 9.494-.291 9.618 21.963 22.431-4.7 2.427 4.01z" id="36060" data-name="Săveni" class="oras"/>
    <path d="M245.735 245.902l-14.375 15.397-17.648 7.478-17.542 20.162 8.436 19.609 5.732 5.536-10.752 9.086-12.896-5.31-10.838-18.568L170 270.686l-14.613-16.513 1.477-5.131 18.457-4.988 12.168-10.902 13.703 6.129 10.293-16.049 28.188 5.262 10.46 10.86-4.398 6.548z" id="36006" data-name="Dorohoi" class="municipiu"/>
    <path d="M105 265.925l6.53 9.07-22.89 26.835-7.783-.624-14.746-26.518-6.89 3.939-14.445-24.644 10.343-4.394 6.607-11.48 5.047-19.02 13.612 12.577 5.574 14.127 19.042 20.132z" id="37011" data-name="Dersca" class="comuna"/>
    <path d="M377.929 240.57l19.96 27.86-14.314 3.735-6.826 16.529-12.384 6.315-10.887 4.32-17.162-.264-21.428-20.639-.891-10.52 7.292-4.803 8.67-34.576 10.746-13.274 9.94 10.414 18.377 5.976 8.907 8.928z" id="39836" data-name="Vorniceni" class="comuna"/>
    <path d="M428.828 246.766l11.646 11.277-4.226 29.862-8.325 3.031 8.515 13.177-23.894-17.875-12.757-15.507-16.212 1.434 14.313-3.735-19.959-27.86 8.212-16.03 13.046-16.23 6.992-8.976 15.997 22.113-6.388 4.046 13.04 21.273z" id="39220" data-name="Știubieni" class="comuna"/>
    <path d="M281.217 198.054l9.55 11.309 14.916 4.08 24.277 15.084-8.671 34.576-7.292 4.803.89 10.52-6.984 9.321-22.54-24.857 3.088-26.793-10.628-11.237-11.368-18.767 14.762-8.04z" id="36649" data-name="Cordăreni" class="comuna"/>
    <path d="M184.216 228.372l3.273 4.78-12.168 10.903-18.457 4.987-1.477 5.13-8.24 12.155-8.365-11.82-9.508-2.51L105 265.926l-19.042-20.132-5.574-14.127-13.612-12.578 6.075-23.403 1.158 7.991 27.507 8.237 8.754-4.654 30.442 16.401 18.566 3.618 3.56 5.957 21.38-4.863z" id="37672" data-name="Hilișeu-Horia" class="comuna"/>
    <path d="M546.953 173.006l7.542 8.528 3.057 9.756 13.227 20.012-22.45 20.752 6.79 14.957-9.126 8.469-.703 18.36-11.4-5.102-7.43-15.247-10.34-2.06-2.426-4.01-22.431 4.7-9.618-21.963 4.478-13.934-6.245-13.682-16.44-6.586 26.989-14.753 13.81 15.362 18.58 1.608 24.136-25.167z" id="36202" data-name="Avrămeni" class="comuna"/>
    <path d="M288.401 183.523l-7.184 14.53-14.762 8.04 11.368 18.767 10.628 11.237-3.089 26.793-18.97 9.317-20.657-26.305 4.398-6.548-10.46-10.86-28.188-5.262 7.174-10.525 21.332-15.658-4.162-5.504 16.841-16.347 23.055-6.478 12.676 14.803z" id="37397" data-name="George Enescu" class="comuna"/>
    <path d="M463.438 195.956l16.44 6.586 6.245 13.682-4.478 13.934-9.494.29-21.095 11.777-9.567-2.707-12.661 7.248-13.04-21.273 6.388-4.046-15.997-22.113-5.073-4.742 19.408-21.552 11.754-7.344 17.622 13.08 13.548 17.18z" id="37173" data-name="Drăgușeni" class="comuna"/>
    <path d="M644.126 268.403l-23.608 12.988-23.223 1.745-10.51 5.24-12.03-20.994-19.636-20.37-6.79-14.958 22.45-20.752-13.227-20.012-3.057-9.756 19.033-19.786 2.246 10.626 18.217 12.565 4.527 15.008 16.332 7.596-9.972 6.71 4.486 14.517 22.456 12.334 18.84-3.727-7.298 21.37.764 9.656z" id="37958" data-name="Manoleasa" class="comuna"/>
    <path d="M218.659 212.707l-7.173 10.525-10.294 16.049-13.703-6.13-3.273-4.78 3.014-10.004-13.51-1.097-20.059-19.02-19.908-22.064 18.053-10.175 8.941-11.897 31.331 30.233 18.684 13.896 7.897 14.464z" id="37823" data-name="Ibănești" class="comuna"/>
    <path d="M546.953 173.006l-24.136 25.167-18.58-1.608-13.81-15.362-9.954-9.75-2.569-9.335 19.43-13.538 20.697 9.177 11.966 9.9 6.528-4.492 10.428 9.841z" id="40035" data-name="Adășeni" class="comuna"/>
    <path d="M133.753 176.186l19.908 22.064 20.06 19.02 13.51 1.097-3.015 10.005-21.382 4.863-3.56-5.957-18.565-3.618-30.442-16.401-8.754 4.654-27.507-8.237-1.158-7.99 29.07-20.356 5.06-8.835 6.755-29.415 1.919 7.13 22.041 23.031-3.94 8.945z" id="38544" data-name="Pomîrla" class="comuna"/>
    <path d="M340.027 146.934l11.978 3.564 4.685 17.3 18.057 16.288 12.76 17.286 11.68 6.937-13.046 16.232-8.212 16.03-8.907-8.928-18.377-5.976-9.94-10.414-10.745 13.274-24.276-15.083-14.916-4.081-9.551-11.31 7.184-14.53 6.005-15.07 9.24-1.077-.242-12.544 5.6-10.374 11.464-6.593 19.56 9.069z" id="37547" data-name="Havîrna" class="comuna"/>
    <path d="M391.38 125.044l18.191 2.842-2.475 12.03 25.172 25.78-11.754 7.344-19.408 21.552 5.073 4.742-6.992 8.975-11.68-6.937-12.76-17.286-18.057-16.288-4.685-17.3-11.978-3.564-1.235-8.265 1.613-14.527 10.522-4.993 9.015 12.808 11.947 3.743 10.541 10.523 8.95-21.179z" id="38321" data-name="Mileanca" class="comuna"/>
    <path d="M235.83 191.545l4.16 5.504-21.331 15.658-7.897-14.464-18.684-13.896-31.331-30.233-8.941 11.897-18.053 10.175 3.94-8.945-22.041-23.032-1.919-7.129 12.235-21.921 18.599 14.233 5.336-3.227 25.058 8.871 29.283 20.187 31.585 36.322z" id="36952" data-name="Cristinești" class="comuna"/>
    <path d="M573.528 161.748l-19.033 19.786-7.542-8.528-10.428-9.841-6.528 4.492-11.966-9.9-20.697-9.177-19.43 13.538 3.928-6.852 19.222-10.955 23.545-27.427 24.559 7.118 7.261-12.89 14.025 7.376-3.25 11.781 4.227 7.652-7.064 17.967 9.17 5.86z" id="38376" data-name="Mitoc" class="comuna"/>
    <path d="M338.792 138.67l1.235 8.264-19.559-9.069-28.755-22.29-27.532-15.43-8.78-9.92 5.327-6.397 18.05 2.335 47.93 29.784 8.423 9.95 3.661 12.772z" id="36532" data-name="Concești" class="comuna"/>
    <path d="M196.066 61.603l-1.284 18.244 4.465 12.343 8.66 4.814 11.033 20.956 56.785 50.76-23.055 6.478-16.84 16.347-31.586-36.322-29.283-20.187-25.058-8.87-5.336 3.226-18.6-14.233 15.627-15.715-4.134-15.188 3.92-7.347 13.93-.866 12.118-12.732 5.653 10.577 22.985-12.285z" id="38982" data-name="Suharău" class="comuna"/>
    <path d="M392.103 60.616l34.19 30.894.331 16.28-17.053 20.096-18.192-2.842-24.742-30.316-21.406-17.953 12.59-16.622 14.94 12.283 19.342-11.82z" id="39658" data-name="Viișoara" class="comuna"/>
    <path d="M524.599 116.884l-23.545 27.427-19.222 10.955-3.928 6.852 2.569 9.336 9.954 9.749-26.989 14.753-13.548-17.18-17.622-13.08-25.172-25.78 2.475-12.03 17.053-20.096 21.57-18.37 6.878 9.971 18.609-18.984 8.177 6.8 8.093-13.541 7.29-3.618-5.08-12.018 10.368-2.85 12.252 11.125-9.929 14.939 8.072 9.617 14.235-1.73 9.82 4.197-2.293 12.006-18.286-4.73 8.199 16.28z" id="36809" data-name="Coțușca" class="comuna"/>
    <path d="M245.664 47.186l-6.646 5.9 8.307 19.573 13.403 11.17-5.327 6.396 8.78 9.92 27.532 15.43 28.755 22.29-11.465 6.593-5.599 10.374.241 12.544-9.24 1.077-6.004 15.07-12.676-14.803-56.785-50.76-11.032-20.956-8.66-4.814-4.466-12.343 1.284-18.244 18.665-5.71.308-7.042 22.804-4.659 7.821 2.994z" id="37770" data-name="Hudești" class="comuna"/>
    <path d="M307.665 23.113l-2.784 11.564 8.683 11.982-.593 12.529 12.012 16.58 20.248 1.007 21.406 17.953 24.742 30.316-8.949 21.179-10.541-10.524-11.947-3.742-9.015-12.808-10.522 4.993-1.613 14.527-3.661-12.772-8.423-9.95-47.93-29.784-18.05-2.335-13.403-11.17-8.307-19.572 6.646-5.9 13.905 4.199 23.986-9.067.51-17.135 10.999-7.057 12.6 4.987z" id="35946" data-name="Darabani" class="oras"/>
    <path d="M489.95 73.666l-8.092 13.54-8.177-6.799-18.61 18.984-6.876-9.97-21.57 18.37-.332-16.28-34.19-30.895 9.767-18-6.86-4.24 1.18-23.993 15.222 3.68 14.84-10.631 12.382 9.003 4.81 16.427 10.663-7.587 5.798 14.368 17.153 15.255 3.245 11.112 9.648 7.656z" id="38633" data-name="Rădăuți-Prut" class="comuna"/>
    <path d="M396.19 14.383l-1.18 23.993 6.86 4.24-9.767 18-19.342 11.82-14.94-12.283-12.59 16.622-20.248-1.006-12.012-16.581.593-12.529-8.683-11.982 2.784-11.564 11.263-6.96.597-11.505 32.597 8.89L359.012 1l15.745 14.976 12.728-6.184 8.704 4.591z" id="38492" data-name="Păltiniș" class="comuna"/>
    <path d="M559.642 532.752l-13.796 8.826 4.5 10.449-8.079 4.26L530.36 586.3l-8.005 11.565-11.38 6.37-7.034-11.06-11.748-7.596-9.36-15.061-11.86-1.647-6.848-8.32 8.831-12.877-9.519-7.5 3.788-7.173 20.94 8.301 23.571-17.978 8.65 7.261 13.327-1.121 17.73-22.041 6.999 13.002 1.2 12.326z" id="39051" data-name="Sulița" class="comuna"/>
    <path d="M575.539 408.649l-1.9 9.974 17.049 19.5-14.332-1.489 12.84 35.796-15.273 11.154-22.48 23.84-17.73 22.04-10.873-18.477-13.237-11.789 15.475-10.9 2.487-7.943-6.387-11.061-.933-14.603 3.145-26.1-9.2-16.336 18.384 4.941 15.106-11.411-9.375-6.233-1.27-10.871 15.545-7.969 12.798 9.812 10.72-11.329 3.7 16.344-4.26 13.11z" id="39328" data-name="Trușești" class="comuna"/>
    <path d="M732.014 622.169l-10.94-2.21-7.22 6.108-2.57 20.216 8.133 11.961-21.615 15.131-33.66-8.792-15.437-15.853 4.49-7.72 13.712-1.762-4.624-14.836 22.734-27.938 9.908-7.429 9.337 18.546 8.89 8.143 9.002-3.982 9.86 10.417z" id="38679" data-name="Răușeni" class="comuna"/>
    <path d="M544.553 679.534l9.818 16.578-29.679-3.556-6.637 4.432-33.229.84-17.614-2.297-18.41-11.161-18.2 7.811-21.152-2.395-21.634-10.638 4.007-21.498 12.923.347 15.83-9.243 20.266 3.56 10.099 6.466 20.587-11.088 37.58 5.356 7.856 10.483 27.588 16.003z" id="37324" data-name="Frumușica" class="comuna"/>
    <path d="M610.5 700.199l1.85 19.705-10.72 2.539-13.48 21.806-5.3-9.353-15.52-26.421-12.96-12.363-9.817-16.578 18.152-10.652 11.877-.394 7.765 10.027 28.154 21.684z" id="38580" data-name="Prăjeni" class="comuna"/>
    <path d="M683.744 557.702l-5.226 10.655 6.5 28.117-22.735 27.938 4.624 14.836-13.712 1.762-4.49 7.72-27.44-4.872-11.613 23.779-16.48-26.525.279-5.644-.371-7.897 16.68-18.209 6.034-1.447 7.507 23.952 16.035-15.77-7.561-27.786 13.246-2.308 4.23-7.751-6.453-12.078 11.709-10.66 10.67-2.587 7.953-9.853 10.614 14.628z" id="37734" data-name="Hlipiceni" class="comuna"/>
    <path d="M391.823 657.65l-4.007 21.498-12.231 5.827 18.025 32.513-16.12 1.399-47.927 4.935-14.356 7.27-7.153-16.896 1.219-8.248-22.32-19.687 30.75-10.48-2.799-11.26 6.474-6.396 25.378 7.052 12.021-.02 6.54-7.13 12.736 2.473 5.031-6.23 8.739 3.38z" id="39391" data-name="Tudora" class="comuna"/>
    <path d="M452.745 580.494l-22.19 8.648 12.453 22.795-3.646 8.731 4.128 13.444-2.648 18.202-20.266-3.56-4.248-3.616-11.28-27.914 1.352-14.364-11.265-13.058 16.086-31.642-4.123-9.235 15.453 6.773 19.65 19.58 10.544 5.216z" id="39975" data-name="Coșula" class="comuna"/>
    <path d="M453.359 503.801l21.934 27.91 12.873 9.592-20.941-8.3-3.788 7.172 9.519 7.5-8.83 12.877-11.38 19.942-10.544-5.215-19.651-19.58-15.453-6.774-7.322-4.117-15.726 3.3-8.762-9.617 3.915-13.755-11.435-17.666 16.913 1.17 12.931-13.55 22.792 23.435 16.99-4.296 15.965-10.028z" id="36300" data-name="Bălușeni" class="comuna"/>
  </g>
</svg>
