<svg xmlns="http://www.w3.org/2000/svg" version="1.2" baseProfile="tiny" stroke-linecap="round" stroke-linejoin="round" viewBox="0 0 800 358">
  <g id="CL" fill="none" stroke="#aaa">
    <path d="M93.692 277.743l18.072 5.92-2.429 5.969 6.161 7.232.19 9.713-15.844 2.106-21.263-8.876 4.07-14.11 3.425-8.652 7.618.698z" id="101724" data-name="Căscioarele" class="comuna"/>
    <path d="M167.366 290.575l7.045 3.762 3.034 20.966-8.018 10.465 1.726 10.008-2.98 5.648-9.763 3.99-10.21-2.311-14.879.063-46.623 14.267-24.957-5.776-3.085-8.3-7.226-32.15 8.96-7.315 10.403-4.615 7.786.53 21.263 8.876 15.844-2.106-.19-9.713-6.161-7.232 2.429-5.968 4.506 1.49 26.726-1.612 4.604-9.464 6.933 13.62 12.833 2.877z" id="101804" data-name="Chirnogi" class="comuna"/>
    <path d="M229.113 289.846l9.638 8.817 2.781 19.03 3.06 3.74-9.304 4.842-17.678 3.659-15.219-.788-12.364 6.292-21.854 5.986 2.98-5.648-1.726-10.008 8.018-10.465-3.034-20.966-7.045-3.762-3.836-9.39 15.304-11.555 13.407-1.222 1.356 15.283 7.723-.709 4.543 6.05 15.517-4.054 7.733 4.868z" id="100610" data-name="Oltenița" class="municipiu"/>
    <path d="M275.638 301.527l-31.046 19.906-3.06-3.74-2.78-19.03-9.639-8.817 1.965-16.24-3.194-31.535 2.597-.389 11.13-5.879 4.075 7.04 1.19 13.279 6.899-.23 1.685 18.771 6.929-.68.807 8.272 12.442 19.272z" id="105259" data-name="Spanțov" class="comuna"/>
    <path d="M93.692 277.743l-7.618-.698-3.425 8.652-.758-6.596-6.387-11.43-6.28-5.924-.165-7.626 7.288-.832 6.398-2.087 6.361-12.885 11.785-3.4 3.045-.86-5.365 20.722-.269 9.733-4.61 13.23z" id="180055" data-name="Crivăț" class="comuna"/>
    <path d="M136.902 245.342l10.722 10.793 2.103 12.867-2.127 5.076-4.604 9.464-26.726 1.612-4.506-1.49-18.072-5.921 4.61-13.231.269-9.733 5.365-20.722 5.504 7.67 10.198 3.354 3.24 5.66 8.353-7.794 5.67 2.395z" id="104751" data-name="Radovanu" class="comuna"/>
    <path d="M230.48 241.682l-2.596.389 3.194 31.534-1.965 16.241-7.733-4.868-15.517 4.054-4.543-6.05-7.723.709-1.356-15.283 3.26-3.773-2.065-19.85 13.968-1.197 2.582-12.302 9.108-3.475 3.397 9.415 7.99 4.456z" id="105605" data-name="Ulmeni" class="comuna"/>
    <path d="M188.888 224.534l3.466 3.887-3.578 11.786-18.12 3.676-10.993 8.656 2.28 4.922-12.216 11.541-2.103-12.867-10.722-10.793 8.288-8.563 10.347-.768 16.603-11.92 16.748.443zm0 0l.034-5.423 10.506.12-3.435-8.423.013-18.72 10.638-.049-1.803-11.742 8.587.065-.036 11.839 6.986.06-1.062 11.114-5.776 7.529 2.998 5.695-3.567 7.883-7.532-2.08-16.551 2.132z" id="102419" data-name="Curcani" class="comuna"/>
    <path d="M212.971 224.482l-2.985 6.804-2.582 12.302-13.968 1.197 2.064 19.85-3.26 3.773-13.406 1.222-15.304 11.555 3.836 9.39-12.833-2.876-6.933-13.621 2.127-5.076 12.217-11.541-2.28-4.922 10.993-8.656 18.119-3.676 3.578-11.786-3.466-3.887 16.55-2.132 7.534 2.08z" id="100638" data-name="Mitreni" class="comuna"/>
    <path d="M148.075 203.627l-1.215 4.329 7.217 12.034-9.189 7.227.302 9.563-8.288 8.562-5.67-2.395-8.354 7.795-3.24-5.661-10.198-3.354-5.504-7.67-3.045.86 1.766-9.389 9.524-11.526 12.95 6.04 4.55-5.599.027-10.86 18.367.044z" id="105384" data-name="Șoldanu" class="comuna"/>
    <path d="M196.006 192.088l-.013 18.72 3.435 8.423-10.506-.12-.034 5.423-16.748-.444-16.603 11.92-10.347.77-.302-9.563 9.19-7.227 12.339-7.53-.188-8.63 9.145.11 1.067-13.533 19.565 1.681z" id="104083" data-name="Luica" class="comuna"/>
    <path d="M139.31 179.107l-.067 7.025-9.383-.15-.175 9.922-15.903.879-2.941 6.749-12.437-.176-.264 13.057-11.488 1.17-5.145-12.47-15.103 5.627-9.29-1.595-7.82.3-10.451-9.532 25.883-16.4.268-2.062 1.605-2.96 13.38 8.07 16.888-3.97 17.922-4.668 21.358-1.087 3.163 2.27z" id="105829" data-name="Vasilați" class="comuna"/>
    <path d="M500.85 170.69l-4.004 42.25 12.812 1.186-.394 25.479 5.421 10.698 6.872-1.044-1.96 11.273 3.219 24.556-9.524 2.27-14.15-1.443-8.286-4.827-10.236-.445-13.719 8.229 1.448-5.182-5.997-60.604 11.96-4.95-.278-9.51 8.465-.04.572-39.602 17.78 1.706z" id="92569" data-name="Călărași" class="municipiu resedinta"/>
    <path d="M574.854 164.822l10.434 30.547 5.677 2.797 2.156 18.625 5.405 9.552 7.239 4.73-8.926 18.199-15.613 9.688-8.739 10.207-7.284-.978-6.227-6.255-.136-31.693 1.89-2.806-1.963-24.167 4.64-11.21-3.176-27.062 14.623-.174z" id="93325" data-name="Dichiseni" class="comuna"/>
    <path d="M347.23 164.784l7.521 2.705-1.576 22.654-8.497-1.645-3.83 32.072 8.944 26.511-5.154 10.442.593 9.534 3.942 3.706 1.344 12.969-10.842 4.783-11.608-.882-2.58-11.03-6.797-15.088-.217-14.14-11.221-12.639-7.21-16.55 7.387-1.904 5.484-6.143 2.754-13.176 9.504 2.023 3.912-20.384 10.412 2.178 2.163-10.515 4.747-5.654.824.173z" id="93441" data-name="Dorobanțu" class="comuna"/>
    <path d="M540.735 163.887l19.496 1.109 3.176 27.062-4.64 11.21 1.963 24.167-1.89 2.806.136 31.693 6.227 6.255 7.284.978-14.402 10.897-9.964 8.294-12.891-.491 3.257-7.131-2.927-44.974 3.734-1.625-.904-28.709 1.368-2.427.012-31.38.965-7.734z" id="94312" data-name="Roseți" class="comuna"/>
    <path d="M371.814 208.661l6.367 3.684 3.797 14.679 6.948-1.745 2.42 17.402 7.383.127.925 35.758 3.734 4.194-20.354 5.173-13.202-1.261-8.798-5.439-10.517 2.498-1.344-12.968-3.942-3.706-.594-9.534 5.155-10.442-8.944-26.51 3.83-32.073 8.497 1.645 1.576-22.654-7.522-2.705 3.913-5.737 7.393-3.047 8.453 4.03-.51 10.496-9.344 20.453 4.264 1.03 2.883 11.163 7.533 5.49z" id="93085" data-name="Ciocănești" class="comuna"/>
    <path d="M539.77 171.621l-.012 31.38-1.368 2.427.904 28.709-3.734 1.625 2.927 44.974-3.257 7.13-12.414-2.778-3.22-24.556 1.96-11.273-6.87 1.044-5.422-10.698.394-25.48-12.812-1.185 4.005-42.25 1.454-14.902 22.582 2.657-.87 13.412 15.753-.236z" id="92587" data-name="Modelu" class="comuna"/>
    <path d="M166.384 155.632l23.095.662-.148 12.345 10.418.098-.172 6.888 5.264 4.672 1.803 11.742-10.638.05-19.565-1.682-1.067 13.534-9.145-.11.188 8.629-12.34 7.53-7.218-12.034 1.215-4.329-.48-7.889-8.398-.117.047-9.489.067-7.025 12.498-6.311-3.523-17.19 18.1.026z" id="104323" data-name="Nana" class="comuna"/>
    <path d="M96.867 182.59l-16.888 3.97-13.38-8.068 5.623-8.446 14.824-3.835 16.982-11.097 8.126-.027-.056 11.166-17.452.017 4.152 11.557-1.931 4.764z" id="179962" data-name="Gălbinași" class="comuna"/>
    <path d="M346.405 164.61l-4.746 5.655-2.164 10.515-10.412-2.178-3.912 20.384-9.504-2.023-2.754 13.176-5.484 6.143-7.388 1.904-5.924-4.965-7.38-12.831-10.886-3.01 1.787-9.867 5.397-9.152 13.558-9.668 2.355-6.578 9.255 8.745 6.855-7.51 2.51-16.045 12.978 2.68-4.497 10.72 20.356 3.906z" id="94606" data-name="Ulmu" class="comuna"/>
    <path d="M449.664 137.277l-1.621 14.575 5.364-.072-4.933 31.312-7.27 24.393 4.253 1.727-3.631 10.671 4.379 2.37 5.238 52.121.768 21.257-11.143 1.112-14.63-2.01-9.38-6.839-13.67-5.134-3.734-4.194-.925-35.758-7.382-.127-2.42-17.402-6.949 1.745-3.797-14.679-6.367-3.684 7.288-4.41 4.705 5.55 8.514-2.385 1.738-5.024 4.694 7.787 9.272-5.653 8.328.519 5.283-5.622 2.465-11.478 6.73 1.493 3.203-24.954 4.6-22.605 11.03-4.602z" id="93664" data-name="Grădiștea" class="comuna"/>
    <path d="M408.226 152.25l-3.01 7.253 6.334 2.638-17.491 40.25-1.738 5.025-8.514 2.384-4.705-5.55-7.288 4.411-7.533-5.49-2.883-11.162-4.264-1.03 9.344-20.453.51-10.496-8.453-4.03 9.048.241 2.289 7.797 8 4.198 5.039-5.604 6.106 2.86 7.84-16.548-5.198-2.445 8.517-10.249 4.271 2.016-3.694 13.525 7.473.458z" id="94125" data-name="Alexandru Odobescu" class="comuna"/>
    <path d="M635.893 235.17l-9.559.117-12.89 4.83-16.605 9.155 8.926-18.198-7.239-4.731-5.405-9.552-2.156-18.625-5.677-2.797-10.434-30.547 7.531-2.23-9.661-20.683 12.401-5.853 24.998 53.36 12.752.967 7.467 8.912L641.4 219.09l-9.057 10.695 3.55 5.385z" id="94651" data-name="Unirea" class="comuna"/>
    <path d="M296.594 168.693l-13.56 9.668-5.396 9.152-1.787 9.867-8.503 6.3-48.032-.305 1.062-11.114 4.098-11.587 9.973-.147.062-5.778 15.92-9.785 6.71-12.292 19.183-17.93 15.149 15.896-3.695 4.375 9.592 7.882-.776 5.798z" id="102838" data-name="Frăsinet" class="comuna"/>
    <path d="M541.903 135.486l-1.168 28.4-.965 7.735-15.752.236.869-13.412-22.582-2.657-1.454 14.902-17.78-1.706-14.497-2.023 5.247-37.536 14.081-.136 16.705 2.136-.354 3.574 37.65.487z" id="94580" data-name="Ștefan Vodă" class="comuna"/>
    <path d="M451.488 120.96l-1.824 16.317-11.03 4.602-4.6 22.605-3.202 24.954-6.73-1.493-2.466 11.478-5.284 5.622-8.327-.519-9.272 5.653-4.694-7.787 17.49-40.251-6.332-2.638 3.009-7.254 13.323 5.707 8.209-19.27 5.114-17.308 10.317 2.527 6.299-2.946z" id="93771" data-name="Independența" class="comuna"/>
    <path d="M664.97 239.831l-29.077-4.661-3.55-5.385 9.056-10.695-11.057-19.795-7.467-8.912-12.752-.966-24.998-53.361 30.309-14.298 2.61-1.266 14.006 29.724 7.835-1.395 9.734 13.491-6.984 11.456 10.655 14.572 4.833 10.283 2.551 12.595 4.14-.291 2.311 14.287-2.154 14.617z" id="93815" data-name="Jegălia" class="comuna"/>
    <path d="M112.619 120.252l8.305 1.053.535 8.926 13.439-1.482.12 15.023 9.018 4.034 13.642.225 4.933-9.789 3.97 5.613-.197 11.777-18.1-.025 3.524 17.189-12.498 6.31-3.163-2.27-21.358 1.087-17.922 4.668 1.93-4.764-4.151-11.557 17.452-.017.056-11.166-8.126.027-16.982 11.096-2.04-22.949 13.56.13.162-9.516 9.2-.118-.049-10.243 4.74-3.262z" id="105222" data-name="Sohatu" class="comuna"/>
    <path d="M271.645 126.578l4.679 8.164-19.183 17.93-6.71 12.292-15.92 9.785-.062 5.778-9.974.147-4.097 11.587-6.986-.06.036-11.84.225-11.476 7.005.028.062-18.18-9.525-9.543.295-10.55 14.526-16.91 5.485 4.7 6.018-3.192 9.016 10.739 14.996-9.551 10.114 10.152z" id="105712" data-name="Valea Argovei" class="comuna"/>
    <path d="M112.619 120.252l-4.74 3.262.05 10.243-9.201.118-.163 9.516-13.559-.13 2.04 22.95-14.824 3.835-5.623 8.446-1.605 2.96-6.995-1.088-10.969 6.565-2.423-4.964 7.893-5.154-2.348-18.317-3.019-11.735 15.106.018 4.7-3.917.15-9.61 18.072.316.15-9.427 13.581.598.05-12.078 13.448-.226.229 7.819z" id="104635" data-name="Plătărești" class="comuna"/>
    <path d="M469.62 107.22l5.664 6.849-1.463 15.356-5.247 37.536 14.497 2.023-.572 39.601-8.465.041.278 9.51-11.96 4.95 5.997 60.604-1.448 5.182-1.446 1.104-13.244 5.655-.768-21.257-5.238-52.121-4.38-2.37 3.632-10.67-4.252-1.728 7.269-24.393 4.933-31.312-5.364.072 1.62-14.575 1.825-16.318 1.063-9.395 1.024-5.343 16.044.999z" id="93281" data-name="Cuza Voda" class="comuna"/>
    <path d="M351.065 122.688l-3.861 11.709.237 11.16 6.288 10.766-2.587 2.724-3.913 5.737-.824-.173-20.356-3.906 4.498-10.72-12.979-2.68-2.51 16.044-6.855 7.512-9.255-8.746-2.354 6.578.776-5.798-9.592-7.882 3.695-4.375-15.15-15.896-4.678-8.164 6.12-12.291 5.374 5.604 8.86-3.095 9.438-17.45 4.993-.073-2.782 18.147 33.386 4.733 14.031.535z" id="93931" data-name="Lupșanu" class="comuna"/>
    <path d="M452.55 111.564l-1.062 9.395-6.3 2.946-10.316-2.527-5.114 17.308-8.209 19.27-13.323-5.707-7.473-.458 3.694-13.525-4.27-2.016-12.34-5.683 3.377-6.952-6.339-3.012 4.087-11.598 1.172-4.763 16.432 4.41 5.748-8.95 27.91-.43-2.308 9.344 14.635 2.948z" id="94731" data-name="Vîlcelele" class="comuna"/>
    <path d="M379.687 99.21l.002 7.77 9.273 2.025-4.087 11.598 6.339 3.012-3.377 6.952 12.34 5.683-8.518 10.249 5.198 2.445-7.84 16.547-6.106-2.86-5.038 5.605-8.001-4.198-2.288-7.797-9.049-.24-7.393 3.046 2.587-2.724-6.288-10.767-.237-11.16 3.861-11.708 4.065-11.95 6.99-11.544 17.567.015z" id="94768" data-name="Vlad Țepeș" class="comuna"/>
    <path d="M228.762 83.665l16.65-.627 3.1 9.719-8.047 10.724-2.946 11.757-6.018 3.193-5.485-4.702-4.717-4.628-12.013 3.273.606-18.315-5.023.237 3.3-12.259 13.937-8.676-.546 9.942 7.202.362z" id="104341" data-name="Nicolae Bălcescu" class="comuna"/>
    <path d="M477.592 62.32l-2.218 19.19-6.622-.428-2.078 17.721 2.945 8.417-16.044-1-1.024 5.344-14.635-2.948 2.308-9.344-27.91.43-5.748 8.95-16.432-4.41-1.172 4.763-9.273-2.025-.002-7.77 5.801-32.85 12.364.542 1.666-11.333 6.436.937 15.624 4.149 8.142 4.874 1.646-10.896 7.976 4.56 15.875 2.263 1.906-10.825 10.179 1.269-1.03 8.912 11.32 1.509z" id="93539" data-name="Dragoș Vodă" class="comuna"/>
    <path d="M154.774 52.283l1.451 7.413 8.587 9.542-4.456 9.6 9.468 1.572-17.309 22.827.925 7.004-15.69-13.002-3.498-5.559 5.62-7.732-14.607-7.943 7.597-10.797 17.32-18.541 4.592 5.616z" id="105455" data-name="Tămădău Mare" class="comuna"/>
    <path d="M134.563 40.78l4.44 4.582 11.18 1.304-17.32 18.542-7.598 10.797 14.608 7.943-5.62 7.732 3.497 5.56 15.69 13 4.347 2.363.032 11.868-15.891-.074-7.03 4.352-13.44 1.482-.534-8.926-8.305-1.053-.229-7.82-13.447.227.005-21.757-4.85-.05-3.514-14.584 10.543-1.95 1.707-7.718-8.296.189 1.874-8.469 17.13-12.416 11.32-6.332 9.701 1.208z" id="103032" data-name="Fundulea" class="oras"/>
    <path d="M287.839 48.905l-8.368 2.97-10.593 33.305-4.29 8.424-6.89 3.544-.516 7.518-16.717-1.185 8.047-10.724-3.1-9.72-16.65.628.57-11.562 10.012.559-1.463-10.81 6.557-8.864 6.3-7.34 14.265-2.65 22.836 5.907z" id="93851" data-name="Lehliu" class="comuna"/>
    <path d="M134.563 40.78l-9.701-1.208-11.32 6.332-17.13 12.416-1.874 8.468 8.296-.188-1.707 7.718-10.543 1.95 3.514 14.584-4.305-.04-6.535-3.6-5.04 3.38-13.975-.106-6.293-4.627L55.623 78l-7.402-5.46 12.582-11.584 8.17-2.677 3.9-8.594 5.593-.03L93.59 35.637 82.91 32.504l4.816-11.114 10.367-2.02 10.386-1.718 13.154 9.377 12.93 13.751z" id="101083" data-name="Belciugatele" class="comuna"/>
    <path d="M613.94 70.181l-.466 19.568-4.72 9.187 7.532 15.592-.852 7.23-30.309 14.298-12.401 5.853 9.661 20.683-7.531 2.23-14.623.174-19.496-1.11 1.168-28.4-2.445-64.357 11.211 4.15 14.212-1.041-1.723-18.73 7.187-2.491 2.115-29.495 9.22.779 1.874-12.383 9.647 1.32 1.042 57.528 19.696-.585z" id="94223" data-name="Perișoru" class="comuna"/>
    <path d="M244.438 52.988l-6.557 8.863 1.463 10.81-10.011-.558-.571 11.562-7.202-.362.546-9.942-13.937 8.676-3.3 12.259-16.835-.601-3.239-4.226-13.846-.957-1.125-8.102-9.468-1.572 4.456-9.6-8.587-9.542-1.451-7.413 5.868-4.668-3.305-6.296 14.241-5.594L184.13 1l8.54 2.651-3.232 10.49 9.955 8.943 12.688.355-1.184 13.472 14.316 5.757 2.442-13.834 12.138 4.852-3.173 12.927 7.818 6.375z" id="103764" data-name="Ileana" class="comuna"/>
    <path d="M309.743 290.166l-13.62 1.072-20.485 10.289-12.442-19.272-.808-8.273-6.928.681-1.685-18.772-6.898.23-1.191-13.278-4.075-7.04-11.13 5.88-7.99-4.457-3.398-9.415-9.107 3.475 2.986-6.804 3.566-7.883 11.38-13.009 13.163 11.53 5.178 11.674 12.593 8.073 1.588 17.87 15.854-1.505 18.008 11.953 15.441 26.981z" id="101822" data-name="Chiselet" class="comuna"/>
    <path d="M300.041 218.186l7.21 16.55 11.222 12.639.217 14.14 6.797 15.088 2.58 11.03-18.324 2.533-15.441-26.981-18.008-11.953-15.854 1.505-1.588-17.87-12.593-8.073-5.178-11.673-13.163-11.53-11.38 13.008-2.998-5.695 5.776-7.529 48.032.305 8.503-6.3 10.886 3.01 7.38 12.83 5.924 4.966z" id="104181" data-name="Mânăstirea" class="comuna"/>
    <path d="M209.286 112.374l12.013-3.273 4.717 4.628-14.526 16.91-.295 10.551 9.525 9.544-.062 18.18-7.005-.03-.225 11.478-8.587-.065-5.264-4.672.172-6.888-10.418-.098.148-12.345-23.095-.662.196-11.777-3.969-5.613 16.087-14.036 6.177 3.006 16.17-18.939 8.24 4.1z" id="103568" data-name="Gurbănești" class="comuna"/>
    <path d="M204.869 94.296l5.023-.237-.606 18.315-8.242-4.1-16.17 18.938-6.176-3.006-16.087 14.036-4.933 9.789-13.642-.225-9.018-4.034-.12-15.023 7.03-4.352 15.891.074-.032-11.868-4.347-2.362-.925-7.004 17.309-22.827 1.125 8.102 13.846.957 3.24 4.226 16.834.6z" id="104886" data-name="Sărulești" class="comuna"/>
    <path d="M323.71 39.846l.424 18.241-7.82 6.318-23.633.631-1.403 17.875 1.675 2.677-5.645 13.694 14.13.064-9.438 17.45-8.861 3.095-5.373-5.605-6.12 12.292-10.115-10.152-14.996 9.55-9.016-10.738 2.946-11.757 16.717 1.185.515-7.518 6.891-3.544 4.29-8.424 10.593-33.304 8.368-2.971 21.558-5.715 14.313-3.344z" id="93888" data-name="Lehliu-Gară" class="oras"/>
    <path d="M385.488 66.36l-5.8 32.85-17.568-.016-6.99 11.544-4.065 11.95-14.03-.535-33.387-4.733 2.782-18.147-4.993.073-14.13-.064 5.646-13.694-1.675-2.677 1.403-17.875 23.632-.63 7.821-6.319-.424-18.241 13.917-.383.267 12.795 17.549-.425 22.224-.524.322 14.815 7.5.237z" id="93370" data-name="Dor Mărunt" class="comuna"/>
    <path d="M139.243 186.132l-.047 9.49 8.398.116.48 7.89-18.366-.045-.028 10.86-4.55 5.598-12.95-6.04-9.523 11.527-1.766 9.39-11.785 3.4-6.361 12.884-6.398 2.087-6.825-5.876-.448-10.143-17.72 1.018-.722-11.878-6.483.187-14.144-9.885 27.11-7.567 9.289 1.595 15.103-5.627 5.145 12.47 11.488-1.17.264-13.057 12.437.176 2.941-6.75 15.903-.878.175-9.922 9.383.15z" id="101458" data-name="Budești" class="oras"/>
    <path d="M50.152 158.494L52.5 176.81l-7.893 5.154 2.423 4.964L58 180.364l6.995 1.087-.268 2.061-25.883 16.4 10.452 9.532 7.82-.3-27.11 7.568-5.141 1.348-9.384-15.907-10.756-8.44-2.665-1.995 9.628-12.131L1 171.55l12.406-11.985 2.887 1.855 8.647-3.232 11.123-13.329 7.172 15.21 6.917-1.575z" id="102945" data-name="Frumușani" class="comuna"/>
    <path d="M664.97 239.831l2.155-14.617-2.311-14.287-4.14.291-2.551-12.595-4.833-10.283-10.655-14.572 6.984-11.456-9.734-13.49-7.835 1.394-14.005-29.724-2.611 1.266.852-7.23 2.37-6.317 10.057-.097 4.44-9.038 32.497-.047 3.632 8.124 6.691 5.328-.74 9.761 5.182 9.957-3.418 2.669 10.91 10.672 7.55-7.062 5.124 10.356 6.301 2.49 9.376-8.636 3.87-14.843 4.587-6.15L799 144.14l-2.073 11.54-4.254 6.698-9.923 12.981-4.781 11.27-7.614 11.016-6.04 4.316-12.484 2.383-10.716-1.813-9.997 3.957-15.392-.24-22.346 9.622-9.313 10.749-6.932 6.98-12.164 6.233z" id="92961" data-name="Borcea" class="comuna"/>
    <path d="M633.153 99.076l-4.44 9.038-10.057.097-2.37 6.317-7.533-15.592 4.72-9.187.466-19.568.166-2.453 11.162.208 4.774 3.448-.122 8.944 5.017 2.79-1.783 15.959z" id="94562" data-name="Ștefan cel Mare" class="comuna"/>
    <path d="M563.158 55.508l1.723 18.73-14.212 1.04-11.211-4.149 2.445 64.357-37.65-.487.354-3.574-16.705-2.136-14.08.136 1.462-15.356-5.665-6.85-2.945-8.416 2.078-17.72 6.622.427 2.218-19.19 14.978.109 2.389-19.84 8.136.395-.012 6.401 8.633 5.993 13.538-1.054 2.526 1.343 28.329-.154 7.049-.005z" id="93487" data-name="Dragalina" class="comuna"/>
    <path d="M94.098 90.852l4.85.05-.005 21.757-.05 12.078-13.582-.598-.15 9.427-18.071-.315-.15 9.609-4.701 3.917-15.106-.018 3.02 11.735-6.917 1.574-7.173-15.209-7.321.047-2.57-12.54-4.436 1.314-5.97-9.58-8.342-.145-3.791-2.248 3.912-.644 5.871-2.462 3.172-2.186 7.473 3.629 8.244 9.486 12.237-9.373 11.148-7.25 10.491.266 1.008-10.898 18.068.125 4.536-11.589 4.305.041z" id="103014" data-name="Fundeni" class="comuna"/>
  </g>
</svg>
