<svg xmlns="http://www.w3.org/2000/svg" version="1.2" baseProfile="tiny" stroke-linecap="round" stroke-linejoin="round" viewBox="0 0 800 875">
  <g id="CS" fill="none" stroke="#aaa">
    <path d="M212.985 770.439l17.024 15.317-3.072 12.54-9.514 1.851 2.873 9.89-18.312-1.173-8.913-6.733-12.012-1.513-20.226 3.761-11.882-8.327 37.052-16.773 8.226-9.616 18.756.776z" id="53489" data-name="Coronini" class="comuna"/>
    <path d="M325.038 733.63l10.366 18.352-7.943 11.264-12.19-1.339-19.26 31.438-4.01 23.69-14.779-3.904-18.865 1.227-7.321-9.32-30.74 5-2.873-9.89 9.514-1.852 3.072-12.54-17.024-15.317 3.668-12.783 8.494-10.21 11.726-6.168 4.392 10.348 8.494-.772 19.548-12.764-6.593-15.437 3.875-5.31 12.153 3.027 12.614 14.784 15.712-5.499 8.027 4.897 9.943-.921z" id="53853" data-name="Sichevița" class="comuna"/>
    <path d="M636.276 676.856l-4.763 12.21-13.173 18.444 2.78 15.116-7.284 9.694 1.319 8.172-9.443 2.864-8.669-5.808-13.211 5.844-7.512 9.374.247-9.137-6.559-17.293-17.787-1.362-7.625-4.454-19.706-4.386-10.74-18.854-3.88-1.244 5.274-2.08 6.248-14.704 21.076-2.934 14.758 12.042 28.88 3.582 16.267-11.336-6.48-11.046 7.117 6.781 8.086-2.71 9.925 7.942 14.855-4.717z" id="54387" data-name="Topleț" class="comuna"/>
    <path d="M303.381 672.112l.525 9.205 7.06 10.542-.25 11.144 13.55-1.341 13.99 16.745-13.217 15.224-9.944.92-8.027-4.896-15.712 5.499-12.614-14.784-12.153-3.027-9.358-10.618-15.206-2.96 7.145-11.971 10.68-7.52-5.014-16.75 12.273-2.956 4.01-15.136 16.368 15.661 15.894 7.02z" id="54163" data-name="Șopotu Nou" class="comuna"/>
    <path d="M162.112 649.47l13.46 21.535-7.36 11.489 5.34 9.911-10.84 15.366-21.695 4.969-7.724 9.858-13.282-7.556-19.035-5.673-15.555.796-25.485-5.822-20.416 2.001-14.651-4.398-5.204-8.915 8.825-1.349 8.033-16.238 11.392-9.75 16.111 2.877 22.97-9.826 4.59 8.217 11.353-8.074 7.672-4.314 32.292-5.647 8.542-4.108 10.667 4.65z" id="53513" data-name="Pojejena" class="comuna"/>
    <path d="M82.698 628.557l5.481 16.61 14.76 13.721-11.353 8.074-4.59-8.216-22.97 9.825-16.111-2.877-11.392 9.75-8.034 16.238-8.824 1.349-6.552-21.972-10.29-5.696L1 651.79l8.404-21.012 12.214-3.669 10.84 3.008 5.487-4.634 27.649 5.48 17.104-2.406z" id="54109" data-name="Socol" class="comuna"/>
    <path d="M361.53 624.834l10.314 9.906 3.768 9.13.3 27.375 6.536 5.498-.359 10.844 5.857 15.85-10.995 13.225-3.099 11.184-11.6 15.487-14.912-18.977-9.084-5.95-13.99-16.744-13.55 1.341.25-11.144-7.06-10.542-.525-9.205 12.17-12.866 10.8-.848 1.962-8.9 17.154-8.864 16.063-15.8z" id="52570" data-name="Dalboșeț" class="comuna"/>
    <path d="M436.8 616.297l8.104 2.95 21.529 18.087 5.563 26.724 21.216 24.372-.306 14.713-7.507 16.28 4.702 14.495-6.986 12.56-5.601-11.058-4.527-20.601-13.509-3.135-9.17 2.805-4.056-11.689-8.14-7.683 2.556-12.752-8.949-4.472-20.163-32.72.97-15.19-3.337-13.059-6.894-4.515 19.808-4.51 14.698 8.398z" id="53700" data-name="Eftimie Murgu" class="comuna"/>
    <path d="M402.295 612.41l6.894 4.514 3.337 13.06-.97 15.189 20.163 32.72 8.95 4.472-2.557 12.752 8.14 7.683 4.055 11.689 9.171-2.805 13.509 3.135 4.527 20.6 5.601 11.06-15.191 3.043-5.989 8.077-5.19 21.357-5.404-8.06-28.421 4.296-10.16-2.557-16.156-20.877-15.063-3.885-3.893 3.073-15.397-7.613 11.601-15.487 3.099-11.184 10.995-13.225-5.857-15.85.359-10.844-6.537-5.498-.3-27.376-3.767-9.13-10.314-9.905 8.43-11.749 18.265-9.565 14.07 8.89z" id="51305" data-name="Bănia" class="comuna"/>
    <path d="M162.11 627.832l4.752 19.42-4.75 2.217-10.667-4.65-8.542 4.108-32.292 5.647-7.672 4.314-14.76-13.72-5.48-16.611 10.33-6.666 28.814-6.05-.511-14.359-5.802-19.696 19.117.648 1.97 9.157 10.206 4.627 7.595 17.815 8.417 5.518-.725 8.28z" id="53345" data-name="Naidăș" class="comuna"/>
    <path d="M662.149 567.3l9.758 5.255 3.778 9.442-17.347 4.686 4.524 20.381-8.152 13.969 3.47 10.542-13.166 29.396-4.345 3.372-4.393 12.513-14.855 4.717-9.925-7.942-8.086 2.71-7.117-6.78 2.647-18.065 6.702-.807 3.712-24.761 16.56-8.004 8.345-22.975 7.555-.966 19.91-26.15.425-.532z" id="50923" data-name="Băile Herculane" class="oras"/>
    <path d="M317.946 551.554l3.006 17.39 16.544 27.208 19.1 17.98 4.934 10.702-16.063 15.8-17.154 8.865-1.962 8.899-10.8.848-12.17 12.866-15.894-7.019-16.369-15.661-8.734-11.333-5.751-19.566 12.426-16.94 5.467-1.277 9.857-22.902 17.231-17.106 16.332-8.754z" id="53103" data-name="Lăpușnicu Mare" class="comuna"/>
    <path d="M537.306 528.82l11.86 20.97 14.073 11.047 8.787-1.248 6.025 9.388.27 13.14-25.316 53.585-15.206 19.253-18.247 5.727-19.312-22.81-2.44-22.272 3.768-9.507-1.371-18.66 5.634-3.606 4.904-16.896 13.82-10.329 1.177-19.237 11.574-8.545z" id="53023" data-name="Iablanița" class="comuna"/>
    <path d="M593.761 526.621l9.613 4.846 10.285-2.24 23.484.812.813 11.121 17.75 10.16 6.019 16.514-19.911 26.15-7.555.965-8.346 22.976-16.56 8.003-3.71 24.761-6.703.807-2.647 18.064 6.48 11.047-16.267 11.335-28.88-3.582-14.758-12.042-21.076 2.934-2.24-18.57 18.247-5.727 15.207-19.253 25.315-53.585-.27-13.14-6.025-9.388-1.666-11.557 17.544-26.105 5.857 4.694z" id="53274" data-name="Mehadia" class="comuna"/>
    <path d="M264.975 539.323l19.621-.048-1.798 6.79.662 30.544-10.105-5.086-2.769 10.907-15.25 1.931-5.98 6.677-8.9-8.798-10.183 4.597-34.869-15.654-4.85 1.389-17.696-12.93 5.547-6.356-8.05-27.538 7.017-4.926 12.852-4.792 4.292-6.79 23.837-.012 16.145 8.483 10.883.036 19.594 21.576z" id="51948" data-name="Ciclova Română" class="comuna"/>
    <path d="M144.878 500.676l7.18-.91 22.497 12.912 2.817 8.144-7.016 4.926 8.05 27.538-5.548 6.356-10.627-5.218-21.198-3.09-10.398-8.135-17.77 8.011-11.734-7.13-5.859-12.372 9.67-9.938 14.944-22.31 13.917 4.169 11.075-2.953z" id="53675" data-name="Răcășdia" class="comuna"/>
    <path d="M34.57 497.121l12.677 13.016 15.346.703 7.228 8.531 10.644 1.43 14.807 10.907 5.86 12.373 11.733 7.129-9.233 22.74-3.38 1.108-28.393-17.9-17.846-2.498-17.463-15.389 4.906-6.512-14.75-9.833-15.427-18.86 8.218-5.874 15.073-1.07z" id="51387" data-name="Berliște" class="comuna"/>
    <path d="M596.648 495.386l-2.887 31.235-5.857-4.694-17.544 26.105 1.666 11.557-8.787 1.248-14.074-11.046-11.859-20.97 15.358-14.764-1.346-11.877 21.047-7.648 11.21 3.614 13.073-2.76z" id="52115" data-name="Cornea" class="comuna"/>
    <path d="M525.732 537.365l-1.178 19.237-13.82 10.329-4.903 16.896-5.635 3.606-7.52-8.39-9.807 4.549-4.503-16.426-10.987-26.794-8.013-3.868-9.318-19.87-7.218-7.726-10.731-2.533 1.086-13.941-4.089-4.534 19.349 2.688 21.942 14.082 3.78 5.272 19.387-.53 14.197 15.374 2.26 6.59-9.41 13.565 5.592 4.018 9.451-18.171 10.088 6.577z" id="53069" data-name="Lăpușnicel" class="comuna"/>
    <path d="M119.885 499.46l-14.943 22.31-9.67 9.938-14.807-10.907-10.644-1.43-7.228-8.53-15.346-.704L34.57 497.12l32.654-6.871-4.64-11.887 24.038.98 33.263 20.117z" id="54573" data-name="Vrani" class="comuna"/>
    <path d="M592.108 439.78l11.266 12.167-5.022 17.942 4.091 15.837-5.795 9.66-13.074 2.76-11.21-3.614-21.046 7.648-4.82-12.186 2.326-7.648-5.184-18.264 9.668-12.13 21.158-9.217 17.642-2.955z" id="52721" data-name="Domașnea" class="comuna"/>
    <path d="M385.799 449.376l-5.75 18.858-7.324 14.984 8.56 31.245 17.885 5.236 3.77 10.45-4.46 8.05 1.16 10.86 7.125 20.961-1.657 11.001 14.912 8.115 1.467 11.239 15.314 15.922-14.698-8.399-19.808 4.511-14.07-8.889-18.264 9.565-8.43 11.75-4.934-10.703-19.1-17.98-16.545-27.208-3.006-17.39 6.667-31.548 6.988-15.752-3.876-3.89 1.769-21.783 16.765 5.397 3.414-12.572-2.54-8.12 12.454-16.402 9.341-9.578 16.87 12.07z" id="51573" data-name="Bozovici" class="comuna"/>
    <path d="M269.39 445.118l-1.986 26.155 9.714 1.56.685 9.666-8.554 23.268 6.766 8.54-11.04 25.016-19.594-21.576-10.883-.036-16.145-8.483-23.837.013-4.292 6.789-12.852 4.792-2.817-8.144-22.497-12.912-7.18.91-2.233-19.108 2.175-6.155 10.478 5.45 4.166-11.054 13.847-4.747 4.11-13.862 13.789.627 4.353-12.132 23.701-18.393 9.948 14.26 8.73 5.262 22.11 5.494 9.339-1.2z" id="51118" data-name="Oravița" class="oras"/>
    <path d="M662.149 567.3l-.424.534-6.02-16.513-17.75-10.161-.812-11.121-23.484-.813-10.285 2.241-9.613-4.846 2.887-31.235 5.795-9.66-4.091-15.837 5.022-17.942-11.266-12.167 20.738 4.314 14.432-15.015 14.208 3.865 17.796 8.685 27.364 6.719 18.679-29 11.993 16.075 27.248 2.938 11.964 6.173 3.66 16.045-33.347 38.306-4.42 7.936-17.544 12-3.01 10.14-17.294 19.355-15.535 10.476-6.891 8.509z" id="52160" data-name="Cornereva" class="comuna"/>
    <path d="M359.587 446.884l-12.454 16.402 2.54 8.12-3.414 12.572-16.765-5.397-1.77 21.782 3.877 3.891-6.988 15.752-6.667 31.548-16.332 8.754-17.23 17.106-.924-.805-.662-30.543 1.798-6.79-19.621.047 11.04-25.016-6.766-8.54 8.554-23.268-.685-9.667-9.714-1.559 1.987-26.156 16.44-.04 4.66-4.818-3.22-12.716 11.09-8.039 11.07.036 3.257 10.248 22.61 2.538 8.576 10.176 15.713 4.382z" id="50889" data-name="Anina" class="oras"/>
    <path d="M479.982 430.872l9.767 4.692 2.298 17.733 14.349 39.554 11.21 3.334 24.156.532 4.736-6.723 4.82 12.186 1.346 11.877-15.358 14.763-11.574 8.544-10.088-6.576-9.45 18.171-5.594-4.018 9.411-13.565-2.26-6.59-14.197-15.374-19.388.53-3.78-5.272-21.942-14.082-19.348-2.688 4.727-13.728 5.707-33.012 9.453-12.898-1.575-11.707 14.82 8.395 2.721 13.517 15.033-7.595z" id="53327" data-name="Mehadica" class="comuna"/>
    <path d="M543.64 464.082l5.184 18.264-2.326 7.648-4.736 6.723-24.157-.532-11.21-3.334-14.348-39.554-2.298-17.733-9.767-4.692 2.83-14.007 20.655 16.248 9.248 2.27 8.912 9.636 7.51-3.166 10.089 6.891 4.414 15.338z" id="53130" data-name="Luncavița" class="comuna"/>
    <path d="M144.82 475.413l-2.175 6.155 2.233 19.108-11.075 2.953-13.918-4.17-33.263-20.117-24.038-.98 8.114-13.974 13.979-14.764-7.306-11.205 5.573-13.239 10.067-2.247 18.73-10.067.367-10.62 9.96-5.284 9.814 12.422 1.668 11.21-2.665 13.853-6.57 12.337 4.16 12.298 9.872.25 8.71 9.279-2.237 6.802z" id="54500" data-name="Vărădia" class="comuna"/>
    <path d="M287.272 427.543l3.22 12.716-4.66 4.818-16.441.04-9.34 1.2-22.11-5.493-8.729-5.261-9.948-14.261-10.615-.72-14.445-16.663 23.544-.18 5.392-3.95 11.764-.827 21.166-6.148 31.202 34.73z" id="52035" data-name="Ciudanovița" class="comuna"/>
    <path d="M447.408 416.555l1.575 11.707-9.453 12.898-5.707 33.012-4.726 13.728 4.088 4.534-1.086 13.94 10.731 2.534 7.218 7.726 9.318 19.87 8.013 3.868 10.987 26.794 4.503 16.426 9.807-4.548 7.52 8.389 1.372 18.66-3.768 9.507 2.44 22.273 19.312 22.809 2.24 18.57-6.248 14.705-5.273 2.08-17.06-7.607-21.215-24.372-5.563-26.724-21.529-18.086-8.103-2.951-15.314-15.923-1.467-11.238-14.912-8.115 1.657-11.001-7.124-20.962-1.16-10.86 4.458-8.048-3.769-10.451-17.885-5.236-8.56-31.245 7.325-14.984 5.749-18.858 6.704-18.116 7.56-7.507 13.776-25.049-.823-5.669 13.352-4.295 8.775 17.705 12.265 10.11z" id="53577" data-name="Prigor" class="comuna"/>
    <path d="M177.42 451.2l-4.109 13.862-13.847 4.747-4.166 11.055-10.478-5.451 2.237-6.803-8.71-9.279-9.873-.249-4.16-12.298 6.571-12.337 2.665-13.853-1.668-11.21-9.814-12.422 15.541-3.606 7.67-7.534 11.42 37.733 1.287 14.37 19.435 13.275z" id="52990" data-name="Grădinari" class="comuna"/>
    <path d="M270.477 364.706l21.32 17.901 1.773 15.444 9.51 13.217-4.719 8.236-11.09 8.04-31.201-34.73-21.166 6.148-11.764.827-15.246-8.066 8.437-7.99 7.85-15.915 4.442-9.125 16.123-9.14 25.731 15.153z" id="52954" data-name="Goruia" class="comuna"/>
    <path d="M313.51 327.38l7.077 1.035 27.204 15.41 14.84 18.054 12.055.438 3.44 10.94-7.023 22.42 2.64 11.293-3.713 15.659-5.198 6.273 4.096 8.404-9.341 9.578-15.713-4.382-8.575-10.176-22.611-2.538-3.258-10.248-11.069-.036 4.719-8.236-9.51-13.217-1.772-15.443-21.321-17.902 5.908-17.032 16.721-4.799 14.234-7.903 6.17-7.592z" id="51804" data-name="Carașova" class="comuna"/>
    <path d="M199.49 324.008l3.698 9.777-5.116 10.931 26.11 23.102-7.85 15.915-8.438 7.99 15.246 8.066-5.392 3.95-23.544.18 14.445 16.663 10.615.72-23.701 18.393-4.353 12.132-13.79-.627-19.434-13.276-1.287-14.369-11.42-37.733-3.385-7.508 6.727-19.225 18.719-16.093 4.8-8.483 12.825-11.238 14.525.733z" id="54305" data-name="Ticvaniu Mare" class="comuna"/>
    <path d="M695.125 318.668l8.315 13.197-4.143 12.02-14.832 13.884-7.98 12.195-18.87 7.248-18.58 22.075-19.113 5.462-12.836-2.269-21.662 9.665-16.198-8.936-20.865-26.627.477-13.25 10.79-2.577-1.822-8.236 33.376-11.206 23.317 5.043 11.775-7.882 13.733 2.55 10.407-7.262 16.915-.789 13.191-7.95 4.507-10.265 10.097 3.91z" id="51243" data-name="Armeniș" class="comuna"/>
    <path d="M727.49 386.197l-12.083 11.889-10.082 21.261-18.68 29-27.363-6.718-17.796-8.685-14.208-3.865-14.432 15.015-20.738-4.314-17.642 2.955-21.158 9.217-9.668 12.13-4.414-15.338-10.089-6.89-7.51 3.165-8.912-9.637-9.248-2.269-20.654-16.248-2.83 14.007-15.034 7.595-2.72-13.517-14.821-8.395-12.265-10.11-8.775-17.705-.813-8.946-7.534-8.057 1.02-8.327 10.19-8.57 8.223 7.848 18.382-3.508L482 371.4l13.788-1.905 13.928 5.546 19.393-.644 7.875 4.314 11.377-2.129 20.865 26.627 16.198 8.936 21.662-9.665 12.836 2.27 19.112-5.463 18.58-22.075 18.871-7.248 7.98-12.195 14.832-13.884 4.143-12.02-8.316-13.197 11.95-17.877 12.264 9.078 11.355-1.746 2.655 21.577-15.047 21.703-.469 9.756 9.659 25.038z" id="54270" data-name="Teregova" class="comuna"/>
    <path d="M566.162 303.392l31.552 4.656 14.953-5.98 24.547 6.195 16.7 6.41 13.517.143 10.259-4.387 7.337 4.329-4.507 10.264-13.19 7.951-16.916.79-10.407 7.26-13.733-2.55-11.775 7.883-23.317-5.043-33.376 11.206 1.821 8.236-10.79 2.577-.476 13.25-11.377 2.13-7.875-4.315-19.393.644-13.928-5.546L482 371.4l-1.513-9.58 8.603-7.816-6.897-17.94 21.101-13.966 40.267-2.847 1.953-12.115 15.639-7.64 5.009 3.896z" id="54056" data-name="Slatina-Timiș" class="comuna"/>
    <path d="M277.44 272.727l11.628 4.992 17.86 21.143.897 12.684 8.536 9.346-2.852 6.488-6.169 7.592-14.234 7.903-16.721 4.799-5.908 17.032-25.731-15.154 1.733-12.557 8.67-2.442 4.435-20.607-4.59-6.98 9.588-15.71 5.719-19.227 7.14.698z" id="53167" data-name="Lupac" class="comuna"/>
    <path d="M270.3 272.029l-5.718 19.228-9.588 15.709 4.59 6.98-4.434 20.607-8.671 2.442-1.733 12.557-16.123 9.14-4.442 9.126-26.109-23.102 5.116-10.93-3.698-9.778 21.961-19.595 2.007-13.168 5.343-4.173 2.904-17.312 22.701-6.515 15.895 8.784z" id="52696" data-name="Dognecea" class="comuna"/>
    <path d="M666.169 287.235l12.255-7.182 19.915 5.656 8.735 15.082-11.95 17.877-10.097-3.91-7.337-4.33-10.259 4.388-13.517-.144-16.7-6.41-24.547-6.193-14.953 5.979-31.552-4.656 6.778-19.678-17.687-13.324-.55-14.687 11.783-13.144 6.587 1.997 2.976 17.246 10.378 4.03 17.13-4.88 12.967 5.023 9.068 12.914 30.959 11.455 9.618-3.109z" id="51546" data-name="Bolvașnița" class="comuna"/>
    <path d="M426.355 268.15l3.259 10.657-14.724 2.6-11.471 7.266-18.839-3.88-15.796 6.322-8.877-4.593-5.03-11.354-7.061-1.488 2.05-13.789 18.286-3.316 5.13-8.561 10.75-4.964 6.016-6.334 11.003.774 2.625 10.343 7.936 2.76 14.743 17.556z" id="54350" data-name="Tîrnova" class="comuna"/>
    <path d="M275.01 249.13l3.94 7.734-1.51 15.863-7.14-.698-15.894-8.784-22.7 6.515-.11-5.033 10.071-4.086 3.43-7.368-9.195-10.36 9.597-9.556 15.3-.244 14.212 16.017z" id="50987" data-name="Ocna de Fier" class="comuna"/>
    <path d="M349.865 259.891l-2.049 13.79 7.062 1.487 5.03 11.354 8.876 4.593 15.796-6.322 18.839 3.88 11.471-7.266 14.724-2.6 7.574-.625 11.053 12.127 4.304 14.036-9.203 4.455-1.108 8.817-27.17-10.987-8.267 10.332-3.419 14.84-20.007 6.52-4.227 5.23.583 14.104-5.041 4.661-12.055-.438-14.84-18.054-27.204-15.41-7.078-1.035 2.852-6.488-8.536-9.346-.896-12.684-17.86-21.143-11.628-4.992 1.509-15.863-3.94-7.734 11.68-7.668-4.535-8.969 22.301-15.004 21.1 5.865 9.067 18.034 15.243 18.503z" id="50790" data-name="Reșița" class="municipiu resedinta"/>
    <path d="M608.263 188.029l7.63 12.43 15.075-1.908 8.182 21.596 17.872 14.469 5.958 15.186 13.871 1.203 3.495 9.845-10.613 11.08-3.564 15.305-9.618 3.11-30.959-11.456-9.068-12.914-12.967-5.023-17.13 4.88-10.378-4.03-2.976-17.246-6.587-1.997-15.898-2.712-13.111-10.833 13.758-2.369-4.826-9.086 2.6-27.144 31.377.693 15.67-4.64 12.207 1.56z" id="54412" data-name="Turnu Ruieni" class="comuna"/>
    <path d="M462.56 173.399l9.263 6.65 5.645-4.263 20.81-3.605 7.336 4.25-6.292 23.866-9.045 7.67 5.429 5.508-10.589 18.373-10.4 6.285-28.67 25.9-8.859 14.15-7.574.624-3.26-10.658-.35-14.503-5.056-2.08.902-35.472-5.768-13.135 9.294-3.915 7.025 6.753 13.558-7.55-13.155-13.472 5.366-11.24 6.982-.603 7.508 8.535 9.9-8.068z" id="53425" data-name="Păltiniș" class="comuna"/>
    <path d="M432.804 184.775l13.156 13.472-13.559 7.55-7.025-6.753-9.294 3.915 5.768 13.135-.902 35.471 5.057 2.08.35 14.504-14.743-17.555-7.936-2.761-2.625-10.343-11.003-.774-6.016 6.334-6.982-4.044-16.96-21.697.66-11.276-1.613-11.716 16.968-11.759 11.33-.536 25.013-12.385 10.831 12.887 9.525 2.251z" id="51626" data-name="Brebu" class="comuna"/>
    <path d="M274.91 158.798l6.03 3.636-2.199 17.965 14.043 9.06 11.903 2.546-5.796 9.1 5.565 16.384-22.3 15.004 4.533 8.97-11.678 7.667-14.212-16.017-15.3.244-9.597 9.557 9.196 10.359-3.43 7.368-10.072 4.086-2.19-17.213-15.021-3.53-17.022-14.873-9.028-1.405-2.815-12.126-8.173-2.743 21.13-28.601 8.958 5.494 6.211 8 20.124.745 3.772-18.738 8.6-8.095 28.768-12.844z" id="50969" data-name="Bocșa" class="oras"/>
    <path d="M340.319 172.7l4.736 24.312 15.696 9.02-.661 11.277 16.96 21.697 6.982 4.044-10.75 4.964-5.13 8.56-18.286 3.317-15.243-18.503-9.066-18.034-21.1-5.865-5.566-16.385 5.796-9.099-11.903-2.547 11.728-7.912-.175-8.108 9.9-14.31 16.668 4.842 9.414 8.73z" id="52758" data-name="Ezeriș" class="comuna"/>
    <path d="M549.009 190.415l-2.6 27.144 4.826 9.086-13.758 2.369-19.378-3.199-7.594 12.441-12.12 2.884-13.268-9.292 10.589-18.373-5.43-5.508 9.046-7.67 6.292-23.866-7.336-4.25-20.81 3.605-5.645 4.262-9.263-6.65 2.353-9.362 22.059-5.55 10.837-6.336 14.04 16.388 30.396 10.589 6.764 11.287z" id="51010" data-name="Caransebeș" class="municipiu"/>
    <path d="M173.984 152.54l20.964 26.3 6.581-1.372 5.906 12.262-8.959-5.494-21.129 28.6 8.173 2.744 2.815 12.126-14.394 2.317-11.123 11.068-31.082 19.474-15.524-5.837-16.469-9.153 2.345-6.03 15.795-41.46 8.44 2.092 6.365-20.817 11.696-27.48 7.67-10.825 11.527.259 10.403 11.227z" id="51500" data-name="Berzovia" class="comuna"/>
    <path d="M140.76 127.531l11.293 13.524-7.67 10.824-11.695 27.48-6.365 20.818-8.44-2.092-15.795 41.46-5.032-2.444L73.48 205.76l-2-13.696 12.015-5.839 15.975-2.296-12.548-21.919-2.264-22.734-.279-3.33 30.791-12.332 25.589 3.918z" id="53247" data-name="Măureni" class="comuna"/>
    <path d="M411.755 132.476l-5.94 6.17 11.515 11.044-10.659 9.701 5.777 10.246-25.012 12.385-11.331.536-16.968 11.76 1.614 11.714-15.696-9.02-4.736-24.313 6.049-9.837 6.78-25.057 9.402 1.726 5.709-16.695 12.157-3.752 31.34 13.392z" id="54699" data-name="Zorlențu Mare" class="comuna"/>
    <path d="M251.134 103.154l6.602 19.213 10.755 15.123-1.517 9.216 7.936 12.093-28.769 12.843-8.599 8.095-3.772 18.738-20.124-.745-6.21-8-5.907-12.262-6.58 1.373-20.965-26.3 5.923-6.458 15.223-6.166 1.307-10.862 12.39 1.186 2.106-11.1 37.02-17.488 3.181 1.501z" id="53639" data-name="Ramna" class="comuna"/>
    <path d="M679.194 89.08l1.59 6.134-9.908 9.384-4.538 13.143-10.16 7.012-5.107 10.935 3.18 9.7 9.468 7.88 20.404 7.04.77 8.7L701.7 180.98l14.106 13.71 11.41-2.229 21.488 10.63 8.963 12.385 13.723 8.717 2.024 13.585-6.994 9.003 6.598 8.176-1.156 7.577 13.293 20.52 2.499 19.978-11.433 16.234 6.395 6.69-1.877 13.426-7.437 13.483-14.488 5.623-2.327 11.15-11.155 8.707-14.925 2.181-2.916 5.67-9.659-25.038.47-9.756 15.046-21.703-2.655-21.577-11.356 1.746-12.263-9.078-8.735-15.082-19.915-5.656-12.255 7.182 3.564-15.306 10.613-11.079-3.495-9.845-13.871-1.203-5.958-15.186-17.872-14.47-8.182-21.595-15.074 1.908-7.63-12.43 4.234-19.993 14.498-7.247-3.971-8.872 6.668-11.132-10.341-9.367 6.292-32.659 8.192-14.394 14.423 3.8 3.612 6.994 12.294.354 15.03-6.433z" id="54617" data-name="Zăvoi" class="comuna"/>
    <path d="M727.215 192.462l-11.41 2.229-14.105-13.71-16.806-11.973-.77-8.7-20.405-7.04-9.468-7.88-3.18-9.7 5.107-10.935 10.16-7.012 4.538-13.143 9.907-9.384-1.589-6.134 21.703-10.026.842 10.894-11.696 8.719-2.005 21.275 8.227 29.04 14.32 12.886 10.18 14.402 6.45 16.192z" id="53210" data-name="Marga" class="comuna"/>
    <path d="M773.414 237.78l-2.024-13.586-13.723-8.717-8.963-12.385-21.489-10.63-6.45-16.192-10.18-14.402-14.32-12.885-8.227-29.04 2.005-21.276 11.696-8.72-.842-10.893 7.258-5.33 6.891-3.495 14.3 2.242 6.6 6.787-1.707 11.96L757.716 84l4.729 5.235-2.009 11.82 7.675 17.572 13.42 11.117-.949 15.595 8.182 4.923.35 12.377 6.412 16.064-.397 18.607L799 210.465l-12.67 20.517-12.916 6.797z" id="51332" data-name="Băuțar" class="comuna"/>
    <path d="M633.836 84.365l-8.192 14.394-6.292 32.66 10.34 9.366-6.667 11.132 3.971 8.872-14.498 7.247-7.387-3.474 2.213-10.965-22.7-13.471.754-14.89 7.055-7.398-3.877-20.512-.332-17.125 4.321-14.891 15.25 1.532 26.04 17.523z" id="51207" data-name="Oțelu Roșu" class="oras"/>
    <path d="M592.545 65.31L588.224 80.2l.332 17.125 3.877 20.512-7.055 7.398-.754 14.89 22.7 13.471-2.213 10.965-7.31-5.226-25.575 3.899-1.866-9.495-13.661-7.079-.861-9.016 9.86-12.492-4.724-14.025 4.679-21.364 8.971-8.575 3.129-20.604 14.792 4.725z" id="52936" data-name="Glimboca" class="comuna"/>
    <path d="M577.753 60.585l-3.129 20.604-8.971 8.575-4.68 21.364 4.725 14.025-9.86 12.492.86 9.016 13.662 7.08 1.866 9.494 25.576-3.899 7.309 5.226 7.387 3.474-4.235 19.993-12.207-1.56-15.67 4.639-31.377-.694-6.764-11.287-30.397-10.589-14.039-16.388 4.72-11.017 21.575-15.596 1.292-17.262 8.118-10.285 3.715-20.194 5.393-13.03 8.765 1.21 7.938-11.75 7.159 6.84 11.269-.48z" id="53372" data-name="Obreja" class="comuna"/>
    <path d="M252.222 88.11l-1.088 15.044-3.18-1.5-37.02 17.487-2.107 11.1-12.39-1.186-1.307 10.862-15.223 6.166-5.923 6.458-10.403-11.227-11.528-.26-11.293-13.523 13.409-11.593-4.23-12.571 4.819-19.348 11.834-9.474 1.713-11.69 15.645 3.102 12.063-9.335 11.206-3.548 14.65 10.326 3.267 7.702 14.062 1.694 11.32 9.015.997 6.02.708.279z" id="54537" data-name="Vermeș" class="comuna"/>
    <path d="M708.155 73.724l-7.258 5.33-21.703 10.026-15.029 6.433-12.294-.354-3.612-6.994-14.423-3.8-26.04-17.523-15.251-1.532-14.792-4.725-11.269.481-7.159-6.84 4.194-4.117 4.807-25.494L579.542 6.3l7.769-1.093 23.176-4.042L625.084 1l13.163 4.08 4.19-4.06 15.446 7.503 6.807 21.853 16.884 15.18 9.26 17.333 17.014.115.307 10.72z" id="53728" data-name="Rusca Montană" class="comuna"/>
    <path d="M542.622 64.766l-5.393 13.03-3.715 20.194-8.118 10.285-1.292 17.262-21.574 15.596-4.72 11.017-10.838 6.336-22.06 5.55 2.13-10.714-6.184-5.907.428-10.032-10.733-11.461.67-10.722-7.61-9.245 25.104-8.17 3.859-8.699 20.103-3.874 5.922-19.27 11.495-7.453 8.661.317 2.452-10.24 11.706 1.605 9.707 14.595z" id="51877" data-name="Constantin Daicoviciu" class="comuna"/>
    <path d="M442.234 317.618l.027 9.128-1.313 12.698-11.131 8.972-.586 6.425-10.19 8.57-1.02 8.326 7.534 8.057.813 8.946-13.352 4.295.823 5.67-13.776 25.048-7.56 7.507-6.704 18.116-16.87-12.07-4.097-8.404 5.198-6.273 3.713-15.66-2.64-11.292 7.023-22.42-3.44-10.94 5.04-4.661-.582-14.104 4.227-5.23 20.007-6.52 3.42-14.84 8.266-10.332 27.17 10.988z" id="54485" data-name="Văliug" class="comuna"/>
    <path d="M537.477 229.014l13.11 10.833 15.9 2.712-11.784 13.144.55 14.687-18.688-9.005-10.19 8.022-13.708-3.061-10.073 3.54-10.168 11.263-14.091-.334-6.867 7.461-8.81 18.967-.965 10.751-19.46-.377 1.11-8.817 9.202-4.455-4.304-14.036-11.053-12.127 8.86-14.149 28.668-25.9 10.401-6.285 13.268 9.292 12.12-2.884 7.594-12.44 19.378 3.198z" id="51699" data-name="Buchin" class="comuna"/>
    <path d="M482.193 336.065l6.897 17.939-8.603 7.815L482 371.4l-26.164-12.22-18.382 3.51-8.223-7.848.586-6.425 11.13-8.972 1.314-12.698 17.003 8.261 7.983-5.509 14.946 6.567z" id="51662" data-name="Brebu Nou" class="comuna"/>
    <path d="M555.253 270.39l17.687 13.324-6.778 19.678-5.01-3.896-15.638 7.64-1.953 12.115-40.267 2.847-21.101 13.967-14.946-6.567-7.983 5.51-17.003-8.262-.027-9.128 19.459.376.964-10.75 8.811-18.968 6.867-7.461 14.091.334 10.168-11.264 10.073-3.54 13.709 3.062 10.19-8.022 18.687 9.005z" id="51751" data-name="Bucoșnița" class="comuna"/>
    <path d="M283.46 576.61l.923.804-9.857 22.902-5.467 1.277-12.426 16.94 5.751 19.566-13.183 3.218-28.588 2.569-7.23 8.687-19.368 6.891-16.917 11.128-1.526.413-13.46-21.536 4.75-2.218-4.752-19.42 3.845-3.652 2.454-22.435 5.777-10.986 19.58-9.255 1.638-10.32 34.869 15.654 10.183-4.597 8.9 8.798 5.98-6.677 15.25-1.931 2.77-10.907 10.104 5.086z" id="53791" data-name="Sasca Montană" class="comuna"/>
    <path d="M172.858 559.641l17.697 12.93 4.85-1.388-1.638 10.32-19.581 9.255-5.777 10.986-2.454 22.435-3.845 3.653.725-8.281-8.417-5.518-7.595-17.815-10.207-4.627-1.969-9.157-19.117-.648-11.898-7.836 9.233-22.74 17.77-8.012 10.398 8.136 21.198 3.09 10.627 5.217z" id="51984" data-name="Ciuchici" class="comuna"/>
    <path d="M521.209 48.566l-2.452 10.24-8.661-.317-11.495 7.453-5.922 19.27-20.103 3.874-3.859 8.7-25.104 8.17-4.814-.802-10.044-16.533-6.695-.401 2.624-17.496-1.69-14.372 15.833 16.509L457.8 54.534l4.893 3.798 13.598-4.322 6.064-15.434 1.151 9.313 9.582.694 11.328-10.247 16.794 10.23z" id="53755" data-name="Sacu" class="comuna"/>
    <path d="M443.613 105.955l7.61 9.245-.67 10.722 10.733 11.46-.428 10.033 6.184 5.907-2.13 10.714-2.352 9.363-9.9 8.068-7.508-8.535-6.982.603-5.366 11.24-9.525-2.25-10.831-12.888-5.777-10.246 10.659-9.701-11.516-11.045 5.941-6.17 20.658-13.099-.095-11.609 6.481-2.613 4.814.801z" id="52062" data-name="Copăcele" class="comuna"/>
    <path d="M368.259 122.836l-5.71 16.695-9.4-1.726-6.781 25.057-6.049 9.837-9.414-8.73-16.668-4.84-9.9 14.31.175 8.107-11.728 7.912-14.043-9.06 2.198-17.964-6.03-3.636-7.935-12.092 1.517-9.216-10.755-15.123-6.602-19.213 1.089-15.044 21.723 10.14 25.37 3.867 4.348-5.357 20.873.442 3.273-20.026 24.988-3.43-2.18 11.15 10.55 17.944.082 14.27 7.009 5.726z" id="52785" data-name="Fîrliug" class="comuna"/>
    <path d="M184.964 323.275l-12.824 11.238-4.8 8.483-18.719 16.093-6.727 19.225 3.384 7.508-7.669 7.534-15.54 3.606-9.96 5.284-5.628-14.779-13.28-4.417-7.236-16.186 10.51-1.723 8.816-17.394 9.494-11.646 5.56-24.468 12.543-7.3-13.547-15.99 6.872-6.446 9.89 8.586 6.6-9.59 11.769 3.189 21.239 21.741.181 10.606 9.072 6.846z" id="52856" data-name="Forotic" class="comuna"/>
    <path d="M231.596 264.727l.11 5.033-2.905 17.313-5.343 4.172-2.007 13.168-21.961 19.595-14.526-.733-9.072-6.846-.181-10.606-21.24-21.741-11.768-3.19-6.6 9.591-9.89-8.586-10-27.17 15.523 5.838 31.082-19.474 11.123-11.069 14.394-2.316 9.028 1.405 17.022 14.873 15.02 3.53 2.19 17.213z" id="52650" data-name="Doclin" class="comuna"/>
    <path d="M338.256 718.407l9.084 5.95 14.911 18.976 15.397 7.613 3.893-3.073 15.063 3.885 16.156 20.877 10.16 2.557 28.421-4.295 5.404 8.059-7.18 35.845 4.018 5.678 14.322 4.432 2.169 19.656-17.584 29.753-7.253-10.321-14.895 1.916-9.488-18.96-7.513-2.24-10.265 9.358-18.59 2.597-8.073 5.09-5.986-6.57-3.272-17.58-5.097-4.445-22.485-1.995-17.329-10.148-18.479.343-11.764-4.33 4.01-23.69 19.26-31.438 12.19 1.34 7.943-11.265-10.365-18.351 13.217-15.224z" id="51449" data-name="Berzasca" class="comuna"/>
    <path d="M242.025 703.764l15.206 2.961 9.358 10.618-3.875 5.31 6.593 15.437-19.548 12.764-8.494.772-4.392-10.348-11.726 6.168-8.494 10.21-14.344-8.04 4.068-5.503 12.21-46.921 23.438 6.572z" id="52909" data-name="Gîrnic" class="comuna"/>
    <path d="M218.587 697.192l-12.21 46.921-4.068 5.503 14.344 8.04-3.668 12.783-18.757-.776-8.225 9.616-37.052 16.773-4.321-14.296 3.082-21.902-2.96-14.96-11.459-22.296 7.724-9.858 21.695-4.97 10.84-15.365-5.34-9.911 7.36-11.489 1.526-.413 9.665 3.965 15.333 14.94 9.437-2.097 7.054 9.792z" id="51056" data-name="Moldova Nouă" class="oras"/>
    <path d="M262.384 638.1l8.734 11.332-4.009 15.136-12.273 2.957 5.014 16.748-10.68 7.52-7.145 11.971-23.438-6.572-7.054-9.792-9.437 2.096-15.333-14.939-9.665-3.965 16.917-11.128 19.367-6.891 7.231-8.687 28.588-2.57 13.183-3.217z" id="51840" data-name="Cărbunari" class="comuna"/>
  </g>
</svg>
