<svg xmlns="http://www.w3.org/2000/svg" version="1.2" baseProfile="tiny" stroke-linecap="round" stroke-linejoin="round" viewBox="0 0 800 698">
  <g id="CT" fill="none" stroke="#aaa">
    <path d="M218.477 451.928l-4.963 3.868-18.703 23.115-11.27-1.053-2.678-4.419-17.135-11.872 3.656-4.688-8.838-12.852-13.544-3.932-5.752-7.602 3.758-4.15-4.947-11.952 17.322-9.55 13.447-5.039 9.972-.122 30.334 4.863 12.69-6.502-4.312 28.364-3.635-.553-4.227 16.057 8.825 8.019z" id="62486" data-name="Oltina" class="comuna"/>
    <path d="M363.287 436.425l-7.741 1.724-.955 12.518-5.068 3.332-5.323 11.565-5.307-.03 1.005 17.89 11.578 3.063-2.252 8.25-9.7-1.028-12.238-9.04-.473 9.17-17.594 5.445 1.807 11.993-11.25-6.182 5.116-4.944-13.794-13.116-8.112-5.532 10.414-7.916-2.056-5.556-5.335-10.371 5.233-8.6 13.477-12.428 10.27.42 2.6-9.968-17.182-2.202 6.64-9.96.354-7.84 8.096 3.751 9.388-3.042 33.574-2.243 2.933.267 1.895 30.61z" id="60883" data-name="Adamclisi" class="comuna"/>
    <path d="M769.297 119.059l-8.839 19.635-3.554-1.025-19.256 6.34-7.037 11.916-13.492 14.737-8.455 12.855-31.635-8.05-7.482 5.548-32.911 1.192-6.525-4.768-7.935-11.465 9.066-8.938-8.71-5.668 11.938-22.157 11.332 7.666 3.855-16.74 3.897-2.51 17.001 5.108 22.85 4.477 71.777-8.66 4.115.507z" id="62020" data-name="Istria" class="comuna"/>
    <path d="M479.526 67.387l-4.729 6.487-14.592 1.63-1.461 5.217-16.225.337.64 6.398-12.503 14.701-12.021.136 3.54-10.944-8.776 1.277-12.218-16.004-6.96-4.016-4.161 5.852-9.128-16.945 7.924-19.773 5.294-1.79-.068-10.42 23.717-.684 13.89 2.257 2.266-6.663 18.028 9.913 1.968 13.828 8.551 9.4 15.715-.288 1.31 10.094z" id="62823" data-name="Saraiu" class="comuna"/>
    <path d="M107.648 525.091l-11.107-.722-32.69 7.65-14.096-17.053-7.313-12.806-31.11-9.939-7.615-19.683L1 458.855l1.508-1.152 14.312-8.585 10.679.465 8.643 5.035 14.762 1.505 9.935-2.367 12.95 2.898 13.448.512 10.395-8.652 2.73 19.342 12.434-3.52 10.469 12.291-1.997 5.583-22.24 16.1 11.407 11.224-5.579 8.866 2.792 6.691z" id="62538" data-name="Ostrov" class="comuna"/>
    <path d="M180.863 473.44l-6.733 5.888-1.469 18.127 6.222 7.582-14.213 23.969-57.022-3.915-2.792-6.691 5.579-8.866-11.406-11.224 22.239-16.1 1.997-5.583-10.469-12.29-12.434 3.519-2.73-19.342 15.025-11.368 9.117-10.648 16.287-10.107 4.947 11.952-3.758 4.15 5.752 7.602 13.544 3.932 8.838 12.852-3.656 4.688 17.135 11.872z" id="62057" data-name="Lipnița" class="comuna"/>
    <path d="M661.016 535.739l-6.289 10.94-2.36 23.438-1.128-2.89-19.842-5.845-2.598-13.576-5.188-9.149 29.386 3.602 8.019-6.52z" id="63286" data-name="Costinești" class="comuna"/>
    <path d="M370.678 354.028l.81 11.055-6.416 9.07-8.024 4.583-11.568 13.29 12.979 13.522-33.574 2.243-9.388 3.042-8.096-3.75-10.856-10.935-3.615-12.893-5.862.144-8.926-11.641 10.429-4.128 11.179 1.892 13.024-2.486 6.3-4.503 7.943-11.491 4.987-11.758 10.353-13.541 14.154 6.45 8.497 12.348 9.262 3.23-3.592 6.257z" id="62798" data-name="Rasova" class="comuna"/>
    <path d="M329.14 31.338l-10.089 2.92-12.738 9.644.082 4.704 16.508-.115 1.275 8.664-13.938 7.812.728 4.507 11.805.283 2.792 6.386 10.654-1.519 1.388 8.11 12.67-1.564 19.63 11.719-4.267 6.456 8.963 10.8-7.32-3.397-16.744.24-7.203-10.141-13.671 3.7-16.506-15.961-11.468 1.084-11.183-11.54-14.873-7.66-4.534-10.888 3.6-24.414 7.334-6.444 22.392-6.079 13.752 5.12 10.96 7.573z" id="60801" data-name="Hârșova" class="oras"/>
    <path d="M515.437 296.134l-7.707 16.268 11.95 5.932-16.95 14.521-6.83 10.402-13.628 1.605-8.932-7.39-11.708-16.442 10.675-8.765 3.664 4.585 20.898-18.775 4.292-3.203 14.276 1.262z" id="63300" data-name="Cuza Voda" class="comuna"/>
    <path d="M239.619 494.168l-7.041 9.686-7.278-.024 2.568 16.485-10.96 2.796 1.931 11.829 6.14-.398 4.338 18.516-6.837 4.625-11.334 1.562-17.587-42.759-14.676-11.45-6.222-7.58 1.469-18.128 6.733-5.889 2.679 4.419 11.27 1.053 18.702-23.115 4.963-3.868 15.16-.083 6.64 4.115-3.04 6.744 4.16 15.992-1.778 15.472z" id="61069" data-name="Băneasa" class="oras"/>
    <path d="M291.098 487.035l13.794 13.116-5.115 4.944 11.249 6.182 6.63 15.9-1.325 7.25-6.944-7.743-33.825 28.734-42.184 6.772-7.675 3.416-14.557-6.361 11.334-1.562 6.837-4.625-4.338-18.516-6.14.398-1.932-11.829 10.96-2.796-2.567-16.485 7.278.024 7.04-9.686-.4 4.391 25.279 2.435 5.06-15 8.867 3.65 12.674-2.61z" id="61737" data-name="Dobromir" class="comuna"/>
    <path d="M359.323 628.644l-4.483 7.001-4.722-1.628-9.94-37.846-11.489-25.384-3.682-18.892 7.212-1.504-3.176-17.831 6.659-4.978 5.45 1.92 7.385 18.218 14.485 1.586.416 10.789 6.232 10.376-1.608 8.758-9.574-2.772-5.89 14.284 4.124 2.936.413 14.602-8.27 4.685 2.22 8.294 8.238 7.386z" id="63161" data-name="Dumbrăveni" class="comuna"/>
    <path d="M431.988 449.882l7.494 3.84-.037 16.514 8.986-9.08 8.728 3.332 8.189 7.257 6.661-3.252 9.635 9.21 11.02.448.266-16.028 14.437.165-6.888 4.86 6.599 6.697-1.846 14.445-5.216 10.013-8.243 6.984-2.675 7.537-10.232.095-5.506-4.579-7.34 3.007-2.03 8.03-11.23-2.747-1.916 16.177-12.962 1.364-5.918 6.55-7.388.67-5.228-4.767-21.001 6.543-11.455-4.503-.85-11.392 6.466-3.901 2.224-21.309 6.23.051 6.357-12.959 1.021-24.774-1.72-10.115 8.819-3.893 16.549-.49z" id="61318" data-name="Cobadin" class="comuna"/>
    <path d="M760.458 138.694l-15.035 32.65-14.216 22.525-15.586 18.168-16.893 22.689 1.229-17.495 12.91-15.827 3.855 3.658 9.968-11.09-35.87-.11-13.125-2.107-6.642 3.224-4.845 16.755-20.303 1.856-9.598 7.27-10.678-.824 4.866 13.17-16.123.794.646-3.2-19.306-1.478 5.193-15.096 4.188-29.574 10.882-.185 6.201-18.493 7.935 11.465 6.525 4.768 32.91-1.192 7.483-5.548 31.635 8.05 8.455-12.855 13.492-14.737 7.037-11.916 19.256-6.34 3.554 1.024z" id="62878" data-name="Săcele" class="comuna"/>
    <path d="M600.905 214.226l-5.193 15.096 19.306 1.478-.646 3.2 1.716 4.704-7.67 8.778 15.67 1.787-5.706 11.291 6.664 11.898-12.87.716-1.735-7.007-7.205-4.377-8.49 4.141 2.858 6.865-12.96 4.243-1.082 15.531 2.191 24.247-8.923 6.069-7.134-3.138-9.122 11.813-4.337 12.751 1.09-9.305-12.437 4.673-10.931-9.283-5.74-8.827-.02-7.808 5.112-18.321 6.638-22.372-1.787-5.24 9.032-7.186 2.683-6.09 1.265-4.109 12.446.104 15.25-7.08 2.77-6.067-7.87-8.01 4.946-5.02 10.066-4.275 6.027-6.753 6.128.883z" id="62191" data-name="Mihail Kogălniceanu" class="comuna"/>
    <path d="M590.376 376.39l8.932 6.384 6.162 10.322-9.417 2.112-4.65-4.47-6.106 8.732 7.004 8.085 4.85 12.57-8.752 7.449 8.848 7.111-3.412 3.93-14.376-6.135-15.557 10.752-7.94 1.96-3.094-12.639-5.466-9.7 2.347-12.45 9.3-8.17.303-11.319 4.201-10.333 7.432 9.518 8.387-.987.254-10.91 10.75-1.813z" id="63125" data-name="Valu lui Traian" class="comuna"/>
    <path d="M363.287 436.425l18.587 10.027 21.876-.116 2.87 7.93 1.72 10.114-1.021 24.774-6.358 12.96-6.23-.052-2.224 21.309-6.466 3.901.85 11.392-13.86-8.118-8.648-.852-4.47-5.22-10.014-.101-4.224-12.516-6.428 2.452-3.545 13.273-6.659 4.978 3.176 17.831-7.212 1.504-2.04-10.281-6.636-7.186 1.326-7.251-6.631-15.9-1.807-11.993 17.594-5.445.473-9.17 12.237 9.04 9.701 1.028 2.252-8.25-11.578-3.064-1.005-17.89 5.307.031 5.323-11.566 5.068-3.331.955-12.518 7.741-1.724z" id="61675" data-name="Deleni" class="comuna"/>
    <path d="M485.534 215.332l-.856 5.71-10.708 5.776 2.724 4.918-21.777 18.333-.534 4.865-9.15 6.375-3.141 11.005-8.996 2.062-7.832 13.675-4.986-3.265 4.637-10.037-12.279-1.804-8.556-7.119 9.186-5.76 6.981-13.29 11.403-8.817 3.131-13.79 5.385 3.49 8.813-3.335-10.741-14.805 22.63-3.168 10.96 2.67 9.948-8.051 6.817 5.39-3.059 8.972z" id="62949" data-name="Siliștea" class="comuna"/>
    <path d="M551.675 580.153l-2.957 7.002 3 24.878-18.938.797.337 4.182-24.893 1.064-.683-4.652-19.8.22-1.412-6.57-5.54-27.508 4.804-9.682 9.025 1.464 13.288-2.318 9.944 5.627 15.783-8.419 10.795 4.704 7.247 9.211z" id="61452" data-name="Comana" class="comuna"/>
    <path d="M559.352 390.914l-.304 11.319-9.3 8.17-2.346 12.45 5.466 9.7-9.168 4.237-16.98-.653-13.022-4.86-12.255 5.566-2.064-13.094-15.332-1.22 6.24-10.972 7.776 1.401 3.918-23.125 16.481 8.193 4.566-4.453 19.737-7.305 10.36 8.57 6.227-3.924z" id="62360" data-name="Murfatlar" class="oras"/>
    <path d="M389.745 145.511l21.218 15.35-5.34 4.502 3.199 9.112-2.478 11.86 14.816-8.536 3.836 6.336-13.752 3.622-7.12 12.135-10.997.31-4.219 14.365-6.845 2.75-7.388-14.719-13.223-7.602-9.5-24.73-8.921-11.126-1.802-12.833 5.35-10.17 9.82 4.691 12.065 1.254 5.985 6.23 8.691.933 6.605-3.734z" id="63045" data-name="Topalu" class="comuna"/>
    <path d="M418.635 102.293l-5.164 8.096-19.043 11.53-1.236 5.1 13.534 12.227-5.734 8.507-11.247-2.242-6.605 3.734-8.69-.933-5.986-6.23-12.066-1.254-9.819-4.692 3.118-8.927 8.387 2.091 13.898-.632 2.62-18.524-8.962-10.8 8.267.754 11.255-8.368-.45-12.533 5.348-.74 4.16-5.85 6.961 4.015L413.4 92.626l8.777-1.277-3.541 10.944z" id="63278" data-name="Horia" class="comuna"/>
    <path d="M490.287 411.557l-6.24 10.971 15.332 1.221 2.064 13.094 12.255-5.565 13.023 4.859-6.727 9.73.182 16.787-12.81-.366-14.436-.165-.266 16.028-11.02-.449-9.635-9.21-6.661 3.253-8.189-7.257-8.728-3.332-8.986 9.08.037-16.515-7.494-3.839 4.335-4.286-5.42-23.136 7.63-3.546 12.565-16.142-6.367-8.305 6.884-7.25 3.069-2.08 21.401 4.71-3.357 8.864 2.262 9.556 15.297 3.29z" id="61283" data-name="Ciocîrlia" class="comuna"/>
    <path d="M278.142 371.758l8.926 11.64 5.862-.143 3.615 12.893 10.856 10.934-.354 7.84-6.64 9.96 17.183 2.202-2.602 9.969-10.269-.421-13.477 12.428-5.233 8.6 5.335 10.371-15.636-6.591 1.66-6.452-14.515-7.791-5.715-16.846-6.272-4.354-4.275-11.713-8.936 3.776-8.164-4.659 1.602-15.543-2.035-5.1 9.716-11.212 23.311-10.038 16.057.25z" id="61005" data-name="Aliman" class="comuna"/>
    <path d="M291.344 468.031l2.056 5.556-10.414 7.916 8.112 5.532-12.674 2.608-8.867-3.648-5.06 14.999-25.28-2.435.402-4.391 1.778-15.472-4.16-15.992 3.04-6.744-6.64-4.115-15.16.083-8.825-8.02 4.227-16.056 3.635.553 4.312-28.364 7.232-7.282 2.035 5.1-1.602 15.542 8.164 4.66 8.936-3.777 4.275 11.713 6.272 4.354 5.715 16.846 14.515 7.791-1.66 6.452 15.636 6.591z" id="61951" data-name="Ion Corvin" class="comuna"/>
    <path d="M380.932 61.513l9.128 16.944-5.348.74.45 12.533-11.255 8.368-8.267-.753 4.268-6.456-19.631-11.719-12.67 1.564-1.388-8.11-10.654 1.52-2.792-6.387-11.805-.283-.728-4.507 13.938-7.812-1.275-8.664-16.508.115-.082-4.704 12.738-9.644 10.088-2.92 8.666.959 10.827-4.82 15.964 13.96-5.454 11.83 12.958 2.51 8.832 5.736z" id="61256" data-name="Ciobanu" class="comuna"/>
    <path d="M417.799 28.846l-23.717.684.068 10.42-5.294 1.79-7.924 19.773-8.832-5.736-12.958-2.51 5.454-11.83-15.964-13.96 10.608-11.483L364.09 1l17.076 6.18 12.954-5.681 7.195.423 13.548 9.297 2.936 17.627z" id="61808" data-name="Gârliciu" class="comuna"/>
    <path d="M552.868 432.553l3.094 12.64 7.403 7.69-5.774 6.978.11 12.431-2.588 17.592-11.462-4.442-15.261.522-1.189 5.558-13.25.114-8.72-3.346 1.847-14.445-6.599-6.697 6.888-4.86 12.81.366-.183-16.787 6.727-9.73 16.98.653 9.167-4.237z" id="63294" data-name="Bărăganu" class="comuna"/>
    <path d="M563.553 380.58l-4.201 10.334-6.227 3.923-10.36-8.569-19.737 7.305-4.566 4.453-16.48-8.193-9.274-7.345-.715-18.534 6.813-4.834 19.078 8.115 11.979-5.02 13.681-12.33 6.194 7.058 14.376-5.42 3.192 12.38-11.952 13.93 8.2 2.748z" id="62761" data-name="Poarta Albă" class="comuna"/>
    <path d="M473.34 337.472l8.932 7.39 13.629-1.605 2.905 15.863-6.813 4.834.715 18.534 9.273 7.345-3.918 23.125-7.776-1.401-15.297-3.29-2.262-9.556 3.357-8.864-21.401-4.71-3.069 2.08-13.953-3.208-1.016-10.823 4.728-16.311 17.14-1.466-.793-14.236 9.167-5.524 6.452 1.823z" id="60847" data-name="Medgidia" class="municipiu"/>
    <path d="M509.675 76.104l-1.266 2.812-24.374-.905.504 32.9-11.187-.296-11.242 31.412-18.548-15.509 6-16.728-11.762 3.278-7.144-10.911 12.503-14.701-.64-6.398 16.225-.337 1.46-5.217 14.593-1.63 4.73-6.487 16.65 2.843 7.333-.898 6.165 6.772z" id="63170" data-name="Vulturu" class="comuna"/>
    <path d="M430.656 102.157l7.144 10.912 11.762-3.28-6 16.73 18.548 15.508 9.73 8.336-6.45 3.14 2.75 7.786-7.412 4.143 8.04 15.938-1.253 6.383 8.192 2.293 6.069 10.924-9.948 8.05-10.96-2.669-22.63 3.168 10.74 14.805-8.812 3.335-5.385-3.49-3.131 13.79-11.402 8.816-9.648-10.262 10.805-12.076-13.624-4.635 2.891-8.584-12.813-6.978-5.21 12.574-9.098 8.534-1.488-8.03 6.846-2.751 4.218-14.364 10.997-.311 7.12-12.135 13.752-3.622-3.836-6.336-14.816 8.535 2.478-11.859-3.199-9.112 5.34-4.502-21.218-15.35 11.247 2.242 5.734-8.506-13.534-12.228 1.236-5.1 19.043-11.53 5.164-8.096 12.02-.136z" id="61559" data-name="Crucea" class="comuna"/>
    <path d="M627.754 435.715l-3.116 15.724-19.799 1.34-1.672 2.915-32.461.796-7.341-3.607-7.403-7.69 7.94-1.961 15.557-10.752 14.376 6.134 3.412-3.929-8.848-7.111 8.752-7.449 15.524-2.221 4.614 16.653 10.465 1.158z" id="61620" data-name="Cumpăna" class="comuna"/>
    <path d="M509.675 76.104l.124 11.315 5.173 15.722 10.923 9.372-6.071 16.2L538.8 145.49l-8.833 4.742-11.3 10.767 9.983 10.006-11.525 1.368-1.952-9.482-9.947-2.59-4.02 4.399 2.186 15.778 13.796 2.804-2.725 3.828-15.984-7.004-7.713 1.438-15.06 8.502-8.19-2.292 1.253-6.384-8.041-15.938 7.412-4.143-2.75-7.786 6.45-3.14-9.73-8.336 11.242-31.412 11.187.296-.504-32.9 24.374.905 1.266-2.812z" id="62609" data-name="Pantelimon" class="comuna"/>
    <path d="M698.728 234.726l-23.665 34.486-7.822 21.25-7.507.483-15.143-6.449-9.053-7.753-10.492-4.285-6.664-11.898 5.705-11.291-15.668-1.787 7.67-8.778-1.717-4.704 16.123-.793-4.865-13.171 10.677.824 9.598-7.27 20.303-1.856 4.845-16.756 6.642-3.223 13.125 2.107 35.87.11-9.968 11.09-3.854-3.658-12.911 15.827-1.229 17.495z" id="61513" data-name="Corbu" class="comuna"/>
    <path d="M625.046 272.458l10.492 4.285 9.053 7.753 15.143 6.45 7.507-.484-12.346 2.993-5.536 10.92-6.51.773-5.575 18.155-1.137 16.16-13.217 3.526-4.205-1.724-5.007-1.25 2.892-18.41-8.31-5.576-.24-7.675-6.754-1.184-4.67-8.932 14.443-1.512 2.284-10.812-11.516-8.687.783-8.326-7.874-2.97 8.49-4.141 7.205 4.377 1.734 7.007 12.87-.716z" id="60507" data-name="Năvodari" class="oras"/>
    <path d="M769.297 119.059l-4.115-.508-71.776 8.66-22.85-4.476-17.002-5.108-3.897 2.51-3.855 16.74-11.332-7.666-3.296-3.608-6.51-4.922 2.533-13.96-10.158-4.233-6.943-13.127 6.787-3.977 36.095-7.595-2.28 4.193 29.236 8.867 4.7-4.953 13.61-1.113 5.69 12.428 16.487 1.454 15.57-18.333 14.56-12.82 10.589-6.328 6.531-7.83 15.884 2.416L799 64.102l-11.113 18.864-8.507 9.855-10.083 26.239z" id="62253" data-name="Mihai Viteazu" class="comuna"/>
    <path d="M487.742 613.643l1.455 12.66 9.513 16.55 9.395 2.872 4.204 14.456 12.42.188 16.519-5.805 2.573 18.988-13.547 3.951 4.04 12.408-13.213-2.853-53.549-2.001-47.8-19.021 2.013-14.984 3.87-10.488 10.726 1.417 2.92-20.424 8.829-1.455 17.074 2.786 21.145-15.814 1.413 6.57z" id="62397" data-name="Negru Vodă" class="oras"/>
    <path d="M533.117 617.012l12.07.122 3.299 5.47 10.139.902 4.21-5.379 17.401-1.51 9.123 5.624 7.002-1.092 3.31 13.558-9.008 7.296-12.028 7.48-7.594-3.188-5.52 6.3-3.118 24.352 5.815 6.96.093 13.306-33.996-7.302-4.041-12.408 13.547-3.95-2.573-18.99-16.52 5.806-12.419-.188-4.204-14.456-9.395-2.872-9.513-16.55-1.455-12.66 19.799-.219.683 4.652 24.893-1.064z" id="60945" data-name="Albești" class="comuna"/>
    <path d="M402.873 353.054l38.5 3.82-4.727 16.312 1.016 10.823 13.953 3.207-6.884 7.25 6.367 8.306-12.564 16.142-7.632 3.546 5.421 23.136-4.335 4.286-16.55.49-8.818 3.893-2.87-7.93-21.876.117-18.587-10.026-1.895-30.61-2.933-.267-12.979-13.523 11.568-13.29 8.024-4.583 6.416-9.07-.81-11.055 12.908-3.88 19.287 2.906z" id="62707" data-name="Peștera" class="comuna"/>
    <path d="M415.366 318.602l-2.98 7.194-9.427 8.268.467 12.982-4.497 5.249-18.308-5.013-17.184-20.705 11.695-13.08 4.833 3.998 6.292-8.064 9.7-.178 6.204 9.255 13.205.094z" id="63318" data-name="Saligny" class="comuna"/>
    <path d="M404.56 305.961l10.806 12.64-13.205-.094-6.205-9.254-9.699.178-6.292 8.064-4.833-3.998-11.695 13.08 17.184 20.705 18.308 5.013 3.944.76-19.287-2.907-12.908 3.88 3.592-6.257-9.262-3.23-8.496-12.348-14.155-6.45 4.438-6.988 2.162-12.039 2.826-14.524 9.508-4.125 12.86 12.891 25.976 1 4.433 4.003z" id="60776" data-name="Cernavodă" class="oras"/>
    <path d="M420.248 246.775l-6.982 13.292-9.186 5.76 8.557 7.118 12.279 1.804-4.638 10.037 4.986 3.265-3.381 5.748-7.385 12.365-9.938-.203-4.433-4.002-25.975-1-12.861-12.892-9.508 4.125 8.266-15.092 7.072-7.78 7.573-13.432 13.197-8.805 2.514-5.77-6.854-15.965 9.099-8.534 5.209-12.575 12.813 6.98-2.89 8.583 13.623 4.635-10.805 12.076 9.647 10.262z" id="62903" data-name="Seimeni" class="comuna"/>
    <path d="M461.632 321.03l11.708 16.442-6.452-1.823-9.167 5.524.793 14.236-17.14 1.466-38.5-3.82-3.945-.76 4.497-5.25-.467-12.981 9.426-8.268 2.981-7.194-10.806-12.64 9.938.202 7.385-12.365 4.132-1.758.624 18.432 6.683 6.232 11.246-3.12 7.873 1.481.1 8.466 9.091-2.502z" id="62280" data-name="Mircea Vodă" class="comuna"/>
    <path d="M374.603 110.144l-2.621 18.524-13.898.632-8.387-2.092-1.01-8.08-7.952-10.23-11.07-8.351 13.67-3.7 7.204 10.14 16.745-.24 7.319 3.397z" id="61826" data-name="Ghindărești" class="comuna"/>
    <path d="M618.715 341.265l-10.943 3.557-12.777-17.27-10.802 1.406-7.363-6.072 8.923-6.069-2.191-24.247 1.081-15.53 12.96-4.244-2.857-6.865 7.874 2.97-.783 8.326 11.516 8.688-2.284 10.811-14.442 1.512 4.67 8.932 6.754 1.183.239 7.676 8.31 5.576-2.892 18.41 5.007 1.25z" id="63152" data-name="Lumina" class="comuna"/>
    <path d="M603.167 455.694l-12.412 22.34 11.935 2.306 2.726 6.21-1.679 13.557 8.408 6.762.715 8.555-6.52 15.48 2.715 11.146-29.15 11.74-3.656-13.568-5.765.228-18.528 1.134-5.409-9.115-8.356 2.242-1.333-6.233 6.793-43.035 11.462 4.441 2.588-17.592-.11-12.431 5.774-6.978 7.34 3.607 32.462-.796z" id="63072" data-name="Topraisar" class="comuna"/>
    <path d="M496.87 298.075L475.97 316.85l-3.664-4.585-10.675 8.765-9.09 2.502-.101-8.466-7.873-1.48-11.246 3.119-6.683-6.232-.624-18.432-4.132 1.757 3.38-5.747 7.833-13.675 8.996-2.062 3.14-11.005 9.151-6.375 12.005 11.512-4.993 8.5 8.684 7.27 6.532-1.754 13.48 12.033 5.343-9.378 6.407 8.692-4.972 6.266z" id="63189" data-name="Tortoman" class="comuna"/>
    <path d="M485.534 215.332l8.25 2.749 10.202 8.905 25.827 7.475 8.854-.323 6.084 6.483 5.125 13.933-2.682 6.089-9.032 7.187 1.787 5.24-6.638 22.37-17.874.694-14.276-1.262-4.292 3.203 4.972-6.266-6.407-8.692-5.344 9.377-13.479-12.032-6.532 1.754-8.684-7.27 4.993-8.5-12.005-11.512.534-4.865 21.777-18.333-2.724-4.918 10.708-5.776.856-5.71z" id="62440" data-name="Nicolae Bălcescu" class="comuna"/>
    <path d="M426.603 612.293l4.66 7.398 8.019 1.866-2.921 20.424-10.726-1.417-3.87 10.488-2.013 14.984-10.57-4.164-48.654-24.294-5.688-1.933 4.483-7.001 19.824-8.408 10.987-23.369 9.175 10.308 27.294 5.118z" id="61167" data-name="Cerchezu" class="comuna"/>
    <path d="M463.99 519.378l1.857 2.801-1.976 10.694 6.411 2.679 1.831 10.324-8.356.44-.145 10.26 6.643.125.452 13.927 5.273-.018 4.809 8.956 5.54 27.508-21.145 15.814-17.074-2.786-8.828 1.455-8.018-1.866-4.66-7.399 6.103.464-1.238-22.647-6.457-3.134-2.22-16.63 8.972-.66-7.188-28.294 7.388-.67 5.918-6.55 12.962-1.364 1.916-16.177 11.23 2.748z" id="61210" data-name="Chirnogeni" class="comuna"/>
    <path d="M556.237 344.312l-12.693 5.573-13.681 12.33-11.979 5.02-19.078-8.115-2.905-15.863 6.829-10.402 16.95-14.52-11.95-5.933 7.707-16.268 17.874-.693-5.112 18.32.02 7.81 5.74 8.826 10.93 9.283 12.438-4.673-1.09 9.305z" id="61121" data-name="Castelu" class="comuna"/>
    <path d="M576.83 322.886l7.363 6.072 10.802-1.406 12.777 17.27 10.943-3.557 4.205 1.724-.948 18.341-12.454 13.06-7.76-5.67-6.788.58-4.594 7.09-10.75 1.812-.254 10.91-8.387.987-7.432-9.518-8.2-2.748 11.953-13.93-3.192-12.38-14.376 5.42-6.194-7.058 12.693-5.573 4.337-12.751 9.122-11.813 7.134 3.138z" id="60687" data-name="Ovidiu" class="oras"/>
    <path d="M543.651 485.442l-6.793 43.036 1.333 6.233-7.65 7.301-13.643.361-.362-5.303-19.768.902-.343-6.33-7.613-2.76-12.637 1.353.193-9.356-10.521 1.3-1.857-2.801 2.03-8.03 7.34-3.008 5.506 4.579 10.232-.095 2.675-7.537 8.243-6.984 5.216-10.013 8.72 3.346 13.25-.114 1.188-5.558 15.261-.522z" id="62137" data-name="Mereni" class="comuna"/>
    <path d="M623.61 538.657l5.19 9.15 2.597 13.575 19.842 5.845 1.127 2.89-8.528 14.266-7.865 10.724-10.994 5.061-10.552 1.677-12.065-14.885-5.404 1-1.054-13.308-15.474-.442-.656-20.244-4.117.598-5.173-14.114 5.765-.229 3.655 13.57 29.151-11.741 8.372 1.78 6.184-5.173z" id="60598" data-name="23 August" class="comuna"/>
    <path d="M636.137 339.463l.99 14.499 7.384 19.844 7.54 4.955 2.317 18.05 2.817 6.415-7.436 10.794 3.4 31.708 9.212 3.626 13.27.065-2.15 9.99-21.367 3.368-5.322-27.056-9.263-3.224-9.775 3.218-10.465-1.158-4.614-16.653-15.524 2.221-4.85-12.57-7.004-8.085 6.107-8.732 4.65 4.47 9.416-2.112-6.162-10.322-8.932-6.385 4.594-7.09 6.788-.579 7.76 5.67 12.454-13.06.948-18.341 13.217-3.526z" id="60419" data-name="Constanța" class="municipiu resedinta"/>
    <path d="M538.19 534.711l8.357-2.242 5.41 9.115 18.527-1.134 5.173 14.114-8.151 9.007-6.382.27-9.45 16.312-7.246-9.21-10.795-4.705-15.784 8.419-9.943-5.627-13.288 2.318-9.025-1.464-4.804 9.682-4.809-8.956-5.273.018-.452-13.927-6.643-.125.145-10.26 8.356-.44-1.831-10.324-6.41-2.679 1.975-10.694 10.52-1.3-.192 9.356 12.637-1.353 7.613 2.76.343 6.33 19.768-.902.362 5.303 13.642-.36 7.65-7.302z" id="63198" data-name="Amzacea" class="comuna"/>
    <path d="M614.427 601.845l.492 6.883-9.018.459-9.54 11.962-7.002 1.092-9.123-5.623-17.402 1.51-4.21 5.378-10.138-.902-3.3-5.47-12.07-.122-.336-4.182 18.939-.797-3.001-24.878 2.957-7.002 9.45-16.312 6.38-.27 8.152-9.007 4.117-.598.656 20.244 15.474.442 1.053 13.307 5.405-.999 12.065 14.885z" id="62672" data-name="Pecineaga" class="comuna"/>
    <path d="M651.956 503.249l.747 6.453 10.268.099 2.853 17.392-4.808 8.546-8.019 6.52-29.386-3.602-6.184 5.173-8.372-1.78-2.715-11.147 6.52-15.479 6.376-6.92 5.222 4.31 7.532-4.843 14.643-14.38 5.323 9.658z" id="60721" data-name="Tuzla" class="comuna"/>
    <path d="M610.096 89.36l6.943 13.128 10.158 4.233-2.533 13.96 6.51 4.922-4.044 3.972-17.75 2.848-7.05 9.722-4.285-5.52-14.925.452-2.478-10.27-.484-19.362-2.207-3.496 3.553-1.299 2.774-17.633 21.23 1.977 4.588 2.367z" id="63334" data-name="Fîntînele" class="comuna"/>
    <path d="M649.752 467.603l4.346 20.88 6.408 11.546 2.465 9.772-10.268-.099-.747-6.453 1.386-14.288-1.962-6.38-9.28-2.353-1.427-5.114 9.079-7.51z" id="60455" data-name="Eforie" class="oras"/>
    <path d="M590.663 642.003l11.937 2.837 6.89 5.947 5.79-1.624 15.787 8.525-2.293 22.54 2.549 10.966-63.012 6.02-.093-13.307-5.815-6.96 3.117-24.351 5.52-6.301 7.595 3.187 12.028-7.48z" id="60632" data-name="Limanu" class="comuna"/>
    <path d="M643.838 584.383l-3.556 14.696 1.942 17.892-8.044 8.177-1.303 17.328 4.042 9.55-5.852 5.662-15.786-8.525-5.79 1.624-6.891-5.947-11.937-2.837 9.008-7.296-3.31-13.558 9.54-11.962 9.018-.459-.492-6.883 10.552-1.677 10.994-5.061 7.865-10.724z" id="60482" data-name="Mangalia" class="municipiu"/>
    <path d="M517.188 183.282l5.506 9.225 7.705 1.43 16.224 13.918 19.628-3.409 12.433 19.926-4.946 5.019 7.87 8.01-2.77 6.067-15.25 7.08-12.446-.104-1.266 4.11-5.125-13.933-6.084-6.483-8.854.323-25.827-7.475-10.202-8.905-8.25-2.749 3.06-8.972-6.818-5.39-6.07-10.924 15.06-8.502 7.713-1.438 15.984 7.004 2.725-3.828z" id="62985" data-name="Târgușor" class="comuna"/>
    <path d="M566.251 204.446l-19.628 3.409-16.224-13.917-7.705-1.431-5.506-9.225-13.796-2.804-2.186-15.778 4.02-4.4 9.947 2.59 1.952 9.483 11.525-1.368L518.666 161l11.301-10.767 8.833-4.742 27.927-4.347 1.496 12.244 8.297 9.826 12.74.43-.477 14.428-9.202-1.179-9.618 4.739 2.826 12.328-6.538 10.487z" id="63326" data-name="Grădina" class="comuna"/>
    <path d="M577.951 103.949l2.207 3.496.484 19.362 2.478 10.27 14.925-.452 4.286 5.52 7.049-9.722 17.75-2.848 4.044-3.972 3.296 3.608-11.939 22.157 8.71 5.668-9.065 8.938-6.201 18.493-10.882.185-4.188 29.574-6.128-.883-6.027 6.753-10.066 4.276-12.433-19.926 6.538-10.487-2.826-12.328 9.619-4.739 9.201 1.179.476-14.429-12.74-.43-8.296-9.825-1.496-12.244-27.927 4.347-18.976-16.777 6.071-16.2 5.85 5.404 6.528-6.235 5.628-12.229-10.28-9.294 2.855-10.502 15.706 15.681 25.77 8.611z" id="61372" data-name="Cogealac" class="comuna"/>
    <path d="M386.892 538.664l11.455 4.504 21.001-6.544 5.228 4.766 7.188 28.294-8.972.662 2.22 16.629 6.457 3.134 1.238 22.647-6.104-.463-27.294-5.118-9.175-10.308-10.987 23.37-19.824 8.407-8.237-7.386-2.221-8.294 8.27-4.685-.413-14.602-4.125-2.936 5.89-14.284 9.575 2.772 1.608-8.758-6.233-10.376-.415-10.79-14.485-1.585-7.386-18.217-5.45-1.921 3.546-13.273 6.428-2.452 4.224 12.516 10.014.101 4.47 5.22 8.648.852 13.86 8.118z" id="61871" data-name="Independența" class="comuna"/>
    <path d="M652.114 462.777l-2.362 4.826-9.079 7.511-17.634.711-20.349 4.515-11.935-2.306 12.412-22.34 1.672-2.914 19.799-1.341 3.116-15.724 9.775-3.218 9.263 3.224 5.322 27.056z" id="60570" data-name="Agigea" class="comuna"/>
    <path d="M651.956 503.249l-5.323-9.658-14.643 14.38-7.532 4.843-5.222-4.31-6.376 6.92-.715-8.555-8.408-6.762 1.68-13.557-2.727-6.21 20.349-4.515 17.634-.71 1.428 5.113 9.28 2.353 1.961 6.38-1.386 14.288z" id="60534" data-name="Techirghiol" class="oras"/>
  </g>
</svg>
