<svg xmlns="http://www.w3.org/2000/svg" version="1.2" baseProfile="tiny" stroke-linecap="round" stroke-linejoin="round" viewBox="0 0 800 1027">
  <g id="HD" fill="none" stroke="#aaa">
    <path d="M654.141 940.606l-15.684 5.984-23.606-22.875 4.483-27.432-25.616-30.431 22.076-6.443 9.51 15.947 6.232 18.848 14.849 8.425.698 10.186 9.506 11.84-2.448 15.951z" id="87219" data-name="Aninoasa" class="oras"/>
    <path d="M579.687 854.812l14.03 11.04 25.617 30.431-4.483 27.432 23.606 22.875-9.18-.048-8.545 19.506-11.112 9.026-4.38-3.97-8.723-5.387-20.55 1.539-10.048-16.516 3.17-28.34-.724-28.397-18.736-7.029 3.523-23.113-21.932 1.769 12.516-7.611 35.951-3.207z" id="87175" data-name="Vulcan" class="municipiu"/>
    <path d="M579.687 854.812l-35.951 3.207-12.516 7.61-.414.432-2.28-6.224 10.128-15.07-3.638-12.68 4.393-13.374 12.102-3.854 8.156-23.368 12.447-2.22 8.619-7.155 18.926-7.636 14.001-10.072-2.942 12.614 11.35 7.68-5.987 8.95 11.86 15.62-2.499 12.888-10.527 14.392-3.324 13.053-31.904 5.207z" id="87246" data-name="Bănița" class="comuna"/>
    <path d="M297.459 753.578l-12.41 22.653-2.988 16.987-14.692 8-6.21 20.353-8.087-1.265-11.215 11.092-6.248 16.754-10.563 9.666-4.374-14.864.448-21.026-7.244-18.151-.397-13.987-9.245-5.563 1.073-17.621 21.002-.896 27.956-13.468 19.328 4.163 9.297-7.463 14.569 4.636z" id="91054" data-name="Sarmizegetusa" class="comuna"/>
    <path d="M358.485 692.37l8.6 14.444-15.512 14.526-6.154 12.63-18.76 17.799-19.16-5.144 14.394-22.815.546-13.49 18.325-8.978 8.451 1.83 9.27-10.801z" id="91624" data-name="Totești" class="comuna"/>
    <path d="M457.542 706.469l-5.243 5.217 5.582 14.098-7.705 6.949-30.462 3.587-14.547 2.134-15.842-12.942-7.96 18.446-18.387 20.566-16.043-11.225-1.516-19.33 6.154-12.63 15.513-14.525 13.6-5.921 16.61-1.203 9.406-9.249 4.135-14.265 21.218 16.194 12.167 1.688 13.32 12.41z" id="91232" data-name="Sântămăria-Orlea" class="comuna"/>
    <path d="M305.648 699.491l16.791 10.829-.546 13.49-14.395 22.815-10.04 6.953-14.568-4.636-9.297 7.463-19.328-4.163-27.956 13.468-21.002.896-15.165-12.562-8.672-19.855 2.27-13.357-5.344-5.915-26.528 8.156 1.93-13.515-7.459-7.668 9.116-10.659 16.106-8.769 10.858 3.798 6.243-11.238 8.784 9.03 15.4 3.6 7.326 10.02 29.592-.882 24.559 2.304 26.318 7.548 5.007-7.15z" id="89348" data-name="Densuș" class="comuna"/>
    <path d="M301.043 655.581l1.792 12.533 7.806 7.517-4.993 23.86-5.007 7.15-26.318-7.547-24.559-2.304-29.592.883-7.327-10.021-15.4-3.6-8.783-9.03 9.31-3.9 21.753-1.664 2.404-13.693 16.54-8.178 17.794 5.553 16.817-9.103 24.861 3.593 2.902 7.951z" id="90725" data-name="Răchitova" class="comuna"/>
    <path d="M78.696 602.578l2.026 8.156 14.448 3.668 22.225-8.936 5.663 2.234 43.03 1.688 20.405 7.877 13.847 14.155 18.223-3.408-1.472 6.409-26.517 6.232-4.591 9.733 36.146 5.38-2.404 13.692-21.753 1.664-9.31 3.9-6.243 11.238-10.858-3.798-16.106 8.77-9.116 10.658-16.158-2.534-7.787 3.949-.347-12.114-19.225-.13-10.464-19.585-19.078-17.153-7.692-24.693-17.453-8.478 6.375-11.946 18.958-7.016 5.228.388z" id="90119" data-name="Lunca Cernii de Jos" class="comuna"/>
    <path d="M440.542 598.657l2.024 14.663 18.29 9.621 11.627 14.133-.04 21.786-4.64 5.672 1.243 28.516-11.504 13.42-13.32-12.41-12.167-1.688-21.218-16.194-7.888-14.29-1.471-12.367-7.69-11.937-12.691-9.256-15.498 4.22-4.092-10.085-.502-2.464 10.784-12.775 19.299-8.414 14.656-2.206 16.536 3.376 11.743-5.53 6.52 4.21z" id="88644" data-name="Bretea Română" class="comuna"/>
    <path d="M364.82 593.32l-7.478 14.4 3.663 12.277.502 2.464-14.337 6.553-5.606-4.362-10.497 21.196-15.426 7.785-9.436-.878-1.93-30.776 7.119-18.279 20.703-10.624-9.666-15.728 9.387 5.906 21.954-9.139 11.048 19.204z" id="86936" data-name="Teliucu Inferior" class="comuna"/>
    <path d="M237.834 591.959l-2.598 17.195-.06 13.115-16.613 5.743-18.223 3.408-13.847-14.155-20.405-7.877-43.03-1.688-5.663-2.234-22.225 8.936-14.448-3.668-2.026-8.156 16.816-4.413 17.183.325 21.979-12.388 25.662 8.848 12.87-10.993 10.822-1.519 5.96-9.844 19.306 12.075 11.242-10.16 17.298 17.45z" id="89026" data-name="Bunila" class="comuna"/>
    <path d="M656.19 659.776l-4.092 6.161 6.886 14.4 20.939-10.487 11.14 10.09-4.173 8.447-1.087 20.115 5.554 6.789-17.672 17.273-7.997-.84-11.45 13.41-5.75-2.555-16.539-9.215-15.467-4.335-20.721-22.126-14.878-.426-15.321 5.34-12.042-2.788 8.416-25.597-6.452-13.605-7.594-1.773-8.027-16.999-9.58-9.044-9.438 11.705-8.369-14.078-11.232-8.21 5.058-15.244-22.616-13.697-.842-19.28 15.425-5.956 2.103-8.458 12.25-10.702 15.217-2.22 32.963 17.956.247 11.68 14.462 18.52-17.883 13.273 10.702 8.976 10.076-2.823 14.428 10.062 11.61.603 7.485 7.39 5.64 16.245 18.657-.71 14.67-4.693 5.293 7.426z" id="90342" data-name="Orăștioara de Sus" class="comuna"/>
    <path d="M453.055 536.23l18.939 2.587 9.986 20.729 12.795 2.183 5.597 7.064-2.103 8.458-15.425 5.956-9.068 2.95-13.585-9.98-18.216 16.544-1.433 5.936-6.52-4.21-11.742 5.531-16.536-3.376-14.656 2.206-19.299 8.414-10.784 12.775-3.663-12.278 7.478-14.4 18.479-19.601 6.064-29.642-1.511-17.324 15.87-12.21 21.244 4.892 6.334 7.547 15.916 3.122 5.839 6.127z" id="87424" data-name="Călan" class="oras"/>
    <path d="M516.8 492.613l8.423 10.971 2.805 16.396-15.407 38.11-12.249 10.703-5.597-7.064-12.795-2.183-9.986-20.729-18.94-2.587 7.17-6.635-5.376-15.27 4.56-20.206 25.302-5.933 10.258 4.855 16.217-4.452 5.615 4.024z" id="90262" data-name="Mărtinești" class="comuna"/>
    <path d="M191.653 461.023l8.423 13.467-9.9 22.717-14.64 16.774-17.422 11.261-18.217 1.704-15.564 5.734 7.326-9.748-10.406-21.268 4.505-11.578 19.115-17.642 10.409-.365 9.165-9.468 14.75-5.047 12.456 3.459z" id="88216" data-name="Bătrîna" class="comuna"/>
    <path d="M324.243 427.003l8.77 9.968-.524 10.214 11.577 4.315 3.281 25.884-8.451 7.018-1.423 11.53-33.394-1.406-17.883-7.339-3.583-7.425-9.416-11.085 11.575-15.987 13.456 6.352 4.536-11.913 8.363-1.952-.947-13.496 14.063-4.678z" id="86749" data-name="Cârjiți" class="comuna"/>
    <path d="M248.192 395.493l16.164-3.113 15.56 17.234 14.713-1.076 10.229-7.27 19.499-8.878 13.224 1.517 3.175 16.63-16.513 16.466-14.063 4.678.947 13.496-8.363 1.952-4.536 11.913-13.457-6.352-11.574 15.987 9.416 11.085-14.37-.661-10.406 9.838 1.177 8.305-5.092 3.183-26.826-1.897-11.643-6.543-5.358-14.236-10.02-3.26-8.422-13.468 11.018-7.979 19.976-8.132 3.49-7.194 15.6-8.258 2.002-15.049-11.672-6.67-3.235-11.953 19.36-.295z" id="91982" data-name="Vețel" class="comuna"/>
    <path d="M111.985 381.318l4.389 13.929-1.683 14.067 4.329 11.74-20.035 15.608 7.607 14.365-4.517 15.713 2.202 16.207 21.481 7.14-4.505 11.577-22.3 14.284-12.233-9.017-2.48-30.195-24.622-26.944-16.163.582-5.178-5.778-.406-7.958-11.113-15.334-9.343 1.535-.445-1.377 27.943-19.377 6.26-22.048 25.629 3.246 10.934-3.89 24.249 1.925z" id="89954" data-name="Lăpugiu de Jos" class="comuna"/>
    <path d="M244.625 324.991l10.93 7.867.837 17.131-8.21 13.17 9.156 25.057-9.146 7.277-19.36.295 3.235 11.953 11.672 6.67-2.002 15.05-15.6 8.257-3.49 7.194-5.106-13.736-12.943-9.13-15.048-5.187-1.006-15.832-7.634-10.318-1.874-12.618 11.31-8.228-.812-31.02-5.52-8.352 25.756 3.572 5.966-12.43 18.714-2.515 10.175 5.873z" id="89856" data-name="Ilia" class="comuna"/>
    <path d="M478.922 363.354l.066.169-8.9 15.07-16.409 16.018-37.42 4.298-2.002-16.632-10.964-4.263-1.919-8.223-15.932.666 1.069-9.46-16.106-1.647-7.394-8.008 2.056-10.093 11.82-7.833 13.601-15.64 29.85-8.59 16.673 3.68 15.14 28.554 24.138 15.678 2.633 6.256z" id="89240" data-name="Certeju de Sus" class="comuna"/>
    <path d="M138.12 310.716l-3.595 1.34 3.784 28.323-10.949-.903-7.547 36.69 3.857 3.397-11.685 1.755-24.25-1.924-10.933 3.89-25.628-3.247-.63-6.574 10.024-31.999 23.84-13.097 8.33-15.7 14.092 2.964 11.662-14 19.628 9.085z" id="89080" data-name="Burjuc" class="comuna"/>
    <path d="M272.79 283.063l11.6 23.808 13.145 2.202-1.129 12.898-8.208 19.524 9.76 27.26 6.9 32.513-10.23 7.27-14.711 1.076-15.561-17.234-16.164 3.113 9.146-7.277-9.155-25.057 8.209-13.17-.838-17.131-10.93-7.867-.791-34.734 9.485-13.64 19.472 6.446z" id="88546" data-name="Brănișca" class="comuna"/>
    <path d="M184.013 330.49l5.521 8.353.812 31.02-11.31 8.228-9.135.324-9.7 14.77-36.531-13.623-3.857-3.396 7.547-36.69 10.95.903-3.785-28.322 3.595-1.341 17.507-31.022-1.197-14.245 7.257-17.008 5.378.845 9.337 16.491 11.228 3.605.783 37.06 2.4 10.94-6.8 13.109z" id="89687" data-name="Gurasada" class="comuna"/>
    <path d="M411.973 260.23l2.035 33.439 6.33 15.518-29.85 8.59-13.6 15.64-11.821 7.832-2.056 10.093-15.39 7.146-16.697.922-8.622-22.094 6.173-11.819-7.22-27.563 4.134-11.452-5.033-8.464 10.53-24.454 1.953-1.34 5.832 6.579 9.758-10.015 19.278-1.892 15.543-.35 28.723 13.684z" id="88092" data-name="Băița" class="comuna"/>
    <path d="M206.479 215.737l24.934 6.446 13.811 10.377-1.772 12.058 10.39 19.626-.524 12.372-9.485 13.641.792 34.734-10.175-5.873-18.714 2.515-5.966 12.43-25.757-3.572 6.8-13.109-2.4-10.94-.783-37.06-11.228-3.605-9.337-16.49-5.378-.846 1.55-9.411 7.512-10.981 17.035-4.545 3.32-12.439 15.375 4.672z" id="92097" data-name="Vorța" class="comuna"/>
    <path d="M163.237 239.03l-1.55 9.411-7.257 17.008 1.197 14.245-17.507 31.022-19.629-9.086-11.66 14.001-14.093-2.965-8.33 15.701-23.84 13.097-10.024 31.999-8.522-5.211-14.678-17.407L9.97 340.722l-8.295-5.857L1 320.14l5.583-3.214 24.59 3.089 32.87-17.906-3.895-17.246 4.906-12.633-3.482-27.432-6.84-2.193-7.577-13.158 26.331-18.268 11.688-23.607 2.948 21.991-1.301 14.83 15.465 7.449 20.4.857 6.926-5.86 15.635-2.282 17.99 14.473z" id="92177" data-name="Zam" class="comuna"/>
    <path d="M430.208 206.725l1.78 32.867-1.788 19.314-18.227 1.324-28.723-13.684-15.543.35-1.481-10.762-9.884-10.743-1.398-26.326 6.363-6.792 2.493-16.528 8.142-5.28 13.49.529 20.394 23.646 13.959 3.922 10.423 8.163z" id="88868" data-name="Bucureșci" class="comuna"/>
    <path d="M463.458 199.51l-12.74 8.422-20.51-1.207-10.423-8.163-13.959-3.922-20.394-23.646-13.49-.528-8.142 5.28-19.208-15.15 2.345-21.91-11.575-10.684 5.434-11.223 6.367-.575 22.934 28.33 12.163.722 3.883-14.615 16.483-12.921 2.515-14.782 9.433 9.634 4.017 15.305 19.04 2.86 17.203 6.579 7.184-5.066 11.918 6.025-.193 8.14 16.278 15.44-3.556 14.956 8.502 14.865-3.678 10.07-8.42-5.92-19.411 3.684z" id="88788" data-name="Buceș" class="comuna"/>
    <path d="M184.078 117.957l4.524 6.96 6.444 29.021 10.232-.155-1.258 18.986 4.073 12.964-1.614 30.004-15.375-4.672-3.32 12.439-17.035 4.545-7.512 10.98-17.99-14.472-15.635 2.282-6.926 5.86-20.4-.857-15.465-7.449 1.301-14.83-2.948-21.99 2.9-5.57-8.298-13.941-1.194-14.04-.799-13.324-7.085-14.19 15.295-13.65 22.773-17.703 6.047 14.555 27.607 2.96 22.669-6.669 5.786 11.061 13.203.895z" id="91795" data-name="Vața de Jos" class="comuna"/>
    <path d="M250.438 50.06l.812 8.164 9.921 9.314.12 21.9 10.978 15.353-4.817 12.688-6.267 8.591-2.69 21.097 10.131 14.603 2.272 12.658-9.368 13.284-2.054 11.235-15.138 8.318-12.925 14.918-24.934-6.446 1.614-30.004-4.073-12.964 1.258-18.986-1.001-5.174 34.41-17.645-2.88-18.367 7.306-11.42L246 80.664l-3.8-14.034 8.238-16.57z" id="87745" data-name="Baia de Criș" class="comuna"/>
    <path d="M405.141 102.938l-2.515 14.782-16.483 12.92-3.883 14.616-12.163-.722-22.934-28.33-6.367.575 3.135-23.384-3.883-17.998-1.189-24.667-7.025-2.953 8.311-15.633 17.145 17.794 9.953 1.47 3.122-21.316-2.32-8.91 17.234 1.814 6.15 5.58 4.35 24.366 13.389 14.97-11.409 13.818 7.382 21.208z" id="88350" data-name="Blăjeni" class="comuna"/>
    <path d="M250.438 50.06L242.2 66.63l3.8 14.034-2.887 20.513-7.305 11.42 2.88 18.367-34.411 17.645 1.001 5.174-10.232.155-6.444-29.02-4.524-6.96 10.222-8.14 12.244 1.737 8.624-18.304-3.785-8.016 11.372-23.923 7.36-23.366-3.584-8.149L259.99 14.73l-3.077 19.605-6.474 15.725z" id="91447" data-name="Tomești" class="comuna"/>
    <path d="M368.045 21.181l2.32 8.911-3.122 21.316-9.953-1.47-17.145-17.794-8.311 15.633 7.025 2.953 1.189 24.667-6.15 8.509-39.619 10.772-11.344 12.092-6.841 18.01-8.642-7.301 4.817-12.688-10.979-15.353-.119-21.9-9.92-9.314-.813-8.164 6.474-15.725 3.077-19.605L273.24 1l16 1.207 15.936 11.069 3.11 8.398 29.956.998 12.173-7.3 17.631 5.81z" id="88920" data-name="Bulzeștii de Sus" class="comuna"/>
    <path d="M529.776 300.84l-3.025 30.107-9.87-.037 6.652 15.712-.822 8.934-25.204-2.352-5.512 10.17-13.073-.02-2.633-6.256-24.137-15.678-15.141-28.554-16.672-3.68-6.33-15.517-2.036-33.44 18.227-1.323 1.788-19.314-1.78-32.867 20.51 1.207 12.74-8.422 7.6 16.98-2.257 11.238 15.541 9.41-5.77 17.087 2.967 12.742 10.387 5.73.355 9.06 9.544 9.04 27.951 10.043z" id="87843" data-name="Balșa" class="comuna"/>
    <path d="M362.978 764.524l-12.207 31.452.493 6.89-14.258 10.642-2.76 13.008-.36 29.5-4.509 10.797-14.39 15.665-.147 14.43 5.523 10.397 29.592-3.299 12.208 18.566-23.968 28.313-7.825 13.062.573 8.158-24.75 13.396-3.915-1.752-14.378 8.837-22.51 8.323-2.87-5.91-20.064 3.056-6.43 10.516-17.189-5.412-14.426.332 2.121-15.17-7.225-7.56 12.918-18.343-2.823-22.575-15.021-23.187 1.306-8.562-7.455-9.24 7.902-10.171 14.596-7.681 14.316-23.184 10.563-9.666 6.248-16.754 11.215-11.092 8.086 1.265 6.21-20.353 14.693-8 2.987-16.987 12.41-22.653 10.04-6.953 19.161 5.144 18.76-17.8 1.516 19.33 16.043 11.225z" id="90878" data-name="Râu de Mori" class="comuna"/>
    <path d="M344.592 160.596l19.208 15.15-2.493 16.527-6.363 6.792 1.398 26.326 9.884 10.743 1.48 10.762-19.277 1.892-9.758 10.015-5.832-6.58-.43-8.685-9.99-10.979 1.58-13.741 10.904-12.203-5.958-24.065 6.505-22.897 9.142.943z" id="87362" data-name="Crișcior" class="comuna"/>
    <path d="M179.036 378.09l1.874 12.619 7.634 10.318 1.006 15.832 15.048 5.187 12.942 9.13 5.107 13.736-19.976 8.132-11.018 7.979-12.456-3.46-14.75 5.048-9.165 9.468-10.41.365-19.114 17.642-21.48-7.14-2.203-16.206 4.517-15.713-7.607-14.365 20.035-15.608-4.33-11.74 1.684-14.067-4.39-13.93 11.686-1.755 36.53 13.623 9.701-14.77 9.135-.325z" id="89428" data-name="Dobra" class="comuna"/>
    <path d="M347.347 477.384l11.91 1.406 1.26 15.432-10.236 9.876 10.74 13.13-5.28 8.855-16.186 2.437-16.746-3.602-13.217 6.184-10.287-10.987-18.443 2.876-4.041-4.87-10.788-7.544-7.019-13.332-1.177-8.306 10.406-9.838 14.37.661 3.583 7.425 17.882 7.339 33.395 1.406 1.423-11.53 8.451-7.018z" id="90431" data-name="Pestișu Mic" class="comuna"/>
    <path d="M402.582 509.635l1.14 4.907-15.87 12.21 1.51 17.324-6.063 29.642-18.479 19.601-11.048-19.204-21.954 9.139-9.387-5.906-7.138-9.594-33.142-12.708-14.691-14.482 9.36-22.442 4.042 4.869 18.443-2.876 10.287 10.987 13.217-6.184 16.746 3.602 16.186-2.437 5.28-8.855-10.74-13.13 10.235-9.876 9.713-4.265 15.233 2.24 8.593 17.063 8.527.375z" id="86810" data-name="Hunedoara" class="municipiu"/>
    <path d="M340.796 116.779l-5.434 11.223-19.246 17.025.129 16.288-11.796 19.325-33.55-6.212-2.273-12.658-10.131-14.603 2.69-21.097 6.267-8.591 8.642 7.3 6.841-18.01 11.344-12.091 39.62-10.772 6.149-8.509 3.883 17.998-3.135 23.384z" id="90805" data-name="Ribița" class="comuna"/>
    <path d="M335.362 128.002l11.575 10.683-2.345 21.911-9.142-.943-6.505 22.897 5.959 24.065-10.906 12.203-1.579 13.741 9.99 10.979.43 8.685-1.953 1.34-11.78-1.21-17.582-7.776-5.235-9.004-18.704.063-23.196-15.651-10.05-12.72 15.137-8.318 2.054-11.235 9.368-13.284 33.551 6.212 11.796-19.325-.129-16.288 19.246-17.025z" id="87291" data-name="Brad" class="municipiu"/>
    <path d="M311.394 603.7l-7.12 18.279 1.93 30.776-.896 1.1-4.265 1.726-2.902-7.951-24.861-3.593-16.817 9.103-17.794-5.553-16.54 8.178-36.146-5.379 4.591-9.733 26.517-6.232 1.472-6.409 16.614-5.743.059-13.115 20.807 4.263 29.12-2.626 4.439 5.569 11.993-14.776 9.798 2.116z" id="91535" data-name="Toplița" class="comuna"/>
    <path d="M616.481 729.03l15.468 4.334 16.54 9.215-19.924 10.8-10.38-2.212-4.525 13.241-14 10.072-18.927 7.635-8.62 7.156-12.446 2.22-8.156 23.368-12.102 3.854-4.393 13.375 3.638 12.678-10.128 15.071 2.28 6.224-4.188 19.69-9.266 4.416-22.172-1.294-6.422 5.331-15.966-1.59 8.82-42.174 1.942-31.489-5.528-4.33 11.034-22.298 17.617-7.858 9.26 6.024 6.111-10.117 21.887-14.505 8.44-20.38 27.354 5.36 2.692-11.957 15.11-10.047 11.411 5.734 7.54-5.548z" id="87996" data-name="Baru" class="comuna"/>
    <path d="M482.844 583.207l.842 19.28 22.616 13.697-5.058 15.245 11.232 8.21 8.37 14.077 9.437-11.705 9.58 9.044 8.027 16.999 7.594 1.774 6.452 13.604-8.416 25.597-12.972-2.99-24.771 18.972-18.371-5.945-21.328 8.455-18.197-1.737-5.582-14.098 5.243-5.217 11.504-13.42-1.243-28.517 4.64-5.672.04-21.786-11.626-14.133-18.291-9.62-2.024-14.664 1.433-5.936 18.216-16.545 13.585 9.98 9.068-2.95z" id="88449" data-name="Boșorod" class="comuna"/>
    <path d="M593.56 519.183l10.85 15.188 12.762 3.31 5.56 13.901 9.223-1.124 8.896 9.06 4.572 17.849 9.61 5.912-5.018 8.752 13.7 21.5 8.258.673 14.812 9.671 2.188 12.849-13.272 10.02-9.738 1.52-9.774 11.512-5.293-7.426-14.67 4.693-18.657.71-5.64-16.244-7.486-7.391-11.609-.603-14.428-10.062-10.076 2.823-10.702-8.976 17.883-13.273-14.462-18.52-.247-11.68-32.963-17.956-15.218 2.22 15.407-38.11-2.805-16.397 9.248-6.935 10.196.424 9.868-12.547 6.798 3.554 23.131 25.954 9.097 5.149z" id="88261" data-name="Beriu" class="comuna"/>
    <path d="M370.219 420.644l5.134 10.329 14.887 2.69 9.44 19.913-6.695 9.472 1.173 10.787-6.298 10.91 11.561 5.087 5.307 12.96-2.146 6.843-8.527-.375-8.593-17.063-15.233-2.24-9.713 4.265-1.26-15.431-11.909-1.407-3.281-25.884-11.577-4.315.524-10.214-8.77-9.968 16.513-16.466 28.283 1.26 1.18 8.847z" id="86687" data-name="Deva" class="municipiu resedinta"/>
    <path d="M453.68 394.611l-1.37 12.375-20.11 34.959-11.796-5.391-9.176 6.004-10.598-11.723-10.39 2.828-14.887-2.69-5.134-10.329 13.306-12.448-2.258-29.57 4.175-8.169 15.932-.666 1.919 8.223 10.964 4.263 2.002 16.632 37.42-4.298z" id="89801" data-name="Hărău" class="comuna"/>
    <path d="M322.302 337.316l8.622 22.094 16.697-.922 15.39-7.146 7.394 8.009 16.106 1.647-1.069 9.459-4.175 8.17 2.258 29.569-13.306 12.448-1.18-8.848-28.283-1.259-3.175-16.63-13.224-1.517-19.5 8.878-6.899-32.513-9.76-27.26 8.209-19.524 14.663 15.816 11.232-.471z" id="91330" data-name="Șoimuș" class="comuna"/>
    <path d="M575.968 967.256l-21.578 6.969-11.674 20.135-17.147-7.584-7.916-56.46-8.922-22.046 8.62-18.103 9.267-4.416 4.188-19.69.414-.431 21.932-1.77-3.523 23.114 18.736 7.03.724 28.395-3.17 28.341 10.049 16.516z" id="87059" data-name="Lupeni" class="municipiu"/>
    <path d="M517.352 890.167l-8.62 18.103 8.921 22.047 7.916 56.46-15.537 4.312-15.901-1.005-25.064-10.197-19.015 23.425-5.84-1.367-31.545 11.341-7.273-6.472-13.813 5.271-6.94-15.948-8.14 10.476-6.34 19.418-13.156-3.091 10.256-9.92 4.864-18.985-7.035-5.069-23.775 3.158-21.349 11.728-3.864-13.674-13.824-6.429 3.914 1.752 24.75-13.396-.572-8.158 7.825-13.062 23.968-28.313 8.328 1.136 18.513-6.231 12.922.73 10.331-14.186 10.63 2.323 15.552-3.738 17.8 2.117 12.074-10.566 4.479-1.542 15.966 1.59 6.422-5.332 22.172 1.294z" id="87139" data-name="Uricani" class="oras"/>
    <path d="M358.485 692.37l-9.27 10.802-8.45-1.83-18.326 8.978-16.79-10.829 4.992-23.86-7.806-7.517-1.792-12.533 4.265-1.726 11.943 16.937 25.6-12.106 13.532 5.202 4.854 17.825-2.752 10.658z" id="91731" data-name="General Berthelot" class="comuna"/>
    <path d="M361.507 622.461l4.092 10.085 15.498-4.22 12.69 9.256 7.69 11.937 1.472 12.368 7.888 14.29-4.135 14.264-9.406 9.249-16.61 1.203-13.6 5.921-8.6-14.443 2.751-10.658-4.854-17.825-13.531-5.202-25.6 12.106-11.944-16.937.897-1.1 9.436.878 15.426-7.785 10.498-21.196 5.605 4.362 14.337-6.553z" id="87576" data-name="Hațeg" class="oras"/>
    <path d="M529.641 439.462l-26.938 20.627-12.174 18.06-28.339-12.678-12.608-2.438.564-23.596 4.871-14.2-2.707-18.252 1.37-12.374 16.408-16.018 8.9-15.07 15.287 18.203 13.33 1.233-.677 17.275 15.408 17.202 1.339 14.467 5.966 7.56z" id="90663" data-name="Rapoltu Mare" class="comuna"/>
    <path d="M322.431 577.348l9.666 15.728-20.703 10.624-9.8-2.116-11.992 14.776-4.439-5.57-29.12 2.627-20.807-4.264 2.599-17.194 23.177-8.668 7.574-13.123 11.653 2.84 1.912-17.962 33.142 12.708 7.138 9.594z" id="86883" data-name="Ghelari" class="comuna"/>
    <path d="M462.19 465.47l4.675 14.497-11.583 13.287-19.134-12.81-17.944 5.47-6.587 16.063-6.89.815-5.306-12.96-11.561-5.088 6.298-10.909-1.173-10.787 6.696-9.472-9.44-19.913 10.39-2.828 10.597 11.723 9.176-6.004 11.797 5.39 20.11-34.959 2.706 18.252-4.871 14.2-.564 23.596 12.608 2.438z" id="87665" data-name="Simeria" class="oras"/>
    <path d="M455.282 493.254l4.127.865-4.56 20.205 5.375 15.27-7.17 6.635-5.838-6.126-15.916-3.122-6.334-7.547-21.243-4.892-1.14-4.907 2.144-6.843 6.89-.815 6.587-16.064 17.944-5.47 19.134 12.81z" id="88047" data-name="Băcia" class="comuna"/>
    <path d="M419.714 736.32l-8.044 7.072 14.467 31.839 3.058 38.977-6.263 22.75-3.123 21.93-14.634 2.372 1.872 11.647 18.4 2.298 19.85-5.682 5.352 7.02-3.677 13.79 11.93 6.486 9.41-2.662-12.073 10.566-17.8-2.117-15.552 3.738-10.63-2.323-10.331 14.186-12.922-.73-18.513 6.231-8.328-1.136-12.208-18.566-29.592 3.299-5.523-10.396.146-14.431 14.391-15.665 4.509-10.798.36-29.499 2.76-13.008 14.258-10.642-.493-6.89 12.207-31.452 18.386-20.566 7.961-18.446 15.842 12.942 14.547-2.134z" id="91116" data-name="Sălașu de Sus" class="comuna"/>
    <path d="M616.481 729.03l-7.539 5.547-11.412-5.734-15.109 10.047-2.692 11.957-27.354-5.36-8.44 20.38-21.887 14.505-6.11 10.117-9.261-6.024-17.617 7.858-11.034 22.298 5.528 4.33-1.942 31.489-8.82 42.175-4.48 1.542-9.41 2.662-11.93-6.486 3.677-13.79-5.351-7.02-19.852 5.682-18.399-2.298-1.872-11.647 14.634-2.373 3.123-21.928 6.263-22.751-3.058-38.977-14.467-31.839 8.044-7.072 30.462-3.587 7.705-6.949 18.197 1.737 21.328-8.455 18.37 5.945 24.772-18.972 12.972 2.99 12.042 2.788 15.32-5.34 14.879.426 20.72 22.126z" id="90538" data-name="Pui" class="comuna"/>
    <path d="M758.789 941.099l-18.021-37.212-18.83-14.786-35.646.337-8.586-9.98-4.141-21.114-24.638-8.454 3.2-29.197 14.536-5.078-1.412-35.482-7.554-4.458 13.396-26.842 6.2-1.611 14.576-18.497 7.602-16.304 15.686 5.91 22.632 2.923 1.635 14.485 12.641 12.276 8.59.525 10.948 17.644 11.46 9.602 15.507 43.54-1.14 17.373-13.326 27.412 10.022 2.79-.657 18.87L799 907.992l-9.853 6.813 3.194 14.985-15.344 2.564-10.407 9.824-7.801-1.08z" id="87077" data-name="Petrila" class="oras"/>
    <path d="M699.47 712.421l-7.601 16.304-14.576 18.497-6.2 1.611-13.396 26.842 7.554 4.458 1.412 35.482-14.536 5.078-3.2 29.197 24.638 8.454 4.141 21.114 8.586 9.98 35.646-.337 18.83 14.786 18.02 37.212-6.539 10.206-10.593 1.441-21.583 13.283-5.148 8.438-12.997 3.822-20.87-8.405-12.574-8.286 1.523-17.35-15.866-3.642 2.448-15.951-9.506-11.84-.698-10.186-14.849-8.425-6.232-18.847-9.51-15.948-22.077 6.443-14.03-11.04 31.904-5.207 3.324-13.053 10.528-14.392 2.499-12.887-11.86-15.621 5.986-8.95-11.35-7.68 2.942-12.614 4.525-13.241 10.38 2.213 19.923-10.801 5.75 2.555 11.45-13.41 7.997.84 17.673-17.273 8.113-2.87z" id="86990" data-name="Petroșani" class="municipiu"/>
    <path d="M616.907 429.765l-10.307-6.71-18.776 8.842-14.792 13.202-16.436-13.128-8.583-1.056-9.265 9.014-9.107-.467-5.966-7.56-1.339-14.466-15.408-17.202.676-17.275-13.329-1.233-15.287-18.203-.066-.169 13.073.02 5.512-10.17 25.204 2.352.822-8.934-6.652-15.712 9.87.037 3.025-30.107 13.567 4.819 13.313-7.827 11.948 3.074 7.279-6.446 4.425 1.534-4.52 7.285 3.111 19.997-4.824 20.448 11.656 15.971-.97 6.954 11.18 30.258 18.207 10.341 15.842-2.455 6.754 11.56-12.33 3.675-7.507 9.737z" id="89561" data-name="Geoagiu" class="oras"/>
    <path d="M616.907 429.765l9.07 4.303 9.316 17.01-6.403 30.127 8.255 16.728 6.227 29.659 5.616 10.793 11.853 4.64 3.34 11.355-9.149 28.899-9.609-5.912-4.572-17.85-8.896-9.06-9.223 1.125-5.56-13.9-12.761-3.311-10.85-15.188-1.603-16.564-11.242-7.788-4.815-11.179-2.869-38.553 14.792-13.202 18.776-8.842 10.307 6.71z" id="90994" data-name="Romos" class="comuna"/>
    <path d="M259.014 497.245l7.019 13.332 10.788 7.545-9.361 22.442-7.431-2.588-11.518 9.562-16.794-1.596-14.001-5.27-17.28 3.403-14.19-2.465-15.303-10.111-9.356 33.378-13.27.576-13.643 20.65-21.98 12.387-17.182-.325-16.816 4.413-5.228-.388 3-8.607-1.974-20.423 2.952-8.107 15.777-9.692 8.403-.84 22.706-21.841 15.565-5.734 18.217-1.704 17.422-11.261 14.64-16.774 9.9-22.717 10.02 3.261 5.357 14.236 11.643 6.543 26.826 1.897 5.092-3.183z" id="89151" data-name="Cerbăl" class="comuna"/>
    <path d="M267.46 540.564l14.69 14.482-1.91 17.961-11.654-2.839-7.574 13.123-23.178 8.668-17.298-17.45-11.242 10.16-19.307-12.075-5.96 9.844-10.82 1.52-12.871 10.992-25.662-8.848 13.642-20.65 13.27-.575 9.357-33.378 15.302 10.111 14.19 2.465 17.28-3.403 14.002 5.27 16.793 1.596 11.519-9.562 7.43 2.588z" id="90066" data-name="Lelese" class="comuna"/>
    <path d="M330.886 253.564l-10.53 24.455 5.033 8.463-4.134 11.452 7.22 27.563-6.173 11.819-11.232.47-14.663-15.815 1.128-12.898-13.145-2.202-11.6-23.808 22.603 1.963 16.487-12.661 7.227-20.011 11.779 1.21z" id="91937" data-name="Vălișoara" class="comuna"/>
    <path d="M319.107 252.354l-7.227 20.01-16.487 12.662-22.602-1.963-19.473-6.447.524-12.372-10.39-19.626 1.772-12.058-13.811-10.377 12.925-14.918 10.05 12.72 23.197 15.651 18.704-.063 5.235 9.004 17.583 7.777z" id="90208" data-name="Luncoiu de Jos" class="comuna"/>
    <path d="M538.748 439.929l2.791 27.835-23.022 13.12-1.717 11.73-5.615-4.025-16.217 4.452-10.258-4.855-25.301 5.933-4.127-.865 11.583-13.287-4.675-14.496 28.34 12.678 12.173-18.06 26.938-20.627 9.107.467z" id="91688" data-name="Turdaș" class="comuna"/>
    <path d="M573.032 445.1l2.869 38.552 4.815 11.179 11.242 7.788 1.603 16.563-9.097-5.148-23.13-25.954-6.8-3.554-9.867 12.547-10.197-.423-9.247 6.934-8.423-10.97 1.717-11.73 23.022-13.12-2.791-27.835 9.265-9.014 8.583 1.056 16.436 13.128z" id="87638" data-name="Orăștie" class="municipiu"/>
  </g>
</svg>
