<svg xmlns="http://www.w3.org/2000/svg" version="1.2" baseProfile="tiny" stroke-linecap="round" stroke-linejoin="round" viewBox="0 0 800 1356">
  <g id="OT" fill="none" stroke="#aaa">
    <path d="M609.847 1286.185l11.733 4.686-6.658 21.05-27.314-20.969-42.537-14.068 8.195-13.681-5.26-20.336 65.529-15.915 2.99 11.786-10.913 8.517 12.801 11.736-12.508 15.174 3.942 12.02z" id="125588" data-name="Gîrcov" class="comuna"/>
    <path d="M395.717 1218.016l-.818 14.582 10.746 2.433 1.441 35.802 8.584-1.676-3.157 28.208-18.77 17.718-1.097 7.649-32.598 17-4.773-10.505.62-20.142 13.354.16.106-14.587-11.697-9.677 6.41-72.092 31.649 5.128z" id="127938" data-name="Orlea" class="comuna"/>
    <path d="M309.202 1212.017l-15.489 43.754-27.747 9.244-8.34 20.322-2.184 21.316-7.443-.518-5.537 47.35-18.1 1.245-48.72-19.363 14.325-83.397 7.095-.752 14.446-42.41 16.602 5.833 12.786-1.904-1.977 5.448 38.675 13.636 7.638-21.723 23.97 1.92z" id="127251" data-name="Ianca" class="comuna"/>
    <path d="M364.067 1212.89l-6.41 72.09 11.698 9.678-.106 14.587-13.355-.16-.619 20.142 4.773 10.506-18.988-3.938-46.7 8.356 2.883-15.977-2.222-45.665 28.399 3.296 2.134-13.599 22.552-64.99 15.961 5.673z" id="130339" data-name="Gura Padinii" class="comuna"/>
    <path d="M348.106 1207.215l-22.552 64.992-2.134 13.598-28.399-3.296 2.222 45.665-2.883 15.977-51.898 9.333 5.537-47.349 7.443.518 2.185-21.316 8.339-20.322 27.747-9.245 15.489-43.753 5.75-16.438 33.154 11.636z" id="127224" data-name="Grojdibodu" class="comuna"/>
    <path d="M265.866 1178.207l27.177 9.532 3.734-10.954 11.063 3.837 7.112 14.957-5.75 16.438-23.97-1.92-7.638 21.724-38.675-13.636 1.977-5.448.31-18.45 7.728-21.842 16.932 5.762z" id="129282" data-name="Ștefan cel Mare" class="comuna"/>
    <path d="M652.143 1170.224l16.793 17.188-7.776 7.83 1.171 4.282 22.63 3.197-37.616 9.982-33.81 14.249-65.53 15.915-9.855-33.413 8.22-5.828 51.17-14.715 44.442-20.72 10.16 2.033z" id="127368" data-name="Izbiceni" class="comuna"/>
    <path d="M530.992 1184.682l7.158 24.772 9.856 33.413 5.26 20.336-8.195 13.681-46.358-8.78-11.795 1.127-24.896 13.561-49.51 14.573 3.158-28.208-8.584 1.676-1.44-35.802-10.747-2.433.818-14.582.524-12.508 34.181 1.33 29.519-4.172-9.2-22.74 50.986-13.566 6.654 24.38 22.61-6.058z" id="125542" data-name="Corabia" class="oras"/>
    <path d="M265.866 1178.207l3.969-10.879 26.942 9.457-3.734 10.954-27.177-9.532zm98.161-26.968l33.69 21.567-1.476 32.702-.524 12.508-31.65-5.127-15.961-5.674-33.154-11.636-7.112-14.957 14.966-7.217 11.047 3.913 9.718-27.639 20.456 1.56z" id="129745" data-name="Vădăstrița" class="comuna"/>
    <path d="M343.57 1149.68l-9.717 27.638-11.048-3.913-14.965 7.217-11.063-3.837-26.942-9.457-3.969 10.879-16.932-5.762-1.95-12.921 22.305 7.56 2.392-23.969 3.954-11.017 27.59 9.673 9.354-9.376 30.992 17.284z" id="129629" data-name="Urzica" class="comuna"/>
    <path d="M431.342 1184.222l-.92 22.615-34.18-1.33 1.476-32.7-33.691-21.568 10.849-20.27 33.609 21.842 1.688 20.85 21.17 10.561z" id="129718" data-name="Vădastra" class="comuna"/>
    <path d="M631.297 1124.515l-11.312 10.123 4.673 18.258 20.293-4.433 7.192 21.76-10.16-2.031-44.443 20.72-51.17 14.714-8.22 5.828-7.158-24.772-5.511-18.658 36.16-16.968-1.889-6.212 56.382-25.481 15.163 7.152z" id="129460" data-name="Tia Mare" class="comuna"/>
    <path d="M485.434 1119.312l13.462 5.677-4.654 24.926 7.485 16.445-50.986 13.565 9.2 22.741-29.519 4.171.92-22.615 3.884-18.008.132-28.978 24.886 3.719 5.015-22.813 20.175 1.17z" id="129898" data-name="Vișina" class="comuna"/>
    <path d="M435.358 1137.236l-.132 28.978-3.884 18.008-21.17-10.56-1.687-20.851-33.61-21.843-7.123-16.111 5.551-7.985 43.835 27.92 18.22 2.444z" id="130375" data-name="Vișina Nouă" class="comuna"/>
    <path d="M631.297 1124.515l-15.163-7.152-56.382 25.481 1.888 6.212-36.16 16.968 5.512 18.658-22.611 6.059-6.654-24.381-7.484-16.445 4.653-24.926 54.733-24.58 41.28-12.674 5.579-1.4 15.061 29.039 15.016 2.65.732 6.49z" id="126148" data-name="Cilieni" class="comuna"/>
    <path d="M342.474 1090.458l2.008 9.686 23.27 14.713 7.123 16.111-10.848 20.27-20.456-1.559-30.992-17.284-9.353 9.376-27.59-9.673-6.084-2.209 16.013-44.212 28.42 10.978 20.258 1.632 8.231-7.829z" id="127750" data-name="Obîrșia" class="comuna"/>
    <path d="M461.987 1067.237l23.77 4.937-.323 47.138-20.175-1.17-5.015 22.813-24.886-3.72-18.22-2.443-43.835-27.92-5.55 7.985-23.271-14.713-2.008-9.686 3.764-16.515 23.732 6.417 3.374-14.21 41.442 13.1 14.46-9.5 29.861 7.528 2.88-10.041z" id="125962" data-name="Brastavățu" class="comuna"/>
    <path d="M594.908 1087.735l-41.28 12.675-54.732 24.579-13.462-5.677.323-47.138 7.813-16.757 78.462-8.876 24.043.656 1.608 19.047 11.166 4.185-16.628 5.386 2.687 11.92z" id="128588" data-name="Rusănești" class="comuna"/>
    <path d="M349.482 1061.953l-3.244 11.99-3.764 16.515-8.23 7.83-20.26-1.633-28.419-10.978-3.398-13.056-14.744-5.091 7.544-22.314 15.008 4.806 4.248-10.164.88 6.051 54.38 16.044z" id="126077" data-name="Bucinișu" class="comuna"/>
    <path d="M396.814 1023.767l1.907 14.833-16.585-3.711-3.54 12.74 83.39 19.608-2.879 10.041-29.861-7.527-14.46 9.499-41.442-13.1-3.374 14.21-23.732-6.417 3.244-11.99 11.96-17.591 8.736-27.78 26.636 7.185z" id="130320" data-name="Grădinile" class="comuna"/>
    <path d="M474 1030.688l-3.692 12.98 23.066 4.136.196 7.613-7.813 16.757-23.77-4.937-83.39-19.608 3.539-12.74 16.585 3.71-1.907-14.832 9.786-4.48 19.292 4.235 4.17-12.706 34.633 11.269 9.304 8.603z" id="129184" data-name="Studina" class="comuna"/>
    <path d="M363.96 1002.055l6.218 14.527-8.735 27.78-11.96 17.59-54.38-16.043-.88-6.051.878-9.611 5.424-25.782 17.278 6.316-.821-13.794 15.678-1.025 31.3 6.093z" id="128560" data-name="Rotunda" class="comuna"/>
    <path d="M572.032 1046.54l-78.462 8.877-.196-7.613-23.066-4.136 3.691-12.98 11.618-7.837 6.549-17.572 28.943 8.685 6.798-13.68 23.78-8.963 17.802 5.08 12.26-5.825-5.645 30.525-4.072 25.44z" id="128613" data-name="Scărișoara" class="comuna"/>
    <path d="M419.36 979.18l10.703 31.636-4.17 12.706-19.293-4.235-9.786 4.48-26.636-7.185-6.219-14.527 5.532-25.05 7.954 1.529 23.485 4.339 18.43-3.692z" id="130026" data-name="Vlădila" class="comuna"/>
    <path d="M471.874 977.333l-4.426 20.346 24.718 7.6-6.549 17.572-11.618 7.837-9.304-8.604-34.632-11.268-10.703-31.635-2.364-6.87 48.95-6.516 5.928 11.538z" id="129567" data-name="Traian" class="comuna"/>
    <path d="M545.745 947.831l21.452 27.345 2.292 21.224-17.801-5.079-23.78 8.963-6.799 13.68-28.943-8.685-24.718-7.6 4.426-20.346 37.228-12.78 26.673-15.48 9.97-1.242z" id="125659" data-name="Băbiciu" class="comuna"/>
    <path d="M430.687 913.527l8.252 1.72 13.128 15.522 13.878 35.026-48.95 6.516 2.365 6.87-18.43 3.692-23.485-4.34 4.032-22.401-11.142-27.69-33.425-6.352 7.482-8.999 19.396 3.327 2.488-9.115 37.748-2.237 26.663 8.461z" id="126647" data-name="Deveselu" class="comuna"/>
    <path d="M661.07 955.069l5.957 7.399-48.631 10.665-36.647 17.443-12.26 5.824-2.292-21.224-21.452-27.345-5.123-15.07 16.84-14.345-2.62-7.147 15.945-7.57 9.041 9.95 10.02-12.23 14.39 10.153 14.695-6.197 13.965 32.215 28.171 17.479z" id="129040" data-name="Sprîncenata" class="comuna"/>
    <path d="M554.842 911.269l2.62 7.147-16.84 14.344 5.123 15.071-9.97 1.242-26.673 15.48-37.228 12.78-5.929-11.538-13.878-35.026 39.798-19.944-6.786-10.148 22.897-6.122 21.576 21.797 25.29-5.083z" id="127144" data-name="Gostavățu" class="comuna"/>
    <path d="M306.727 881.916l-3.453 32.783 41.118-1.608-7.483 9 33.426 6.35 11.142 27.69-4.032 22.403-7.954-1.529-5.532 25.05-31.3-6.093-15.677 1.025.821 13.794-17.278-6.316-71.796-12.625 8.702-44.416-2.373-21.827 33.18-.416 4.173-44.595 34.316 1.33z" id="128524" data-name="Redea" class="comuna"/>
    <path d="M502.606 865.828l9.046 14.119-3.676 14.608-22.897 6.122 6.786 10.148-39.798 19.944-13.128-15.522-8.252-1.72 5.391-24.667 15.903 4.072-.086-21.634 34.127-18.905 16.584 13.435z" id="129095" data-name="Stoenești" class="comuna"/>
    <path d="M703.478 922.096l-6.619-30.845-17.205-31.557 21.987-6.779 36.202-21.588 24.773 22.227 11.556 29.055 1.506 20.324-44.02 8.379 2.053 6.432-30.233 4.352z" id="127536" data-name="Mihăești" class="comuna"/>
    <path d="M326.57 829.03l24.99 25.338 27.57 5.144 11.696-11.995 8.374 4.43 36.395 19.913.483 17-5.39 24.667-26.664-8.46-37.748 2.236-2.488 9.115-19.396-3.327-41.118 1.608 3.453-32.783 15.105-1.521 10.27-30.202-23.408-4.226 1.85-12.137 16.026-4.8z" id="125472" data-name="Caracal" class="municipiu"/>
    <path d="M602.076 823.729l2.858 8.736-21.46 6.127-11.81 17.716 14.098 19.823 17.142 14.072-13.057 11.217-10.019 12.23-9.04-9.952-15.946 7.57-25.29 5.084-21.576-21.797 3.676-14.608-9.046-14.119 14.129-8.16 17.897 9.823-6.635-24.927 27.387-22.472 12.765 3.28 25.827-3.43 8.1 3.787z" id="126585" data-name="Dăneasa" class="comuna"/>
    <path d="M310.544 833.83l-1.85 12.137 23.409 4.226-10.271 30.202-15.105 1.521-34.315-1.33-9.427-14.01 11.667-52.838 13.519 11.828 22.373 8.264z" id="125490" data-name="Drăghiceni" class="comuna"/>
    <path d="M679.654 859.694l17.205 31.557 6.619 30.845-4.005 6.328-30.637 8.164-9.168 2.447 1.401 16.034-28.171-17.48-13.965-32.214-14.696 6.197-14.39-10.152 13.057-11.217-17.142-14.072-14.098-19.823 11.81-17.716 21.46-6.127-2.858-8.736 41.36-10.715 11.551 21.383 7.647-3.047 17.02 28.344z" id="128472" data-name="Radomirești" class="comuna"/>
    <path d="M726.328 792.317l7.601 16.216 3.914 22.794-36.202 21.588-21.986 6.779-17.021-28.344-7.647 3.047-11.55-21.383 18.81-9.807-6.356-10.696 14.551-3.321 24.423 17.47 31.463-14.343z" id="128864" data-name="Seaca" class="comuna"/>
    <path d="M440.122 792.864l-37.892 38.651 11.617 5.275-14.647 15.157-8.374-4.43-11.697 11.995-27.57-5.144-24.989-25.339 12.346-8.376 4.975-33.97 7.036-10.213 20.625 5.485 6.386-8.326 12.966 13.966 19.717-6.189 29.5 11.458z" id="126718" data-name="Dobrosloveni" class="comuna"/>
    <path d="M340.784 783.305l3.107 3.378-4.975 33.97-12.346 8.376-16.026 4.801-22.373-8.264-13.52-11.828-8.373-1.723-1.834-10.227 10.526-36.99 65.814 18.507z" id="126102" data-name="Cezieni" class="comuna"/>
    <path d="M568.15 823.373l-12.766-3.28-27.387 22.471 6.635 24.927-17.897-9.822-14.129 8.16-16.584-13.436-12.731-4.724 4.938-24.285-13.536-31.283 26.014-23.788 27.847-7.538 15.809.437 28.753-7.401 20.671 23.012-17.178 9.524-2.804 15.909 4.344 21.117z" id="125622" data-name="Drăgănești-Olt" class="oras"/>
    <path d="M346.87 764.548l-6.086 18.757-65.814-18.507.356-1.373 18.128-3.507 8.412-32.71 12.675-8.195 12.033 7.051 1.749 11.414 15.861 5.565 2.686 21.505z" id="130357" data-name="Osica de Jos" class="comuna"/>
    <path d="M443.862 785.659l-3.74 7.205-29.501-11.458-19.717 6.189-12.966-13.966-6.385 8.326-20.626-5.486-7.036 10.214-3.107-3.378 6.086-18.757 9.258-20.67 13.468-4.18-3.67-12.811 42.845-7.087 5.599-4.413 8.627 6.043 13.901 23.686.551 28.866 6.413 11.677z" id="126978" data-name="Fălcoiu" class="comuna"/>
    <path d="M726.328 792.317l-31.462 14.343-24.424-17.47-14.551 3.321-8.197-31.536 21.704-14.383 40.335-20.774 4.37-14.198 17.16-2.419 20.128-15.652 3.597 8.894-3.819 31.173 8.327 18.549-7.124 10.974-26.044 29.178z" id="129763" data-name="Văleni" class="comuna"/>
    <path d="M558.8 748.775l-31.206 8.46-16.465-4.064-6.264-9.013-22.055-4.857 5.756-35.892 7.426-11.718 11.202 12.038 38.756-1.744 35.465-11.96 7.423 21.614-15.245 7.041 6.32 14.791-21.113 15.304z" id="127386" data-name="Izvoarele" class="comuna"/>
    <path d="M483.15 677.746l12.842 13.945-7.426 11.718-5.756 35.892 22.055 4.857 6.264 9.013 16.465 4.063 31.206-8.46 4.316 5.037-28.753 7.401-15.809-.437-27.847 7.538-26.014 23.788-13.846 7.716-6.985-14.158-6.413-11.677-.55-28.866-13.902-23.686-8.627-6.043 3.3-8.175 21.936-11.284 36.39-6.134 7.154-12.048z" id="127493" data-name="Mărunței" class="comuna"/>
    <path d="M615.5 689.374l29.08 30.435 24.818 26.783-21.704 14.383 8.197 31.536 6.357 10.696-18.811 9.807-41.361 10.715-8.1-3.787-25.827 3.43-4.344-21.116 2.804-15.909 17.178-9.524-20.67-23.012-4.317-5.036 21.112-15.304-6.32-14.79 15.246-7.042-7.423-21.615 30.687-13.605 3.398 12.955z" id="129111" data-name="Stoicănești" class="comuna"/>
    <path d="M714.104 711.62l-4.371 14.198-40.335 20.774-24.817-26.783 39.23-28.72 11.532-11.646 16.287-4.514-8.534 29.424 11.008 7.267z" id="127714" data-name="Nicolae Titulescu" class="comuna"/>
    <path d="M396.236 665.531l1.412 21.455 5.435 13.455 11.802 9.209-6.114 10.15-42.845 7.087 3.67 12.81-13.468 4.182-9.258 20.668-2.686-21.504-15.861-5.565-1.75-11.414-12.032-7.05-.759-3.446 25.927-18.749-4.793-12.786 24.461-.773 7.82-17.404 29.04-.325z" id="127983" data-name="Osica de Sus" class="comuna"/>
    <path d="M751.39 693.55L731.264 709.2l-17.16 2.419-11.007-7.267 8.534-29.424 4.12-23.311 19.313 2.59 26.968-8.326 5.047 9.845-15.995 17.6.308 20.222z" id="130311" data-name="Ghimpețeni" class="comuna"/>
    <path d="M334.916 684.033l4.793 12.786-25.927 18.749-21.377-7.847.72-17.293 6.69-3.956-16.589-39.664 15.245-6.537 16.057 40.14 17.217-7.066 3.17 10.688z" id="130384" data-name="Șopârlița" class="comuna"/>
    <path d="M715.75 651.618l-4.12 23.311-16.287 4.514-11.532 11.646-39.23 28.72-29.08-30.435 33.402-24.13 30.274-25.249 19.99-3.288 3.04 14.632 13.544.279z" id="126406" data-name="Crîmpoia" class="comuna"/>
    <path d="M506.183 662.518l-7.433 11.007-15.6 4.221-7.154 12.048-36.39 6.134-21.936 11.284-3.3 8.175-5.6 4.413 6.115-10.15-11.802-9.21-5.435-13.454 24.119-5.885 1.524-17.89 6.785-8.595 16.634-13.086 39.395-1.507 17.618-4.383 2.46 26.878z" id="126380" data-name="Coteana" class="comuna"/>
    <path d="M599.219 628.904l12.883 47.515-30.687 13.605-35.465 11.961-38.756 1.744-11.202-12.038-12.842-13.945 15.6-4.22 7.433-11.008 9.93 4.944 5.402-18.51 54.902 2.572.855-22.016 21.947-.604z" id="129987" data-name="Vîlcele" class="comuna"/>
    <path d="M298.269 639.765l.202.506-15.245 6.537 16.589 39.664-6.69 3.956-33.936-8.243-4.038 7.879-14.609-6.113-11.035-13.829 8.782-16.076 11.315-9.49 20.852-8.453.931-9.818 26.882 13.48z" id="128178" data-name="Pârșcoveni" class="comuna"/>
    <path d="M391.889 621.743l5.068 28.724-.72 15.064-29.04.325-7.82 17.404-24.461.773-3.17-10.688-17.218 7.066-16.057-40.14-.202-.506 31.74-10.63 10.914 8.413 19.254-.647 12.846-21.74 14.65-1.833 4.216 8.415z" id="126022" data-name="Brîncoveni" class="comuna"/>
    <path d="M424.469 615.784l-6.014 13.936 11.62 24.896-6.784 8.596-1.524 17.889-24.119 5.885-1.412-21.455.72-15.064-5.067-28.724 15.573-9.35 17.007 3.39z" id="130348" data-name="Ipotesti" class="comuna"/>
    <path d="M247.542 607.291l20.707 3.954 3.138 15.04-.93 9.818-20.853 8.453-11.315 9.49-14.393-4.848-26.85 10.843-5.86-18.761 11.655-12.806 20.788.793 10.564-20.156 13.35-1.82z" id="125846" data-name="Bîrza" class="comuna"/>
    <path d="M660.872 610.448l18.305 29.547-30.274 25.25-33.403 24.13-3.398-12.956-12.883-47.515 22.354-19.706 18.745-4.546 5.273-16.928 15.281 22.724z" id="129246" data-name="Șerbănești" class="comuna"/>
    <path d="M762.03 645.882l-26.967 8.325-19.312-2.59-13.544-.278-3.04-14.632-19.99 3.288-18.305-29.547 22.246-17.711 17.314 2.902-4.354-25.99 94.291-2.68L799 579.658l-3.061 15.351-26.323.522-23.841 7.791 16.256 42.56z" id="129585" data-name="Tufeni" class="comuna"/>
    <path d="M421.45 569.09l-10.823 11.704 24.363 17.182-10.521 17.808-17.007-3.392-15.573 9.351-4.216-8.415-11.511-22.352-3.71-17.104 11.728-14.231 15.165 6.025 8.96-9.852 13.144 13.276z" id="127563" data-name="Milcov" class="comuna"/>
    <path d="M333.231 572.47l15.75 10.25 23.47-8.848 3.711 17.104 11.51 22.352-14.65 1.833-12.845 21.74-19.254.647-10.915-8.413-31.74 10.63-26.881-13.48-3.138-15.04-20.707-3.954 4.854-41.056 16.292-9.867.632-12.476 22.277 1.486 5.832 23.023 12.206 10.12 23.596-6.05z" id="128105" data-name="Piatra-Olt" class="oras"/>
    <path d="M166.956 560.628l-7.747 12.78-10.603 1.155-16.095 20.656-26.469-14.171-24.708 4.172-5.006-7.877 35.998-12.776 12.991-12.923 6.817-21.397 21.08 15.136 13.742 15.245z" id="125677" data-name="Baldovinești" class="comuna"/>
    <path d="M605.867 533.313l39.724 54.41-5.273 16.929-18.745 4.546-22.354 19.706-21.947.604-4.043-.393-3.813-41.044 11.307-17.234-4.902-13.032 14.021-21.535-3.91-7.556 19.935 4.599z" id="127689" data-name="Movileni" class="comuna"/>
    <path d="M247.427 530.563l4.969 35.672-4.854 41.056-13.349 1.82-21.405 13.145-6.32-15.438-14.969-6.638-8.727-17.333-.506-19.41-1.922-35.398 35.607-2.783 7.023 12.72 24.453-7.413z" id="125873" data-name="Bobicești" class="comuna"/>
    <path d="M384.18 559.64l-11.728 14.232-23.471 8.848-15.75-10.25-1.371-18.25 7.55-9.449-9.167-22.293 24.449-4.844 17.704 25.156.532 12.421 11.252 4.43z" id="125374" data-name="Slătioara" class="comuna"/>
    <path d="M177.554 512.209l2.79 15.83 1.922 35.398-15.31-2.81-13.741-15.244-21.08-15.136-21.858-24.714 31.461 15.694 35.816-9.018z" id="127812" data-name="Oboga" class="comuna"/>
    <path d="M110.277 505.533l21.857 24.714-6.817 21.397-12.99 12.923-36 12.776-14.932-4.493 7.761-29.211 14.98-35.117 20.474-8.58 5.667 5.591z" id="130302" data-name="Găvănești" class="comuna"/>
    <path d="M585.933 528.714l3.91 7.556-14.022 21.535-55.878 21.106 3.266-2.915-2.528-55.798 38.08-19.48 27.172 27.996z" id="128052" data-name="Perieți" class="comuna"/>
    <path d="M350.894 502.288l.002 2.415 3.796 12.93-24.449 4.845 9.167 22.293-7.55 9.449 1.371 18.25-23.596 6.05-12.206-10.119-5.832-23.023-22.277-1.486-.632 12.476-16.292 9.867-4.969-35.672-2.73-35.423 49.95 5.81 56.247 1.338z" id="127064" data-name="Găneasa" class="comuna"/>
    <path d="M687.506 534.59l8.572 35.06 4.354 25.99-17.314-2.903-22.246 17.711-15.281-22.724-39.724-54.411 18.988-33.83 14.119-5.884 17.794 17.485-.516 19.957 8.758 10.447 22.496-6.899z" id="127322" data-name="Icoana" class="comuna"/>
    <path d="M177.554 512.209l-35.816 9.018-31.461-15.694-5.667-5.59-10.378-9.15-4.46-5.378 15.232-6.884 24.615 3.508 13.448-12.6 14.252-4.203 8.197 16.046 2.855 23.585 9.183 7.342z" id="130295" data-name="Călui" class="comuna"/>
    <path d="M531.648 456.444l6.314 17.175 11.044.59 9.755 26.508-38.08 19.481-9.863 3.944-9.944-10.732-19.049-36.167 23.787-8.609-3.145-11.772 29.18-.418z" id="130286" data-name="Bălteni" class="comuna"/>
    <path d="M638.974 493.6l-14.12 5.882-18.987 33.83-19.934-4.598-27.172-27.997-9.755-26.508-11.043-.59-6.315-17.175 23.178-9.33 41.938-10.514 17.329 13.776 5.612-8.834 14.61 2.887-1.205 12.362 9.491 9.295 5.863 18.094-9.49 9.42z" id="128374" data-name="Potcoava" class="oras"/>
    <path d="M326.505 451.76l8.34 16.897-3.881 11.39 19.93 22.24-56.246-1.337-49.952-5.81-1.439-11.614-14.087-6.579 30.72-28.238-.295-15.118 30.36 1.084 1.869 15.87 34.681 1.214z" id="128221" data-name="Pleșoiu" class="comuna"/>
    <path d="M678.016 427.03l-3.497 30.305 5.84.697-.686 29.531 17.531.24-3.344 44.838-6.354 1.948-22.496 6.899-8.758-10.447.516-19.957-17.794-17.485 9.49-9.42-5.863-18.093-9.49-9.295 1.203-12.362-14.609-2.887-5.612 8.834-17.33-13.776 3.447-8.37 15.73-4.19 8.053 7.558 16.567-4.546 9.595 8.335 27.86-8.357z" id="126326" data-name="Corbu" class="comuna"/>
    <path d="M427.596 421.523l1.055 46.534-11.87 3.922-42.605 10.386-8.58 18.855-14.7 3.483-.002-2.415-19.93-22.241 3.882-11.39-8.34-16.898 1.052-13.413 34.8-3.994 8.303 4.873 45.494-19.014 11.442 1.312z" id="126433" data-name="Curtișoara" class="comuna"/>
    <path d="M188.366 418.342l26.119 36.075 5.915 16.47 8.77 6.06 14.087 6.579 1.44 11.614 2.73 35.423-24.453 7.413-7.023-12.72-35.607 2.783-2.79-15.83-9.183-7.342-2.855-23.585-8.197-16.046.204-9.375 13.926-28.235 16.917-9.284z" id="127625" data-name="Morunglav" class="comuna"/>
    <path d="M302.236 392.12l33.315 3.88 17.043 10.82-.656 16.935-24.38 14.591-1.053 13.413-34.681-1.213-1.868-15.87-30.361-1.085-13.465-16.98-2.665-21.87 10.685-8.784 38.705 1.796 9.381 4.367z" id="129139" data-name="Strejești" class="comuna"/>
    <path d="M243.465 394.741l2.665 21.87 13.465 16.98.294 15.118-30.719 28.238-8.77-6.06-5.915-16.47-26.12-36.075 1.268-15.267 10.355-3.589 10.227-15.52 9.862-3.303 13.205 2.594 10.183 11.484z" id="126166" data-name="Cîrlogani" class="comuna"/>
    <path d="M678.016 427.03l-27.86 8.357-9.596-8.335-16.567 4.546-8.054-7.559-15.729 4.19-11.023-34.471 38.997-.298 16.291-8.486-1.971-11.041 9.41-14.942 9.54-1.69 14.36 11.436.728 20.883 8.168 9.024 2.05 8.183-8.744 20.203z" id="130366" data-name="Sârbii - Măgura" class="comuna"/>
    <path d="M416.155 420.212l-45.494 19.013-8.304-4.873-34.799 3.995 24.38-14.592.656-16.935 2.215-27.504.222-40.273 22.234.587 23.228-3.903 12.68 20.644-11.692 3.199 13.721 29.515 13.736-.286-12.783 31.413z" id="129380" data-name="Teslui" class="comuna"/>
    <path d="M354.809 379.316l-2.215 27.504L335.55 396l-33.315-3.88.607-29.98.436-26.972 17.8.213 4.318 37.638 29.412 6.297z" id="127171" data-name="Grădinari" class="comuna"/>
    <path d="M642.504 373.933l1.971 11.041-16.291 8.486-38.997.298-3.3-9.284 5.475-20.705-14.191-30.827 16.215 1.528 26.202-10.566 8.61 10.967 1.926 28.023 12.38 11.039z" id="127901" data-name="Optași-Măgura" class="comuna"/>
    <path d="M449.79 296.155l12.443 11.65-3.826 15.64 17.787 13.772-2.747 22.226 5.488 14.07-9.204 16.893 14.94 10.252-52.904 4.146-4.17 16.719-11.442-1.312 12.783-31.413-13.736.287-13.721-29.515 11.691-3.2-12.679-20.643 15.766-18.953-2.782-16.125 36.312-4.494z" id="127858" data-name="Oporelu" class="comuna"/>
    <path d="M656.99 283.403l9.527 25.206-6.352 10.553 1.29 38.138-9.541 1.691-9.41 14.942-12.38-11.04-1.927-28.022-8.609-10.967-9.63-12.142-6.528-29.273-11.172-5.1 5.312-19.321 10.613-8.561 16.26.598 22.603 13.022 9.943 20.276z" id="126228" data-name="Colonești" class="comuna"/>
    <path d="M597.57 258.068l-5.312 19.32 11.172 5.1 6.528 29.274 9.63 12.142-26.202 10.566-16.215-1.528-16.963-29.37-24.93-9.479-3.616-20.591 27.896-14.796 20.998-22.445 10.622-.267 6.392 22.074z" id="129317" data-name="Tătulești" class="comuna"/>
    <path d="M373.183 220.786l-2.589 14.454 19.7 6.61.047 38.487-4.953 12.444 28.089 7.868 2.782 16.125-15.766 18.953-23.228 3.903-22.234-.587.122-17.593-6.708-19.88-11.676-12.378-1.59-37.275-8.136-19.67-.038-.094 46.178-11.367z" id="129816" data-name="Verguleasa" class="comuna"/>
    <path d="M485.296 182.37l-4.357 9.017 6.633 14.016-6.824 24.334 23.974-4.576 9.34-10.45 8.516 11.16-6.316 24.029 10.87 7.241 1.939 17.027-13.66-.161-12.973 17.424-8.655 2.369-41.468.005-9.452-16.275 1.854-8.226-17.707-11.552 19.802-35.807-1.204-16.543 25.284-26.844 14.404 3.812z" id="128301" data-name="Poboru" class="comuna"/>
    <path d="M656.99 283.403l-9.944-20.276-22.602-13.022-16.26-.598-10.614 8.561-6.392-22.074-10.622.268-11.889-20.146-7.101-24.35 15.461-6.536-2.464-18.162 5.496-.823 19.239 23.367 41.268-5.1 15.807 5.821 14.488 19.897-28.656 16 4.324 5.115 10.46 52.058z" id="125757" data-name="Bărăști" class="comuna"/>
    <path d="M445.608 205.402l1.204 16.543-19.802 35.807 17.707 11.552-1.854 8.226 9.452 16.275-2.526 2.35-36.312 4.494-28.089-7.868 4.953-12.444-.046-38.487-19.7-6.61 2.588-14.454 7.635-3.11 2.607-17.99 10.547-20.593 20.368-12.76 16.902 11.305-9.3 13.624 23.666 14.14z" id="126503" data-name="Cungrea" class="comuna"/>
    <path d="M565.846 148.956l8.717 18.112 2.464 18.162-15.461 6.536 7.101 24.35 11.89 20.145-21 22.445-27.895 14.796-2.591.666-1.938-17.027-10.87-7.241 6.315-24.03-8.515-11.159-9.341 10.45-23.974 4.576 6.824-24.334-6.633-14.016 4.357-9.017 1.31-19.438 33.667-2.394 5.357 12.18 16.699-1.049 15.92-24.1 7.597 1.387z" id="128962" data-name="Spineni" class="comuna"/>
    <path d="M415.036 145.911l-.696 20.422-20.368 12.76-10.547 20.593-2.608 17.99-7.634 3.11-46.178 11.367-6.639-16.386-2.488-34.23 15.582 1.808 26.385-4.082 2.88-22.376 16.113-9.38 36.198-1.596z" id="130231" data-name="Vulturești" class="comuna"/>
    <path d="M372.61 110.9l22.278 3.346 13.728 10.487 6.42 21.178-36.198 1.596-16.113 9.38-2.88 22.376-26.385 4.082-15.582-1.809 1.659-24.282-2.616-9.478 17.237-1.626 2.377-10.913 14.168-15.308 21.907-9.03z" id="126772" data-name="Dobroteasa" class="comuna"/>
    <path d="M468.146 93.716l23.106 13.268 1.435 30.718-7.405 12.506 1.324 12.724-1.31 19.438-14.404-3.812-25.284 26.844-23.666-14.14 9.3-13.624-16.902-11.305.696-20.422-6.42-21.178 22.034-12.312 7.861 6.468 13.946-16.717 15.689-8.456z" id="127411" data-name="Leleasca" class="comuna"/>
    <path d="M452.457 102.172L438.51 118.89l-7.86-6.468-22.035 12.312-13.728-10.487-22.278-3.346 13.994-27.006 17.663.339 9.305-22.089 16.422-9.317 17.028 10.818-13.293 20.261 18.728 18.266z" id="128882" data-name="Sîmburești" class="comuna"/>
    <path d="M544.875 89.493L514.36 104.18l-23.107 2.805-23.106-13.268 23.469-14.245 11.793-15.59 3.465-35.626 8.503-18.752 7.592 3.105 7.98 14.844-1.234 18.921 15.161 43.12z" id="129503" data-name="Topana" class="comuna"/>
    <path d="M429.994 52.827l-16.422 9.318-9.305 22.088-17.663-.34L372.61 110.9l-21.907 9.029 9.223-41.377-6.41-9.839 17.502-14.644-6.803-17.232 27.464-2.684 9.502-11.861L408.592 1l27.372 12.087-5.97 39.74z" id="129914" data-name="Vitomirești" class="comuna"/>
    <path d="M94.232 490.794l10.378 9.148-20.473 8.58-14.98 35.117-13.653-6.585-40.901-10.365-7.39 13.43L1 517.24l11.242-18.151 6.822-22.628-15.895-12.924 16.201-19.124 17.095 16.352 5.337 16.823 14.927 13.334 20.116 9.044 17.387-9.172z" id="130124" data-name="Vulpeni" class="comuna"/>
    <path d="M293.126 690.428l-.72 17.293 21.376 7.847.76 3.445-12.676 8.195-8.412 32.71-18.128 3.507-1.952-16.842-68.134-21.727 6.639-8.012 45.25-12.557-1.978-14.223 4.038-7.879 33.937 8.243z" id="126825" data-name="Dobrun" class="comuna"/>
    <path d="M565.846 148.956l-7.598-1.386-15.92 24.099-16.698 1.05-5.357-12.181-33.667 2.394-1.324-12.724 7.405-12.506-1.435-30.718 23.107-2.805 30.516-14.686 9.916 15.791 10.965 11.588-4.831 25.712 4.92 6.371z" id="126905" data-name="Făgețelu" class="comuna"/>
    <path d="M191.186 641.28l5.86 18.761 26.85-10.843 14.394 4.848-8.782 16.076 11.034 13.83 14.609 6.112 1.977 14.223-45.25 12.557-1.514-8.197-28.437-4.034-1.958-37.772-14.148 1.601-4.413-9.451-12.437-28.005 18.108 8.783 13.36-7.462 10.747 8.973z" id="130062" data-name="Voineasa" class="comuna"/>
    <path d="M182.266 563.437l.506 19.41 8.727 17.333 14.97 6.638 6.32 15.438 21.404-13.145-10.564 20.156-20.787-.793-11.656 12.806-10.746-8.973-13.361 7.462-18.108-8.783-22.036-18.499 5.576-17.268 16.095-20.656 10.603-1.154 7.747-12.781 15.31 2.809z" id="125418" data-name="Balș" class="oras"/>
    <path d="M464.692 792.101l13.537 31.283-4.938 24.285 12.731 4.724-34.127 18.905.086 21.634-15.903-4.072-.483-17-36.395-19.913 14.647-15.157-11.617-5.275 37.892-38.651 3.74-7.205 6.985 14.158 13.846-7.716z" id="127019" data-name="Fărcașele" class="comuna"/>
    <path d="M420.058 489.247l-5.55 4.826 19.51 38.603-7.282 20.19 7.563 5.295-12.85 10.93-13.143-13.277-8.961 9.852-15.165-6.026-11.252-4.429-.532-12.421-17.704-25.156-3.796-12.931 14.7-3.483 8.58-18.855 42.605-10.386 3.277 17.268z" id="125347" data-name="Slatina" class="municipiu resedinta"/>
    <path d="M577.17 332.942l14.192 30.827-5.476 20.704 3.3 9.285 11.024 34.471-3.446 8.37-41.938 10.516-23.178 9.33-29.18.417-6.39-21.14 7.502-23.558-18.91-11.506-14.939-10.252 9.204-16.894-5.488-14.069 2.747-22.226-17.787-13.772 3.826-15.64-12.444-11.65 2.526-2.35 41.468-.005 8.655-2.37 12.972-17.423 13.66.161 2.592-.666 3.616 20.591 24.93 9.479 16.963 29.37z" id="128711" data-name="Scornicești" class="oras"/>
    <path d="M496.078 435.721l-48.46 29.192-27.56 24.334-3.277-17.268 11.87-3.922-1.055-46.534 4.17-16.72 52.904-4.145 18.91 11.506-7.502 23.557z" id="128436" data-name="Priseaca" class="comuna"/>
    <path d="M502.467 456.862l3.145 11.772-23.787 8.609 19.049 36.167-3.286 40.02-7.458-.298.683-22.346-26.873 8.021-5.047 17.173-24.594 2.181-7.563-5.295 7.282-20.19-19.51-38.603 5.55-4.826 27.56-24.334 48.46-29.192 6.39 21.14z" id="129656" data-name="Valea Mare" class="comuna"/>
    <path d="M609.847 1286.185l-3.942-12.02 12.508-15.174-12.801-11.736 10.913-8.517-2.99-11.786 33.81-14.25 37.616-9.981.26-.024 9.075 5.024-13.112 3.403-1.477 11.357 7.75 13.66-42.209 11.201-8.442 10.567 2.182 13.973-9.78 9.094-14.646-3.598-4.715 8.807z" id="127126" data-name="Giuvărăști" class="comuna"/>
    <path d="M520.681 520.198l2.528 55.798-3.266 2.915-9.974 6.654-3.51 38.768 28.777 5.853-13.72 18.767-5.403 18.509-9.93-4.944-2.46-26.878-17.618 4.383-39.395 1.507-16.634 13.086-11.62-24.896 6.013-13.936 10.521-17.808-24.363-17.182 10.822-11.704 12.85-10.929 24.594-2.18 5.047-17.174 26.873-8.02-.683 22.345 7.458.298 3.286-40.02 9.944 10.732 9.863-3.944z" id="125999" data-name="Brebeni" class="comuna"/>
    <path d="M577.272 629.508l-.856 22.016-54.9-2.571 13.72-18.767-28.777-5.853 3.51-38.768 9.974-6.654 55.878-21.106 4.902 13.032-11.307 17.234 3.813 41.044 4.043.393z" id="128659" data-name="Schitu" class="comuna"/>
    <path d="M89.773 485.415l4.46 5.379-17.388 9.172-20.116-9.044-14.927-13.334-5.337-16.823-17.095-16.352L8.54 434.25l14.167-5.39 18.181-15.057 9.46-3.59 15.841 9.213-1.632 13.677 19.705 31.457 5.51 20.856z" id="126674" data-name="Dobrețu" class="comuna"/>
    <path d="M157.523 455.861l-.204 9.375-14.252 4.204-13.448 12.599-24.615-3.508-15.231 6.884-5.511-20.857-19.706-31.456 1.633-13.677-15.842-9.212-9.459 3.589-1.23-1.501 48.789-10.688 3.582 4.254 24.335 5.16 10.905 7.565 18.192 31.187 12.062 6.082z" id="127288" data-name="Iancu Jianu" class="comuna"/>
  </g>
</svg>
