<svg xmlns="http://www.w3.org/2000/svg" version="1.2" baseProfile="tiny" stroke-linecap="round" stroke-linejoin="round" viewBox="0 0 800 650">
  <g id="SB" fill="none" stroke="#aaa">
    <path d="M404.015 525.469l-3.744 14.146-7.676 1.695-1.252 27.382-7.454 24.37 8.705 10.16-5.161 10.365-16.867-3.53-14.292 19.612-14.175 2.075-4.464 5.185-20.865-.764-10.12 5.062-19.89-3.27-4.196-10.857 3.206-16.118 10.058-7.183 5.355-10.664 16.816-3.71 10.816 2.46 26.165-9.663 6.335-6.385 15.463-42.648 27.237-7.72z" id="146021" data-name="Boița" class="comuna"/>
    <path d="M243.157 563.743l-15.468.28-10.816 8.756-7.299-4.552 17.89-19.683 15.31-7.836-1.992-9.385 28.45-5.423 17.19-8.987 1.835 16.686-8.302 7.245-7.513 14.218-15.738-1.027-13.547 9.708z" id="145382" data-name="Rîu Sadului" class="comuna"/>
    <path d="M463.121 580.58l-16.922 6.112-19.66-.25-9.38 7.992-24.565 8.788-8.705-10.16 7.454-24.37 1.252-27.382 7.676-1.695 3.744-14.146 17.508-15.607 10.9 3.052 5.385 8.041 4.626 22.92 10.384 9.919 7.737 13.244 2.566 13.541z" id="145934" data-name="Turnu Roșu" class="comuna"/>
    <path d="M243.157 563.743l-17.149 34.63.709 22.095-8.535 1.895-25.669-5.011-10.355 5.746-21.764 2.36-5.35-7.834-17.102 2.937 4.64-10.77 2.464-17.713 30.166-13.9 6.713-8.139 20.088-3.933 7.561 2.121 7.3 4.552 10.816-8.755 15.468-.28zm164.644-76.757l4.506 12.34 7.45 4.747 1.766 5.789-17.508 15.607-27.237 7.72-15.463 42.648-6.335 6.385-26.165 9.663-10.816-2.46-16.816 3.71-5.355 10.664-10.058 7.183-3.206 16.118 4.196 10.857-8.702-2.245-4.601-1.965-11.138-4.093-1.122-12.865 16.393-12.264 10.71-23.38 5.598-3.517 12.167-16.653 19.718-5.307 8.536-13.731 4.853-15.1 9.593.258 1.09-10.09 11.255-1.424 2.896-12.048 16.025-10.855 27.77-5.692z" id="145827" data-name="Tălmaciu" class="oras"/>
    <path d="M490.219 581.926l-27.098-1.347-2.566-13.541-7.737-13.244-10.384-9.92-4.626-22.919-5.385-8.041-10.9-3.052-1.766-5.789-1.176-6.508 13.014-8.975 16.38-3.364 12.983 7.727-1.795 12.712 16.12 5.678 11.038 10.7-12.16 11.027-1.536 9.393 9.21 34.1 8.384 5.363z" id="145355" data-name="Racovița" class="comuna"/>
    <path d="M358.607 485.484l7.565 6.37-2.166 11.679-2.896 12.048-11.256 1.424-1.09 10.09-9.592-.258-4.853 15.1-8.536 13.73-19.718 5.308-12.167 16.653-12.195 1.696-3.231-10.983 27.635-9.878 4.287-8.353-.872-29.695 18.293-5.733 3.64-7.473-6.5-15.915 6.866-12.195 7.537-1.627 14.6 10.064 4.649-2.052z" id="145471" data-name="Sadu" class="comuna"/>
    <path d="M588.235 438.456l-.968 12.857 5.24 16.462.6 25.608 11.835 38.311 7.58 33.282-27.735 6.193-15.376 11.755 2.948-19.826-1.285-20.11-12.656-28.154-.56-22.316 5.607-40.27-2.842-16.533 27.611 2.741z" id="144535" data-name="Cîrțișoara" class="comuna"/>
    <path d="M358.607 485.484l-4.648 2.052-14.601-10.064-7.537 1.627-6.865 12.195 6.498 15.915-3.639 7.473-18.293 5.733.872 29.695-4.287 8.353-27.635 9.878 3.231 10.983 12.195-1.696-5.597 3.518-10.711 23.379-16.393 12.264 1.122 12.865-18.011-8.274-6.143 4.293-11.448-5.205-.709-22.094 17.15-34.63 13.546-9.709 15.738 1.027 7.513-14.218 8.302-7.245-1.835-16.686-4.885-14.46 2.12-10.158 10.218-17.623 7.845-2.532 1.567-14.746 15.035-9.78 4.222-20.478 4.604-3.549 5.238 17.772 13.466 11.114 13.567 23.962-.812 9.05z" id="143735" data-name="Cisnădie" class="oras"/>
    <path d="M243.456 426.725l-8.028 16.126-9.286 2.152-16.806 14.845-22.795 8.111-27.791-.6 3.562 10.186-3.79 8.16-22.659 18.608-.634 8.493-9.593 14.218-12.802 7.399-13.64 2.282.568-16.503 5.64-9.886 13.702-10.175 5.57-19.31-1.813-5.99 21.758 1.577 12.633-12.187 9.867-1.369 7.577-7.922 11.151 5.485 16.61-18.178.203-11.288 15.508-13.789 10-2.88 15.288 12.435z" id="145202" data-name="Orlat" class="comuna"/>
    <path d="M517.825 398.276l-1.325 23.34-12.353 6.113-5.767-3.734-21.922 18.812 19.817 32.458 6.377 40.61 4.917 12.08 9.458 11.567 1.996 15.629 13.011 24.723-12.366 9.815-5.659-7.833-9.769.391-6.866-7.18-7.155 6.86-8.383-5.365-9.21-34.099 1.536-9.393 12.159-11.027-11.037-10.7-16.12-5.678 1.794-12.712-12.983-7.727-16.38 3.364-13.014 8.975 1.176 6.508-7.45-4.747-4.506-12.34 3.077-1.551-10.063-23.571 10.779-13.137 20.025-8.114 22.403-17.464 7.026-8.497 8.3 4.877 12.11-6.907 10.079-1.464 12.968-13.267 13.32.385z" id="144054" data-name="Avrig" class="oras"/>
    <path d="M560.623 435.715l2.842 16.534-5.608 40.27.56 22.315 12.657 28.153 1.285 20.111-2.948 19.826-2.515 2.256-7.155-7.156-17.679 5.835-10.028-3.985-13.01-24.723-1.997-15.63-9.458-11.566-4.917-12.08-6.377-40.61-19.817-32.458 21.921-18.812 5.768 3.734 12.353-6.113 1.325-23.34 15.43.011 9.674-6.596 7.199 10.74-8.824 10.14 11.153 6.63 8.166 16.514z" id="145293" data-name="Porumbacu de Jos" class="comuna"/>
    <path d="M204.468 496.396l-3.544 5.986 1.826 5.816-17.236-3.109-10.231 14.09-2.17 22.224-1.8 10.827-18.505 10.7-6.404-1.024 7.638-17.46-7.613-25.212 10.324-13.452 8.903-3.106 13.029 2.268 15.268-18.405 10.515 9.857zm37.158-28.239l2.589 3.087-6.04 16.44-17.988 5.483 10.903-9.769 10.536-15.24zm41.25-78.215l2.578 19.334-8.839 20-9.834 16.068-9.968-3.645 9.057-12.115-6.577-5.045-15.837 2.186-15.287-12.434-10.001 2.88 3.934-5.859 4.617-21.502 9.267 4.012 15.124-1.302 26.528 4.64 5.238-7.218z" id="143487" data-name="Cristian" class="comuna"/>
    <path d="M110.354 579.02l4.253 17.068-18.604 16.062-8.39-3.038 2.357-15.19 17.266-16.778 3.118 1.876zM87.53 410.602l-3.978 9.786-2.515-7.453 6.493-2.334zm64.235-25.908L155.032 407l-15.279 22.846-16.694-2.362-17.113 5.958-17.537 2.181 4.103-14.764 9.728-7.495 15.446-1.011-1.605-10.76-19.898 7.395-5.437-8.227 4.859-12.1 12.97-5.821 14.996-1.8 7.428 10.039 9.457.16 11.308-6.545z" id="145907" data-name="Tilișca" class="comuna"/>
    <path d="M601.319 381.195l12.499 18.443-3.509 7.082 3.94 25.215 19.922 44.191-2.37 15.8 3.369 17.965-2.717 19.8-5.135 5.015 3.013 20.17 5.799 9.968-8.086 7.854-15.523-7.722-7.579-33.282-11.835-38.311-.6-25.608-5.24-16.462.967-12.857-1.257-30.897-8.964 1.8-5.518-7.749-10.575-28.71 15.322 7.283 24.077 1.012z" id="143959" data-name="Arpașu de Jos" class="comuna"/>
    <path d="M561.92 372.9l10.575 28.71 5.518 7.749 8.964-1.8 1.258 30.897-27.612-2.74-8.166-16.515-11.153-6.63 8.824-10.14-7.2-10.74 14.124-19.904 4.868 1.112z" id="144508" data-name="Cîrța" class="comuna"/>
    <path d="M87.22 371.927l8.9-1.419 12.456 12.332-12.971 5.82-4.859 12.101 5.437 8.227-8.654 1.613-6.493 2.334-16.391-3.964-4.984-14.249 4.738-4.94-.525-13.602 11.924 1.078 11.422-5.331z" id="145275" data-name="Poiana Sibiului" class="comuna"/>
    <path d="M297.273 356.432l.544 8.544-14.941 24.966-5.238 7.218-26.528-4.64-15.124 1.302-9.267-4.012-7.638-1.48 9.301-31.022 22.41-9.79 23.994 6.81 22.487 2.104z" id="145792" data-name="Șura Mică" class="comuna"/>
    <path d="M145.046 592.078l-2.463 17.714-4.64 10.77-21.922 2.232-11.68 14.203-29.078 6.416-10.395 4.481-3.483-1.59-2.677-21.666 16.072-14.51 12.832-1.016 8.391 3.038 18.604-16.062-4.253-17.068 12.731 1.826 5.85 7.204 16.11 4.028zm83.336-234.77l-9.302 31.023 7.64 1.48-4.618 21.501-3.934 5.858-15.508 13.79-.203 11.287-16.61 18.178-11.151-5.485-7.577 7.922-9.867 1.37-12.633 12.186-21.757-1.576-4.8-8.413-33.392-19.635 2.112-21.535-3.231-4.871 3.978-9.786 8.654-1.614 19.898-7.395 1.605 10.76-15.446 1.011-9.728 7.495-4.103 14.764 17.537-2.18 17.113-5.959 16.694 2.362L155.032 407l-3.268-22.306 6.182-5.064 2.68-19.331-3.887-7.18 8.87-1.675 8.45-20.006 11.108-.546 5.517-6.98 11.054-2.875-3.643 21.542 2.44 11.938 9.04 4.996 7.377-4.978 11.43 2.773z" id="145499" data-name="Săliște" class="oras"/>
    <path d="M454.425 346.707l9.081 7.516-5.5 23.306 17.023 12.174 6.43 22.919-12.11 6.907-8.301-4.877-7.026 8.497-22.403 17.464-20.025 8.114-10.779 13.137-8.865-1.59-6.725-19.72 2.863-5.605-5.777-15.935-11.056-11.418 10.872-23.734-8.218-13.01-.624-9.798 9.05-16.427-3.36-11.15 3.564-6.92 16.422-14.623 13.904 20.769 1.83 8.917 10.274 8.716 29.456-3.629z" id="145408" data-name="Roșia" class="comuna"/>
    <path d="M538.943 313.666l9.002 12.162 13.897-1.087-.842 13.364 5.175 10.726-4.255 24.068-4.868-1.112-16.35-7.49-16.521-1.33-6.632-6.34-9.917 1.523-9.062-4.73 2.74-9.33 12.313-5.044 2.798-20.002 17.722-11.066 4.8 5.688z" id="144893" data-name="Marpod" class="comuna"/>
    <path d="M285.568 307.271l15.022.466 6.404 9.98-7.759 20.902 5.597 14.43-7.56 3.383-22.486-2.104-23.994-6.81-22.41 9.79-11.43-2.773-7.377 4.978-9.04-4.996-2.44-11.938 3.643-21.542.808-1.27 18.09-23.68 15.335 16.235 25.576.713 2.19-8.62 9.548-2.082 12.283 4.938z" id="143851" data-name="Ocna Sibiului" class="oras"/>
    <path d="M128.926 295.653l11.027 16.17-6.347 14.474 23.133 26.821 3.888 7.18-2.681 19.332-6.182 5.064-11.308 6.545-9.457-.16-7.428-10.039-14.995 1.8-12.457-12.332-8.899 1.419-4.18-7.79 12.18-17.79 15.086-15.487-13.518-3.85-11.057-10.109 2.47-7.577 8.841-12.59 12.788-1.392 11.867-3.238 7.229 3.549z" id="144928" data-name="Miercurea Sibiului" class="oras"/>
    <path d="M405.852 284.177l-.886 23.884-6.005 3.873-16.422 14.622-3.565 6.921 3.361 11.15-9.05 16.427-13.866-2.685-13.395 10.87-24.793-7.97-16.399-8.22-5.597-14.43 7.759-20.901 9.333-.584 10.745 8.555 7.969-6.932 22.232-6.516 20.24 6.304.803-14.16 10.388-4.714 6.252-9.006 10.896-6.488z" id="145765" data-name="Șura Mare" class="comuna"/>
    <path d="M516.42 319.044l-2.797 20.002-12.312 5.045-2.74 9.33 9.061 4.729 9.917-1.523 6.632 6.34 16.521 1.33 16.35 7.49-14.123 19.904-9.673 6.596-15.431-.01-13.32-.385-12.968 13.266-10.078 1.464-6.43-22.919-17.023-12.174 5.5-23.306-9.08-7.516.923-8.818 11.034-1.952 13.501-16.666-21.689-15.063-.134-7.647-10.035-12.03 18.03-2.027 15.255 1.527.498 8.014 11.316 12.887 14.188 5.036 9.108 9.076z" id="145140" data-name="Nocrich" class="comuna"/>
    <path d="M422.066 273.156l19.624 5.068 6.336 6.307 10.035 12.03.134 7.647 21.689 15.063-13.5 16.666-11.035 1.952-.924 8.818-29.456 3.63-10.275-8.717-1.829-8.917-13.904-20.769 6.005-3.873.886-23.884 1.182-6.645 15.032-4.376z" id="145998" data-name="Vurpăr" class="comuna"/>
    <path d="M166.996 275.51l-5.763 18.07 11.602 18.633 17.458-1.027 12.253 8.58-.808 1.271-11.054 2.875-5.517 6.98-11.107.546-8.451 20.006-8.87 1.674-23.133-26.82 6.347-14.476-11.027-16.17 6.758.474 6.557-13.921 11.321-14.155 13.434 7.46z" id="143922" data-name="Apoldu de Jos" class="comuna"/>
    <path d="M570.06 272.576l21.259-3.69 10.795 3.82-1.329 12.745 38.16-1.708 8.683 3.105-1.853 6.874-14.947 5.47-4.044 8.208-22.937 9.432-2.804 28.478 4.85 15.092-4.574 20.793-24.077-1.012-15.322-7.284 4.255-24.068L561 338.105l.842-13.364-13.897 1.087-9.002-12.162 16.56-11.316 12.977.076 1.589-18.174-21.71-4.737.116-14.746 8.614 7.848 12.97-.041z" id="144456" data-name="Chirpăr" class="comuna"/>
    <path d="M202.87 261.595l1.02 7.581 14.57 17.995 2.176 8.916-18.09 23.68-12.253-8.581-17.458 1.027-11.602-18.633 5.763-18.07 1.736-10.599 8.632.193 14.827-8.344 10.679 4.835z" id="144866" data-name="Ludoș" class="comuna"/>
    <path d="M407.034 277.532l-1.182 6.645-10.896 6.488-6.252 9.005-10.388 4.715-.802 14.16-20.24-6.304-22.233 6.516-7.969 6.932-10.745-8.555-9.333.584-6.404-9.98-15.022-.467-1.155-14.697 12.744-13.622 6.223-23.656 8.795-8.382 16.894-1.306 12.14-6.059 28.122 6.56-2.055 13.293-7.52 4.169 3.057 13.75 10.393-1.567 24.574 4.799 9.254-3.02z" id="145603" data-name="Slimnic" class="comuna"/>
    <path d="M490.021 239.414l2.643 22.88 16.248.618 6.354-3.64 22.475-1.756 10.734 7.253-.115 14.746 21.709 4.737-1.59 18.174-12.976-.076-16.56 11.316-4.8-5.688-17.722 11.066-9.108-9.076-14.188-5.036-11.316-12.887-.498-8.014-15.254-1.527-6.03-13.933 8.511-6.345 9.46-19.985 12.023-2.827z" id="143888" data-name="Alțina" class="comuna"/>
    <path d="M312.175 246.914l-8.795 8.382-6.223 23.656-12.744 13.622 1.155 14.697-12.283-4.938-9.547 2.083-2.19 8.619-25.577-.713-15.335-16.235-2.176-8.916-14.57-17.995-1.02-7.581 6.74-.708 17.485-19.4 14.826-5.793 6.81 5.088 21.148 4.896 10.042-4.663 12.322-12.06 19.932 17.959z" id="144795" data-name="Loamneș" class="comuna"/>
    <path d="M705.593 257.442l-19.794.264 1.289 11.38-12.96 22.118-16.08-9.01-10.42 4.654-8.684-3.105 2.93-13.72-7.162-5.184-.95-12.367-6.62-5.763 4.745-12.14 6.794-4.957 17.485-15.334 11.356-.72 18.925 8.204 10.629 12.216 8.517 23.464z" id="144964" data-name="Merghindeal" class="comuna"/>
    <path d="M494.508 212.848l2.731 6.103 12.66 7.272-6.808 14.396-13.07-1.205-12.024 2.827-9.459 19.985-8.51 6.345 6.029 13.933-18.03 2.027-6.337-6.307-19.624-5.068-1.042-29.859-4.632-9.022 3.807-11.703 9.659-15.87 14.55.585 16.512 6.56 5.092-5.218 9.343-5.923 7.616 9.357 11.537.785z" id="145042" data-name="Mihăileni" class="comuna"/>
    <path d="M339.713 187.565l30.227 13.99 21.008 3.643 14.617 11.7 14.634 5.674-3.807 11.703 4.632 9.022 1.042 29.859-15.032 4.376-9.254 3.021-24.574-4.8-10.393 1.568-3.057-13.75 7.52-4.169 2.055-13.293-28.123-6.56-12.139 6.059-16.894 1.306-19.932-17.958 8.305-11.09 13.677-8.754 13.25-2.812 12.238-18.735z" id="145667" data-name="Șeica Mare" class="comuna"/>
    <path d="M610.976 180.926l-.29 7.88 9.424 23.401 18.571 17.405-6.794 4.956-4.745 12.14 6.62 5.764.95 12.367 7.163 5.184-2.93 13.72-38.16 1.708 1.33-12.745-10.796-3.82-21.26 3.69-6.18-22.765-5.055-3.48 14.295-30.363 2.793-13.229 7.375-10.65 10.848.276 5.958-7.785 10.883-3.654z" id="143682" data-name="Agnita" class="oras"/>
    <path d="M575.912 202.74l-2.793 13.228-14.295 30.363 5.054 3.48 6.181 22.765-12.97.04-8.614-7.847-10.734-7.253-22.475 1.755-6.354 3.641-16.248-.617-2.643-22.881 13.07 1.205 6.808-14.396-12.66-7.272-2.731-6.103 27.97-29.699 15.577-5.314 15.27 1.658 4.497 10.343 18.09 12.903z" id="144232" data-name="Bîrghiș" class="comuna"/>
    <path d="M686.468 165.663l5.115-1.379 16.533 20.358 9.162-5.042 3.589 11.538-9.601 8.195 9.656 16.86 14.023 12.917-19.927 3.88 11.016 15.624-11.123 9.539-9.318-.711-8.517-23.464-10.629-12.216-18.925-8.204-11.356.72-17.485 15.334-18.571-17.405-9.425-23.401.29-7.88 20.579 1.803 16.753-12.503 25.28-6.883 12.88 2.32z" id="144651" data-name="Iacobeni" class="comuna"/>
    <path d="M339.713 187.565L327.475 206.3l-13.25 2.812-13.677 8.754-8.305 11.09-12.322 12.059-10.042 4.663-21.147-4.896-6.811-5.088.523-.256 4.48-15.04 11.398-9.773 3.257-10.03 8.377-4.227 16.954 3.834 10.36-1.65 10.75-19.455 1.595-14.701 13.412-.633 14.537-14.585-1.729 16.372 5.345 12.896-1.467 9.12z" id="145738" data-name="Șeica Mică" class="comuna"/>
    <path d="M430.533 161.211l7.207 9.568 14.37 9.778 4.329-3.252 8.617 14.386-4.367 11.578 5.323 5.36-5.092 5.218-16.512-6.56-14.55-.585-15.296-23.606-11.924 1.856-14.296-17.257-.878-15.37 20.22-4.663-.026 6.796 22.875 6.753z" id="145961" data-name="Valea Viilor" class="comuna"/>
    <path d="M358.262 137.474l10.051.676 19.151 14.174.878 15.371 14.296 17.257 11.924-1.856 15.296 23.606-9.659 15.87-14.634-5.674-14.617-11.7-21.008-3.643-30.227-13.99 1.467-9.119-5.345-12.896 1.73-16.372 6.32-9.703 14.377-2z" id="144116" data-name="Axente Sever" class="comuna"/>
    <path d="M469.872 130.207l5.905 9.106 9.56 4.761 7.94-5.982 8.924 9.649-10.147.789 3.305 10.32 16.817 18.735 10.303 5.564-27.971 29.699-11.537-.785-7.616-9.357-9.343 5.923-5.323-5.36 4.367-11.578-8.617-14.386-2.336-8.368 9.8-21.22-7.912-2.295-3.983-11.801 17.864-3.414z" id="145104" data-name="Moșna" class="comuna"/>
    <path d="M378.891 117.195l6.487 7.484 21.885 6.713 18.893 16.672 4.377 13.147-22.875-6.753.025-6.796-20.219 4.662-19.151-14.174-10.051-.676 10.089-22.193 10.54 1.914z" id="143771" data-name="Copșa Mică" class="oras"/>
    <path d="M366.728 107.859l1.623 7.422-10.09 22.193-14.376 2.001-6.32 9.703-14.538 14.584-13.412.634-1.595 14.701-10.75 19.456-10.36 1.649-16.954-3.834-8.377 4.226-2.904-18.319 10.074-14.295-.767-13.437 9.07 9.768 19.123-26.502 18.868-15.845 15.413 1.555 24.382-14.75 11.89-.91z" id="144991" data-name="Micăsasa" class="comuna"/>
    <path d="M421.072 93.688l6.74 15.881-7.865 7.027 12.296 15.128.553 9.67-6.64 6.67-18.894-16.672-21.884-6.713-6.487-7.484 12.832-10.154 4.665-14.96 24.684 1.607z" id="143646" data-name="Tîrnava" class="comuna"/>
    <path d="M493.277 138.092l-7.94 5.982-9.56-4.76-5.905-9.107-6.512-13.948 6.368-5.628 2.333-23.221 13.183 4.025 2.449-9.406 15.136-9.83 3.186-.433 6.137 11.923-8.337 19.514 1.84 8.78-6.145 17.492-6.233 8.617z" id="144349" data-name="Brateiu" class="comuna"/>
    <path d="M452.17 72.79l9.953 13.27 9.938 1.35-2.332 23.22-6.37 5.629 6.513 13.948-17.864 3.414 3.983 11.8 7.911 2.296-9.8 21.22 2.337 8.368-4.328 3.252-14.371-9.778-7.207-9.568-4.377-13.147 6.64-6.67-.553-9.67-12.296-15.128 7.865-7.027-6.74-15.881 3.855-10.228 24.126-16.555 3.118 5.886z" id="143619" data-name="Mediaș" class="municipiu"/>
    <path d="M528.265 66.756l5.977 21.24 8.672 6.68-5.149 27.037-23.73 15.17.253 6.764-12.087 4.094-8.924-9.65 6.233-8.616 6.146-17.493-1.84-8.779 8.336-19.514-6.137-11.923 13.217-5.957 9.033.947z" id="143995" data-name="Ațel" class="comuna"/>
    <path d="M453.643 31.836l4.82 31.407-6.292 9.548-3.118-5.886-24.126 16.555-5.673-6.792-4.131-19.005 2.729-9.196-.865-23.643 21.95 4.506 8.97-3.478 5.736 5.984z" id="144303" data-name="Blăjel" class="comuna"/>
    <path d="M530.656 36.081l2.085 8.338 11.777 10.358-16.253 11.979-9.033-.947-13.217 5.957-3.186.434-12.99-9.28-4.455-13.828 9.558-26.146 17.126-2.477 13.903 2.492 4.685 13.12z" id="146012" data-name="Alma" class="comuna"/>
    <path d="M494.942 22.946l-9.558 26.146 4.455 13.828 12.99 9.28-15.136 9.83-2.449 9.405-13.183-4.025-9.938-1.35-9.952-13.27 6.292-9.547-4.82-31.407 8.897 2.875 12.307-6.897 11.41-10.857 8.685 5.99z" id="144553" data-name="Dîrlos" class="comuna"/>
    <path d="M590.838 27.142l-12.674 5.132-.889 9.511 7.74 14.656-1.053 8.289-16.917 17.087 1.538 17.644-34.34-11.466-5.978-21.239 16.253-11.979L532.74 44.42l-2.085-8.337 10.377-9.317 11.314 2.873 2.461-8.336 13.319 2.498 3.614-7.594 13.164-4.336 5.933 15.272z" id="143806" data-name="Dumbrăveni" class="oras"/>
    <path d="M618.44 45.322l-14.95 14.375-5.738 10.418.646 10.441-15.152 25.485.421 11.658-5.77 2.243-9.573-12.429.26-8.052-1.538-17.644 16.916-17.087 1.053-8.289-7.74-14.656.89-9.51 12.673-5.133 12.886 1.147 13.463-22.437 11.363-.168 4.886 24.655-4.176 18.112-10.82-3.13z" id="144615" data-name="Hoghilag" class="comuna"/>
    <path d="M416.987 24.824l.865 23.643-2.73 9.197 4.132 19.004 5.673 6.792-3.855 10.228-24.684-1.608-4.665 14.961-12.832 10.154-10.54-1.914-1.623-7.422-2.534-17.384-10.697-4.496-.382-9.163 5.746-17.878-4.117-7.976 10.05-8.23 11.889 1.293 1.27-23.291 5.045 5.797 13.825-.478 5.105-18.927L411.446 1l4.288 18.73 1.253 5.094z" id="144152" data-name="Bazna" class="comuna"/>
    <path d="M568.583 99.46l-.259 8.053 9.572 12.429 5.771-2.243-7.066 21.61 3.51 9.958-3.215 11.727 11.989 20.844-5.598 10.252-7.375 10.65-18.09-12.904-4.497-10.343-15.27-1.658-15.576 5.314-10.303-5.564-16.817-18.736-3.305-10.32 10.147-.788 12.087-4.094-.253-6.764 23.73-15.17 5.149-27.037-8.672-6.68 34.341 11.465z" id="144198" data-name="Biertan" class="comuna"/>
    <path d="M618.44 45.322L633.714 59.6l2.917 26.157-4.808 12.539 3.177 16.36-6.524 8.76 4.935 7.5-2.798 19.445 11.12 9.216 6.574 10.65-16.753 12.502-20.578-1.803-10.883 3.654-5.958 7.785-10.848-.275 5.598-10.252-11.989-20.844 3.216-11.727-3.511-9.958 7.066-21.61-.421-11.658 15.152-25.485-.646-10.44 5.738-10.419 14.95-14.375z" id="144731" data-name="Laslea" class="comuna"/>
    <path d="M734.945 229.11l-14.023-12.917-9.656-16.86 9.6-8.195-3.588-11.538-9.162 5.042-16.533-20.358-5.115 1.379 2.448-11.752 25.5 5.682 13.692-10.485 12.244-3.26 21.403 3.98.179 12.347 10.05 9.697 16.33.348L799 186.575l-11.66 4.994-8.955 9.204-12.21 5.245-6.216-2.702-12.888 10.225-5.548 16.099-6.578-.53z" id="144376" data-name="Brădeni" class="comuna"/>
    <path d="M613.817 399.638l-12.498-18.443 4.574-20.793-4.85-15.092 2.804-28.478 22.937-9.432 4.044-8.208 14.947-5.47 4.315 3.373 4.474 26.573 32.028 22.788 2.332 19.61-27.788 6.011-2.419 13.776-7.735 3.296-6.337-11.03-21.662 10.075-9.165 11.444z" id="144410" data-name="Bruiu" class="comuna"/>
    <path d="M205.923 521.57l-.035 11.212-9.43 3.234 2.062-7.887-4.538-13.807 8.768-6.124-1.826-5.816 4.207 4.523-2.242 3.783-1.186 11.212 4.22-.33zm167.362-160.516l.624 9.797 8.218 13.011-10.872 23.734-17.89 2.682-16.082 5.953-10.135 7.356-4.604 3.55-4.222 20.476-15.035 9.78-1.567 14.747-7.845 2.532 1.698-14.7-14.625.303-4.536-15.56.204-15.439 8.838-20-2.578-19.334 14.94-24.966-.543-8.544 7.56-3.383 16.398 8.22 24.793 7.97 13.395-10.87 13.866 2.685z" id="143450" data-name="Sibiu" class="municipiu resedinta"/>
    <path d="M202.75 508.198l-8.768 6.124 4.538 13.807-2.061 7.887-23.346 5.387 2.17-22.224 10.231-14.09 17.236 3.109zm11.842-12.977l-8.669 26.349-4.22.33 1.186-11.212 2.242-3.783-4.207-4.523 3.544-5.986 10.124-1.175zm66.356-34.947l-7.19 7.939-14.442 2.349-11.719-7.683-3.382 8.365-2.589-3.087 6.87-21.79 8.317-4.668 9.968 3.645 9.834-16.068-.203 15.44 4.536 15.558z" id="143502" data-name="Poplaca" class="comuna"/>
    <path d="M293.875 474.672l-10.218 17.623-2.12 10.158 4.885 14.46-17.19 8.987-28.45 5.423 1.992 9.385-15.31 7.836-17.89 19.683-7.56-2.12-20.089 3.933-6.713 8.138-30.166 13.9-16.11-4.028-5.85-7.204 23.318-18.94 6.404 1.025 18.506-10.7 1.8-10.828 23.345-5.387 9.43-3.234.034-11.212 8.67-26.349 5.594-2.054 17.988-5.482 6.04-16.441 3.382-8.365 11.718 7.683 14.444-2.35 7.189-7.938 14.625-.301-1.698 14.699z" id="143520" data-name="Rășinari" class="comuna"/>
    <path d="M242.444 235.438l-.523.256-14.826 5.793-17.485 19.4-6.74.708-10.679-4.835-14.827 8.344-8.632-.193-5.323-1.298-1.314-14.41-4.851-4.268 2.758-12.74-6.379-5.807 26.438-29.715 12.764 2.737 8.277-6.273 1.316.247 1.29 7.598 20.605 4.764 13.075 13.096 5.056 16.596z" id="145220" data-name="Păuca" class="comuna"/>
    <path d="M59.661 394.722l4.984 14.25 16.39 3.963 2.516 7.453 3.231 4.87-2.112 21.536 33.392 19.635 4.8 8.413 1.811 5.99-5.57 19.31-13.7 10.174-5.64 9.886-.57 16.503 9.454 14.881-1.411 25.558-17.266 16.778-2.358 15.19-12.832 1.016-16.072 14.51 2.677 21.666-19.213 3.188-7.482-13.922-1.827-13.062-21.133-30.835 4.519-14.227 17.893-13.88-6.717-11.904-1.647-13.403 6.936-9.456-11.071-15.791-19.644-15.19 11.375-11.152L1 477.715l9.48-12.485-1.445-5.623 10.261-9.85 5.024-14.38 12.853 3.138 5.6-9.777-11.869-14.305-9.441-4.363 2.075-20.656 10.991 3.424 18.848-2.171 6.284 4.055z" id="144713" data-name="Jina" class="comuna"/>
    <path d="M256.813 441.699l-8.318 4.668-6.869 21.79-10.536 15.241-10.903 9.769-5.595 2.054-10.124 1.175-10.515-9.857-15.268 18.405-13.03-2.268-8.902 3.106-10.324 13.452 7.613 25.212-7.638 17.46-23.319 18.94-12.73-1.826-3.119-1.876 1.411-25.558-9.453-14.881 13.64-2.282 12.802-7.399 9.593-14.218.634-8.493 22.658-18.609 3.791-8.159-3.562-10.186 27.791.6 22.795-8.11 16.805-14.846 9.287-2.152 8.028-16.126 15.837-2.186 6.577 5.045-9.057 12.115z" id="144599" data-name="Gura Rîului" class="comuna"/>
    <path d="M371.255 407.596l11.056 11.418 5.777 15.935-2.863 5.605 6.725 19.72 8.865 1.59 10.063 23.57-3.077 1.552-27.77 5.692-16.025 10.855 2.166-11.68-7.565-6.369.811-9.05-13.566-23.96-13.466-11.115-5.238-17.772 10.135-7.356 16.082-5.953 17.89-2.682z" id="143557" data-name="Șelimbăr" class="comuna"/>
  </g>
</svg>
