<svg xmlns="http://www.w3.org/2000/svg" version="1.2" baseProfile="tiny" stroke-linecap="round" stroke-linejoin="round" viewBox="0 0 800 575">
  <g id="TL" fill="none" stroke="#aaa">
    <path d="M419.391 106.555l-12.668 11.8 4.41 15.5 7.375 9.202-19.363 8.687-9.428 1.438-6.613 6.16-1.819 7.907-9.882 1.395-13.732-.812-7.037-8.353 20.131-5.95 5.013-8.31-14.569-9.957-4.961-8.683 1.76-6.964 16.996-3.364 5.217-10.754-12.257-8.88 9.97-8.932 6.898-.418 13.585 11.317 13.352.605 7.622 7.367z" id="160047" data-name="Ceatalchioi" class="comuna"/>
    <path d="M148.107 79.688l-11.358-1.76-10.682-6.022-7.315 12.002-11.261-7.207-6.659-2.097-6.697 11.682-6.252-3.553 5.667-15.085-25.885-18.38 5.457-8.047 12.251 7.75 4.704-1.503-.376-28.422 7.692-6.345 22.43 5.891 10.289 7.675 3.69 7.574.3 22.136 14.005 23.71z" id="160458" data-name="Grindu" class="comuna"/>
    <path d="M583.405 154.85l-1.094 9.135 2.988 13.164-5.435 5.8 3.24 14.566 9.554 2.05 6.797 6.381-14.124 5.435-3.475 6.61-12.481 2.174-26.217 1.203-25.393-9.66-16.664-2.403-20.527 2.862.412-9.245-4.01-4.652-12.234-2.786-18.778 2.544-10.263-6.437-6.356 2.957-9.385-12.985 3.186-15.187 12.132-4.132 20.07-9.85 16.27-1.482.276-5.259 23.599-6.671 27.825 8.158 15.634-1.963 2.89 5.897 18.052 8.042 23.511-4.267z" id="160779" data-name="Maliuc" class="comuna"/>
    <path d="M606.008 135.638l-10.273 12.115-10.763 1.72-1.567 5.376-23.51 4.267-18.053-8.042-2.89-5.897-15.634 1.963-27.825-8.158-23.599 6.671-.276 5.259-16.27 1.482-20.07 9.85-12.132 4.132-1.068-6.139-7.344-4.444 3.774-12.736-7.374-9.202-4.411-15.5 12.668-11.8 12.261 10.606 10.556 4.44 5.92-2.1 1.966-10.478-3.05-6.845 7.03-15.607 8.27-.239 16.864-11.877 1.381 2.204 22.101-.068 7.134-6.128 14.666-1.376 15.715 1.528 9.387 4.365 9.66 8.572-14.361 8.898-6.353-1.075.447 12.043 7.058 3.368 14.446-.383.34 8.453 14.304-.74 5.82 3.862 22.434-7.341-2.43 15.831 5.051 9.17z" id="161133" data-name="Pardina" class="comuna"/>
    <path d="M720.862 20.099l-4.873 6.122-16.358 47.165-8.612 18.242-24.235 62.69-9.341 8.8-13.823-13.624-15.583-6.56 2.227-12.384-24.256 5.088-5.052-9.17 2.43-15.831-22.433 7.341-5.82-3.861-14.304.74-.34-8.454-14.446.383-7.058-3.368-.447-12.043 6.353 1.075 14.36-8.898-9.66-8.572-9.386-4.365-15.715-1.528-14.666 1.376-7.134 6.128-22.1.068-1.382-2.205 10.87-8.78 7.365-.181 11.093-9.48 8.743-.677 21.868-10.704 13.579-9.758 1.462-5.733 12.369-5.331 11.233-10.108 6.235-2.372 9.368 4.338 13.522-2.301 8.322-10.868L620.572 1l13.725 6.388 10.523-2.411 8.15 1.715 14.708-4.943 5.535 5.845 18.205 6.702 29.444 5.803z" id="160172" data-name="Chilia Veche" class="comuna"/>
    <path d="M666.784 154.318l13.481-7.826 13.153-3.606 7.813 8.104 3.201 5.535-5.92 23.29-12.88.168-7.163 20.482-6.292 8.865-1.124 8.369-6.71 4.15 8.105 22.124 9.868 11.858 15.582 2.871 3.826-10.398 11.674-.49 6.144 14.26-10.299 12.935-10.718 19.694 2.424 7.689-2.902 9.996-13.634-.977-4.653 3.17-6.078 12.58-7.08 5.364-9.927-3.85 7.25-9-.025-12.62-7.168 2.964-2.876 11.539-6.783-3.157-4.412-10.044-6.9 9.015-6.684.629 1.218-8.525-6.047-7.31-8.215-3.027.308-6.416 8.256-7.493 14.744-.584-1.218-13.937-12.734-3.83-4.833-7.203 2.818-8.161-5.17-10.633 5.763-10.143 1.582-9.619 7.522-3.23-2.557-7.45-13.42-1.09-14.068-6.18-3.571 2.776-6.797-6.38-9.553-2.051-3.24-14.566 5.434-5.8-2.988-13.164 1.094-9.136 1.567-5.377 10.763-1.719 10.273-12.114 24.256-5.089-2.227 12.385 15.582 6.56 13.824 13.623 9.34-8.8z" id="160261" data-name="Crișan" class="comuna"/>
    <path d="M786.42 241.112l-2.01 56.624-4.952 42.742.727 25.888-8.497 5.698 3.94 13.267-1.232 7.127-6.725 10.076-9.434-3.6-9.479 10.82-13.851-.263-62.811 15.959-30.137 2.679-25.567 4.356-23.12-22.137-5.602-15.318 15.262-11.259 9.248-19.32-2.3-5.536 1.57-17.235 16.226-11.942 1.401-11.737 6.685-.629 6.899-9.015 4.412 10.044 6.783 3.157 2.876-11.54 7.168-2.963.025 12.62-7.25 9 9.928 3.85 7.079-5.364 6.078-12.58 4.653-3.17 13.634.977 2.902-9.996-2.424-7.689 10.718-19.694 10.3-12.934 9.164 4.386 30.68-5.466 16.18-13.369 2.958-8.92 7.895 2.406z" id="161231" data-name="Sfîntu Gheorghe" class="comuna"/>
    <path d="M629.077 318l-1.401 11.738-16.225 11.942-1.571 17.235 2.3 5.536-9.248 19.32-15.262 11.26 5.602 15.317 23.12 22.137-24.07 6.357-14.149 7.534-14.207 1.92-17.217 8.877-16.743 13.492-25.054 27.71-4.52-26.702-1.78-27.633-4.18-30.458-18.196-48.351-3.582-42.385 2.714-29.04-5.9-28.976 18.057 6.502 2.161-5.15 13.731 1.876 9.556 3.953 11.082-.165 10.863-12.127.817-7.256 9.456 1.323 8.087-12.724-14.85 1.146 4.136-11.402 13.303-3.199 6.932 1.314 6.536-8.756 12.48-2.174 3.476-6.61 14.124-5.435 3.57-2.776 14.068 6.18 13.421 1.09 2.557 7.45-7.522 3.23-1.582 9.619-5.763 10.143 5.17 10.633-2.818 8.161 4.833 7.203 12.734 3.83 1.218 13.937-14.744.584-8.256 7.493-.308 6.416 8.215 3.026 6.047 7.31-1.218 8.526z" id="160911" data-name="Murighiol" class="comuna"/>
    <path d="M458.428 245.806l.06 12 11.02 7.024 5.9 28.976-2.714 29.04 3.582 42.385-25.17-29.72-17.888-23.863-5.252 1.475-18.745-3.05.347-13.716 2.917-7.767-16.99 2.887-5.094-17.013 8.548-7.712 25.31-9.981 3.63-9.324 14.77-8.773 13.37 2.044 2.4 5.088z" id="161482" data-name="Valea Nucarilor" class="comuna"/>
    <path d="M423.146 166.376l-3.186 15.187 9.385 12.985 6.354 15.568-14.72-1.838-5.241 7.315 2.803 12.211 5.528 5.025 3.82 14.618-3.63 9.324-25.31 9.98-8.548 7.713-4.296-5.02-7.658 3.642-3.485-10.292-12.461-22.159-.079-15.64-12.027-1.398-12.918 7.433-7.307-3.915 6.125-12.878 7.502 3.193 4.065-15.309 11.103-4.648 1.36-17.147 8.113.237 2.966-11.919 9.881-1.395 1.82-7.906 6.612-6.16 9.428-1.439 19.363-8.687-3.774 12.736 7.344 4.444 1.068 6.139z" id="159614" data-name="Tulcea" class="municipiu resedinta"/>
    <path d="M480.574 212.167l-13.924 2.674 8.333 6.305-2.997 15.768-6.794 7.265-6.764 1.627-2.399-5.088-13.37-2.043-14.77 8.772-3.82-14.618-5.528-5.025-2.803-12.211 5.241-7.315 14.72 1.838-6.354-15.568 6.356-2.957 10.263 6.437 18.778-2.544 12.234 2.786 4.01 4.652-.412 9.245z" id="161053" data-name="Nufăru" class="comuna"/>
    <path d="M350.634 159.48l7.037 8.352 13.733.812-2.966 11.92-8.113-.238-1.36 17.147-11.102 4.648-4.066 15.309-7.502-3.193-6.125 12.878-17.36-7.708-15.46 1.213-19.988-30.651-3.115-.047-7.943-6.626-2.867-11.806 4.71-7.624 2.963-12.938 30.118 1.124 18.738 4.51 11.769 6.201 10.476.82 8.423-4.104z" id="161302" data-name="Somova" class="comuna"/>
    <path d="M569.375 220.165l-6.536 8.756-6.932-1.314-13.303 3.199-4.137 11.402 14.85-1.146-8.086 12.724-9.456-1.323-.817 7.256-10.863 12.127-11.082.165-9.556-3.953-1.482-27.574 2.972-12.446 4.68-.964 8.138-15.367 25.393 9.661 26.217-1.203z" id="160724" data-name="Mahmudia" class="comuna"/>
    <path d="M517.765 211.707l-8.139 15.367-4.679.964-2.972 12.446 1.482 27.574-13.73-1.877-2.162 5.151-18.057-6.502-11.02-7.024-.06-12 6.764-1.627 6.794-7.265 2.997-15.767-8.333-6.306 13.924-2.674 20.527-2.862 16.664 2.402z" id="161552" data-name="Beștepe" class="comuna"/>
    <path d="M271.11 150.928l-2.964 12.938-4.709 7.624-14.591-3.113-7.897 1.389-21.332-3.714-9.653-3.756-11.558 20.73-8.965-3.665L178.3 166.91l-3.333.564-2.546-13.281 6.128-9.097 2.033-19.052 5.116-10.346 31.127 11.383 36.768 15.17 17.517 8.677z" id="159687" data-name="Isaccea" class="oras"/>
    <path d="M263.437 171.49l2.867 11.806 7.943 6.626-6.952 8.038-9.482-.154 2.478 15.73-7.931-6.35-12.169 4.943-8.963 8.482-9.386-4.642-13.855 7.15-9.368-14.71-2.916-20.922 2.703-4.461 11.558-20.73 9.653 3.756 21.332 3.714 7.897-1.389 14.591 3.113z" id="161035" data-name="Niculițel" class="comuna"/>
    <path d="M260.29 213.536l7.53 3.592-5.309 10.508-12.128 3.826-2.912 10.358-.342 15.637-8.626 1.306-.815 9.853-4.465 6.795-6.681.844-4.014-25.882-4.165-5.325-7.61-11.045-6.626-3.953 3.86-6.93 13.855-7.15 9.386 4.641 8.963-8.482 12.169-4.944 7.93 6.35z" id="161561" data-name="Valea Teilor" class="comuna"/>
    <path d="M330.17 227.115l7.307 3.915 12.918-7.433 12.027 1.399.079 15.64 12.46 22.158-4.76 1.895-6.125-8.235-28.003 7.852-2.891-4.904-13.04 6.495-13.774-13.38-11.806 6.07-11.572-2.465-.604-7.616-5.962-4.497-9.847-8.136 11.32-3.691 1.81-6.156-11.886-8.898-7.53-3.592-2.478-15.73 9.482.154 6.952-8.038 3.115.047 19.989 30.651 15.459-1.213 17.36 7.708z" id="160387" data-name="Frecăței" class="comuna"/>
    <path d="M198.406 183.026l-2.703 4.461 2.916 20.923 9.368 14.71-3.86 6.93 6.626 3.953 7.61 11.046-8.508 1.632-6.754 10.366 12.079 21.644-7.91.865 4.696 10.435-8.556 5.34-3.262-16.157-11.65 2.567-7.68-10.673-3.652-20.677 4.041-5.052-11.147-15.017-4.194-10.58-11.403-14.242-11.505-.879-8.471-12.401 11.4-10.833 8.812 2.984 2.755-11.03 9.296 2.754 8.217-8.621 3.333-.564 11.14 12.451 8.966 3.665z" id="160476" data-name="Hamcearca" class="comuna"/>
    <path d="M165.866 219.743l4.194 10.579 11.147 15.017-4.041 5.052 3.652 20.677 7.68 10.673 11.65-2.567 3.262 16.156-3.75 15.984-8.837 12.443 3.723 2.507-10.956 8.348-10.94-7.83-1.758-9.945-7.756 2.978-9.526-3.076-4.477 9.767-11.069 3.802-18.877 1.437-1.203 6.625-14.205-.509 5.33-17.726.243-10.788-12.099-5.334-5.845-25.29 8.511-1.84 8.846-10.76-2.905-8.172 13.284-5.374 1.656-9.042 5.908-3.427 4.072-8.86 9.129 5.237 10.531.034 8.26-4.926 7.166-11.85z" id="160127" data-name="Cerna" class="comuna"/>
    <path d="M73.122 41.221l-5.457 8.048 25.885 18.38-5.667 15.084 6.252 3.553 6.697-11.682 6.659 2.097-7.271 13.09-6.857-2.103-8.981 18.523 1.7 18.737 18.306 17.557 3.33 10.433 4.44 1.022 1.025 9.433-11.169-1.515-11.458-9.227-1.858-6.626-12.232-2.395-5.913-4.185-32.01-3.691 2.144-4.733 30.594-16.776-5.103-27.209-3.878-6.304-6.161-3.558-8.303-16.84-12.141 2.05 7.432-11.904 3.679-18.487 13.99 2.036 12.326 7.192z" id="160617" data-name="Jijila" class="comuna"/>
    <path d="M62.3 80.732l-9.881 5.4-32.376.043-6.91 1.409 1.645-29.878 3.65-7.807 16.329-13.206 12.049-4.7-3.679 18.487-7.432 11.903 12.14-2.049 8.304 16.84 6.161 3.558z" id="161525" data-name="I.C.Brătianu" class="comuna"/>
    <path d="M62.3 80.732l3.878 6.304 5.103 27.209-30.595 16.776-2.144 4.733L36.214 158l-23.848-10.58L1 136.396l1.518-14.3 4.687-10.515 5.929-23.996 6.909-1.409 32.376-.042 9.881-5.401z" id="161286" data-name="Smîrdan" class="comuna"/>
    <path d="M38.542 135.754l32.011 3.691 5.913 4.185 12.232 2.395 1.858 6.626 11.458 9.227 1.115 13.745-9.557 8.56-5.382.603-3.83 2.507-27.71-1.884 9.015-15.279-7.11-16.822-6.85 4.806L36.215 158l2.328-22.246z" id="159730" data-name="Măcin" class="oras"/>
    <path d="M81.757 220.04l-9.23-7.746-22.712-12.305 6.834-14.58 27.711 1.884 3.83-2.507 9.014 27.337-15.447 7.916z" id="159945" data-name="Carcaliu" class="comuna"/>
    <path d="M194.546 326.264l4.12 5.61-8.836 15.458 6.701 29.611-2.025 3.789-11.648.383-11.185-4.794-19.968 14.03-7.272.49-16.762-7.783-6.043-12.476-12.077-1.462 5.065-16.15 6.33-5.385-2.962-9.215 1.203-6.625 18.877-1.437 11.07-3.803 4.476-9.766 9.526 3.076 7.756-2.978 1.758 9.945 10.94 7.83 10.956-8.348z" id="160323" data-name="Dorobanțu" class="comuna"/>
    <path d="M125.242 437.842l-4.299 21.668-10.046 12.593-9.17-6.253-13.685-9.392-7.268-.427-13.085 5.738-17.248-6.242.669-10.681 9.308-18.244 4.652-15.51 13.465-9.777 29.078 6.946.935-11.548 10.755 3.639-.767 10.086 6.706 27.404z" id="160305" data-name="Dăeni" class="comuna"/>
    <path d="M196.531 376.943l6.782.565 11.83 14.021-4.358 2.962-2.035 10.854 16.323 13.377 3.256 8.525-4.76 9.12 8.918 3.793-.989 16.696-7.763 1.73-9.243-2.884-8.809 7.08-8.326-10.693-14.155-.752-7.446-3.002-11.04-15.301-13.432-1.099-4.497 3.433-12.832-1.12-8.713 3.594-6.707-27.404.768-10.086-10.755-3.64 1.003-27.592 12.077 1.462 6.043 12.476 16.762 7.784 7.272-.491 19.968-14.03 11.185 4.794 11.648-.383 2.025-3.789z" id="161384" data-name="Topolog" class="comuna"/>
    <path d="M218.363 245.048l4.165 5.325 4.014 25.882-10.646 5.743.714 6.65 8.538-.657 1.563 13.152 21.737 6.641-3.38 9.19-10.725-1.78-13.98-9.026 2.971 12.632-8.46.822-3.983-4.635-11.231-3.673 3.75-15.984 8.556-5.339-4.696-10.435 7.91-.865-12.08-21.644 6.755-10.366 8.508-1.633z" id="160528" data-name="Horia" class="comuna"/>
    <path d="M276.425 244.01l-1.214 7.655-7.247 12.77 9.276 4.229-2.75 8.16 6.474 22.48-1.341 10.848-6.195.876-7.126 9.685-21.142-3.38-.093-.36 3.381-9.189-21.737-6.641-1.563-13.152-8.538.658-.714-6.651 10.646-5.743 6.681-.844 4.465-6.795.815-9.853 8.626-1.306.342-15.637 2.912-10.358 12.128-3.826 5.31-10.508 11.885 8.898-1.81 6.156-11.32 3.691 9.849 8.136z" id="160564" data-name="Izvoarele" class="comuna"/>
    <path d="M245.067 316.974l.093.358-8.673 26.92 14.44 9.112-6.635 14.45 4.663 11.136 11.323-2.134 2.115 6.38-8.15 2.878-8.335-4.999-1.272 10.74 8.824 1.04 6.204 6.484 9.493-.103-1.26 8.671-12.37-2.44-3.372 6.513 15.715 14.66 11.126 1.755-9.411.045-3.956 13.252-3.35-6.86-10.957 2.736-10.599-4.294-8.236 6.886-8.918-3.793 4.76-9.12-3.256-8.525-16.323-13.377 2.035-10.854 4.359-2.962-11.831-14.021-6.782-.565-6.7-29.61 8.834-15.459-4.119-5.61-3.723-2.507 8.837-12.443 11.23 3.673 3.984 4.635 8.46-.822-2.971-12.632 13.98 9.026 10.724 1.78z" id="160225" data-name="Ciucurova" class="comuna"/>
    <path d="M366.769 435.928l-5.65-3.182-7.803 4.555-11.414-1.325-6.631-14.58-8.93-8.94-2.637-11.142-5.626-9.108-10.68-3.171 4.285-10.075 7.665-2.962 9.568-19.125 8.665 1.885 7.968-9.628 8.039-.625 4.906 3.954 11.034-3.615 11.004 7.797 7.038 12.407 14.437 8.787 1.479 6.61-10.535 4.988-7.656-10.31-7.646-.832-5.438 9.446 3.735 8.9.811 12.628-13.677-3.05-5.037 5.826 4.893 9.076 3.833 14.81z" id="159650" data-name="Babadag" class="oras"/>
    <path d="M476.276 365.23l18.195 48.352-46.024-.598-8.745-4.862-6.85-11.297-19.16 8.667-29.93 25.346 1.731 6.285.783 5.82-16.695 1.195-2.812-8.21-3.833-14.81-4.893-9.077 5.037-5.825 13.677 3.049-.811-12.627-3.735-8.901 5.438-9.446 7.646.831 7.656 10.311 10.535-4.987-1.48-6.611-14.436-8.787-7.038-12.407-11.004-7.797-11.034 3.615-4.906-3.954-3.745-24.662 2.939 6.332 17.893-.854 20.745 2.246-.817-14.177 4.892-25.913 16.99-2.887-2.917 7.767-.346 13.715 18.744 3.051 5.252-1.475 17.888 23.862 25.17 29.72z" id="161179" data-name="Sarichioi" class="comuna"/>
    <path d="M341.902 435.976l-.192 31.628 5.042 15.733 5.342 4.117 3.606 12.561-.807 14.481 3.652 4.482 10.414-2.075 10.48 13.169 6.203-3.096 2.33 13.18-13.747 1.125-4.749 5.004-29.53-8.957 2.303-4.236-36.46 7.672-6.856 4.017-4.634-2.39 2.517-12.63 9.986-4.778-.053-14.174-5.323-14.44-12.86.68-2.001-16.789-.97-15.788 5.924-3.626-4.11-8.055-16.183-5.284-5.597-5.815 3.956-13.252 9.41-.045 11.551-13.486 13.863 6.967 4.846 9.947 7.248-9.317 5.555-1.118 4.284-8.932 8.929 8.94 6.631 14.58z" id="159785" data-name="Baia" class="comuna"/>
    <path d="M265.629 441.692l5.597 5.815 16.182 5.284 4.111 8.055-5.925 3.626.97 15.788-7.663 8.139-10.013-1.129-1.275-8.936-6.927-6.513-1.6-6.111-14.168-3.396-1.247-9.021-12.173 3.563.989-16.696 8.236-6.886 10.599 4.294 10.957-2.736 3.35 6.86z" id="161348" data-name="Stejaru" class="comuna"/>
    <path d="M231.498 456.856l12.173-3.563 1.247 9.02 14.168 3.397 1.6 6.111-16.681-1.98-5.217 16.858-2.97 18.459-7.37 12-6.958 16.035 3.079 1.787-2.884 10.608 10.384 9.388-5.685 12.351-6.594 6.3-5.909-5.46-11.034-9.467-5.225-15.88-.125-11.43-6.227-6.84-7.408.907-16.818-2.872-1.323-10.196-15.873.29-8.638-9.494-1.988-13.967-18.21-10.014-2.29 6.73-14.03-2.28-2.965-17.804 9.17 6.253 10.046-12.593 4.3-21.668 8.712-3.594 12.832 1.12 4.497-3.433 13.432 1.099 11.04 15.3 7.446 3.003 14.155.752 8.326 10.694 8.81-7.08 9.242 2.882 7.763-1.73z" id="159963" data-name="Casimcea" class="comuna"/>
    <path d="M260.686 471.821l6.927 6.512 1.275 8.937 10.013 1.129 7.664-8.139 2 16.79 12.861-.682 5.323 14.441.052 14.174-9.985 4.778-2.517 12.63-21.445-1.997-2.801 17.811-3.59 1.312-26.03-8.698-15.864-15.84-3.08-1.786 6.96-16.036 7.368-12 2.97-18.458 5.218-16.858 16.681 1.98z" id="159847" data-name="Beidaud" class="comuna"/>
    <path d="M301.182 367.037l1.005 7.287 9.496 4.637-4.284 10.074 10.679 3.171 5.626 9.108 2.638 11.142-4.284 8.932-5.555 1.118-7.248 9.317-4.846-9.947-13.863-6.967-11.55 13.486-11.126-1.754-15.715-14.66 3.372-6.514 12.37 2.44 1.26-8.67-9.493.102-6.204-6.484-8.824-1.04 1.272-10.74 8.336 4.999 8.149-2.878-2.115-6.38-11.323 2.134-4.663-11.136 10.516-5.492 28.328-1.94 9.962-2.054 8.084 8.71z" id="161259" data-name="Slava Cercheză" class="comuna"/>
    <path d="M349.843 323.843l3.745 24.662-8.039.625-7.968 9.628-8.665-1.885-9.568 19.125-7.665 2.963-9.496-4.637-1.005-7.287-3.651-20.464-8.856-4.835.458-7.614 14.185-17.964 7.84-5.032 2.627 9.661 9.31 1.41 7.451-4.18 18.43.386.867 5.438z" id="160831" data-name="Mihai Bravu" class="comuna"/>
    <path d="M136.749 77.928l-8.415 2.734-11.382 18.326-3.68 11.498 1.716 11.912-3.993 10.83 1.163 20.732-4.44-1.022-3.33-10.433-18.307-17.557-1.7-18.737 8.982-18.523 6.857 2.102 7.27-13.089 11.262 7.208 7.315-12.003 10.682 6.022z" id="161543" data-name="Văcăreni" class="comuna"/>
    <path d="M148.107 79.688L158.67 99.35l7.817 8.438 19.212 7.91-5.116 10.345-2.033 19.052-6.128 9.096 2.546 13.282-8.217 8.62-9.296-2.753-2.755 11.03-8.812-2.984-11.4 10.833-4.982-5.318-6.03-18.721-10.292-4.788-1.025-9.433-1.163-20.731 3.993-10.831-1.715-11.912 3.68-11.498 11.381-18.326 8.415-2.734 11.358 1.76z" id="160680" data-name="Luncavița" class="comuna"/>
    <path d="M366.769 435.928l2.812 8.21 16.695-1.195-.783-5.82 10.677 1.31 6.893 47.836 16.767 38.473 6.27 10.919-15.727 18.518-16.653-1.468-5.747-12.554-2.33-13.181-6.204 3.096-10.48-13.17-10.414 2.076-3.652-4.482.807-14.481-3.606-12.56-5.342-4.118-5.042-15.733.192-31.628 11.414 1.325 7.803-4.555 5.65 3.182z" id="160092" data-name="Ceamurlia de Jos" class="comuna"/>
    <path d="M374.962 262.794l3.485 10.292 7.658-3.642 4.296 5.02 5.094 17.013-4.892 25.913.817 14.177-20.745-2.246-17.893.854-2.939-6.332-.866-5.438-18.43-.386-7.451 4.18-9.31-1.41-2.628-9.66-7.84 5.031.244-18.686 5.909-7.249 4.903-15.595 5.768-8.733 13.04-6.495 2.89 4.904 28.004-7.852 6.124 8.235 4.762-1.895z" id="160877" data-name="Mihail Kogălniceanu" class="comuna"/>
    <path d="M494.471 413.582l4.18 30.458 1.782 27.633 4.52 26.703-15.207 20.89-15.6-8.415-16.045-2.44-6.598 7.909-10.696 6.391-14.707 12.95-6.27-10.919-16.767-38.473-6.893-47.835-10.677-1.311-1.73-6.285 29.928-25.346 19.161-8.667 6.85 11.297 8.745 4.862 46.024.598z" id="160644" data-name="Jurilovca" class="comuna"/>
    <path d="M117.984 338.37l2.962 9.216-14.374 10.767-12.166-3.643-.542-7.95-11.54-3.268-4.195-5.585-7.427-22.602 1.197-7.052 9.408-9.702-5.762-13.2 15.863-6.627 5.845 25.289 12.1 5.334-.244 10.788-5.33 17.726 14.205.509z" id="161151" data-name="Peceneaga" class="comuna"/>
    <path d="M120.946 347.586l-6.33 5.385-5.065 16.15-1.003 27.592-.936 11.548-29.077-6.946 1.657-6.183-7.203-7.098-1.618-11.856 1.729-13.172 9.224-19.514 11.54 3.268.542 7.95 12.166 3.644 14.374-10.768z" id="161106" data-name="Ostrov" class="comuna"/>
    <path d="M771.706 143.254l-2.221 6.143 7.187 28.03 4.336 5.377 14.708-.784L799 187.44l-8.172 19.516-3.23 14.78-1.178 19.375-7.895-2.406-2.958 8.92-16.18 13.37-30.68 5.465-9.165-4.386-6.144-14.26-11.674.489-3.826 10.398-15.582-2.871-9.868-11.858-8.105-22.124 6.71-4.15 1.124-8.369 6.292-8.865 7.163-20.482 12.88-.169 5.92-23.289-3.2-5.535 9.172-7.51 34.096-5.712 7.852-4.513 17.042 2.455 2.312 7.543z" id="159767" data-name="Sulina" class="oras"/>
    <path d="M771.706 143.254l-2.312-7.544-17.042-2.455-7.852 4.513-34.096 5.712-9.173 7.51-7.813-8.104-13.153 3.606-13.481 7.826 24.235-62.69 8.612-18.242 16.358-47.165 4.873-6.122 23.4 12.372 20.278 22.59 10.4 9.098 10.172 22.731 5.037 23.33-7.662 12.132 7.559 28.067-18.34-7.166z" id="159883" data-name="C.A. Rosetti" class="comuna"/>
    <path d="M320.142 265.897l-5.768 8.733-4.904 15.595-5.908 7.249-.244 18.686-14.185 17.964-.458 7.614 8.856 4.835 3.65 20.464-8.083-8.709-9.962 2.053-28.328 1.941-10.516 5.492 6.635-14.45-14.44-9.112 8.673-26.92 21.142 3.381 7.126-9.685 6.195-.876 1.341-10.848-6.474-22.48 2.75-8.16-9.276-4.229 7.247-12.77 1.214-7.656 5.961 4.497.604 7.616 11.572 2.466 11.806-6.07 13.774 13.38z" id="160993" data-name="Nalbant" class="comuna"/>
    <path d="M126.708 240.108l-5.908 3.427-1.656 9.042-13.284 5.374 2.905 8.172-8.846 10.76-8.51 1.84-15.864 6.628L71.6 269.54l-.103-10.834 15.86-1.463 4.49-5.772-2.693-11.783 10.112-9.542-10.822-4.388 13.87-11.199 13.98 21.157 10.415 4.392z" id="161464" data-name="Turcoaia" class="comuna"/>
    <path d="M113.183 163.393l10.292 4.788 6.03 18.721 4.982 5.318 8.471 12.401 11.506.88 11.402 14.242-7.165 11.85-8.26 4.926-10.532-.034-9.129-5.237-4.072 8.86-10.414-4.392-13.982-21.157-13.869 11.199-6.686-5.719 15.447-7.916-9.014-27.337 5.382-.603 9.557-8.56-1.115-13.745 11.169 1.515z" id="160430" data-name="Greci" class="comuna"/>
  </g>
</svg>
