<svg xmlns="http://www.w3.org/2000/svg" version="1.2" baseProfile="tiny" stroke-linecap="round" stroke-linejoin="round" viewBox="0 0 800 523">
  <g id="TM" fill="none" stroke="#aaa">
    <path d="M360.982 468.416l-4.773 1.484 5.144 19.681-3.037 8.106-16.65-4.02-6.407 6.19-6.684-6.34-11.227-6.404-7.164-6.515 2.395-4.89-5.93-6.414-3.464-12.925 6.346-1.72 11.618 4.54 4.627 4.62 18.627-6.129 5.703-6.038 10.876 16.774z" id="157781" data-name="Moravița" class="comuna"/>
    <path d="M346.036 413.5l3.003 5.747 14.046 17.82-12.979 14.575-5.703 6.038-18.627 6.13-4.627-4.62-11.618-4.54-6.346 1.719-1.245-6.545-.346-8.896 6.48-2.264 8.07-15.572 7.42-.043 11.94-7.873 10.532-1.677z" id="156669" data-name="Denta" class="comuna"/>
    <path d="M323.89 399.435l4.784 3.777 13.722-2.966 11.275 7.536-7.635 5.717-10.532 1.677-11.94 7.873-7.42.043-8.688-13.102 4.629-2.712-4.451-9.904 7.907 3.2 8.35-1.14z" id="155458" data-name="Deta" class="oras"/>
    <path d="M255.336 385.469l-.938 21.476-6.54-.226-2.67 25.884-1.734 6.26-3.664-.364-5.978-8.21-7.352-5.177-3.783-9.71-4.375-3.835-4.792-12.638-7.036-.185-12.333-8.172 6.19-6.967 10.48-2.527 4.802-7.452 2.666 4.748 7.827-3.045 4.636 12.37 7.626-2.326 5.148 1.25 7.192-2.827 4.628 1.673z" id="157273" data-name="Giera" class="comuna"/>
    <path d="M371.021 371.233l-1.412 8.229 4.89 1.637 2.38 24.947-5.134 2.478 3.524 11.71-4.23 2.657 1.594 6.025-9.548 8.151-14.046-17.82-3.003-5.748 7.635-5.717-11.275-7.536 2.224-9.8 3.896-1.23 9.511-9.344.346-5.877 4.392-3.002 8.256.24z" id="159366" data-name="Birda" class="comuna"/>
    <path d="M406.403 380.059l1.407 14.129 7.798 13.622-9.928 1.428-7.467 3.628 1.243 8.512 14.651 19.48 3.127 1.519-1.456 3.747-8.134 3.07-3.825-4.985-5.845 1.365-7.802 12.267-6.794-2.574-7.991 3.171 1.055 5.003-15.46 4.975-10.876-16.774 12.98-14.575 9.546-8.151-1.593-6.025 4.23-2.656-3.524-11.711 5.135-2.478-2.381-24.947-4.89-1.637 1.412-8.23 15.108-1.285 7.533 4.152 7.052 7.788 5.69-1.828z" id="157086" data-name="Gătaia" class="oras"/>
    <path d="M313.17 371.883l-.65 9.795 13.213 5.431-1.842 12.326-8.35 1.139-7.907-3.2-4.837-1.24-16.124 7.211-9.34 1.208-5.137-3.976-6.515-17.866-9.118-2.095-1.227 4.853-4.628-1.673-7.192 2.828-5.148-1.25-7.626 2.326-4.636-12.37-7.827 3.044-2.666-4.748 4.224-.785 10.306-1.762 4.121 2.682 9.572-5.24 3.59-4.888 5.657 2.8 12.844-3.111 21.346 1.99 5.04 4.623 7.667 2.854 7.05-7.058 6.14 6.152z" id="159400" data-name="Ghilad" class="comuna"/>
    <path d="M362.765 370.993l-4.392 3.002-.346 5.877-9.51 9.343-3.897 1.232-2.224 9.8-13.723 2.965-4.782-3.777 1.842-12.326-13.213-5.431.65-9.795 8.505.296 6.032-7.83 6.77 1.484 9.706-1.976-1.582-8.547 15.614-3.057 6.841-1.368 1.626 12.021-3.917 8.087z" id="159339" data-name="Voiteg" class="comuna"/>
    <path d="M204.528 346.244l5.783 3.954-2.336 5.387 1.412 7.015 5.547-1.255 6.49 8.805-1.587 2.69-4.224.786-4.803 7.452-10.48 2.527-7.03-10.588-9.165-7.35-21.974-1.131 2.386-5.219-2.672-5.015 13.001-6.688 12.308.883 5.712-15.339 11.632 13.086z" id="157004" data-name="Foeni" class="comuna"/>
    <path d="M446.974 357.742l2.629 7.813-8.334 7.205-15.903-2.435-19.137 7.663.174 2.07-5.689 1.829-7.052-7.788-7.533-4.152-15.108 1.286-8.256-.24 3.917-8.087-1.626-12.021 4.886-4.589 20.666-5.563 11.636-8.103 4.897-3.435 6.412 4.247 7.958-.077 6.32 3.252 5.828 11.592 6.583 1.715 6.732 7.818z" id="159035" data-name="Tormac" class="comuna"/>
    <path d="M358.215 352.253l-15.613 3.057 1.581 8.547-9.706 1.976-6.77-1.484-1.786-7.575-4.645.367-2.677-10.972-10.112-6.549 3.156-3.715-5.554-9.61.718-1.77 20.276.183 3.087-5.642 3.622 6.95 6.916 1.133.502 5.923 12.02-5.703 4.985 24.884z" id="157424" data-name="Jebel" class="comuna"/>
    <path d="M306.089 326.295l5.554 9.61-3.156 3.715 10.112 6.549 2.677 10.972 4.645-.367 1.786 7.575-6.032 7.83-8.505-.296-6.14-6.152-7.05 7.058-7.667-2.854-5.04-4.623-21.346-1.99-12.844 3.112-5.657-2.801 9.036-3.877-5.42-9.27 9.335-9.616-14.551-15.015 9.581 2.013 11.098-.175 2.06-5.644 8.52-6.797 11.273-3.53 4.073 11.794 8.21 3.518 5.448-.739z" id="156357" data-name="Ciacova" class="oras"/>
    <path d="M415.452 312.283l9.2 3.33 12.25-1.055 6.875-.514 14.612 18.52-1.065 7.265-7.355 5.888-2.995 12.025-6.732-7.818-6.583-1.715-5.827-11.592-6.321-3.252-7.958.077-6.412-4.247 5.129-12.3-8.146-1.25-3.176-6.955 14.504 3.593z" id="157923" data-name="Nițchidorf" class="comuna"/>
    <path d="M245.826 325.855l14.55 15.015-9.335 9.615 5.421 9.271-9.036 3.877-3.59 4.888-9.572 5.24-4.12-2.682-10.307 1.762 1.587-2.691-6.49-8.805-5.547 1.255-1.412-7.015 2.336-5.387-5.783-3.954 9.521-4.859 6.81-11.873-4.687-2.437 2.79-6.457-6.232-4.936-3.58-7.239 4.108-2.145 4.918-1.024 4.192 6.965 7.308 6.004 10.463-3.75 5.687 11.362z" id="157317" data-name="Giulvăz" class="comuna"/>
    <path d="M402.244 332.63l-11.636 8.103-20.666 5.563-4.886 4.589-6.84 1.368-4.986-24.884-12.02 5.703-.502-5.923-6.916-1.133-3.622-6.95 2.187-2.07 16.976-1.723 5.105-6.121-6.192-6.7 1.59-5.332 18.974-5.448 8.748 7.981-7.604 6.354 3.821 16.036-.303 6.032 9.688-3.027 17.491 5.293 1.593 2.289z" id="157497" data-name="Liebling" class="comuna"/>
    <path d="M209.15 308.443l3.58 7.24 6.232 4.935-2.79 6.457 4.688 2.438-6.811 11.872-9.521 4.859-11.632-13.086-5.712 15.34-12.308-.884 10.65-10.155-4.299-7.575-1.694-9.033-5.869-10.13 4.691-4.351-1.754-9.731 12.545-7.226 1.096 5.197 17.447-6.708 3.39 5.16-5.554 10.122 3.626 5.26z" id="159525" data-name="Otelec" class="comuna"/>
    <path d="M602.734 298.09l10.205 9.533 4.88 7.806 12.106 5.584 7.45.284.933 6.095-11.79 11.39-9.84-10.26 1.05 8.932-1.632 10.874-8.814.796-3.436-10.026-.949-12.65-5.127-.268-8.156-10.645-.97-5.91-10.909 1.555-5.468-8.766 4-6.741 6.067-7.167 5.368-1.684 7.118 3.404.536 3.728 7.378 4.137z" id="157031" data-name="Gavojdia" class="comuna"/>
    <path d="M349.837 297.12l-1.591 5.332 6.192 6.7-5.105 6.12-16.976 1.723-2.187 2.071-3.087 5.642-20.276-.183.674-12.686 3.252-.31 3.241-15.97 11.962-6.419 16.12 1.15 4.44-5.331 3.34 12.161z" id="159446" data-name="Pădureni" class="comuna"/>
    <path d="M510.103 348.086l-.619-3.741-7.035-5.603-8.74-1.053-2.03-4.786-9.105-6.418 4.6-14.367 8.049-5.468.113-9.541 28.173-3.43-3.203-10.177 18.437-2.105-1.344 16.163-2.511 12.045 1.575 17.219-15.172 8.691-5.477 9.405-5.71 3.166z" id="156623" data-name="Darova" class="comuna"/>
    <path d="M632.543 299.614l11.519 14.234 13.812-4.452-4.305 8.078-3.769 9.593-8.45 2.686-3.042-2.36-.933-6.096-7.45-.284-12.107-5.584-4.879-7.806-10.205-9.532 6.25-10.285-1.245-4.722 5.624-5.02 7.818 7.261 1.686 10.084 6.804 7.4 2.872-3.195z" id="156534" data-name="Criciova" class="comuna"/>
    <path d="M700.045 285.21l3.317.694 15.438 10.832-4.829.679-6.97 11.383-2.988 15.844-2.606 2.56-4.934 7.302-5.447-.752-6.033-9.071-7.276-.998-10.437-6.358-7.04 6.369-5.955-.431-.716-5.788 4.305-8.08-13.813 4.453-11.518-14.234 5.032-11.654 5.64-1.574-.474-5.239 8.51-1.983 5.252 7.884 5.582.747 14.612-10.808 8.89-1.495 6.006 3.95-1.182 4.545 9.634 1.223z" id="157898" data-name="Nădrag" class="comuna"/>
    <path d="M480.332 295.976l3.803 13.725 3.04 2.417-4.601 14.367-6.965 2.205-7.497 5.801-9.723-1.927-14.612-18.52-6.874.514 4.85-11.868-6.978-8.522-9.867-18.86 7.338-6.013 14.558 10.926 7.049-1.573 1.139 5.492 23.968-2.781 1.372 14.618z" id="155403" data-name="Buziaș" class="oras"/>
    <path d="M415.452 312.283l-14.504-3.594 3.176 6.957 8.146 1.25-5.13 12.299-4.896 3.435-1.593-2.29-17.49-5.292-9.69 3.027.304-6.032-3.821-16.036 7.604-6.354-8.748-7.98-18.973 5.447-3.34-12.161 3.248-6.84 14.137-8.148 4.114 3.825 21.513-6.91 3.583 5.09 14.502 2.119 2.232 30.767 6.135-1.916-.51 9.337z" id="158449" data-name="Sacoșu Turcesc" class="comuna"/>
    <path d="M272.682 281.355l2.9 7.58 4.802-2.158 5.168 12.49-4.159 4.276-4.307 11.709-8.521 6.797-2.06 5.644-11.098.175-9.581-2.013-5.688-11.363-10.462 3.75-7.308-6.003-4.191-6.965-4.92 1.024-3.3-5.224 12.4-10.773 4.667 5.27 5.732-5.064-6.808-3.897-3.301-9.67 19.564-4.419 9.072-6.905 3.38 5.68 10.154 8.68 7.865 1.379z" id="158065" data-name="Peciu Nou" class="comuna"/>
    <path d="M309.77 266.295l15.273 8.997-3.952 11.46 4.845 2.388-11.962 6.419-8.43 1.59.022-6.96-9.367-2.868-6.738-13.087 11.48-9.86 4.643-.018 4.186 1.94z" id="158779" data-name="Șag" class="comuna"/>
    <path d="M429.684 253.075l2.562 16.22-7.338 6.012 9.867 18.861 6.979 8.522-4.851 11.868-12.25 1.055-9.201-3.33.509-9.337-6.135 1.916-2.232-30.767-14.502-2.12-3.583-5.09 4.666-10.515 11.476-1.266 5.621-1.143 12.04 1.772 6.372-2.658z" id="156311" data-name="Chevereșu Mare" class="comuna"/>
    <path d="M530.08 257.39l6.73-.902 9.173 11.744-5.53 13.001-1.71.164-18.437 2.105 3.203 10.178-28.173 3.428-.113 9.542-8.048 5.468-3.04-2.417-3.803-13.725 6.925-2.343 12.17-15.092-3.57-9.237 6.942-3.41 2.145-5.807-1.653-10.02 21.908 3.407 4.881 3.916z" id="156106" data-name="Boldur" class="comuna"/>
    <path d="M348.033 254.917l-1.459 12.848 3.171 10.354-3.249 6.84-4.44 5.33-16.12-1.149-4.845-2.387 3.952-11.461-15.273-8.997 7.107-11.04 5.857.494 4.725-5.24 6.682-1.27 13.892 5.678z" id="155314" data-name="Giroc" class="comuna"/>
    <path d="M248.616 247.45l3.677 2.166 2.255 12.021-3.265 3.979-9.072 6.905-19.564 4.418 3.3 9.67 6.809 3.898-5.732 5.064-4.667-5.27-12.4 10.773 3.3 5.224-4.106 2.145-3.626-5.259 5.554-10.121-3.39-5.16-17.447 6.707-1.096-5.197-12.545 7.226 1.754 9.73-4.69 4.353-8.422 1.898-1.423-15.145 5.117-4.794 3.932-11.397 5.998-5.632 17.488-16.01 6.357-.294 5.373 4.752 13.968 3.056 2.469-12.45 11.1-1.171 6.479-7.519 6.515 1.434z" id="159142" data-name="Uivar" class="comuna"/>
    <path d="M611.036 249.464l-9.304 13.663 5.914 9.42 5.717 5.518-5.624 5.019 1.245 4.722-6.25 10.285-7.378-4.137-.536-3.728-7.118-3.404-5.368 1.684-6.067 7.167-17.811-3.574-.934-6.212-4.665-3.91-12.404-.744 5.53-13.001 23.189-12.175 2.325 4.606 9.518 6.039 8.132-12.647 6.979-.55 6.338-5.868 6.927-4.508 1.645 6.335z" id="155350" data-name="Lugoj" class="municipiu"/>
    <path d="M450.69 241.058l1.745 3.376 14.27 3.471 6.885-1.013 6.3 2.298 17.33.885 6.07-.009 1.654 10.021-2.145 5.807-6.941 3.41 3.57 9.237-12.171 15.092-6.925 2.344-1.372-14.618-23.968 2.78-1.14-5.49-7.048 1.572-14.558-10.926-2.562-16.22 10.74-1.428 10.266-10.59z" id="158243" data-name="Racovița" class="comuna"/>
    <path d="M305.584 264.356l-4.643.018-11.48 9.86-11.39 2.541-5.39 4.58-7.864-1.38-10.154-8.68-3.38-5.68 3.265-3.978-2.255-12.021-3.677-2.166 12.869-4.747 6.911-.5 7.743 3.985 14.2-.347 4.433-3.66 8.77-3.076-.56 13.445 2.601 11.806z" id="158699" data-name="Sînmihaiu Român" class="comuna"/>
    <path d="M642.42 250.416l3.048 4.04-1.16 8.453 6.774 7.77.169 8.485-8.51 1.983.475 5.239-5.64 1.574-5.033 11.654-2.872 3.196-6.804-7.4-1.686-10.085-7.818-7.26-5.717-5.518-5.914-9.42 9.304-13.663 16.551-1.566 2.098-7.837 5.666 7.498 7.07 2.857z" id="155957" data-name="Bîrna" class="comuna"/>
    <path d="M702.393 244.047l6.746 8.246.843 7.608-10.72 15.768.783 9.541-9.634-1.223 1.182-4.545-6.006-3.95-8.89 1.495-14.612 10.808-5.582-.747-5.252-7.885-.169-8.483-6.773-7.772 1.16-8.452-3.049-4.04 6.443-13.255 18.51-4.188 2.526 2.103 9.17-6.345 8.3 2.308 5.98-1.314 2.861 13.648 6.183.674z" id="156927" data-name="Fîrdea" class="comuna"/>
    <path d="M374.782 229.029l3.234 13.273 3.167 6.39 6.811-2.35 6.181 10.028-4.666 10.516-21.513 6.91-4.114-3.825-14.137 8.148-3.17-10.354 1.458-12.848 4.097-5.977 3.29-11.787 19.362-8.124z" id="157834" data-name="Moșnița Nouă" class="comuna"/>
    <path d="M566.113 228.118l7.443 10.45 10.758-.625 6.555 3.615 5.076-1.514 6.52 7.593-6.339 5.868-6.98.55-8.131 12.647-9.518-6.04-2.325-4.605-23.19 12.175-9.171-11.745-6.73.903 5.525-3.208 7.269-17.715-4.246-5.793 2.278-5.088 6.856-1.81 13.377.436 4.973 3.906z" id="156473" data-name="Coșteiu" class="comuna"/>
    <path d="M405.651 255.104l-11.476 1.266-6.18-10.027-6.812 2.349-3.167-6.39-3.234-13.273.481-3.713 23.641 2.027 5.438-3.418 2.802 6.772-5.26 22.16 3.767 2.247z" id="159516" data-name="Bucovăț" class="comuna"/>
    <path d="M224.326 215.956l8.899 13.003 2.447 10.583 6.429 6.474-6.479 7.519-11.1 1.172-2.47 12.45-13.968-3.057-5.373-4.752-6.356.294 1.648-8.447 4.201-1.845-2.638-6.94 3.629-2.639-.046-6.993 9.484-17.124 11.693.302z" id="156277" data-name="Cenei" class="comuna"/>
    <path d="M731.634 216.134l-1.947 8.91 7.726 25.936 2.182 9.952 10.072 6.392.547 8.136 4.374 3.249 1.98 8.854-3.507 6.57-2.605 2.524-8.18-2.536-9.073.103-14.403 2.512-15.438-10.832-3.317-.694-.784-9.54 10.721-15.77-.843-7.607-6.746-8.246-.007-21.367 14.685-9.316 7.505 6.787 7.058-4.017z" id="158895" data-name="Tomești" class="comuna"/>
    <path d="M192.612 209.016l15.676 2.766 4.345 3.871-9.484 17.125.046 6.993-3.629 2.638 2.638 6.941-4.201 1.845-1.648 8.447-17.488 16.01-2.303-15.176 2.137-7.422 1.49-18.069 5.648-6.93 2.572-11.51 4.2-7.529z" id="159375" data-name="Checea" class="comuna"/>
    <path d="M617.103 207.004l2.305 8.064 11.124 1.646-.36 2.475 9.41 11.655 9.28 6.317-6.442 13.255-7.07-2.857-5.665-7.498-2.098 7.837-16.55 1.566-1.646-6.335-6.927 4.508-6.52-7.593 7.436-7.292-9.339-19.836 13.436-4.935 5.003 2.774 4.623-3.751z" id="159071" data-name="Traian Vuia" class="comuna"/>
    <path d="M539.225 202.772l-2.927 6.009 1.867 13.541 9.598 1.454-6.856 1.81-2.278 5.088 4.246 5.792-7.27 17.715-5.525 3.209-4.88-3.916-21.91-3.408-6.07.009 7.463-20.514 10.022.294 9.697-2.047-.784-15.886 11.202-10.106 4.405.956z" id="155797" data-name="Belinț" class="comuna"/>
    <path d="M374.337 206.4l2.156 5.05-1.23 13.866-.481 3.713-19.362 8.124-7.385-7.878.34-6.191 5.116-9.035-1.455-8.275 15.137-3.657 7.164 4.283z" id="155289" data-name="Ghiroda" class="comuna"/>
    <path d="M747.639 197.026l2.848 3.177 8.89-.32 13.542 14.82 1.364 16.608 6.729 4.96 12.264-7.857L799 240.111l-4.03 5.362-12.489 12.013-4.621.462-8.678 5.33-1.623 4.46 1.086 11.233-1.65 4.733-10.428 3.86-1.979-8.855-4.374-3.25-.548-8.135-10.071-6.392-2.182-9.952-7.726-25.936 1.947-8.91 4.902-4.418 1.059-8.788 9.66-6.301.384.399z" id="158136" data-name="Pietroasa" class="comuna"/>
    <path d="M273.536 212.555l.048 8.96 7.701 1.976 10.173-4.17.507-5.206 12.442 4.501-.618 12.248-9.017 11.317-4.433 3.66-14.2.347-7.743-3.984-6.911.5-12.869 4.746-6.515-1.434-6.43-6.474-2.446-10.583-8.9-13.004 6.309-3.063.346-7.59 5.472 1.418 4.77-8.597 18.166-3.572 6.01 9.532-.812 6.049 8.95 2.423z" id="158564" data-name="Săcălaz" class="comuna"/>
    <path d="M314.247 195.347l6.35-.027 11.454 3.562-10.91 8.076 3.433 6.84 3.91.085 9.07 7.134 7.07-12.141 8.867 5.173-5.115 9.035-.341 6.191 7.385 7.878-3.29 11.787-4.097 5.977-13.892-5.678-6.682 1.27-4.725 5.24-5.857-.494-7.107 11.04-4.186-1.94-2.601-11.805.559-13.445-8.77 3.076 9.017-11.317.618-12.248-12.442-4.501-1.086-3.478 5.873-9.715-.074-4.443 17.569-1.132z" id="155243" data-name="Timișoara" class="municipiu resedinta"/>
    <path d="M474.264 191.932l7.45 8.868 2.87 8.528 10.746.37-.658 3.368 5.548 12.22 4.463 4.275-7.463 20.514-17.33-.885-6.3-2.298-6.884 1.013-14.27-3.47-1.746-3.377 1.149-4.468-5.104-4.971 4.93-15.448 14.087-5.067 1.327-18.473 7.185-.699z" id="158966" data-name="Topolovățu Mare" class="comuna"/>
    <path d="M679.07 228.73l-9.17 6.346-2.527-2.103-18.51 4.188-9.28-6.317-9.411-11.655.36-2.475 4.107-9.784-3.97-16.595 3.966-.826 9.534-.887 3.448 10.679 7.161 15.018 4.016 3.69 6.125-1.513 10.218 7.105 3.933 5.13z" id="156767" data-name="Dumbrava" class="comuna"/>
    <path d="M736.164 185.059l1.303 3.787 9.788 7.78-9.66 6.302-1.059 8.788-4.902 4.418-7.058 4.017-7.505-6.787-14.685 9.316-6.318-7.33 9.36-1.982 4.747-5.93-3.49-4.606 7.523-9.713 12.8-6.97 8.911-1.847.245.757z" id="156589" data-name="Curtea" class="comuna"/>
    <path d="M573.713 196.786l.249 9.469-2.066 5.963 4.92 9.195-10.276 1.888-.427 4.817-4.973-3.906-13.377-.436-9.598-1.454-1.867-13.541 2.927-6.009 10.146-3.342.616-8.624 5.756-1.554 2.77-5.622 8.234 8.932 6.966 4.224z" id="155546" data-name="Balinț" class="comuna"/>
    <path d="M241.614 190.578l-.393 7.545-4.769 8.597-5.472-1.418-.346 7.59-6.308 3.064-11.693-.302-4.345-3.873-15.676-2.765 13.503-14.948 3.943 3.424 4.774-5.276 16.184-11.85 10.598 10.212z" id="156213" data-name="Cărpiniș" class="comuna"/>
    <path d="M613.014 183.47l2.557 8.703-.793 8.54 2.325 6.29-4.623 3.752-5.003-2.774-13.436 4.935 9.34 19.836-7.436 7.292-5.076 1.514-6.555-3.614-10.758.623-7.443-10.45.427-4.816 10.276-1.888-4.92-9.195 2.066-5.963-.249-9.47 7.197-3.973 3.769-8.048 2.748-12.569 6.424 4.977 8.066 2.593 3.116 12.543 7.98-8.837z" id="155840" data-name="Bethausen" class="comuna"/>
    <path d="M510.538 169.557l.055 6.838 6.219 2.965 5.747-3.734 14.163 11.759 3.719.592 8.534-7.836 1.012 10.665-.615 8.624-10.147 3.342-4.404-.956-11.203 10.106.784 15.886-9.697 2.047-10.022-.294-4.463-4.276-5.548-12.219.658-3.368 7.069-5.106-10.33-13.612-.617-3.456 7.154-8.47 3.123-8.006 8.81-1.49z" id="157193" data-name="Ghizela" class="comuna"/>
    <path d="M428.573 172.456l.829 9.201-2.213 7.499-6.391 5.272-5.722.575-11.653 5.73.003 6.142-5.575.64 6.49 16.41-5.437 3.418-23.64-2.027 1.229-13.866-2.156-5.05 3.059 1.956 9.369-6.098-4.594-6.667 11.535-15.461 8.769-.018 10.58-10.571 9.34 4.333 6.178-1.418z" id="158396" data-name="Remetea Mare" class="comuna"/>
    <path d="M393.706 180.13l-11.535 15.461 4.594 6.667-9.37 6.097-3.058-1.955-7.164-4.283-15.137 3.657-7.015-6.065-4.19 2.768 1.953-10.227-6.905-8.338 1.027-9.879 3.12-2.262 3.204 5.555 8.805 2.47 2.501-4.572 9.26-5.862 8.931 2.702 4.094-3.634 8.157 8.881 5.903-1.978 2.825 4.797z" id="157246" data-name="Giarmata" class="comuna"/>
    <path d="M631.22 166.616l1.695-.006 1.72 22.899-3.965.826 3.97 16.595-4.108 9.784-11.124-1.646-2.305-8.064-2.324-6.29.792-8.54-2.557-8.703 2.532-9.746-1.65-7.374 17.323.265z" id="157736" data-name="Mănăștiur" class="comuna"/>
    <path d="M231.016 180.366l-16.184 11.85-4.774 5.276-3.943-3.424-11.045-10.81 7.87-11.772-.07-9.523 10.224-2.351 3.068 8.747 9.148 2.442 5.706 9.565z" id="159428" data-name="Iecea Mare" class="comuna"/>
    <path d="M690.945 173.66l-3.73 13.335 2.705 3.112-7.92 5.773 7.183 11.015 3.375-.42 3.51 8.876 6.318 7.33.007 21.365-6.183-.673-2.86-13.648-5.98 1.314-8.3-2.308-3.933-5.13-10.218-7.105-6.125 1.514-4.016-3.691-7.161-15.018-3.447-10.68-9.535.888-1.72-22.899-1.696.006 3.922-8.38 3.97.747 3.702-7.044 9.528 5.022 2.24 5.428 7.821.937 5.89-3.273 10.022 3.761 6.293 9.607 6.338.24z" id="156801" data-name="Făget" class="oras"/>
    <path d="M470.05 152.277l1.13 14.605 2.913 10.397 4.475 6.995-4.304 7.658-7.185.7-1.327 18.472-14.086 5.066-4.93 15.449 5.103 4.971-1.15 4.468-10.265 10.59-10.74 1.427-6.373 2.658-12.039-1.772-5.62 1.143-3.767-2.248 5.259-22.159-2.802-6.772-6.49-16.41 5.574-.64-.003-6.141 11.653-5.731 5.722-.575 6.391-5.272 2.213-7.499-.83-9.2 4.006-1.02.93-8.382 6.92-3.264 3.95-8.216 13.365-3.401 12.307 4.103z" id="158314" data-name="Recaș" class="oras"/>
    <path d="M264.015 165.98l-1.747 3.774-20.654 20.824-10.598-10.212-5.706-9.565-9.148-2.442-3.068-8.748 8.025-3.256 1.67 4.905 17.225-13.095 6.785-2.996 10.044 9.356 7.172 11.455z" id="155911" data-name="Biled" class="comuna"/>
    <path d="M587.427 172.195l-2.748 12.569-3.77 8.048-7.196 3.974-6.966-4.224-8.233-8.932-2.771 5.622-5.756 1.554-1.012-10.665 6.618-9.445 1.418-5.935-1.966-18.422 7.647-5.497 10.014 2.217 5.324-3.75-2.085 9.094 2.686 10.36 9.573-3.243 5.904 2.367-4.773 6.809-1.908 7.5z" id="155662" data-name="Bara" class="comuna"/>
    <path d="M747.639 197.026l-.384-.4-9.788-7.78-1.303-3.787 5.14-.844 6.111 8.434.224 4.377zm-11.72-12.724l-8.91 1.847-12.8 6.97-7.524 9.713 3.49 4.606-4.746 5.93-9.361 1.983-3.51-8.876-3.375.42L682 195.88l7.921-5.773-2.705-3.112 3.73-13.334 3.232-1.051-.78-9.864 7.057-4.816 13.157 1.896 1.532-2.382 6.297-17.458 10.63-.092 9.555 5.568 8.073 9.574 4.688 2.865.346 3.617-3.443 12.126-15.37 10.658z" id="157585" data-name="Margina" class="comuna"/>
    <path d="M340.658 160.087l-.632 11.684-3.12 2.262-1.027 9.879 6.905 8.338-1.954 10.227-8.78-3.595-11.453-3.562-6.35.027-11.017-5.644-5.483-14.31-4.433-3.82 8.713-12.234-7.938-3.327-.355-8.536 21.946-8.718 2.201 4.32 6.448-2.32 1.937 21.624 14.392-2.295z" id="158653" data-name="Sînandrei" class="comuna"/>
    <path d="M379.056 141.065l6.671-.323 6.44 7.973 22.765 2.796 3.794 3.006 9.096 4.484 2.793-3.838 8.053-.416 5.71-3.173-3.95 8.217-6.92 3.264-.93 8.383-4.005 1.018-6.177 1.418-9.341-4.333-10.58 10.57-8.77.019-2.824-4.797-5.903 1.978-8.157-8.881-4.094 3.634-8.93-2.702-9.26 5.862-2.502 4.573-8.805-2.471-3.204-5.555.632-11.684.971-4.188 12.38-11.103 4.712 1.462.734-10.656 14.99 3.053 4.61 2.41z" id="158181" data-name="Pișchia" class="comuna"/>
    <path d="M555.045 146.339l1.966 18.422-1.418 5.935-6.618 9.445-8.534 7.836-3.719-.592-14.163-11.76-5.747 3.735-6.219-2.965-.055-6.838 1.335-5.62 13.796-3.448 10.643-3.81.962-9.148 6.103-4.534.94-7.514 10.728 10.856z" id="158608" data-name="Secaș" class="comuna"/>
    <path d="M145.675 149.82l7.67 36.193-9.236-3.298-12.652 5.741.986-2.262-16.187-18.484-5.89-4.237-4.618.878-3.148-20.778-5.379 1.093 5.99-4.099 7.87-1.634-5.184-10.594 14.69-1.62 8.127 2.016-1.249 6.762 6.552 1.502 8.62-1.676 3.038 14.497z" id="156437" data-name="Comloșu Mare" class="comuna"/>
    <path d="M642.813 151.939l-3.703 7.044-3.97-.747-3.92 8.38-17.324-.265 1.65 7.374-2.532 9.746-7.981 8.837-3.116-12.543-8.066-2.593-6.424-4.977 1.908-7.5 4.773-6.808-5.904-2.367-9.573 3.244-2.686-10.361 2.085-9.093 1.789-8.313 6.297-3.997 7.047.293 3.298-3.142 7.21 3.208 3.543 10.508 3.857-1.35 21.166 6.737 5.545 5.282 5.031 3.403z" id="157969" data-name="Ohaba Lungă" class="comuna"/>
    <path d="M525.67 160.489l-13.797 3.448-1.335 5.62-8.81 1.491-3.122 8.007-7.154 8.47.617 3.455 10.33 13.612-7.069 5.106-10.747-.37-2.868-8.529-7.451-8.867 4.304-7.658-4.475-6.995-2.913-10.397-1.13-14.605 6.951-6.89 6.567-2.125 6.34 11.222-.265 9.859 8.782-4.693 4.547-14.142 7.893-11.685 6.481-4.71 6.617 11.303 3.79 2.847-2.023 6.047-.06 11.179z" id="156151" data-name="Brestovăț" class="comuna"/>
    <path d="M240.42 134.61l-.406 13.555-17.225 13.095-1.67-4.905-8.025 3.257-10.224 2.35-3.66-27.752 13.092-1.806 5.878-10.864 6.028 5.721 16.212 7.348z" id="159464" data-name="Șandra" class="comuna"/>
    <path d="M477.001 145.387l-6.951 6.89-12.307-4.103-13.364 3.4-5.711 3.173-8.053.416-2.793 3.838-9.096-4.484-.732-6.113 7.126-9.209 12.114-4.901-5.635-8.57.752-6.154 10.55-2.475 7.794.682 3.155-3.58 10.825 4.45 4.444 4.506 9.376 5.805 3.366.834-4.86 15.595z" id="156035" data-name="Bogda" class="comuna"/>
    <path d="M169.668 135.363l1.073 9.437-25.066 5.02-3.038-14.497-8.62 1.676-6.552-1.502 1.25-6.762-8.128-2.016 3.247-4.907 15.775-2.394-.606-3.343 17.149-3.45-.499 6.335 3.09 14.597 10.925 1.806z" id="159419" data-name="Gottlob" class="comuna"/>
    <path d="M299.313 118.588l-4.327 10.129-14.011 11.43 7.35 2.52 5.409 4.81.355 8.535 7.938 3.327-8.713 12.234-5.723 3.527-10.848-11.59-12.728 2.47-7.172-11.455-10.044-9.356-6.785 2.996.406-13.556 4.613-1.916 12.279-11.166 16.663 3.674 12.568-15.776 8.253 10.302 4.517-1.139z" id="158528" data-name="Satchinez" class="comuna"/>
    <path d="M417.994 148.404l.732 6.113-3.794-3.006-22.765-2.796-6.44-7.973-6.671.323 6.376-11.853-2.004-7.898 5.28-7.486 16.364-6.364 6.733 11.017 4.494 11.769-6.908 10.018 8.603 8.136z" id="159393" data-name="Fibiș" class="comuna"/>
    <path d="M383.428 121.314l2.004 7.898-6.376 11.853-4.611-2.41-14.99-3.053-.733 10.655-4.712-1.461-12.38 11.103-.972 4.188-14.392 2.295-1.937-21.624-6.448 2.32-2.201-4.32-21.946 8.718-5.408-4.809-7.351-2.52 14.01-11.43 4.328-10.129 17.77-8.743 6.814 7.49 15.78 7.354.409-7.507 8.606-3.916 5.103-10.848 3.982-1.163 9.72 5.752 7.594 1.164 8.266 6.453.071 6.69z" id="158010" data-name="Orțișoara" class="comuna"/>
    <path d="M89.292 103.824l7.111 3.16 23.534-1.306 3.897 16.134-3.247 4.907-14.69 1.62 5.184 10.594-7.87 1.634-5.99 4.1-1.863 3.66-12.123 3.277-4.42-9.643-5.413-21.955-11.973-9.136 9.482-1.26-1.93-7.081 8.738-2.448 11.573 3.743z" id="158859" data-name="Teremia Mare" class="comuna"/>
    <path d="M184.398 111.54l6.79 7.356.944 8.448-.164 4.386-19.107 4.186-3.193-.553-10.925-1.806-3.09-14.597.499-6.335.97-5.204 10.923-2.7-1.924-5.475 2.177-.064.271 3.269 13.692 11.048 2.137-1.96z" id="157530" data-name="Lovrin" class="comuna"/>
    <path d="M201.962 95.277l-.58 3.959 6.86 8.393 9.938 13.91-5.878 10.865-13.092 1.805-7.078-6.865-.944-8.448-6.79-7.357 17.564-16.262z" id="159507" data-name="Pesac" class="comuna"/>
    <path d="M166.121 99.246l1.924 5.475-10.924 2.7-.97 5.204-17.148 3.45.606 3.343-15.775 2.394-3.897-16.134-1.035-5.25 29.301-5.085 5.245-1.8 4.577 5.965 8.096-.262z" id="159473" data-name="Tomnatic" class="comuna"/>
    <path d="M286.543 109.424l-12.568 15.777-16.663-3.674-12.28 11.166-4.612 1.916-16.212-7.348-6.028-5.721-9.937-13.91 19.153-4.689 9.291-16.685 12.825.01 13.367 1.866 12.135-.986 6.754.22 1.329 13.835 3.446 8.224z" id="159213" data-name="Variaș" class="comuna"/>
    <path d="M450.695 117.777l-7.794-.682-10.55 2.475-.752 6.155 5.635 8.569-12.114 4.901-7.126 9.209-8.603-8.136 6.908-10.018-4.494-11.769-6.733-11.017-1.524-2.628 11.863-5.866-5.22-7.833 5.975-1.79 9.707-7.051 7.061-2.497 6.677.89 6.368 17.721-4.743 11.27 8.278 2.685 1.181 5.412z" id="157683" data-name="Mașloc" class="comuna"/>
    <path d="M77.72 100.08l-8.739 2.449 1.93 7.08-9.482 1.26-14.944 1.611-19.094-18.52L30.847 91l-5.26-17.196 18.781-.338 6.412-2.477 13.388 17.337 13.551 11.755z" id="159482" data-name="Vălcani" class="comuna"/>
    <path d="M236.687 86.256l-9.291 16.685-19.153 4.688-6.861-8.393.58-3.959 2.26-14.383-.888-15.104 6.948-6.068 5.869 1.831 12.667 5.442 1.848 7.874 6.021 11.387z" id="158109" data-name="Periam" class="comuna"/>
    <path d="M131.59 35.365l2.313 17.57 7.373-.025 5.41 2.942.294 24.914 1.223 14.577-29.301 5.085 1.035 5.25-23.534 1.306-7.11-3.16 4.9-3.929 2.553-20.527-3.715-12.113-3.98-5.952 3.26-7.436 4.916-2.718 7.044.967 8.01-3.546 2.714 2.855 8.497-3.85 2.632-5.987-6.739-5.507 6.12-7.61 6.084 6.894z" id="155528" data-name="Sânnicolau Mare" class="oras"/>
    <path d="M152.082 25.11l7.866 1.78 8.547 23.53 8.76 11.204 2.249 5.337-8.254 27.91-2.952 4.31-2.177.065-8.096.262-4.577-5.965-5.245 1.8-1.222-14.577-.294-24.914-5.411-2.942-7.373.026-2.314-17.57 5.429-3.887 2.043-6.708 13.02.34z" id="159455" data-name="Saravale" class="comuna"/>
    <path d="M89.05 61.303l3.981 5.952 3.715 12.113-2.553 20.527-4.9 3.929-11.574-3.743-13.55-11.755L50.78 70.989l-6.412 2.477-18.78.338 1.408-3.954-4.548-6.03 5.31-3.27 20.96-.39-1.75-14.654 4.507-15.502 4.534-4.298-.115-5.43 9.78 3.92 9.91-4.81 8.254 9.527-6.34 16.952L89.05 61.303z" id="156712" data-name="Dudeștii Vechi" class="comuna"/>
    <path d="M210.282 59.722l-6.948 6.068.888 15.104-2.26 14.383-17.564 16.262-2.137 1.96-13.692-11.048-.27-3.27 2.951-4.31 8.254-27.91-2.25-5.337-8.76-11.204-8.546-23.53-7.866-1.78 5.264-5.705 4.32 6.667 18.875 3.084 1.328 3.063 1.318 6.643 5.8 2.738 1.521 7.117 9.738 8.797 10.036 2.208z" id="158733" data-name="Sânpetru Mare" class="comuna"/>
    <path d="M55.894 20.276l.115 5.43-4.534 4.298-4.508 15.502 1.75 14.655-20.96.389-5.31 3.27-6.628-7.23-2.052-7.469-9.827-6.509L1 32.05l12.847-16.153 5.477 1.37 15.652-8.956 4.009 8.713 10.312-1.659 6.597 4.911z" id="155724" data-name="Beba Veche" class="comuna"/>
    <path d="M125.506 28.47l-6.12 7.61 6.738 5.508-2.632 5.988-8.497 3.849-2.713-2.855-8.011 3.546-7.044-.968-4.916 2.719-3.26 7.436-11.554-15.438 6.34-16.953-8.252-9.525 7.63-8.095L86.608 1l7.578 4.837 6.213 1.19 25.106 21.444z" id="156259" data-name="Cenad" class="comuna"/>
    <path d="M576.267 295.673l-4 6.74 5.468 8.767-5.558 18.61.873 9.542-15.53 2.132-2.034 12.447-12.972-.275-2.703 3.329-15.767-2.404-13.5-6.301-.44-.174 5.71-3.166 5.477-9.405 15.172-8.691-1.575-17.22 2.511-12.044 1.344-16.163 1.71-.164 12.404.743 4.665 3.911.934 6.212 17.811 3.574z" id="159259" data-name="Victor Vlad Delamarina" class="comuna"/>
    <path d="M616.096 348.328l4.162.25 6.242 10.275-4.028 1.623.059 7.216-12.839 8.14-19.477-8.322-7.556 2.332-4.355-3.558-.051-8.87-6.557-11.152 1.354-6.93-.873-9.542 5.558-18.61 10.91-1.555.969 5.91 8.156 10.645 5.127.269.95 12.65 3.435 10.025 8.814-.796z" id="158804" data-name="Știuca" class="comuna"/>
    <path d="M415.778 446.124l10.235 5.688 6.216 16.886-4.271 4.006 8.42 9.938-7.797 4.537-3.455 15.207-5.9 7.238-5.48 10.81-6.531 1.07-14.206-5.546-2.715-5.41-6.585-4.482-5.838 1.132-8.975-4.082-3.52 1.854-7.06-7.283 3.037-8.106-5.144-19.681 4.773-1.484 15.46-4.975-1.055-5.003 7.99-3.171 6.795 2.575 7.802-12.268 5.845-1.365 3.825 4.985 8.134-3.07z" id="157362" data-name="Jamu Mare" class="comuna"/>
    <path d="M307.634 397.374l4.45 9.904-4.628 2.712 8.689 13.102-8.071 15.572-6.48 2.264.346 8.897-4.874-.175-6.587 9.973-5.892-.212-11.393 3.894-5.015-11.342-7.095.62 1.199-8.064-15.409 2.727 1.997-2.071 12.814-2.086.308-6.361 6.267-5.07-4.447-6.162 9.116-9.206-3.124-7.637 2.391-8.076 5.137 3.976 9.34-1.208 16.124-7.212 4.837 1.24z" id="155591" data-name="Banloc" class="comuna"/>
    <path d="M272.196 400.577l-2.391 8.076 3.124 7.637-9.116 9.206 4.447 6.162-6.267 5.07-.308 6.361-12.814 2.086-1.997 2.071-3.42-8.382 1.734-6.261 2.67-25.884 6.54.226.938-21.476 1.227-4.853 9.118 2.095 6.515 17.866z" id="159491" data-name="Livezile" class="comuna"/>
    <path d="M289.46 274.234l6.739 13.087 9.367 2.867-.021 6.961 8.429-1.59-3.24 15.97-3.253.31-.674 12.687-.718 1.77-5.448.738-8.21-3.518-4.073-11.795-11.272 3.531 4.308-11.71 4.158-4.276-5.168-12.49-4.802 2.159-2.9-7.58 5.388-4.58 11.39-2.541z" id="159437" data-name="Parța" class="comuna"/>
    <path d="M276.743 163.51l-8.188 6.996 8.884 10.318 3.787 15.347-3.333 3.158-4.357 13.226-8.95-2.423.811-6.049-6.01-9.532-18.166 3.572.393-7.545 20.654-20.824 1.747-3.774 12.728-2.47z" id="155760" data-name="Becicherecu Mic" class="comuna"/>
    <path d="M293.314 171.573l4.433 3.82 5.483 14.31 11.017 5.644-17.569 1.132.074 4.443-5.873 9.715 1.086 3.478-.507 5.206-10.173 4.17-7.7-1.976-.05-8.96 4.358-13.226 3.333-3.158-3.787-15.347-8.884-10.318 8.188-6.995 10.848 11.589 5.723-3.527z" id="159384" data-name="Dudeștii Noi" class="comuna"/>
    <path d="M340.83 202.477l4.19-2.768 7.016 6.065 1.455 8.275-8.868-5.173-7.068 12.141-9.072-7.134-3.909-.085-3.434-6.84 10.91-8.076 8.78 3.595z" id="155261" data-name="Dumbrăvița" class="comuna"/>
    <path d="M195.07 183.258l11.045 10.81-13.503 14.948-4.201 7.529-13.663-6.178-4.177 15.647-14.588-1.431-11.601 1.97-5.399-23.888-6.63 1.236-3.835-9.055 2.94-6.39 12.651-5.741 9.235 3.298 10.616 5.273 8.97-11.178 22.14 3.15z" id="155494" data-name="Jimbolia" class="oras"/>
    <path d="M199.21 134.21l3.66 27.753.07 9.523-7.87 11.772-22.14-3.15-8.97 11.178-10.616-5.273-7.669-36.193 25.066-5.02-1.073-9.437 3.193.553 19.107-4.186.164-4.386 7.078 6.865z" id="157451" data-name="Lenauheim" class="comuna"/>
  </g>
</svg>
