<svg xmlns="http://www.w3.org/2000/svg" version="1.2" baseProfile="tiny" stroke-linecap="round" stroke-linejoin="round" viewBox="0 0 800 896">
  <g id="TR" fill="none" stroke="#aaa">
    <path d="M643.397 811.81l16.696.378 9.727 5.408-6.605 3.79 4.092 36.2.279 4.653.506 8.162-13.086-1.789-22.862 6.512-18.513 12.118-32.196 7.87-4.611-35.004-5.285-13.277 12.685-8.607 25.557-9.214 20.959-3.348-11.608-18.015 15.647-13.52 8.618 17.684z" id="153400" data-name="Năsturelu" class="comuna"/>
    <path d="M669.82 817.596l-9.727-5.408-16.696-.377 20.496-6.608 5.927 12.393zm44.152-46.676l9.859 5.39 7.677 25.868-31.493 11.649-17.358-9.438-12.466 12.582 6.633-16.141-6.331-12.141 9.29-24.405 10.43-6.66 23.76 13.296z" id="152314" data-name="Bujoru" class="comuna"/>
    <path d="M607.334 779.246l-1.624 17.687 13.422 10.714 11.608 18.015-20.959 3.348-25.557 9.214-12.686 8.607 5.286 13.277 4.611 35.005-27.683-.905-20.82-9.881-12.382-12.022-25.2-11.923-14.446-18.203 14.373-26.249 8.718-9.27 16.602 1.17 8.497-24.423 9.77-3.65 7.393-16.226 17.845 3.737 2-10.798 27.25 4.934 2.59 18.275 11.392-.433z" id="151978" data-name="Zimnicea" class="oras"/>
    <path d="M249.782 744.023l15.858 4.268 2.563 10.531 15.712.563 2.537 24.002-18.044-2.28-1.27 7.773-15.488-1.43-15.855 3.429-8.8-13.636-.15-32.097 22.937-1.123zm-5.319-19.65l-19.14 14.484-16.39-15.704 11.174-9.267 14.143-2.305 1.428-15.066 8.311-6.208 16.158 21.808-15.684 12.258z" id="151709" data-name="Ciuperceni" class="comuna"/>
    <path d="M529.8 746.261l20.3 9.006-3.843 8.263-7.392 16.227-9.771 3.65-8.497 24.423-16.602-1.17-8.718 9.27-14.373 26.25-11.267-8.395-21.578-5.238 20.521-31.37 7.049 5.119 20.32-34.584 10.046 4.418 13.502-30.322 10.304 4.453z" id="155118" data-name="Fântânele" class="comuna"/>
    <path d="M130.048 758.05l5.37-3.878 12.408 18.222-16.69-2.533-1.088-11.811zm-8.894-27.5l-9.44 8.321 12.753 9.71 1.996 12.081 4.34 12.87 23.914 13.884-12.105 7.504 6.904 10.551-41.234 23.93-13.134 1.95-21.333-8.733-34.385-29.886 5.965-18.86-10.513-4.2 4.225-7.891 13.123 3.224 8.763-8.148-1.955-12.52 7.564-9.467 37.819-10.037 16.733 5.717z" id="151736" data-name="Islaz" class="comuna"/>
    <path d="M747.332 711.743l.192 24.394-22.116.556.195 13.46-11.63 20.767-23.76-13.296-10.43 6.66-9.29 24.405 6.331 12.14-6.633 16.142-.371.625-5.927-12.393-20.496 6.608-8.618-17.684-15.647 13.52-13.422-10.714 1.624-17.687 10.72.134 2.859-16.139 6.855-7.892 12.315 1.77-3.495-16.656 25.685-1.454.29-9.202 24.267-6.658 5.123-10.638 55.379-.768z" id="152234" data-name="Bragadiru" class="comuna"/>
    <path d="M668.092 870.4l-.506-8.16-.28-4.655-4.091-36.2 6.605-3.79.37-.624 12.467-12.582 17.358 9.438 31.493-11.649-7.677-25.867-9.859-5.391 11.631-20.767-.195-13.46 22.116-.556-.192-24.394.083-16.815 15.895-.11.169 13.732.3 27.945 5.522 5.43-11.855 23.368 6.533 3.736 3.039 22.206 7.56 8.794 5.176 16.795-6.777 6.603-22.023 14.908-22.52 9.474-28.073 20.262-19.04 4.227-13.229-1.897z" id="153589" data-name="Pietroșani" class="comuna"/>
    <path d="M519.497 741.808l-13.502 30.322-10.046-4.418-20.32 34.584-7.049-5.12-20.521 31.37-23.915-7.26 4.991-20.779-5.784-33.196-16.468-20.89 46.625 21.909 7.187-15.98 9.97 4.261 13.742-30.817 4.981 2.325 15.942-34.709 17.104 8.779-13.133 35.098 10.196 4.52z" id="154460" data-name="Suhaia" class="comuna"/>
    <path d="M730.608 671.125l-5.675 14.334-49.795.316-15.979 8.936 2.037 14.282-36.411 5.907-10.114-23.11-8.546-12.732 2.108-19.038 38.95-.35 27.886 3.78-.083-13.684 49.697-1.263 5.925 22.622z" id="152500" data-name="Cervenia" class="comuna"/>
    <path d="M470.549 637.911l11.076 14.203-.229 23.852 5.713 4.665-3.49 17.939-9.55 22.595-11.106 12.47-42.08-17.227-.336 8.58-23.346-4.204-23.464-11.173.058-14.19 18.885-1.273 2.36-8.715 13.889-12.576 17.496-8.47 16.78-14.653-4.296-9.392 12.704-10.5 11.554 13.76 7.382-5.691z" id="153561" data-name="Piatra" class="comuna"/>
    <path d="M358.68 648.244l-8.176 6.254 10.844 11.84-4.92 17.54-10.648 7.531-7.656 17.227-34.011-1.893 6.753-17.299-13.087-5.29 24.237-9.842 10.732-13.953-15.425-6.73.527-14.67-12.01-26.433 13.616-6.036 11.676 25.748 13.408 13.624 14.14 2.382z" id="152662" data-name="Crângu" class="comuna"/>
    <path d="M132.589 555.436l-2.586 17.743-41.234 14.307 3.279 9.91-5.939 11.638-16.71 9.858-15.953.108-13.454-2.375-13.495-26.018-5 1.254-2.407-10.68 14.898-4.826 18.558-4.457 7.505 10.666 14.694-5.966-4.268-15.593 57.495-19.999 4.617 14.43z" id="154344" data-name="Slobozia Mândra" class="comuna"/>
    <path d="M516.136 502.318l3.58 16.878-14.22 23.688-9.607 7.273 8.812 13.183-26.407 21.318-37.922 31.804-23.149-23.97 16.434-13.83-9.742-11.618 13.851-11.332 27.173-14.338-7.925-7.463 6.745-16.227 15.745-4.076 7.129-13.555 17.478 9.004 12.025-6.739z" id="151816" data-name="Nanov" class="comuna"/>
    <path d="M714.305 502.775l7.296 22.822-8.975 6.188 19.257 28.401-4.34 3.062-9.16-13.398-15.852 5.935-10.506-4.834-17.507-6.232-.613-23.667-15.354-.022-6.907-10.041 18.135-12.351 12.383 8.472 16.736-8.046 15.407 3.71z" id="153909" data-name="Răsmirești" class="comuna"/>
    <path d="M446.877 490.411l7.99 1.95 24.637 21.247-15.745 4.076-6.745 16.227 7.925 7.463-27.173 14.338-13.851 11.332 9.742 11.618-16.434 13.83-9.707-11.653-10.925 9.476-9.66-11.952 21.801-18.467 21.895-18.328 11.49-28.156-2.74-7.924 7.5-15.077z" id="152332" data-name="Buzescu" class="comuna"/>
    <path d="M533.024 478.447l7.58 6.973 8.726-9.268 7.68 24.703L577.766 504l-5.14 9.932 16.991 21.132 5.864 18.105 15.863 10.384.487 28.567-15.822 1.69-15.589-16.89-6.2 6.12-13.66 3.466-8.386-24.967-19.654 6.368-22.244 20.241-20.19 10.43-11.79-13.92L504.7 563.34l-8.812-13.183 9.608-7.273 14.219-23.688-3.58-16.878-5.162-24.785 18.604-5.095 3.446 6.01z" id="151790" data-name="Alexandria" class="municipiu resedinta"/>
    <path d="M682.162 507.11l-12.383-8.472-18.135 12.35 6.907 10.042 15.354.022.613 23.667 17.506 6.232-1.591 6.91-32.652.255-16.44-5.926-.211-12.297-13.746.188-8.949-6.61-16.956 18.437-5.999 1.26-5.864-18.104-16.99-21.132 5.139-9.932 38.817-28.051 5.06 6.895 24.942-17.107 17.458 24.92 4.74-3.249 13.38 19.702z" id="153776" data-name="Vitănești" class="comuna"/>
    <path d="M441.154 453.422l-18.242 19.44 19.252 7.484 4.713 10.065-7.5 15.077 2.74 7.924-11.49 28.156-21.895 18.328-4.524-16.035-9.722-11.862 20.598-16.7-6.067-10.214 1.455-17.068-18.073-14.569 22.41-23.59 16.243-8.523 10.102 12.087z" id="154996" data-name="Nenciulești" class="comuna"/>
    <path d="M510.974 477.533l5.162 24.785-12.025 6.74-17.478-9.005-7.129 13.555-24.637-21.246-7.99-1.95-4.713-10.066-19.252-7.484 18.242-19.44 40.735-12.959 5.835-21.144 9.152.88-2.773 37.463 16.871 19.87z" id="153204" data-name="Mavrodin" class="comuna"/>
    <path d="M606.703 358.569l5.086 31.474 10.54 14.15 6.223 28.163-29.783 4.253-4.917-16.785-16.608 3.539-12.814-8.039-2.861-20.345-8.974-5.443-4.737-44.12 58.845 13.153z" id="152038" data-name="Băbăița" class="comuna"/>
    <path d="M438.72 360.05l-14.44 8.353 5.994 15.961-26.147 9.357-20.526 13.5-6.878 1.73-18.305-27.948-4.12-7.392 24.995-18.217 15.499-16.212 8.06 9.706 20.246-2.657 15.622 13.819z" id="153865" data-name="Rădoiești" class="comuna"/>
    <path d="M547.858 345.416l4.737 44.12 8.974 5.443 2.86 20.345 12.815 8.039 16.608-3.54 4.917 16.786-26.313-.27.265 5.643-23.384 2.824-15.93 10.96 10.766 12.487-11.15 10.195-3.445-6.01-18.604 5.095-16.87-19.871 2.772-37.463-9.152-.88 3.174-4.632-20.203-49.811-5.195-5.751 14.224-9.345 14.03 5.658 14.28-10.751 24.921-13.337 14.903 14.066z" id="153507" data-name="Orbeasca" class="comuna"/>
    <path d="M650.255 442.464l-6.3-8.942-1.926-8.527 38.874-6.801-2.395 12.239-28.254 12.031zm34.654-120.613l13.075 19.925 20.109-11.55 4.17 6.547 16.585-7.475 12.416 20.482-7.534 16.134-23.323 3.068 1.906 15.854-20.277 15.785-18.205 2.16-7.696 14.66-22.015-13.925 12.418-11.767-14.42-12.744-14.22 21.755-15.57 3.433-10.54-14.15-5.085-31.474 3.41-7.593 24.269 9.03 36.011-33.406-7.981-12.723 8.574-5.537 13.923 13.511z" id="152172" data-name="Botoroaga" class="comuna"/>
    <path d="M206.283 314.584l18.084 5.653 6.673 18.854 13.434 4.63-9.68 15.191-14.208-13.467-22.03 19.57-26.792 17.02-22.197-19.916-3.507-20.423-6.81-14.53 23.335-26.144 31.509 3.678 12.189 9.884z" id="154415" data-name="Stejaru" class="comuna"/>
    <path d="M387.007 308.156l7.785 31.026-15.499 16.212-24.995 18.217-22.013-12.215-8.45-13.058-.989-1.285 4.471-15.05 23.073-19.34 33.96-13.553 2.656 9.046z" id="154166" data-name="Sfințești" class="comuna"/>
    <path d="M537.842 324.856l-4.887 6.494-24.92 13.337-14.28 10.751-14.031-5.658-13.81-32.727-8.885-14.584 15.675-1.805 31.446-10.408 7.34 8.792 12.832.138 2.85 19.09 10.67 6.58z" id="153473" data-name="Olteni" class="comuna"/>
    <path d="M457.03 302.47l8.884 14.582 13.81 32.728-14.224 9.345-26.78.925-15.622-13.819-20.245 2.657-8.061-9.706-7.785-31.026 25.416-18.927 10.2-12.968 22.748 23.83 11.658 2.378z" id="154932" data-name="Vîrtoape" class="comuna"/>
    <path d="M235.187 272.917l15.23 14.973-7.894 11.948-36.24 14.746-12.19-9.884-31.508-3.678 6.383-9.832 16.103-2.565 50.116-15.708z" id="152724" data-name="Didești" class="comuna"/>
    <path d="M304.858 241.35l-18.373 18.383-16.947 14.001.301 7.595-19.421 6.561-15.23-14.973 6.277-12.972 23.038-12.902-.5-18.366 15.52-.319 25.335 12.992z" id="155092" data-name="Beuca" class="comuna"/>
    <path d="M422.623 276.261l-10.2 12.968-25.416 18.927-2.658-9.046-6.27-21.433-18.775-26.893-14.812 10.88-9.159-9.561 6.738-7.037 30.827-12.178 32.265-15.847 4.445 3.337-5.273 32.948 18.288 22.935z" id="153437" data-name="Necșești" class="comuna"/>
    <path d="M627.996 298.984l-3.223-.644 7.474-6.292-4.251 6.936zm120.676-58.562l-5.231 8.489-24.378-2.656-5.233 9.708-9.189 8.474-24.623-5.541-20.143 26.2.955 14.652-6.044 2.807-22.167-11.106 4.206-12.747-12.865-8.19 17.23-14.232 6.423-29.991 16.073-23.117 24.107-1.918 7.98 8.133 16.877-2.702 6.737-8.479 13.093 4.932 6.544 7.279-9.954 16.263 19.602 13.742z" id="151905" data-name="Videle" class="oras"/>
    <path d="M482.146 207.296l5.737 22.872-5.226 6.365 15.028 26.934 1.602 8.738 4.863 18.051-31.446 10.408-15.675 1.805-11.658-2.378-22.748-23.83-18.288-22.935 5.273-32.948-4.445-3.337.68-10.66 3.088 4.04 23.488-6.778 10.634 3.5 20.546-12.22 10.935.387 7.612 11.986z" id="154754" data-name="Trivalea-Moșteni" class="comuna"/>
    <path d="M334.989 227.726l-30.13 13.624-25.336-12.992-15.52.32-1.044-22.81 18.252-14.61 17.14-5.912 26.043 21.863 10.595 20.517z" id="154978" data-name="Zîmbreasca" class="comuna"/>
    <path d="M259.62 142.412l5.652 27.378-3.054 6.615-19.69-1.617-1.849 25.186-12.27 4.637-17.228-14.001-9.437 12.049-25.982 2.123-4.523-8.822-14.565-38.134 21.362-6.98 23.585-.469 2.743-13.755 55.02 3.485.236 2.305z" id="151996" data-name="Balaci" class="comuna"/>
    <path d="M595.088 113.026l-3.804 8.791-15.944 7.505-16.489 13.94-1.904 8.41-19.68 15.017 3.708 12.609-10.296 11.604-11.905-7.236-1.173-16.97-17.718 4.654 4.058-14.765 15.413-.193 11.366-17.7 12.154-10.314-3.584-13.577 28.499-5.459 27.299 3.684z" id="154228" data-name="Siliștea" class="comuna"/>
    <path d="M334.486 121.563l14.823 11.83-28.903 17.41-25.716 22.61 3.661 11.933-17.14 5.913-6.013-15.358-12.98.504 3.054-6.615-5.652-27.378 10.76-5.827 19.925-19.8 4.443-8.207 25.518 13.472 14.22-.487z" id="154282" data-name="Siliștea-Gumești" class="comuna"/>
    <path d="M485.14 103.775l7.652 7.885 12.298-2.04 9.886 8.748-1.285 14.261 17.029 6.062-11.366 17.7-15.414.194-4.057 14.765.495 20.72-18.232 15.226-7.612-11.986-10.935-.387-10.375-14.647-4.604-20.595 3.827-18.179-10.765-8.895 23.82-18.483 19.637-10.35z" id="154068" data-name="Scurtu Mare" class="comuna"/>
    <path d="M363.69 157.3l-14.381-23.906-14.823-11.831 14.449-19.252 17.69 1.194 33.195-18.52 16.265-13.133 9.204 11.646-15.719 14.154 10.158 14.21-25.47 26.445L363.69 157.3z" id="154665" data-name="Tătărăștii de Sus" class="comuna"/>
    <path d="M563.249 59.892l-7.793 35.861 12.333 13.59-28.5 5.458 3.586 13.577-12.155 10.313-17.03-6.062 1.286-14.261-9.886-8.747-12.298 2.04-7.652-7.886 17.523-8.057-3.434-6.902 18.14-10.611 13.265-23.706 10.439 5.2 7.686-14.81-2.68-12.002 8.575 11.02-6.086 8.749 14.68 7.236z" id="153696" data-name="Poeni" class="comuna"/>
    <path d="M110.549 699.369l-8.13-4.502-1.354-2.794 26.325-33.718-12.438-19.702 30.949-10.555 4.736-12.202 9.658 19.074 6.85 23.461-18.036 5.843-16.388 20.95-22.172 14.145z" id="153151" data-name="Lunca" class="comuna"/>
    <path d="M262.218 176.405l12.98-.504 6.013 15.358-18.252 14.61 1.044 22.808.5 18.366-23.038 12.902-6.278 12.972-50.116 15.708-16.103 2.565-7.46-16.62 3.421-27.931-3.223-7.969-.276-18.118 14.332-15.77 25.982-2.123 9.437-12.049 17.228 14.001 12.27-4.636 1.848-25.187 19.691 1.617z" id="152760" data-name="Dobrotești" class="comuna"/>
    <path d="M349.032 551.232l13.57 22.456 11.66-10.412 12.669 15.087 9.66 11.952-20.903 19.022-2.325 16.883-14.683 22.024-14.14-2.382-13.408-13.624-11.676-25.748-8.338-18.514-10.82-24.025 24.386-19.76 8.622 4.193L345.102 543l3.93 8.233z" id="152127" data-name="Bogdana" class="comuna"/>
    <path d="M392.399 473.448l18.073 14.569-1.454 17.068 6.066 10.214-20.598 16.7 9.722 11.862 4.524 16.035-21.801 18.467-12.67-15.087-11.659 10.412-13.57-22.456 21.94-39.755-.17-19.008 4.695-31.252 16.902 12.231z" id="153605" data-name="Plosca" class="comuna"/>
    <path d="M417.223 592.493l23.15 23.97 11.24 13.379-12.704 10.5 4.296 9.392-16.78 14.653-17.496 8.47-13.889 12.576-2.36 8.716-18.885 1.273-17.368-11.545 4.921-17.538-10.844-11.84 8.176-6.255 14.683-22.024 2.325-16.883 20.903-19.021 10.925-9.477 9.707 11.654z" id="152948" data-name="Furculești" class="comuna"/>
    <path d="M137.074 592.904l-15.37 5.44 3.066 9.518-20.74 7.353 4.824 14.47-17.175 15.174.907 5.593-19.806 15.319-6.444-19.498-18.182 3.972-4.187-16.36 10.135-9.07-.656-5.815 15.953-.108 16.71-9.858 5.939-11.639-3.28-9.91 41.235-14.306 7.071 19.725z" id="155154" data-name="Uda-Clocociov" class="comuna"/>
    <path d="M293.819 442.496l16.376 25.998 34.907 74.505-11.796 5.385-8.622-4.193-24.386 19.76-8.392-3.666-8.618-15.244-19.479 1.697-2.907-12.041-10.304-11.06 12.743-11.027 14.256-.834 2.65-11.119-4.761-18.452-10.74-17.658 29.073-22.05z" id="154790" data-name="Troianul" class="comuna"/>
    <path d="M383.601 407.22l19.738 27.782-29.961 24.339-28.356-11.884-16.066-21.222-22.797-18.722-20.852-12.853 16.617-7.134 13.637 14.053 11.55 4.001 31.308-24.577 18.304 27.948 6.878-1.73z" id="154852" data-name="Vedea" class="comuna"/>
    <path d="M621.282 320.192l2.514 13.598-13.683 17.186-3.41 7.593-58.845-13.153-14.903-14.066 4.887-6.494 18.18-6.91.934-7.567 26.748-9.9 9.053 18.715 28.525.998z" id="155127" data-name="Frăsinet" class="comuna"/>
    <path d="M628.552 432.356l15.404 1.166 6.298 8.942 5.237 17.143-8.907 6.13-24.942 17.107-5.06-6.895L577.765 504l-20.754-3.145-7.681-24.703-8.726 9.268-7.58-6.973 11.149-10.194-10.766-12.488 15.93-10.959 23.384-2.824-.265-5.643 26.313.27 29.783-4.253z" id="153240" data-name="Măgura" class="comuna"/>
    <path d="M561.012 249.199l-11.468 5.964-14.02-.031-9.36 16.63-26.877.443-1.602-8.738-15.028-26.934 5.226-6.365-5.737-22.872 18.232-15.225L516.04 188l13.86 46.384 15.134 14.256 15.977.558z" id="154521" data-name="Talpa" class="comuna"/>
    <path d="M571.801 245.275l21.784 40.709 19.445.012 11.743 12.344 3.223.644-6.714 21.208-28.525-.998-9.053-18.716-26.748 9.9-.933 7.569-18.181 6.909-10.67-6.58-2.85-19.09-12.832-.138-7.34-8.792-4.863-18.051 26.877-.444 9.36-16.63 14.02.032 11.468-5.964 10.79-3.924z" id="153026" data-name="Gălăteni" class="comuna"/>
    <path d="M561.674 162.29l.2 7.203L591.87 197.8l6.865 19.89-26.934 27.585-10.789 3.924-15.977-.558-15.134-14.256-13.86-46.383-15.663 4.069-.495-20.72 17.718-4.655 1.173 16.97 11.905 7.236 10.296-11.604-3.708-12.609 19.68-15.018 4.727 10.619z" id="152582" data-name="Cosmești" class="comuna"/>
    <path d="M363.69 157.3l12.244 23.525 17.942 20.092 11.967 5.465-.68 10.659-32.265 15.847-30.827 12.178-7.082-17.34-10.595-20.517-26.043-21.863-3.66-11.934 25.716-22.609 28.902-17.41 14.38 23.907z" id="152528" data-name="Ciolănești" class="comuna"/>
    <path d="M465.503 114.124l-23.82 18.483 10.764 8.895-3.827 18.18 4.604 20.594 10.375 14.647-20.546 12.22-10.634-3.5-23.488 6.778-3.088-4.04-11.967-5.464-17.942-20.092L363.69 157.3l30.569-18.993 25.47-26.446-10.159-14.209 15.719-14.154-9.204-11.646 5.625-2.985 10.325-5.907 22.799 32.016 10.669 19.148z" id="154585" data-name="Tătărăștii de Jos" class="comuna"/>
    <path d="M234.794 358.912l-1.103 16.597 17.242 19.448 13.132-1.096-2.124 23.804-12.46 22.342-16.16 10.046-15.553 16.767-1.036-11.802-15.739-2.511-2.455-20.83-15.07-5.398-1.35-18.212-10.354-26.032 26.792-17.02 22.03-19.57 14.208 13.467z" id="153277" data-name="Măldăeni" class="comuna"/>
    <path d="M217.768 466.82l-1.154 1.059-32.36 21.462-34.8 13.2-11.624-28.215-9.184-11.363-17.686.844-15.41 7.15-7.813-14.523 27.45-7.316 3.59-5.67 27.088-3.899-1.84-5.764 39.442-7.506 15.071 5.398 2.455 20.83 15.74 2.511 1.035 11.802z" id="152467" data-name="Călmățuiu de Sus" class="comuna"/>
    <path d="M373.795 695.422l-.058 14.189 23.464 11.173 9.682 25.637 16.468 20.89 5.784 33.196-4.99 20.78-11.773-4.02-25.907 6.71-7.856-31.067-15.837.223-.549-15.62 16.885-4.857.535-8.6-24.651-9.782 4.16-10.255-19.293-7.736-5.43-16.965 3.695-10.682 7.656-17.226 10.648-7.533 17.367 11.545z" id="153124" data-name="Lisa" class="comuna"/>
    <path d="M403.339 435.002l11.47 14.856-22.41 23.59-16.902-12.231-4.695 31.252.17 19.008-21.94 39.755-3.93-8.233-34.907-74.505-16.376-25.998 18.042-4.697 17.095-11.564 16.066 21.222 28.356 11.884 29.961-24.339z" id="153543" data-name="Peretu" class="comuna"/>
    <path d="M757.174 347.835l-5.91 1.945-12.416-20.482-16.585 7.475-4.17-6.548-20.109 11.551-13.075-19.925 22.671-38.259 20.003-9.336-13.753-18.293 5.233-9.708 24.378 2.656 5.231-8.489 7.533-19.775 10.353 3.923-1.457 22.405 23.123 12.547-4.656 15.365-18.147 28.97-8.247 43.978z" id="153295" data-name="Mereni" class="comuna"/>
    <path d="M713.83 255.963l13.753 18.293-20.003 9.336-22.67 38.26-13.924-13.512-10.156-8.592-.955-14.653 20.143-26.2 24.623 5.542 9.19-8.474z" id="151932" data-name="Crevenicu" class="comuna"/>
    <path d="M660.83 299.748l10.156 8.592-8.574 5.537 7.981 12.722-36.011 33.407-24.27-9.03 13.684-17.186-2.514-13.599 6.714-21.207 4.251-6.936.372-.6 22.167 11.107 6.044-2.807z" id="153384" data-name="Moșteni" class="comuna"/>
    <path d="M747.415 694.928l-.083 16.815-55.379.768-5.123 10.638-24.267 6.658-.29 9.202-25.685 1.454-11.803-25.563 36.411-5.907-2.037-14.282 15.98-8.936 49.794-.316 5.675-14.334 10.683-.21.284 24.03 5.84-.017z" id="152564" data-name="Conțești" class="comuna"/>
    <path d="M611.83 592.12l-10.782 7.135-.118 18.393 5.948 2.625 29.382-2.263 16.659 3.63.239-12.847 55.02.524 21.813 2.756.165 22.96-5.473 13.47-49.697 1.263.083 13.684-27.887-3.78-38.95.35-17.057-8.547-13.353-13.267-1.801-15.127 5.425-32.307-7.228-7.733 6.201-6.118 15.59 16.89 15.821-1.691z" id="154497" data-name="Ștorobăneasa" class="comuna"/>
    <path d="M692.024 550.951l10.507 4.834 15.853-5.935 9.159 13.398 7.595 11.238-2.945 3.996-23.931.084-.084 30.751-55.02-.524-.24 12.847-16.658-3.63-29.382 2.263-5.948-2.625.118-18.393 10.782-7.135-.487-28.567-15.863-10.384 5.999-1.261 16.956-18.438 8.95 6.611 13.745-.188.21 12.297 16.441 5.926 32.652-.255 1.591-6.91z" id="153339" data-name="Mîrzănești" class="comuna"/>
    <path d="M624.785 714.9l11.803 25.563 3.495 16.656-12.315-1.77-6.855 7.892-2.859 16.14-10.72-.135-11.392.433-2.59-18.274-27.25-4.935 6.353-37.828 29.35-13.82 12.866-13.032 10.114 23.11z" id="152993" data-name="Frumoasa" class="comuna"/>
    <path d="M560.558 586.506l-16.737 22.199-11.077-5.906-12.119 6.191-6.33-7.587-43.746 36.508-7.382 5.69-11.554-13.76-11.24-13.379 37.921-31.804 11.79 13.92 20.19-10.43 22.245-20.24 19.654-6.369 8.385 24.967z" id="151834" data-name="Poroschia" class="comuna"/>
    <path d="M505.33 693.41l-15.942 34.71-4.981-2.326-13.743 30.817-9.97-4.261-7.186 15.98-46.625-21.909-9.681-25.637 23.345 4.204.336-8.58 42.08 17.227 11.107-12.47 9.55-22.595 8.053-5.62 13.657.46z" id="154914" data-name="Viișoara" class="comuna"/>
    <path d="M314.131 339.553l-24.993 2.69-7.642-9.828-13.02 3.455-1.495-33.053-17.595 4.238-6.863-7.217 7.895-11.948 19.421-6.561-.301-7.595 16.947-14.001 16.03 19.421-8.097 7.447 19.143 26.876.57 26.077z" id="152797" data-name="Drăcșenei" class="comuna"/>
    <path d="M334.989 227.726l7.082 17.34-6.738 7.036 9.16 9.563 14.811-10.88 18.776 26.892 6.27 21.433-33.96 13.552-23.073 19.342-4.47 15.049-8.716-7.5-.57-26.076-19.143-26.875 8.098-7.448-16.031-19.421 18.373-18.383 30.131-13.624z" id="153972" data-name="Săceni" class="comuna"/>
    <path d="M242.523 299.838l6.863 7.217 17.595-4.238 1.495 33.053 13.02-3.455 7.642 9.829 24.993-2.69 8.715 7.499.99 1.286-37.903 22.086L280.638 385l-16.573 8.86-13.132 1.096-17.242-19.448 1.103-16.597 9.68-15.19-13.434-4.63-6.673-18.855-18.084-5.653 36.24-14.746z" id="154013" data-name="Scrioaștea" class="comuna"/>
    <path d="M338.124 708.636l-3.695 10.682 5.43 16.965 19.293 7.736-4.16 10.255 24.651 9.781-.535 8.601-16.885 4.856.549 15.621 15.837-.223 7.856 31.066-18.797 8.149-41.74-7.576-27.486-21.482-7.24-11.28 14.747-5.88 11.904-23.004-14.782-12.408 5.371-13.673-10.167-4.15-.685-10.296-12.386-5.073 5.106-12.879-9.397-3.58-5.879 12.433-10.232-4.306 20.323-15.41 12.654-9.407 13.087 5.29-6.753 17.3 34.011 1.892z" id="154139" data-name="Seaca" class="comuna"/>
    <path d="M354.298 373.611l4.12 7.392-31.308 24.577-11.55-4.001-13.636-14.053-16.617 7.134-4.67-9.66 5.296-14.575 37.902-22.087 8.45 13.058 22.013 12.215z" id="152868" data-name="Drăgănești de Vede" class="comuna"/>
    <path d="M229.126 508.673l-13.581 12.268 1.365 19.904-3.108 14.61-13.26 18.498-2.294 9.341-15.54 5.414-3.726 15.908-28.345 11.28-4.876-14.952-8.687-8.04-7.071-19.725 2.586-17.743 8.976 7.051 13.244-19.977 14.82 2.012 2.752-28.22 13.93-1.88 5.256-18.006 35.698-4.445 1.86 16.702z" id="152412" data-name="Călmățuiu" class="comuna"/>
    <path d="M748.08 414.092l-6.827-15.886-18.94-13.37-1.906-15.854 23.322-3.068 7.535-16.134 5.91-1.945 34.26 7.948-.864 6.483-17.908-3.008 1.833 30.417 19.802-8.86 4.703 7.48-13.97 17.092-24.858-3.329-12.092 12.034z" id="152270" data-name="Bujoreni" class="comuna"/>
    <path d="M625.435 144.638l-5.671 8.377-24.352 17.516-12.94-11.24-20.798 2.999-4.727-10.619 1.904-8.409 16.489-13.94 15.944-7.505 17.005 10.325.305 8.526 16.841 3.97z" id="155136" data-name="Purani" class="comuna"/>
    <path d="M663.686 203.172l-16.073 23.117-6.423 29.991-17.23 14.232 12.865 8.19-4.206 12.747-.372.599-7.474 6.292-11.743-12.344-19.445-.012-21.784-40.708 26.934-27.587-6.865-19.89-29.995-28.306-.201-7.203 20.798-2.999 12.94 11.24 24.352-17.516 5.671-8.376 3.461 19.485-6.875 28.764 29.773 10.84 11.892-.556z" id="152083" data-name="Blejești" class="comuna"/>
    <path d="M576.02 623.079l1.802 15.127 13.353 13.267-16.7 15.964-17.578 8.135-14.316 11.8-14.088-16.857-20.424 16.874-16.396 5.562-8.054 5.619 3.49-17.939 22.606-8.567 48.572-40.44 17.734-8.545z" id="152252" data-name="Brînceni" class="comuna"/>
    <path d="M608.233 660.02l-2.108 19.038 8.546 12.732-12.866 13.033-29.35 13.819-6.353 37.828-2 10.798-17.845-3.738 3.843-8.263-20.3-9.006 6.6-15.3 10.41 3.858 26.905-23.511-.425-14.183 12.522-16.537-11.337-13.151 16.7-15.964 17.058 8.547z" id="154380" data-name="Smîrdioasa" class="comuna"/>
    <path d="M574.475 667.437l11.337 13.151-12.522 16.537.425 14.183-26.905 23.51-10.41-3.858-6.6 15.301-10.303-4.453-10.196-4.521 13.133-35.098-17.104-8.779-13.657-.46 16.396-5.56 20.424-16.875 14.088 16.856 14.316-11.799 17.577-8.135z" id="153106" data-name="Izvoarele" class="comuna"/>
    <path d="M127.972 541.006l-57.495 19.999 4.268 15.593-14.694 5.966-7.505-10.666-18.558 4.457-10.004-3.75-1.441-17.067L1 554.952l3.649-22.794 19.973-2.877 68.47-16.215 21.078 12.684 13.802 15.257z" id="153623" data-name="Plopii-Slăvitești" class="comuna"/>
    <path d="M93.091 513.065l-68.47 16.215-19.972 2.877 5.058-27.35 32.835-15.63 43.574-9.556 6.975 33.444z" id="155083" data-name="Beciu" class="comuna"/>
    <path d="M216.614 467.879l8.08-.89 2.571 24.982-35.697 4.445-5.257 18.005-13.93 1.882-2.752 28.22-14.82-2.013-13.244 19.977-8.976-7.051-4.617-14.43-13.802-15.257-21.079-12.684-6.975-33.444-5.338-6.63-1.256-14.365 8.215-2.192 7.813 14.522 15.41-7.149 17.687-.844 9.183 11.363 11.623 28.215 34.8-13.2 32.361-21.462z" id="152617" data-name="Crîngeni" class="comuna"/>
    <path d="M150.637 615.896l-4.736 12.202-30.949 10.555 12.438 19.702-26.325 33.718 1.354 2.794-.234.021-20.276-2.864-1.05-3.836 6.968-7.016-15.047-15.401 19.806-15.319-.907-5.593 17.175-15.174-4.824-14.47 20.74-7.353-3.066-9.517 15.37-5.441 8.687 8.04 4.876 14.952z" id="155145" data-name="Saelele" class="comuna"/>
    <path d="M178.982 604.616l31.987 17.773-7.654 14.704-5.98 11.112 9.397 5.089-21.333 40.05-8.646 7.697-29.684 9.458-25.915 20.05-16.733-5.716-6.944-12.24 1.324-10.176 11.748-3.048 22.172-14.144 16.388-20.95 18.035-5.844-6.849-23.46-9.658-19.075 28.345-11.28z" id="154184" data-name="Segarcea-Vale" class="comuna"/>
    <path d="M280.638 385l4.67 9.66 20.851 12.853 22.797 18.722-17.095 11.563-18.042 4.698-29.072 22.05 10.739 17.659 4.762 18.452-2.65 11.119-14.257.834-12.743 11.027-2.494-11.793-18.978-3.171-1.86-16.702-2.571-24.982-8.08.89 1.153-1.059 15.553-16.767 16.16-10.046 12.46-22.342 2.124-23.804 16.573-8.86z" id="151870" data-name="Roșiori de Vede" class="municipiu"/>
    <path d="M250.598 523.637l10.304 11.06 2.907 12.041-7.693.73 7.375 28.85.02 13.115-27.98 11.54-14.091 1.471-10.471 19.945-31.987-17.773 3.726-15.908 15.54-5.414 2.294-9.341 13.26-18.498 3.108-14.61-1.365-19.904 13.58-12.269 18.98 3.172 2.493 11.793z" id="153936" data-name="Salcia" class="comuna"/>
    <path d="M203.315 637.093l33.756 18.089-5.82 10.669-16.33 18.406-15.846 29.04-30.336 10.17 2.935 17.209-28.79 7.974-7.465 5.522-5.371 3.878-3.585 2.612-1.996-12.08-12.754-9.71 9.44-8.322 25.916-20.05 29.684-9.459 8.646-7.698 21.333-40.049-9.397-5.089 5.98-11.112z" id="151763" data-name="Lița" class="comuna"/>
    <path d="M285.125 693.56l-20.323 15.41 10.232 4.307 5.879-12.432 9.397 3.58-5.106 12.878 12.386 5.073.685 10.296 10.167 4.15-5.37 13.673 14.781 12.408-11.904 23.004-14.748 5.88-24.063-2.907 1.27-7.773 18.044 2.28-2.537-24.002-15.712-.563-2.563-10.53-15.858-4.27-5.319-19.649 15.684-12.258-16.158-21.808 16.387-12.426 8.322-6.31 16.427 21.99z" id="154736" data-name="Traian" class="comuna"/>
    <path d="M260.376 677.881l-16.387 12.426-8.311 6.208-1.428 15.066-14.143 2.305-11.175 9.267 16.39 15.704 19.141-14.484 5.32 19.65-22.937 1.123.149 32.097 8.8 13.636 15.855-3.428-19.677 13.321-32.166 9.174-16.794.02-14.127-5.81-19.37 1.315-6.904-10.55 12.105-7.505-23.913-13.885-4.341-12.869 3.585-2.612 1.087 11.811 16.69 2.533-12.406-18.222 7.466-5.522 28.789-7.974-2.935-17.21 30.336-10.17 15.845-29.039 16.33-18.406 11.011 4.984 8.386-6.274 9.729 13.32z" id="151683" data-name="Turnu Magurele" class="municipiu"/>
    <path d="M722.313 384.836l18.94 13.37 6.827 15.886 2.91 6.634-15.133 9.952.55 17.782-18.857 30.301-3.245 24.014-15.407-3.71-16.736 8.045-13.38-19.702-4.74 3.25-17.458-24.921 8.907-6.13-5.236-17.143 28.253-12.031 2.395-12.24-38.874 6.802 1.927 8.527-15.404-1.166-6.224-28.163 15.57-3.433 14.22-21.755 14.42 12.744-12.418 11.767 22.015 13.925 7.696-14.66 18.205-2.16 20.277-15.785z" id="152902" data-name="Drăgănești-Vlașca" class="comuna"/>
    <path d="M576.02 623.079l-17.733 8.544-48.572 40.44-22.606 8.568-5.713-4.665.228-23.852-11.075-14.203 43.745-36.508 6.332 7.587 12.118-6.19 11.077 5.905 16.737-22.199 13.66-3.467 7.228 7.733-5.425 32.307z" id="154834" data-name="Țigănești" class="comuna"/>
    <path d="M319.456 606.49l-13.616 6.036 12.01 26.433-.527 14.67 15.425 6.73-10.732 13.953-24.237 9.842-12.654 9.407-16.427-21.99-8.322 6.31-9.73-13.32-4.537-8.824 21.491-13.121 28.094-1.675-.163-22.464-6.393-6.674 21.98-23.827 8.338 18.514z" id="155109" data-name="Dracea" class="comuna"/>
    <path d="M300.298 563.95l10.82 24.026-21.98 23.827 6.393 6.674.163 22.464-28.094 1.675-21.49 13.121 4.536 8.824-8.385 6.274-11.01-4.984 5.82-10.67-33.756-18.088 7.654-14.704 10.47-19.945 14.091-1.471 27.98-11.54-.02-13.115-7.374-28.85 7.693-.73 19.479-1.697 8.618 15.244 8.392 3.666z" id="153829" data-name="Putineiu" class="comuna"/>
    <path d="M595.088 113.026l-27.3-3.684-12.332-13.588 7.793-35.862 39.082-.795 17.52-17.934 2.241-7.539L637.6 46.601l4.652 6.452-29.464 46.918-17.7 13.055z" id="153062" data-name="Gratia" class="comuna"/>
    <path d="M622.092 33.624l-2.24 7.539-17.52 17.934-39.083.795-14.68-7.236 6.085-8.75-8.575-11.019 4.508-11.226L564.316 7.67 568.856 1l33.391 16.406 8.641 23.438 11.204-7.22z" id="154308" data-name="Sîrbeni" class="comuna"/>
    <path d="M465.5 359.125l5.195 5.751 20.203 49.81-3.174 4.633-5.835 21.144-40.735 12.96-10.102-12.088-16.244 8.523-11.469-14.856-19.738-27.781 20.526-13.5 26.147-9.357-5.995-15.96 14.441-8.354 26.78-.925z" id="152350" data-name="Călinești" class="comuna"/>
  </g>
</svg>
